<?xml version="1.0" standalone="no"?>
<!DOCTYPE svg PUBLIC "-//W3C//DTD SVG 20010904//EN"
 "http://www.w3.org/TR/2001/REC-SVG-20010904/DTD/svg10.dtd">
<svg version="1.0" xmlns="http://www.w3.org/2000/svg"
 width="799.000000pt" height="799.000000pt" viewBox="0 0 799.000000 799.000000"
 preserveAspectRatio="xMidYMid meet">
<metadata>
Created by potrace 1.14, written by Peter Selinger 2001-2017
</metadata>
<g transform="translate(0.000000,799.000000) scale(0.100000,-0.100000)"
fill="#000000" stroke="none">
<path d="M301 7868 c-1 -67 2 -119 6 -114 4 4 9 52 9 107 1 55 4 103 8 106 4
4 101 7 216 7 116 0 210 4 210 8 0 4 -101 8 -224 8 l-224 0 -1 -122z"/>
<path d="M770 7981 c0 -5 20 -8 45 -7 54 3 55 1 46 -89 -1 -5 -29 -11 -64 -11
-100 -2 -162 -15 -207 -43 -26 -15 -80 -71 -80 -82 0 -3 -37 -5 -82 -5 -89 2
-126 -3 -109 -13 6 -4 49 -6 96 -6 81 2 91 -2 86 -28 -4 -20 45 -87 75 -103
l33 -18 -48 -27 c-83 -48 -104 -144 -49 -224 26 -38 98 -81 153 -89 90 -15
252 -10 325 10 105 30 169 130 140 219 -11 32 -76 99 -89 91 -3 -2 -12 2 -19
10 -8 9 -9 14 -2 14 7 0 29 18 51 41 32 33 39 48 39 81 0 49 -21 87 -68 118
-19 14 -38 25 -41 26 -3 0 -18 4 -32 8 -14 4 -32 8 -40 10 -48 8 -57 17 -50
44 4 15 5 38 1 52 -5 22 -12 25 -58 28 -29 2 -52 -1 -52 -7z m68 -217 c35 -10
26 -25 -12 -21 -19 2 -40 0 -48 -4 -16 -10 -15 -10 42 -13 25 -2 50 1 57 6 15
12 26 -22 17 -57 -16 -65 -159 -63 -176 3 -6 23 0 35 27 50 13 7 15 11 6 12
-23 0 20 29 44 30 11 0 30 -3 43 -6z m25 -256 c29 -17 41 -36 47 -78 16 -112
-183 -131 -205 -20 -16 78 84 139 158 98z"/>
<path d="M1247 7692 c-14 -3 -17 -15 -17 -62 l0 -60 108 1 c151 1 150 1 131
-14 -19 -14 -83 -65 -113 -89 -11 -10 -26 -21 -31 -25 -6 -5 -33 -26 -60 -47
-28 -22 -52 -41 -54 -42 -3 -3 -5 -72 -2 -104 1 -13 38 -15 289 -15 l287 1 0
59 0 60 -151 0 c-117 0 -150 3 -147 13 3 6 9 12 13 12 10 0 123 91 128 102 2
4 10 8 18 8 8 0 14 3 14 8 1 4 25 25 55 47 54 40 54 41 55 93 0 47 -2 52 -22
52 -140 3 -488 4 -501 2z"/>
<path d="M2045 7686 c-130 -33 -205 -121 -199 -236 1 -25 3 -46 4 -47 1 -2 3
-7 4 -12 3 -21 69 -104 87 -108 10 -3 19 -9 19 -13 0 -8 71 -33 102 -34 13 -1
28 -4 33 -7 13 -6 156 -3 215 6 25 3 64 15 86 26 41 19 104 72 104 87 0 4 -28
8 -63 10 -34 2 -82 5 -107 7 -30 2 -50 -1 -61 -11 -46 -42 -163 -27 -184 23
-19 44 -24 43 212 43 l225 0 -6 55 c-10 98 -53 154 -146 195 -45 19 -76 24
-165 26 -66 2 -130 -2 -160 -10z m190 -101 c33 -13 64 -60 49 -74 -3 -3 -53
-6 -110 -7 -115 0 -121 4 -79 55 35 41 83 50 140 26z"/>
<path d="M2654 7690 l-28 -5 -1 -222 c0 -144 3 -224 10 -226 5 -2 55 -3 110
-2 l100 0 2 105 c2 154 5 173 25 193 31 31 65 38 102 23 40 -17 47 -43 45
-181 0 -49 0 -101 0 -115 l1 -25 103 0 c56 0 107 3 112 7 15 9 10 306 -5 354
-14 41 -32 64 -49 64 -6 0 -11 4 -11 8 0 14 -74 32 -132 32 -63 0 -108 -13
-158 -47 -45 -30 -50 -29 -46 7 3 28 1 30 -28 31 -17 0 -52 1 -77 2 -25 1 -59
0 -75 -3z"/>
<path d="M3510 7692 c-8 -3 -26 -9 -40 -15 -14 -6 -28 -10 -31 -9 -3 1 -20
-14 -38 -32 -83 -86 -17 -188 136 -210 21 -4 48 -8 58 -10 11 -2 43 -7 70 -11
28 -5 53 -9 58 -11 4 -1 11 -2 16 -3 5 0 11 -10 14 -21 8 -31 -30 -49 -97 -46
-47 2 -62 8 -79 28 -23 25 -40 27 -172 14 -22 -2 -45 -4 -52 -5 -7 -1 -10 -8
-6 -18 10 -27 50 -73 57 -66 3 4 6 2 6 -3 0 -12 49 -31 105 -41 76 -13 250 -7
310 12 117 37 167 134 106 207 -32 38 -92 62 -191 73 -158 18 -166 20 -173 39
-10 27 11 40 66 40 43 1 61 -4 79 -20 15 -15 33 -21 53 -18 17 1 61 5 99 8 38
3 71 7 73 10 3 2 -10 21 -29 41 -51 56 -117 74 -263 73 -66 -1 -127 -3 -135
-6z"/>
<path d="M4213 7677 c-116 -41 -177 -122 -170 -227 8 -112 84 -192 207 -216
40 -8 185 -8 246 -1 23 3 62 14 86 25 47 21 122 81 113 91 -3 3 -25 6 -48 8
-23 1 -68 4 -100 7 -46 3 -66 0 -93 -16 -25 -15 -47 -19 -86 -16 -55 3 -78 19
-97 69 l-9 24 228 -3 228 -3 -5 53 c-8 97 -50 154 -143 196 -47 21 -72 25
-175 28 -103 2 -129 0 -182 -19z m222 -90 c23 -8 61 -65 50 -75 -10 -11 -215
-10 -215 0 0 25 35 71 60 80 19 6 79 4 105 -5z"/>
<path d="M5385 7690 c-63 -14 -108 -36 -147 -73 -100 -94 -88 -256 24 -332
100 -68 330 -81 453 -25 89 40 160 141 97 138 -9 0 -52 3 -95 7 l-78 7 -29
-32 c-24 -27 -37 -33 -80 -36 -90 -6 -141 39 -136 121 3 52 19 81 56 100 56
29 153 13 165 -27 5 -13 13 -17 33 -14 15 3 59 8 97 12 39 3 73 8 77 10 27 16
-63 105 -130 129 -54 20 -244 29 -307 15z"/>
<path d="M6123 7685 c-129 -36 -205 -126 -198 -236 3 -53 16 -86 47 -119 25
-28 108 -84 108 -74 0 4 6 2 13 -4 33 -27 214 -34 307 -11 75 19 183 118 187
171 6 77 2 105 -19 147 -25 48 -98 107 -147 117 -14 3 -33 9 -41 13 -28 14
-203 11 -257 -4z m183 -116 c8 -6 14 -8 14 -4 0 4 10 -4 21 -19 14 -17 23 -45
24 -74 5 -82 -38 -131 -111 -127 -71 4 -104 38 -106 110 -1 52 18 98 46 111
32 15 96 16 112 3z"/>
<path d="M6744 7690 l-40 -5 0 -222 c0 -123 3 -224 6 -224 15 -4 197 -5 207
-1 7 2 11 43 11 127 0 169 9 191 78 198 29 4 42 0 59 -17 21 -21 22 -31 21
-164 0 -78 1 -143 4 -143 22 -6 213 -3 216 3 3 4 5 65 6 135 0 71 5 136 10
145 12 24 57 44 89 40 54 -7 61 -27 62 -184 l2 -143 95 -1 c52 0 101 2 108 4
9 3 12 48 12 178 0 180 -4 199 -45 237 -38 35 -83 47 -168 44 -70 -3 -89 -8
-127 -32 -25 -15 -48 -32 -51 -38 -4 -5 -13 0 -20 10 -54 76 -248 85 -330 16
-25 -21 -30 -22 -35 -9 -3 9 -4 22 -1 30 5 11 -8 15 -61 18 -37 2 -85 1 -108
-2z"/>
<path d="M4822 7322 l-1 -87 107 1 c59 1 112 2 119 3 9 1 12 26 12 86 l0 85
-118 0 -118 0 -1 -88z"/>
<path d="M5717 6944 c-1 -1 -67 -5 -147 -8 -80 -4 -167 -9 -195 -12 -79 -7
-120 -12 -120 -14 0 0 -20 -3 -45 -5 -58 -5 -118 -13 -150 -20 -14 -3 -38 -8
-55 -11 -210 -37 -427 -119 -537 -202 -104 -79 -152 -170 -157 -297 -7 -190
138 -330 448 -435 106 -35 322 -87 396 -95 17 -1 55 -6 85 -10 278 -36 824
-41 1085 -10 17 2 50 6 75 8 25 3 59 8 75 11 17 2 50 8 75 11 25 4 54 9 65 11
11 2 31 6 45 9 14 3 52 12 85 20 33 9 70 18 82 20 86 19 313 111 313 127 0 4
7 8 16 8 9 0 45 29 80 65 54 55 66 74 85 135 31 102 24 211 -19 300 -47 100
-117 162 -250 222 -58 26 -227 88 -242 88 -3 1 -21 5 -40 10 -19 5 -81 20
-138 34 -114 27 -115 26 -127 -42 -3 -17 -10 -44 -16 -59 -6 -15 -10 -29 -10
-30 1 -2 1 -4 0 -5 0 -2 -2 -10 -4 -18 -7 -28 -14 -55 -29 -110 -24 -86 -24
-86 54 -110 122 -38 201 -107 186 -163 -9 -36 -52 -78 -101 -99 -34 -14 -107
-40 -125 -43 -77 -16 -135 -23 -245 -31 -49 -3 -94 -7 -100 -7 -6 -1 -11 130
-13 373 -2 206 -5 377 -8 380 -5 4 -372 8 -377 4z m-148 -569 c0 -180 -1 -189
-29 -187 -138 8 -199 13 -215 16 -11 2 -45 7 -75 12 -30 4 -58 9 -62 10 -5 1
-10 2 -13 3 -3 0 -8 2 -12 3 -5 0 -24 8 -43 16 -52 22 -85 34 -88 32 -10 -4
-62 66 -63 84 -2 37 1 46 34 79 47 48 202 95 335 100 6 0 12 3 12 6 0 3 49 7
109 9 l109 2 1 -185z"/>
<path d="M2410 6928 c0 -15 82 -19 96 -5 4 4 -5 7 -22 6 -16 -2 -39 1 -51 5
-16 5 -23 3 -23 -6z"/>
<path d="M2278 6919 c-16 -10 14 -17 37 -9 11 4 30 6 43 4 14 -3 21 0 17 6 -7
11 -79 10 -97 -1z"/>
<path d="M2540 6915 c0 -13 87 -18 94 -6 3 5 -17 11 -44 13 -29 2 -50 -1 -50
-7z"/>
<path d="M2063 6908 c-24 -5 -43 -14 -43 -19 0 -6 9 -7 20 -4 11 3 33 7 49 7
20 1 28 5 24 14 -3 8 -6 14 -7 13 0 -1 -20 -5 -43 -11z"/>
<path d="M2155 6909 c-13 -5 0 -8 38 -7 31 1 57 5 57 9 0 11 -68 9 -95 -2z"/>
<path d="M2665 6909 c-4 -5 -3 -9 2 -10 4 -1 20 -2 34 -3 14 -2 31 -6 37 -10
7 -4 12 -2 12 4 0 6 5 8 12 4 7 -4 8 -3 4 4 -4 7 -17 11 -29 11 -12 -1 -32 1
-44 4 -13 3 -25 2 -28 -4z"/>
<path d="M1968 6894 c-3 -3 -19 -7 -34 -8 -16 -2 -33 -4 -37 -5 -5 0 -6 -5 -2
-10 3 -6 18 -6 37 -1 17 5 34 7 39 5 4 -3 10 -1 13 4 7 10 -8 24 -16 15z"/>
<path d="M2810 6875 c27 -14 36 -13 25 4 -3 6 -16 11 -28 11 -21 -1 -21 -1 3
-15z"/>
<path d="M1805 6873 c-16 -3 -34 -9 -40 -14 -7 -7 0 -9 20 -5 17 2 40 5 53 5
12 1 22 6 22 11 0 6 -6 9 -12 9 -7 -1 -26 -4 -43 -6z"/>
<path d="M2850 6871 c0 -11 31 -24 39 -16 3 3 -1 10 -9 15 -19 12 -30 12 -30
1z"/>
<path d="M1720 6851 c0 -6 -3 -10 -7 -9 -5 1 -23 -1 -40 -5 -33 -7 -46 -24
-18 -24 8 0 15 3 15 6 0 3 12 7 26 8 31 1 51 17 35 27 -6 4 -11 2 -11 -3z"/>
<path d="M2914 6853 c7 -7 76 -33 89 -33 22 0 2 17 -33 28 -44 13 -67 16 -56
5z"/>
<path d="M1563 6804 c-18 -8 -33 -19 -33 -24 0 -6 13 -4 30 5 16 8 32 15 35
15 21 -1 25 1 20 10 -8 12 -12 12 -52 -6z"/>
<path d="M3035 6810 c4 -6 10 -8 15 -5 4 3 11 -1 13 -7 3 -8 6 -6 6 5 1 11 -6
17 -20 17 -11 0 -17 -5 -14 -10z"/>
<path d="M3080 6793 c0 -9 3 -13 7 -10 3 4 12 2 19 -4 7 -6 15 -6 18 -1 3 5
-6 14 -19 20 -21 10 -25 9 -25 -5z"/>
<path d="M1465 6759 c-16 -11 -34 -21 -40 -23 -5 -2 -7 -6 -4 -10 8 -9 59 14
59 26 0 5 4 7 9 3 5 -3 12 -1 15 4 12 18 -9 18 -39 0z"/>
<path d="M2153 6753 c-37 -6 -81 -17 -98 -24 -16 -6 -39 -12 -50 -13 -11 -1
-26 -5 -32 -9 -7 -5 -13 -6 -13 -2 0 3 -12 -1 -27 -8 -16 -8 -49 -17 -75 -21
-25 -4 -52 -13 -58 -21 -7 -8 -16 -12 -21 -10 -4 3 -25 -11 -46 -32 -21 -21
-41 -38 -44 -38 -8 0 -89 -68 -134 -112 -19 -18 -37 -33 -42 -33 -12 0 -133
-126 -133 -138 0 -6 -8 -15 -17 -21 -10 -5 -15 -13 -11 -17 4 -3 -13 -30 -37
-58 -56 -64 -60 -87 -4 -26 23 25 35 36 28 25 -8 -11 -16 -22 -19 -25 -3 -3
-20 -24 -37 -48 -17 -24 -35 -43 -40 -41 -10 2 -54 -78 -82 -149 -20 -49 -14
-72 8 -34 10 15 11 15 8 -3 -3 -24 -32 -67 -39 -59 -22 21 -31 -186 -14 -306
15 -109 19 -126 28 -140 6 -10 7 -4 3 20 -5 26 -4 31 4 20 6 -8 11 -24 11 -36
0 -12 11 -38 25 -58 14 -20 25 -42 25 -49 -1 -7 -8 2 -17 18 -23 42 -29 13 -7
-33 16 -35 152 -240 194 -292 11 -14 20 -19 20 -12 0 7 5 10 11 6 8 -4 7 -9
-2 -15 -9 -6 -11 -12 -4 -16 6 -5 32 -36 59 -70 42 -56 70 -84 50 -50 -4 6 11
-4 33 -23 23 -19 44 -42 48 -50 3 -8 -12 3 -34 25 -62 59 -49 31 22 -49 118
-134 232 -246 245 -241 7 3 10 0 7 -5 -8 -13 219 -230 240 -230 6 0 -36 44
-91 98 -66 62 -73 71 -20 23 44 -41 116 -103 160 -138 85 -68 76 -67 136 -19
14 12 9 4 -12 -17 -43 -43 -50 -42 -115 18 -35 32 -53 42 -53 31 0 -3 28 -32
63 -66 60 -59 61 -62 42 -76 -42 -32 -55 -36 -55 -16 0 16 -205 220 -231 230
-24 9 1 -20 76 -90 83 -78 106 -109 30 -42 -89 79 -136 129 -126 132 22 7 11
23 -11 17 -16 -4 -19 -3 -9 3 10 7 3 19 -34 53 -65 60 -80 62 -25 3 l45 -48
-55 48 c-79 71 -91 83 -57 63 40 -25 33 -8 -16 39 -45 43 -196 212 -253 283
-10 13 -23 28 -29 35 -27 30 -87 110 -144 188 -34 48 -66 90 -71 93 -16 10 2
-27 30 -65 73 -96 119 -164 115 -168 -3 -3 -6 -3 -8 -1 -2 2 -14 20 -28 39
-106 145 -212 316 -207 332 2 6 17 -15 33 -46 26 -52 45 -77 45 -61 0 4 -27
60 -60 126 -114 225 -142 345 -144 609 -1 143 6 201 34 291 41 130 162 306
292 421 37 34 66 63 64 66 -7 6 -66 -31 -66 -42 0 -5 -3 -7 -6 -4 -3 3 1 16 8
27 11 18 11 23 0 30 -16 10 -1 24 41 40 15 6 27 15 27 20 0 6 -17 3 -37 -6
-53 -21 -66 -33 -53 -48 11 -14 0 -27 -34 -39 -19 -7 -19 -6 -1 14 26 28 9 25
-34 -7 -63 -47 -252 -233 -303 -298 -42 -54 -110 -192 -142 -288 -38 -111 -45
-170 -42 -327 3 -166 15 -238 57 -365 71 -209 266 -513 466 -728 115 -123 495
-499 562 -557 35 -30 82 -72 105 -92 l41 -37 -35 -32 c-268 -244 -356 -326
-441 -414 -310 -319 -516 -667 -585 -990 -3 -16 -8 -88 -9 -160 -3 -124 2
-165 40 -326 8 -35 67 -175 96 -228 96 -175 257 -353 409 -453 96 -63 295
-168 319 -168 9 0 30 -9 48 -20 18 -11 35 -15 38 -10 3 6 21 4 43 -5 36 -14
232 -74 262 -80 8 -1 72 -6 142 -10 69 -3 133 -8 142 -9 28 -4 29 -15 2 -27
-14 -7 -26 -16 -26 -21 0 -5 14 -1 30 9 17 9 30 20 30 24 0 4 33 10 73 14 39
4 81 9 92 11 11 2 45 6 75 9 30 3 81 10 113 16 33 6 73 12 91 13 18 2 41 6 52
9 10 3 42 9 69 12 80 11 99 14 150 25 57 13 215 98 215 116 0 7 8 15 19 19 10
3 28 13 39 23 11 9 40 33 64 52 112 90 284 307 304 384 3 14 10 26 15 26 5 0
9 6 9 13 0 8 7 28 16 46 9 17 31 75 49 128 30 86 33 108 34 211 0 126 -9 145
-15 30 -2 -40 -8 -86 -13 -103 -9 -28 -9 -27 -10 18 -1 26 3 47 8 47 9 0 7 63
-3 78 -3 5 -6 43 -5 83 0 118 -1 121 -11 134 -5 6 -8 14 -5 17 3 2 -2 27 -10
54 -17 56 -19 83 -6 69 13 -15 49 -170 53 -231 1 -18 5 -31 9 -28 4 2 6 14 4
27 -2 12 -6 56 -9 97 -8 103 -13 124 -47 206 -50 119 -203 377 -276 464 -11
14 -49 59 -84 100 -34 41 -151 163 -259 270 -172 171 -230 226 -340 320 -85
73 -92 82 -85 109 3 14 23 43 44 63 22 20 36 39 33 42 -3 3 0 6 6 6 6 0 62 51
124 114 227 230 318 332 318 359 0 9 5 19 10 22 17 11 11 23 -12 22 -15 0 -35
-15 -58 -44 -111 -141 -478 -516 -521 -531 -5 -2 -34 15 -64 37 -93 71 -95 71
-159 16 -31 -26 -54 -51 -51 -55 2 -4 -11 -21 -30 -39 -19 -17 -35 -27 -35
-22 0 5 10 16 23 24 12 9 17 16 11 16 -16 1 -55 -39 -48 -50 3 -5 2 -9 -3 -8
-18 3 -33 -2 -33 -11 0 -5 7 -7 16 -3 9 3 -6 -15 -33 -40 -28 -26 -53 -47 -56
-47 -3 0 13 18 36 40 23 22 37 40 32 40 -6 0 -34 -21 -62 -47 -58 -55 -208
-191 -271 -248 -24 -21 -41 -44 -38 -51 3 -8 0 -11 -8 -8 -7 3 -40 -21 -74
-54 -62 -58 -75 -76 -47 -66 8 3 13 11 12 17 -1 6 3 11 10 12 6 0 21 11 32 24
12 13 23 22 26 19 3 -3 -20 -28 -50 -56 -53 -50 -81 -68 -55 -37 15 19 1 19
-23 1 -13 -10 -15 -15 -5 -19 9 -3 6 -12 -12 -32 -30 -32 -87 -75 -75 -56 5 9
3 12 -6 9 -8 -3 -13 -12 -13 -21 1 -9 -2 -14 -7 -12 -4 3 -22 -9 -40 -26 -30
-29 -30 -31 -8 -25 22 7 22 5 -6 -19 -48 -41 -55 -46 -55 -40 0 4 -13 -9 -30
-27 -16 -18 -30 -37 -29 -43 0 -5 7 0 16 13 8 12 20 22 25 22 5 0 0 -12 -12
-27 -59 -77 -93 -128 -141 -213 -29 -51 -59 -95 -67 -97 -10 -5 -74 -114 -77
-133 0 -3 -4 -10 -8 -17 -4 -6 -3 -14 2 -17 5 -3 21 23 36 59 16 36 32 65 38
65 5 0 5 -6 -2 -14 -17 -20 -51 -125 -51 -157 0 -15 -5 -29 -10 -31 -6 -2 -12
-13 -13 -25 0 -12 -4 -20 -7 -18 -4 2 -5 19 -3 37 2 25 -1 20 -12 -17 -16 -54
-17 -115 -2 -115 6 0 7 -29 3 -72 -3 -43 -2 -67 3 -59 11 17 20 -50 10 -76 -4
-10 -8 -12 -8 -6 -1 7 -6 12 -12 10 -6 -1 -13 5 -14 13 -31 153 -24 345 18
470 6 19 12 37 12 40 8 31 110 245 125 263 6 6 35 48 65 92 81 117 194 238
406 436 163 152 270 251 373 344 18 17 82 75 142 130 59 55 135 125 169 155
120 110 502 497 572 580 39 47 100 126 137 175 36 50 69 95 74 100 21 28 113
190 141 250 84 178 122 331 126 508 5 294 -93 537 -300 742 -86 85 -131 122
-200 166 -70 44 -61 20 10 -28 36 -24 65 -45 65 -48 0 -3 -34 18 -77 45 -42
28 -87 53 -100 56 -19 5 -21 9 -11 18 7 6 12 10 10 9 -2 0 -20 4 -40 9 -20 6
-46 12 -57 13 -11 2 -67 18 -125 35 -58 17 -115 29 -128 27 -12 -2 -24 -1 -27
3 -2 4 -21 5 -42 4 -37 -4 -55 -4 -118 -3 -16 0 -48 0 -70 0 -22 -1 -77 0
-122 2 -45 1 -112 -3 -150 -10z m-903 -148 c0 -11 -70 -75 -81 -75 -6 0 8 18
32 40 45 41 49 44 49 35z m1525 -36 c1 -13 -8 -25 -27 -35 l-29 -15 23 -18
c13 -9 66 -41 118 -70 52 -30 127 -78 167 -107 76 -57 236 -232 266 -292 11
-21 28 -47 40 -59 11 -13 15 -23 9 -23 -6 0 3 -30 20 -67 25 -56 31 -84 34
-158 2 -49 6 -112 8 -140 2 -27 -1 -56 -6 -62 -6 -7 -8 -19 -5 -27 3 -7 -1
-26 -10 -42 -29 -57 -63 -147 -57 -155 3 -5 -4 -22 -15 -38 -11 -16 -25 -39
-30 -52 -5 -13 -18 -35 -30 -49 -61 -76 -201 -270 -201 -280 0 -6 -11 -15 -25
-22 -13 -6 -23 -14 -20 -18 2 -3 -16 -22 -39 -41 -24 -18 -56 -51 -72 -71 -15
-21 -32 -38 -37 -38 -16 0 -3 17 83 107 47 49 101 108 120 132 19 23 47 57 61
74 33 40 129 189 157 242 34 66 72 167 85 225 13 55 15 266 3 325 -3 17 -8 39
-10 50 -18 86 -115 247 -216 359 -62 68 -191 157 -315 216 -133 65 -203 88
-285 97 -30 3 -56 6 -58 8 -2 2 32 11 75 20 43 10 107 25 143 35 36 10 67 16
69 14 3 -3 5 -14 6 -25z m-1516 -36 c-108 -115 -198 -255 -231 -361 -11 -37
-28 -57 -28 -34 0 23 36 111 57 139 13 18 22 36 21 40 -5 17 211 273 230 273
3 0 -19 -26 -49 -57z m2056 -80 c58 -56 115 -119 115 -126 0 -2 20 -35 45 -73
25 -37 45 -73 45 -78 0 -6 -11 6 -25 26 -14 20 -25 40 -25 43 0 3 -4 11 -10
18 -5 7 -36 46 -68 87 -32 41 -85 99 -118 129 -32 30 -50 49 -39 44 11 -6 47
-38 80 -70z m-840 42 c33 -3 68 -9 77 -11 9 -3 27 -7 39 -9 131 -25 308 -112
439 -216 226 -179 322 -368 321 -633 0 -166 -49 -301 -186 -511 -113 -175
-335 -417 -676 -739 -136 -128 -130 -126 -174 -77 -20 22 -76 73 -123 113 -48
40 -92 78 -98 83 -6 6 -44 39 -85 75 -157 139 -415 389 -468 454 -181 221
-260 361 -297 521 -40 179 5 376 127 556 38 57 162 177 202 197 17 8 586 153
702 178 11 3 45 11 75 18 30 7 57 12 60 10 3 -1 33 -5 65 -9z m-1371 -26 c-3
-8 -22 -27 -42 -44 -31 -24 -34 -25 -17 -5 51 62 73 80 59 49z m-98 -111 c-9
-13 -32 -47 -52 -76 -20 -30 -38 -51 -41 -49 -7 7 89 147 101 147 5 0 1 -10
-8 -22z m441 -135 c-75 -78 -97 -107 -140 -180 -107 -184 -129 -395 -61 -586
24 -66 81 -185 94 -197 3 -3 21 -29 39 -58 19 -30 39 -59 45 -65 6 -7 22 -25
34 -42 117 -153 344 -375 675 -660 102 -88 186 -166 186 -173 1 -7 -56 38
-126 99 -110 96 -172 151 -277 242 -98 86 -346 326 -346 335 0 3 -15 20 -32
37 -49 48 -82 90 -96 119 -6 15 -19 29 -27 32 -8 4 -15 12 -15 19 0 8 -14 27
-31 44 -17 17 -28 31 -25 31 4 0 -4 17 -17 38 -56 87 -117 234 -117 279 0 13
-4 23 -10 23 -5 0 -12 17 -17 38 -4 20 -8 40 -9 45 -1 4 -2 17 -3 29 0 12 -4
18 -8 15 -7 -8 -33 39 -33 62 0 9 7 3 16 -14 20 -39 23 -41 21 -17 0 11 -5 18
-9 16 -4 -3 -8 1 -8 10 0 8 -3 22 -6 31 -4 10 -2 15 7 13 8 -2 17 12 24 37 6
22 16 50 23 62 7 13 13 39 14 58 1 26 5 34 17 33 11 -2 15 4 14 17 -2 21 26
75 40 75 4 0 6 4 2 9 -6 11 71 109 122 155 35 31 84 58 92 50 2 -2 -21 -30
-52 -61z m-547 -23 c0 -11 -4 -20 -9 -20 -5 0 -7 9 -4 20 3 11 7 20 9 20 2 0
4 -9 4 -20z m2640 -60 c6 -11 7 -20 2 -20 -6 0 -12 9 -15 20 -3 11 -3 20 -1
20 2 0 8 -9 14 -20z m-2679 -33 c-6 -15 -15 -27 -21 -27 -5 0 -2 16 7 36 19
39 29 32 14 -9z m141 -19 c-8 -8 -9 -4 -5 13 4 13 8 18 11 10 2 -7 -1 -18 -6
-23z m-7 -39 c-6 -33 -15 -36 -15 -6 0 15 4 27 9 27 6 0 8 -10 6 -21z m246 -2
c-10 -9 -11 -8 -5 6 3 10 9 15 12 12 3 -3 0 -11 -7 -18z m2330 -58 c-6 -5 -9
-6 -6 -3 2 4 0 15 -5 25 -6 9 -7 26 -3 36 5 14 9 11 16 -16 5 -22 5 -37 -2
-42z m-2746 22 c-3 -16 -13 -35 -21 -41 -12 -11 -12 -7 -3 21 6 19 13 40 15
48 8 26 16 3 9 -28z m161 -23 c-3 -13 -6 -43 -7 -68 -1 -36 -2 -40 -8 -20 -4
14 -7 34 -6 45 2 11 3 30 4 43 0 12 6 22 12 22 7 0 9 -9 5 -22z m2610 -54 c3
-22 6 -49 9 -62 2 -12 0 -20 -6 -17 -5 4 -9 1 -9 -4 0 -6 4 -11 8 -11 5 0 9
-16 9 -35 0 -19 -4 -35 -8 -35 -11 0 -19 45 -8 48 6 3 6 8 1 15 -12 15 -25
131 -16 140 11 11 15 3 20 -39z m-2386 22 c0 -2 -7 -9 -15 -16 -13 -11 -14
-10 -9 4 5 14 24 23 24 12z m-419 -83 c-7 -43 -7 -166 1 -265 3 -38 1 -68 -3
-68 -5 0 -9 3 -10 8 0 4 -3 16 -5 27 -5 24 -6 226 -1 276 3 32 13 59 21 59 2
0 1 -17 -3 -37z m192 -95 c2 -32 0 -58 -5 -58 -9 0 -9 4 -13 65 -1 38 6 79 11
59 2 -5 4 -35 7 -66z m2631 -102 c-4 -122 -14 -193 -25 -174 -9 16 -8 44 2 63
3 6 5 44 4 85 -2 46 2 78 9 82 8 5 7 8 -1 8 -7 0 -13 4 -13 8 0 5 6 9 13 9 10
0 12 -20 11 -81z m-2599 -122 c17 -80 54 -181 98 -269 l20 -40 -22 19 c-11 11
-21 23 -21 27 0 5 -11 33 -25 64 -14 30 -34 88 -44 129 -10 41 -22 79 -26 85
-4 7 -8 42 -11 79 l-3 67 15 -70 c8 -38 17 -80 19 -91z m152 -89 c-7 -7 -8 -6
-3 3 4 6 3 12 -3 12 -5 0 -12 -6 -15 -12 -6 -16 -1 16 10 62 l8 35 7 -45 c4
-27 3 -49 -4 -55z m-353 26 c9 -59 -10 -58 -23 2 -6 24 -5 34 4 34 7 0 16 -16
19 -36z m2756 -82 c-11 -28 -22 -54 -26 -58 -9 -8 4 46 19 82 21 48 26 29 7
-24z m-2716 -65 c3 -10 7 -27 11 -36 4 -10 3 -18 -3 -18 -5 0 -12 8 -15 18 -3
9 -10 33 -16 52 -10 30 -9 32 4 19 9 -8 17 -24 19 -35z m2680 -28 c-6 -16 -24
-23 -24 -8 0 10 22 33 27 28 2 -2 1 -11 -3 -20z m-36 -82 c-16 -38 -15 -37
-27 -30 -6 4 -8 13 -5 21 4 8 10 13 14 10 5 -3 12 4 15 16 4 11 9 18 11 16 3
-2 -1 -17 -8 -33z m-2583 -31 c10 -36 -9 -27 -28 12 -9 20 -17 39 -17 43 0 13
38 -34 45 -55z m2536 -26 c-10 -9 -11 -8 -5 6 3 10 9 15 12 12 3 -3 0 -11 -7
-18z m-2477 -89 c-8 -12 -14 -5 -44 47 l-23 40 36 -39 c20 -21 34 -43 31 -48z
m2450 0 c-43 -85 -170 -261 -274 -382 -70 -82 -139 -153 -144 -149 -3 3 19 30
49 60 30 29 55 57 55 60 0 3 25 32 55 64 30 32 55 62 55 67 0 6 15 26 34 46
37 37 107 141 104 154 -3 14 25 62 37 62 6 0 17 11 23 25 6 14 14 25 17 25 3
0 -2 -15 -11 -32z m-2416 -74 c-4 -3 -12 5 -18 18 -12 22 -12 22 6 6 10 -10
15 -20 12 -24z m52 -66 c0 -6 10 -21 23 -33 44 -43 73 -85 59 -85 -5 0 -35 34
-67 76 -35 47 -49 71 -36 64 12 -6 21 -16 21 -22z m420 -53 c0 -8 -2 -15 -4
-15 -2 0 -6 7 -10 15 -3 8 -1 15 4 15 6 0 10 -7 10 -15z m30 -50 c0 -5 -5 -3
-10 5 -5 8 -10 20 -10 25 0 6 5 3 10 -5 5 -8 10 -19 10 -25z m46 -2 c-7 -7
-26 7 -26 19 0 6 6 6 15 -2 9 -7 13 -15 11 -17z m-321 -111 c65 -89 91 -118
170 -187 17 -15 24 -24 18 -20 -7 3 -13 1 -13 -5 0 -7 -21 12 -47 41 -27 29
-57 63 -68 75 -39 43 -114 130 -137 159 l-23 30 33 -23 c18 -13 48 -45 67 -70z
m195 73 c11 -13 10 -14 -4 -9 -9 3 -16 10 -16 15 0 13 6 11 20 -6z m66 -77
c27 -28 39 -46 27 -40 -19 10 -91 92 -81 92 2 0 26 -23 54 -52z m178 -34 c16
-6 12 -24 -5 -24 -6 0 -8 4 -5 9 4 5 0 12 -6 14 -7 3 -10 6 -6 6 3 1 13 -2 22
-5z m1128 -67 c-92 -84 -107 -97 -115 -97 -5 0 26 34 68 75 43 41 81 72 86 70
4 -3 -13 -25 -39 -48z m-1231 17 c22 -25 22 -26 3 -16 -12 6 -24 18 -28 27 -8
21 -3 19 25 -11z m65 -73 c21 -21 50 -51 64 -67 l25 -29 -25 20 c-13 11 -29
25 -35 31 -79 81 -103 118 -29 45z m1364 -34 c0 -2 -10 -12 -21 -23 -22 -19
-22 -19 -8 4 12 19 29 30 29 19z m-1172 -32 c-3 -3 -9 2 -12 12 -6 14 -5 15 5
6 7 -7 10 -15 7 -18z m824 -18 c-18 -17 -52 -52 -75 -77 -41 -44 -109 -106
-158 -144 -13 -10 -33 -26 -43 -35 -14 -12 -17 -12 -11 -2 5 8 24 28 44 45 44
39 219 205 240 229 8 9 20 17 26 17 5 0 -5 -15 -23 -33z m-1130 -71 c40 -51
150 -162 169 -169 10 -4 10 -6 -3 -6 -9 -1 -23 5 -30 13 -7 7 -58 60 -113 117
-122 126 -144 154 -92 115 21 -16 52 -47 69 -70z m1398 42 c-71 -64 -84 -71
-30 -17 30 31 57 54 60 52 2 -2 -11 -18 -30 -35z m350 -108 c-12 -16 -27 -30
-33 -30 -8 0 -7 3 2 9 11 7 11 9 0 13 -11 4 21 28 49 37 2 1 -6 -12 -18 -29z
m-506 -42 c-5 -14 -54 -53 -54 -44 0 5 52 56 57 56 1 0 0 -6 -3 -12z m-414
-96 c0 -13 -26 -39 -110 -112 -41 -36 -80 -69 -86 -75 -6 -5 -22 -17 -35 -25
-12 -8 -38 -31 -56 -50 -18 -19 -33 -30 -33 -25 0 6 -5 3 -11 -5 -6 -8 -9 -10
-7 -4 2 6 35 38 73 70 39 32 75 63 81 69 6 5 41 37 79 70 38 33 76 68 84 77
19 20 21 21 21 10z m279 -39 c-28 -27 -67 -63 -85 -81 -18 -18 -35 -33 -38
-33 -12 1 -54 -48 -47 -55 3 -4 1 -4 -6 0 -7 4 -19 -4 -29 -19 -9 -14 -21 -25
-27 -25 -6 0 19 29 55 65 37 36 72 65 79 65 7 0 10 2 7 5 -8 8 114 125 130
125 8 0 -10 -21 -39 -47z m-844 -23 c14 -22 -13 -8 -41 22 l-29 31 32 -22 c18
-12 35 -26 38 -31z m342 -57 c2 -6 -6 -17 -19 -24 -21 -11 -22 -11 -9 5 13 15
13 19 0 27 -11 8 -10 9 5 7 11 -2 21 -8 23 -15z m-145 -105 c5 1 8 -2 8 -8 0
-23 -33 -2 -109 69 -23 21 -13 16 29 -15 36 -27 68 -48 72 -46z m611 -1 c-21
-20 -40 -34 -42 -31 -5 5 72 74 77 69 2 -2 -14 -19 -35 -38z m297 -1 c0 -2 -7
-7 -16 -10 -8 -3 -12 -2 -9 4 6 10 25 14 25 6z m-505 -36 c3 -5 1 -10 -4 -10
-6 0 -11 5 -11 10 0 6 2 10 4 10 3 0 8 -4 11 -10z m457 -10 c-9 -12 -39 -39
-67 -62 l-50 -41 40 41 c21 23 35 42 30 42 -11 0 45 38 57 39 4 1 0 -8 -10
-19z m-478 -21 c-3 -5 -10 -7 -15 -3 -5 3 -7 10 -3 15 3 5 10 7 15 3 5 -3 7
-10 3 -15z m-56 -54 c-3 -3 -9 2 -12 12 -6 14 -5 15 5 6 7 -7 10 -15 7 -18z
m-373 -15 c-10 -11 -14 -20 -10 -20 5 0 0 -6 -11 -14 -31 -23 -30 -8 1 24 32
33 49 42 20 10z m346 3 c-5 -10 -20 -27 -33 -37 -13 -10 -31 -26 -40 -34 -39
-33 -15 4 28 45 50 47 60 52 45 26z m569 0 c64 -44 446 -407 403 -381 -13 7
-23 16 -23 20 0 5 -7 8 -15 8 -8 0 -15 4 -15 10 0 14 -135 141 -240 227 -19
15 -56 50 -82 76 -38 39 -52 47 -70 42 -18 -5 -20 -4 -8 4 20 14 21 14 50 -6z
m-95 -48 c-52 -45 -69 -45 -19 0 22 19 44 34 49 34 6 0 -8 -15 -30 -34z m-889
-22 c-2 -9 -13 -20 -27 -25 l-23 -9 24 26 c28 30 29 30 26 8z m263 -76 c-31
-29 -118 -110 -194 -182 -76 -71 -186 -178 -245 -237 -58 -60 -109 -108 -114
-108 -15 0 266 285 365 370 35 30 102 92 148 137 47 45 87 80 90 77 3 -2 -20
-28 -50 -57z m146 -9 c-79 -77 -122 -117 -155 -143 -33 -26 124 130 173 173
60 51 52 37 -18 -30z m-528 -32 c-39 -40 -73 -72 -75 -71 -6 5 -167 -158 -164
-167 1 -5 -3 -6 -9 -3 -12 8 23 47 154 174 44 42 95 92 115 112 21 20 40 34
44 32 4 -2 -25 -37 -65 -77z m999 -18 c106 -97 376 -368 444 -447 30 -35 81
-98 113 -140 32 -42 63 -83 70 -91 7 -9 25 -35 41 -58 31 -45 51 -51 22 -6
-10 14 -16 27 -14 29 4 5 68 -90 68 -101 0 -3 -7 0 -16 7 -15 12 -16 11 -9
-11 4 -14 12 -26 16 -28 5 -2 9 -7 9 -12 0 -9 48 -119 81 -185 15 -31 18 -34
14 -13 -3 15 -10 40 -17 55 -6 15 -12 30 -13 33 -1 3 -12 27 -24 54 -12 27
-20 51 -17 53 6 7 73 -140 87 -190 6 -23 14 -46 19 -52 52 -70 74 -444 29
-499 -4 -5 -4 7 0 26 7 31 6 167 -3 263 -2 22 -4 48 -5 58 -1 9 -6 17 -11 17
-6 0 -8 -12 -5 -27 8 -42 15 -151 8 -128 l-6 20 -8 -20 c-6 -15 -8 -9 -10 25
-2 25 -3 57 -2 73 0 16 -6 27 -13 27 -8 0 -23 30 -35 71 -13 41 -28 73 -38 77
-18 7 -40 32 -41 47 0 6 4 3 10 -5 15 -24 23 -3 11 31 -16 46 -61 120 -69 115
-4 -2 -7 7 -7 19 0 27 2 26 39 -30 47 -71 27 -22 -23 59 -52 82 -68 103 -58
73 5 -13 3 -17 -5 -15 -7 3 -16 24 -19 47 -3 24 -12 47 -19 51 -23 14 -25 2
-5 -20 13 -14 14 -19 4 -15 -8 4 -34 34 -59 68 -25 34 -70 91 -100 127 -53 63
-44 66 13 5 18 -19 25 -22 19 -10 -13 24 -51 65 -238 258 -130 132 -168 167
-149 137 3 -5 1 -10 -5 -10 -7 0 -9 8 -5 21 5 16 3 20 -12 17 -10 -2 -17 2
-15 10 1 6 -17 29 -40 50 -75 67 -128 122 -128 131 0 9 28 30 41 31 3 0 41
-32 85 -72z m115 -67 c24 -21 42 -41 39 -44 -3 -3 -26 14 -52 39 -58 54 -47
59 13 5z m-337 18 c-3 -6 7 -25 22 -41 l29 -31 -37 28 c-38 28 -44 36 -31 48
11 11 25 8 17 -4z m161 -10 c11 -16 1 -19 -13 -3 -7 8 -8 14 -3 14 5 0 13 -5
16 -11z m-173 -46 c34 -28 51 -43 218 -193 100 -88 364 -350 415 -410 67 -79
113 -137 146 -185 18 -27 37 -52 40 -55 3 -3 25 -39 48 -80 148 -261 173 -475
84 -700 -38 -95 -87 -166 -172 -250 -176 -174 -385 -272 -631 -297 -131 -14
-325 -4 -446 21 -265 56 -532 235 -674 452 -27 42 -50 80 -50 84 0 4 -8 25
-17 46 -9 22 -18 44 -19 49 -1 6 -10 39 -19 75 -30 112 -22 241 20 360 27 75
150 296 185 330 3 3 19 23 35 45 58 78 240 261 426 429 30 26 92 82 138 125
108 98 212 181 227 181 7 0 27 -12 46 -27z m-439 -28 c-3 -9 -8 -14 -10 -11
-3 3 -2 9 2 15 9 16 15 13 8 -4z m960 -108 c49 -49 87 -90 85 -92 -2 -3 -51
44 -109 102 -57 59 -95 100 -84 92 11 -8 59 -54 108 -102z m343 -49 c39 -40
77 -82 85 -92 13 -18 13 -18 -8 -5 -13 8 -23 18 -23 23 0 5 -32 40 -71 77 -40
38 -68 69 -63 69 5 0 41 -33 80 -72z m-1897 45 c-21 -27 -101 -104 -104 -101
-5 5 99 117 109 117 5 1 2 -7 -5 -16z m719 -26 c-20 -17 -62 -55 -95 -83 -32
-29 -70 -63 -85 -77 -53 -49 -28 -11 30 45 52 51 170 147 182 148 3 0 -11 -15
-32 -33z m622 -66 c8 -9 26 -24 40 -34 15 -10 19 -17 10 -17 -8 0 -51 35 -95
77 -65 62 -70 68 -25 33 30 -24 62 -51 70 -59z m135 19 c10 -11 16 -20 13 -20
-3 0 -13 9 -23 20 -10 11 -16 20 -13 20 3 0 13 -9 23 -20z m234 -85 c28 -33
36 -45 28 -45 -2 0 -21 18 -42 40 -21 22 -34 40 -28 40 6 0 25 -16 42 -35z
m-1829 19 c0 -9 -28 -34 -39 -34 -6 0 -3 9 6 20 17 19 33 26 33 14z m1545 -42
c-3 -3 -11 0 -18 7 -9 10 -8 11 6 5 10 -3 15 -9 12 -12z m595 3 c20 -24 6 -28
-15 -5 -10 11 -13 20 -8 20 6 0 16 -7 23 -15z m-2190 -19 c0 -14 -61 -86 -74
-86 -6 0 64 98 72 100 1 0 2 -6 2 -14z m1681 -56 c33 -33 64 -60 68 -60 4 0 7
-9 8 -19 1 -15 -6 -11 -33 19 -19 20 -54 56 -79 79 -24 22 -40 41 -35 41 5 0
37 -27 71 -60z m109 34 c0 -2 -9 0 -20 6 -11 6 -20 13 -20 16 0 2 9 0 20 -6
11 -6 20 -13 20 -16z m450 -28 c0 -5 -7 -3 -15 4 -8 7 -15 20 -15 28 0 13 3
12 15 -4 8 -10 15 -23 15 -28z m-1671 -73 c-113 -115 -191 -199 -214 -229 -8
-11 -15 -14 -15 -7 0 7 24 38 53 70 58 64 269 272 277 273 2 0 -43 -48 -101
-107z m1401 56 c17 -22 30 -43 28 -48 -2 -4 -22 16 -46 45 -23 30 -36 51 -28
48 7 -3 28 -23 46 -45z m-1731 -3 c-14 -13 -39 -45 -55 -70 -28 -44 -44 -57
-44 -36 0 5 16 27 35 49 19 21 35 43 35 49 0 6 9 14 20 17 11 3 20 11 20 17 0
6 3 8 7 4 4 -4 -4 -17 -18 -30z m2095 -95 c-7 -7 -46 33 -61 64 -12 25 -8 23
26 -15 21 -25 38 -47 35 -49z m-286 -4 c7 -12 19 -33 28 -47 9 -14 2 -9 -15
10 -42 46 -56 71 -38 64 8 -3 19 -15 25 -27z m-2168 -1 c0 -8 -7 -16 -15 -20
-12 -4 -13 -2 -2 14 14 24 17 25 17 6z m1926 -11 c10 -8 14 -15 8 -15 -5 0
-19 7 -30 15 -10 8 -14 15 -8 15 5 0 19 -7 30 -15z m-1396 -18 c0 -7 -18 -33
-41 -57 -22 -25 -68 -82 -102 -127 -86 -116 -100 -107 -27 17 42 72 73 108
123 147 49 38 47 37 47 20z m1965 -16 l20 -24 -22 12 c-13 6 -23 19 -23 28 0
9 1 14 3 12 1 -2 11 -15 22 -28z m-2241 7 c-4 -7 -17 -26 -28 -43 -12 -16 -36
-59 -54 -95 -20 -37 -31 -53 -27 -36 3 17 15 42 26 57 10 15 19 34 19 43 0 9
5 16 10 16 6 0 13 8 17 18 6 17 33 52 40 52 2 0 1 -6 -3 -12z m1785 -107 c46
-68 38 -64 -21 9 -11 14 -37 42 -57 63 l-36 39 31 -18 c16 -9 54 -51 83 -93z
m-2114 3 c-48 -92 -74 -131 -56 -81 16 41 93 179 98 174 2 -3 -17 -45 -42 -93z
m2615 25 c0 -6 -4 -7 -10 -4 -5 3 -10 11 -10 16 0 6 5 7 10 4 6 -3 10 -11 10
-16z m54 -98 c-7 -7 -34 28 -34 43 1 6 10 0 21 -13 11 -13 17 -27 13 -30z
m-2155 -18 c-64 -70 -198 -300 -199 -340 0 -7 -8 -13 -17 -13 -14 0 -15 -2 -4
-9 7 -5 11 -13 8 -18 -7 -11 -21 -121 -19 -150 1 -15 -3 -21 -12 -17 -23 9
-26 31 -11 75 8 23 16 60 18 84 1 23 8 49 14 57 7 7 16 32 21 55 5 23 19 52
31 65 12 12 32 39 44 58 29 49 107 153 125 168 27 21 27 13 1 -15z m1741 -85
c0 -5 16 -30 35 -56 19 -27 32 -52 29 -55 -7 -7 23 -55 54 -86 13 -13 20 -26
15 -30 -14 -10 -9 -32 10 -45 18 -14 24 -60 6 -54 -10 3 -42 78 -33 78 4 0
-36 77 -75 145 -13 22 -45 72 -72 112 -27 40 -49 76 -49 80 1 10 79 -79 80
-89z m-2052 47 c-6 -14 -15 -25 -20 -25 -9 0 -4 14 15 38 15 19 18 14 5 -13z
m2506 -7 c18 -36 19 -38 8 -38 -9 0 -32 44 -32 60 0 18 8 10 24 -22z m-2776
-10 c-3 -7 -18 -50 -34 -95 -16 -46 -34 -85 -41 -87 -9 -4 -10 2 -2 22 6 15
10 28 10 29 -3 15 53 143 62 143 5 0 7 -6 5 -12z m230 -87 c-8 -23 -17 -39
-21 -35 -3 3 -4 11 -2 17 19 53 26 69 31 64 3 -3 -1 -24 -8 -46z m2603 -36 c9
-25 13 -45 8 -45 -11 0 -30 44 -34 78 -5 33 6 19 26 -33z m-2625 -42 c-11 -36
-19 -89 -20 -135 0 -27 -5 -48 -10 -48 -11 0 -1 137 14 174 11 29 24 36 16 9z
m-289 -93 c-2 -17 -8 -35 -13 -40 -6 -6 -8 6 -6 30 2 22 8 40 13 40 5 0 7 -14
6 -30z m343 -70 c0 -11 -4 -20 -9 -20 -5 0 -7 9 -4 20 3 11 7 20 9 20 2 0 4
-9 4 -20z m-352 -76 c0 -31 -2 -54 -5 -50 -10 9 -14 106 -5 106 5 0 9 -25 10
-56z m2590 -27 c2 -15 7 -27 12 -27 5 0 7 8 3 18 -3 9 -3 14 0 11 4 -3 9 -53
11 -112 2 -58 7 -110 11 -116 11 -19 25 -12 25 14 0 14 5 25 10 25 16 0 12
-22 -10 -55 -17 -25 -20 -27 -21 -10 0 15 -2 16 -6 5 -3 -8 -11 -18 -17 -22
-11 -8 -13 -14 -15 -61 -1 -16 -5 -26 -11 -22 -5 3 -10 4 -10 1 0 -2 -3 -13
-7 -23 -6 -16 -5 -16 10 -4 23 18 21 9 -3 -19 -11 -12 -17 -26 -15 -31 3 -4 1
-10 -5 -14 -6 -4 -8 -11 -4 -16 3 -5 0 -8 -7 -7 -7 2 -26 -23 -43 -55 -17 -32
-38 -63 -47 -68 -34 -18 -119 -111 -112 -122 3 -7 2 -9 -2 -4 -5 4 -21 -5 -37
-20 -15 -15 -28 -23 -28 -17 0 5 37 47 83 94 45 47 93 106 107 130 102 192
126 267 124 400 0 67 -9 134 -21 152 -3 6 0 9 8 6 8 -2 15 -17 17 -31z m-2310
-29 c5 -59 32 -189 45 -213 9 -17 8 -18 -5 -7 -26 21 -70 232 -48 232 3 0 7
-6 8 -12z m-275 -22 c3 -8 0 -17 -7 -19 -10 -4 -12 1 -9 14 6 23 9 24 16 5z
m427 -26 c8 -5 11 -10 5 -10 -5 0 -3 -5 5 -10 11 -7 11 -10 2 -10 -7 0 -10 -5
-6 -11 4 -7 12 -40 19 -75 10 -54 10 -62 -2 -52 -12 9 -13 6 -9 -18 5 -27 4
-28 -9 -10 -9 11 -13 28 -10 37 15 46 4 147 -17 161 -7 4 -8 8 -3 8 6 0 17 -5
25 -10z m-423 -22 c0 -13 1 -39 3 -58 4 -58 1 -75 -10 -64 -18 18 -15 144 4
144 1 0 2 -10 3 -22z m2661 -53 c1 -14 -3 -25 -8 -25 -11 0 -14 33 -3 43 9 9
8 10 11 -18z m-2252 -21 c1 -9 0 -13 -4 -10 -3 4 -7 14 -8 22 -1 9 0 13 4 10
3 -4 7 -14 8 -22z m-26 -121 c0 -13 4 -23 8 -23 9 0 34 -61 28 -68 -3 -2 -10
7 -17 20 -6 12 -16 26 -21 29 -4 3 -11 25 -14 50 -4 24 -10 53 -14 64 -4 11
-5 27 -2 35 5 15 31 -71 32 -107z m-363 11 c3 -28 1 -35 -6 -23 -16 25 -22 71
-8 66 6 -2 13 -21 14 -43z m462 -48 c22 -64 22 -82 -2 -44 -12 19 -32 117 -22
106 2 -2 13 -30 24 -62z m2151 45 c0 -6 -4 -12 -8 -15 -5 -3 -9 1 -9 9 0 8 4
15 9 15 4 0 8 -4 8 -9z m-2290 -19 c0 -10 3 -22 8 -28 4 -5 -1 -1 -10 9 -20
21 -23 37 -8 37 6 0 10 -8 10 -18z m2630 -3 c0 -5 -4 -9 -10 -9 -5 0 -10 7
-10 16 0 8 5 12 10 9 6 -3 10 -10 10 -16z m-2885 -134 c37 -82 44 -108 23 -86
-7 6 -13 15 -14 19 0 4 -17 42 -37 84 -38 78 -49 119 -22 82 8 -12 30 -56 50
-99z m2570 88 c-3 -16 -10 -32 -15 -37 -5 -5 -4 7 2 27 13 43 23 50 13 10z
m289 -30 c-4 -16 -16 -48 -27 -73 -11 -25 -20 -48 -19 -52 1 -5 -2 -8 -8 -8
-5 0 -10 2 -10 5 0 7 49 134 55 146 11 17 15 9 9 -18z m-2549 -23 l20 -25 -22
19 c-13 11 -23 24 -23 29 0 6 1 8 3 6 1 -2 11 -15 22 -29z m2199 1 c-4 -21 0
-30 10 -33 21 -4 -63 -130 -98 -146 -34 -15 -33 -1 3 36 28 27 29 31 15 51 -9
12 -11 21 -5 21 6 0 11 -4 11 -10 0 -5 7 -7 15 -4 15 6 23 24 31 71 9 48 25
61 18 14z m-2101 -105 c31 -57 31 -55 13 -52 -20 3 -46 26 -46 41 0 7 -7 19
-16 26 -22 18 -34 52 -22 60 14 9 39 -18 71 -75z m97 -21 c158 -210 406 -364
669 -416 44 -8 58 -15 54 -25 -3 -9 -9 -11 -17 -5 -6 5 -24 9 -39 9 -16 0 -43
6 -60 15 -18 8 -57 20 -88 27 -31 6 -65 19 -76 29 -17 16 -94 38 -115 33 -5
-1 -8 4 -9 10 0 17 -56 61 -78 63 -9 0 -22 4 -29 9 -6 4 -16 5 -21 1 -6 -3
-15 4 -21 15 -11 20 -10 21 12 10 13 -7 1 9 -27 34 -27 25 -54 46 -60 47 -5 1
-14 3 -20 4 -5 2 -15 3 -21 4 -7 0 -14 10 -17 22 -4 13 -10 18 -18 14 -9 -6
-10 -1 -6 17 5 18 -2 38 -22 70 -31 48 -57 96 -49 88 3 -3 29 -36 58 -75z
m-410 -79 c0 -3 10 -17 23 -31 27 -32 58 -87 52 -94 -3 -2 -6 -2 -8 0 -1 2
-21 29 -43 59 -22 30 -51 73 -63 95 l-24 40 32 -32 c17 -18 31 -34 31 -37z
m385 55 c3 -5 1 -12 -5 -16 -5 -3 -10 1 -10 9 0 18 6 21 15 7z m2264 -88 c-39
-65 -60 -93 -70 -93 -6 0 1 15 15 33 15 19 26 37 26 40 0 8 41 57 48 57 2 0
-7 -17 -19 -37z m-399 -13 c0 -5 -2 -10 -4 -10 -3 0 -8 5 -11 10 -3 6 -1 10 4
10 6 0 11 -4 11 -10z m-56 -25 c-9 -14 -21 -25 -27 -25 -6 0 0 11 13 25 13 14
25 25 27 25 2 0 -4 -11 -13 -25z m26 -25 c0 -5 -5 -10 -11 -10 -5 0 -7 5 -4
10 3 6 8 10 11 10 2 0 4 -4 4 -10z m-157 -57 c-7 -3 -13 -9 -13 -15 0 -14 -26
-38 -42 -38 -7 0 -21 -9 -31 -20 -9 -11 -24 -20 -32 -20 -9 0 -46 -15 -84 -34
-38 -19 -93 -39 -122 -45 -29 -6 -58 -16 -64 -21 -14 -11 -82 -17 -91 -7 -4 4
-2 8 4 8 7 1 15 2 20 4 4 1 21 5 37 9 17 4 53 15 80 24 28 9 52 17 55 17 43
11 178 79 235 118 28 18 52 31 55 29 3 -3 -1 -7 -7 -9z m-1943 -8 c4 3 13 -2
19 -9 9 -11 9 -14 -1 -12 -21 3 -38 16 -37 29 0 9 2 8 6 -1 2 -6 8 -10 13 -7z
m2426 -20 c-9 -9 -16 -13 -16 -8 0 12 22 34 28 28 2 -2 -3 -11 -12 -20z
m-2287 -114 l56 -53 -77 62 c-43 34 -83 69 -90 78 -21 27 50 -29 111 -87z
m2259 77 c-7 -7 -22 -20 -33 -28 -15 -10 -14 -7 4 13 14 15 29 27 33 27 5 0 3
-6 -4 -12z m-79 -84 c-18 -20 -43 -40 -54 -45 -11 -6 2 11 30 36 59 54 72 59
24 9z m-1167 -56 c83 -4 61 -12 -41 -13 -66 -1 -88 1 -84 10 2 7 18 11 36 9
18 -1 58 -4 89 -6z m273 2 c-3 -5 -16 -10 -28 -9 -20 1 -20 2 3 9 14 4 26 8
28 9 2 1 0 -3 -3 -9z m-1064 -81 c14 -10 28 -16 31 -14 2 3 20 -9 39 -26 31
-27 25 -25 -59 18 -52 26 -108 61 -125 76 l-32 28 60 -32 c33 -18 72 -40 86
-50z m1853 47 c-5 -12 -46 -36 -62 -36 -9 1 51 50 60 50 4 0 5 -6 2 -14z m-84
-66 c-8 -5 -19 -10 -25 -10 -5 0 -3 5 5 10 8 5 20 10 25 10 6 0 3 -5 -5 -10z"/>
<path d="M3270 2984 c0 -7 27 -34 35 -34 3 0 1 9 -5 20 -10 18 -30 28 -30 14z"/>
<path d="M3510 2613 c1 -5 9 -24 20 -43 23 -41 27 -23 5 20 -15 29 -25 38 -25
23z"/>
<path d="M3562 2478 c11 -52 29 -75 24 -31 -4 29 -22 73 -30 73 -2 0 0 -19 6
-42z"/>
<path d="M3610 2495 c5 -14 9 -29 9 -33 -3 -21 2 -42 11 -42 6 0 8 11 5 25 -3
14 -7 36 -10 50 -3 14 -10 25 -15 25 -6 0 -6 -9 0 -25z"/>
<path d="M3561 2094 c0 -11 3 -14 6 -6 3 7 2 16 -1 19 -3 4 -6 -2 -5 -13z"/>
<path d="M3165 6758 c11 -7 26 -18 33 -25 7 -7 21 -13 30 -13 13 1 9 7 -13 25
-16 14 -39 25 -50 25 l-20 -1 20 -11z"/>
<path d="M3255 6690 c3 -5 13 -10 21 -10 8 0 14 -4 14 -10 0 -5 7 -10 16 -10
9 0 12 -5 8 -12 -4 -7 -4 -10 1 -6 4 4 13 3 20 -2 10 -8 39 -16 68 -19 4 -1 7
-9 7 -18 0 -13 -3 -14 -12 -5 -7 7 -16 12 -21 12 -6 0 6 -12 25 -27 19 -16 43
-36 53 -46 9 -10 24 -16 32 -13 8 3 11 2 8 -4 -3 -5 35 -50 85 -99 49 -50 90
-95 90 -101 0 -6 8 -9 18 -6 9 3 24 1 32 -5 12 -9 10 -10 -8 -6 -15 4 -22 1
-19 -6 2 -7 13 -13 25 -15 18 -3 21 -8 16 -27 -5 -22 1 -35 63 -140 7 -11 17
-30 22 -42 6 -12 19 -31 30 -42 22 -22 37 -61 23 -61 -13 0 14 -104 28 -108 5
-2 8 -7 5 -11 -8 -14 16 -82 26 -75 14 8 4 150 -15 199 -8 22 -15 33 -16 25 0
-9 -6 -6 -15 10 -17 30 -19 44 -5 35 15 -10 12 14 -7 46 -22 38 -38 38 -19 0
14 -26 14 -30 0 -35 -8 -3 -12 -2 -9 4 3 6 2 10 -2 10 -5 0 -14 14 -20 30 -7
19 -7 28 -1 24 6 -4 8 2 6 12 -2 11 -13 23 -25 29 -13 5 -25 15 -27 21 -7 19
28 11 47 -11 17 -19 17 -19 1 14 -9 19 -20 39 -25 45 -5 6 -37 47 -71 91 -70
89 -256 280 -265 271 -3 -3 0 -14 8 -23 12 -16 11 -15 -8 1 -13 10 -20 24 -16
30 3 6 2 8 -2 3 -5 -4 -19 3 -32 15 -13 12 -34 22 -46 23 -12 0 -36 12 -52 28
-28 25 -73 39 -60 17z m205 -135 c13 -14 21 -25 18 -25 -2 0 -15 11 -28 25
-13 14 -21 25 -18 25 2 0 15 -11 28 -25z m96 -75 c8 0 14 -3 14 -7 0 -5 13
-15 28 -24 16 -9 29 -24 29 -33 0 -9 -1 -16 -2 -16 -8 0 -95 88 -94 96 0 5 3
3 6 -3 2 -7 11 -13 19 -13z m220 -247 c13 -20 13 -25 2 -16 -8 7 -18 10 -21 6
-4 -3 -7 3 -7 15 0 29 4 28 26 -5z m131 -284 c1 -10 -2 -21 -8 -24 -5 -4 -9
-2 -9 4 0 5 -2 16 -5 24 -3 7 0 14 8 14 7 0 14 -8 14 -18z m16 -66 c-7 -19
-20 -16 -26 7 -3 10 0 21 7 23 14 5 26 -12 19 -30z"/>
<path d="M3946 5714 c-17 -16 -22 -64 -7 -64 4 0 7 11 6 25 -2 14 2 28 7 32 7
3 8 1 4 -5 -4 -7 -2 -12 3 -12 6 0 11 9 11 20 0 24 -4 25 -24 4z"/>
<path d="M3953 5645 c0 -19 3 -35 7 -35 4 0 7 16 7 35 0 19 -3 35 -7 35 -4 0
-7 -16 -7 -35z"/>
<path d="M6176 5663 c-2 -2 -34 -6 -72 -8 -38 -3 -78 -8 -88 -12 -11 -3 -36
-8 -55 -10 -45 -6 -62 -9 -81 -15 -8 -3 -42 -13 -75 -23 -156 -48 -270 -125
-333 -226 -29 -45 -62 -113 -66 -133 -2 -6 -7 -22 -13 -36 -6 -14 -19 -44 -28
-67 -16 -38 -81 -121 -95 -121 -3 0 -27 -4 -55 -8 -161 -26 -296 16 -310 96
-13 76 65 136 209 161 39 7 72 13 74 15 2 1 -9 42 -23 90 -14 49 -28 96 -30
104 -2 8 -13 46 -24 85 -12 38 -21 71 -21 73 0 4 -99 -8 -155 -20 -27 -5 -59
-11 -70 -13 -11 -1 -20 -3 -20 -5 0 -1 -13 -4 -30 -6 -198 -31 -395 -132 -458
-236 -56 -91 -54 -304 5 -404 28 -48 98 -116 145 -141 19 -10 49 -26 67 -35
17 -10 56 -25 86 -34 30 -9 62 -19 70 -22 8 -3 24 -7 35 -8 11 -2 40 -9 65
-14 132 -30 383 -42 570 -26 80 6 100 8 175 21 177 30 349 98 415 165 55 55
83 97 162 238 117 209 134 221 304 228 194 7 323 -83 271 -190 -31 -66 -135
-107 -327 -130 -16 -2 -24 -8 -21 -17 2 -8 17 -61 33 -119 16 -58 36 -130 44
-160 23 -87 24 -88 42 -84 16 3 56 8 147 19 53 6 104 13 135 20 60 13 76 16
85 19 6 1 30 8 55 15 291 77 417 207 425 435 7 196 -68 310 -273 411 -61 30
-184 70 -251 81 -14 3 -37 7 -51 10 -37 9 -127 22 -195 30 -59 7 -393 12 -399
7z"/>
<path d="M3930 5559 c0 -14 -4 -29 -9 -34 -10 -10 -16 -38 -26 -110 -3 -27 -1
-35 6 -28 6 6 11 17 12 24 2 8 6 15 10 17 10 3 7 -9 -14 -50 -10 -20 -23 -38
-29 -40 -6 -2 -13 -16 -16 -32 -3 -16 -7 -33 -10 -37 -2 -4 3 -12 12 -17 21
-12 11 -47 -11 -39 -22 9 -65 -76 -65 -128 0 -28 -6 -47 -17 -56 -15 -12 -16
-12 -9 6 27 69 28 70 -99 -120 -58 -88 -110 -161 -116 -163 -5 -2 -9 -9 -9
-15 0 -8 3 -8 11 0 13 13 42 6 33 -8 -3 -5 -14 -9 -24 -9 -10 0 -22 -9 -25
-20 -3 -11 -10 -20 -15 -20 -5 0 -7 8 -3 18 3 9 -3 5 -15 -10 -24 -29 -29 -43
-10 -32 7 4 8 3 4 -5 -4 -6 -11 -9 -16 -6 -12 8 -42 -25 -36 -41 3 -8 0 -11
-10 -7 -15 6 -17 -2 -5 -32 5 -11 4 -28 -1 -38 -24 -46 5 -21 58 50 56 75 67
90 89 116 34 41 67 89 57 83 -7 -4 -12 -2 -12 5 0 7 -8 5 -21 -7 -22 -19 -22
-19 -10 4 6 12 28 29 49 37 38 16 56 34 96 95 24 37 142 255 137 255 -1 0 8
23 20 50 12 28 21 50 20 50 -1 0 2 12 8 28 7 17 7 27 1 27 -15 0 -12 14 8 36
23 27 26 38 25 127 0 46 -4 82 -11 89 -9 9 -12 6 -12 -13z m14 -94 c-4 -8 -7
-15 -9 -15 -2 0 -5 7 -9 15 -3 9 0 15 9 15 9 0 12 -6 9 -15z m-45 -179 c-13
-29 -32 -36 -22 -8 8 22 25 44 30 39 2 -3 -2 -16 -8 -31z m-161 -336 c-16 -24
-31 -15 -18 11 6 11 15 17 20 14 6 -4 5 -14 -2 -25z m-88 -104 c0 -2 -8 -10
-17 -17 -16 -13 -17 -12 -4 4 13 16 21 21 21 13z m-192 -276 c-7 -10 -14 -17
-17 -15 -4 4 18 35 25 35 2 0 -1 -9 -8 -20z"/>
<path d="M3392 4560 c-18 -29 -15 -36 8 -15 20 18 26 35 12 35 -4 0 -13 -9
-20 -20z"/>
<path d="M5275 4452 c-1 -2 -54 -5 -116 -7 -63 -3 -132 -7 -154 -10 -22 -3
-68 -7 -103 -11 -35 -3 -73 -8 -85 -10 -12 -3 -35 -7 -52 -10 -98 -16 -295
-79 -295 -94 0 -4 -10 -10 -23 -14 -26 -6 -77 -51 -102 -89 -55 -84 -23 -196
75 -269 71 -53 268 -137 384 -163 60 -13 10 -17 -199 -17 -162 1 -215 -2 -216
-11 -1 -7 -2 -85 -3 -174 -1 -138 1 -163 14 -164 71 -6 2420 -2 2420 4 0 5 5
5 12 1 10 -6 106 -9 134 -3 5 1 14 0 19 -1 21 -4 95 -1 104 4 5 4 12 3 15 -2
3 -4 29 -5 60 -2 30 3 62 3 72 -1 49 -16 50 -10 50 189 l-1 187 -785 1 c-783
1 -947 5 -1070 25 -150 25 -240 74 -240 130 0 44 95 102 190 115 94 12 292 16
1035 17 l870 2 0 190 0 190 -1003 0 c-552 0 -1005 -1 -1007 -3z"/>
<path d="M2510 3939 c0 -5 5 -7 10 -4 6 3 10 8 10 11 0 2 -4 4 -10 4 -5 0 -10
-5 -10 -11z"/>
<path d="M1835 3319 c-11 -17 1 -21 15 -4 8 9 8 15 2 15 -6 0 -14 -5 -17 -11z"/>
<path d="M5647 3224 c-1 -1 -49 -5 -107 -8 -177 -12 -267 -20 -330 -30 -14 -2
-52 -7 -85 -11 -33 -4 -64 -10 -68 -12 -5 -3 -23 -7 -40 -8 -33 -4 -152 -31
-152 -35 0 -1 -13 -4 -30 -6 -16 -3 -42 -11 -57 -19 -15 -7 -41 -16 -58 -20
-43 -9 -177 -77 -231 -117 -109 -79 -163 -183 -162 -314 1 -143 79 -248 257
-343 55 -30 198 -87 240 -96 10 -3 43 -11 72 -20 52 -15 129 -32 189 -41 17
-3 53 -9 80 -15 56 -11 100 -15 330 -35 90 -8 579 -8 670 -1 39 3 102 8 141
11 78 6 135 13 174 21 14 3 40 6 58 7 17 1 32 4 32 7 0 4 12 6 27 5 16 0 58 7
95 17 38 9 68 15 68 13 0 -3 8 0 19 5 10 6 33 13 51 16 18 3 41 10 51 16 11 5
19 7 19 5 0 -15 252 94 278 120 7 8 17 14 22 14 11 0 100 91 100 103 0 6 6 18
14 26 44 50 52 227 16 325 -54 143 -171 228 -425 312 -60 20 -121 38 -133 40
-13 3 -49 11 -80 20 -32 8 -75 17 -97 20 -22 4 -44 7 -49 8 -5 0 -19 -36 -32
-81 -12 -46 -20 -83 -17 -83 3 0 0 -6 -6 -14 -6 -8 -11 -18 -10 -22 2 -5 -5
-35 -15 -66 -33 -108 -34 -103 37 -123 118 -33 183 -79 197 -140 6 -26 3 -38
-17 -64 -20 -26 -80 -66 -103 -70 -3 0 -31 -9 -62 -20 -32 -11 -58 -18 -58
-16 0 2 -14 0 -31 -5 -18 -5 -67 -12 -110 -16 -97 -7 -101 -8 -116 -17 -7 -5
-13 -5 -13 0 0 4 -17 8 -37 8 l-36 0 -3 370 c-1 204 -2 373 -3 377 -1 6 -457
7 -464 2z m-62 -568 l0 -186 -100 5 c-55 3 -110 7 -122 9 -12 3 -47 7 -78 11
-30 3 -67 10 -81 15 -14 6 -38 12 -54 15 -87 15 -174 90 -167 143 3 23 61 92
77 92 4 0 25 8 46 17 42 18 42 18 94 27 19 3 46 8 60 10 14 3 47 7 75 11 27 3
50 7 51 8 1 1 47 3 101 5 l98 3 0 -185z"/>
<path d="M1552 3018 c-7 -13 -19 -34 -28 -48 -9 -14 0 -7 20 15 36 40 44 55
28 55 -5 0 -14 -10 -20 -22z"/>
<path d="M1467 2891 c-37 -49 -43 -61 -29 -61 10 0 76 99 70 105 -2 2 -21 -17
-41 -44z"/>
<path d="M1405 2789 c-4 -6 -5 -13 -2 -16 7 -7 27 6 27 18 0 12 -17 12 -25 -2z"/>
<path d="M1321 2524 c0 -11 3 -14 6 -6 3 7 2 16 -1 19 -3 4 -6 -2 -5 -13z"/>
<path d="M6558 1990 l-23 -6 0 -254 c0 -162 -4 -256 -10 -257 -5 -1 -35 5 -65
14 -30 10 -57 18 -60 18 -3 1 -18 7 -33 13 -15 7 -40 14 -55 18 -15 3 -36 9
-47 14 -28 11 -58 23 -70 26 -5 1 -93 30 -194 64 -102 34 -192 63 -200 65 -9
2 -67 22 -128 44 -62 22 -113 37 -113 35 0 -3 -10 1 -22 8 -13 6 -27 13 -33
15 -47 12 -104 30 -252 81 -95 32 -173 57 -173 54 0 -2 -6 0 -13 6 -9 8 -118
11 -344 10 l-330 -1 2 -451 c2 -248 3 -454 4 -459 0 -4 169 -7 375 -7 283 1
375 4 378 13 2 7 4 105 3 220 0 114 2 207 5 207 4 0 10 -3 14 -7 3 -4 12 -8
19 -9 11 -2 918 -301 982 -324 46 -16 269 -89 275 -90 3 0 34 -10 70 -23 63
-22 76 -22 410 -20 190 1 350 2 356 2 8 1 11 143 10 491 -1 483 -1 490 -21
491 -93 4 -699 3 -717 -1z"/>
<path d="M1874 1122 c4 -7 26 -22 49 -33 49 -25 39 -12 -17 21 -22 13 -36 18
-32 12z"/>
<path d="M1970 1072 c0 -5 11 -14 25 -20 32 -15 35 -15 35 0 0 6 -3 8 -7 5 -3
-4 -17 0 -30 8 -13 9 -23 12 -23 7z"/>
<path d="M2041 1037 c14 -12 69 -34 69 -28 0 9 -45 31 -62 31 -6 0 -9 -2 -7
-3z"/>
<path d="M2120 1006 c0 -2 9 -6 20 -9 11 -3 18 -1 14 4 -5 9 -34 13 -34 5z"/>
<path d="M2170 992 c0 -9 32 -22 54 -22 12 0 5 8 -9 10 -5 1 -18 6 -27 11 -11
6 -18 6 -18 1z"/>
<path d="M2240 976 c0 -2 7 -7 16 -10 8 -3 12 -2 9 4 -6 10 -25 14 -25 6z"/>
<path d="M2390 970 c-12 -8 -10 -10 8 -10 13 0 20 4 17 10 -7 12 -6 12 -25 0z"/>
<path d="M2280 966 c0 -7 40 -14 44 -7 3 4 -6 8 -20 9 -13 1 -24 0 -24 -2z"/>
<path d="M2346 962 c-3 -5 1 -9 9 -9 8 0 15 4 15 9 0 4 -4 8 -9 8 -6 0 -12 -4
-15 -8z"/>
<path d="M4492 625 c-52 -44 -73 -118 -77 -277 -5 -206 38 -329 120 -344 63
-11 111 38 136 141 15 64 20 272 7 328 -5 23 -11 50 -13 59 -2 9 -14 35 -27
57 -37 65 -95 79 -146 36z m104 -186 c11 -43 11 -190 0 -238 -3 -13 -13 -32
-22 -42 -15 -17 -20 -17 -37 -6 -29 19 -43 79 -41 172 2 96 8 129 29 162 15
22 18 23 38 10 13 -8 27 -33 33 -58z"/>
<path d="M7493 621 c-34 -33 -50 -92 -47 -173 2 -76 32 -136 85 -168 41 -25
67 -62 64 -90 -1 -8 -3 -23 -3 -33 -1 -10 -12 -21 -24 -26 -19 -7 -26 -4 -39
22 -9 17 -16 42 -14 54 2 20 -1 22 -31 19 -56 -7 -55 -5 -38 -101 12 -66 34
-102 74 -115 58 -19 99 -1 125 54 22 48 32 105 29 174 -4 89 -32 141 -97 183
-47 31 -52 38 -53 72 -1 35 0 38 25 35 21 -2 28 -10 35 -40 8 -34 12 -37 35
-32 52 11 53 12 45 46 -4 18 -8 43 -9 54 -4 28 -33 72 -56 84 -34 19 -76 11
-106 -19z"/>
<path d="M509 628 c-1 -19 -1 -558 0 -590 1 -25 4 -27 41 -26 l40 0 0 129 c0
71 3 128 8 128 4 -1 27 -1 52 0 l46 1 -2 58 c-1 31 -3 60 -3 63 -1 3 -24 5
-51 5 l-51 -2 3 56 3 55 58 -1 57 -1 0 69 0 68 -100 0 c-73 0 -100 -3 -101
-12z"/>
<path d="M759 623 c0 -10 0 -36 0 -58 1 -22 1 -65 1 -95 -2 -56 -1 -90 1 -112
0 -7 0 -48 -1 -91 -1 -43 0 -80 3 -83 2 -3 1 -19 -3 -37 -4 -18 -4 -41 0 -52
4 -11 4 -32 -1 -47 -8 -30 3 -38 52 -38 25 0 29 4 30 28 1 33 0 535 0 575 -1
25 -4 27 -41 27 -31 0 -40 -4 -41 -17z"/>
<path d="M902 327 l0 -314 39 -1 38 -2 -1 156 c0 85 2 157 4 160 3 2 24 -62
47 -143 23 -82 44 -154 47 -161 2 -9 17 -12 41 -10 l38 4 1 312 0 312 -38 0
-38 0 0 -167 c-1 -183 0 -183 -45 -28 -9 33 -19 67 -22 75 -3 8 -7 20 -7 25
-1 6 -7 29 -14 53 -12 40 -15 42 -51 42 l-39 0 0 -313z"/>
<path d="M1214 328 l1 -313 72 -1 c60 -2 78 2 99 18 24 19 41 51 49 89 2 9 8
32 13 51 5 19 8 95 7 169 -3 152 -21 232 -62 273 -23 23 -33 26 -103 26 l-77
0 1 -312z m133 152 c21 -24 24 -37 27 -140 2 -105 -9 -167 -34 -180 -42 -22
-45 -9 -44 163 1 89 2 165 3 170 2 14 31 7 48 -13z"/>
<path d="M1609 625 c0 -8 -1 -35 -1 -60 0 -83 0 -83 30 -82 61 1 57 18 55
-238 l-2 -235 38 0 c29 0 40 5 43 18 2 9 3 115 2 234 0 147 3 218 10 221 6 2
23 3 38 2 34 -2 39 11 36 93 l-2 62 -123 0 c-102 0 -123 -3 -124 -15z"/>
<path d="M1899 638 c-1 -2 -2 -144 -3 -316 l-1 -313 40 3 40 3 2 105 c1 58 2
114 2 126 1 17 7 20 44 19 l42 -1 2 -90 c1 -49 2 -108 2 -132 1 -31 4 -41 13
-36 7 5 25 7 40 6 l28 -2 0 100 c1 55 1 192 1 305 0 113 0 210 -1 215 0 6 -18
10 -40 10 -38 0 -40 -1 -41 -32 0 -18 -1 -67 -2 -108 l-2 -75 -42 -3 c-49 -4
-46 -14 -45 131 l1 87 -39 0 c-22 0 -40 -1 -41 -2z"/>
<path d="M2208 623 c-2 -10 -3 -151 -3 -313 l1 -295 112 -2 113 -3 -3 73 c-3
64 -5 72 -23 72 -11 0 -25 -3 -32 -8 -6 -4 -14 -4 -17 1 -3 5 -19 8 -36 6
l-30 -4 0 65 0 65 43 -1 c89 -3 84 -6 83 64 l-1 62 -60 0 -60 0 -3 52 -3 52
60 -3 c32 -2 63 -1 68 3 5 3 10 34 10 69 l0 62 -107 0 c-94 0 -108 -2 -112
-17z"/>
<path d="M2594 573 l1 -68 66 1 66 0 -72 -178 c-62 -154 -72 -187 -74 -247
l-2 -69 125 -1 c139 -1 128 -6 128 64 0 78 5 73 -72 70 -39 -1 -73 1 -75 5 -2
3 29 87 69 185 62 154 72 189 73 243 l1 62 -118 0 -118 0 2 -67z"/>
<path d="M2870 325 l0 -315 112 3 112 2 1 68 c0 37 -2 67 -5 68 -29 6 -70 3
-70 -6 0 -7 -3 -7 -8 0 -4 6 -18 11 -32 10 -24 0 -25 3 -25 60 l0 60 63 0 c59
0 62 1 63 25 1 14 1 29 0 34 -1 4 -2 23 -3 41 -1 32 -2 33 -42 33 -86 -2 -85
-3 -83 50 l2 47 65 0 65 0 3 68 3 67 -111 0 -110 0 0 -315z"/>
<path d="M3140 503 c1 -76 0 -142 -1 -148 -1 -5 0 -14 1 -20 1 -5 1 -81 0
-168 l-1 -158 38 3 38 3 2 153 c1 85 3 156 5 158 2 2 24 -67 49 -154 l45 -157
40 0 39 0 1 300 c0 165 -2 306 -4 313 -2 6 -19 12 -38 12 -20 0 -34 -5 -35
-12 -1 -7 -1 -85 -1 -173 l0 -160 -20 65 c-11 36 -23 79 -28 95 -5 17 -18 65
-30 108 l-22 77 -40 0 -39 0 1 -137z"/>
<path d="M3579 623 c0 -10 -1 -39 -2 -66 -1 -26 2 -47 6 -47 5 0 5 -5 1 -11
-10 -17 -11 -149 -1 -149 5 0 5 -5 1 -11 -4 -7 -7 -82 -7 -168 l0 -156 41 -3
c34 -3 41 0 41 15 0 10 0 41 0 68 0 28 0 55 0 60 0 64 2 393 1 433 l0 52 -40
0 c-31 0 -40 -4 -41 -17z"/>
<path d="M3721 325 l1 -316 38 3 38 2 -2 162 c0 89 2 160 7 157 4 -2 7 -12 7
-22 0 -10 3 -21 7 -25 4 -3 8 -13 9 -21 2 -16 40 -148 59 -210 12 -38 15 -40
52 -40 l38 0 0 310 0 310 -37 3 c-31 3 -38 0 -39 -15 0 -10 -1 -88 -1 -173 l0
-155 -25 80 c-13 44 -25 88 -26 98 -1 9 -5 17 -9 17 -4 0 -7 3 -6 8 2 4 -6 37
-16 75 l-18 67 -39 0 -39 0 1 -315z"/>
<path d="M4133 623 c3 -10 12 -43 21 -73 80 -277 78 -268 78 -406 l-1 -131 42
1 41 1 1 135 c1 117 5 148 29 230 15 52 30 102 31 110 2 8 13 46 24 83 l20 68
-46 -3 -46 -3 -23 -85 c-12 -47 -23 -86 -23 -87 -1 -2 -1 -8 -1 -15 0 -24 -12
2 -26 59 -38 148 -29 133 -80 133 -38 0 -45 -3 -41 -17z"/>
<path d="M4735 403 c2 -255 12 -325 55 -371 11 -12 22 -22 23 -23 54 -12 87
-8 111 14 15 14 29 34 31 46 2 12 7 27 12 34 14 23 15 41 20 290 l5 247 -41 0
c-26 0 -41 -5 -42 -12 0 -7 -1 -105 -1 -218 -1 -216 -9 -260 -47 -260 -38 0
-44 38 -44 270 l-1 220 -41 0 -42 0 2 -237z"/>
<path d="M5048 628 c-2 -7 -3 -148 -3 -313 l0 -300 43 -3 42 -3 0 132 c0 127
1 132 18 116 10 -10 20 -23 21 -30 1 -6 3 -25 5 -42 3 -16 5 -31 6 -32 3 -4 5
-11 19 -79 l13 -61 48 -2 48 -1 -15 62 c-8 35 -16 72 -18 83 -13 63 -28 110
-37 122 -6 8 -3 21 11 40 25 35 33 70 35 153 1 80 -25 155 -57 164 -43 11
-175 7 -179 -6z m149 -134 c6 -8 10 -23 8 -32 -2 -9 -4 -26 -4 -38 -1 -22 -45
-49 -62 -39 -5 4 -9 35 -9 70 l0 64 28 -5 c15 -3 32 -12 39 -20z"/>
<path d="M5459 560 c0 -44 0 -109 0 -145 0 -36 0 -141 0 -234 l1 -169 99 -1
c55 -1 106 1 113 4 10 4 13 23 12 68 -1 34 -2 65 -3 68 -1 3 -33 4 -71 4 l-70
-2 2 61 3 61 50 2 c28 1 56 2 63 2 9 1 12 18 10 64 l-3 62 -60 0 -60 0 0 50 0
50 63 1 c62 0 89 14 75 38 -3 5 -5 29 -4 53 l1 43 -110 0 -110 0 -1 -80z"/>
<path d="M5729 613 c0 -38 0 -496 0 -555 l1 -47 103 2 102 2 0 75 0 75 -55 2
c-30 0 -58 1 -62 2 -5 1 -8 107 -8 236 l0 235 -40 0 c-37 0 -40 -2 -41 -27z"/>
<path d="M5979 628 c0 -7 -1 -148 -2 -313 l-1 -300 114 0 114 0 -1 60 c-1 33
-2 65 -2 71 -1 6 -28 10 -68 10 l-68 -1 0 60 0 60 35 2 c19 1 47 2 63 2 26 1
27 2 27 61 0 41 -4 61 -12 62 -7 0 -35 2 -63 2 l-50 1 0 50 0 50 55 1 c30 1
60 2 66 3 7 1 12 26 12 66 l0 65 -109 0 c-80 0 -109 -3 -110 -12z"/>
<path d="M6248 628 c-2 -7 -3 -148 -3 -312 l1 -299 28 -4 c16 -2 32 0 35 5 3
6 6 85 5 176 0 91 3 166 8 166 4 0 8 -12 9 -27 0 -16 2 -37 5 -48 2 -11 6 -45
9 -75 3 -30 8 -77 11 -105 8 -86 10 -90 34 -93 31 -5 42 10 45 60 2 38 7 90
21 208 2 19 6 60 9 90 4 30 8 56 10 58 2 2 3 -77 3 -175 0 -233 1 -247 8 -240
3 3 17 2 30 -3 17 -7 24 -6 25 3 1 6 2 150 3 320 l2 307 -53 0 c-29 0 -53 -3
-54 -7 0 -5 -2 -16 -4 -26 -2 -10 -6 -48 -10 -85 -3 -37 -8 -80 -10 -97 -2
-16 -7 -52 -10 -80 -7 -55 -14 -71 -16 -34 -1 13 -3 35 -4 49 -5 36 -25 233
-28 268 0 8 -18 12 -53 12 -33 0 -53 -5 -56 -12z m82 -248 c0 -5 -4 -10 -10
-10 -5 0 -10 5 -10 10 0 6 5 10 10 10 6 0 10 -4 10 -10z"/>
<path d="M6599 628 c-1 -16 -1 -577 0 -601 1 -12 7 -17 19 -15 9 1 23 -1 30
-5 6 -5 12 -5 12 0 0 4 37 8 82 8 l82 0 1 50 c2 83 -3 89 -73 91 -79 1 -84 2
-78 13 3 4 6 31 7 59 l2 51 46 -1 c88 0 82 -5 79 64 l-3 62 -54 1 c-63 1 -79
16 -73 68 l4 35 63 -2 c57 -2 65 0 74 20 5 12 7 25 3 28 -3 4 -5 25 -3 46 l3
40 -111 0 c-82 0 -111 -3 -112 -12z"/>
<path d="M6870 603 c-1 -51 -1 -418 0 -515 l0 -76 38 1 37 2 1 145 c2 195 2
195 25 115 32 -111 39 -139 44 -161 3 -11 11 -38 18 -60 13 -36 17 -39 53 -39
l39 0 0 60 c0 33 -3 66 -8 73 -5 6 -6 12 -1 12 5 0 9 107 9 238 l0 237 -34 3
c-19 2 -37 -1 -40 -6 -3 -6 -6 -76 -5 -156 0 -80 -3 -146 -7 -146 -3 0 -14 28
-23 63 -10 34 -21 76 -26 92 -5 17 -16 58 -26 93 l-16 62 -39 0 c-38 0 -39 -1
-39 -37z"/>
<path d="M7164 563 l1 -78 33 -1 c17 -1 35 -2 40 -3 4 0 7 -106 7 -233 l0
-233 40 0 40 0 2 220 c1 121 2 227 2 236 1 13 10 16 41 14 l40 -3 0 79 0 79
-124 0 -124 0 2 -77z"/>
</g>
</svg>
