<?xml version="1.0" encoding="UTF-8" standalone="no"?>
<!-- Created with Inkscape (http://www.inkscape.org/) -->

<svg
   width="210mm"
   height="297mm"
   viewBox="0 0 210 297"
   version="1.1"
   id="svg5"
   xmlns="http://www.w3.org/2000/svg"
   xmlns:svg="http://www.w3.org/2000/svg">
  <defs
     id="defs2">
    <rect
       x="161.60306"
       y="509.67117"
       width="272.0926"
       height="102.82707"
       id="rect236" />
  </defs>
  <g
     id="layer1">
    <text
       xml:space="preserve"
       transform="matrix(0.26438116,0,0,0.36838088,0.079386,-53.510971)"
       id="text234"
       style="font-size:37.3333px;font-family:'Arial Black';-inkscape-font-specification:'Arial Black, ';text-align:center;white-space:pre;shape-inside:url(#rect236);opacity:0.9;fill:#f28a0e;fill-opacity:1;fill-rule:evenodd;stroke:#deddda;stroke-width:1.88976;stroke-miterlimit:0;stroke-dasharray:none;stroke-opacity:0.901961"><tspan
         x="181.75759"
         y="543.14413"
         id="tspan3703"><tspan
           style="fill:#f6f5f4"
           id="tspan3699">Ich geh' zu </tspan><tspan
           style="stroke:#9a9996"
           id="tspan3701">
</tspan></tspan><tspan
         x="174.38389"
         y="589.81075"
         id="tspan3707"><tspan
           style="stroke:#9a9996"
           id="tspan3705">8zenSe.com</tspan></tspan></text>
    <path
       style="opacity:0.9;fill:#ffbf89;fill-opacity:0.9675324;fill-rule:evenodd;stroke:#ffffff;stroke-width:0.499999;stroke-miterlimit:0;stroke-dasharray:none;stroke-opacity:0.901961"
       d="m 91.106312,93.73754 15.458468,-5.920266 18.74751,-1.315615 25.65449,4.604653 24.33887,11.511628 12.82724,21.04983 5.26246,27.95681 c 0,0 -5.92027,20.72093 -7.89369,22.03655 -1.97342,1.31561 -19.40532,21.37873 -19.40532,21.37873 l -25.65448,13.81395 -31.57475,2.30233 c -2.513,-0.158 -23.352162,-7.89369 -30.916946,-11.84053 1.19468,0.24385 -12.388703,-12.82724 -20.06312,-14.80067 L 51.637873,151.29568 62.491694,118.07641 85.843852,96.697674 Z"
       id="path3280" />
  </g>
</svg>
