<?xml version="1.0" encoding="UTF-8" standalone="no"?>
<!-- Created with Inkscape (http://www.inkscape.org/) -->

<svg
   width="210mm"
   height="297mm"
   viewBox="0 0 210 297"
   version="1.1"
   id="svg5"
   xml:space="preserve"
   xmlns="http://www.w3.org/2000/svg"
   xmlns:svg="http://www.w3.org/2000/svg"><defs
     id="defs2"><rect
       x="161.60306"
       y="509.67117"
       width="272.0926"
       height="102.82707"
       id="rect236" /></defs><g
     id="layer1"><text
       xml:space="preserve"
       transform="matrix(0.26438116,0,0,0.36838088,0.079386,-53.510971)"
       id="text234"
       style="font-size:37.3333px;font-family:'Arial Black';-inkscape-font-specification:'Arial Black, ';text-align:center;white-space:pre;shape-inside:url(#rect236);display:inline;opacity:0.9;fill:#f28a0e;fill-opacity:1;fill-rule:evenodd;stroke:#deddda;stroke-width:1.88976;stroke-miterlimit:0;stroke-dasharray:none;stroke-opacity:0.901961"><tspan
         x="181.75759"
         y="543.14413"
         id="tspan6763"><tspan
           style="fill:#f6f5f4"
           id="tspan6759">Ich geh' zu </tspan><tspan
           style="stroke:#9a9996"
           id="tspan6761">
</tspan></tspan><tspan
         x="174.38389"
         y="589.81075"
         id="tspan6767"><tspan
           style="stroke:#9a9996"
           id="tspan6765">8zenSe.com</tspan></tspan></text><path
       style="opacity:0.9;fill:#ffaa63;fill-opacity:0.96753198;fill-rule:evenodd;stroke:#ffffff;stroke-width:0.499999;stroke-miterlimit:0;stroke-dasharray:none;stroke-opacity:0.901961"
       d="m 45.388704,152.9402 8.880398,-4.27575 4.933556,-2.63123 10.524916,-3.28903 22.965693,-2.65691 18.852863,-3.66583 8.11721,-1.30923 h 7.59352 l 6.54613,1.83292 5.7606,2.88029 5.7606,5.49876 2.8803,5.23691 1.83291,6.28428 0.78554,13.61597 v 14.92518 l -1.04738,13.61596 -3.66584,13.87781 -7.59351,12.30673 -9.16459,11.5212 -5.23691,3.66583 -10.73566,4.71322 -8.6409,1.83292 -8.117205,1.04738 -4.975061,0.78553 -3.403989,-0.52369 -4.189526,-1.04738 -4.975063,-0.78553 -7.069826,-4.18953 -8.902742,-6.80798 -7.33167,-6.54614 -6.284291,-6.80798 -4.975061,-5.49875 -8.379052,-7.85536 -5.760598,-8.90274 -1.571075,-6.28429 v -3.66584 l 0.785537,-9.68828 4.189527,-10.9975 5.236908,-7.59352 3.403989,-3.92768 z"
       id="path6369" /></g></svg>
