<?xml version="1.0" encoding="UTF-8" standalone="no"?>
<!-- Created with Inkscape (http://www.inkscape.org/) -->

<svg
   width="122.51994mm"
   height="114.13798mm"
   viewBox="0 0 122.51994 114.13798"
   version="1.1"
   id="SVGRoot"
   sodipodi:docname="bgorange.svg"
   xml:space="preserve"
   inkscape:version="1.2.2 (b0a8486, 2022-12-01)"
   inkscape:dataloss="true"
   xmlns:inkscape="http://www.inkscape.org/namespaces/inkscape"
   xmlns:sodipodi="http://sodipodi.sourceforge.net/DTD/sodipodi-0.dtd"
   xmlns="http://www.w3.org/2000/svg"
   xmlns:svg="http://www.w3.org/2000/svg"><sodipodi:namedview
     id="namedview679"
     pagecolor="#ffffff"
     bordercolor="#000000"
     borderopacity="0.25"
     inkscape:showpageshadow="2"
     inkscape:pageopacity="0.0"
     inkscape:pagecheckerboard="0"
     inkscape:deskcolor="#d1d1d1"
     inkscape:document-units="mm"
     showgrid="false"
     inkscape:zoom="0.80444024"
     inkscape:cx="215.05637"
     inkscape:cy="612.22696"
     inkscape:window-width="1387"
     inkscape:window-height="1027"
     inkscape:window-x="196"
     inkscape:window-y="25"
     inkscape:window-maximized="0"
     inkscape:current-layer="layer1" /><defs
     id="defs674" /><g
     inkscape:label="Ebene 1"
     inkscape:groupmode="layer"
     id="layer1"
     transform="translate(-22.939359,-30.419383)"><path
       style="opacity:0.9;fill:#ffaa63;fill-opacity:0.967532;fill-rule:evenodd;stroke:#ffffff;stroke-width:0.499999;stroke-miterlimit:0;stroke-dasharray:none;stroke-opacity:0.901961"
       d="m 39.775071,48.497361 8.880399,-4.27575 4.933554,-2.63123 10.524919,-3.28903 22.965684,-2.65691 18.852873,-3.66583 8.11721,-1.30923 h 7.59352 l 6.54613,1.83292 5.7606,2.88029 5.7606,5.49876 2.8803,5.23691 1.83291,6.28428 0.78554,13.61597 V 80.94369 l -1.04738,13.615961 -3.66584,13.877819 -7.59351,12.30672 -9.16459,11.5212 -5.23691,3.66583 -10.73566,4.71322 -8.640903,1.83292 -8.11721,1.04738 -4.97506,0.78553 -3.40399,-0.52369 -4.18952,-1.04738 -4.97507,-0.78553 -7.069814,-4.18953 -8.902749,-6.80798 -7.331668,-6.54614 -6.284291,-6.80798 -4.975062,-5.49875 -8.379052,-7.85535 -5.760598,-8.902749 -1.571075,-6.284291 v -3.66584 l 0.785537,-9.68828 4.189527,-10.997499 5.236908,-7.59352 3.403989,-3.92768 z"
       id="path6369"
       inkscape:export-filename="bgOrangeBlub.svg"
       inkscape:export-xdpi="96"
       inkscape:export-ydpi="96" /></g></svg>
