<?xml version="1.0" standalone="no"?>
<!DOCTYPE svg PUBLIC "-//W3C//DTD SVG 20010904//EN"
 "http://www.w3.org/TR/2001/REC-SVG-20010904/DTD/svg10.dtd">
<svg version="1.0" xmlns="http://www.w3.org/2000/svg"
 width="1106.000000pt" height="1280.000000pt" viewBox="0 0 1106.000000 1280.000000"
 preserveAspectRatio="xMidYMid meet">
<metadata>
Created by potrace 1.15, written by Peter Selinger 2001-2017
</metadata>
<g transform="translate(0.000000,1280.000000) scale(0.100000,-0.100000)"
fill="#000000" stroke="none">
<path d="M3510 12715 c-7 -9 -11 -18 -8 -20 3 -3 11 1 18 10 7 9 11 18 8 20
-3 3 -11 -1 -18 -10z"/>
<path d="M3167 12611 c-37 -38 -67 -74 -67 -80 0 -6 -24 -39 -53 -73 -29 -35
-68 -84 -85 -110 -18 -27 -37 -48 -42 -48 -17 0 -171 -184 -211 -251 -61 -102
-205 -455 -244 -596 -15 -54 -36 -127 -48 -163 -11 -36 -20 -72 -20 -80 1 -8
-5 -58 -13 -110 -30 -189 -41 -920 -18 -1110 34 -280 58 -624 50 -708 -10
-108 26 -392 75 -600 27 -115 69 -223 132 -344 39 -74 61 -131 76 -201 18 -78
29 -105 58 -140 19 -23 40 -45 47 -49 16 -11 64 -10 71 2 10 16 25 2 25 -22 0
-23 36 -104 49 -113 5 -2 7 8 5 23 -2 25 -2 26 12 8 7 -11 17 -34 20 -52 3
-18 13 -39 21 -45 12 -11 13 -8 8 14 -4 14 -2 34 4 44 9 15 10 14 11 -13 0
-34 22 -60 40 -49 8 5 8 11 -1 21 -12 15 -6 44 10 44 5 0 12 -13 16 -30 8 -34
20 -37 55 -13 14 10 27 17 30 15 3 -1 5 6 5 15 0 10 -11 23 -25 30 -14 7 -27
23 -30 35 -4 14 -13 23 -25 23 -14 0 -21 8 -23 28 -2 15 1 27 7 27 6 0 11 5
11 10 0 6 -6 10 -14 10 -8 0 -18 10 -22 23 -3 12 -12 29 -19 37 -8 8 -15 38
-17 65 l-3 50 37 -1 c21 -1 36 2 33 6 -5 8 50 60 64 60 17 0 84 78 108 124 33
65 61 206 77 386 17 190 20 458 7 474 -16 19 -28 231 -13 222 7 -4 10 3 8 21
-11 87 -37 335 -46 438 -5 66 -15 157 -21 202 -12 99 -9 159 9 155 20 -4 25
25 9 48 -12 17 -12 29 -4 62 7 29 7 50 -1 72 -13 36 -16 276 -4 276 4 0 13 -5
20 -12 17 -17 24 -5 26 41 0 25 -6 47 -17 59 -22 24 -15 66 17 100 16 18 21
38 23 85 0 34 4 89 7 122 3 33 5 63 6 67 0 4 13 14 29 23 34 17 47 46 32 73
-8 15 -4 33 20 82 16 34 28 65 25 68 -3 2 -8 -3 -12 -12 -9 -23 -21 -20 -28 7
-4 14 1 32 14 49 15 20 16 26 5 22 -20 -8 -19 -2 6 41 29 48 59 103 109 200
58 113 87 164 100 181 7 7 9 14 4 14 -4 0 -19 -14 -34 -32 -41 -49 -55 -27
-20 31 31 50 42 82 15 44 -10 -14 -22 -19 -35 -16 -25 7 -20 30 22 91 16 23
27 46 24 50 -7 11 11 37 26 37 7 0 14 8 16 18 2 9 0 17 -5 17 -10 0 -10 77 0
86 11 11 8 89 -3 119 -9 24 -12 25 -27 14 -15 -13 -16 -11 -9 14 4 16 2 27 -3
27 -14 0 -3 28 24 65 36 50 39 61 9 33 -81 -76 -84 -78 -84 -53 0 18 -31 15
-54 -4 -21 -18 -26 -12 -33 38 -5 39 -23 59 -23 26 0 -8 -4 -15 -10 -15 -5 0
-7 6 -4 14 3 8 0 17 -6 21 -8 5 -7 12 3 23 19 22 31 62 19 62 -6 0 -13 -11
-16 -25 -4 -14 -11 -25 -17 -25 -16 0 -21 27 -9 50 18 33 3 37 -21 6 -12 -15
-27 -25 -34 -22 -7 2 -18 -6 -25 -20 -8 -13 -17 -24 -22 -24 -13 0 -9 13 12
40 24 31 28 59 5 40 -8 -7 -15 -9 -15 -5 0 5 -9 0 -20 -10 -28 -25 -53 -13
-40 20 5 14 6 25 1 25 -5 0 -11 -6 -14 -12 -2 -7 -8 -1 -12 15 -4 15 -10 27
-14 27 -4 0 -38 -31 -74 -69z"/>
<path d="M924 12470 c-5 -5 -25 -11 -44 -12 -28 -2 -48 -15 -100 -68 -36 -36
-74 -72 -84 -80 -18 -14 -19 -13 -13 4 6 16 5 17 -8 6 -8 -7 -13 -16 -10 -20
3 -5 1 -11 -5 -15 -6 -4 -8 -11 -5 -16 4 -5 -1 -12 -9 -15 -9 -3 -13 -10 -10
-16 3 -5 -2 -15 -12 -23 -11 -7 -19 -19 -19 -27 0 -7 -9 -14 -21 -16 -12 -2
-26 -14 -33 -28 -6 -13 -16 -36 -23 -50 -11 -23 -10 -28 12 -46 l25 -20 -29 5
c-31 5 -45 -4 -64 -40 -9 -17 -9 -22 3 -26 7 -3 15 -1 18 6 2 7 9 2 16 -11 10
-19 9 -23 -6 -28 -49 -16 -63 -25 -63 -44 0 -11 5 -20 11 -20 16 0 39 -26 39
-45 0 -24 -29 -49 -59 -50 -20 0 -27 -6 -29 -25 -2 -14 -6 -32 -9 -40 -6 -16
-13 -73 -14 -104 0 -11 -4 -27 -9 -36 -6 -12 -5 -23 4 -36 12 -15 11 -20 -8
-36 -20 -17 -20 -19 -3 -32 15 -12 15 -15 2 -26 -29 -24 -9 -125 23 -113 10 4
13 1 10 -8 -3 -8 -15 -13 -28 -11 -18 2 -21 -1 -15 -15 12 -32 16 -85 6 -97
-6 -7 -17 -37 -25 -67 -8 -30 -22 -74 -30 -99 -9 -24 -23 -84 -31 -132 -8 -49
-16 -92 -19 -96 -4 -7 -18 -165 -20 -227 -1 -28 1 -30 31 -27 29 3 33 0 33
-20 0 -18 -6 -24 -22 -24 -13 0 -26 4 -30 10 -4 6 -10 7 -14 3 -7 -7 -8 -31
-5 -107 1 -25 1 -52 0 -60 -1 -8 -1 -34 -1 -57 2 -40 4 -43 29 -43 21 0 24 3
15 12 -7 7 -12 19 -12 27 0 24 25 -7 39 -48 14 -44 2 -58 -32 -37 -24 16 -25
16 -31 -9 -11 -45 3 -74 40 -81 27 -5 34 -11 34 -30 0 -29 -16 -40 -36 -23
-11 9 -18 9 -26 1 -14 -14 8 -130 29 -154 12 -13 13 -18 3 -18 -10 0 -10 -3
-1 -14 9 -11 9 -15 -1 -18 -10 -4 -10 -10 1 -34 11 -23 15 -25 18 -12 3 10 16
21 29 24 21 5 24 11 20 29 -3 13 -3 31 0 39 9 24 32 1 27 -27 -2 -12 3 -31 12
-42 16 -19 16 -19 10 10 -7 30 -6 30 13 10 10 -11 17 -27 14 -35 -3 -8 2 -6
11 5 19 24 27 18 20 -15 -4 -23 -8 -25 -44 -22 -24 3 -39 0 -39 -7 0 -6 6 -10
13 -9 7 2 11 -6 9 -20 -2 -16 5 -27 27 -40 17 -9 31 -23 31 -29 0 -7 4 -13 10
-13 5 0 8 -18 5 -42 -8 -76 -12 -93 -24 -90 -6 1 -11 -3 -11 -9 0 -5 -6 -7
-12 -3 -19 12 -49 12 -45 0 2 -6 20 -14 41 -17 45 -7 68 -26 47 -38 -9 -6 -10
-11 -2 -15 6 -4 15 -5 20 -2 12 8 41 -4 41 -16 0 -5 7 -17 16 -26 15 -15 15
-16 -1 -22 -15 -5 -14 -8 8 -23 39 -25 54 -57 33 -72 -20 -15 -21 -25 0 -25 8
0 12 -4 9 -10 -3 -5 5 -15 18 -21 31 -14 45 -73 15 -63 -22 7 -24 -9 -3 -26
12 -10 15 -10 15 1 0 8 8 5 22 -8 28 -24 58 -36 58 -22 0 5 -9 29 -20 51 -21
45 -24 58 -12 58 4 0 15 -19 26 -41 13 -28 23 -39 33 -34 16 5 43 -11 43 -26
0 -5 -7 -6 -15 -3 -11 5 -13 2 -9 -10 4 -11 13 -15 25 -11 11 4 19 2 19 -2 0
-5 7 -18 16 -29 15 -18 15 -18 5 3 -15 30 -14 35 8 28 18 -5 19 -2 14 29 -5
32 -4 34 16 29 17 -4 20 -2 15 11 -4 10 -1 16 9 16 8 0 17 -13 20 -30 4 -16
11 -30 17 -30 7 0 8 6 0 19 -13 24 -13 31 0 31 5 0 17 -15 27 -32 l17 -33 6
25 c4 16 12 24 23 22 9 -1 21 7 27 19 7 11 14 18 17 15 4 -3 11 4 17 16 6 12
17 23 25 26 14 5 12 -29 -4 -88 -4 -14 7 -3 23 25 34 55 79 83 69 43 -6 -22
-6 -22 13 2 22 29 37 22 20 -10 -12 -22 -11 -22 17 -7 15 9 41 18 57 22 16 3
30 14 33 25 7 25 29 26 42 3 8 -15 11 -15 26 -3 9 8 21 23 26 35 6 11 21 38
34 60 13 22 32 69 41 105 18 68 48 118 59 100 10 -16 24 -2 41 40 10 25 24 40
39 44 18 5 22 11 18 27 -5 19 -4 20 16 10 20 -11 21 -11 10 7 -10 16 -10 25 4
46 9 14 17 39 17 56 0 31 8 38 27 19 12 -12 27 111 25 203 -1 41 5 55 38 97
23 29 46 48 57 47 13 -1 19 7 21 27 2 15 8 27 14 27 5 0 8 6 5 14 -3 7 4 28
15 46 12 20 21 58 24 94 3 34 8 77 11 96 4 19 7 49 7 65 1 20 6 29 15 27 9 -2
11 3 7 13 -3 9 -6 20 -6 23 0 4 -4 1 -9 -6 -6 -10 -10 -7 -13 11 -7 35 9 58
23 34 16 -27 31 -10 23 26 -4 18 -8 59 -10 92 -9 146 -22 234 -40 263 -8 12
-12 27 -9 32 6 10 -18 102 -40 156 -8 18 -17 48 -20 68 -4 20 -14 40 -23 45
-11 6 -15 21 -14 49 2 22 -2 44 -9 47 -8 6 -7 10 2 16 12 7 11 14 0 41 -8 18
-13 52 -12 76 1 23 -5 57 -13 75 -8 17 -17 58 -19 90 -3 32 -10 64 -16 71 -6
7 -8 15 -5 19 9 9 -37 195 -52 207 -7 7 -10 18 -8 25 3 7 -1 40 -9 72 -8 32
-18 85 -22 118 -4 33 -14 75 -21 93 -12 30 -17 33 -43 27 -23 -5 -29 -2 -34
15 -3 13 -11 18 -20 14 -8 -3 -49 -1 -91 5 -56 8 -82 8 -101 -1 -22 -10 -33
-8 -77 16 -37 20 -61 27 -92 24 -30 -2 -40 1 -38 10 1 8 -2 11 -7 7 -6 -3 -22
1 -35 10 -14 9 -35 15 -48 14 -28 -3 -68 9 -89 27 -10 9 -19 10 -25 4z"/>
<path d="M5170 12273 c0 -5 -82 -9 -183 -9 -100 -1 -228 -8 -285 -16 -57 -8
-105 -11 -108 -6 -3 5 -10 6 -15 2 -12 -7 -69 -14 -121 -13 -20 0 -39 -5 -43
-10 -3 -6 -15 -7 -27 -2 -34 12 -69 1 -79 -27 -9 -24 -11 -24 -26 -9 -14 13
-18 14 -27 3 -13 -16 -106 -30 -106 -16 0 6 7 10 16 10 8 0 12 4 9 10 -5 9
-153 3 -164 -6 -2 -2 4 -15 13 -29 9 -14 12 -25 6 -25 -6 0 -8 -5 -5 -10 4 -6
14 -10 23 -9 10 1 36 -2 59 -6 51 -9 46 -30 -4 -22 -28 5 -34 3 -29 -8 7 -19
-10 -20 -21 -1 -11 19 -49 37 -65 31 -8 -3 -19 -23 -24 -45 -9 -32 -8 -40 3
-45 18 -6 12 -30 -8 -30 -17 0 -25 -53 -10 -68 6 -6 11 -19 11 -30 0 -10 5
-15 10 -12 6 3 10 0 10 -9 0 -24 50 -76 73 -76 12 -1 44 -7 71 -14 40 -10 53
-20 68 -47 14 -27 23 -33 43 -31 19 3 25 -1 25 -15 0 -9 18 -34 40 -54 25 -23
40 -31 40 -22 0 20 20 6 30 -23 5 -13 18 -24 28 -24 18 0 92 -65 92 -81 0 -9
32 -28 58 -34 9 -3 35 -9 58 -14 22 -6 81 -14 130 -19 74 -7 91 -6 100 6 12
17 49 9 39 -8 -4 -6 5 -10 19 -10 15 0 25 5 23 12 -1 7 8 14 21 16 17 3 22 -1
22 -17 0 -12 6 -21 14 -21 16 0 30 28 27 50 -2 12 1 11 17 -3 18 -17 29 -18
92 -10 39 5 73 6 76 1 9 -14 34 -9 28 6 -5 14 22 30 36 21 5 -3 28 -1 51 4 30
7 38 6 30 -2 -17 -17 -13 -27 12 -27 18 0 19 2 7 10 -13 8 -11 11 8 16 12 4
22 12 22 20 0 7 18 19 40 25 22 7 40 18 40 26 0 7 7 13 15 13 9 0 12 -6 9 -15
-5 -11 1 -15 25 -15 17 0 31 -4 31 -10 0 -5 5 -10 10 -10 6 0 10 6 10 14 0 7
6 19 13 25 11 8 19 5 37 -14 29 -31 37 -31 60 -3 14 18 26 22 66 20 45 -3 50
0 61 24 7 15 10 31 7 36 -7 10 14 38 28 38 6 0 8 -9 5 -20 -3 -11 -1 -23 4
-26 5 -3 9 1 9 8 0 7 5 20 10 28 8 13 11 13 19 1 6 -9 15 -11 27 -6 11 5 25 9
33 9 8 1 16 7 19 15 3 9 -2 11 -17 6 -12 -3 -21 -2 -21 4 0 5 9 13 20 16 11 3
20 15 20 25 0 25 24 36 84 38 27 1 53 8 60 15 14 18 46 29 46 17 0 -6 -6 -10
-12 -10 -9 -1 -8 -4 2 -9 16 -10 110 9 110 21 0 5 4 8 9 8 5 0 22 5 37 10 25
10 26 11 9 24 -11 8 -16 20 -12 30 7 19 39 22 36 4 -4 -22 12 -78 22 -78 6 0
8 4 5 9 -10 15 5 40 20 34 7 -3 17 2 20 11 7 18 63 36 112 36 24 0 32 -4 32
-17 1 -17 1 -17 14 0 7 9 18 17 25 17 6 0 14 14 18 30 3 17 12 30 20 30 8 0
11 -4 8 -10 -4 -6 8 -10 29 -10 24 0 36 5 36 14 0 8 7 17 16 20 23 9 24 8 17
-11 -6 -16 -4 -16 15 1 19 16 24 17 38 5 15 -12 15 -14 -6 -19 -13 -3 -25 -11
-28 -18 -6 -18 47 -4 72 20 20 18 20 18 -5 18 l-24 1 24 19 c30 25 41 25 34 0
-4 -15 0 -20 16 -20 11 0 21 6 21 14 0 7 12 18 28 24 118 44 122 47 122 72 -1
24 -1 24 -15 6 -7 -10 -18 -15 -24 -12 -5 4 -12 2 -16 -4 -3 -5 -16 -10 -28
-10 -16 0 -18 3 -9 12 7 7 12 17 12 24 0 15 -26 12 -42 -4 -7 -7 -20 -12 -30
-12 -10 0 -21 -7 -24 -15 -8 -19 -30 -20 -37 -2 -8 21 6 37 35 39 34 3 25 18
-10 18 -34 1 -65 23 -52 36 7 7 -3 8 -26 6 -25 -3 -38 -10 -41 -23 -4 -12 -13
-17 -31 -14 -15 1 -33 3 -40 4 -9 1 -10 6 -3 19 5 9 9 21 9 27 0 5 9 12 19 16
17 7 17 8 -2 8 -31 1 -4 18 47 29 49 10 68 2 68 -27 0 -11 4 -10 15 6 14 21
65 38 65 22 0 -5 7 -9 15 -9 8 0 14 6 13 13 -2 8 14 13 50 15 92 5 55 19 -48
18 -60 -1 -101 2 -103 9 -2 5 -11 2 -21 -7 -11 -12 -26 -16 -45 -12 -20 4 -30
1 -34 -10 -5 -13 -15 -15 -45 -10 -26 4 -49 1 -68 -9 -39 -19 -94 -29 -94 -16
0 5 8 12 18 15 31 10 67 29 74 39 9 12 -13 26 -27 16 -12 -9 -22 -8 -56 6 -27
12 -108 -2 -121 -21 -12 -17 -107 -12 -125 7 -16 16 -16 17 5 17 14 0 21 4 17
11 -4 6 -19 7 -35 4 -16 -4 -37 -2 -47 4 -13 6 -35 6 -67 -1 -38 -8 -50 -7
-56 3 -6 9 -12 10 -22 2 -17 -14 -78 -22 -78 -11 0 5 -10 6 -21 3 -14 -5 -19
-3 -15 3 4 7 -4 10 -21 8 -16 -1 -34 2 -41 7 -8 7 -20 6 -35 0 -13 -6 -79 -11
-147 -12 -68 -1 -129 -6 -135 -11 -12 -10 -93 -1 -101 11 -2 5 -14 -1 -24 -11
-24 -24 -65 -27 -56 -5 8 21 -28 20 -50 -2 -15 -16 -17 -16 -29 0 -7 9 -20 17
-29 17 -9 0 -16 6 -16 13 0 6 -5 4 -11 -5 -12 -22 -39 -24 -39 -3 0 8 -7 15
-15 15 -8 0 -15 -3 -15 -7z"/>
<path d="M5995 12270 c3 -5 8 -10 11 -10 2 0 4 5 4 10 0 6 -5 10 -11 10 -5 0
-7 -4 -4 -10z"/>
<path d="M6430 12260 c0 -5 4 -10 9 -10 6 0 13 5 16 10 3 6 -1 10 -9 10 -9 0
-16 -4 -16 -10z"/>
<path d="M7221 12216 c2 -2 21 -6 42 -10 27 -5 37 -4 32 3 -3 6 -22 11 -42 11
-20 0 -34 -2 -32 -4z"/>
<path d="M7310 12210 c0 -5 5 -10 11 -10 5 0 7 5 4 10 -3 6 -8 10 -11 10 -2 0
-4 -4 -4 -10z"/>
<path d="M7168 12203 c6 -2 18 -2 25 0 6 3 1 5 -13 5 -14 0 -19 -2 -12 -5z"/>
<path d="M7328 12163 c7 -3 16 -2 19 1 4 3 -2 6 -13 5 -11 0 -14 -3 -6 -6z"/>
<path d="M6834 12119 c-3 -6 -2 -15 4 -21 7 -7 14 -3 21 11 10 17 9 21 -3 21
-8 0 -18 -5 -22 -11z"/>
<path d="M7240 12109 c0 -11 27 -12 34 -1 2 4 -4 9 -15 9 -10 1 -19 -2 -19 -8z"/>
<path d="M7243 12059 c-25 -9 -30 -19 -10 -19 15 0 43 17 37 23 -3 3 -15 1
-27 -4z"/>
<path d="M7123 12053 c-18 -2 -33 -8 -33 -14 0 -12 47 -12 55 1 4 6 15 8 26 5
11 -4 19 -2 19 4 0 11 -7 11 -67 4z"/>
<path d="M8604 11979 c-3 -6 -15 -8 -25 -6 -14 4 -19 1 -17 -10 2 -13 -10 -16
-62 -19 -36 -1 -78 -7 -95 -12 -39 -12 -96 -7 -105 8 -9 15 -30 4 -30 -16 0
-8 -7 -15 -15 -15 -8 -1 -21 -2 -27 -3 -7 -1 -12 7 -10 17 4 24 -19 22 -25 -3
-3 -12 -14 -20 -27 -20 -12 0 -28 -6 -34 -12 -10 -10 -15 -10 -22 2 -5 8 -10
11 -10 7 0 -4 -9 -3 -20 3 -14 8 -26 8 -40 0 -16 -8 -20 -8 -20 3 0 20 -33 27
-48 10 -7 -7 -22 -13 -33 -13 -11 0 -33 -7 -48 -15 -16 -8 -45 -16 -65 -18
-20 -2 -42 -9 -48 -15 -7 -7 -18 -12 -25 -12 -19 0 -90 -49 -97 -67 -3 -8 1
-21 9 -29 19 -19 19 -40 1 -47 -8 -3 -22 -17 -32 -31 -15 -25 -15 -27 6 -49
13 -13 23 -28 22 -33 0 -5 6 -17 15 -26 11 -13 13 -21 5 -30 -12 -15 9 -53 23
-40 5 4 5 -1 2 -10 -8 -22 36 -32 83 -18 19 5 36 10 37 10 2 0 3 -9 3 -19 0
-17 -7 -19 -45 -18 -31 1 -50 -3 -62 -16 -15 -15 -15 -17 -2 -12 9 3 22 -1 29
-10 7 -8 19 -15 27 -15 13 0 13 -3 3 -15 -17 -20 -10 -25 34 -27 20 -1 39 -5
42 -10 3 -4 10 -8 17 -8 8 0 8 3 -1 12 -18 18 -15 27 14 38 19 7 31 7 40 -1
10 -8 14 -8 14 -1 0 6 -7 15 -15 20 -13 7 -12 10 9 20 16 7 27 8 31 1 4 -5 11
-7 16 -3 5 3 7 10 4 15 -4 5 3 9 14 9 12 0 21 4 21 8 0 11 143 -7 155 -20 3
-3 29 -1 58 5 28 5 62 10 75 11 12 0 22 5 22 9 0 5 5 5 10 2 6 -3 10 -2 10 2
0 10 27 14 88 13 40 0 42 1 32 21 -11 20 -10 21 55 14 36 -3 85 -3 109 0 42 7
44 8 39 36 -2 16 0 29 5 29 14 0 33 -26 25 -33 -3 -4 2 -10 12 -13 10 -4 21
-1 26 7 5 8 9 11 9 7 0 -4 14 -1 32 6 23 10 38 11 54 4 13 -6 31 -7 41 -3 10
5 22 7 27 6 14 -3 109 22 131 35 13 8 38 9 72 5 29 -4 58 -4 65 1 22 13 96 9
112 -7 8 -8 20 -15 27 -15 7 0 9 3 6 6 -4 4 2 15 14 25 14 12 16 18 7 21 -7 3
-1 7 15 10 15 3 30 1 33 -3 3 -5 0 -9 -6 -9 -7 0 -10 -7 -6 -15 3 -8 -2 -19
-12 -24 -15 -9 -14 -10 6 -11 17 0 24 7 28 30 6 26 10 29 36 26 35 -4 47 -14
29 -25 -18 -12 2 -23 26 -14 10 4 24 15 31 25 7 10 24 18 38 18 28 0 31 -8 9
-24 -12 -9 -6 -11 27 -10 61 1 63 2 37 25 l-24 20 25 -7 c14 -4 31 -9 38 -11
6 -3 12 0 12 6 0 6 5 11 10 11 6 0 10 -6 10 -13 0 -7 9 -18 21 -25 14 -9 19
-20 16 -33 -4 -14 0 -19 16 -19 16 0 18 3 9 12 -13 13 -16 58 -4 58 14 0 32
-23 32 -41 0 -9 6 -19 13 -21 20 -8 121 -1 255 18 48 7 54 19 17 36 -24 11
-34 28 -16 28 5 0 16 3 25 6 10 4 17 -2 22 -20 5 -21 14 -26 50 -32 49 -7 79
0 68 17 -4 8 1 9 17 3 29 -10 50 -10 154 0 93 10 111 16 171 57 37 25 43 33
33 45 -6 8 -17 14 -24 14 -7 0 -20 10 -29 23 -19 24 -95 40 -81 16 14 -22 -18
-26 -87 -11 -54 12 -77 13 -99 5 -18 -7 -31 -8 -35 -2 -3 5 -13 8 -22 7 -9 -2
-16 2 -15 9 2 7 -6 17 -17 23 -15 8 -20 8 -20 -1 0 -8 -4 -8 -14 0 -8 7 -27
16 -43 20 -15 4 -27 12 -25 17 3 14 44 12 67 -3 24 -16 43 -17 27 -1 -17 17
-15 26 6 30 12 2 6 8 -20 21 -20 9 -38 22 -40 28 -2 6 -21 17 -43 25 -34 11
-41 11 -48 -1 -10 -18 -22 -19 -39 -2 -16 16 -58 28 -58 17 0 -5 5 -12 10 -15
8 -5 8 -11 0 -20 -8 -10 -17 -7 -41 16 -34 31 -55 38 -45 14 4 -10 -1 -15 -16
-15 -16 0 -18 3 -9 14 9 11 7 15 -9 19 -11 3 -23 1 -26 -5 -3 -5 -15 -8 -25
-5 -20 5 -26 -7 -9 -18 15 -9 12 -25 -4 -25 -8 0 -18 9 -21 21 -4 11 -13 18
-20 16 -7 -3 -25 1 -40 9 -15 8 -45 17 -67 20 -38 7 -39 6 -34 -21 4 -23 2
-26 -14 -22 -11 3 -20 0 -20 -5 0 -7 -5 -6 -13 1 -8 6 -17 8 -20 4 -4 -3 -10
3 -14 13 -11 30 -29 44 -57 44 -20 0 -24 -4 -19 -17 5 -12 2 -15 -10 -10 -9 3
-17 2 -17 -3 0 -10 -35 -8 -46 2 -3 4 -15 1 -26 -5 -16 -10 -22 -8 -38 11 -16
19 -27 23 -67 20 -54 -3 -68 -25 -38 -58 9 -10 13 -20 8 -23 -15 -9 -63 5 -63
19 0 8 -5 14 -11 14 -7 0 -9 9 -5 24 5 20 2 24 -23 28 -18 3 -29 0 -28 -6 2
-13 -37 -8 -41 5 -6 14 -24 10 -37 -8 -12 -16 -14 -16 -29 0 -10 9 -25 17 -34
17 -12 0 -13 -3 -4 -12 16 -16 15 -28 -2 -28 -8 0 -21 9 -29 20 -10 14 -24 19
-50 18 -20 -1 -37 -5 -37 -10 0 -12 -34 -10 -49 5 -10 10 -15 8 -26 -6 -13
-18 -14 -18 -23 0 -9 14 -13 16 -23 6 -15 -15 -49 -17 -49 -3 0 13 -17 13 -26
-1z"/>
<path d="M9916 11951 c-4 -7 -5 -15 -2 -18 9 -9 19 4 14 18 -4 11 -6 11 -12 0z"/>
<path d="M6920 11940 c0 -5 5 -10 10 -10 6 0 10 5 10 10 0 6 -4 10 -10 10 -5
0 -10 -4 -10 -10z"/>
<path d="M8045 11930 c3 -5 8 -10 11 -10 2 0 4 5 4 10 0 6 -5 10 -11 10 -5 0
-7 -4 -4 -10z"/>
<path d="M6840 11890 c-13 -8 -13 -10 2 -10 9 0 20 5 23 10 8 13 -5 13 -25 0z"/>
<path d="M10185 11880 c3 -5 23 -10 43 -10 27 0 33 -3 22 -10 -11 -7 -12 -12
-3 -21 14 -14 36 -2 29 17 -3 8 0 14 6 14 6 0 9 3 6 6 -11 10 -110 15 -103 4z"/>
<path d="M10310 11871 c0 -6 4 -12 8 -15 5 -3 9 1 9 9 0 8 -4 15 -9 15 -4 0
-8 -4 -8 -9z"/>
<path d="M6630 11850 c0 -5 5 -10 10 -10 6 0 10 5 10 10 0 6 -4 10 -10 10 -5
0 -10 -4 -10 -10z"/>
<path d="M6710 11835 c0 -8 5 -15 10 -15 6 0 10 7 10 15 0 8 -4 15 -10 15 -5
0 -10 -7 -10 -15z"/>
<path d="M10395 11840 c3 -5 8 -10 11 -10 2 0 4 5 4 10 0 6 -5 10 -11 10 -5 0
-7 -4 -4 -10z"/>
<path d="M420 11819 c0 -5 5 -7 10 -4 6 3 10 8 10 11 0 2 -4 4 -10 4 -5 0 -10
-5 -10 -11z"/>
<path d="M6490 11818 c0 -9 5 -20 10 -23 13 -8 13 5 0 25 -8 13 -10 13 -10 -2z"/>
<path d="M6670 11810 c0 -5 7 -10 15 -10 8 0 15 5 15 10 0 6 -7 10 -15 10 -8
0 -15 -4 -15 -10z"/>
<path d="M6625 11800 c3 -5 8 -10 11 -10 2 0 4 5 4 10 0 6 -5 10 -11 10 -5 0
-7 -4 -4 -10z"/>
<path d="M6540 11789 c0 -5 5 -7 10 -4 6 3 10 8 10 11 0 2 -4 4 -10 4 -5 0
-10 -5 -10 -11z"/>
<path d="M10615 11780 c3 -5 8 -10 11 -10 2 0 4 5 4 10 0 6 -5 10 -11 10 -5 0
-7 -4 -4 -10z"/>
<path d="M10650 11772 c0 -6 -8 -13 -17 -15 -10 -3 -3 -5 15 -6 22 -1 32 3 30
11 -5 15 -28 23 -28 10z"/>
<path d="M3690 11750 c-6 -11 -17 -20 -24 -20 -7 0 -20 -15 -28 -32 -21 -46
-64 -131 -110 -215 -62 -114 -37 -85 33 38 35 61 69 113 76 116 7 3 13 10 13
17 0 13 18 48 44 89 10 15 16 27 13 27 -4 0 -11 -9 -17 -20z"/>
<path d="M6190 11709 c0 -5 5 -7 10 -4 6 3 10 8 10 11 0 2 -4 4 -10 4 -5 0
-10 -5 -10 -11z"/>
<path d="M6278 11713 c-10 -2 -18 -9 -18 -14 0 -14 16 -11 30 6 7 8 11 14 9
14 -2 -1 -12 -3 -21 -6z"/>
<path d="M6080 11700 c-13 -8 -13 -10 2 -10 9 0 20 5 23 10 8 13 -5 13 -25 0z"/>
<path d="M6247 11645 c-10 -14 -14 -25 -9 -25 10 0 42 33 42 43 0 14 -16 5
-33 -18z"/>
<path d="M6070 11649 c0 -17 19 -18 46 -4 l29 15 -38 -2 c-20 -1 -37 -5 -37
-9z"/>
<path d="M6020 11640 c0 -5 7 -10 15 -10 8 0 15 5 15 10 0 6 -7 10 -15 10 -8
0 -15 -4 -15 -10z"/>
<path d="M5912 11589 c2 -6 8 -10 13 -10 5 0 11 4 13 10 2 6 -4 11 -13 11 -9
0 -15 -5 -13 -11z"/>
<path d="M6010 11570 c0 -5 5 -10 10 -10 6 0 10 5 10 10 0 6 -4 10 -10 10 -5
0 -10 -4 -10 -10z"/>
<path d="M5840 11550 c0 -5 5 -10 11 -10 5 0 7 5 4 10 -3 6 -8 10 -11 10 -2 0
-4 -4 -4 -10z"/>
<path d="M7990 11380 c-13 -8 -12 -10 3 -10 9 0 17 5 17 10 0 12 -1 12 -20 0z"/>
<path d="M8080 11380 c0 -5 5 -10 10 -10 6 0 10 5 10 10 0 6 -4 10 -10 10 -5
0 -10 -4 -10 -10z"/>
<path d="M7705 11363 c-20 -15 -19 -15 5 -9 14 3 29 6 33 6 5 0 5 5 2 10 -8
14 -16 12 -40 -7z"/>
<path d="M4615 11160 c-3 -11 -11 -20 -16 -20 -15 0 -68 -51 -74 -71 -4 -10
-11 -18 -17 -16 -15 3 -58 -61 -58 -85 0 -10 -7 -29 -14 -41 -8 -12 -27 -83
-41 -157 -14 -74 -32 -159 -40 -188 -15 -56 -49 -343 -60 -497 -16 -259 -37
-515 -50 -640 -8 -77 -15 -183 -15 -235 0 -98 -5 -157 -47 -495 -32 -258 -49
-459 -62 -722 -6 -117 -23 -297 -37 -400 -25 -189 -51 -707 -38 -759 4 -15 13
-24 25 -24 15 0 19 7 19 40 0 22 4 40 9 40 15 0 22 -46 17 -112 -3 -35 -8
-105 -12 -156 -5 -77 -9 -92 -22 -90 -20 4 -29 -31 -32 -122 -1 -36 -4 -59 -7
-51 -4 9 -11 2 -21 -20 -9 -19 -17 -38 -18 -44 -1 -5 -3 -14 -4 -20 -7 -24 -5
-85 2 -85 4 0 8 9 8 20 0 11 4 20 10 20 12 0 22 -39 18 -71 -3 -26 0 -29 33
-29 14 0 19 5 16 15 -4 8 -2 17 3 20 6 4 10 18 10 33 0 20 3 23 9 12 6 -8 8
-17 5 -22 -2 -4 -7 -62 -9 -130 -3 -68 -9 -124 -14 -126 -5 -2 -15 11 -22 27
-12 26 -53 50 -65 38 -9 -9 -33 -219 -27 -240 2 -12 7 -32 10 -44 3 -11 -2
-45 -10 -75 -19 -63 -24 -138 -12 -158 5 -8 8 -31 6 -52 -1 -27 2 -38 13 -38
9 0 15 -14 18 -46 4 -56 -2 -68 -27 -50 -18 13 -20 11 -32 -37 -10 -37 -11
-52 -2 -58 17 -10 49 1 62 22 7 11 20 19 31 19 11 0 16 -3 13 -7 -4 -3 -2 -12
4 -19 7 -9 6 -20 -6 -37 -17 -26 -19 -114 -4 -152 7 -18 8 -17 8 5 1 19 4 21
13 12 21 -21 39 -14 32 13 -4 15 -2 25 5 25 6 0 11 -8 11 -18 0 -10 3 -22 7
-26 4 -3 8 -15 10 -25 9 -64 105 -190 122 -162 6 9 11 8 20 -3 7 -8 10 -20 6
-26 -4 -7 2 -9 19 -4 17 4 26 2 26 -6 0 -6 4 -8 10 -5 6 3 10 1 10 -5 0 -8 13
-10 40 -5 38 6 43 4 76 -30 35 -38 35 -38 102 -32 51 4 70 10 83 26 12 14 20
18 25 10 10 -16 92 -51 104 -44 6 3 10 16 10 29 0 29 44 112 58 109 13 -3 40
54 48 99 3 18 9 42 14 53 5 11 12 34 16 50 7 27 8 28 11 8 3 -13 9 -23 15 -23
6 0 7 15 3 39 -9 55 4 112 26 118 14 4 16 9 9 23 -13 24 -13 63 -1 75 16 16
32 166 41 384 5 120 13 208 19 214 8 8 11 6 11 -7 0 -9 4 -14 10 -11 12 8 13
45 1 45 -21 0 -21 35 0 51 23 17 17 44 -11 44 -30 0 -37 101 -21 285 18 197
30 337 37 443 6 76 10 97 21 93 10 -4 13 7 13 47 0 29 5 90 10 135 8 58 7 88
0 102 -9 16 -8 22 6 27 9 3 20 0 25 -8 6 -9 9 5 10 41 1 30 2 70 4 88 2 27 0
30 -11 21 -13 -11 -16 -7 -13 17 0 3 -7 11 -17 18 -14 11 -16 23 -9 90 5 61
10 76 21 72 8 -3 14 -1 14 4 0 6 -4 10 -9 10 -15 0 -9 82 6 87 18 7 16 32 -2
39 -19 8 -19 19 1 39 9 9 14 26 12 39 -4 18 2 28 24 40 19 12 28 25 28 44 1
15 3 92 6 172 4 102 2 141 -5 130 -6 -8 -11 -30 -11 -49 0 -26 -3 -32 -16 -27
-10 4 -13 2 -8 -6 5 -7 2 -9 -9 -5 -9 3 -18 1 -21 -6 -3 -7 -3 73 0 177 3 105
7 193 10 197 2 4 7 41 9 81 6 84 13 111 26 103 5 -4 9 3 9 14 0 12 -4 21 -10
21 -5 0 -10 17 -10 38 0 42 13 71 24 53 13 -21 36 -12 36 14 0 18 5 25 20 25
11 0 20 7 20 15 0 12 -9 15 -35 13 -27 -2 -35 -7 -35 -21 0 -10 -5 -15 -11
-12 -10 7 -8 61 6 122 8 34 25 36 25 2 0 -21 16 -26 23 -6 4 9 8 8 16 -3 12
-17 16 -8 25 53 4 31 2 38 -9 33 -24 -9 -27 12 -10 64 9 27 14 59 10 70 -3 11
-3 20 2 20 9 0 17 100 17 221 1 60 -3 79 -17 93 -17 17 -18 15 -16 -50 1 -38
7 -75 12 -81 7 -9 5 -13 -7 -13 -17 0 -18 -6 -20 -112 0 -32 -5 -58 -9 -58 -4
0 -7 -17 -6 -38 2 -21 0 -43 -4 -49 -3 -5 -2 -24 2 -41 9 -28 -1 -52 -20 -52
-4 0 -6 49 -4 109 2 87 0 111 -11 115 -21 8 -17 30 7 41 19 9 21 20 25 115 2
58 6 151 8 207 2 56 8 108 12 115 5 7 8 22 9 32 0 11 6 21 13 24 10 3 12 -6 9
-42 -3 -25 -2 -48 2 -50 4 -3 8 7 9 22 1 14 6 28 11 32 14 8 31 189 36 380 4
124 13 254 21 297 4 22 1 44 -7 59 -9 19 -10 27 -2 32 25 16 51 289 52 547 0
53 -40 154 -69 175 -15 11 -30 16 -34 12 -12 -11 -119 -12 -132 -1 -7 6 -18 8
-24 4 -6 -4 -18 -1 -27 7 -14 11 -15 10 -10 -7 10 -29 -27 -52 -49 -30 -19 19
-104 21 -104 3 -1 -7 -11 0 -24 15 -23 28 -32 29 -83 5 -16 -8 -28 -6 -52 8
-17 10 -31 21 -31 25 0 14 -71 20 -87 7 -12 -10 -17 -9 -28 5 -16 22 -22 21
-30 -3z"/>
<path d="M10148 11147 c-5 -10 -8 -42 -8 -72 0 -55 -15 -80 -42 -70 -17 7 -44
-20 -29 -29 11 -7 3 -115 -10 -132 -5 -6 -4 -15 3 -22 9 -9 9 -18 1 -34 -6
-13 -14 -59 -17 -103 -3 -44 -10 -130 -16 -192 -9 -103 -6 -970 4 -1018 3 -11
5 -30 5 -43 1 -13 5 -20 11 -17 17 10 11 -35 -7 -53 -16 -16 -15 -17 1 -20 16
-3 18 -13 14 -73 -2 -45 0 -69 7 -69 16 0 11 -40 -9 -78 -17 -33 -17 -34 3
-39 17 -4 21 -13 21 -50 0 -32 4 -43 13 -40 6 2 11 10 9 17 -4 16 27 50 45 50
18 0 17 -9 -8 -54 -11 -21 -18 -41 -15 -43 3 -3 1 -14 -5 -24 -12 -24 0 -25
17 -2 19 27 24 13 27 -75 2 -66 4 -79 14 -66 6 9 9 22 6 30 -2 7 2 23 11 36 9
12 16 32 16 43 0 12 4 25 8 31 5 5 15 28 22 52 7 23 20 48 28 55 13 10 14 9 4
-10 -21 -38 -13 -48 17 -19 16 15 31 24 34 19 6 -10 -18 -45 -25 -38 -10 10
-27 -21 -38 -70 -33 -144 -68 -225 -98 -225 -9 0 -11 -10 -6 -34 5 -31 3 -36
-24 -50 -16 -8 -32 -22 -36 -31 -3 -9 -2 -13 4 -10 6 3 10 1 10 -6 0 -8 3 -9
13 0 8 6 16 9 18 6 3 -2 5 5 6 16 2 26 35 67 50 62 7 -3 9 -11 6 -19 -3 -8 0
-14 6 -14 7 0 14 8 17 18 3 9 15 39 25 65 21 50 19 67 -8 67 -10 0 0 15 26 42
23 23 40 46 38 53 -3 6 1 19 8 28 11 15 14 15 25 2 9 -11 9 -22 2 -45 -9 -24
-8 -30 2 -30 14 0 27 21 31 50 8 54 26 229 29 280 1 19 5 41 10 48 15 24 19
124 5 133 -17 10 -19 47 -2 53 7 3 13 20 13 39 0 18 6 39 13 46 8 9 8 12 0 7
-16 -9 -21 14 -11 49 18 60 20 129 21 580 1 354 -3 498 -15 623 -9 89 -20 168
-26 175 -5 7 -15 29 -21 49 -19 58 -48 89 -77 82 -19 -5 -24 -2 -24 13 0 28
-19 44 -39 31 -12 -7 -27 -6 -53 5 -30 13 -37 21 -40 49 -2 26 -5 29 -10 15z"/>
<path d="M8777 11109 c-31 -10 -90 -41 -130 -66 -39 -26 -83 -53 -96 -60 -44
-24 -141 -115 -193 -181 -29 -37 -66 -83 -83 -102 -16 -20 -41 -51 -55 -69
-14 -19 -35 -45 -48 -60 -13 -14 -90 -118 -172 -231 -82 -113 -162 -219 -177
-236 -109 -122 -123 -146 -160 -264 -14 -47 -29 -94 -33 -105 -4 -11 -22 -66
-40 -122 -18 -57 -71 -180 -117 -275 -210 -427 -344 -732 -424 -966 -26 -79
-61 -171 -77 -205 -16 -34 -37 -98 -46 -142 -10 -44 -30 -100 -44 -125 -21
-36 -28 -63 -32 -131 -6 -83 -8 -89 -45 -135 l-39 -48 -2 -105 c-2 -153 -8
-177 -54 -203 -42 -24 -56 -63 -34 -96 23 -34 13 -79 -32 -146 -34 -52 -36
-59 -24 -81 11 -20 11 -32 0 -67 -23 -78 -38 -163 -33 -190 4 -21 -2 -33 -23
-53 -27 -25 -27 -26 -14 -80 12 -52 12 -59 -9 -103 -19 -41 -22 -58 -16 -105
5 -40 4 -62 -5 -72 -12 -15 -10 -72 6 -167 5 -28 1 -46 -16 -77 -24 -41 -24
-52 -4 -216 5 -40 3 -54 -10 -64 -20 -17 -20 -50 0 -79 11 -16 17 -52 20 -115
5 -137 16 -193 36 -189 18 3 25 -35 30 -158 2 -48 0 -64 -9 -63 -7 2 -13 -6
-13 -17 0 -12 5 -17 14 -14 16 6 30 -49 47 -176 5 -40 14 -79 19 -84 6 -6 10
-6 11 -1 2 21 10 70 13 72 1 2 11 -5 22 -15 10 -10 27 -21 36 -25 15 -5 33
-53 53 -140 4 -20 10 -27 21 -23 9 3 17 -1 21 -12 8 -20 23 -32 41 -32 7 0 12
14 12 39 0 22 5 43 10 46 6 3 10 -5 10 -19 0 -14 5 -28 10 -31 6 -3 10 -16 10
-28 0 -29 19 -57 27 -39 2 6 9 9 15 6 6 -4 8 -1 6 7 -3 8 1 26 8 41 17 34 40
28 49 -13 7 -30 20 -38 29 -16 3 8 12 3 26 -15 12 -16 25 -28 30 -28 4 0 11
35 15 78 7 73 8 75 19 45 17 -48 25 -50 32 -4 7 42 20 53 30 26 8 -21 27 -7
21 16 -3 11 -1 19 3 19 4 0 13 -17 18 -37 l11 -38 0 50 c-1 71 0 77 10 70 6
-3 14 2 19 11 8 15 11 14 26 -7 9 -13 16 -30 16 -39 0 -8 5 -22 11 -30 7 -11
9 14 6 90 -4 96 6 252 13 205 4 -28 18 79 19 148 1 31 6 57 11 57 6 0 10 -3
11 -7 0 -5 2 -32 4 -62 2 -31 10 -60 19 -69 14 -14 15 -12 8 24 -20 110 -1
857 28 1099 6 44 12 116 15 160 2 44 13 127 23 185 11 58 20 114 20 125 0 30
59 261 108 420 24 77 49 167 57 200 8 33 32 110 52 170 21 61 42 126 48 145
17 59 147 344 161 355 8 6 88 161 179 345 175 356 209 420 325 601 40 63 116
184 169 269 52 85 130 207 173 270 42 63 110 171 150 240 155 264 228 354 343
422 84 50 137 101 201 192 104 150 137 273 101 375 -29 82 -250 282 -356 323
-55 20 -244 47 -334 47 -27 0 -76 -9 -108 -20z"/>
<path d="M5900 11111 c0 -5 9 -7 20 -4 11 3 20 7 20 9 0 2 -9 4 -20 4 -11 0
-20 -4 -20 -9z"/>
<path d="M5990 11095 c-7 -8 -8 -15 -2 -15 5 0 15 7 22 15 7 8 8 15 2 15 -5 0
-15 -7 -22 -15z"/>
<path d="M6100 11100 c-11 -7 -12 -10 -2 -10 17 0 11 -35 -6 -36 -6 -1 -16 -2
-22 -3 -5 0 -10 -7 -10 -15 0 -8 -5 -18 -11 -22 -7 -4 -10 4 -8 22 2 16 -1 30
-6 32 -6 1 -10 -4 -10 -10 -1 -7 -6 -12 -13 -10 -7 1 -23 4 -35 6 -14 2 -21 9
-19 20 2 10 -2 14 -12 10 -8 -3 -17 -18 -19 -32 l-3 -27 -12 25 -11 25 -7 -22
c-3 -13 -10 -23 -15 -23 -5 0 -7 10 -4 23 3 12 1 28 -4 36 -7 11 -14 10 -37
-5 -23 -16 -25 -20 -10 -22 17 -4 17 -13 0 -87 -4 -18 -4 -18 6 -3 6 9 17 15
24 12 17 -7 28 -44 17 -58 -8 -9 -37 -162 -45 -231 -2 -11 -9 -30 -17 -42 -10
-17 -11 -27 -3 -40 6 -10 10 -29 8 -43 -1 -14 -3 -29 -3 -35 -1 -5 -6 -3 -11
5 -17 25 -27 -4 -39 -114 -7 -56 -16 -123 -20 -151 -5 -27 -6 -56 -2 -63 5 -8
-6 -39 -25 -75 -39 -72 -44 -101 -15 -92 28 8 33 -7 20 -57 -6 -24 -12 -72
-13 -108 -1 -36 -5 -74 -9 -86 -4 -12 -1 -28 8 -40 14 -19 15 -18 36 6 l20 25
-3 -31 c-3 -22 0 -30 8 -27 7 2 15 -1 19 -7 4 -6 15 -8 26 -5 22 7 23 5 8 -29
-7 -14 -16 -23 -21 -20 -5 3 -16 -2 -23 -12 -14 -18 -14 -18 -15 2 0 27 -35
60 -45 43 -12 -18 -15 -88 -5 -94 6 -3 6 -15 0 -31 -22 -58 1 -75 35 -25 10
16 24 29 29 28 6 -1 10 3 11 10 0 21 14 25 30 9 17 -17 12 -33 -17 -54 -10 -7
-18 -20 -18 -29 0 -9 -8 -25 -17 -36 -17 -19 -17 -20 -1 -14 12 4 15 2 11 -9
-3 -7 -9 -14 -13 -14 -4 0 -10 -9 -13 -21 -3 -13 -12 -19 -24 -17 -11 2 -17
-2 -15 -11 1 -7 -3 -19 -9 -27 -9 -11 -8 -14 5 -14 9 0 16 5 16 10 0 13 66 80
79 80 5 0 16 3 25 6 11 4 16 1 16 -10 0 -10 -9 -16 -23 -16 -13 0 -26 -3 -30
-6 -10 -10 20 -34 41 -34 26 0 37 -40 17 -60 -13 -13 -15 -12 -15 1 0 9 -11
21 -25 27 -22 10 -29 9 -47 -8 -21 -19 -21 -20 -2 -21 10 -1 22 -1 27 0 15 2
6 -37 -12 -50 -15 -10 -18 -21 -14 -41 5 -24 9 -27 44 -25 35 2 39 0 39 -20 0
-13 5 -23 10 -23 6 0 10 -13 10 -29 0 -21 -11 -38 -39 -64 -21 -19 -44 -36
-52 -39 -11 -4 -11 -8 2 -21 15 -15 18 -14 39 13 30 39 52 47 48 17 -2 -13 2
-21 10 -19 14 2 17 -44 2 -53 -5 -3 -11 -21 -11 -38 -1 -25 -3 -27 -6 -9 -3
15 -10 22 -19 18 -8 -3 -14 -1 -14 5 0 5 7 12 15 15 27 11 16 25 -17 22 -25
-2 -34 -8 -36 -25 -2 -13 -8 -23 -13 -23 -20 0 -8 -36 12 -37 12 -1 26 -6 32
-12 16 -16 -2 -30 -33 -26 -21 3 -30 0 -30 -10 0 -16 58 -18 77 -3 7 6 20 7
29 4 13 -5 10 -11 -14 -36 -17 -16 -35 -30 -41 -30 -6 0 -11 -13 -11 -29 0
-18 -6 -31 -16 -35 -9 -4 -15 -9 -12 -11 9 -9 38 7 38 20 0 7 7 18 15 25 9 7
15 8 15 2 0 -5 9 -8 20 -5 17 4 20 0 20 -24 0 -26 -4 -30 -28 -30 -16 0 -38
-9 -50 -21 -25 -25 -30 -54 -7 -46 11 5 15 -1 15 -19 0 -14 -4 -27 -9 -29 -4
-1 -11 -22 -14 -46 -5 -38 -3 -44 17 -52 13 -4 37 -7 55 -6 41 3 39 -25 -2
-30 -16 -1 -38 -13 -49 -26 -11 -13 -24 -22 -29 -20 -5 1 -9 -5 -9 -14 0 -13
3 -14 14 -5 13 11 46 5 46 -8 0 -4 -5 -12 -12 -19 -9 -9 -9 -12 1 -12 9 0 11
-8 7 -24 -6 -26 15 -52 34 -41 8 5 6 11 -6 19 -15 12 -15 14 1 29 14 14 15 21
5 32 -10 12 -9 16 4 21 28 11 48 -3 37 -24 -12 -23 -3 -64 13 -59 16 5 36 -18
36 -42 0 -12 5 -21 10 -21 6 0 10 5 10 10 0 6 7 10 15 10 8 0 15 -4 15 -10 0
-5 6 -10 14 -10 8 0 16 -7 20 -15 7 -18 32 -20 39 -2 3 6 6 -3 6 -21 1 -21 5
-31 12 -27 6 4 8 14 5 22 -3 8 -2 23 4 32 12 23 60 17 60 -8 0 -14 2 -14 10
-1 9 13 11 13 20 0 8 -13 10 -13 11 3 1 9 3 22 4 27 1 6 3 17 4 25 0 8 6 15
11 15 6 0 10 -22 10 -50 0 -38 4 -50 15 -50 8 0 15 4 15 8 0 4 9 8 20 8 13 0
19 -5 15 -14 -3 -9 1 -12 13 -10 11 2 16 11 14 25 -2 15 4 22 22 25 14 3 27 1
28 -3 2 -5 9 -5 16 0 11 7 11 11 -1 23 -15 15 -15 26 -2 96 8 43 23 52 54 33
11 -7 10 -11 -5 -20 -11 -6 -14 -10 -9 -11 28 0 37 20 36 81 -1 68 7 92 30 87
8 -2 15 7 17 22 2 14 9 28 16 32 8 6 8 8 0 8 -8 0 -11 34 -9 115 2 109 2 114
-16 104 -18 -9 -19 -5 -19 56 0 42 4 64 10 60 6 -3 10 -13 10 -21 0 -29 19
-13 26 21 7 41 -3 108 -16 100 -4 -3 -6 -13 -3 -23 2 -10 -2 -23 -9 -30 -11
-9 -13 -3 -13 33 0 32 6 49 23 65 23 22 30 55 10 47 -7 -2 -21 0 -31 5 -14 7
-16 13 -7 22 6 8 12 34 14 60 4 55 11 67 20 31 12 -47 27 -27 25 35 -1 33 -4
60 -6 60 -1 0 -9 -15 -17 -32 -9 -20 -15 -26 -15 -15 -1 9 -5 17 -11 17 -13 0
-13 47 0 55 6 4 8 10 5 15 -7 12 21 20 33 8 9 -9 14 22 42 272 5 47 12 100 16
118 4 20 2 38 -6 46 -9 12 -8 29 4 77 13 47 14 65 5 76 -9 10 -9 23 0 51 7 21
12 49 12 62 -4 104 -9 142 -18 151 -7 7 -7 20 1 40 7 20 7 32 1 37 -13 9 -12
37 4 85 9 26 9 42 2 54 -9 16 -10 16 -11 -4 0 -35 -17 -27 -23 10 -3 22 1 38
14 52 16 18 17 28 8 85 -5 36 -24 121 -43 190 -29 110 -36 127 -59 138 -15 7
-27 20 -27 28 0 29 -47 97 -62 88 -5 -3 -18 6 -29 20 -15 19 -30 26 -55 26
-36 0 -38 -4 -34 -65 2 -24 0 -27 -13 -17 -8 7 -21 10 -30 6 -13 -5 -38 23
-42 46 -5 26 -19 50 -30 50 -8 0 -18 7 -22 15 -6 10 -13 11 -23 5z"/>
<path d="M5415 10830 c3 -19 9 -116 12 -215 4 -103 9 -169 14 -155 4 14 7 40
8 59 1 19 8 43 17 52 20 22 27 69 11 66 -8 -1 -14 26 -18 78 -4 58 -12 90 -28
115 l-23 35 7 -35z"/>
<path d="M6530 10847 c0 -2 11 -30 26 -63 14 -32 23 -48 20 -34 -3 14 -6 37
-6 52 0 17 -8 31 -20 38 -11 6 -20 9 -20 7z"/>
<path d="M5473 10785 c0 -27 2 -38 4 -22 2 15 2 37 0 50 -2 12 -4 0 -4 -28z"/>
<path d="M5457 10460 c-3 -11 -1 -20 4 -20 5 0 9 9 9 20 0 11 -2 20 -4 20 -2
0 -6 -9 -9 -20z"/>
<path d="M1937 10463 c-4 -3 -7 -13 -7 -20 0 -12 3 -12 15 1 8 8 15 17 15 20
0 8 -15 7 -23 -1z"/>
<path d="M5451 10314 c0 -11 3 -14 6 -6 3 7 2 16 -1 19 -3 4 -6 -2 -5 -13z"/>
<path d="M5418 10259 c-1 -28 0 -53 5 -56 4 -2 7 21 7 51 0 70 -7 73 -12 5z"/>
<path d="M5440 10258 c0 -21 4 -38 9 -38 17 0 19 14 5 45 l-13 30 -1 -37z"/>
<path d="M5410 10175 c0 -8 5 -15 10 -15 6 0 10 7 10 15 0 8 -4 15 -10 15 -5
0 -10 -7 -10 -15z"/>
<path d="M5441 10116 c-1 -29 2 -37 10 -29 8 8 8 19 1 40 -10 28 -10 28 -11
-11z"/>
<path d="M5411 10063 c1 -63 2 -65 10 -28 11 56 11 95 -1 95 -6 0 -10 -28 -9
-67z"/>
<path d="M5438 10032 c-2 -18 -1 -32 3 -32 15 0 19 18 10 41 -8 22 -8 22 -13
-9z"/>
<path d="M5400 9965 c0 -8 5 -15 10 -15 6 0 10 7 10 15 0 8 -4 15 -10 15 -5 0
-10 -7 -10 -15z"/>
<path d="M5395 9871 c-3 -5 -1 -12 5 -16 5 -3 10 1 10 9 0 18 -6 21 -15 7z"/>
<path d="M5398 9775 c-4 -22 -7 -76 -7 -120 1 -79 1 -79 11 -31 5 26 8 80 6
120 -3 64 -4 67 -10 31z"/>
<path d="M285 9760 c-6 -9 11 -50 20 -50 3 0 5 14 5 30 0 29 -13 40 -25 20z"/>
<path d="M340 9702 c0 -10 6 -26 13 -36 11 -15 15 -16 19 -5 7 18 -8 59 -22
59 -5 0 -10 -8 -10 -18z"/>
<path d="M5422 9704 c1 -9 9 -19 16 -22 9 -3 13 2 10 14 -1 9 -9 19 -16 22 -9
3 -13 -2 -10 -14z"/>
<path d="M401 9684 c0 -11 3 -14 6 -6 3 7 2 16 -1 19 -3 4 -6 -2 -5 -13z"/>
<path d="M374 9604 c-13 -6 -7 -44 7 -44 5 0 9 11 9 25 0 14 -1 25 -2 24 -2 0
-8 -3 -14 -5z"/>
<path d="M330 9553 c0 -5 5 -15 11 -23 9 -13 10 -13 6 2 -3 9 -1 19 6 22 7 2
4 5 -5 5 -10 1 -18 -2 -18 -6z"/>
<path d="M5260 9523 c-10 -12 -11 -18 -3 -20 7 -3 9 -11 6 -19 -3 -8 0 -14 6
-14 6 0 11 16 11 35 0 40 0 40 -20 18z"/>
<path d="M394 9469 c-3 -6 -1 -16 5 -22 8 -8 11 -5 11 11 0 24 -5 28 -16 11z"/>
<path d="M350 9456 c0 -8 4 -17 9 -20 5 -4 7 3 4 14 -6 23 -13 26 -13 6z"/>
<path d="M400 9396 c0 -9 7 -16 16 -16 17 0 14 22 -4 28 -7 2 -12 -3 -12 -12z"/>
<path d="M471 9393 c0 -4 4 -17 9 -28 8 -19 9 -19 9 2 1 12 -3 25 -9 28 -5 3
-10 3 -9 -2z"/>
<path d="M5406 9361 c-4 -7 -5 -15 -2 -18 9 -9 19 4 14 18 -4 11 -6 11 -12 0z"/>
<path d="M410 9350 c0 -5 5 -10 10 -10 6 0 10 -7 10 -16 0 -8 5 -12 10 -9 7 4
7 13 0 26 -11 20 -30 26 -30 9z"/>
<path d="M5685 9320 c3 -5 8 -10 11 -10 2 0 4 5 4 10 0 6 -5 10 -11 10 -5 0
-7 -4 -4 -10z"/>
<path d="M501 9284 c0 -11 3 -14 6 -6 3 7 2 16 -1 19 -3 4 -6 -2 -5 -13z"/>
<path d="M467 9257 c-17 -12 -17 -14 -3 -26 21 -18 33 -10 27 17 -5 20 -8 21
-24 9z"/>
<path d="M520 9236 c0 -8 5 -18 10 -21 6 -3 10 1 10 9 0 8 -4 18 -10 21 -5 3
-10 -1 -10 -9z"/>
<path d="M5395 9161 c-3 -5 -1 -12 5 -16 5 -3 10 1 10 9 0 18 -6 21 -15 7z"/>
<path d="M6505 9160 c3 -5 8 -10 11 -10 2 0 4 5 4 10 0 6 -5 10 -11 10 -5 0
-7 -4 -4 -10z"/>
<path d="M5361 9123 c0 -29 2 -33 8 -18 7 18 4 55 -5 55 -2 0 -4 -17 -3 -37z"/>
<path d="M5800 9141 c0 -11 26 -22 34 -14 12 12 5 23 -14 23 -11 0 -20 -4 -20
-9z"/>
<path d="M535 9110 c9 -16 20 -30 24 -30 5 0 4 14 -2 30 -6 17 -17 30 -24 30
-11 0 -10 -7 2 -30z"/>
<path d="M566 9115 c4 -8 10 -15 15 -15 4 0 6 7 3 15 -4 8 -10 15 -15 15 -4 0
-6 -7 -3 -15z"/>
<path d="M925 9100 c3 -5 8 -10 11 -10 2 0 4 5 4 10 0 6 -5 10 -11 10 -5 0 -7
-4 -4 -10z"/>
<path d="M5765 9080 c-3 -5 -1 -10 4 -10 6 0 11 5 11 10 0 6 -2 10 -4 10 -3 0
-8 -4 -11 -10z"/>
<path d="M750 9030 c0 -5 5 -10 11 -10 5 0 7 5 4 10 -3 6 -8 10 -11 10 -2 0
-4 -4 -4 -10z"/>
<path d="M5356 9014 c-3 -9 -5 -43 -4 -77 1 -54 2 -56 5 -17 3 25 8 49 14 55
12 12 12 42 0 49 -5 3 -12 -1 -15 -10z"/>
<path d="M5391 9004 c0 -11 3 -14 6 -6 3 7 2 16 -1 19 -3 4 -6 -2 -5 -13z"/>
<path d="M5688 9003 c6 -2 12 -11 12 -19 0 -8 7 -14 15 -14 13 0 14 4 5 20 -6
11 -18 20 -28 19 -10 0 -12 -3 -4 -6z"/>
<path d="M10226 8903 c-6 -14 -5 -15 5 -6 7 7 10 15 7 18 -3 3 -9 -2 -12 -12z"/>
<path d="M5689 8869 c-11 -7 -11 -9 4 -9 9 0 16 -5 15 -11 -2 -6 3 -14 10 -16
7 -3 12 4 12 15 0 23 -21 34 -41 21z"/>
<path d="M5343 8805 c0 -38 2 -53 4 -32 2 20 2 52 0 70 -2 17 -4 1 -4 -38z"/>
<path d="M6497 8854 c-4 -4 -7 -17 -7 -28 0 -19 1 -19 17 -3 12 11 14 20 7 27
-6 6 -13 7 -17 4z"/>
<path d="M10101 8821 c-8 -6 -9 -11 -3 -15 6 -3 14 -1 17 5 9 14 2 20 -14 10z"/>
<path d="M5211 8784 c0 -11 3 -14 6 -6 3 7 2 16 -1 19 -3 4 -6 -2 -5 -13z"/>
<path d="M10160 8725 c0 -8 2 -15 4 -15 2 0 6 7 10 15 3 8 1 15 -4 15 -6 0
-10 -7 -10 -15z"/>
<path d="M5330 8700 c0 -16 2 -30 4 -30 2 0 6 14 8 30 3 17 1 30 -4 30 -4 0
-8 -13 -8 -30z"/>
<path d="M5717 8683 c-3 -5 -2 -15 4 -23 15 -25 10 -30 -16 -20 -20 7 -25 6
-25 -5 0 -8 6 -15 14 -15 8 0 21 -3 30 -6 12 -5 16 0 16 22 0 32 -14 61 -23
47z"/>
<path d="M5735 8500 c-3 -5 1 -10 9 -10 9 0 16 5 16 10 0 6 -4 10 -9 10 -6 0
-13 -4 -16 -10z"/>
<path d="M890 8480 c0 -22 -35 -29 -43 -7 -2 6 -6 -10 -8 -36 l-4 -49 27 30
c14 17 29 28 32 25 10 -10 7 -53 -3 -53 -11 0 -12 -8 -11 -102 1 -58 -2 -68
-19 -78 -18 -9 -21 -8 -21 9 0 14 -9 23 -25 27 -17 4 -25 13 -25 28 0 30 10
39 24 21 10 -12 13 -12 24 1 8 9 9 14 2 14 -35 0 -70 79 -47 108 15 19 -8 15
-24 -4 -7 -9 -12 -29 -11 -44 3 -30 -9 -43 -45 -48 -17 -2 -23 2 -23 18 0 11
-4 20 -9 20 -10 0 -25 -57 -23 -84 2 -11 -3 -23 -10 -28 -18 -11 -30 -10 -23
1 3 5 2 12 -2 14 -5 3 -21 -13 -38 -34 -16 -21 -36 -38 -42 -39 -17 0 -17 17
0 23 10 4 9 6 0 6 -15 1 -18 31 -3 31 6 0 10 5 10 10 0 6 -9 10 -20 10 -17 0
-20 -7 -22 -47 -2 -63 -2 -65 -13 -83 -5 -8 -10 -44 -11 -80 -1 -36 -6 -85 -9
-109 -6 -35 -4 -47 8 -56 12 -9 14 -20 7 -51 -15 -70 -20 -194 -8 -194 7 0 7
-4 -1 -14 -6 -7 -9 -21 -5 -30 3 -9 1 -16 -4 -16 -7 0 -9 -18 -5 -49 3 -27 1
-63 -5 -79 -7 -20 -7 -33 0 -40 6 -6 8 -29 4 -54 -3 -23 -6 -51 -7 -60 0 -10
-4 -20 -9 -23 -5 -3 -4 -20 2 -38 5 -17 9 -49 9 -69 -1 -22 4 -38 10 -38 8 0
8 -4 1 -12 -5 -7 -12 -38 -16 -68 -8 -69 -11 -83 -17 -95 -2 -6 -4 -25 -4 -42
0 -18 -3 -33 -8 -33 -4 0 -5 -59 -2 -132 4 -80 2 -150 -5 -178 -5 -25 -14
-101 -19 -168 -5 -68 -14 -129 -20 -135 -6 -6 -11 -22 -11 -36 -1 -22 -2 -23
-11 -9 -5 10 -8 65 -5 132 3 64 1 118 -4 121 -5 3 -8 27 -8 53 1 26 0 90 -2
142 -2 91 -3 93 -12 45 -21 -116 -24 -161 -11 -191 15 -35 18 -341 3 -364 -7
-11 -10 -3 -10 29 0 73 -12 38 -16 -46 -3 -94 -14 -268 -20 -343 -3 -30 -7
-176 -10 -325 -3 -148 -7 -304 -9 -345 -14 -296 -25 -1044 -16 -1114 6 -44 11
-121 11 -172 0 -97 24 -342 40 -409 10 -44 43 -77 106 -105 22 -10 53 -30 69
-44 15 -14 35 -26 44 -26 9 0 25 -7 35 -15 28 -21 95 -19 139 5 46 25 58 25
90 0 23 -18 31 -19 72 -10 26 6 79 10 118 9 143 -2 157 -1 170 10 16 13 27 5
27 -21 0 -23 26 -23 82 1 107 47 150 173 163 481 7 161 16 237 47 385 19 89
22 137 23 430 2 182 6 539 11 795 5 256 8 586 7 733 -1 237 -3 271 -18 287
-15 17 -16 34 -11 132 7 123 8 155 7 238 -1 30 3 70 9 88 6 24 6 40 -3 54 -9
16 -9 22 1 25 13 5 16 90 6 155 -7 38 -24 43 -24 7 0 -10 -5 -19 -12 -19 -8 0
-9 47 -4 182 7 183 12 228 26 228 14 0 18 -36 9 -89 -4 -29 -5 -59 -2 -67 14
-36 31 26 38 136 4 63 8 132 10 153 2 20 0 37 -5 37 -5 0 -10 8 -13 18 -2 10
-7 2 -11 -20 -5 -21 -11 -38 -15 -38 -7 0 -4 551 3 558 2 2 15 -4 29 -13 23
-14 25 -14 31 0 9 24 7 155 -2 155 -4 0 -13 -5 -19 -11 -12 -12 -33 -4 -33 12
0 5 7 9 16 9 36 0 -25 110 -68 123 -20 6 -38 -11 -38 -36 0 -16 -3 -17 -15 -7
-9 7 -15 29 -15 54 0 46 -13 66 -43 66 -15 0 -18 -6 -15 -30 2 -20 -4 -36 -20
-50 -25 -24 -29 -48 -7 -56 19 -8 19 -33 0 -59 -13 -17 -17 -17 -30 -4 -8 8
-17 29 -19 47 -6 51 -16 50 -16 -1 0 -56 -15 -70 -25 -21 -6 33 -9 35 -32 29
-26 -6 -26 -6 -9 20 17 25 17 27 -3 44 -11 10 -18 20 -16 23 9 9 -17 68 -29
68 -20 0 -26 -11 -16 -31 11 -19 4 -49 -11 -49 -5 0 -10 10 -10 23 -1 13 -3
16 -5 7 -3 -9 -14 -21 -25 -28 -18 -12 -19 -10 -15 33 4 48 -3 58 -19 24 -6
-12 -12 -20 -15 -18 -3 2 -18 -4 -33 -14 -18 -12 -25 -13 -21 -4 3 8 -2 20
-10 27 -9 7 -13 16 -10 21 3 5 -2 9 -10 9 -9 0 -16 -9 -16 -20z"/>
<path d="M8638 8473 c-10 -3 -18 -8 -18 -13 0 -5 -19 -15 -42 -21 -24 -7 -79
-34 -123 -60 -67 -40 -87 -58 -123 -113 -71 -108 -140 -279 -165 -411 -24
-124 -28 -197 -27 -518 0 -324 9 -398 65 -570 47 -144 165 -291 269 -333 60
-25 71 -60 60 -189 -5 -49 -9 -121 -9 -160 0 -75 14 -295 20 -304 1 -3 6 -45
10 -94 3 -48 11 -102 16 -120 5 -17 9 -52 9 -78 0 -25 6 -68 14 -95 8 -27 19
-89 26 -139 21 -171 43 -221 76 -178 13 17 15 17 29 -1 8 -11 15 -28 15 -38 0
-10 6 -21 14 -24 11 -4 14 -23 7 -56 0 -3 -9 -4 -19 -1 -12 3 -22 -4 -30 -19
-11 -21 -12 -19 -7 14 5 29 3 37 -8 32 -9 -3 -18 9 -27 37 -14 41 -14 41 -23
16 -6 -18 -4 -36 7 -59 14 -31 25 -93 27 -145 1 -24 24 -32 32 -10 2 7 11 -1
20 -18 9 -16 16 -24 17 -17 0 7 9 22 20 34 21 23 19 25 36 -31 3 -8 -1 -18 -8
-23 -9 -5 -10 -10 -2 -15 6 -5 13 -16 17 -25 8 -22 27 -23 27 -2 0 9 5 14 12
12 11 -4 31 -66 44 -136 6 -28 8 -30 19 -15 12 15 13 15 19 -3 3 -11 8 -64 10
-118 4 -105 12 -124 44 -107 33 18 42 13 42 -21 0 -49 7 -30 14 37 3 33 10 74
15 90 8 30 8 30 17 -15 4 -25 9 -58 9 -75 4 -71 5 -79 14 -70 5 6 11 24 13 40
2 17 8 29 16 28 6 -2 12 6 12 17 0 25 16 26 29 3 8 -14 10 -15 11 -3 0 13 1
13 10 0 6 -10 10 -11 10 -2 0 21 36 13 48 -10 9 -19 11 -20 11 -5 1 10 5 16
10 12 5 -3 17 5 25 17 16 22 16 22 17 -17 l0 -40 19 57 c10 31 22 77 25 102 6
38 10 46 25 41 13 -4 19 2 24 26 3 17 6 42 6 55 0 13 5 24 10 24 6 0 11 -28
11 -62 1 -35 4 -51 6 -36 6 37 33 26 33 -14 0 -16 4 -27 9 -24 9 6 25 64 22
80 -1 4 3 14 9 21 6 8 9 28 5 47 -3 18 -1 47 4 63 l9 30 1 -28 c1 -15 8 -30
16 -33 8 -4 15 -12 15 -19 0 -8 4 -17 10 -20 5 -3 9 2 8 12 0 10 0 29 0 43 2
18 5 21 14 12 8 -8 12 -64 13 -172 1 -88 5 -163 8 -167 4 -3 7 11 8 33 0 21 2
50 4 64 6 37 6 743 0 825 -2 39 -7 162 -10 275 -3 113 -7 241 -10 285 -3 44
-10 224 -15 400 -6 176 -17 376 -25 445 -25 204 -27 405 -4 545 31 198 39 268
34 286 -5 16 -45 29 -89 29 -11 0 -32 13 -46 29 -14 17 -38 32 -55 34 -41 7
-65 17 -65 29 0 5 -5 6 -10 3 -6 -3 -13 2 -16 12 -3 10 -14 36 -25 59 -10 23
-19 46 -19 53 0 6 -7 22 -16 36 -14 21 -14 31 2 109 22 113 15 144 -40 184
-24 18 -66 37 -93 42 -40 9 -57 19 -86 55 -20 24 -45 46 -55 49 -10 3 -26 19
-35 36 -10 17 -27 30 -38 30 -10 0 -39 20 -63 44 -33 34 -49 43 -65 39 -12 -3
-21 -1 -21 6 0 6 -7 11 -15 11 -9 0 -20 10 -26 23 -10 22 -41 30 -81 20z"/>
<path d="M5192 8440 c0 -19 2 -27 5 -17 2 9 2 25 0 35 -3 9 -5 1 -5 -18z"/>
<path d="M5347 8453 c-11 -10 -8 -43 3 -43 6 0 10 11 10 25 0 26 -2 29 -13 18z"/>
<path d="M6484 8453 c4 -7 2 -22 -4 -33 -6 -11 -7 -20 -2 -20 15 0 23 44 10
55 -8 7 -9 6 -4 -2z"/>
<path d="M390 8429 c0 -5 5 -7 10 -4 6 3 10 8 10 11 0 2 -4 4 -10 4 -5 0 -10
-5 -10 -11z"/>
<path d="M676 8415 c-9 -26 -7 -32 5 -12 6 10 9 21 6 23 -2 3 -7 -2 -11 -11z"/>
<path d="M596 8395 c-3 -8 -1 -15 3 -15 5 0 11 7 15 15 3 8 1 15 -3 15 -5 0
-11 -7 -15 -15z"/>
<path d="M6469 8361 c-7 -18 -20 -32 -36 -36 -14 -3 -23 -8 -20 -11 3 -3 21 2
41 10 28 12 36 21 36 40 0 34 -9 33 -21 -3z"/>
<path d="M5187 8323 c-4 -3 -6 -27 -6 -52 l2 -46 7 50 c8 53 7 59 -3 48z"/>
<path d="M371 8294 c-12 -15 -19 -35 -16 -43 4 -9 6 -53 6 -98 0 -57 4 -86 14
-96 7 -8 15 -32 18 -53 2 -28 4 -20 6 26 6 187 9 207 41 263 8 13 7 17 -4 17
-8 0 -21 3 -29 6 -9 3 -23 -6 -36 -22z"/>
<path d="M6410 8265 c0 -7 -3 -21 -6 -30 -5 -13 -2 -15 20 -9 18 4 26 2 26 -7
0 -19 14 -1 15 20 1 11 -9 22 -27 29 -22 8 -28 7 -28 -3z"/>
<path d="M5836 8235 c4 -8 7 -15 9 -15 1 0 8 7 15 15 10 13 9 15 -8 15 -15 0
-20 -5 -16 -15z"/>
<path d="M5945 8200 c-3 -5 -1 -10 4 -10 6 0 11 5 11 10 0 6 -2 10 -4 10 -3 0
-8 -4 -11 -10z"/>
<path d="M5207 8194 c-4 -4 -7 -17 -7 -28 1 -19 1 -20 11 -3 11 19 8 43 -4 31z"/>
<path d="M5173 8095 c0 -33 2 -45 4 -27 2 18 2 45 0 60 -2 15 -4 0 -4 -33z"/>
<path d="M5292 8120 c0 -19 2 -27 5 -17 2 9 2 25 0 35 -3 9 -5 1 -5 -18z"/>
<path d="M6350 8139 c0 -5 5 -7 10 -4 6 3 10 8 10 11 0 2 -4 4 -10 4 -5 0 -10
-5 -10 -11z"/>
<path d="M5320 8103 c0 -18 5 -33 10 -33 13 0 13 30 0 50 -7 11 -10 7 -10 -17z"/>
<path d="M10255 8068 c3 -8 1 -27 -5 -42 -7 -20 -16 -27 -33 -24 -18 2 -21 8
-19 31 5 51 -29 27 -65 -43 -34 -68 -56 -168 -67 -307 -4 -40 -10 -83 -15 -96
-5 -12 -9 -49 -10 -80 0 -32 -3 -72 -6 -90 -13 -73 -15 -112 -5 -97 13 20 13
13 -1 -125 -6 -60 -11 -135 -11 -165 5 -276 7 -348 13 -344 14 8 16 -36 3 -53
-16 -21 -18 -37 -4 -28 6 3 11 3 12 -2 3 -16 8 -69 9 -93 0 -14 6 -45 14 -70
7 -25 16 -61 19 -80 3 -19 8 -46 11 -60 3 -14 8 -56 11 -95 3 -38 10 -72 15
-76 12 -7 15 -66 5 -96 -5 -17 -3 -23 7 -23 10 0 16 -17 20 -58 4 -32 14 -75
22 -97 12 -26 15 -52 10 -81 -3 -23 -2 -45 3 -48 5 -3 10 -29 10 -58 1 -29 5
-66 8 -82 4 -18 1 -31 -7 -36 -10 -7 -10 -11 0 -24 13 -15 21 -82 22 -181 1
-22 8 -80 16 -128 14 -75 14 -102 4 -180 -14 -105 -15 -147 -1 -161 12 -12 13
-46 1 -46 -13 0 -23 -32 -13 -42 9 -9 3 -53 -13 -92 -5 -10 -3 -21 3 -25 12
-7 14 -55 6 -156 -7 -87 6 -131 35 -115 28 14 31 13 31 -15 0 -14 4 -25 8 -25
5 0 8 -30 8 -67 0 -38 3 -81 7 -97 7 -25 10 -27 22 -15 11 11 12 23 5 54 -13
53 -12 135 0 135 6 0 10 -11 10 -25 0 -14 5 -25 10 -25 6 0 10 -16 10 -36 0
-19 7 -42 15 -50 8 -8 12 -21 9 -29 -4 -8 -1 -15 5 -15 6 0 11 14 11 30 0 17
5 30 12 30 9 0 9 3 1 11 -6 6 -10 25 -8 43 1 17 0 22 -2 11 -3 -11 -9 -24 -14
-30 -15 -15 -10 62 6 101 11 26 15 81 17 200 1 90 -1 167 -5 171 -4 3 -7 -3
-7 -15 0 -12 -4 -22 -9 -22 -13 0 -25 76 -15 92 5 7 9 25 10 39 1 14 8 41 17
60 8 19 18 63 21 98 7 73 25 96 41 52 9 -26 35 -33 35 -10 0 6 -4 8 -9 5 -20
-13 -17 22 5 49 l24 30 0 -48 c0 -27 4 -46 9 -43 5 4 8 28 6 54 -2 32 2 52 12
65 9 9 13 20 9 24 -4 4 -12 1 -17 -7 -8 -11 -8 1 -3 40 3 30 6 70 5 88 -1 21
2 31 9 27 5 -3 10 -13 10 -22 0 -9 2 -14 5 -11 11 11 16 124 8 193 -6 59 -8
64 -13 35 -3 -19 -2 -36 2 -38 11 -5 10 -32 -1 -32 -5 0 -8 -8 -7 -17 0 -10
-6 -18 -14 -18 -9 0 -14 8 -12 20 1 11 4 40 6 65 2 25 7 53 11 62 4 9 4 21 1
27 -3 5 -2 20 2 33 14 35 -3 159 -22 174 -12 8 -15 20 -10 38 7 28 19 34 27
14 3 -7 6 -2 6 11 1 20 -3 23 -24 19 -30 -6 -30 -5 -8 28 12 20 14 30 6 43 -6
10 -9 32 -7 49 3 23 0 32 -11 32 -8 0 -15 -9 -15 -20 0 -11 -4 -20 -10 -20
-10 0 -16 73 -12 133 2 19 -1 26 -9 21 -9 -5 -10 0 -6 17 4 13 7 37 7 52 0 17
4 26 11 22 6 -4 8 -13 5 -21 -3 -7 -1 -16 4 -19 6 -4 10 -15 10 -26 0 -10 6
-19 13 -19 7 0 13 -17 15 -42 2 -24 8 -47 13 -53 15 -14 1 92 -17 125 -32 61
-45 101 -46 139 0 32 -3 39 -13 31 -17 -14 -25 -2 -25 37 0 29 -3 33 -25 33
-16 0 -25 6 -25 15 0 8 4 15 9 15 9 0 6 136 -4 163 -4 10 -3 17 4 17 6 0 11
12 11 27 0 14 7 34 16 44 25 27 11 65 -26 72 -32 7 -41 31 -15 41 9 3 15 18
15 34 0 16 9 41 20 54 15 20 19 41 20 99 0 95 3 126 13 135 4 4 7 -26 8 -67 1
-70 2 -72 11 -34 5 22 7 99 5 170 -4 103 -10 146 -30 205 -14 41 -28 91 -32
110 -4 19 -11 40 -15 45 -4 6 -7 43 -8 83 -1 41 -6 80 -13 88 -7 8 -14 38 -16
67 -7 92 -13 113 -57 199 -17 34 -37 63 -44 66 -7 2 -10 -2 -7 -10z"/>
<path d="M7926 8023 c-6 -14 -5 -15 5 -6 7 7 10 15 7 18 -3 3 -9 -2 -12 -12z"/>
<path d="M5284 7984 c-4 -22 -2 -40 5 -47 8 -8 11 1 11 36 0 56 -7 61 -16 11z"/>
<path d="M3150 7888 c0 -7 8 -22 17 -33 14 -18 15 -18 9 -2 -3 10 -6 25 -6 33
0 8 -4 14 -10 14 -5 0 -10 -6 -10 -12z"/>
<path d="M368 7819 c-22 -13 -25 -69 -3 -69 11 0 13 -16 10 -87 -3 -70 -2 -80
5 -48 7 31 13 216 6 215 0 0 -9 -5 -18 -11z"/>
<path d="M341 7704 c0 -11 3 -14 6 -6 3 7 2 16 -1 19 -3 4 -6 -2 -5 -13z"/>
<path d="M5297 7616 c-4 -10 -5 -21 -2 -24 9 -9 17 6 13 25 -3 17 -4 17 -11
-1z"/>
<path d="M2002 7465 c-40 -28 -72 -98 -86 -189 -8 -47 -18 -90 -21 -97 -4 -6
-8 -57 -9 -114 -2 -71 -7 -109 -16 -120 -9 -10 -15 -45 -16 -90 -1 -41 -5 -78
-8 -83 -3 -5 -8 -63 -12 -130 -4 -86 -2 -126 6 -143 10 -19 10 -24 -3 -34 -20
-14 -35 -95 -18 -95 6 0 11 -7 11 -15 0 -8 -6 -15 -14 -15 -9 0 -14 -14 -14
-45 -1 -25 -4 -51 -8 -57 -4 -6 -11 -52 -16 -102 -5 -50 -11 -102 -13 -116 -2
-14 -11 -70 -19 -125 -8 -55 -17 -127 -20 -160 -3 -33 -10 -77 -16 -98 -12
-41 -5 -63 11 -35 5 9 15 23 23 30 7 7 11 19 8 26 -2 6 3 12 12 12 9 0 16 4
16 9 0 10 63 81 73 81 10 0 -5 -74 -17 -85 -12 -10 -10 -45 3 -45 12 0 31 23
31 40 0 22 36 41 65 34 20 -5 26 -1 35 20 5 14 16 26 25 26 8 0 15 5 15 10 0
6 -5 10 -11 10 -15 0 -7 35 9 36 6 1 15 2 19 3 3 0 -4 12 -17 26 -21 22 -48
26 -35 5 3 -5 -2 -27 -11 -50 -15 -36 -18 -39 -29 -23 -13 18 -9 42 9 56 7 5
4 12 -8 22 -18 14 -18 15 -2 15 9 0 15 3 12 8 -2 4 2 16 10 27 12 16 17 17 23
6 7 -10 13 -10 29 -2 11 6 28 8 36 5 11 -4 16 0 16 14 0 11 6 23 13 25 6 3 0
6 -15 6 -15 1 -29 5 -32 10 -6 9 54 75 77 84 21 8 41 67 23 67 -8 0 -19 -7
-26 -15 -19 -23 -41 -19 -36 8 16 86 21 106 33 135 7 17 17 32 22 32 13 0 23
-34 15 -54 -4 -11 -1 -16 10 -16 9 0 16 8 16 18 0 9 3 28 7 41 5 20 3 23 -10
18 -22 -8 -46 21 -26 34 8 5 20 9 27 9 14 0 31 37 41 90 4 20 12 34 20 32 9
-2 11 9 6 43 -5 30 -4 45 4 45 6 0 11 -8 12 -17 0 -15 2 -15 9 2 15 35 12 54
-9 48 -16 -4 -18 0 -13 22 3 16 13 30 24 33 11 3 17 10 14 18 -3 8 -1 14 4 14
6 0 10 7 10 15 0 8 4 15 9 15 4 0 6 11 3 25 -2 14 1 31 6 38 22 26 26 196 8
286 -9 46 -15 86 -12 89 3 3 1 11 -5 18 -8 9 -6 23 8 51 24 52 21 102 -13 170
-15 32 -27 68 -25 81 2 22 -13 30 -24 12 -4 -6 -10 -8 -15 -5 -10 6 -45 -11
-69 -33 -12 -12 -17 -11 -30 6 -9 11 -26 23 -38 26 -11 4 -27 13 -33 21 -16
19 -20 19 -48 0z"/>
<path d="M5247 7443 c-6 -31 -3 -90 5 -98 3 -3 8 20 11 52 6 60 -7 97 -16 46z"/>
<path d="M5280 7430 c0 -11 5 -20 10 -20 6 0 10 9 10 20 0 11 -4 20 -10 20 -5
0 -10 -9 -10 -20z"/>
<path d="M3071 7414 c-27 -11 -36 -12 -42 -2 -13 21 -107 -85 -138 -155 -15
-34 -36 -69 -46 -77 -17 -14 -18 -13 -11 13 4 17 2 34 -4 42 -8 10 -6 24 9 56
24 48 21 58 -12 40 -22 -12 -23 -17 -25 -159 -1 -81 -6 -212 -11 -292 -5 -80
-7 -158 -5 -175 2 -16 11 -88 20 -160 16 -132 31 -212 44 -230 17 -24 26 -195
16 -302 -3 -24 0 -43 5 -43 5 0 10 15 10 33 3 58 4 62 16 82 15 26 28 13 13
-14 -7 -14 -7 -21 0 -21 5 0 10 -6 10 -14 0 -8 8 -17 18 -19 14 -4 14 -6 -5
-12 -28 -9 -28 -11 -5 -40 18 -22 19 -22 30 -4 7 10 12 26 12 34 0 8 16 32 35
52 25 27 31 39 22 45 -14 9 8 28 34 28 10 0 19 16 27 51 16 66 82 152 158 204
20 14 30 25 21 25 -9 0 -19 -5 -22 -10 -12 -19 -26 0 -15 20 8 16 15 18 35 10
18 -7 25 -6 26 3 1 6 3 23 5 37 2 14 5 39 8 55 2 17 9 48 15 70 10 38 17 138
11 160 -1 6 -2 27 -1 49 1 33 4 38 20 33 27 -7 36 35 17 75 -13 24 -13 39 -4
81 6 28 8 76 5 106 -6 55 -37 133 -57 146 -5 3 -10 16 -10 29 0 25 -18 43 -63
66 -18 9 -30 25 -34 42 -3 18 -16 33 -36 43 -37 18 -52 18 -96 -1z"/>
<path d="M2900 7371 c-15 -29 -12 -39 5 -17 9 12 15 15 15 7 0 -11 3 -11 15
-1 21 17 19 30 -5 30 -10 0 -24 -9 -30 -19z"/>
<path d="M5233 7268 c-13 -29 -14 -108 -1 -108 4 0 8 -7 8 -15 0 -8 -4 -15
-10 -15 -6 0 -10 -28 -10 -65 0 -37 4 -65 10 -65 6 0 10 14 10 30 0 19 5 30
14 30 8 0 16 6 19 14 8 20 -3 86 -14 86 -4 0 -9 30 -11 68 -3 61 -4 65 -15 40z"/>
<path d="M5136 7111 c-4 -7 -5 -15 -2 -18 9 -9 19 4 14 18 -4 11 -6 11 -12 0z"/>
<path d="M3380 6973 c4 -18 16 -43 24 -55 9 -12 16 -31 16 -41 0 -16 2 -17 15
-3 17 17 11 41 -17 71 -10 11 -25 29 -33 40 -13 18 -14 17 -5 -12z"/>
<path d="M5210 6898 c0 -31 -4 -58 -9 -60 -5 -2 -4 -14 1 -28 l10 -25 8 22
c14 35 15 122 2 135 -9 9 -12 -1 -12 -44z"/>
<path d="M302 6910 c0 -19 2 -27 5 -17 2 9 2 25 0 35 -3 9 -5 1 -5 -18z"/>
<path d="M10425 6840 c-3 -5 -1 -10 4 -10 6 0 11 5 11 10 0 6 -2 10 -4 10 -3
0 -8 -4 -11 -10z"/>
<path d="M341 6814 c0 -11 3 -14 6 -6 3 7 2 16 -1 19 -3 4 -6 -2 -5 -13z"/>
<path d="M4046 6774 c-19 -18 -21 -35 -4 -31 8 1 11 -12 9 -39 -2 -39 12 -65
27 -49 4 3 7 35 7 71 0 67 -9 78 -39 48z"/>
<path d="M5107 6766 c-3 -8 -2 -27 3 -43 8 -26 8 -25 9 15 1 43 -3 52 -12 28z"/>
<path d="M5082 6700 c0 -14 2 -19 5 -12 2 6 2 18 0 25 -3 6 -5 1 -5 -13z"/>
<path d="M4022 6690 c0 -14 2 -19 5 -12 2 6 2 18 0 25 -3 6 -5 1 -5 -13z"/>
<path d="M4047 6614 c-10 -11 -9 -54 2 -54 6 0 12 4 15 9 8 12 -8 54 -17 45z"/>
<path d="M5102 6600 c0 -14 2 -19 5 -12 2 6 2 18 0 25 -3 6 -5 1 -5 -13z"/>
<path d="M10454 6579 c-3 -6 -1 -16 5 -22 8 -8 11 -5 11 11 0 24 -5 28 -16 11z"/>
<path d="M4035 6530 c-3 -5 -1 -10 4 -10 6 0 11 5 11 10 0 6 -2 10 -4 10 -3 0
-8 -4 -11 -10z"/>
<path d="M10466 6495 c-3 -9 -6 -22 -5 -28 0 -7 5 -1 10 12 5 13 8 26 5 28 -2
2 -6 -3 -10 -12z"/>
<path d="M5061 6464 c0 -11 3 -14 6 -6 3 7 2 16 -1 19 -3 4 -6 -2 -5 -13z"/>
<path d="M5200 6269 c0 -11 -4 -18 -8 -15 -4 3 -9 -12 -9 -32 l-1 -36 19 24
c20 26 26 80 9 80 -5 0 -10 -9 -10 -21z"/>
<path d="M2125 6170 c-3 -5 -1 -10 4 -10 6 0 11 5 11 10 0 6 -2 10 -4 10 -3 0
-8 -4 -11 -10z"/>
<path d="M3982 6130 c0 -19 2 -27 5 -17 2 9 2 25 0 35 -3 9 -5 1 -5 -18z"/>
<path d="M5042 6125 c0 -16 2 -22 5 -12 2 9 2 23 0 30 -3 6 -5 -1 -5 -18z"/>
<path d="M10092 6100 c0 -14 2 -19 5 -12 2 6 2 18 0 25 -3 6 -5 1 -5 -13z"/>
<path d="M10552 6025 c0 -16 2 -22 5 -12 2 9 2 23 0 30 -3 6 -5 -1 -5 -18z"/>
<path d="M3015 6032 c-11 -11 -4 -20 12 -18 22 3 29 23 8 23 -8 0 -17 -3 -20
-5z"/>
<path d="M5154 5975 c-7 -18 -9 -47 -4 -70 10 -55 22 -24 18 46 -3 53 -3 53
-14 24z"/>
<path d="M2995 5951 c-4 -7 -3 -16 2 -20 6 -3 13 -13 16 -21 5 -13 5 -13 6 0
0 8 -4 24 -8 34 -6 15 -10 16 -16 7z"/>
<path d="M2877 5943 c-10 -9 -9 -23 2 -23 5 0 11 7 15 15 5 15 -5 20 -17 8z"/>
<path d="M10586 5835 c4 -8 8 -15 10 -15 2 0 4 7 4 15 0 8 -4 15 -10 15 -5 0
-7 -7 -4 -15z"/>
<path d="M10560 5791 c0 -12 5 -21 10 -21 6 0 10 6 10 14 0 8 -4 18 -10 21 -5
3 -10 -3 -10 -14z"/>
<path d="M5130 5742 c0 -11 -3 -41 -6 -68 -5 -33 -3 -46 4 -39 13 13 22 114
11 121 -5 3 -9 -3 -9 -14z"/>
<path d="M10583 5677 c1 -20 5 -37 10 -37 10 0 9 42 -3 60 -6 10 -8 3 -7 -23z"/>
<path d="M1960 5650 c0 -5 7 -10 15 -10 8 0 15 5 15 10 0 6 -7 10 -15 10 -8 0
-15 -4 -15 -10z"/>
<path d="M3946 5634 c-4 -9 -4 -19 -1 -22 2 -3 7 3 11 12 4 9 4 19 1 22 -2 3
-7 -3 -11 -12z"/>
<path d="M1820 5590 c0 -11 -5 -20 -11 -20 -6 0 -8 -8 -4 -19 3 -10 1 -30 -4
-45 -10 -25 2 -39 12 -13 4 10 6 10 6 0 1 -17 28 -16 34 1 3 7 0 19 -6 25 -6
6 -8 12 -4 12 4 1 10 2 15 3 15 3 56 36 50 41 -3 4 -20 7 -37 7 -19 1 -31 6
-31 15 0 7 -4 13 -10 13 -5 0 -10 -9 -10 -20z"/>
<path d="M3936 5565 c-9 -26 -7 -32 5 -12 6 10 9 21 6 23 -2 3 -7 -2 -11 -11z"/>
<path d="M1696 5553 c-6 -14 -5 -15 5 -6 7 7 10 15 7 18 -3 3 -9 -2 -12 -12z"/>
<path d="M1915 5530 c4 -6 11 -8 16 -5 14 9 11 15 -7 15 -8 0 -12 -5 -9 -10z"/>
<path d="M1876 5491 c-4 -7 -5 -15 -2 -18 9 -9 19 4 14 18 -4 11 -6 11 -12 0z"/>
<path d="M1784 5435 c-4 -9 -2 -21 5 -28 13 -13 18 -9 23 17 4 24 -20 33 -28
11z"/>
<path d="M6540 5299 c0 -13 5 -31 10 -39 7 -11 9 -6 7 18 -4 39 -17 55 -17 21z"/>
<path d="M10570 5280 c0 -5 5 -10 11 -10 5 0 7 5 4 10 -3 6 -8 10 -11 10 -2 0
-4 -4 -4 -10z"/>
<path d="M10581 5194 c0 -11 3 -14 6 -6 3 7 2 16 -1 19 -3 4 -6 -2 -5 -13z"/>
<path d="M7410 5103 c0 -13 5 -23 10 -23 13 0 13 11 0 30 -8 12 -10 11 -10 -7z"/>
<path d="M10570 5111 c0 -5 7 -12 16 -15 22 -9 24 -8 24 9 0 8 -9 15 -20 15
-11 0 -20 -4 -20 -9z"/>
<path d="M10600 5014 c-10 -25 -13 -80 -3 -56 2 6 13 12 22 12 13 0 18 9 19
35 2 42 -23 49 -38 9z"/>
<path d="M7427 5014 c-4 -4 -7 -14 -7 -23 0 -11 3 -12 11 -4 6 6 10 16 7 23
-2 6 -7 8 -11 4z"/>
<path d="M10548 4970 c-12 -39 -10 -76 3 -63 6 6 9 28 7 49 -3 35 -4 36 -10
14z"/>
<path d="M10498 4944 c-4 -34 3 -50 16 -37 9 10 7 61 -3 67 -5 3 -11 -10 -13
-30z"/>
<path d="M10601 4930 c-1 -8 -4 -26 -7 -40 -5 -22 -4 -23 6 -7 6 10 9 28 7 40
-2 12 -5 15 -6 7z"/>
<path d="M10500 4870 c0 -5 5 -10 10 -10 6 0 10 5 10 10 0 6 -4 10 -10 10 -5
0 -10 -4 -10 -10z"/>
<path d="M10541 4850 c-3 -22 -5 -43 -10 -97 -1 -7 -9 -13 -18 -13 -17 -1 -17
-1 0 -14 15 -12 16 -14 2 -20 -8 -3 -15 -13 -15 -22 0 -9 -6 -14 -13 -11 -7 3
-19 -3 -25 -13 -16 -27 -14 -147 5 -205 15 -47 17 -48 27 -26 8 18 8 25 -1 28
-15 5 -5 83 13 104 8 9 12 18 9 21 -3 3 6 17 20 32 14 15 25 31 25 37 0 5 5 9
10 9 6 0 10 -5 10 -11 0 -5 5 -7 10 -4 15 9 12 35 -4 35 -16 0 -35 65 -39 140
-2 30 -5 44 -6 30z"/>
<path d="M10605 4840 c-3 -5 -1 -10 4 -10 6 0 11 5 11 10 0 6 -2 10 -4 10 -3
0 -8 -4 -11 -10z"/>
<path d="M10545 4580 c-3 -5 -4 -10 -1 -10 3 0 1 -12 -5 -27 -6 -18 -7 -24 0
-18 11 12 26 65 18 65 -3 0 -9 -4 -12 -10z"/>
<path d="M9377 4516 c-4 -10 -7 -25 -6 -34 0 -11 4 -9 10 7 5 13 8 29 6 35 -2
5 -6 2 -10 -8z"/>
<path d="M10570 4480 c0 -11 -7 -20 -15 -20 -15 0 -35 -29 -35 -50 0 -7 7 -10
15 -6 8 3 15 1 15 -5 0 -27 25 1 27 31 2 18 7 38 13 45 5 6 7 15 3 18 -12 13
-23 7 -23 -13z"/>
<path d="M2567 4433 c-5 -4 -167 -8 -360 -8 l-352 0 -66 -32 c-96 -47 -162
-120 -190 -212 -16 -54 -18 -76 -10 -84 16 -16 14 -78 -4 -120 -31 -75 -18
-148 53 -296 22 -47 24 -54 10 -62 -12 -7 -14 -20 -10 -54 3 -28 0 -56 -8 -69
-10 -19 -9 -28 3 -47 8 -13 17 -36 21 -50 6 -26 10 -28 121 -61 17 -4 85 -17
152 -28 67 -11 150 -29 184 -41 86 -30 156 -30 269 -2 146 36 440 51 652 33
199 -17 347 -18 583 -5 99 6 355 8 570 6 341 -3 388 -2 377 11 -6 8 -9 18 -5
21 12 13 60 7 73 -8 19 -23 132 -21 147 3 9 15 31 21 105 27 112 11 239 8 252
-5 7 -7 -4 -10 -27 -10 -20 0 -37 -4 -37 -10 0 -6 35 -10 85 -10 69 0 85 3 85
15 0 10 10 15 30 15 22 0 28 -4 24 -15 -5 -13 9 -15 95 -15 97 0 132 12 75 26
-60 15 5 27 187 35 106 5 195 12 198 16 3 5 56 8 116 9 61 0 157 4 215 8 64 5
122 4 148 -2 38 -9 42 -8 42 9 0 11 7 22 15 25 17 7 49 -21 40 -36 -8 -13 134
-13 190 0 22 5 72 16 110 25 42 9 76 23 85 35 11 13 23 17 43 13 15 -3 30 -9
33 -14 3 -5 22 -9 42 -9 33 -1 35 -2 20 -14 -24 -18 -23 -23 5 -20 12 1 31 3
42 3 16 1 17 3 6 10 -13 8 -13 12 0 27 8 9 28 25 44 36 l30 18 -26 0 c-18 0
-28 6 -32 19 -4 18 0 20 55 16 57 -4 108 9 108 27 0 4 -12 8 -27 8 -19 0 -24
3 -16 11 5 5 42 12 81 15 39 2 83 9 98 14 31 12 39 7 39 -23 0 -15 7 -23 22
-25 13 -2 20 -8 17 -16 -4 -10 7 -11 48 -5 29 4 61 8 72 8 12 1 16 6 12 16 -3
10 1 15 14 15 10 0 22 5 25 10 6 9 -72 8 -140 -2 -12 -2 -20 3 -20 12 0 16 37
27 102 29 40 1 72 20 39 22 -25 2 -30 4 -43 12 -7 5 -17 6 -21 3 -16 -10 -142
-28 -281 -41 -70 -7 -83 -6 -79 6 3 8 21 15 46 17 31 2 40 7 35 18 -3 8 1 14
11 14 9 0 16 -4 16 -8 0 -5 14 -9 30 -10 17 0 28 3 25 8 -10 16 13 21 137 32
68 6 130 14 138 19 13 7 12 8 -2 9 -10 0 -18 5 -18 10 0 6 5 10 11 10 6 0 8 9
4 20 -7 23 20 39 37 22 6 -6 16 -9 22 -7 6 2 24 6 40 10 39 8 20 27 -29 28
-36 1 -37 2 -32 33 6 35 -9 49 -34 34 -7 -5 -16 -5 -19 0 -3 5 -33 10 -68 12
-50 2 -62 6 -62 20 0 9 10 18 23 21 l22 4 -23 2 c-28 1 -39 27 -23 52 7 12 7
19 1 19 -6 0 -15 11 -20 25 -8 21 -13 24 -29 16 -14 -8 -22 -6 -35 8 -9 10
-13 21 -9 26 5 4 -2 4 -14 1 -17 -6 -23 -3 -23 8 0 9 -5 16 -10 16 -7 0 -7 6
0 19 14 27 13 31 -10 31 -11 0 -23 7 -26 15 -4 8 -12 15 -20 15 -8 0 -11 -6
-8 -15 4 -11 0 -15 -16 -15 -18 0 -21 5 -19 28 2 15 -1 33 -5 41 -6 9 -3 18 7
26 22 16 21 25 -1 25 -10 0 -27 6 -37 14 -18 13 -17 15 20 25 22 6 46 11 53
11 6 0 12 5 12 10 0 6 -9 10 -21 10 -11 0 -17 5 -14 10 4 6 -6 10 -22 10 -15
1 -56 3 -91 6 -42 4 -68 2 -77 -6 -10 -8 -32 -10 -69 -6 -34 5 -56 3 -61 -3
-3 -7 -43 -11 -93 -11 -48 0 -105 -5 -127 -10 -22 -5 -121 -13 -220 -16 -133
-5 -186 -11 -203 -22 -14 -9 -54 -16 -105 -18 -45 -1 -87 -4 -92 -5 -6 -2 -19
2 -31 8 -30 17 -81 17 -144 -2 -89 -25 -247 -37 -351 -25 -50 6 -95 13 -99 15
-4 3 -46 0 -93 -6 -71 -10 -90 -9 -115 3 -18 10 -35 12 -45 7 -18 -10 -175 5
-227 21 -19 6 -105 16 -190 21 -85 5 -193 12 -240 15 -76 6 -238 15 -477 27
-51 3 -103 -1 -140 -9 -127 -31 -419 -17 -653 32 -84 18 -639 32 -653 17z"/>
<path d="M10491 4395 c-9 -33 -9 -87 0 -78 6 6 9 28 6 49 -2 22 -5 35 -6 29z"/>
<path d="M10521 4371 c-11 -7 -12 -15 -4 -33 10 -22 10 -22 15 10 2 17 4 32 4
32 -1 0 -7 -4 -15 -9z"/>
<path d="M10530 4308 c-22 -51 -47 -77 -38 -40 4 14 1 22 -6 22 -7 0 -11 -12
-10 -27 1 -16 2 -49 3 -75 0 -27 6 -48 12 -48 5 0 9 8 8 18 -1 9 1 25 4 35 4
9 9 24 12 33 3 9 11 14 20 10 10 -3 15 1 15 14 0 10 5 22 10 25 13 8 13 45 0
65 -7 11 -14 4 -30 -32z"/>
<path d="M10523 4159 c-7 -9 -9 -20 -3 -29 12 -19 22 -7 18 21 -2 19 -5 20
-15 8z"/>
<path d="M10483 4085 c0 -8 4 -15 9 -15 4 0 8 4 8 9 0 6 -4 12 -8 15 -5 3 -9
-1 -9 -9z"/>
<path d="M10376 4082 c-3 -5 1 -9 9 -9 8 0 12 4 9 9 -3 4 -7 8 -9 8 -2 0 -6
-4 -9 -8z"/>
<path d="M10500 4039 c0 -5 5 -7 10 -4 6 3 10 8 10 11 0 2 -4 4 -10 4 -5 0
-10 -5 -10 -11z"/>
<path d="M7586 3751 c-3 -5 10 -9 29 -8 19 1 35 5 35 9 0 11 -57 10 -64 -1z"/>
<path d="M7668 3753 c7 -3 16 -2 19 1 4 3 -2 6 -13 5 -11 0 -14 -3 -6 -6z"/>
<path d="M7584 3668 c-3 -4 9 -8 26 -8 17 0 29 4 25 9 -6 11 -44 10 -51 -1z"/>
<path d="M7700 3660 c0 -6 7 -10 15 -10 8 0 15 2 15 4 0 2 -7 6 -15 10 -8 3
-15 1 -15 -4z"/>
<path d="M7598 3614 c6 -3 10 -10 6 -15 -3 -5 4 -9 16 -9 30 0 20 24 -11 27
-13 1 -18 0 -11 -3z"/>
<path d="M7315 3591 c-6 -11 9 -23 19 -14 9 9 7 23 -3 23 -6 0 -12 -4 -16 -9z"/>
<path d="M7270 3581 c0 -17 18 -21 24 -6 3 9 0 15 -9 15 -8 0 -15 -4 -15 -9z"/>
<path d="M7203 3539 c-14 -14 -6 -39 13 -39 15 0 18 18 6 37 -6 10 -11 10 -19
2z"/>
<path d="M7314 3530 c0 -11 4 -20 9 -20 4 0 11 0 16 0 6 0 9 9 8 20 -2 27 -35
27 -33 0z"/>
<path d="M7101 3507 c-11 -28 -8 -31 22 -23 34 8 42 41 10 44 -16 1 -26 -5
-32 -21z"/>
<path d="M7370 3520 c-9 -6 -10 -10 -3 -10 6 0 15 5 18 10 8 12 4 12 -15 0z"/>
<path d="M7260 3510 c0 -5 5 -10 10 -10 6 0 10 5 10 10 0 6 -4 10 -10 10 -5 0
-10 -4 -10 -10z"/>
<path d="M5892 3360 c-57 -4 -106 -10 -109 -14 -8 -8 137 -8 216 0 39 5 57 10
49 15 -7 5 -22 8 -33 7 -11 0 -66 -4 -123 -8z"/>
<path d="M5623 3333 c15 -2 37 -2 50 0 12 2 0 4 -28 4 -27 0 -38 -2 -22 -4z"/>
<path d="M6955 2699 c-80 -7 -142 -20 -164 -33 -17 -11 -182 -36 -192 -30 -5
3 -9 -2 -9 -11 0 -14 -13 -16 -96 -13 -52 3 -98 0 -101 -5 -3 -5 -24 -6 -47
-2 -22 4 -90 7 -150 7 -60 0 -120 4 -133 9 -14 5 -33 5 -48 -1 -18 -7 -28 -5
-39 5 -10 11 -17 12 -22 4 -4 -7 -20 -8 -43 -4 -241 46 -1001 33 -1001 -16 0
-6 -6 -7 -16 -1 -18 10 -51 5 -71 -10 -7 -5 -17 -7 -23 -3 -6 3 -10 -3 -10
-14 0 -17 -6 -21 -35 -21 -31 0 -39 7 -37 31 1 10 -96 -7 -111 -19 -7 -7 -16
-9 -19 -6 -12 11 -61 14 -91 5 -18 -6 -58 -13 -90 -16 -38 -4 -55 -10 -50 -17
4 -7 1 -9 -9 -5 -9 3 -20 1 -26 -5 -6 -6 -12 -6 -16 1 -11 17 -53 13 -53 -5 0
-11 7 -14 24 -11 13 2 23 0 23 -4 0 -12 -57 -11 -65 1 -10 17 -102 12 -109 -5
-6 -16 -32 -21 -38 -6 -2 4 -28 5 -58 0 -88 -12 -203 -10 -253 5 -26 8 -47 12
-47 9 0 -3 -6 0 -13 6 -16 13 -31 3 -18 -13 4 -6 11 -26 14 -43 5 -25 3 -33
-8 -33 -18 0 -19 -16 -2 -66 8 -22 12 -57 10 -79 -2 -22 -4 -44 -4 -50 -3 -39
11 -129 22 -137 11 -7 11 -11 2 -15 -15 -5 -18 -49 -4 -57 5 -3 11 -15 14 -26
3 -11 2 -18 -2 -15 -13 7 1 -49 13 -57 14 -10 -13 -30 -31 -23 -17 6 -16 -20
1 -34 8 -7 12 -21 9 -32 -4 -15 2 -22 26 -32 17 -6 31 -15 31 -20 0 -5 -7 -6
-16 -3 -12 5 -15 2 -10 -11 4 -9 1 -20 -6 -24 -8 -5 -3 -10 15 -14 32 -8 33
-15 7 -38 -28 -24 -25 -45 10 -65 32 -18 39 -32 15 -32 -8 0 -15 -7 -15 -15 0
-8 4 -15 9 -15 5 0 11 -9 14 -20 3 -11 13 -20 22 -20 22 0 54 -32 37 -38 -6
-2 -12 -10 -12 -17 0 -7 -6 -16 -12 -18 -19 -8 9 -25 54 -32 29 -5 38 -12 38
-26 0 -11 7 -22 15 -25 8 -4 12 -10 9 -15 -3 -5 2 -6 10 -3 10 4 16 1 16 -9 0
-27 58 -38 180 -32 63 3 147 11 187 17 84 12 123 6 123 -21 0 -10 7 -22 16
-25 8 -3 12 -10 9 -16 -3 -5 0 -10 8 -10 19 0 29 -24 15 -38 -11 -11 15 -46
41 -54 11 -3 11 -7 -3 -20 -15 -16 -15 -18 4 -28 22 -12 27 -36 8 -43 -10 -3
-8 -10 5 -25 12 -13 15 -22 8 -27 -8 -4 -8 -12 0 -27 10 -18 9 -20 -5 -15 -26
10 -18 -9 9 -21 34 -16 32 -34 -2 -26 l-28 7 22 -22 c12 -11 27 -21 33 -21 5
0 10 -6 10 -14 0 -7 9 -16 21 -19 12 -3 18 -10 15 -15 -3 -6 9 -15 27 -22 28
-10 30 -13 16 -23 -17 -13 -14 -33 7 -54 8 -8 15 -9 19 -4 7 12 35 3 35 -10 0
-5 -15 -9 -34 -9 -27 0 -34 -4 -38 -23 -9 -55 0 -65 60 -72 31 -4 65 -9 75
-11 9 -3 17 -1 17 5 0 6 -11 11 -25 11 -14 0 -25 5 -25 10 0 6 7 10 15 10 8 0
15 8 16 18 0 13 3 12 12 -6 10 -22 15 -23 96 -21 47 2 91 7 98 12 7 5 18 5 25
1 7 -5 27 -9 45 -10 23 0 33 4 36 18 4 12 14 18 35 18 16 0 35 7 42 15 8 9 21
13 33 9 10 -3 29 -2 41 4 11 5 39 15 61 22 22 7 72 27 110 45 39 18 79 35 90
38 11 3 58 20 105 38 47 17 119 42 160 54 185 56 472 157 550 193 47 22 130
56 185 77 267 101 591 241 652 282 57 38 193 167 193 184 0 6 23 32 52 60 28
27 46 49 40 49 -6 0 -11 27 -11 73 0 39 0 82 -1 94 0 11 -15 35 -32 52 -30 29
-31 32 -14 49 15 17 15 25 4 66 -9 35 -18 48 -35 52 -17 5 -23 13 -23 34 0 15
-9 35 -20 45 -11 10 -20 29 -20 43 0 14 -7 34 -17 44 -13 14 -13 18 -2 18 10
1 9 4 -3 11 -10 5 -18 21 -18 34 0 17 -6 25 -17 25 -14 0 -15 2 -4 9 9 6 11
16 5 32 -13 39 -13 49 0 49 8 0 12 12 11 30 -1 17 2 33 7 36 12 8 10 24 -4 24
-7 0 -22 14 -33 30 -13 20 -28 30 -45 30 -14 0 -36 7 -49 16 -22 16 -22 17 -5
27 17 10 17 11 -1 18 -24 9 -102 9 -210 -2z m-2165 -2048 c0 -5 -9 -7 -20 -4
-11 3 -20 7 -20 9 0 2 9 4 20 4 11 0 20 -4 20 -9z"/>
<path d="M2771 1031 c-10 -18 -9 -21 9 -21 22 0 25 7 11 29 -7 11 -11 9 -20
-8z"/>
<path d="M2886 835 c4 -8 8 -15 10 -15 2 0 4 7 4 15 0 8 -4 15 -10 15 -5 0 -7
-7 -4 -15z"/>
<path d="M2836 825 c-4 -13 -2 -14 14 -5 23 13 26 20 6 20 -8 0 -16 -7 -20
-15z"/>
<path d="M2927 763 c-4 -3 -7 -11 -7 -17 0 -6 5 -5 12 2 6 6 9 14 7 17 -3 3
-9 2 -12 -2z"/>
<path d="M2945 699 c-10 -15 1 -23 20 -15 9 3 13 10 10 16 -8 13 -22 13 -30
-1z"/>
<path d="M4640 700 c0 -5 5 -10 11 -10 5 0 7 5 4 10 -3 6 -8 10 -11 10 -2 0
-4 -4 -4 -10z"/>
<path d="M2910 410 c-13 -8 -12 -10 3 -10 9 0 17 5 17 10 0 12 -1 12 -20 0z"/>
</g>
</svg>
