<?xml version="1.0" encoding="UTF-8" standalone="no"?>
<!-- Created with Inkscape (http://www.inkscape.org/) -->

<svg
   width="210mm"
   height="297mm"
   viewBox="0 0 210 297"
   version="1.1"
   id="svg5"
   xml:space="preserve"
   inkscape:version="1.2.2 (b0a8486, 2022-12-01)"
   sodipodi:docname="Chairred.svg"
   xmlns:inkscape="http://www.inkscape.org/namespaces/inkscape"
   xmlns:sodipodi="http://sodipodi.sourceforge.net/DTD/sodipodi-0.dtd"
   xmlns="http://www.w3.org/2000/svg"
   xmlns:svg="http://www.w3.org/2000/svg"><sodipodi:namedview
     id="namedview7"
     pagecolor="#ffffff"
     bordercolor="#000000"
     borderopacity="0.25"
     inkscape:showpageshadow="2"
     inkscape:pageopacity="0.0"
     inkscape:pagecheckerboard="0"
     inkscape:deskcolor="#d1d1d1"
     inkscape:document-units="mm"
     showgrid="false"
     inkscape:zoom="0.78127806"
     inkscape:cx="503.66191"
     inkscape:cy="450.54382"
     inkscape:window-width="950"
     inkscape:window-height="1080"
     inkscape:window-x="970"
     inkscape:window-y="0"
     inkscape:window-maximized="0"
     inkscape:current-layer="layer1" /><defs
     id="defs2" /><g
     inkscape:label="Ebene 1"
     inkscape:groupmode="layer"
     id="layer1"><g
       id="g4024"
       transform="matrix(1.41479,0,0,1.3847615,-36.246258,-51.555154)"><path
         style="fill:#95999f;stroke-width:0.264583"
         d="m 123.11013,172.9142 c -0.3291,-0.41964 -0.31975,-0.429 0.0999,-0.0999 0.44073,0.34565 0.58089,0.56292 0.36312,0.56292 -0.0549,0 -0.2633,-0.20836 -0.46302,-0.46302 z m -0.63858,-0.8775 c -0.0959,-0.1552 -0.11766,-0.33893 -0.0483,-0.40828 0.0694,-0.0694 0.1966,0.0576 0.28277,0.28218 0.1789,0.46623 0.0264,0.54823 -0.23447,0.1261 z m 2.25983,-0.35096 c 0,-0.0572 0.18478,-0.17489 0.41062,-0.26156 0.23546,-0.0904 0.34166,-0.046 0.24897,0.10399 -0.15538,0.25141 -0.65959,0.37186 -0.65959,0.15757 z m -0.77286,-1.37327 c 0.0127,-0.30823 0.0754,-0.37092 0.15985,-0.15986 0.0764,0.191 0.067,0.4192 -0.0209,0.50712 -0.0879,0.0879 -0.15046,-0.0684 -0.13897,-0.34726 z m 1.66325,-2.35921 c 7.9e-4,-1.45521 0.0451,-2.01676 0.0987,-1.2479 0.0536,0.76886 0.0531,1.95949 -0.001,2.64583 -0.0542,0.68635 -0.0981,0.0573 -0.0974,-1.39793 z m -3.73942,0.66146 c 0,-0.50932 0.0545,-0.71768 0.121,-0.46302 0.0666,0.25466 0.0666,0.67138 0,0.92604 -0.0665,0.25466 -0.121,0.0463 -0.121,-0.46302 z m -61.775444,-0.17523 c 0.181901,-0.0734 0.479557,-0.0734 0.661458,0 0.181901,0.0734 0.03307,0.13346 -0.330729,0.13346 -0.363802,0 -0.51263,-0.0601 -0.330729,-0.13346 z m 67.635904,-4.45498 c 5.3e-4,-1.74625 0.0433,-2.42619 0.0951,-1.51098 0.0518,0.91521 0.0514,2.34396 -10e-4,3.175 -0.0523,0.83104 -0.0947,0.0822 -0.0942,-1.66402 z m -3.99048,1.45521 c 0,-0.80036 0.0496,-1.12778 0.11023,-0.7276 0.0606,0.40018 0.0606,1.05502 0,1.45521 -0.0606,0.40018 -0.11023,0.0728 -0.11023,-0.72761 z M 57.314215,164.2491 c 0.0054,-0.43657 0.06469,-0.58313 0.131774,-0.3257 0.06708,0.25743 0.06267,0.61462 -0.0098,0.79375 -0.07248,0.17913 -0.127363,-0.0315 -0.121971,-0.46805 z m 64.321455,-0.92605 c 0,-0.80036 0.0496,-1.12778 0.11022,-0.7276 0.0606,0.40018 0.0606,1.05503 0,1.45521 -0.0606,0.40018 -0.11022,0.0728 -0.11022,-0.72761 z m -62.431997,-1.32291 c 0,-1.09141 0.0467,-1.53789 0.103786,-0.99219 0.05708,0.5457 0.05708,1.43867 0,1.98438 -0.05708,0.5457 -0.103786,0.0992 -0.103786,-0.99219 z m 1.864137,-1.71979 c 5.29e-4,-1.74625 0.04334,-2.4262 0.09516,-1.51099 0.05181,0.91521 0.05139,2.34396 -9.52e-4,3.175 -0.05233,0.83104 -0.09473,0.0822 -0.0942,-1.66401 z m 62.41994,0.13229 c 0,-0.80037 0.0496,-1.12779 0.11022,-0.72761 0.0606,0.40019 0.0606,1.05503 0,1.45521 -0.0606,0.40018 -0.11022,0.0728 -0.11022,-0.7276 z M 57.080038,159.4866 c 0.0015,-0.87313 0.05088,-1.19842 0.109766,-0.72287 0.05889,0.47555 0.05767,1.18993 -0.0027,1.5875 -0.06037,0.39758 -0.108551,0.008 -0.107066,-0.86463 z m 64.287432,-1.05834 c 0.002,-0.7276 0.0534,-0.99385 0.11419,-0.59167 0.0608,0.40218 0.0592,0.99749 -0.004,1.32292 -0.0628,0.32542 -0.11256,-0.004 -0.11057,-0.73125 z m 21.55402,0.75082 c 0.1819,-0.0734 0.47955,-0.0734 0.66145,0 0.18191,0.0734 0.0331,0.13345 -0.33072,0.13345 -0.36381,0 -0.51263,-0.0601 -0.33073,-0.13345 z m -79.736062,-3.26436 c 0,-1.81901 0.04227,-2.56315 0.09394,-1.65364 0.05166,0.9095 0.05166,2.39778 0,3.30729 -0.05166,0.9095 -0.09394,0.16536 -0.09394,-1.65365 z m 62.702172,0.52917 c 0,-1.52797 0.0437,-2.15305 0.0972,-1.38906 0.0534,0.76398 0.0534,2.01414 0,2.77812 -0.0534,0.76399 -0.0972,0.13891 -0.0972,-1.38906 z m 18.18041,2.57969 c 0.0606,-0.0364 0.46743,-0.36381 0.904,-0.72761 l 0.79375,-0.66146 -0.64143,0.72761 c -0.35279,0.40018 -0.75959,0.7276 -0.904,0.7276 -0.14441,0 -0.21295,-0.0298 -0.15232,-0.0661 z m -2.70163,-0.66146 c -0.3291,-0.41965 -0.31975,-0.42901 0.0999,-0.0999 0.44073,0.34565 0.58089,0.56292 0.36312,0.56292 -0.0549,0 -0.2633,-0.20836 -0.46302,-0.46302 z m -82.436959,-1.91823 c 0,-0.80037 0.0496,-1.12779 0.110223,-0.72761 0.06062,0.40019 0.06062,1.05503 0,1.45521 -0.06062,0.40018 -0.110223,0.0728 -0.110223,-0.7276 z m 64.293749,-1.05834 c 0,-0.80036 0.0496,-1.12778 0.11022,-0.7276 0.0606,0.40018 0.0606,1.05503 0,1.45521 -0.0606,0.40018 -0.11022,0.0728 -0.11022,-0.72761 z m 17.1604,0.52917 c 0,-0.3638 0.0601,-0.51263 0.13346,-0.33073 0.0734,0.1819 0.0734,0.47956 0,0.66146 -0.0734,0.1819 -0.13346,0.0331 -0.13346,-0.33073 z m 3.4592,-0.26458 c 0,-0.50932 0.0545,-0.71768 0.121,-0.46302 0.0665,0.25466 0.0665,0.67138 0,0.92604 -0.0666,0.25466 -0.121,0.0463 -0.121,-0.46302 z m 2.15425,-2.24896 c 5.3e-4,-1.60073 0.0442,-2.22146 0.0968,-1.3794 0.0527,0.84206 0.0522,2.15174 -0.001,2.91041 -0.0533,0.75868 -0.0964,0.0697 -0.0958,-1.53101 z m -89.184265,0.92604 c 0,-0.80036 0.0496,-1.12778 0.110222,-0.7276 0.06062,0.40018 0.06062,1.05502 0,1.45521 -0.06062,0.40018 -0.110222,0.0728 -0.110222,-0.72761 z m 85.432705,0.66146 c 0.005,-0.43656 0.0647,-0.58313 0.13178,-0.32569 0.0671,0.25743 0.0627,0.61461 -0.01,0.79375 -0.0725,0.17913 -0.12736,-0.0315 -0.12197,-0.46806 z m -21.19735,-0.8158 c 0.0127,-0.30822 0.0754,-0.37092 0.15985,-0.15985 0.0764,0.19099 0.067,0.4192 -0.0209,0.50712 -0.0879,0.0879 -0.15045,-0.0684 -0.13896,-0.34727 z m 6.87916,0 c 0.0127,-0.30822 0.0754,-0.37092 0.15985,-0.15985 0.0764,0.19099 0.067,0.4192 -0.0209,0.50712 -0.0879,0.0879 -0.15046,-0.0684 -0.13897,-0.34727 z m 12.23193,-1.56545 c 0.002,-0.87313 0.0509,-1.19841 0.10977,-0.72287 0.0589,0.47555 0.0577,1.18993 -0.003,1.5875 -0.0604,0.39758 -0.10855,0.008 -0.10707,-0.86463 z m -10.73146,1.0154 c 0.1819,-0.0734 0.47955,-0.0734 0.66146,0 0.1819,0.0734 0.0331,0.13345 -0.33073,0.13345 -0.36381,0 -0.51263,-0.0601 -0.33073,-0.13345 z M 58.664838,151.4168 c 0,-0.80036 0.0496,-1.12778 0.110223,-0.7276 0.06062,0.40018 0.06062,1.05503 0,1.45521 -0.06062,0.40018 -0.110223,0.0728 -0.110223,-0.72761 z m 2.655502,-2.11666 c 0,-1.09141 0.0467,-1.53789 0.103785,-0.99219 0.05708,0.5457 0.05708,1.43867 0,1.98438 -0.05708,0.5457 -0.103785,0.0992 -0.103785,-0.99219 z m -4.77578,0.13229 c 0.002,-0.7276 0.05337,-0.99386 0.114185,-0.59167 0.06082,0.40218 0.05919,0.99749 -0.0036,1.32291 -0.0628,0.32542 -0.112561,-0.004 -0.110574,-0.73124 z m 85.4568,0.13229 c 0,-0.65484 0.0516,-0.92273 0.11466,-0.59531 0.0631,0.32742 0.0631,0.8632 0,1.19062 -0.0631,0.32743 -0.11466,0.0595 -0.11466,-0.59531 z m 2.12389,-2.11667 c 0,-0.80036 0.0496,-1.12778 0.11022,-0.7276 0.0606,0.40018 0.0606,1.05503 0,1.45521 -0.0606,0.40018 -0.11022,0.0728 -0.11022,-0.72761 z m -85.783394,-0.15433 c 0.0127,-0.30823 0.07539,-0.37092 0.159853,-0.15986 0.07643,0.191 0.06703,0.4192 -0.02089,0.50712 -0.08792,0.0879 -0.150453,-0.0684 -0.138964,-0.34726 z m 87.862554,-3.54983 c 0,-0.3638 0.0601,-0.51263 0.13345,-0.33073 0.0734,0.1819 0.0734,0.47956 0,0.66146 -0.0734,0.1819 -0.13345,0.0331 -0.13345,-0.33073 z m 9.50411,-48.837674 c 0.0127,-0.308227 0.0754,-0.37092 0.15985,-0.159854 0.0764,0.190995 0.067,0.419198 -0.0209,0.507119 -0.0879,0.08792 -0.15046,-0.06835 -0.13897,-0.347265 z m -8.27258,-31.247235 c 0.19099,-0.07643 0.4192,-0.06703 0.50712,0.02089 0.0879,0.08792 -0.0684,0.150453 -0.34727,0.138964 -0.30822,-0.01269 -0.37092,-0.07539 -0.15985,-0.159852 z"
         id="path4038" /><path
         style="fill:#c98674;stroke-width:0.264583"
         d="m 120.30465,153.6147 c 0.25743,-0.0671 0.61462,-0.0627 0.79375,0.01 0.17913,0.0725 -0.0315,0.12736 -0.46806,0.12197 -0.43656,-0.005 -0.58312,-0.0647 -0.32569,-0.13178 z m 7.66788,0.001 c 0.25466,-0.0666 0.67138,-0.0666 0.92604,0 0.25466,0.0666 0.0463,0.121 -0.46302,0.121 -0.50932,0 -0.71768,-0.0545 -0.46302,-0.121 z m -12.83229,-0.52201 c 0.1819,-0.0734 0.47955,-0.0734 0.66146,0 0.1819,0.0734 0.0331,0.13345 -0.33073,0.13345 -0.36381,0 -0.51263,-0.0601 -0.33073,-0.13345 z m -2.11667,-0.26458 c 0.1819,-0.0734 0.47956,-0.0734 0.66146,0 0.1819,0.0734 0.0331,0.13345 -0.33073,0.13345 -0.3638,0 -0.51263,-0.0601 -0.33073,-0.13345 z m -2.38125,-0.26459 c 0.1819,-0.0734 0.47956,-0.0734 0.66146,0 0.1819,0.0734 0.0331,0.13346 -0.33073,0.13346 -0.3638,0 -0.51263,-0.0601 -0.33073,-0.13346 z M 108.26107,152.3 c 0.1819,-0.0734 0.47956,-0.0734 0.66146,0 0.1819,0.0734 0.0331,0.13345 -0.33073,0.13345 -0.3638,0 -0.51263,-0.06 -0.33073,-0.13345 z m -2.24392,-0.27271 c 0.25743,-0.0671 0.61462,-0.0627 0.79375,0.01 0.17913,0.0725 -0.0315,0.12736 -0.46806,0.12197 -0.43656,-0.005 -0.58312,-0.0647 -0.32569,-0.13178 z m -2.78316,-0.25655 c 0.1819,-0.0734 0.47956,-0.0734 0.66146,0 0.1819,0.0734 0.0331,0.13346 -0.33073,0.13346 -0.36381,0 -0.51263,-0.0601 -0.33073,-0.13346 z m -2.38125,-0.26458 c 0.1819,-0.0734 0.47956,-0.0734 0.66146,0 0.1819,0.0734 0.0331,0.13345 -0.33073,0.13345 -0.3638,0 -0.51263,-0.0601 -0.33073,-0.13345 z m -2.381252,-0.26458 c 0.181901,-0.0734 0.479557,-0.0734 0.661458,0 0.181901,0.0734 0.03307,0.13345 -0.330729,0.13345 -0.363802,0 -0.51263,-0.0601 -0.330729,-0.13345 z m -2.38125,-0.26459 c 0.181901,-0.0734 0.479557,-0.0734 0.661458,0 0.181901,0.0734 0.03307,0.13346 -0.330729,0.13346 -0.363802,0 -0.51263,-0.0601 -0.330729,-0.13346 z m -2.645833,-0.26458 c 0.181901,-0.0734 0.479557,-0.0734 0.661458,0 0.181901,0.0734 0.03307,0.13345 -0.330729,0.13345 -0.363802,0 -0.51263,-0.06 -0.330729,-0.13345 z m -2.10013,-0.27009 c 0.190994,-0.0764 0.419198,-0.067 0.507119,0.0209 0.08792,0.0879 -0.06835,0.15045 -0.347266,0.13897 -0.308226,-0.0127 -0.370919,-0.0754 -0.159853,-0.15986 z m -2.397787,-0.25908 c 0.181901,-0.0734 0.479558,-0.0734 0.661459,0 0.181901,0.0734 0.03307,0.13346 -0.33073,0.13346 -0.363802,0 -0.51263,-0.0601 -0.330729,-0.13346 z m -2.116666,-0.26458 c 0.181901,-0.0734 0.479557,-0.0734 0.661458,0 0.181901,0.0734 0.03307,0.13345 -0.330729,0.13345 -0.363802,0 -0.51263,-0.06 -0.330729,-0.13345 z m -2.38125,-0.26458 c 0.181901,-0.0734 0.479557,-0.0734 0.661458,0 0.181901,0.0734 0.03307,0.13345 -0.330729,0.13345 -0.363802,0 -0.51263,-0.0601 -0.330729,-0.13345 z m -2.38125,-0.26459 c 0.181901,-0.0734 0.479557,-0.0734 0.661458,0 0.181901,0.0734 0.03307,0.13346 -0.330729,0.13346 -0.363802,0 -0.51263,-0.0601 -0.330729,-0.13346 z m -2.645833,-0.26458 c 0.181901,-0.0734 0.479557,-0.0734 0.661458,0 0.181901,0.0734 0.03307,0.13345 -0.330729,0.13345 -0.363802,0 -0.51263,-0.0601 -0.330729,-0.13345 z m -2.77309,-0.27271 c 0.257431,-0.0671 0.614619,-0.0627 0.79375,0.01 0.179131,0.0725 -0.03149,0.12736 -0.468056,0.12197 -0.436563,-0.005 -0.583125,-0.0647 -0.325694,-0.13178 z m -2.910416,-0.26458 c 0.257431,-0.0671 0.614618,-0.0627 0.79375,0.01 0.179131,0.0725 -0.03149,0.12737 -0.468057,0.12197 -0.436562,-0.005 -0.583124,-0.0647 -0.325693,-0.13177 z m -4.367576,-0.26836 c 0.329119,-0.0633 0.805369,-0.0609 1.058333,0.005 0.252965,0.0662 -0.01631,0.11801 -0.598397,0.11507 -0.582083,-0.003 -0.789054,-0.0571 -0.459936,-0.12041 z m -2.913501,-0.25268 c 0.181901,-0.0734 0.479557,-0.0734 0.661458,0 0.181901,0.0734 0.03307,0.13345 -0.330729,0.13345 -0.363802,0 -0.51263,-0.0601 -0.330729,-0.13345 z m -3.423047,-0.53468 c 0.190996,-0.0764 0.419199,-0.067 0.507118,0.0209 0.08792,0.0879 -0.06835,0.15046 -0.347266,0.13897 -0.308224,-0.0127 -0.370919,-0.0754 -0.159852,-0.15985 z m -1.5875,-0.26458 c 0.190996,-0.0764 0.419199,-0.067 0.507118,0.0209 0.08792,0.0879 -0.06835,0.15045 -0.347266,0.13897 -0.308224,-0.0127 -0.370919,-0.0754 -0.159852,-0.15986 z m 81.805861,-0.18374 c 0,-0.055 0.20836,-0.2633 0.46302,-0.46303 0.41964,-0.3291 0.429,-0.31974 0.0999,0.0999 -0.34564,0.44073 -0.56291,0.58089 -0.56291,0.36313 z M 55.641386,145.9267 c -0.329107,-0.41964 -0.319749,-0.429 0.0999,-0.0999 0.440729,0.34565 0.580887,0.56292 0.363126,0.56292 -0.05494,0 -0.263302,-0.20836 -0.463021,-0.46302 z m -0.638589,-0.8775 c -0.09592,-0.1552 -0.117655,-0.33893 -0.0483,-0.40828 0.06936,-0.0694 0.196603,0.0576 0.282774,0.28218 0.178907,0.46623 0.02642,0.54823 -0.234473,0.1261 z m -1.158857,-3.8409 c 0.01269,-0.30823 0.07539,-0.37092 0.159852,-0.15985 0.07643,0.19099 0.06703,0.4192 -0.02089,0.50711 -0.08792,0.0879 -0.150453,-0.0684 -0.138965,-0.34726 z m -0.529167,-2.91042 c 0.0127,-0.30822 0.07539,-0.37092 0.159853,-0.15985 0.07643,0.19099 0.06703,0.4192 -0.02089,0.50712 -0.08792,0.0879 -0.150453,-0.0684 -0.138964,-0.34727 z m -0.264583,-1.5875 c 0.0127,-0.30822 0.07539,-0.37092 0.159853,-0.15985 0.07643,0.19099 0.06703,0.4192 -0.02089,0.50712 -0.08792,0.0879 -0.150452,-0.0684 -0.138964,-0.34727 z m -0.264583,-1.85208 c 0.0127,-0.30823 0.07539,-0.37092 0.159852,-0.15985 0.07643,0.19099 0.06703,0.4192 -0.02089,0.50711 -0.08792,0.0879 -0.150453,-0.0683 -0.138964,-0.34726 z m -0.264584,-1.85208 c 0.0127,-0.30823 0.07539,-0.37092 0.159853,-0.15986 0.07643,0.191 0.06703,0.4192 -0.02089,0.50712 -0.08792,0.0879 -0.150453,-0.0683 -0.138965,-0.34726 z m -0.233891,-2.35921 c 0.0054,-0.43656 0.06469,-0.58312 0.131774,-0.32569 0.06708,0.25743 0.06267,0.61462 -0.0098,0.79375 -0.07248,0.17913 -0.127362,-0.0315 -0.12197,-0.46806 z m -0.0098,-7.54062 c 0,-0.3638 0.06005,-0.51263 0.133452,-0.33073 0.0734,0.1819 0.0734,0.47956 0,0.66146 -0.0734,0.1819 -0.133452,0.0331 -0.133452,-0.33073 z M 152.7981,122.1583 c 0.0127,-0.30823 0.0754,-0.37092 0.15986,-0.15985 0.0764,0.19099 0.067,0.41919 -0.0209,0.50711 -0.0879,0.0879 -0.15045,-0.0684 -0.13897,-0.34726 z M 52.521023,121.09997 c 0.0127,-0.30823 0.07539,-0.37092 0.159853,-0.15986 0.07643,0.191 0.06703,0.4192 -0.02089,0.50712 -0.08792,0.0879 -0.150453,-0.0684 -0.138965,-0.34726 z m 100.806247,-1.85209 c 0.0127,-0.30822 0.0754,-0.37092 0.15985,-0.15985 0.0764,0.19099 0.067,0.4192 -0.0209,0.50712 -0.0879,0.0879 -0.15046,-0.0684 -0.13897,-0.34727 z M 53.05019,118.71872 c 0.0127,-0.30823 0.07539,-0.37092 0.159853,-0.15986 0.07643,0.191 0.06703,0.4192 -0.02089,0.50712 -0.08792,0.0879 -0.150452,-0.0683 -0.138964,-0.34726 z m 100.80625,-2.64584 c 0.0127,-0.30822 0.0754,-0.37092 0.15985,-0.15985 0.0764,0.19099 0.067,0.4192 -0.0209,0.50712 -0.0879,0.0879 -0.15045,-0.0684 -0.13896,-0.34727 z m 0.26458,-1.5875 c 0.0127,-0.30822 0.0754,-0.37092 0.15985,-0.15985 0.0764,0.19099 0.067,0.4192 -0.0209,0.50712 -0.0879,0.0879 -0.15046,-0.0683 -0.13897,-0.34727 z m 0.28547,-2.22691 c 0,-0.3638 0.0601,-0.51263 0.13345,-0.33073 0.0734,0.1819 0.0734,0.47956 0,0.66146 -0.0734,0.1819 -0.13345,0.0331 -0.13345,-0.33073 z m 0.26458,-2.38125 c 0,-0.3638 0.0601,-0.51263 0.13346,-0.33073 0.0734,0.1819 0.0734,0.47956 0,0.66146 -0.0734,0.1819 -0.13346,0.0331 -0.13346,-0.33073 z m -95.291768,-0.89364 c 0,-0.055 0.208359,-0.2633 0.463021,-0.46303 0.419644,-0.3291 0.429002,-0.31974 0.09989,0.0999 -0.345643,0.44073 -0.562915,0.58089 -0.562915,0.36313 z m 95.566158,-1.88448 c 0.005,-0.43657 0.0647,-0.58313 0.13178,-0.3257 0.0671,0.25743 0.0627,0.61462 -0.01,0.79375 -0.0725,0.17913 -0.12736,-0.0315 -0.12197,-0.46805 z m 0.28507,-3.57188 c 0,-0.65484 0.0516,-0.92273 0.11466,-0.59531 0.0631,0.32742 0.0631,0.8632 0,1.19062 -0.0631,0.32743 -0.11466,0.0595 -0.11466,-0.59531 z m -83.151229,-2.48114 c 0,-0.055 0.20836,-0.2633 0.463021,-0.46303 0.419644,-0.3291 0.429002,-0.31974 0.0999,0.0999 -0.345644,0.44073 -0.562916,0.58089 -0.562916,0.36313 z m 83.410469,-1.884483 c 0.003,-0.582084 0.0571,-0.789054 0.12041,-0.459936 0.0633,0.329118 0.0609,0.805368 -0.005,1.058333 -0.0662,0.252966 -0.118,-0.01633 -0.11506,-0.598397 z m -81.293802,0.296979 c 0,-0.05494 0.208359,-0.263301 0.463021,-0.463021 0.419644,-0.329108 0.429002,-0.319749 0.09989,0.0999 -0.345644,0.44073 -0.562916,0.580887 -0.562916,0.363125 z m 1.5875,-1.322917 c 0,-0.05494 0.208359,-0.2633 0.463021,-0.463021 0.419644,-0.329107 0.429002,-0.319749 0.09989,0.0999 -0.345643,0.44073 -0.562915,0.580888 -0.562915,0.363125 z m 4.493188,-4.199583 c 2.575992,-2.64182 2.915145,-2.964482 2.915145,-2.773397 0,0.03898 -1.279922,1.3189 -2.844271,2.844271 l -2.84427,2.773397 z m 75.508864,-2.050521 c 0,-1.527969 0.0437,-2.153047 0.0972,-1.389063 0.0534,0.763985 0.0534,2.014141 0,2.778126 -0.0534,0.763984 -0.0972,0.138906 -0.0972,-1.389063 z M 85.043884,88.842847 c 0.341776,-0.363802 0.68094,-0.661459 0.7537,-0.661459 0.07276,0 -0.147341,0.297657 -0.489116,0.661459 -0.341776,0.363802 -0.68094,0.661458 -0.7537,0.661458 -0.07276,0 0.147341,-0.297656 0.489116,-0.661458 z m 2.910417,-3.175 c 0.341775,-0.363802 0.680939,-0.661459 0.7537,-0.661459 0.07276,0 -0.147341,0.297657 -0.489117,0.661459 -0.341775,0.363802 -0.680939,0.661458 -0.7537,0.661458 -0.07276,0 0.147341,-0.297656 0.489117,-0.661458 z m 5.159375,-5.423959 c 1.449747,-1.455208 2.695437,-2.645833 2.768197,-2.645833 0.07276,0 -1.053867,1.190625 -2.503614,2.645833 -1.449747,1.455209 -2.695437,2.645834 -2.768198,2.645834 -0.07276,0 1.053867,-1.190625 2.503615,-2.645834 z m 4.365625,-4.068644 c 0,-0.05494 0.208359,-0.263302 0.46302,-0.463021 0.419645,-0.329108 0.429004,-0.319749 0.0999,0.09989 -0.345643,0.44073 -0.562916,0.580888 -0.562916,0.363127 z m 3.439579,-2.645834 c 0,-0.05494 0.20836,-0.263301 0.46302,-0.463021 0.41965,-0.329107 0.42901,-0.319749 0.0999,0.0999 -0.34564,0.440729 -0.56292,0.580887 -0.56292,0.363126 z m 54.81053,-1.223022 c 0,-0.363802 0.06,-0.51263 0.13345,-0.330729 0.0734,0.181901 0.0734,0.479557 0,0.661458 -0.0734,0.181902 -0.13345,0.03307 -0.13345,-0.330729 z m -0.28547,-1.74184 c 0.0127,-0.308224 0.0754,-0.370919 0.15985,-0.159852 0.0764,0.190996 0.067,0.419199 -0.0209,0.507118 -0.0879,0.08792 -0.15045,-0.06835 -0.13896,-0.347266 z m -48.96881,-0.63941 c 0.21828,-0.141064 0.51594,-0.25648 0.66146,-0.25648 0.14552,0 0.086,0.115416 -0.13229,0.25648 -0.21828,0.141065 -0.51594,0.256481 -0.66146,0.256481 -0.14552,0 -0.086,-0.115416 0.13229,-0.256481 z m 46.81701,-3.638021 -0.9118,-0.992187 0.99219,0.911798 c 0.5457,0.501489 0.99219,0.947974 0.99219,0.992188 0,0.202041 -0.2239,0.01171 -1.07258,-0.911799 z m -30.99162,-1.305219 c 0.191,-0.07643 0.4192,-0.06703 0.50712,0.02089 0.0879,0.08792 -0.0684,0.150453 -0.34726,0.138964 -0.30823,-0.01269 -0.37092,-0.07539 -0.15986,-0.159852 z m 1.57097,-0.259072 c 0.1819,-0.0734 0.47955,-0.0734 0.66146,0 0.1819,0.0734 0.0331,0.133453 -0.33073,0.133453 -0.36381,0 -0.51263,-0.06005 -0.33073,-0.133453 z m 2.11666,-0.264583 c 0.1819,-0.0734 0.47956,-0.0734 0.66146,0 0.1819,0.0734 0.0331,0.133452 -0.33073,0.133452 -0.3638,0 -0.51263,-0.06005 -0.33073,-0.133452 z m 2.51858,-0.272709 c 0.25743,-0.06708 0.61462,-0.06267 0.79375,0.0098 0.17913,0.07248 -0.0315,0.127362 -0.46806,0.12197 -0.43656,-0.0054 -0.58312,-0.06469 -0.32569,-0.131774 z m 3.43455,-0.270738 c 0.40018,-0.06062 1.05502,-0.06062 1.45521,0 0.40018,0.06062 0.0728,0.110223 -0.72761,0.110223 -0.80036,0 -1.12778,-0.0496 -0.7276,-0.110223 z m 6.62256,-0.26988 c 0.69562,-0.05468 1.76718,-0.05402 2.38125,0.0015 0.61408,0.05549 0.0449,0.10023 -1.26475,0.09942 -1.30969,-7.94e-4 -1.81211,-0.04621 -1.1165,-0.10089 z"
         id="path4036" /><path
         style="fill:#c36549;stroke-width:0.264583"
         d="m 120.4319,153.60531 -0.99218,-0.10378 0.001,-5.20955 c 0.002,-11.6352 1.17492,-20.36065 3.45552,-25.71476 2.95624,-6.94028 8.12486,-10.84744 9.10017,-6.87917 0.0894,0.36381 -0.25227,3.22131 -0.75929,6.35 -1.59432,9.83835 -2.27245,17.74185 -2.27245,26.48535 v 4.93084 l -0.99219,0.16399 c -1.03532,0.17113 -5.82473,0.15657 -7.54063,-0.0229 z m -9.45885,-1.01586 c -5.0065,-0.59534 -16.534791,-1.87822 -28.442707,-3.16513 -3.201459,-0.34599 -8.300343,-0.81244 -11.330854,-1.03657 -4.533641,-0.33528 -10.084305,-1.05123 -10.448707,-1.34771 -0.212747,-0.17309 -1.112248,-6.54764 -1.271492,-9.01076 l -0.177925,-2.75206 1.163448,0.003 c 0.639896,0.002 3.15833,0.18013 5.596521,0.39632 12.210096,1.08264 35.002116,1.85051 45.682176,1.53904 l 5.92982,-0.17293 -0.17514,2.86248 c -0.0963,1.57436 -0.17514,5.22521 -0.17514,8.11299 v 5.25051 l -0.59531,-0.033 c -0.32742,-0.0181 -2.91703,-0.30904 -5.75469,-0.64648 z m 20.10956,-3.75233 c 0.002,-8.60981 0.71423,-16.82014 2.276,-26.25135 0.99895,-6.03246 1.01172,-7.1836 0.0964,-8.68866 -0.28687,-0.47173 -0.52158,-0.89428 -0.52158,-0.93902 0,-0.0447 0.60332,-0.47228 1.34072,-0.95009 3.22595,-2.09034 6.14427,-5.56913 8.66814,-10.33286 2.66245,-5.025315 8.40303,-19.033603 9.86676,-24.077085 0.76001,-2.61874 0.88383,-3.448243 0.88861,-5.953125 0.005,-2.484846 -0.0834,-3.103376 -0.60268,-4.230037 -0.33453,-0.725792 -0.87031,-1.610137 -1.19063,-1.965212 l -0.58238,-0.645591 0.79375,0.551973 c 2.15176,1.496335 3.09319,3.248522 3.59217,6.685742 0.68564,4.723067 -0.0879,30.042135 -1.21267,39.693495 -0.67985,5.83345 -2.20554,13.83997 -3.46641,18.19097 -0.85351,2.94528 -3.91501,11.12768 -4.88486,13.05563 -0.74398,1.47895 -3.77905,5.52065 -4.15173,5.52871 -0.10739,0.002 -0.60967,0.3694 -1.11617,0.81573 -1.6235,1.4306 -7.64997,3.94255 -9.45866,3.94255 -0.25835,0 -0.33576,-1.0247 -0.33482,-4.43177 z m -73.91455,-2.19028 c -1.846209,-0.55326 -2.629899,-2.32243 -3.629009,-8.19243 -1.087189,-6.38749 -1.392754,-9.75366 -1.213092,-13.36365 0.26766,-5.37812 1.467423,-9.17582 3.429339,-10.85515 1.27662,-1.09274 2.122639,-1.17254 2.722651,-0.2568 0.525291,0.8017 0.433198,2.5168 -0.377981,7.03929 -1.229284,6.85352 -1.300861,15.79894 -0.180785,22.5935 0.446851,2.71067 0.484375,3.31675 0.203348,3.28455 -0.109141,-0.0125 -0.538653,-0.1247 -0.954471,-0.24931 z m 36.871657,-11.64453 c -5.165989,-0.10803 -11.535833,-0.33237 -14.155208,-0.49854 -8.175867,-0.51866 -19.555018,-1.35044 -20.108332,-1.46986 -0.495726,-0.10699 -0.524043,-0.2947 -0.448092,-2.97034 0.13171,-4.63992 0.40346,-4.82181 7.712053,-5.16177 8.56053,-0.39819 26.330676,0.20724 44.329792,1.51033 7.84879,0.56824 7.89319,0.57562 7.69061,1.27837 -0.0912,0.3164 -0.38629,2.03953 -0.65575,3.82919 -0.26946,1.78965 -0.53379,3.29154 -0.5874,3.33752 -0.26341,0.22596 -15.47297,0.31877 -23.777673,0.1451 z m 22.621873,-10.47113 c -0.52573,-0.0901 -10.89419,-0.82726 -20.769789,-1.47674 -3.150225,-0.20718 -10.707005,-0.34041 -19.405348,-0.34212 l -14.245973,-0.003 1.435981,-1.33676 c 2.551326,-2.37506 7.435523,-4.4441 13.033049,-5.52106 2.545273,-0.48971 11.042885,-1.61277 15.081249,-1.99317 5.62189,-0.52955 15.769971,-0.79145 20.657861,-0.53313 5.17161,0.27332 12.30902,0.99432 12.59383,1.2722 0.0983,0.0959 -0.41285,0.94833 -1.13596,1.89422 -1.36675,1.78782 -3.11064,5.13498 -3.68747,7.0776 l -0.3339,1.12448 -1.34718,-0.036 c -0.74095,-0.0198 -1.58531,-0.0768 -1.87635,-0.12668 z m -56.125731,-4.34205 c 0.326433,-2.10235 0.506826,-5.47563 0.330408,-6.17853 -0.284223,-1.13244 -1.682258,-2.5089 -2.752066,-2.7096 l -0.960095,-0.18011 1.364031,-1.25423 c 1.710314,-1.57264 3.980007,-3.08418 8.534081,-5.68342 7.411527,-4.230121 10.525183,-6.925826 20.163663,-17.45706 9.395771,-10.266041 14.328399,-14.353835 20.979049,-17.385845 8.30307,-3.785351 17.2775,-5.318065 32.54374,-5.558041 l 4.7625,-0.07486 1.77484,0.871008 c 2.11736,1.03911 3.50223,2.539842 4.05196,4.390978 1.01593,3.421019 -0.0601,7.943539 -4.38595,18.43456 -5.15652,12.505444 -7.79298,17.37052 -11.23144,20.72539 -1.54426,1.50673 -4.84278,3.59993 -5.67286,3.59993 -0.16765,0 -0.76035,0.2201 -1.31712,0.4891 -0.92073,0.44484 -1.2008,0.45913 -3.09607,0.15795 -8.7801,-1.39528 -22.45167,-1.7404 -32.378563,-0.81736 -6.507725,0.60511 -14.600176,1.65309 -17.823954,2.30821 -5.7344,1.16533 -10.276228,3.23313 -13.591379,6.18787 l -1.478582,1.31784 z"
         id="path4034" /><path
         style="fill:#a45a44;stroke-width:0.264583"
         d="m 129.03144,142.81785 c 0.003,-0.58209 0.0571,-0.78906 0.12041,-0.45994 0.0633,0.32912 0.0609,0.80537 -0.005,1.05833 -0.0662,0.25297 -0.118,-0.0163 -0.11507,-0.59839 z m 2.11133,-0.92605 c 0,-0.50932 0.0544,-0.71768 0.121,-0.46302 0.0666,0.25467 0.0666,0.67138 0,0.92605 -0.0666,0.25466 -0.121,0.0463 -0.121,-0.46303 z m -13.77794,-0.52916 c 0,-0.3638 0.0601,-0.51263 0.13345,-0.33073 0.0734,0.1819 0.0734,0.47956 0,0.66146 -0.0734,0.1819 -0.13345,0.0331 -0.13345,-0.33073 z m 2.12647,-0.39688 c 0.005,-0.43656 0.0647,-0.58312 0.13177,-0.32569 0.0671,0.25743 0.0627,0.61462 -0.01,0.79375 -0.0725,0.17913 -0.12736,-0.0315 -0.12197,-0.46806 z m -62.186888,-1.98437 c 0,-0.3638 0.06005,-0.51263 0.133452,-0.33073 0.0734,0.1819 0.0734,0.47956 0,0.66146 -0.0734,0.1819 -0.133452,0.0331 -0.133452,-0.33073 z m 2.095778,0.11024 c 0.0127,-0.30822 0.07539,-0.37092 0.159852,-0.15985 0.07643,0.19099 0.06703,0.4192 -0.02089,0.50712 -0.08792,0.0879 -0.150452,-0.0683 -0.138964,-0.34727 z m 69.88069,-1.03628 c 0.005,-0.43657 0.0647,-0.58313 0.13177,-0.3257 0.0671,0.25743 0.0627,0.61462 -0.01,0.79375 -0.0725,0.17913 -0.12737,-0.0315 -0.12197,-0.46805 z m -11.67236,-0.55122 c 0.0127,-0.30822 0.0754,-0.37092 0.15985,-0.15985 0.0764,0.19099 0.067,0.4192 -0.0209,0.50712 -0.0879,0.0879 -0.15046,-0.0684 -0.13897,-0.34727 z m 13.77922,-0.11024 c 0,-0.3638 0.0601,-0.51263 0.13345,-0.33073 0.0734,0.1819 0.0734,0.47956 0,0.66146 -0.0734,0.1819 -0.13345,0.0331 -0.13345,-0.33073 z m -11.66255,-0.15434 c 0.0127,-0.30823 0.0754,-0.37092 0.15985,-0.15985 0.0764,0.19099 0.067,0.4192 -0.0209,0.50711 -0.0879,0.0879 -0.15045,-0.0684 -0.13896,-0.34726 z m -15.94947,-0.0427 c 1.20745,-0.0491 3.11245,-0.0489 4.23333,5.3e-4 1.12088,0.0495 0.13296,0.0897 -2.19537,0.0893 -2.32834,-2.7e-4 -3.24542,-0.0408 -2.03796,-0.0899 z m -14.29698,-0.25466 c 0.329118,-0.0633 0.805368,-0.0609 1.058333,0.005 0.252966,0.0662 -0.01632,0.118 -0.598397,0.11507 -0.582084,-0.003 -0.789054,-0.0571 -0.459936,-0.12041 z m -6.879166,-0.26459 c 0.329117,-0.0633 0.805367,-0.0609 1.058333,0.005 0.252965,0.0662 -0.01632,0.118 -0.598398,0.11506 -0.582083,-0.003 -0.789053,-0.0571 -0.459935,-0.1204 z m -5.157425,-0.26081 c 0.257431,-0.0671 0.614619,-0.0627 0.79375,0.01 0.179131,0.0725 -0.03149,0.12736 -0.468056,0.12197 -0.436563,-0.005 -0.583126,-0.0647 -0.325694,-0.13177 z m -4.635244,-0.25645 c 0.181902,-0.0734 0.479558,-0.0734 0.661459,0 0.181901,0.0734 0.03307,0.13345 -0.330729,0.13345 -0.363802,0 -0.512631,-0.0601 -0.33073,-0.13345 z m -3.423046,-0.2701 c 0.190996,-0.0764 0.419199,-0.067 0.507118,0.0209 0.08792,0.0879 -0.06835,0.15045 -0.347266,0.13896 -0.308224,-0.0127 -0.370919,-0.0754 -0.159852,-0.15985 z M 59.11877,135.47566 c -0.0029,-0.33705 0.193912,-0.45467 0.723553,-0.43233 0.557686,0.0235 0.604027,0.0616 0.198437,0.1629 -0.291042,0.0727 -0.61664,0.26726 -0.723553,0.43233 -0.123364,0.19047 -0.195866,0.13095 -0.198437,-0.1629 z m 7.090089,0.14999 c 0.190996,-0.0764 0.419199,-0.067 0.507118,0.0209 0.08792,0.0879 -0.06835,0.15046 -0.347266,0.13897 -0.308224,-0.0127 -0.370919,-0.0754 -0.159852,-0.15985 z m -3.175,-0.26458 c 0.190996,-0.0764 0.419199,-0.067 0.507118,0.0209 0.08792,0.0879 -0.06835,0.15045 -0.347266,0.13897 -0.308224,-0.0127 -0.370919,-0.0754 -0.159852,-0.15986 z m 35.040754,-0.28005 c 0.982266,-0.0509 2.589607,-0.0509 3.571877,0 0.98226,0.0509 0.17859,0.0926 -1.78594,0.0926 -1.964531,0 -2.768203,-0.0416 -1.785937,-0.0926 z m 12.313497,4e-5 c 0.9152,-0.0518 2.34395,-0.0514 3.175,0.001 0.83104,0.0523 0.0822,0.0947 -1.66402,0.0942 -1.74625,-5.3e-4 -2.42619,-0.0433 -1.51098,-0.0952 z M 57.094686,132.4991 c 6.88e-4,-1.45521 0.04512,-2.01677 0.09873,-1.24791 0.05362,0.76887 0.05305,1.95949 -0.0012,2.64584 -0.05431,0.68634 -0.09818,0.0573 -0.09749,-1.39793 z m 30.002804,2.32641 c 0.329118,-0.0633 0.805368,-0.0609 1.058333,0.005 0.252966,0.0662 -0.01632,0.11801 -0.598397,0.11507 -0.582083,-0.003 -0.789054,-0.0571 -0.459936,-0.12041 z m -5.951175,-0.26081 c 0.257432,-0.0671 0.614619,-0.0627 0.79375,0.01 0.179131,0.0725 -0.03149,0.12736 -0.468056,0.12197 -0.436562,-0.005 -0.583125,-0.0647 -0.325694,-0.13178 z m 48.368455,-0.23557 c 0.0127,-0.30822 0.0754,-0.37092 0.15985,-0.15985 0.0764,0.19099 0.067,0.4192 -0.0209,0.50712 -0.0879,0.0879 -0.15046,-0.0684 -0.13897,-0.34727 z m -52.739115,-0.0209 c 0.181901,-0.0734 0.479558,-0.0734 0.661459,0 0.181901,0.0734 0.03307,0.13346 -0.330729,0.13346 -0.363803,0 -0.512631,-0.0601 -0.33073,-0.13346 z m 54.855785,-0.24369 c 0.0127,-0.30823 0.0754,-0.37092 0.15985,-0.15985 0.0764,0.19099 0.067,0.4192 -0.0209,0.50711 -0.0879,0.0879 -0.15045,-0.0684 -0.13896,-0.34726 z m -59.216374,-0.029 c 0.257431,-0.0671 0.614618,-0.0627 0.79375,0.01 0.179131,0.0725 -0.03149,0.12736 -0.468056,0.12197 -0.436563,-0.005 -0.583125,-0.0647 -0.325694,-0.13177 z m -3.57691,-0.25645 c 0.181901,-0.0734 0.479557,-0.0734 0.661458,0 0.181901,0.0734 0.03307,0.13345 -0.330729,0.13345 -0.363802,0 -0.51263,-0.0601 -0.330729,-0.13345 z m -3.158464,-0.2701 c 0.190996,-0.0764 0.419199,-0.067 0.507118,0.0209 0.08792,0.0879 -0.06835,0.15045 -0.347265,0.13896 -0.308225,-0.0127 -0.37092,-0.0754 -0.159853,-0.15985 z m -3.704166,-0.26458 c 0.190996,-0.0764 0.419199,-0.067 0.507118,0.0209 0.08792,0.0879 -0.06835,0.15046 -0.347266,0.13897 -0.308224,-0.0127 -0.370919,-0.0754 -0.159852,-0.15985 z m -2.781521,-2.20051 c 0,-0.80037 0.0496,-1.12779 0.110222,-0.72761 0.06062,0.40019 0.06062,1.05503 0,1.45521 -0.06062,0.40018 -0.110222,0.0728 -0.110222,-0.7276 z m 70.849935,-1.47726 c 0.0127,-0.30822 0.0754,-0.37092 0.15985,-0.15985 0.0764,0.19099 0.067,0.4192 -0.0209,0.50712 -0.0879,0.0879 -0.15045,-0.0684 -0.13896,-0.34727 z m -11.71217,-2.67223 c 0.191,-0.0764 0.4192,-0.067 0.50712,0.0209 0.0879,0.0879 -0.0684,0.15046 -0.34726,0.13897 -0.30823,-0.0127 -0.37092,-0.0754 -0.15986,-0.15985 z m -61.048247,-0.50277 c 0.0127,-0.30822 0.07539,-0.37092 0.159853,-0.15985 0.07643,0.19099 0.06703,0.4192 -0.02089,0.50712 -0.08792,0.0879 -0.150453,-0.0683 -0.138965,-0.34727 z m 57.592127,0.2437 c 0.18191,-0.0734 0.47956,-0.0734 0.66146,0 0.1819,0.0734 0.0331,0.13345 -0.33073,0.13345 -0.3638,0 -0.51263,-0.0601 -0.33073,-0.13345 z m -3.43958,-0.26459 c 0.1819,-0.0734 0.47956,-0.0734 0.66146,0 0.1819,0.0734 0.0331,0.13346 -0.33073,0.13346 -0.3638,0 -0.51263,-0.0601 -0.33073,-0.13346 z M 59.908468,126.1815 c 0,-0.0549 0.20836,-0.2633 0.463021,-0.46302 0.419644,-0.32911 0.429002,-0.31975 0.0999,0.0999 -0.345643,0.44073 -0.562916,0.58088 -0.562916,0.36312 z m 47.823432,-0.0753 c 0.18191,-0.0734 0.47956,-0.0734 0.66146,0 0.1819,0.0734 0.0331,0.13345 -0.33073,0.13345 -0.3638,0 -0.51263,-0.0601 -0.33073,-0.13345 z m -3.70416,-0.26458 c 0.1819,-0.0734 0.47956,-0.0734 0.66146,0 0.1819,0.0734 0.0331,0.13345 -0.33073,0.13345 -0.36381,0 -0.51263,-0.0601 -0.33073,-0.13345 z m -4.096009,-0.27271 c 0.257429,-0.0671 0.614619,-0.0627 0.793749,0.01 0.17913,0.0725 -0.0315,0.12737 -0.46805,0.12197 -0.436567,-0.005 -0.58313,-0.0647 -0.325699,-0.13177 z m -4.7625,-0.26459 c 0.257432,-0.0671 0.61462,-0.0627 0.79375,0.01 0.179131,0.0725 -0.03149,0.12736 -0.468055,0.12197 -0.436563,-0.005 -0.583126,-0.0647 -0.325695,-0.13177 z m -5.825868,-0.26361 c 0.254662,-0.0666 0.671381,-0.0666 0.926042,0 0.254661,0.0665 0.0463,0.121 -0.463021,0.121 -0.509323,0 -0.717682,-0.0545 -0.463021,-0.121 z m -21.956778,-0.27206 c 0.402183,-0.0608 0.997496,-0.0592 1.322917,0.004 0.325421,0.0628 -0.0036,0.11256 -0.731242,0.11057 -0.727604,-0.002 -0.993858,-0.0534 -0.591675,-0.11418 z m 12.043772,-0.005 c 0.768864,-0.0536 1.959489,-0.0531 2.645834,0.001 0.686345,0.0543 0.05728,0.0982 -1.397932,0.0975 -1.455208,-7.9e-4 -2.016765,-0.0451 -1.247902,-0.0987 z m 37.049333,-0.24996 c 0.191,-0.0764 0.4192,-0.067 0.50712,0.0209 0.0879,0.0879 -0.0684,0.15045 -0.34727,0.13896 -0.30822,-0.0127 -0.37092,-0.0754 -0.15985,-0.15985 z m -58.931583,-0.50277 c 0.01269,-0.30822 0.07539,-0.37092 0.159852,-0.15985 0.07643,0.19099 0.06703,0.4192 -0.02089,0.50712 -0.08792,0.0879 -0.150453,-0.0684 -0.138964,-0.34727 z m 55.475463,0.2437 c 0.1819,-0.0734 0.47956,-0.0734 0.66146,0 0.1819,0.0734 0.0331,0.13345 -0.33073,0.13345 -0.3638,0 -0.51263,-0.0601 -0.33073,-0.13345 z m -3.42305,-0.2701 c 0.191,-0.0764 0.4192,-0.067 0.50712,0.0209 0.0879,0.0879 -0.0684,0.15045 -0.34726,0.13896 -0.30823,-0.0127 -0.37092,-0.0754 -0.15986,-0.15985 z m -3.70416,-0.26458 c 0.19099,-0.0764 0.4192,-0.067 0.50712,0.0209 0.0879,0.0879 -0.0684,0.15046 -0.34727,0.13897 -0.30823,-0.0127 -0.37092,-0.0754 -0.15985,-0.15985 z m -3.98529,-0.25907 c 0.1819,-0.0734 0.47956,-0.0734 0.66146,0 0.1819,0.0734 0.0331,0.13345 -0.33073,0.13345 -0.3638,0 -0.51263,-0.0601 -0.33073,-0.13345 z m -4.497915,-0.26459 c 0.181901,-0.0734 0.479557,-0.0734 0.661458,0 0.181901,0.0734 0.03307,0.13346 -0.330729,0.13346 -0.363802,0 -0.51263,-0.0601 -0.330729,-0.13346 z m -4.497917,-0.26458 c 0.181901,-0.0734 0.479557,-0.0734 0.661459,0 0.181901,0.0734 0.03307,0.13345 -0.33073,0.13345 -0.363802,0 -0.51263,-0.0601 -0.330729,-0.13345 z m -28.042747,-0.27648 c 0.329118,-0.0633 0.805368,-0.0609 1.058333,0.005 0.252965,0.0662 -0.01631,0.118 -0.598397,0.11507 -0.582084,-0.003 -0.789055,-0.0571 -0.459936,-0.12041 z m 21.034927,-0.003 c 0.402183,-0.0608 0.997495,-0.0592 1.322917,0.004 0.325421,0.0628 -0.0036,0.11256 -0.731242,0.11057 -0.727605,-0.002 -0.993857,-0.0534 -0.591675,-0.11418 z m -22.956241,-0.86848 c 0.263389,-0.29104 0.53842,-0.52916 0.61118,-0.52916 0.07276,0 -0.08321,0.23812 -0.346597,0.52916 -0.263389,0.29104 -0.538421,0.52917 -0.611181,0.52917 -0.07276,0 0.08321,-0.23813 0.346598,-0.52917 z m -2.778125,-0.57326 c 0,-0.16978 0.0818,-0.22689 0.18177,-0.12691 0.09997,0.1 0.665521,-0.26714 1.256771,-0.8158 l 1.075,-0.99757 -1.045884,1.12448 c -1.064654,1.14466 -1.467657,1.36867 -1.467657,0.8158 z m 73.890808,-4.45382 c 0,-0.65485 0.0516,-0.92274 0.11466,-0.59531 0.0631,0.32742 0.0631,0.8632 0,1.19062 -0.0631,0.32742 -0.11466,0.0595 -0.11466,-0.59531 z m -8.00956,0.16469 c 0,-0.055 0.20836,-0.2633 0.46302,-0.46303 0.41965,-0.3291 0.429,-0.31974 0.0999,0.0999 -0.34565,0.44073 -0.56292,0.58089 -0.56292,0.36313 z m -67.152585,-1.09073 c 0.0054,-0.43657 0.06469,-0.58313 0.131774,-0.3257 0.06708,0.25743 0.06267,0.61462 -0.0098,0.79375 -0.07248,0.17913 -0.127363,-0.0315 -0.121971,-0.46805 z m 66.025805,-0.68581 c 0.18064,-0.23167 0.2501,-0.49956 0.15435,-0.59531 -0.0958,-0.0957 -0.0352,-0.17409 0.13458,-0.17409 0.45299,0 0.37626,0.41137 -0.15434,0.8275 -0.40967,0.32128 -0.42518,0.31459 -0.13459,-0.0581 z m -34.906162,-1.21472 c 0.190995,-0.0764 0.419198,-0.067 0.507119,0.0209 0.08792,0.0879 -0.06835,0.15045 -0.347266,0.13897 -0.308226,-0.0127 -0.370919,-0.0754 -0.159853,-0.15986 z m 40.216662,0 c 0.191,-0.0764 0.4192,-0.067 0.50712,0.0209 0.0879,0.0879 -0.0683,0.15045 -0.34726,0.13897 -0.30823,-0.0127 -0.37092,-0.0754 -0.15986,-0.15986 z M 92.931775,113.6655 c 0.190994,-0.0764 0.419198,-0.067 0.507119,0.0209 0.08792,0.0879 -0.06835,0.15045 -0.347266,0.13896 -0.308226,-0.0127 -0.370919,-0.0754 -0.159853,-0.15985 z m 25.664585,0 c 0.19099,-0.0764 0.4192,-0.067 0.50712,0.0209 0.0879,0.0879 -0.0684,0.15045 -0.34727,0.13896 -0.30823,-0.0127 -0.37092,-0.0754 -0.15985,-0.15985 z m -21.839629,-0.2672 c 0.257432,-0.0671 0.61462,-0.0627 0.79375,0.01 0.179131,0.0725 -0.03149,0.12736 -0.468055,0.12197 -0.436563,-0.005 -0.583126,-0.0647 -0.325695,-0.13177 z m 18.383509,0.008 c 0.1819,-0.0734 0.47955,-0.0734 0.66146,0 0.1819,0.0734 0.0331,0.13345 -0.33073,0.13345 -0.36381,0 -0.51263,-0.06 -0.33073,-0.13345 z m -12.17084,-0.2809 c 0.47295,-0.0587 1.24685,-0.0587 1.7198,0 0.47294,0.0587 0.086,0.10672 -0.8599,0.10672 -0.94589,0 -1.33284,-0.048 -0.8599,-0.10672 z m 6.88226,0.004 c 0.32911,-0.0633 0.80536,-0.0609 1.05833,0.005 0.25296,0.0662 -0.0163,0.118 -0.5984,0.11506 -0.58208,-0.003 -0.78905,-0.0571 -0.45993,-0.1204 z m -19.565719,-1.31652 c 0.190995,-0.0764 0.419198,-0.067 0.507119,0.0209 0.08792,0.0879 -0.06835,0.15045 -0.347265,0.13897 -0.308227,-0.0127 -0.37092,-0.0754 -0.159854,-0.15986 z m 2.910417,-0.26459 c 0.190995,-0.0764 0.419198,-0.067 0.507119,0.0209 0.08792,0.0879 -0.06835,0.15045 -0.347266,0.13896 -0.308226,-0.0127 -0.370919,-0.0754 -0.159853,-0.15985 z m 3.423047,-0.25907 c 0.181901,-0.0734 0.479557,-0.0734 0.661458,0 0.181901,0.0734 0.03307,0.13345 -0.330729,0.13345 -0.363802,0 -0.51263,-0.06 -0.330729,-0.13345 z m 19.049995,0 c 0.18191,-0.0734 0.47956,-0.0734 0.66146,0 0.1819,0.0734 0.0331,0.13345 -0.33073,0.13345 -0.3638,0 -0.51263,-0.06 -0.33073,-0.13345 z m -13.75359,-0.28111 c 0.47555,-0.0589 1.18992,-0.0577 1.5875,0.003 0.39758,0.0604 0.008,0.10855 -0.86463,0.10707 -0.87313,-0.002 -1.19842,-0.0509 -0.72287,-0.10977 z m 7.93276,2.7e-4 c 0.47294,-0.0587 1.24685,-0.0587 1.71979,0 0.47295,0.0587 0.086,0.10671 -0.85989,0.10671 -0.94589,0 -1.33284,-0.048 -0.8599,-0.10671 z m 26.78906,-0.99913 c 0.34178,-0.3638 0.68094,-0.66146 0.7537,-0.66146 0.0728,0 -0.14734,0.29766 -0.48911,0.66146 -0.34178,0.36381 -0.68094,0.66146 -0.7537,0.66146 -0.0728,0 0.14734,-0.29765 0.48911,-0.66146 z m -2.11666,-0.76135 c 0,-0.0549 0.20836,-0.2633 0.46302,-0.46302 0.41964,-0.32911 0.429,-0.31975 0.0999,0.0999 -0.34564,0.44073 -0.56291,0.58089 -0.56291,0.36313 z m 3.83645,-0.95844 c 0.26339,-0.29104 0.53843,-0.52917 0.61119,-0.52917 0.0728,0 -0.0832,0.23813 -0.3466,0.52917 -0.26339,0.29104 -0.53842,0.52917 -0.61118,0.52917 -0.0728,0 0.0832,-0.23813 0.34659,-0.52917 z m -1.71979,-1.15823 c 0,-0.0549 0.20836,-0.2633 0.46302,-0.46302 0.41965,-0.32911 0.42901,-0.31975 0.0999,0.0999 -0.34564,0.44073 -0.56292,0.58088 -0.56292,0.36312 z"
         id="path4032" /><path
         style="fill:#6d463a;stroke-width:0.264583"
         d="m 124.66524,173.46658 c 0.1819,-0.0734 0.47955,-0.0734 0.66146,0 0.1819,0.0734 0.0331,0.13345 -0.33073,0.13345 -0.36381,0 -0.51263,-0.0601 -0.33073,-0.13345 z m -0.91652,-5.51332 c 0.002,-0.7276 0.0534,-0.99385 0.11419,-0.59167 0.0608,0.40218 0.0592,0.99749 -0.004,1.32292 -0.0628,0.32542 -0.11256,-0.004 -0.11057,-0.73125 z m -1.86637,-0.92604 c 0,-0.50932 0.0545,-0.71768 0.121,-0.46302 0.0666,0.25466 0.0666,0.67138 0,0.92604 -0.0665,0.25466 -0.121,0.0463 -0.121,-0.46302 z m -60.843485,-2.64583 c 0,-0.65485 0.0516,-0.92274 0.114662,-0.59531 0.06306,0.32742 0.06306,0.8632 0,1.19062 -0.06306,0.32742 -0.114662,0.0595 -0.114662,-0.59531 z m 1.86684,-0.66146 c 0.0012,-1.01865 0.049,-1.40294 0.106272,-0.854 0.05728,0.54895 0.05632,1.38239 -0.0021,1.85209 -0.05845,0.4697 -0.105311,0.0206 -0.104138,-0.99809 z m -3.770099,0.50712 c 0.01269,-0.30823 0.07539,-0.37092 0.159853,-0.15985 0.07643,0.19099 0.06703,0.4192 -0.02089,0.50711 -0.08792,0.0879 -0.150453,-0.0684 -0.138964,-0.34726 z m -1.852083,-1.05833 c 0.0127,-0.30823 0.07539,-0.37092 0.159853,-0.15986 0.07643,0.191 0.06703,0.4192 -0.02089,0.50712 -0.08792,0.0879 -0.150453,-0.0684 -0.138965,-0.34726 z m 66.166717,-0.904 c 0,-0.3638 0.0601,-0.51263 0.13345,-0.33073 0.0734,0.1819 0.0734,0.47956 0,0.66146 -0.0734,0.1819 -0.13345,0.0331 -0.13345,-0.33073 z m 2.42416,-1.5875 c 0,-0.94588 0.048,-1.33284 0.10672,-0.85989 0.0587,0.47294 0.0587,1.24684 0,1.71979 -0.0587,0.47294 -0.10672,0.086 -0.10672,-0.8599 z m -4.27624,0.79375 c 0,-0.3638 0.0601,-0.51263 0.13345,-0.33073 0.0734,0.1819 0.0734,0.47956 0,0.66146 -0.0734,0.1819 -0.13345,0.0331 -0.13345,-0.33073 z m 6.12832,-2.11667 c 0,-0.94588 0.048,-1.33283 0.10672,-0.85989 0.0587,0.47294 0.0587,1.24685 0,1.71979 -0.0587,0.47294 -0.10672,0.086 -0.10672,-0.8599 z m -68.834569,-1.05833 c 0,-0.3638 0.06005,-0.51263 0.133453,-0.33073 0.0734,0.1819 0.0734,0.47956 0,0.66146 -0.0734,0.1819 -0.133453,0.0331 -0.133453,-0.33073 z m -1.852083,-0.79375 c 0,-0.3638 0.06005,-0.51263 0.133452,-0.33073 0.0734,0.1819 0.0734,0.47956 0,0.66146 -0.0734,0.1819 -0.133452,0.0331 -0.133452,-0.33073 z m 66.145832,-0.26458 c 0,-0.3638 0.0601,-0.51263 0.13345,-0.33073 0.0734,0.1819 0.0734,0.47956 0,0.66146 -0.0734,0.1819 -0.13345,0.0331 -0.13345,-0.33073 z m -1.84228,-0.66146 c 0.005,-0.43656 0.0647,-0.58313 0.13177,-0.32569 0.0671,0.25743 0.0627,0.61461 -0.01,0.79375 -0.0725,0.17913 -0.12737,-0.0315 -0.12197,-0.46806 z m -60.027309,-3.83646 c 0,-0.94588 0.04802,-1.33284 0.106713,-0.85989 0.05869,0.47294 0.05869,1.24684 0,1.71979 -0.05869,0.47294 -0.106713,0.086 -0.106713,-0.8599 z m 64.936669,1.14769 c 0.1819,-0.0734 0.47955,-0.0734 0.66146,0 0.1819,0.0734 0.0331,0.13345 -0.33073,0.13345 -0.36381,0 -0.51263,-0.06 -0.33073,-0.13345 z m -67.625412,-0.61852 c 0,-0.3638 0.06005,-0.51263 0.133452,-0.33073 0.0734,0.1819 0.0734,0.47956 0,0.66146 -0.0734,0.1819 -0.133452,0.0331 -0.133452,-0.33073 z m 58.817132,-0.0176 c -0.0959,-0.1552 -0.11765,-0.33893 -0.0483,-0.40828 0.0694,-0.0694 0.1966,0.0576 0.28278,0.28218 0.1789,0.46623 0.0264,0.54824 -0.23448,0.1261 z m -60.669215,-0.77615 c 0,-0.3638 0.06005,-0.51263 0.133452,-0.33073 0.0734,0.1819 0.0734,0.47956 0,0.66146 -0.0734,0.1819 -0.133452,0.0331 -0.133452,-0.33073 z m 6.39291,-1.32292 c 0,-0.94588 0.04802,-1.33284 0.106712,-0.85989 0.05869,0.47294 0.05869,1.24684 0,1.71979 -0.05869,0.47294 -0.106712,0.086 -0.106712,-0.8599 z m 56.112795,-3.04271 c 2.7e-4,-2.18281 0.0413,-3.04057 0.0911,-1.90613 0.0497,1.13443 0.0494,2.92037 -8e-4,3.96875 -0.0501,1.04837 -0.0908,0.1202 -0.0904,-2.06262 z m 11.63123,1.45521 c 0,-1.38245 0.0446,-1.94799 0.0991,-1.25677 0.0545,0.69122 0.0545,1.82232 0,2.51354 -0.0545,0.69123 -0.0991,0.12568 -0.0991,-1.25677 z m 13.21847,0.79375 c 0,-0.94588 0.048,-1.33284 0.10672,-0.85989 0.0587,0.47294 0.0587,1.24684 0,1.71979 -0.0587,0.47294 -0.10672,0.086 -0.10672,-0.8599 z m -2.15958,0.79375 c 0,-0.3638 0.0601,-0.51263 0.13346,-0.33073 0.0734,0.1819 0.0734,0.47956 0,0.66146 -0.0734,0.1819 -0.13346,0.0331 -0.13346,-0.33073 z m -1.85208,-0.52917 c 0,-0.3638 0.0601,-0.51263 0.13345,-0.33072 0.0734,0.1819 0.0734,0.47955 0,0.66145 -0.0734,0.18191 -0.13345,0.0331 -0.13345,-0.33073 z m 5.86588,-1.71979 c 0.001,-1.01864 0.049,-1.40294 0.10627,-0.85399 0.0573,0.54895 0.0563,1.38238 -0.002,1.85208 -0.0585,0.4697 -0.10532,0.0206 -0.10414,-0.99809 z M 58.362745,148.2418 c 0,-0.3638 0.06005,-0.51263 0.133452,-0.33072 0.0734,0.1819 0.0734,0.47955 0,0.66145 -0.0734,0.18191 -0.133452,0.0331 -0.133452,-0.33073 z m -1.84228,-0.66145 c 0.0054,-0.43657 0.06469,-0.58313 0.131774,-0.3257 0.06708,0.25743 0.06267,0.61462 -0.0098,0.79375 -0.07248,0.17913 -0.127363,-0.0315 -0.121971,-0.46805 z m 72.531075,-2.11667 c 0.001,-1.01865 0.049,-1.40294 0.10627,-0.854 0.0573,0.54895 0.0563,1.38239 -0.002,1.85209 -0.0584,0.4697 -0.10531,0.0206 -0.10413,-0.99809 z m -11.65643,-2.51354 c 0,-0.65485 0.0516,-0.92274 0.11466,-0.59531 0.0631,0.32742 0.0631,0.8632 0,1.19062 -0.0631,0.32742 -0.11466,0.0595 -0.11466,-0.59531 z m -59.847003,-2.00642 c 0.01269,-0.30823 0.07539,-0.37092 0.159852,-0.15986 0.07643,0.191 0.06703,0.4192 -0.02089,0.50712 -0.08792,0.0879 -0.150453,-0.0683 -0.138964,-0.34726 z m 73.584853,-0.50712 c 0.005,-0.43657 0.0647,-0.58313 0.13178,-0.3257 0.0671,0.25743 0.0627,0.61462 -0.01,0.79375 -0.0725,0.17913 -0.12736,-0.0315 -0.12197,-0.46805 z m -71.73277,-0.55122 c 0.0127,-0.30822 0.07539,-0.37092 0.159852,-0.15985 0.07643,0.19099 0.06703,0.4192 -0.02089,0.50712 -0.08792,0.0879 -0.150452,-0.0684 -0.138964,-0.34727 z m 60.0813,-0.11024 c 0,-0.3638 0.0601,-0.51263 0.13345,-0.33073 0.0734,0.1819 0.0734,0.47956 0,0.66146 -0.0734,0.1819 -0.13345,0.0331 -0.13345,-0.33073 z m 9.78958,-0.52917 c 0,-0.3638 0.0601,-0.51263 0.13346,-0.33073 0.0734,0.1819 0.0734,0.47956 0,0.66146 -0.0734,0.1819 -0.13346,0.0331 -0.13346,-0.33073 z m -11.64166,-0.79375 c 0,-0.3638 0.0601,-0.51263 0.13345,-0.33073 0.0734,0.1819 0.0734,0.47956 0,0.66146 -0.0734,0.1819 -0.13345,0.0331 -0.13345,-0.33073 z M 57.283523,138.0333 c 0.0127,-0.30823 0.07539,-0.37092 0.159853,-0.15985 0.07643,0.19099 0.06703,0.4192 -0.02089,0.50711 -0.08792,0.0879 -0.150453,-0.0684 -0.138965,-0.34726 z m 1.882776,-1.56545 c 0.0054,-0.43657 0.06469,-0.58313 0.131773,-0.3257 0.06708,0.25743 0.06267,0.61462 -0.0098,0.79375 -0.07248,0.17913 -0.127363,-0.0315 -0.12197,-0.46805 z m 32.161439,0.47473 c 0.327422,-0.0631 0.863203,-0.0631 1.190625,0 0.327422,0.0631 0.05953,0.11466 -0.595312,0.11466 -0.654844,0 -0.922735,-0.0516 -0.595313,-0.11466 z m -6.876081,-0.26499 c 0.329118,-0.0633 0.805368,-0.0609 1.058333,0.005 0.252966,0.0662 -0.01633,0.118 -0.598397,0.11506 -0.582084,-0.003 -0.789054,-0.0571 -0.459936,-0.1204 z m 35.273533,-0.23179 c 0.0127,-0.30823 0.0754,-0.37092 0.15985,-0.15985 0.0764,0.19099 0.067,0.4192 -0.0209,0.50711 -0.0879,0.0879 -0.15045,-0.0684 -0.13896,-0.34726 z m 11.64167,0 c 0.0127,-0.30823 0.0754,-0.37092 0.15985,-0.15985 0.0764,0.19099 0.067,0.4192 -0.0209,0.50711 -0.0879,0.0879 -0.15045,-0.0684 -0.13896,-0.34726 z m -52.601795,-0.029 c 0.257432,-0.0671 0.614619,-0.0627 0.79375,0.01 0.179131,0.0725 -0.03149,0.12736 -0.468056,0.12197 -0.436562,-0.005 -0.583125,-0.0647 -0.325694,-0.13177 z m -4.762499,-0.26458 c 0.257431,-0.0671 0.614618,-0.0627 0.79375,0.01 0.179131,0.0725 -0.03149,0.12736 -0.468056,0.12197 -0.436563,-0.005 -0.583125,-0.0647 -0.325694,-0.13178 z m -3.841494,-0.25646 c 0.181901,-0.0734 0.479558,-0.0734 0.661459,0 0.181901,0.0734 0.03307,0.13346 -0.33073,0.13346 -0.363802,0 -0.51263,-0.0601 -0.330729,-0.13346 z m -3.158463,-0.27009 c 0.190996,-0.0764 0.419199,-0.067 0.507118,0.0209 0.08792,0.0879 -0.06835,0.15046 -0.347266,0.13897 -0.308224,-0.0127 -0.370919,-0.0754 -0.159852,-0.15985 z m -3.175,-0.26458 c 0.190996,-0.0764 0.419199,-0.067 0.507118,0.0209 0.08792,0.0879 -0.06835,0.15045 -0.347266,0.13897 -0.308224,-0.0127 -0.370919,-0.0754 -0.159852,-0.15986 z m 65.687161,-0.23819 c 0.0127,-0.30822 0.0754,-0.37092 0.15985,-0.15985 0.0764,0.19099 0.067,0.4192 -0.0209,0.50712 -0.0879,0.0879 -0.15046,-0.0683 -0.13897,-0.34727 z m -68.862161,-0.0264 c 0.190996,-0.0764 0.419199,-0.067 0.507118,0.0209 0.08792,0.0879 -0.06835,0.15045 -0.347266,0.13896 -0.308224,-0.0127 -0.370919,-0.0754 -0.159852,-0.15985 z m 33.320963,-0.0107 c 0.472942,-0.0587 1.246848,-0.0587 1.719791,0 0.472943,0.0587 0.08599,0.10672 -0.859896,0.10672 -0.945885,0 -1.332838,-0.048 -0.859895,-0.10672 z m 21.700568,-2.6e-4 c 0.47555,-0.0589 1.18993,-0.0577 1.5875,0.003 0.39758,0.0604 0.008,0.10855 -0.86463,0.10706 -0.87313,-0.002 -1.19842,-0.0509 -0.72287,-0.10976 z M 85.245407,134.8256 c 0.329118,-0.0633 0.805368,-0.0609 1.058333,0.005 0.252966,0.0662 -0.01633,0.11801 -0.598397,0.11507 -0.582084,-0.003 -0.789054,-0.0571 -0.459936,-0.12041 z m -5.294752,-0.25277 c 0.181901,-0.0734 0.479558,-0.0734 0.661459,0 0.181901,0.0734 0.03307,0.13345 -0.33073,0.13345 -0.363802,0 -0.51263,-0.0601 -0.330729,-0.13345 z m -4.360589,-0.27271 c 0.257431,-0.0671 0.614618,-0.0627 0.79375,0.01 0.179131,0.0725 -0.03149,0.12737 -0.468056,0.12197 -0.436563,-0.005 -0.583125,-0.0647 -0.325694,-0.13177 z m -4.37066,-0.25646 c 0.181901,-0.0734 0.479557,-0.0734 0.661458,0 0.181901,0.0734 0.03307,0.13345 -0.330729,0.13345 -0.363802,0 -0.51263,-0.06 -0.330729,-0.13345 z m 48.770364,-0.24369 c 0.0127,-0.30823 0.0754,-0.37092 0.15985,-0.15986 0.0764,0.191 0.067,0.4192 -0.0209,0.50712 -0.0879,0.0879 -0.15046,-0.0684 -0.13897,-0.34726 z m -51.928828,-0.0264 c 0.190996,-0.0764 0.419199,-0.067 0.507118,0.0209 0.08792,0.0879 -0.06835,0.15045 -0.347265,0.13897 -0.308225,-0.0127 -0.37092,-0.0754 -0.159853,-0.15986 z m -3.175,-0.26459 c 0.190996,-0.0764 0.419199,-0.067 0.507118,0.0209 0.08792,0.0879 -0.06835,0.15045 -0.347265,0.13896 -0.308225,-0.0127 -0.37092,-0.0754 -0.159853,-0.15985 z m -3.704166,-0.26458 c 0.190996,-0.0764 0.419199,-0.067 0.507118,0.0209 0.08792,0.0879 -0.06835,0.15046 -0.347266,0.13897 -0.308224,-0.0127 -0.370919,-0.0754 -0.159852,-0.15985 z m 68.597584,-0.76735 c 0.0127,-0.30823 0.0754,-0.37092 0.15985,-0.15985 0.0764,0.19099 0.067,0.4192 -0.0209,0.50711 -0.0879,0.0879 -0.15045,-0.0684 -0.13896,-0.34726 z m 2.11666,-1.5875 c 0.0127,-0.30823 0.0754,-0.37092 0.15985,-0.15985 0.0764,0.19099 0.067,0.4192 -0.0209,0.50711 -0.0879,0.0879 -0.15046,-0.0683 -0.13897,-0.34726 z m -72.719917,-1.96233 c 0,-0.50932 0.05445,-0.71768 0.121,-0.46302 0.06655,0.25466 0.06655,0.67138 0,0.92604 -0.06655,0.25466 -0.121,0.0463 -0.121,-0.46302 z m 72.984507,-0.15434 c 0.0127,-0.30822 0.0754,-0.37092 0.15985,-0.15985 0.0764,0.19099 0.067,0.4192 -0.0209,0.50712 -0.0879,0.0879 -0.15045,-0.0684 -0.13896,-0.34727 z m -1.85209,-0.79375 c 0.0127,-0.30822 0.0754,-0.37092 0.15985,-0.15985 0.0764,0.19099 0.067,0.4192 -0.0209,0.50712 -0.0879,0.0879 -0.15046,-0.0684 -0.13897,-0.34727 z m -73.004108,-0.63941 c 0,-0.3638 0.06005,-0.51263 0.133452,-0.33073 0.0734,0.1819 0.0734,0.47956 0,0.66146 -0.0734,0.1819 -0.133452,0.0331 -0.133452,-0.33073 z m 58.646108,-0.7099 c 0.191,-0.0764 0.4192,-0.067 0.50712,0.0209 0.0879,0.0879 -0.0683,0.15045 -0.34726,0.13897 -0.30823,-0.0127 -0.37092,-0.0754 -0.15986,-0.15986 z m -3.45612,-0.25908 c 0.18191,-0.0734 0.47956,-0.0734 0.66146,0 0.1819,0.0734 0.0331,0.13346 -0.33073,0.13346 -0.3638,0 -0.51263,-0.0601 -0.33073,-0.13346 z m -3.70416,-0.26458 c 0.1819,-0.0734 0.47955,-0.0734 0.66146,0 0.1819,0.0734 0.0331,0.13345 -0.33073,0.13345 -0.36381,0 -0.51263,-0.0601 -0.33073,-0.13345 z m -3.70417,-0.26458 c 0.1819,-0.0734 0.47956,-0.0734 0.66146,0 0.1819,0.0734 0.0331,0.13345 -0.33073,0.13345 -0.3638,0 -0.51263,-0.0601 -0.33073,-0.13345 z m -3.96875,-0.26459 c 0.1819,-0.0734 0.47956,-0.0734 0.66146,0 0.1819,0.0734 0.0331,0.13346 -0.33073,0.13346 -0.3638,0 -0.51263,-0.0601 -0.33073,-0.13346 z m -4.625172,-0.27271 c 0.257432,-0.0671 0.614619,-0.0627 0.79375,0.01 0.179131,0.0725 -0.03149,0.12736 -0.468056,0.12197 -0.436562,-0.005 -0.583126,-0.0647 -0.325694,-0.13177 z m -5.561285,-0.26361 c 0.254662,-0.0666 0.67138,-0.0666 0.926042,0 0.254661,0.0665 0.0463,0.121 -0.463021,0.121 -0.509323,0 -0.717682,-0.0545 -0.463021,-0.121 z m -25.529206,-0.26933 c 0.329119,-0.0633 0.805369,-0.0609 1.058333,0.005 0.252965,0.0662 -0.01631,0.118 -0.598397,0.11506 -0.582083,-0.003 -0.789054,-0.0571 -0.459936,-0.1204 z m 18.389095,-0.003 c 0.402182,-0.0608 0.997495,-0.0592 1.322916,0.004 0.325422,0.0628 -0.0036,0.11255 -0.731242,0.11057 -0.727604,-0.002 -0.993857,-0.0534 -0.591674,-0.11419 z m 35.070188,0.009 c 0.191,-0.0764 0.4192,-0.067 0.50712,0.0209 0.0879,0.0879 -0.0683,0.15045 -0.34727,0.13897 -0.30822,-0.0127 -0.37092,-0.0754 -0.15985,-0.15986 z m -3.175,-0.26459 c 0.191,-0.0764 0.4192,-0.067 0.50712,0.0209 0.0879,0.0879 -0.0684,0.15045 -0.34727,0.13896 -0.30822,-0.0127 -0.37092,-0.0754 -0.15985,-0.15985 z m -3.43958,-0.26458 c 0.19099,-0.0764 0.4192,-0.067 0.50712,0.0209 0.0879,0.0879 -0.0684,0.15046 -0.34727,0.13897 -0.30823,-0.0127 -0.37092,-0.0754 -0.15985,-0.15985 z m -3.72071,-0.25909 c 0.18191,-0.0734 0.47956,-0.0734 0.66146,0 0.1819,0.0734 0.0331,0.13346 -0.33073,0.13346 -0.3638,0 -0.51263,-0.0601 -0.33073,-0.13346 z m -3.70416,-0.26458 c 0.1819,-0.0734 0.47956,-0.0734 0.66146,0 0.1819,0.0734 0.0331,0.13345 -0.33073,0.13345 -0.36381,0 -0.51263,-0.0601 -0.33073,-0.13345 z m -4.09601,-0.27271 c 0.25743,-0.0671 0.61462,-0.0627 0.79375,0.01 0.17913,0.0725 -0.0315,0.12736 -0.46805,0.12197 -0.43657,-0.005 -0.58313,-0.0647 -0.3257,-0.13178 z m -4.497915,-0.26458 c 0.257431,-0.0671 0.614619,-0.0627 0.79375,0.01 0.179131,0.0725 -0.03149,0.12737 -0.468056,0.12197 -0.436563,-0.005 -0.583126,-0.0647 -0.325694,-0.13177 z m -34.20243,-0.3302 c 0,-0.13693 0.09922,-0.31029 0.220486,-0.38524 0.121268,-0.0749 0.220486,0.0371 0.220486,0.24897 0,0.21188 -0.09922,0.38524 -0.220486,0.38524 -0.121267,0 -0.220486,-0.11204 -0.220486,-0.24897 z m 29.434895,0.0666 c 0.254661,-0.0665 0.67138,-0.0665 0.926042,0 0.254661,0.0665 0.0463,0.12101 -0.463021,0.12101 -0.509323,0 -0.717683,-0.0545 -0.463021,-0.12101 z m -24.479859,-0.27315 c 0.469697,-0.0585 1.303134,-0.0594 1.852083,-0.002 0.548949,0.0573 0.164652,0.1051 -0.853994,0.10627 -1.018646,0.001 -1.467786,-0.0457 -0.998089,-0.10413 z m 15.880901,-4.4e-4 c 0.472943,-0.0587 1.246849,-0.0587 1.719791,0 0.472943,0.0587 0.08599,0.10671 -0.859895,0.10671 -0.945886,0 -1.332839,-0.048 -0.859896,-0.10671 z m -28.044184,-7.92188 c 0.182807,-0.0737 0.253016,-0.27266 0.156018,-0.44214 -0.097,-0.16947 -0.07893,-0.21986 0.04015,-0.11199 0.119082,0.10788 0.406062,0.0504 0.637732,-0.12773 0.258088,-0.19844 0.226018,-0.0951 -0.08281,0.26688 -0.277215,0.32491 -0.634403,0.58135 -0.79375,0.56987 -0.16571,-0.012 -0.147452,-0.0782 0.04266,-0.15489 z m 28.06072,-0.005 c 0.190995,-0.0764 0.419198,-0.067 0.507119,0.0209 0.08792,0.0879 -0.06835,0.15045 -0.347265,0.13896 -0.308227,-0.0127 -0.37092,-0.0754 -0.159854,-0.15985 z m 3.96875,-0.52916 c 0.190995,-0.0764 0.419198,-0.067 0.507119,0.0209 0.08792,0.0879 -0.06835,0.15045 -0.347266,0.13897 -0.308226,-0.0127 -0.370919,-0.0754 -0.159853,-0.15985 z m 2.10013,-0.25908 c 0.181901,-0.0734 0.479558,-0.0734 0.661459,0 0.181901,0.0734 0.03307,0.13346 -0.33073,0.13346 -0.363802,0 -0.51263,-0.0601 -0.330729,-0.13346 z m 32.824872,-0.005 c 0.19099,-0.0764 0.4192,-0.067 0.50712,0.0209 0.0879,0.0879 -0.0684,0.15045 -0.34727,0.13896 -0.30823,-0.0127 -0.37092,-0.0754 -0.15985,-0.15985 z m -29.633335,-0.26458 c 0.190994,-0.0764 0.419198,-0.067 0.507119,0.0209 0.08792,0.0879 -0.06835,0.15046 -0.347266,0.13897 -0.308226,-0.0127 -0.370919,-0.0754 -0.159853,-0.15985 z m 27.252085,0 c 0.19099,-0.0764 0.4192,-0.067 0.50712,0.0209 0.0879,0.0879 -0.0684,0.15046 -0.34727,0.13897 -0.30823,-0.0127 -0.37092,-0.0754 -0.15985,-0.15985 z m -23.956295,-0.2672 c 0.257431,-0.0671 0.614619,-0.0627 0.79375,0.01 0.179131,0.0725 -0.03149,0.12736 -0.468056,0.12197 -0.436563,-0.005 -0.583126,-0.0647 -0.325694,-0.13178 z m 20.781295,0.003 c 0.19099,-0.0764 0.4192,-0.067 0.50712,0.0209 0.0879,0.0879 -0.0684,0.15045 -0.34727,0.13897 -0.30823,-0.0127 -0.37092,-0.0754 -0.15985,-0.15986 z m -36.247918,-0.26459 c 0.190994,-0.0764 0.419198,-0.067 0.507119,0.0209 0.08792,0.0879 -0.06835,0.15045 -0.347266,0.13896 -0.308226,-0.0127 -0.370919,-0.0754 -0.159853,-0.15985 z m 20.492308,-0.009 c 0.40218,-0.0608 0.9975,-0.0592 1.32292,0.004 0.32542,0.0628 -0.004,0.11256 -0.73124,0.11058 -0.72761,-0.002 -0.99386,-0.0534 -0.59168,-0.11419 z m 11.10886,0.007 c 0.25466,-0.0665 0.67138,-0.0665 0.92604,0 0.25467,0.0666 0.0463,0.121 -0.46302,0.121 -0.50932,0 -0.71768,-0.0545 -0.46302,-0.121 z m -23.134502,-1.05669 c 0.190995,-0.0764 0.419198,-0.067 0.507119,0.0209 0.08792,0.0879 -0.06835,0.15046 -0.347266,0.13897 -0.308226,-0.0127 -0.370919,-0.0754 -0.159853,-0.15985 z m 2.645833,-0.26459 c 0.190995,-0.0764 0.419198,-0.067 0.507119,0.0209 0.08792,0.0879 -0.06835,0.15045 -0.347265,0.13896 -0.308227,-0.0127 -0.37092,-0.0754 -0.159854,-0.15985 z m 29.633329,0 c 0.191,-0.0764 0.4192,-0.067 0.50712,0.0209 0.0879,0.0879 -0.0683,0.15045 -0.34726,0.13896 -0.30823,-0.0127 -0.37092,-0.0754 -0.15986,-0.15985 z m -26.722912,-0.26458 c 0.190995,-0.0764 0.419198,-0.067 0.507119,0.0209 0.08792,0.0879 -0.06835,0.15045 -0.347266,0.13896 -0.308226,-0.0127 -0.370919,-0.0754 -0.159853,-0.15985 z m 24.077082,0 c 0.191,-0.0764 0.4192,-0.067 0.50712,0.0209 0.0879,0.0879 -0.0683,0.15045 -0.34727,0.13896 -0.30822,-0.0127 -0.37092,-0.0754 -0.15985,-0.15985 z m -20.252125,-0.2672 c 0.257431,-0.0671 0.614619,-0.0627 0.79375,0.01 0.179131,0.0725 -0.03149,0.12736 -0.468056,0.12197 -0.436563,-0.005 -0.583126,-0.0647 -0.325694,-0.13177 z m 16.668745,0 c 0.25744,-0.0671 0.61462,-0.0627 0.79375,0.01 0.17914,0.0725 -0.0315,0.12736 -0.46805,0.12197 -0.43656,-0.005 -0.58313,-0.0647 -0.3257,-0.13177 z m -9.12429,-0.27659 c 0.76887,-0.0536 1.95949,-0.0531 2.64584,0.001 0.68634,0.0543 0.0573,0.0982 -1.39793,0.0975 -1.45521,-7.9e-4 -2.01677,-0.0451 -1.24791,-0.0987 z m 48.23233,-38.323565 c 0.0127,-0.308225 0.0754,-0.37092 0.15986,-0.159853 0.0764,0.190996 0.067,0.4192 -0.0209,0.507118 -0.0879,0.08792 -0.15045,-0.06835 -0.13897,-0.347265 z m -6.94966,-9.022234 c 0.19099,-0.07643 0.4192,-0.06703 0.50712,0.02089 0.0879,0.08792 -0.0684,0.150453 -0.34727,0.138964 -0.30822,-0.01269 -0.37092,-0.07539 -0.15985,-0.159852 z"
         id="path4030" /><path
         style="fill:#4d3a35;stroke-width:0.264583"
         d="m 119.23652,152.73972 c 0,-0.50932 0.0545,-0.71768 0.121,-0.46302 0.0666,0.25466 0.0666,0.67138 0,0.92604 -0.0665,0.25466 -0.121,0.0463 -0.121,-0.46302 z m 9.8292,-2.51354 c 5.3e-4,-1.74625 0.0434,-2.42619 0.0952,-1.51099 0.0518,0.91521 0.0514,2.34396 -0.001,3.175 -0.0523,0.83105 -0.0947,0.0822 -0.0942,-1.66401 z m 1.80266,2.38125 c 0.005,-0.43656 0.0647,-0.58313 0.13177,-0.32569 0.0671,0.25743 0.0627,0.61461 -0.01,0.79375 -0.0725,0.17913 -0.12737,-0.0315 -0.12197,-0.46806 z m -13.47327,-0.92604 c 0,-0.65485 0.0516,-0.92274 0.11466,-0.59531 0.0631,0.32742 0.0631,0.8632 0,1.19062 -0.0631,0.32742 -0.11466,0.0595 -0.11466,-0.59531 z m 13.50097,-5.82084 c 0,-0.80036 0.0496,-1.12778 0.11023,-0.7276 0.0606,0.40018 0.0606,1.05503 0,1.45521 -0.0606,0.40018 -0.11023,0.0728 -0.11023,-0.72761 z m -13.49374,-0.52916 c 0,-0.80037 0.0496,-1.12779 0.11022,-0.72761 0.0606,0.40019 0.0606,1.05503 0,1.45521 -0.0606,0.40018 -0.11022,0.0728 -0.11022,-0.7276 z m 1.83418,-1.85209 c 0,-0.50932 0.0545,-0.71768 0.121,-0.46302 0.0666,0.25467 0.0666,0.67138 0,0.92605 -0.0665,0.25466 -0.121,0.0463 -0.121,-0.46303 z m 10.03455,-3.175 c 0,-0.3638 0.0601,-0.51263 0.13346,-0.33072 0.0734,0.1819 0.0734,0.47955 0,0.66145 -0.0734,0.18191 -0.13346,0.0331 -0.13346,-0.33073 z m -11.64166,-0.79375 c 0,-0.3638 0.0601,-0.51263 0.13345,-0.33072 0.0734,0.1819 0.0734,0.47955 0,0.66145 -0.0734,0.18191 -0.13345,0.0331 -0.13345,-0.33073 z m 13.47286,-0.15433 c 0.0127,-0.30823 0.0754,-0.37092 0.15985,-0.15986 0.0764,0.191 0.067,0.4192 -0.0209,0.50712 -0.0879,0.0879 -0.15046,-0.0684 -0.13897,-0.34726 z m -11.64166,-0.52917 c 0.0127,-0.30823 0.0754,-0.37092 0.15985,-0.15985 0.0764,0.19099 0.067,0.4192 -0.0209,0.50711 -0.0879,0.0879 -0.15045,-0.0683 -0.13896,-0.34726 z m -60.304115,-1.16858 c 0,-0.3638 0.06005,-0.51263 0.133452,-0.33073 0.0734,0.1819 0.0734,0.47956 0,0.66146 -0.0734,0.1819 -0.133452,0.0331 -0.133452,-0.33073 z m -1.852083,-0.52917 c 0,-0.3638 0.06005,-0.51263 0.133452,-0.33072 0.0734,0.1819 0.0734,0.47955 0,0.66145 -0.0734,0.18191 -0.133452,0.0331 -0.133452,-0.33073 z m 36.404576,-0.19139 c 0.472943,-0.0587 1.246849,-0.0587 1.719792,0 0.472942,0.0587 0.08599,0.10671 -0.859896,0.10671 -0.945885,0 -1.332839,-0.048 -0.859896,-0.10671 z m 22.092712,0.002 c 0.40018,-0.0606 1.05502,-0.0606 1.4552,0 0.40019,0.0606 0.0728,0.11022 -0.7276,0.11022 -0.80036,0 -1.12779,-0.0496 -0.7276,-0.11022 z M 86.168363,136.6823 c 0.254662,-0.0666 0.671381,-0.0666 0.926042,0 0.254662,0.0666 0.0463,0.121 -0.463021,0.121 -0.509323,0 -0.717682,-0.0545 -0.463021,-0.121 z m -6.217708,-0.25743 c 0.181901,-0.0734 0.479558,-0.0734 0.661459,0 0.181901,0.0734 0.03307,0.13345 -0.33073,0.13345 -0.363802,0 -0.51263,-0.0601 -0.330729,-0.13345 z m -4.7625,-0.26458 c 0.181901,-0.0734 0.479558,-0.0734 0.661459,0 0.181901,0.0734 0.03307,0.13345 -0.330729,0.13345 -0.363802,0 -0.512631,-0.0601 -0.33073,-0.13345 z m 54.326615,-0.2437 c 0.0127,-0.30822 0.0754,-0.37092 0.15985,-0.15985 0.0764,0.19099 0.067,0.4192 -0.0209,0.50712 -0.0879,0.0879 -0.15046,-0.0683 -0.13897,-0.34727 z m -9.78958,-0.26458 c 0.0127,-0.30823 0.0754,-0.37092 0.15985,-0.15985 0.0764,0.19099 0.067,0.4192 -0.0209,0.50711 -0.0879,0.0879 -0.15045,-0.0684 -0.13896,-0.34726 z m 11.64167,0 c 0.0127,-0.30823 0.0754,-0.37092 0.15985,-0.15985 0.0764,0.19099 0.067,0.4192 -0.0209,0.50711 -0.0879,0.0879 -0.15045,-0.0684 -0.13896,-0.34726 z m -63.570501,-0.0264 c 0.190996,-0.0764 0.419199,-0.067 0.507118,0.0209 0.08792,0.0879 -0.06835,0.15046 -0.347266,0.13897 -0.308224,-0.0127 -0.370919,-0.0754 -0.159852,-0.15985 z m -3.175,-0.26458 c 0.190996,-0.0764 0.419199,-0.067 0.507118,0.0209 0.08792,0.0879 -0.06835,0.15045 -0.347266,0.13897 -0.308224,-0.0127 -0.370919,-0.0754 -0.159852,-0.15986 z m -3.175,-0.26459 c 0.190996,-0.0764 0.419199,-0.067 0.507118,0.0209 0.08792,0.0879 -0.06835,0.15045 -0.347266,0.13896 -0.308224,-0.0127 -0.370919,-0.0754 -0.159852,-0.15985 z m 29.749088,-0.009 c 0.400182,-0.0606 1.055026,-0.0606 1.455208,0 0.400182,0.0606 0.07276,0.11023 -0.727604,0.11023 -0.800365,0 -1.127787,-0.0496 -0.727604,-0.11023 z m -7.403298,-0.25842 c 0.257431,-0.0671 0.614619,-0.0627 0.793749,0.01 0.179131,0.0725 -0.03149,0.12736 -0.468055,0.12197 -0.436563,-0.005 -0.583126,-0.0647 -0.325694,-0.13177 z m -4.899827,-0.25647 c 0.181901,-0.0734 0.479557,-0.0734 0.661458,0 0.181901,0.0734 0.03307,0.13345 -0.330729,0.13345 -0.363802,0 -0.51263,-0.0601 -0.330729,-0.13345 z m -4.216797,-0.2701 c 0.190996,-0.0764 0.419199,-0.067 0.507118,0.0209 0.08792,0.0879 -0.06835,0.15045 -0.347265,0.13896 -0.308225,-0.0127 -0.37092,-0.0754 -0.159853,-0.15985 z m -7.408333,-0.52916 c 0.190996,-0.0764 0.419199,-0.067 0.507118,0.0209 0.08792,0.0879 -0.06835,0.15045 -0.347265,0.13897 -0.308225,-0.0127 -0.37092,-0.0754 -0.159853,-0.15986 z m -3.175,-0.26459 c 0.190996,-0.0764 0.419199,-0.067 0.507118,0.0209 0.08792,0.0879 -0.06835,0.15045 -0.347265,0.13896 -0.308225,-0.0127 -0.37092,-0.0754 -0.159853,-0.15985 z m -3.704166,-0.26458 c 0.190996,-0.0764 0.419199,-0.067 0.507118,0.0209 0.08792,0.0879 -0.06835,0.15046 -0.347266,0.13897 -0.308224,-0.0127 -0.370919,-0.0754 -0.159852,-0.15985 z m 71.243414,-0.50277 c 0.0127,-0.30822 0.0754,-0.37092 0.15985,-0.15985 0.0764,0.19099 0.067,0.4192 -0.0209,0.50712 -0.0879,0.0879 -0.15045,-0.0684 -0.13896,-0.34727 z m -74.327028,-4.34358 c 0,-0.3638 0.06005,-0.51263 0.133452,-0.33072 0.0734,0.1819 0.0734,0.47955 0,0.66145 -0.0734,0.18191 -0.133452,0.0331 -0.133452,-0.33073 z m 1.831194,-0.6835 c 0.01269,-0.30823 0.07539,-0.37092 0.159853,-0.15985 0.07643,0.19099 0.06703,0.4192 -0.02089,0.50711 -0.08792,0.0879 -0.150453,-0.0684 -0.138964,-0.34726 z m 57.608664,-1.08473 c 0.191,-0.0764 0.4192,-0.067 0.50712,0.0209 0.0879,0.0879 -0.0683,0.15045 -0.34726,0.13897 -0.30823,-0.0127 -0.37092,-0.0754 -0.15986,-0.15986 z m -6.87916,-0.52917 c 0.19099,-0.0764 0.4192,-0.067 0.50712,0.0209 0.0879,0.0879 -0.0684,0.15046 -0.34727,0.13897 -0.30823,-0.0127 -0.37092,-0.0754 -0.15985,-0.15985 z m -3.70417,-0.26458 c 0.191,-0.0764 0.4192,-0.067 0.50712,0.0209 0.0879,0.0879 -0.0683,0.15045 -0.34727,0.13897 -0.30822,-0.0127 -0.37092,-0.0754 -0.15985,-0.15986 z m -3.96875,-0.26459 c 0.191,-0.0764 0.4192,-0.067 0.50712,0.0209 0.0879,0.0879 -0.0683,0.15045 -0.34727,0.13896 -0.30822,-0.0127 -0.37092,-0.0754 -0.15985,-0.15985 z m -4.514452,-0.25907 c 0.181901,-0.0734 0.479557,-0.0734 0.661458,0 0.181901,0.0734 0.03307,0.13345 -0.330729,0.13345 -0.363802,0 -0.51263,-0.06 -0.330729,-0.13345 z m -5.15434,-0.27271 c 0.257432,-0.0671 0.614619,-0.0627 0.79375,0.01 0.179131,0.0725 -0.03149,0.12736 -0.468056,0.12197 -0.436562,-0.005 -0.583125,-0.0647 -0.325694,-0.13178 z m -28.844617,-0.26361 c 0.254661,-0.0665 0.67138,-0.0665 0.926041,0 0.254662,0.0666 0.0463,0.121 -0.46302,0.121 -0.509323,0 -0.717683,-0.0545 -0.463021,-0.121 z m 22.224999,0 c 0.254662,-0.0665 0.67138,-0.0665 0.926042,0 0.254661,0.0666 0.0463,0.121 -0.463021,0.121 -0.509323,0 -0.717682,-0.0545 -0.463021,-0.121 z m 32.16341,0.002 c 0.191,-0.0764 0.4192,-0.067 0.50712,0.0209 0.0879,0.0879 -0.0683,0.15045 -0.34727,0.13896 -0.30822,-0.0127 -0.37092,-0.0754 -0.15985,-0.15985 z m -3.175,-0.26458 c 0.191,-0.0764 0.4192,-0.067 0.50712,0.0209 0.0879,0.0879 -0.0683,0.15045 -0.34727,0.13896 -0.30822,-0.0127 -0.37092,-0.0754 -0.15985,-0.15985 z m -3.43958,-0.26458 c 0.19099,-0.0764 0.4192,-0.067 0.50712,0.0209 0.0879,0.0879 -0.0684,0.15046 -0.34727,0.13897 -0.30823,-0.0127 -0.37092,-0.0754 -0.15985,-0.15985 z m -3.70417,-0.26459 c 0.191,-0.0764 0.4192,-0.067 0.50712,0.0209 0.0879,0.0879 -0.0684,0.15045 -0.34727,0.13896 -0.30822,-0.0127 -0.37092,-0.0754 -0.15985,-0.15985 z m -3.70417,-0.26458 c 0.191,-0.0764 0.4192,-0.067 0.50712,0.0209 0.0879,0.0879 -0.0683,0.15045 -0.34726,0.13896 -0.30823,-0.0127 -0.37092,-0.0754 -0.15986,-0.15985 z m -4.514449,-0.25901 c 0.181901,-0.0734 0.479559,-0.0734 0.661459,0 0.1819,0.0734 0.0331,0.13345 -0.33073,0.13345 -0.363802,0 -0.51263,-0.0601 -0.330729,-0.13345 z m -4.497916,-0.26459 c 0.181901,-0.0734 0.479557,-0.0734 0.661458,0 0.181901,0.0734 0.03307,0.13346 -0.330729,0.13346 -0.363802,0 -0.51263,-0.0601 -0.330729,-0.13346 z M 89.87253,122.924 c 0.254661,-0.0665 0.67138,-0.0665 0.926042,0 0.254661,0.0665 0.0463,0.12101 -0.463021,0.12101 -0.509323,0 -0.717682,-0.0545 -0.463021,-0.12101 z m -19.843749,-0.26458 c 0.254661,-0.0665 0.67138,-0.0665 0.926041,0 0.254662,0.0666 0.0463,0.121 -0.463021,0.121 -0.509323,0 -0.717682,-0.0545 -0.46302,-0.121 z m 9.260416,-0.0104 c 0.545703,-0.0571 1.438672,-0.0571 1.984375,0 0.545703,0.0571 0.09922,0.10379 -0.992188,0.10379 -1.091406,0 -1.53789,-0.0467 -0.992187,-0.10379 z M 126.98034,115.698 c 0.26339,-0.29104 0.53842,-0.52916 0.61118,-0.52916 0.0728,0 -0.0832,0.23812 -0.3466,0.52916 -0.26339,0.29105 -0.53842,0.52917 -0.61118,0.52917 -0.0728,0 0.0832,-0.23812 0.3466,-0.52917 z m -35.636065,-2.03282 c 0.190994,-0.0764 0.419198,-0.067 0.507119,0.0209 0.08792,0.0879 -0.06835,0.15045 -0.347266,0.13896 -0.308226,-0.0127 -0.370919,-0.0754 -0.159853,-0.15985 z m 3.175,-0.26458 c 0.190994,-0.0764 0.419197,-0.067 0.507119,0.0209 0.08792,0.0879 -0.06835,0.15046 -0.347266,0.13897 -0.308226,-0.0127 -0.370919,-0.0754 -0.159853,-0.15985 z m 22.473045,0.005 c 0.1819,-0.0734 0.47956,-0.0734 0.66146,0 0.1819,0.0734 0.0331,0.13346 -0.33073,0.13346 -0.3638,0 -0.51263,-0.0601 -0.33073,-0.13346 z m -17.991665,-0.26458 c 0.181901,-0.0734 0.479557,-0.0734 0.661458,0 0.181901,0.0734 0.03307,0.13345 -0.330729,0.13345 -0.363802,0 -0.51263,-0.0601 -0.330729,-0.13345 z m 14.022915,0 c 0.1819,-0.0734 0.47956,-0.0734 0.66146,0 0.1819,0.0734 0.0331,0.13345 -0.33073,0.13345 -0.3638,0 -0.51263,-0.0601 -0.33073,-0.13345 z m -53.413434,-0.81695 c -0.329107,-0.41965 -0.319749,-0.42901 0.0999,-0.0999 0.254661,0.19972 0.463021,0.40808 0.463021,0.46302 0,0.21776 -0.217272,0.0776 -0.562916,-0.36312 z m -2.673348,-0.90447 c 0.153749,-0.15375 0.43572,-0.22748 0.626602,-0.16386 0.198158,0.0661 0.07822,0.18599 -0.279546,0.27955 -0.440093,0.11508 -0.543395,0.0807 -0.347056,-0.11569 z m 37.830533,0.13393 c 0.181902,-0.0734 0.479558,-0.0734 0.661459,0 0.181901,0.0734 0.03307,0.13345 -0.330729,0.13345 -0.363802,0 -0.512631,-0.0601 -0.33073,-0.13345 z m 4.233334,-0.26459 c 0.181901,-0.0734 0.479557,-0.0734 0.661458,0 0.181901,0.0734 0.03307,0.13346 -0.330729,0.13346 -0.363802,0 -0.51263,-0.0601 -0.330729,-0.13346 z m 14.568615,-0.005 c 0.191,-0.0764 0.4192,-0.067 0.50712,0.0209 0.0879,0.0879 -0.0684,0.15045 -0.34726,0.13896 -0.30823,-0.0127 -0.37092,-0.0754 -0.15986,-0.15985 z m 22.4069,-3.25885 c 0.26339,-0.29104 0.53843,-0.52917 0.61119,-0.52917 0.0728,0 -0.0832,0.23813 -0.3466,0.52917 -0.26339,0.29104 -0.53842,0.52917 -0.61118,0.52917 -0.0728,0 0.0832,-0.23813 0.34659,-0.52917 z m 15.78449,-35.718752 c 0,-0.363802 0.06,-0.51263 0.13345,-0.330729 0.0734,0.181901 0.0734,0.479557 0,0.661458 -0.0734,0.181902 -0.13345,0.03307 -0.13345,-0.330729 z m 1.87703,-0.926041 c 0.003,-0.582084 0.0571,-0.789055 0.1204,-0.459936 0.0633,0.329118 0.0609,0.805368 -0.005,1.058333 -0.0662,0.252965 -0.118,-0.01631 -0.11507,-0.598397 z m -1.89792,-0.551216 c 0.0127,-0.308224 0.0754,-0.370919 0.15985,-0.159852 0.0764,0.190996 0.067,0.419199 -0.0209,0.507118 -0.0879,0.08792 -0.15046,-0.06835 -0.13897,-0.347266 z m -0.4429,-5.732639 -0.50403,-0.595312 0.59531,0.504028 c 0.32742,0.277215 0.59532,0.545106 0.59532,0.595313 0,0.211733 -0.21294,0.05542 -0.6866,-0.504029 z m -5.39882,-1.25677 c -0.33917,-0.219188 -0.32955,-0.25707 0.0661,-0.260532 0.25467,-0.0022 0.46303,0.115011 0.46303,0.260532 0,0.322688 -0.0299,0.322688 -0.52917,0 z"
         id="path4028" /><path
         style="fill:#252c2f;stroke-width:0.264583"
         d="m 123.6069,173.09144 c -1.2028,-0.70056 -1.41596,-1.83804 -1.78097,-9.5038 -0.14897,-3.1287 -0.34249,-6.61128 -0.43003,-7.73906 -0.15702,-2.02281 -0.15076,-2.05047 0.46367,-2.04647 0.34257,0.002 0.75837,0.0915 0.92399,0.19843 0.19638,0.12677 0.40407,2.35747 0.59701,6.4121 0.42027,8.83177 0.50776,9.92105 0.85868,10.69124 0.36134,0.79305 0.8961,0.88868 1.24597,0.22282 0.13381,-0.25466 0.33002,-4.23106 0.43603,-8.83644 l 0.19273,-8.37341 0.80617,-0.16124 c 0.44339,-0.0887 0.83746,-0.12994 0.8757,-0.0917 0.0382,0.0383 -0.0157,3.9979 -0.11991,8.79923 -0.19493,8.98266 -0.26878,9.55699 -1.33413,10.37494 -0.51068,0.39208 -2.10011,0.4231 -2.73491,0.0534 z m -64.620854,-5.31489 c -1.227843,-0.96582 -1.418127,-1.86588 -1.731601,-8.1906 -0.161383,-3.2561 -0.374436,-7.49257 -0.47345,-9.41438 l -0.180025,-3.4942 0.661561,0.15492 c 0.36386,0.0852 0.76073,0.24467 0.881936,0.35436 0.21755,0.19689 0.938463,11.49317 0.979147,15.34266 0.02419,2.28897 0.451641,3.79149 1.114813,3.91863 0.755495,0.14484 0.992958,-1.03933 0.992958,-4.95165 0,-2.00441 0.07857,-5.99053 0.17461,-8.85804 l 0.174611,-5.21365 0.817577,0.17493 c 0.449667,0.0962 0.829929,0.19078 0.845027,0.21016 0.192146,0.24667 -0.465366,18.14332 -0.69178,18.82936 -0.558479,1.69221 -2.196014,2.21465 -3.565384,1.1375 z m 83.043964,-9.19207 c -1.12992,-0.689 -1.44092,-1.74222 -1.60869,-5.44788 l -0.14375,-3.175 0.78819,-0.57538 0.78818,-0.57538 0.16839,2.16288 c 0.0926,1.18958 0.16909,2.71066 0.16997,3.38017 0.002,1.63656 0.45948,2.88375 1.05749,2.88375 0.26124,0 0.53633,-0.15989 0.61132,-0.35531 0.075,-0.19541 0.22152,-2.66596 0.32562,-5.4901 0.18912,-5.13039 0.18997,-5.13588 0.99486,-6.39157 0.44307,-0.69122 0.84078,-1.25677 0.8838,-1.25677 0.1241,0 -0.17625,11.38274 -0.33449,12.67687 -0.16538,1.35246 -1.28101,2.66955 -2.25989,2.66797 -0.33862,-5.3e-4 -0.98707,-0.22746 -1.441,-0.50425 z m -23.94399,-5.22658 c -0.64256,-0.17157 -0.8124,-3.48875 -0.5058,-9.8786 0.14314,-2.98317 0.2629,-5.66772 0.26613,-5.96567 0.006,-0.5364 -0.0718,-0.54062 -7.89947,-0.43052 -12.425275,0.17477 -29.238254,-0.43778 -43.492226,-1.58456 -3.89392,-0.31328 -7.161914,-0.48754 -7.262208,-0.38725 -0.235325,0.23532 0.331044,6.48601 0.862818,9.52242 0.225881,1.28977 0.353303,2.40243 0.28316,2.47258 -0.07014,0.0701 -0.478673,0.0504 -0.907842,-0.0439 -0.646005,-0.14188 -0.810027,-0.33976 -0.952972,-1.14965 -1.538072,-8.71441 -1.533122,-17.65084 0.01439,-25.9814 0.733427,-3.94818 0.703214,-5.59335 -0.1178,-6.41436 -0.65994,-0.65994 -1.511216,-0.49767 -2.718508,0.5182 l -0.853978,0.71857 0.342703,-0.65235 c 1.486628,-2.82987 2.824921,-3.3152 4.506032,-1.63408 1.327198,1.32719 1.472593,2.45624 0.833419,6.47183 -0.272166,1.70987 -0.481387,3.10885 -0.464937,3.10885 0.01645,0 0.779752,-0.71352 1.696225,-1.58561 4.113422,-3.9142 9.308533,-5.89481 19.03948,-7.2587 16.682641,-2.33825 29.297444,-2.61262 42.564314,-0.92579 l 4.2761,0.54369 2.03451,-0.72227 c 6.76339,-2.40105 10.16615,-7.05772 16.80086,-22.99194 4.28324,-10.286829 5.80663,-15.524008 5.41872,-18.628719 -0.34251,-2.741345 -1.99975,-5.012935 -4.47858,-6.138818 -0.97747,-0.443962 -1.01042,-0.48908 -0.36105,-0.494361 0.39302,-0.0032 1.34552,0.127338 2.11666,0.290075 1.10684,0.233578 1.63618,0.53817 2.51371,1.446439 3.02055,3.126326 2.56409,8.95101 -1.49931,19.132158 -2.02337,5.069705 -5.65767,13.449096 -6.95221,16.029306 -2.57267,5.12772 -5.69837,8.97669 -9.00999,11.09488 l -1.53321,0.98069 0.55133,0.89208 c 0.92153,1.49106 0.92806,3.00455 0.036,8.33959 -1.55129,9.27751 -2.0639,14.76453 -2.32944,24.93428 l -0.17098,6.54844 h -0.79012 -0.79012 l 0.15704,-8.13594 c 0.1816,-9.4082 0.98391,-17.71163 2.45357,-25.39284 0.77624,-4.05702 0.27999,-6.15872 -1.45418,-6.15872 -1.73932,0 -4.73823,3.00163 -6.62963,6.63565 -2.96423,5.6953 -4.12313,12.53113 -4.4259,26.10654 -0.10761,4.82489 -0.24407,6.93594 -0.44697,6.91462 -0.16064,-0.0169 -0.48451,-0.0821 -0.71972,-0.14488 z m 0.15696,-19.46974 c 0.2245,-1.77351 0.88999,-5.71708 1.08778,-6.446 0.17903,-0.65978 0.52656,-0.61396 -10.73896,-1.41598 -14.85143,-1.05731 -18.478015,-1.19051 -32.543749,-1.19524 -15.64221,-0.005 -15.154342,-0.0557 -16.328143,1.68801 -0.537599,0.79862 -0.60519,1.2179 -0.60519,3.7541 v 2.85508 l 1.12448,0.14024 c 3.147956,0.39259 22.546169,1.65585 27.979686,1.82211 1.382448,0.0423 8.663853,0.10163 16.180896,0.13183 l 13.66736,0.0549 z m 2.36596,-10.87897 c 0.88618,-2.42973 2.65093,-5.55343 4.0829,-7.22691 l 1.09086,-1.27485 -0.85639,-0.18132 c -0.47101,-0.0997 -2.58279,-0.3944 -4.69284,-0.65483 -3.05324,-0.37684 -5.86202,-0.47487 -13.75834,-0.48014 -10.962747,-0.007 -14.065468,0.19882 -23.944787,1.59086 -9.155617,1.29006 -13.440539,2.53133 -17.066945,4.94399 -1.440099,0.9581 -3.642825,3.01874 -3.421071,3.20039 0.0633,0.0519 2.794006,-0.003 6.068224,-0.12269 9.989399,-0.36408 28.028714,0.2933 44.087269,1.6066 8.65831,0.70809 7.57611,0.88836 8.41112,-1.4011 z"
         id="path4026" /></g></g></svg>
