<?xml version="1.0" encoding="UTF-8" standalone="no"?>
<!-- Created with Inkscape (http://www.inkscape.org/) -->

<svg
   width="219.20483mm"
   height="228.99445mm"
   viewBox="0 0 219.20483 228.99445"
   version="1.1"
   id="svg5"
   xml:space="preserve"
   inkscape:version="1.2.2 (b0a8486, 2022-12-01)"
   sodipodi:docname="Diagramm.svgz"
   inkscape:export-filename="arrow.svg"
   inkscape:export-xdpi="96"
   inkscape:export-ydpi="96"
   inkscape:dataloss="true"
   xmlns:inkscape="http://www.inkscape.org/namespaces/inkscape"
   xmlns:sodipodi="http://sodipodi.sourceforge.net/DTD/sodipodi-0.dtd"
   xmlns="http://www.w3.org/2000/svg"
   xmlns:svg="http://www.w3.org/2000/svg"><sodipodi:namedview
     id="namedview7"
     pagecolor="#ffffff"
     bordercolor="#000000"
     borderopacity="0.25"
     inkscape:showpageshadow="2"
     inkscape:pageopacity="0.0"
     inkscape:pagecheckerboard="0"
     inkscape:deskcolor="#d1d1d1"
     inkscape:document-units="mm"
     showgrid="false"
     inkscape:zoom="0.80444024"
     inkscape:cx="324.44921"
     inkscape:cy="551.31504"
     inkscape:window-width="1387"
     inkscape:window-height="1027"
     inkscape:window-x="196"
     inkscape:window-y="25"
     inkscape:window-maximized="0"
     inkscape:current-layer="layer1" /><defs
     id="defs2" /><g
     inkscape:label="Ebene 1"
     inkscape:groupmode="layer"
     id="layer1"
     transform="translate(204.01689,-86.760603)"><g
       id="g3081"><rect
         style="fill:#e5a50a;fill-opacity:0.311688;fill-rule:evenodd;stroke:#5e5c64;stroke-width:0.155;stroke-miterlimit:0;stroke-dasharray:none"
         id="rect3073"
         width="219.04984"
         height="215.76079"
         x="-203.93939"
         y="86.838104" /><path
         style="fill:#5e5c64;stroke:#f6f6f6;stroke-width:0.155;stroke-dasharray:none;stroke-opacity:1"
         d="m -102.26815,287.01696 c -6.37907,-3.63736 -9.71365,-5.01696 -15.12837,-6.25889 -49.4548,-11.34318 -79.19123,-63.00265 -63.73489,-110.7231 1.23536,-3.8141 2.04712,-7.2514 1.8039,-7.63842 -0.2432,-0.38703 -1.8022,-1.45543 -3.46442,-2.37421 -1.66223,-0.91877 -3.01628,-1.86116 -3.00901,-2.09416 0.007,-0.23315 3.11394,-2.10811 6.9037,-4.16695 5.84442,-3.17501 7.40547,-4.44962 10.28278,-8.39606 5.01139,-6.87344 14.65538,-16.0144 21.89149,-20.74963 35.66931,-23.34151 81.190177,-19.18842 111.980697,10.21651 2.49393,2.3817 4.73868,4.33035 4.98839,4.33035 0.24973,0 1.90748,-1.05128 3.68404,-2.3362 1.77653,-1.28487 3.41337,-2.15588 3.63738,-1.93555 0.22412,0.22044 0.73721,4.21948 1.14034,8.88696 0.66401,7.68802 1.05101,9.16293 4.11406,15.67898 19.2005202,40.84566 4.23515,88.44921 -35.11335,111.6922 -9.96273,5.88493 -24.56038,10.57154 -35.861005,11.51327 l -5.485449,0.45713 -0.223812,4.2818 -0.223813,4.28178 z m 21.090017,-6.48038 c 7.16518,-1.18207 16.2051,-4.23371 23.56688,-7.95551 38.69214,-19.56122 56.82960022,-63.2142 43.05972,-103.6356 -1.22412,-3.59342 -3.28329,-8.594 -4.57594,-11.11241 l -2.35025,-4.57893 -8.46629,-3.90743 -8.46627,-3.90743 3.53375,-2.49582 3.53374,-2.49581 -1.52259,-1.95277 c -2.73909,-3.51298 -12.37567,-11.36672 -18.53376,-15.10487 -7.45238,-4.52382 -15.23095,-7.75067 -24.74119,-10.2636 -6.47254,-1.71027 -8.778231,-1.93041 -20.609459,-1.96768 -14.667898,-0.0461 -20.470298,0.93808 -32.560568,5.52356 -13.51442,5.12562 -27.94874,15.87106 -36.8257,27.41442 l -2.93095,3.81132 v 9.9232 9.92317 l -4.20026,-2.33132 -4.20027,-2.33132 -0.65473,1.69835 c -12.21419,31.68311 -5.41389,66.19414 17.80324,90.35018 12.37503,12.87546 32.1609,23.50232 46.93877,25.21047 4.12214,0.47648 4.40032,0.38648 11.49382,-3.71933 3.998201,-2.31417 7.474676,-4.20762 7.725501,-4.20762 0.250867,0 0.456081,2.20144 0.456081,4.89206 v 4.89209 l 3.996471,-0.46171 c 2.198062,-0.25381 6.036674,-0.79827 8.530254,-1.20966 z m 33.98232,-23.37288 c -0.67875,-0.80431 -0.58615,-1.14413 0.41469,-1.52185 1.73802,-0.65592 0.46971,-1.75703 -2.37755,-2.06409 -3.0468,-0.32858 -4.5732,-3.94159 -2.34285,-5.54553 1.10387,-0.79382 1.69214,-0.83388 2.5048,-0.17063 0.90122,0.73561 0.87944,0.96744 -0.14386,1.53064 -1.69124,0.93081 -0.72101,2.06904 1.76367,2.06904 2.49378,0 3.91348,1.22216 3.91348,3.36895 0,1.52029 -1.28556,3.36899 -2.34273,3.36899 -0.28368,0 -0.90902,-0.466 -1.38965,-1.03557 z m -103.372117,-0.95348 c -1.16476,-2.98518 3.85144,-7.02411 6.04471,-4.86707 1.13229,1.11356 8e-5,4.83994 -1.31927,4.34201 -0.70537,-0.26625 -0.92665,-0.0337 -0.64791,0.68058 0.30373,0.77844 -0.144,1.08485 -1.58513,1.08485 -1.16752,0 -2.21105,-0.51931 -2.4924,-1.24037 z m 111.728437,-1.65038 c -0.46517,-0.85481 -2.40365,-2.45211 -4.30771,-3.54954 -2.20885,-1.27308 -3.19774,-2.25515 -2.73204,-2.71314 0.46569,-0.45799 1.3314,-0.40123 2.39171,0.15675 1.5546,0.81827 1.60444,0.76926 0.77243,-0.75967 -1.28133,-2.35465 0.22499,-3.53358 1.6928,-1.32491 2.79771,4.20985 4.50992,8.2877 3.78095,9.00466 -0.49569,0.48751 -1.04093,0.20968 -1.59814,-0.81423 z m -115.625397,-1.81119 c -0.60042,-0.71149 -0.0489,-1.76169 2.16138,-4.11593 3.02029,-3.21692 4.0946,-3.74402 4.92794,-2.41793 0.64179,1.02127 -0.27638,2.35919 -3.52036,5.1296 -2.16651,1.85024 -2.93684,2.15334 -3.56896,1.40426 z m -4.26816,-4.21967 c -1.57937,-1.71636 -0.74322,-3.83246 2.28557,-5.78421 1.80655,-1.16416 1.98843,-1.1458 3.39877,0.34302 1.99202,2.10289 1.89509,2.66464 -0.85203,4.93802 -2.80247,2.31917 -3.12987,2.35328 -4.83231,0.50317 z m 3.8179,-3.61291 c -0.52791,-0.51917 -1.97212,0.5357 -1.97212,1.44051 0,0.49642 0.43678,0.43963 1.16024,-0.15082 0.63814,-0.52087 1.00349,-1.10118 0.81188,-1.28964 z m 115.923977,1.43912 c -2.37948,-2.09094 -2.38985,-2.13098 -1.06631,-4.11761 0.73512,-1.10339 1.56165,-2.00614 1.83679,-2.00614 0.27506,0 1.80112,1.05459 3.39107,2.34352 2.04123,1.65474 2.65307,2.57738 2.08177,3.13922 -0.57128,0.56184 -1.53774,0.27984 -3.2883,-0.95951 l -2.47927,-1.75521 2.10406,2.22404 c 1.91318,2.02224 2.08086,3.24318 0.4454,3.24318 -0.34228,0 -1.70364,-0.95015 -3.02521,-2.11149 z m -124.038927,-3.5662 c -1.18972,-1.40984 -0.44813,-2.87154 2.5879,-5.10083 1.63586,-1.20116 2.22343,-1.30987 2.98607,-0.55242 0.75901,0.7538 0.72042,1.07352 -0.19236,1.59374 -0.62802,0.35793 -1.82696,1.20817 -2.66432,1.88942 -0.84972,0.69132 -0.28768,0.53776 1.27188,-0.34747 3.65067,-2.07222 4.94165,-0.59478 1.70554,1.95184 -2.5954,2.04245 -4.3052,2.2123 -5.6947,0.56572 z m 129.105587,-1.3088 c -3.55351,-1.90892 -4.95052,-3.42605 -4.41607,-4.79582 0.56798,-1.45571 3.08886,-0.42291 6.18431,2.53371 3.37542,3.22398 2.38383,4.49253 -1.76824,2.26211 z m -132.054477,-3.06936 c -0.65177,-0.77235 0.3481,-1.67672 4.60108,-4.16162 4.22698,-2.46973 5.57348,-2.95259 6.06269,-2.17412 0.34588,0.55039 0.56186,1.05487 0.47995,1.12105 -0.0819,0.0663 -2.43538,1.48859 -5.22995,3.16093 -4.08548,2.44482 -5.2442,2.84724 -5.91377,2.05376 z m 132.251127,-2.01171 c -3.56594,-2.05467 -4.97612,-3.27533 -4.67509,-4.04684 0.53077,-1.36032 1.008,-1.35636 2.8622,0.0226 1.28272,0.95475 1.56508,0.93014 2.42016,-0.21108 0.91205,-1.2171 1.13038,-1.20652 3.77427,0.18278 2.94777,1.54911 4.28781,3.47201 2.767,3.97058 -0.49402,0.16185 -0.8982,0.75182 -0.8982,1.31086 0,1.93 -1.1629,1.70112 -6.25034,-1.23022 z m 5.48912,-0.25891 c 0,-0.19127 -0.77076,-0.71532 -1.71277,-1.16429 -1.64476,-0.78387 -1.65407,-0.77007 -0.23506,0.34798 1.55309,1.22375 1.94788,1.38918 1.94788,0.81631 z M -168.279,234.29145 c -1.29877,-2.38672 -0.91013,-3.69197 1.45789,-4.8963 2.98888,-1.52009 4.38968,-1.43983 5.33965,0.30589 1.26249,2.32001 0.96506,2.92461 -2.22659,4.52598 -3.68143,1.8471 -3.60148,1.84596 -4.57095,0.0645 z m 3.77939,-2.29522 c 0.98404,-0.62542 0.96395,-0.72731 -0.14538,-0.73718 -0.70798,-0.005 -1.49894,0.32543 -1.7577,0.73718 -0.59543,0.94752 0.4123,0.94752 1.90308,0 z m 136.615027,0.0363 c -2.62819,-1.0477 -3.62218,-2.71945 -2.6639,-4.48038 1.07115,-1.96843 3.08276,-1.96611 5.63262,0.005 2.32579,1.79925 2.44695,2.39943 0.80953,4.00983 -1.33457,1.3125 -1.57567,1.34212 -3.77825,0.46408 z m -143.722527,-4.85421 c -0.63958,-1.63917 5.37487,-6.17394 6.58584,-4.96558 0.69719,0.69569 0.56642,1.14412 -0.57538,1.97293 -1.44658,1.05003 -1.44352,1.07258 0.14538,1.07258 1.44548,0 3.05319,1.23987 2.36004,1.82004 -0.14659,0.12282 -2.02577,0.44369 -4.17594,0.71329 -3.07217,0.38518 -4.00161,0.25381 -4.33994,-0.61326 z m 147.935767,-1.35367 c 0,-0.73546 -0.65987,-0.96047 -2.17521,-0.74174 -2.53119,0.36535 -3.61703,-1.31712 -2.35128,-3.64315 0.8679,-1.59492 2.59494,-1.15857 1.95061,0.49284 -0.32027,0.82083 -0.034,0.85252 1.49869,0.1658 2.46467,-1.10444 4.97852,0.90856 3.67421,2.94214 -1.05866,1.65064 -2.59702,2.11508 -2.59702,0.78408 z m -149.452827,-3.4066 c -0.16486,-0.29085 -0.51581,-1.41959 -0.77989,-2.50833 -0.46458,-1.91543 -0.3091,-2.02078 4.79982,-3.2521 2.90397,-0.69992 5.64184,-1.05261 6.08414,-0.78376 1.25658,0.76379 0.98115,4.14374 -0.33766,4.14374 -0.62802,0 -1.14185,-0.33688 -1.14185,-0.74865 0,-0.41179 -0.55048,-0.74867 -1.2233,-0.74867 -0.74287,0 -1.0607,0.41668 -0.80929,1.06103 0.22769,0.58357 -0.0912,1.2517 -0.70861,1.48471 -0.61743,0.23316 -1.30926,-0.0549 -1.5374,-0.63945 -0.22816,-0.58468 -0.87866,-0.88804 -1.44559,-0.67407 -0.56693,0.21392 -0.86145,0.82301 -0.65448,1.35344 0.39206,1.00482 -1.72047,2.23902 -2.24589,1.31211 z m 149.833447,-1.77022 c -1.25604,-0.41186 -2.79753,-0.94238 -3.42557,-1.17893 -0.62802,-0.23656 -1.74131,-0.35712 -2.47399,-0.26797 -0.89147,0.10839 -1.33216,-0.34877 -1.33216,-1.38225 0,-1.47933 1.47555,-2.08961 2.53444,-1.04822 0.27736,0.27277 1.49155,0.60242 2.69791,0.7323 3.80765,0.40997 6.19924,1.61014 5.70956,2.86521 -0.50706,1.29948 -0.58331,1.30525 -3.71019,0.27984 z m 1.56802,-4.5997 c -1.53673,-1.10093 -2.31569,-1.31114 -2.5288,-0.68244 -0.16947,0.49973 -0.78467,0.90861 -1.36732,0.90861 -0.78433,0 -0.93714,-0.63177 -0.58846,-2.43314 0.61821,-3.19413 0.65023,-3.21377 2.88945,-1.7708 1.14471,0.73764 2.64501,1.06138 3.70559,0.79959 1.6266,-0.40153 1.75213,-0.23882 1.43808,1.86574 -0.4533,3.03746 -0.90668,3.20512 -3.54854,1.31244 z m -2.13895,-5.82308 c -3.15959,-1.80989 -0.65349,-5.64631 3.15145,-4.82441 3.11611,0.67311 4.22857,2.11461 3.15478,4.08788 -0.91604,1.68333 -4.02038,2.04592 -6.30623,0.73653 z m 4.27178,-2.56035 c -0.24111,-0.61763 -0.57282,-1.12297 -0.73735,-1.12297 -0.16458,0 -0.29919,0.50534 -0.29919,1.12297 0,0.61765 0.33181,1.12301 0.73735,1.12301 0.40552,0 0.54016,-0.50536 0.29919,-1.12301 z M -134.7923,132.61163 c -0.44749,-1.54412 -1.02398,-4.2393 -1.2811,-5.98928 -0.74739,-5.08677 1.26916,-4.19984 7.6999,3.38666 1.07557,1.26885 1.22312,1.91828 0.57964,2.55112 -0.64349,0.63286 -1.15891,0.60766 -2.02473,-0.0991 -0.97786,-0.79817 -1.28087,-0.63926 -1.91651,1.00498 -1.05463,2.72805 -2.10398,2.43477 -3.0572,-0.85445 z m 8.35296,-2.76243 c -0.4179,-1.05419 -1.09389,-2.75895 -1.50221,-3.78836 -0.48236,-1.2161 -0.48236,-1.90442 0,-1.96522 1.51378,-0.19072 1.90727,-0.31803 2.90212,-0.93821 1.28113,-0.79865 2.01922,-0.0705 3.52543,3.47761 1.19328,2.81102 1.19058,2.82265 -0.8312,3.57862 -1.1156,0.41714 -2.32221,0.93706 -2.68135,1.15535 -0.35914,0.21844 -0.9949,-0.46561 -1.41279,-1.51979 z m 2.37805,-2.42204 c -0.89738,-1.5177 -1.11407,-1.03191 -0.3795,0.85072 0.26107,0.66908 0.63502,1.0588 0.83101,0.86604 0.19599,-0.1927 -0.007,-0.96531 -0.45151,-1.71676 z m 16.86474,0.7551 c 0.21731,-1.11799 -0.24602,-3.45092 -1.0531,-5.30269 -1.76964,-4.06022 -1.77232,-3.93099 0.0813,-3.93099 0.9241,0 1.54143,0.51493 1.57072,1.31015 0.0369,1.00383 0.20923,0.91627 0.7367,-0.37433 0.37865,-0.92645 1.21986,-1.68447 1.86935,-1.68447 0.82532,0 1.07093,0.50717 0.81572,1.68447 -0.20085,0.92647 -0.74548,3.62165 -1.21032,5.98929 -0.594,3.02539 -1.19486,4.30478 -2.02179,4.30478 -0.86417,0 -1.07359,-0.53009 -0.78862,-1.99621 z m -12.164,-0.40364 c -1.16647,-1.45381 -1.76544,-4.59744 -1.08292,-5.68357 0.33136,-0.52727 1.55538,-1.02983 2.72005,-1.11675 1.89206,-0.14121 2.22636,0.19749 3.13895,3.18104 0.56176,1.8365 0.95061,3.39742 0.86413,3.46869 -1.00481,0.828 -5.01086,0.93499 -5.64021,0.15054 z m 2.15036,-3.34612 c -0.66345,-1.12207 -0.812,-1.15441 -0.83101,-0.1808 -0.0245,1.26079 0.77584,2.396 1.31536,1.86542 0.17795,-0.17486 -0.0401,-0.93302 -0.48435,-1.6845 z m 3.77585,-1.89296 c -0.50083,-2.59268 -1.08546,-5.30351 -1.29914,-6.02412 -0.27382,-0.92334 0.0402,-1.31014 1.06332,-1.31014 1.20412,0 1.62015,0.92617 2.43814,5.42777 1.15498,6.35612 1.16314,6.11399 -0.21563,6.39846 -0.7674,0.15817 -1.33727,-1.1302 -1.98669,-4.49197 z m 20.164465,2.71917 c -2.184999,-2.14893 -0.9453,-7.05878 1.782296,-7.05878 2.226817,0 3.315032,1.87182 2.702438,4.64846 -0.788043,3.57184 -2.414753,4.44609 -4.484734,2.41032 z m 2.229331,-1.81817 c 0.258762,-0.41176 0.107741,-0.74865 -0.335683,-0.74865 -0.443397,0 -0.806164,0.33689 -0.806164,0.74865 0,0.41176 0.151049,0.74865 0.335684,0.74865 0.184621,0 0.547401,-0.33689 0.806163,-0.74865 z m -9.891126,0.93583 c 1.144912,-2.7351 1.286172,-3.93046 0.46448,-3.93046 -0.4675,0 -0.85002,-0.50537 -0.85002,-1.123 0,-0.78835 0.80923,-1.12298 2.715632,-1.12298 2.844593,0 2.882155,0.12588 1.285253,4.30479 -0.196674,0.51469 0.02163,0.93582 0.485088,0.93582 0.46347,0 0.842672,0.50533 0.842672,1.12298 0,0.79066 -0.812569,1.123 -2.745763,1.123 -2.316452,0 -2.660012,-0.20487 -2.197342,-1.31015 z"
         id="path67210"
         inkscape:export-filename="diagramm.svg"
         inkscape:export-xdpi="96"
         inkscape:export-ydpi="96" /><path
         style="fill:#e5a50a;fill-rule:evenodd;stroke:#5e5c64;stroke-width:1.794;stroke-miterlimit:0"
         d="m -170.39121,147.68528 c 0.6578,19.07641 0.6578,19.73422 0.6578,19.73422 l -15.78737,-8.8804 z"
         id="path358" /><path
         style="fill:#e5a50a;fill-rule:evenodd;stroke:#9a9996;stroke-width:1.794;stroke-miterlimit:0"
         d="M -115.79321,315.75505 Z"
         id="path2675" /><path
         style="fill:#e5a50a;fill-rule:evenodd;stroke:#5e5c64;stroke-width:1.794;stroke-miterlimit:0"
         d="m -94.743374,272.99757 0.328904,18.08969 -17.7608,-9.20929 z"
         id="path2805" /><path
         style="fill:#e5a50a;fill-rule:evenodd;stroke:#5e5c64;stroke-width:1.794;stroke-miterlimit:0"
         d="m -23.371282,134.85804 -14.800665,10.85382 18.0897,8.8804 z"
         id="path2807" /></g></g></svg>
