<?xml version="1.0" encoding="UTF-8" standalone="no"?>
<!-- Created with Inkscape (http://www.inkscape.org/) -->

<svg
   width="48"
   height="48"
   viewBox="0 0 12.7 12.7"
   version="1.1"
   id="svg5"
   xml:space="preserve"
   inkscape:export-filename="uniqueness.svg"
   inkscape:export-xdpi="96"
   inkscape:export-ydpi="96"
   inkscape:version="1.2.2 (b0a8486, 2022-12-01)"
   sodipodi:docname="exclusive.svg"
   xmlns:inkscape="http://www.inkscape.org/namespaces/inkscape"
   xmlns:sodipodi="http://sodipodi.sourceforge.net/DTD/sodipodi-0.dtd"
   xmlns="http://www.w3.org/2000/svg"
   xmlns:svg="http://www.w3.org/2000/svg"><sodipodi:namedview
     id="namedview7"
     pagecolor="#ffffff"
     bordercolor="#000000"
     borderopacity="0.25"
     inkscape:showpageshadow="2"
     inkscape:pageopacity="0.0"
     inkscape:pagecheckerboard="0"
     inkscape:deskcolor="#ffffff"
     inkscape:document-units="mm"
     showgrid="false"
     inkscape:zoom="1.6088805"
     inkscape:cx="142.335"
     inkscape:cy="216.61025"
     inkscape:window-width="1387"
     inkscape:window-height="1027"
     inkscape:window-x="196"
     inkscape:window-y="25"
     inkscape:window-maximized="0"
     inkscape:current-layer="layer1" /><defs
     id="defs2" /><g
     inkscape:label="Ebene 1"
     inkscape:groupmode="layer"
     id="layer1"><g
       id="g5821"
       transform="matrix(0.37488788,0,0,0.42253592,0.35339896,0.24955981)"><g
         id="g5238"
         transform="matrix(2.6217124,0,0,2.3367289,-0.91396379,-0.58142222)"><g
           id="g3142"
           transform="matrix(0.53383734,0,0,0.56259258,-9.7454004,-52.453273)"
           style="fill:#e5a50a"><path
             style="fill:#e5a50a;stroke-width:0.352778"
             d="m 35.810163,103.28856 c 0.343241,-0.0894 0.819491,-0.0836 1.058334,0.0131 0.238841,0.0966 -0.04199,0.16982 -0.624076,0.16263 -0.582083,-0.007 -0.777499,-0.0863 -0.434258,-0.1757 z m 3.880556,0 c 0.343241,-0.0894 0.819491,-0.0836 1.058333,0.0131 0.238842,0.0966 -0.04199,0.16982 -0.624075,0.16263 -0.582083,-0.007 -0.7775,-0.0863 -0.434258,-0.1757 z M 26.636078,98.693773 c 0.536244,-0.08109 1.329994,-0.07892 1.763888,0.0048 0.433895,0.08374 -0.0048,0.15008 -0.974989,0.147432 -0.970139,-0.0026 -1.325144,-0.07116 -0.788899,-0.152247 z m 5.997222,0 c 0.536244,-0.08109 1.329994,-0.07892 1.763889,0.0048 0.433894,0.08374 -0.0049,0.15008 -0.97499,0.147432 -0.970139,-0.0026 -1.325144,-0.07116 -0.788899,-0.152247 z"
             id="path3152" /><path
             style="fill:#e5a50a;stroke-width:0.352778"
             d="m 21.251366,102.8164 c 0,-0.18793 0.238125,-0.3417 0.529166,-0.3417 0.291042,0 0.529167,0.0624 0.529167,0.13864 0,0.0763 -0.238125,0.23003 -0.529167,0.34171 -0.291041,0.11168 -0.529166,0.0493 -0.529166,-0.13865 z m 2.822222,0.0111 c -0.452225,-0.29226 -0.439401,-0.34276 0.08819,-0.34738 0.339549,-0.003 0.617361,0.15335 0.617361,0.34738 0,0.43025 -0.03979,0.43025 -0.705555,0 z m -4.233333,-0.84335 c 0,-0.0758 0.544489,-0.20136 1.209976,-0.27905 0.665487,-0.0777 1.132368,-0.0157 1.037513,0.13779 -0.170715,0.27622 -2.247489,0.40675 -2.247489,0.14126 z m 4.10251,-0.14126 c -0.09486,-0.15348 0.372026,-0.21549 1.037513,-0.13779 0.665487,0.0777 1.209977,0.20326 1.209977,0.27905 0,0.26549 -2.076775,0.13496 -2.24749,-0.14126 z"
             id="path3150" /><path
             style="fill:#e5a50a;stroke-width:0.352778"
             d="m 25.396505,97.986166 c 0.63059,-0.07825 1.662465,-0.07825 2.293055,0 0.63059,0.07826 0.114653,0.142283 -1.146528,0.142283 -1.26118,0 -1.777118,-0.06403 -1.146527,-0.142283 z m 7.761111,0 c 0.63059,-0.07825 1.662465,-0.07825 2.293055,0 0.630591,0.07826 0.114653,0.142283 -1.146527,0.142283 -1.261181,0 -1.777118,-0.06403 -1.146528,-0.142283 z"
             id="path3148" /><path
             style="fill:#e5a50a;stroke-width:0.352778"
             d="m 26.89581,111.16095 c 0,-0.0733 0.277813,-0.35107 0.617361,-0.61736 0.559526,-0.43881 0.572003,-0.42633 0.133193,0.13319 -0.460858,0.58764 -0.750554,0.77452 -0.750554,0.48417 z m -1.852083,-3.62822 c 0.242535,-0.0979 0.63941,-0.0979 0.881944,0 0.242535,0.0979 0.0441,0.17793 -0.440972,0.17793 -0.485069,0 -0.683507,-0.0801 -0.440972,-0.17793 z m 2.822222,0 c 0.242535,-0.0979 0.63941,-0.0979 0.881945,0 0.242534,0.0979 0.0441,0.17793 -0.440973,0.17793 -0.485069,0 -0.683507,-0.0801 -0.440972,-0.17793 z m 8.841493,-3.53513 c 0.254662,-0.10191 0.558933,-0.0894 0.676158,0.0279 0.117225,0.11723 -0.09114,0.2006 -0.463021,0.18529 -0.410966,-0.0169 -0.494559,-0.10052 -0.213137,-0.21314 z m 2.469445,0 c 0.254661,-0.10191 0.558932,-0.0894 0.676157,0.0279 0.117225,0.11723 -0.09113,0.2006 -0.463021,0.18529 -0.410966,-0.0169 -0.494559,-0.10052 -0.213136,-0.21314 z"
             id="path3146" /><path
             style="fill:#e5a50a;stroke-width:0.352778"
             d="m 27.18561,114.28776 c -4.48178,-1.37258 -4.523133,-1.39511 -4.523133,-2.46445 0,-1.18764 0.487211,-1.35589 2.461287,-0.84994 1.423083,0.36472 1.830122,0.35896 2.301873,-0.0326 0.514033,-0.42661 0.516744,-0.50716 0.02631,-0.78162 -0.331021,-0.18525 -0.845895,-0.14592 -1.30479,0.0997 -0.700699,0.375 -0.740949,0.33771 -0.532395,-0.49324 0.172419,-0.68697 0.04041,-1.02863 -0.559885,-1.44909 l -0.785498,-0.55019 h 0.936667 c 0.626837,0 1.01074,-0.23338 1.160602,-0.70555 0.123163,-0.38806 0.361288,-0.70556 0.529166,-0.70556 0.167878,0 0.406003,0.3175 0.529167,0.70556 0.146608,0.46192 0.533765,0.70555 1.121188,0.70555 h 0.897254 l -0.766224,0.62045 c -0.51205,0.41464 -0.686846,0.82731 -0.526933,1.24404 0.220839,0.57549 0.356397,0.55495 1.757999,-0.26645 l 1.518709,-0.89002 2.19925,0.68449 c 1.234758,0.38429 2.636838,0.59696 3.197043,0.48492 1.38803,-0.27761 1.577561,0.4727 0.748119,2.96163 -0.733249,2.20028 -1.617832,2.79656 -2.453434,1.6538 -0.446481,-0.61059 -0.551111,-0.59843 -2.321507,0.26985 l -1.853954,0.90927 z m 5.630956,-0.2984 c 0.915182,-0.4579 1.844359,-0.76819 2.06484,-0.68952 0.378494,0.13505 1.186626,-1.60045 1.186626,-2.54833 0,-0.24054 -1.035693,-0.7177 -2.30154,-1.06035 l -2.301542,-0.623 -1.667208,0.91482 c -1.926398,1.05704 -2.545272,1.80893 -1.965837,2.38837 0.286242,0.28624 0.789741,0.18768 1.878341,-0.36768 0.817998,-0.41731 1.566645,-0.67937 1.663659,-0.58236 0.2304,0.2304 -2.529266,1.63672 -3.211789,1.63672 -0.28913,0 -0.657303,-0.23518 -0.818161,-0.52261 -0.317208,-0.56682 -3.558749,-1.67549 -4.036147,-1.38045 -0.160904,0.0994 -0.292553,0.45066 -0.292553,0.78047 0,0.44787 0.870581,0.87903 3.439583,1.70345 4.256623,1.366 4.324591,1.36974 6.361728,0.35047 z m 4.364825,-1.61335 c 0.607803,-1.78813 0.599503,-2.49298 -0.02936,-2.49298 -0.157008,0 -0.544514,0.92323 -0.861124,2.05162 -0.686488,2.44662 -0.698827,2.63435 -0.161379,2.4552 0.227852,-0.0759 0.70119,-0.98218 1.051861,-2.01384 z m -9.463998,-3.60412 c 0.173527,-0.66357 -0.535232,-1.09327 -1.311765,-0.79528 -0.698857,0.26818 -0.302408,1.40245 0.490182,1.40245 0.364542,0 0.734254,-0.27323 0.821583,-0.60717 z m 8.831267,-2.39914 c 0.203097,-1.04944 0.101106,-1.32731 -0.73989,-2.01579 l -0.97546,-0.79856 1.284673,-0.0127 c 1.071131,-0.0106 1.321467,-0.15929 1.506027,-0.89463 0.283966,-1.13141 0.837413,-1.13141 1.121379,0 0.18456,0.73534 0.434896,0.88405 1.506026,0.89463 l 1.284673,0.0127 -0.975459,0.79856 c -0.840996,0.68848 -0.942987,0.96635 -0.739891,2.01579 0.230581,1.19145 0.220769,1.20415 -0.46343,0.59986 -0.384449,-0.33954 -0.912123,-0.61736 -1.172609,-0.61736 -0.260486,0 -0.78816,0.27782 -1.172609,0.61736 -0.684199,0.60429 -0.69401,0.59159 -0.46343,-0.59986 z m 2.165206,-0.37027 c 0.445603,0.36981 0.529167,0.30421 0.529167,-0.41542 0,-0.47002 0.1905,-1.04508 0.423333,-1.27792 0.329259,-0.32926 0.257397,-0.42333 -0.32338,-0.42333 -0.410692,0 -0.839317,-0.19844 -0.9525,-0.44097 -0.164629,-0.35278 -0.246944,-0.35278 -0.411574,0 -0.113183,0.24253 -0.541808,0.44097 -0.9525,0.44097 -0.580777,0 -0.652639,0.0941 -0.323379,0.42333 0.232833,0.23284 0.423333,0.8079 0.423333,1.27792 0,0.71963 0.08356,0.78523 0.529167,0.41542 0.422174,-0.35038 0.636158,-0.35038 1.058333,0 z m -17.815278,0.047 c 0,-0.19461 0.15235,-0.75454 0.338557,-1.2443 0.294846,-0.77551 0.192367,-1.0057 -0.79375,-1.78295 l -1.132307,-0.89247 1.35356,-0.004 c 1.178446,-0.003 1.405242,-0.14083 1.753037,-1.06224 0.219712,-0.58209 0.488618,-1.05834 0.59757,-1.05834 0.108951,0 0.377857,0.47625 0.597569,1.05834 0.347795,0.92141 0.574591,1.05884 1.753037,1.06224 l 1.35356,0.004 -1.132306,0.89247 c -0.986118,0.77725 -1.088597,1.00744 -0.79375,1.78295 0.553589,1.45605 0.397014,1.63976 -0.719777,0.84454 l -1.058333,-0.7536 -1.058334,0.7536 c -0.582083,0.41448 -1.058333,0.59437 -1.058333,0.39976 z m 3.266765,-1.7278 c -0.09754,-0.25417 0.104647,-0.77372 0.449292,-1.15455 0.607715,-0.67151 0.598359,-0.69241 -0.309992,-0.69241 -0.597367,0 -0.936621,-0.19167 -0.936621,-0.52917 0,-0.29104 -0.15875,-0.52917 -0.352777,-0.52917 -0.194028,0 -0.352778,0.23813 -0.352778,0.52917 0,0.3375 -0.339254,0.52917 -0.936621,0.52917 -0.90835,0 -0.917707,0.0209 -0.309992,0.69241 0.344645,0.38083 0.546827,0.90038 0.449292,1.15455 -0.126836,0.33053 0.200676,0.46213 1.150099,0.46213 0.949422,0 1.276934,-0.1316 1.150098,-0.46213 z m 2.377679,1.04802 c 0,-0.1733 0.303012,-1.1958 0.67336,-2.27224 l 0.67336,-1.95715 -1.883385,-1.361269 -1.883385,-1.361268 2.356553,-0.176389 2.356553,-0.176389 0.698415,-2.028472 c 0.384129,-1.11566 0.784217,-2.028472 0.889085,-2.028472 0.104868,0 0.504956,0.912812 0.889085,2.028472 l 0.698415,2.028472 2.356553,0.176389 2.356553,0.176389 -1.883385,1.361268 -1.883385,1.361269 0.678942,1.97338 c 0.373417,1.08535 0.636741,2.09695 0.585164,2.24799 -0.05158,0.15104 -0.921591,-0.30281 -1.933365,-1.00854 l -1.839589,-1.28316 -1.505111,1.02528 c -2.266249,1.54378 -2.400433,1.61502 -2.400433,1.27444 z m 2.726451,-2.11233 1.13895,-0.85484 1.48202,1.08989 c 0.815111,0.59944 1.532433,1.03948 1.594049,0.97786 0.06162,-0.0616 -0.150772,-0.8833 -0.471975,-1.82598 -0.581019,-1.7052 -0.57976,-1.71677 0.246462,-2.26469 0.456756,-0.3029 1.156583,-0.823257 1.555171,-1.156351 0.701956,-0.586612 0.662466,-0.605992 -1.257919,-0.617361 l -1.982625,-0.01174 -0.444472,-1.5875 c -0.24446,-0.873125 -0.56196,-1.5875 -0.705556,-1.5875 -0.143596,0 -0.461096,0.714375 -0.705556,1.5875 l -0.444472,1.5875 -1.982625,0.01174 c -1.920385,0.01137 -1.959875,0.03075 -1.257919,0.617361 0.398588,0.333093 1.098415,0.853451 1.555171,1.156351 0.826494,0.5481 0.827668,0.55894 0.245433,2.26771 -0.321768,0.94433 -0.585032,1.77744 -0.585032,1.85134 0,0.18426 0.669215,-0.22679 2.020895,-1.24129 z"
             id="path3144" /></g><path
           style="opacity:0.9;fill:#e5a50a;fill-rule:evenodd;stroke:#ffffff;stroke-width:1.64442;stroke-miterlimit:0;stroke-opacity:0.901961"
           d="m 16.781856,43.108961 c -2.905747,-1.035323 -5.665894,-2.251141 -6.133659,-2.701819 -1.1621411,-1.119687 -0.281466,-2.316458 1.368952,-1.860302 2.493824,0.689264 6.007807,2.349664 6.007807,2.838762 0,0.266898 0.542242,0.657368 1.204982,0.867714 1.320012,0.418955 7.496721,-2.3963 7.496721,-3.416898 0,-0.845508 -0.280125,-0.792513 -3.788379,0.716697 -5.347646,2.300496 -4.922022,-0.253125 0.599208,-3.595072 l 3.232365,-1.95652 3.804273,1.151842 c 2.092352,0.633513 4.084427,1.431994 4.426835,1.774402 0.823758,0.823757 -0.211242,4.439325 -1.441932,5.037106 -7.584383,3.683953 -9.317133,3.802114 -16.777173,1.144088 z"
           id="path3292"
           transform="scale(0.26458333)" /><path
           style="opacity:0.9;fill:#e5a50a;fill-rule:evenodd;stroke:#ffffff;stroke-width:1.64442;stroke-miterlimit:0;stroke-opacity:0.901961"
           d="m 19.268057,22.018439 c 0,-0.407829 0.33182,-1.849025 0.737378,-3.202657 0.730178,-2.437117 0.713489,-2.481592 -1.709263,-4.555013 l -2.446642,-2.093866 2.522792,-0.02334 c 3.19565,-0.02956 4.220127,-0.885666 5.234473,-4.3741893 l 0.813268,-2.796976 0.814488,1.8646506 c 0.447969,1.0255579 0.827105,2.3442807 0.842524,2.9304951 0.03743,1.4230046 1.906727,2.3475076 4.804187,2.3760196 l 2.371674,0.02334 -2.43146,2.08112 -2.431461,2.081121 0.807966,2.885768 c 0.44438,1.587172 0.677508,3.016226 0.518059,3.175673 -0.159448,0.159448 -1.386593,-0.527805 -2.72699,-1.52723 l -2.437084,-1.817135 -1.865017,1.398058 c -2.824849,2.117568 -3.418892,2.391084 -3.418892,1.574158 z"
           id="path3294"
           transform="scale(0.26458333)" /><path
           style="opacity:0.9;fill:#ffbe6f;fill-rule:evenodd;stroke:#ffffff;stroke-width:1.64442;stroke-miterlimit:0;stroke-opacity:0.901961"
           d="m 38.226722,25.262091 c -0.252165,-1.000812 -0.01838,-1.720953 0.738292,-2.274249 1.591018,-1.16338 3.300401,-0.0666 3.300401,2.117606 0,1.542668 -0.220684,1.745617 -1.83484,1.687394 -1.38014,-0.04978 -1.926287,-0.429124 -2.203853,-1.530751 z"
           id="path3296"
           transform="scale(0.26458333)" /><path
           style="opacity:0.9;fill:#ffbe6f;fill-rule:evenodd;stroke:#ffffff;stroke-width:1.64442;stroke-miterlimit:0;stroke-opacity:0.901961"
           d="m 8.6124984,24.084422 c -1.0308892,-0.222416 -2.0443013,-3.26249 -1.0875549,-3.26249 0.2835294,0 0.9327888,-0.769168 1.4427986,-1.709263 0.6565128,-1.210142 0.9345573,-1.393178 0.9521759,-0.626817 0.013687,0.595345 0.538141,1.402979 1.165454,1.794743 2.333617,1.457368 0.404587,4.424646 -2.4728736,3.803827 z"
           id="path3298"
           transform="scale(0.26458333)" /></g><path
         style="opacity:0.9;fill:#e5a50a;fill-rule:evenodd;stroke:#deddda;stroke-width:0.7;stroke-miterlimit:0;stroke-opacity:0.901961"
         d="M 0.98671093,10.85382 4.4401991,10.524917 5.7558138,8.2225911 6.9069764,10.689368 10.196013,11.182724 7.8936875,13.320598 8.8803984,16.28073 5.591362,14.800664 2.6312291,16.28073 3.782392,13.813953 3.1245847,12.66279 Z"
         id="path5303" /><path
         style="opacity:0.9;fill:#e5a50a;fill-rule:evenodd;stroke:#deddda;stroke-width:0.7;stroke-miterlimit:0;stroke-opacity:0.901961"
         d="M 6.0847173,22.5299 Z"
         id="path5431" /><path
         style="opacity:0.9;fill:#e5a50a;fill-rule:evenodd;stroke:#deddda;stroke-width:0.7;stroke-miterlimit:0;stroke-opacity:0.901961"
         d="m 5.2624582,24.33887 1.973422,1.151162 10.0315608,2.79568 4.933555,-1.973421 1.480066,1.644518 1.315615,-0.657807 0.657807,-0.822259 0.657807,-1.973422 0.657807,-2.466777 -0.493355,-0.986711 -0.986711,-0.164451 -1.80897,0.164451 -6.084717,-1.80897 -4.275747,2.302326 -1.644519,0.657807 L 10.85382,23.187707 8.0581393,22.694351 6.7425246,22.5299 H 5.9202655 l -0.6578073,0.493355 z"
         id="path5433" /><path
         style="opacity:0.9;fill:#e5a50a;fill-rule:evenodd;stroke:#deddda;stroke-width:0.7;stroke-miterlimit:0;stroke-opacity:0.901961"
         d="m 7.5647837,5.7558138 6.4136213,-0.1644518 1.80897,-4.76910289 2.795681,4.76910289 6.413621,0.4933553 -5.262458,4.1112957 1.973422,5.591362 -5.755814,-3.124585 -5.262459,2.795681 1.644519,-6.084717 z"
         id="path5798" /><path
         style="opacity:0.9;fill:#e5a50a;fill-rule:evenodd;stroke:#deddda;stroke-width:0.7;stroke-miterlimit:0;stroke-opacity:0.901961"
         d="m 22.694351,12.66279 2.960133,-0.164452 1.315614,-1.973421 1.315614,2.137873 3.617942,0.164452 -2.960132,2.631229 0.657807,2.795681 -2.466779,-1.80897 -2.631229,1.480067 0.328904,-2.302326 -0.328904,-0.822259 z"
         id="path5800" /><path
         style="opacity:0.9;fill:#e5a50a;fill-rule:evenodd;stroke:#deddda;stroke-width:0.7;stroke-miterlimit:0;stroke-opacity:0.901961"
         d="m 10.85382,16.609634 1.80897,1.973422 1.80897,-0.164452 -1.80897,1.80897 0.493356,1.151163 H 11.676079 L 9.0448502,22.200996 9.5382058,20.063122 8.0581393,18.254152 10.196013,18.0897 Z"
         id="path5802" /></g></g></svg>
