<?xml version="1.0" encoding="UTF-8" standalone="no"?>
<!-- Created with Inkscape (http://www.inkscape.org/) -->

<svg
   width="40.000278mm"
   height="34.724884mm"
   viewBox="0 0 40.000278 34.724884"
   version="1.1"
   id="svg5"
   xml:space="preserve"
   inkscape:version="1.2.2 (b0a8486, 2022-12-01)"
   sodipodi:docname="hook.svg"
   xmlns:inkscape="http://www.inkscape.org/namespaces/inkscape"
   xmlns:sodipodi="http://sodipodi.sourceforge.net/DTD/sodipodi-0.dtd"
   xmlns="http://www.w3.org/2000/svg"
   xmlns:svg="http://www.w3.org/2000/svg"><sodipodi:namedview
     id="namedview7"
     pagecolor="#ffffff"
     bordercolor="#000000"
     borderopacity="0.25"
     inkscape:showpageshadow="2"
     inkscape:pageopacity="0.0"
     inkscape:pagecheckerboard="0"
     inkscape:deskcolor="#d1d1d1"
     inkscape:document-units="mm"
     showgrid="false"
     inkscape:zoom="6.6654919"
     inkscape:cx="80.714223"
     inkscape:cy="63.236143"
     inkscape:window-width="1387"
     inkscape:window-height="1027"
     inkscape:window-x="196"
     inkscape:window-y="25"
     inkscape:window-maximized="0"
     inkscape:current-layer="layer1" /><defs
     id="defs2"><linearGradient
       id="linearGradient6391"
       inkscape:swatch="solid"><stop
         style="stop-color:#dfaf0c;stop-opacity:1;"
         offset="0"
         id="stop6389" /></linearGradient></defs><g
     inkscape:label="Ebene 1"
     inkscape:groupmode="layer"
     id="layer1"
     transform="translate(-19.779049,-147.89689)"><g
       id="g3634"
       transform="matrix(0.3159954,0,0,0.26797517,0.73166017,126.37328)"
       style="fill:#deaa0e;fill-opacity:1;stroke:#ffffff;stroke-width:0.87973589;stroke-dasharray:none"><path
         style="fill:#deaa0e;fill-opacity:1;stroke:#ffffff;stroke-width:0.87973589;stroke-dasharray:none"
         d="m 122.24086,194.67988 c 0.1819,-0.0734 0.47956,-0.0734 0.66146,0 0.1819,0.0734 0.0331,0.13346 -0.33073,0.13346 -0.3638,0 -0.51263,-0.0601 -0.33073,-0.13346 z m -9.20191,-6.3732 -1.71215,-1.78594 1.78594,1.71215 c 1.65885,1.59031 1.90688,1.85972 1.71215,1.85972 -0.0406,0 -0.84426,-0.80367 -1.78594,-1.78593 z m 4.22673,-15.08125 -0.9118,-0.99219 0.99219,0.9118 c 0.92351,0.84868 1.11384,1.07257 0.9118,1.07257 -0.0442,0 -0.4907,-0.44648 -0.99219,-0.99218 z m -23.426517,-4.10104 -0.504029,-0.59532 0.595313,0.50403 c 0.559445,0.47366 0.715761,0.6866 0.504028,0.6866 -0.05021,0 -0.318098,-0.26789 -0.595312,-0.59531 z m -3.96875,-3.70417 -0.504028,-0.59531 0.595312,0.50402 c 0.559446,0.47367 0.715761,0.6866 0.504029,0.6866 -0.05021,0 -0.318098,-0.26789 -0.595313,-0.59531 z m 15.358527,-4.23333 -1.04589,-1.12448 1.12448,1.04588 c 1.04575,0.97266 1.24606,1.20307 1.04588,1.20307 -0.0432,0 -0.54924,-0.50601 -1.12447,-1.12447 z m -4.9161,-4.63021 c -0.329105,-0.41965 -0.319747,-0.42901 0.0999,-0.0999 0.25466,0.19972 0.46302,0.40808 0.46302,0.46302 0,0.21776 -0.21727,0.0776 -0.56292,-0.36312 z M 79.047635,147.4947 c 0.263389,-0.29104 0.53842,-0.52917 0.611181,-0.52917 0.07276,0 -0.08321,0.23813 -0.346598,0.52917 -0.263389,0.29104 -0.53842,0.52917 -0.61118,0.52917 -0.07276,0 0.08321,-0.23813 0.346597,-0.52917 z M 175.71909,97.81918 c -0.32911,-0.419643 -0.31975,-0.429002 0.0999,-0.09989 0.25467,0.199719 0.46303,0.408078 0.46303,0.463021 0,0.217761 -0.21728,0.0776 -0.56292,-0.363127 z m -5.7159,-2.366166 c 0.25743,-0.06708 0.61462,-0.06267 0.79375,0.0098 0.17913,0.07248 -0.0315,0.127362 -0.46806,0.12197 -0.43656,-0.0054 -0.58313,-0.06469 -0.32569,-0.131774 z"
         id="path3648" /><path
         style="fill:#deaa0e;fill-opacity:1;stroke:#ffffff;stroke-width:0.87973589;stroke-dasharray:none"
         d="m 116.3456,191.61397 -1.57922,-1.65365 1.65365,1.57922 c 0.9095,0.86857 1.65364,1.61271 1.65364,1.65365 0,0.1955 -0.26111,-0.0431 -1.72807,-1.57922 z m -1.5875,-20.90208 -1.57922,-1.65365 1.65365,1.57922 c 0.9095,0.86857 1.65364,1.61271 1.65364,1.65364 0,0.1955 -0.26111,-0.0431 -1.72807,-1.57921 z m -7.68128,-7.67292 -0.7771,-0.8599 0.85989,0.77711 c 0.80155,0.72437 0.98151,0.94268 0.77711,0.94268 -0.0455,0 -0.43249,-0.38695 -0.8599,-0.85989 z m -5.97023,-5.68854 c -0.32911,-0.41965 -0.31975,-0.42901 0.0999,-0.0999 0.25466,0.19972 0.46302,0.40808 0.46302,0.46302 0,0.21776 -0.21727,0.0776 -0.56292,-0.36312 z m 63.79833,-59.432707 c 0,-0.05494 0.20836,-0.263301 0.46302,-0.463021 0.41965,-0.329107 0.42901,-0.319749 0.0999,0.0999 -0.34564,0.440729 -0.56292,0.580887 -0.56292,0.363126 z"
         id="path3646" /><path
         style="fill:#deaa0e;fill-opacity:1;stroke:#ffffff;stroke-width:0.87973589;stroke-dasharray:none"
         d="m 101.93067,176.92959 -3.833036,-3.9026 3.902606,3.83304 c 2.14643,2.10816 3.9026,3.86434 3.9026,3.9026 0,0.18935 -0.41139,-0.20762 -3.97217,-3.83304 z m 8.59742,-10.45104 -2.64087,-2.71198 2.71198,2.64087 c 1.49158,1.45248 2.71198,2.67287 2.71198,2.71198 0,0.19139 -0.33024,-0.12197 -2.78309,-2.64087 z m -18.152748,1.19063 c -0.329107,-0.41965 -0.319748,-0.42901 0.0999,-0.0999 0.254661,0.19972 0.46302,0.40808 0.46302,0.46302 0,0.21776 -0.217273,0.0776 -0.562917,-0.36312 z m 9.524998,-9.525 c -0.32911,-0.41965 -0.31975,-0.42901 0.0999,-0.0999 0.25466,0.19972 0.46302,0.40808 0.46302,0.46302 0,0.21776 -0.21727,0.0776 -0.56292,-0.36312 z M 84.405447,145.2028 c 0.181901,-0.0734 0.479558,-0.0734 0.661459,0 0.181901,0.0734 0.03307,0.13346 -0.33073,0.13346 -0.363802,0 -0.51263,-0.0601 -0.330729,-0.13346 z"
         id="path3644" /><path
         style="fill:#deaa0e;fill-opacity:1;stroke:#ffffff;stroke-width:0.87973589;stroke-dasharray:none"
         d="m 127.2018,192.73845 c 0.26339,-0.29104 0.53842,-0.52917 0.61118,-0.52917 0.0728,0 -0.0832,0.23813 -0.3466,0.52917 -0.26339,0.29104 -0.53842,0.52916 -0.61118,0.52916 -0.0728,0 0.0832,-0.23812 0.3466,-0.52916 z m -19.98508,-10.51719 -1.44617,-1.52135 1.52135,1.44617 c 0.83675,0.79539 1.52136,1.48 1.52136,1.52135 0,0.19639 -0.253,-0.0328 -1.59654,-1.44617 z m -9.929481,-9.92187 -0.777105,-0.8599 0.859896,0.7771 c 0.801545,0.72438 0.981511,0.94269 0.777105,0.94269 -0.04554,0 -0.432488,-0.38695 -0.859896,-0.85989 z m 5.406851,-13.36146 c -0.32911,-0.41965 -0.31975,-0.42901 0.0999,-0.0999 0.25466,0.19972 0.46302,0.40808 0.46302,0.46302 0,0.21776 -0.21727,0.0776 -0.56292,-0.36312 z"
         id="path3642" /><path
         style="fill:#deaa0e;fill-opacity:1;stroke:#ffffff;stroke-width:0.87973589;stroke-dasharray:none"
         d="m 109.87159,184.93324 c -0.64268,-0.65485 -1.10898,-1.19063 -1.03622,-1.19063 0.0728,0 0.65812,0.53578 1.30081,1.19063 0.64268,0.65484 1.10898,1.19062 1.03621,1.19062 -0.0728,0 -0.65812,-0.53578 -1.3008,-1.19062 z m -14.30174,-14.35365 -0.911799,-0.99218 0.992187,0.9118 c 0.923507,0.84868 1.113841,1.07257 0.911799,1.07257 -0.04421,0 -0.490698,-0.44648 -0.992187,-0.99219 z m -4.517424,-4.23333 c -0.329107,-0.41964 -0.319749,-0.429 0.0999,-0.0999 0.254661,0.19973 0.463021,0.40808 0.463021,0.46303 0,0.21776 -0.217273,0.0776 -0.562917,-0.36313 z m 12.435414,-6.61458 c -0.32911,-0.41965 -0.31975,-0.42901 0.0999,-0.0999 0.44073,0.34565 0.58089,0.56292 0.36312,0.56292 -0.0549,0 -0.2633,-0.20836 -0.46302,-0.46302 z m -24.729927,-4.10104 -0.504028,-0.59532 0.595313,0.50403 c 0.559446,0.47366 0.715761,0.6866 0.504028,0.6866 -0.05021,0 -0.318098,-0.26789 -0.595313,-0.59531 z"
         id="path3640" /><path
         style="fill:#deaa0e;fill-opacity:1;stroke:#ffffff;stroke-width:0.87973589;stroke-dasharray:none"
         d="m 112.64144,187.64522 -1.57922,-1.65365 1.65364,1.57922 c 0.90951,0.86857 1.65365,1.61271 1.65365,1.65365 0,0.1955 -0.26112,-0.0431 -1.72807,-1.57922 z m 5.01022,-13.75833 -0.50403,-0.59532 0.59532,0.50403 c 0.55944,0.47366 0.71576,0.6866 0.50402,0.6866 -0.0502,0 -0.31809,-0.26789 -0.59531,-0.59531 z m -23.547914,-4.7625 -0.504028,-0.59532 0.595312,0.50403 c 0.559446,0.47366 0.715762,0.6866 0.504029,0.6866 -0.05021,0 -0.318098,-0.26789 -0.595313,-0.59531 z m -3.84507,-3.57188 c -0.329107,-0.41964 -0.319749,-0.429 0.0999,-0.0999 0.254661,0.19973 0.463021,0.40808 0.463021,0.46303 0,0.21776 -0.217273,0.0776 -0.562917,-0.36313 z m 14.571594,-4.49792 -0.9118,-0.99218 0.99218,0.9118 c 0.92351,0.84868 1.11384,1.07257 0.9118,1.07257 -0.0442,0 -0.4907,-0.44648 -0.99218,-0.99219 z M 78.915343,147.92397 c 0,-0.0549 0.20836,-0.2633 0.463021,-0.46302 0.419644,-0.32911 0.429002,-0.31975 0.09989,0.0999 -0.345643,0.44073 -0.562916,0.58089 -0.562916,0.36313 z M 175.45451,97.81918 c -0.32911,-0.419643 -0.31975,-0.429002 0.0999,-0.09989 0.44073,0.345643 0.58089,0.562915 0.36313,0.562915 -0.0549,0 -0.2633,-0.208359 -0.46302,-0.463021 z"
         id="path3638" /><path
         style="fill:#deaa0e;fill-opacity:1;stroke:#deddda;stroke-width:2.40552781;stroke-dasharray:none"
         d="m 120.8518,194.34663 c -0.43656,-0.12011 -1.1026,-0.34249 -1.48008,-0.49417 -0.37748,-0.15168 -6.68779,-6.27751 -14.02291,-13.61295 -12.248202,-12.24873 -16.917847,-16.63729 -24.184508,-22.72869 -3.611693,-3.02757 -4.319116,-4.47765 -3.516074,-7.2073 0.472166,-1.60495 2.862275,-3.91467 4.670871,-4.51671 1.662724,-0.55348 3.568906,-1.08233 5.107858,0.22564 4.034936,3.42933 18.103583,15.07058 27.424673,24.88366 2.05372,2.16212 3.58862,0.46161 3.66657,0.38366 0.078,-0.0779 -0.13359,1.07218 1.51816,-1.0815 9.26884,-12.08546 13.79795,-25.95754 27.8641,-48.82989 10.9268,-17.7676 10.3708,-16.95478 22.81511,-26.302844 2.58703,-1.943351 2.82262,0.65372 5.08827,3.161528 1.87926,2.080116 1.97919,4.390076 0.29978,6.929646 -0.53098,0.80293 -4.73995,6.52002 -9.35328,12.70466 -9.78011,13.11124 -11.43552,19.20491 -14.82359,25.95523 -9.15581,18.24185 -17.46501,30.10182 -23.12327,45.33207 -0.85353,2.29744 -1.27656,3.65541 -3.0851,4.57594 -1.29006,0.65662 -3.64627,0.95779 -4.86658,0.62202 z"
         id="path3636"
         sodipodi:nodetypes="sssssssscssssssssss" /></g></g></svg>
