<svg xmlns="http://www.w3.org/2000/svg" viewBox="0 0 64 80" x="0px" y="0px"><title>architecture-math-drawing-stationary</title><g><path d="M3.707,2.293A1,1,0,0,0,2,3V61a1,1,0,0,0,1,1H61a1,1,0,0,0,.707-1.707ZM4,60V5.414L9.586,11,7.293,13.293a1,1,0,1,0,1.414,1.414L11,12.414,12.586,14l-1.293,1.293a1,1,0,1,0,1.414,1.414L14,15.414,15.586,17l-2.293,2.293a1,1,0,1,0,1.414,1.414L17,18.414,18.586,20l-1.293,1.293a1,1,0,1,0,1.414,1.414L20,21.414,21.586,23l-2.293,2.293a1,1,0,1,0,1.414,1.414L23,24.414,24.586,26l-1.293,1.293a1,1,0,1,0,1.414,1.414L26,27.414,27.586,29l-2.293,2.293a1,1,0,1,0,1.414,1.414L29,30.414,30.586,32l-1.293,1.293a1,1,0,1,0,1.414,1.414L32,33.414,33.586,35l-2.293,2.293a1,1,0,1,0,1.414,1.414L35,36.414,36.586,38l-1.293,1.293a1,1,0,1,0,1.414,1.414L38,39.414,39.586,41l-2.293,2.293a1,1,0,1,0,1.414,1.414L41,42.414,42.586,44l-1.293,1.293a1,1,0,1,0,1.414,1.414L44,45.414,45.586,47l-2.293,2.293a1,1,0,1,0,1.414,1.414L47,48.414,48.586,50l-1.293,1.293a1,1,0,1,0,1.414,1.414L50,51.414,51.586,53l-2.293,2.293a1,1,0,1,0,1.414,1.414L53,54.414,58.586,60Z"/><path d="M11.707,24.293A1,1,0,0,0,10,25V53a1,1,0,0,0,1,1H39a1,1,0,0,0,.707-1.707ZM12,52V27.414L36.586,52Z"/><path d="M59.949,41.684a1,1,0,0,0-.242-.391l-2-2-34-34L21.536,3.121h0a3.828,3.828,0,1,0-5.413,5.414l2.171,2.172,34,34,2,2a1.011,1.011,0,0,0,.391.241l6,2A.987.987,0,0,0,61,49a1,1,0,0,0,.949-1.316ZM17,5.828a1.829,1.829,0,0,1,3.122-1.293L21.586,6,19,8.586,17.535,7.121A1.842,1.842,0,0,1,17,5.828Zm6,1.586L54.649,39.063c-.008,0-.013.009-.021.012a.714.714,0,0,0-.071.04.982.982,0,0,0-.438.435c-.016.032-.034.062-.048.1A.993.993,0,0,0,54,40v1H53a.993.993,0,0,0-.354.071c-.034.013-.063.032-.1.048a.969.969,0,0,0-.2.138.879.879,0,0,0-.083.078.988.988,0,0,0-.147.219.794.794,0,0,0-.042.075c0,.007-.009.013-.012.02L20.414,10ZM55.54,45.126,54,43.586V43h1a1,1,0,0,0,1-1V41h.586l1.54,1.54,1.293,3.879Z"/><path d="M58.707,13.293l-11-11a1,1,0,0,0-1.414,0l-9,9a1,1,0,0,0,0,1.414l11,11,1.171,1.172a5.007,5.007,0,0,0,7.072,0l3.342-3.344a5,5,0,0,0,0-7.07ZM47,4.414,56.586,14,49,21.586,39.414,12ZM58.464,20.121l-3.342,3.344a3.005,3.005,0,0,1-4.244,0L50.414,23,58,15.414l.464.465a3,3,0,0,1,0,4.242Z"/></g><text x="0" y="79" fill="#000000" font-size="5px" font-weight="bold" font-family="'Helvetica Neue', Helvetica, Arial-Unicode, Arial, Sans-serif">Created by mynamepong</text><text x="0" y="84" fill="#000000" font-size="5px" font-weight="bold" font-family="'Helvetica Neue', Helvetica, Arial-Unicode, Arial, Sans-serif">from the Noun Project</text></svg>