<?xml version="1.0" encoding="UTF-8" standalone="no"?>
<!-- Created with Inkscape (http://www.inkscape.org/) -->

<svg
   width="152.87108mm"
   height="69.450661mm"
   viewBox="0 0 152.87108 69.450661"
   version="1.1"
   id="svg5"
   xml:space="preserve"
   inkscape:export-filename="LogoEZ990.svg"
   inkscape:export-xdpi="96"
   inkscape:export-ydpi="96"
   xmlns:inkscape="http://www.inkscape.org/namespaces/inkscape"
   xmlns:sodipodi="http://sodipodi.sourceforge.net/DTD/sodipodi-0.dtd"
   xmlns:xlink="http://www.w3.org/1999/xlink"
   xmlns="http://www.w3.org/2000/svg"
   xmlns:svg="http://www.w3.org/2000/svg"><sodipodi:namedview
     id="namedview7"
     pagecolor="#ffffff"
     bordercolor="#000000"
     borderopacity="0.25"
     inkscape:showpageshadow="2"
     inkscape:pageopacity="0.0"
     inkscape:pagecheckerboard="false"
     inkscape:deskcolor="#d1d1d1"
     inkscape:document-units="mm"
     showgrid="false"
     inkscape:zoom="0.56882515"
     inkscape:cx="676.83365"
     inkscape:cy="500.1537"
     inkscape:window-width="1387"
     inkscape:window-height="1027"
     inkscape:window-x="196"
     inkscape:window-y="25"
     inkscape:window-maximized="0"
     inkscape:current-layer="layer1" /><defs
     id="defs2"><linearGradient
       id="linearGradient2092"
       inkscape:swatch="solid"><stop
         style="stop-color:#ffc86a;stop-opacity:1;"
         offset="0"
         id="stop2090" /></linearGradient><linearGradient
       inkscape:collect="always"
       xlink:href="#linearGradient2092"
       id="linearGradient2127"
       gradientUnits="userSpaceOnUse"
       x1="52.593548"
       y1="127.98244"
       x2="204.76978"
       y2="127.98244"
       gradientTransform="translate(44.173289,114.113)" /><linearGradient
       inkscape:collect="always"
       xlink:href="#linearGradient2092"
       id="linearGradient2227"
       gradientUnits="userSpaceOnUse"
       x1="52.593548"
       y1="127.98244"
       x2="204.76978"
       y2="127.98244"
       gradientTransform="translate(44.173289,114.113)" /><linearGradient
       inkscape:collect="always"
       xlink:href="#linearGradient2092"
       id="linearGradient2229"
       gradientUnits="userSpaceOnUse"
       x1="52.593548"
       y1="127.98244"
       x2="204.76978"
       y2="127.98244"
       gradientTransform="translate(44.173289,114.113)" /><linearGradient
       inkscape:collect="always"
       xlink:href="#linearGradient2092"
       id="linearGradient2231"
       gradientUnits="userSpaceOnUse"
       x1="52.593548"
       y1="127.98244"
       x2="204.76978"
       y2="127.98244"
       gradientTransform="translate(44.173289,114.113)" /><linearGradient
       inkscape:collect="always"
       xlink:href="#linearGradient2092"
       id="linearGradient2233"
       gradientUnits="userSpaceOnUse"
       x1="52.593548"
       y1="127.98244"
       x2="204.76978"
       y2="127.98244"
       gradientTransform="translate(44.173289,114.113)" /><linearGradient
       inkscape:collect="always"
       xlink:href="#linearGradient2092"
       id="linearGradient2235"
       gradientUnits="userSpaceOnUse"
       x1="52.593548"
       y1="127.98244"
       x2="204.76978"
       y2="127.98244"
       gradientTransform="translate(44.173289,114.113)" /><linearGradient
       inkscape:collect="always"
       xlink:href="#linearGradient2092"
       id="linearGradient2237"
       gradientUnits="userSpaceOnUse"
       x1="52.593548"
       y1="127.98244"
       x2="204.76978"
       y2="127.98244"
       gradientTransform="translate(44.173289,114.113)" /><linearGradient
       inkscape:collect="always"
       xlink:href="#linearGradient2092"
       id="linearGradient2239"
       gradientUnits="userSpaceOnUse"
       x1="52.593548"
       y1="127.98244"
       x2="204.76978"
       y2="127.98244"
       gradientTransform="translate(44.173289,114.113)" /></defs><g
     inkscape:label="Ebene 1"
     inkscape:groupmode="layer"
     id="layer1"
     transform="translate(-55.065047,-120.42418)"><g
       id="g1520"
       transform="translate(2.8197793,27.172418)"
       style="fill:url(#linearGradient2127);fill-opacity:1;stroke:#5e5c64;stroke-width:0.7;stroke-dasharray:none"><path
         style="fill:url(#linearGradient2227);fill-opacity:1;stroke:#5e5c64;stroke-width:0.7;stroke-dasharray:none"
         d="m 136.5895,145.50369 c -0.32911,-0.41964 -0.31975,-0.429 0.0999,-0.0999 0.44073,0.34564 0.58089,0.56291 0.36313,0.56291 -0.0549,0 -0.2633,-0.20836 -0.46302,-0.46302 z m -14.78292,-1.22437 c 0,-0.0549 0.20836,-0.2633 0.46302,-0.46302 0.41965,-0.32911 0.429,-0.31975 0.0999,0.0999 -0.34565,0.44073 -0.56292,0.58089 -0.56292,0.36313 z m 22.33215,-10.285 -0.50402,-0.59532 0.59531,0.50403 c 0.32742,0.27722 0.59531,0.54511 0.59531,0.59532 0,0.21173 -0.21293,0.0554 -0.6866,-0.50403 z m -29.60819,-1.25677 c 0.26339,-0.29105 0.53842,-0.52917 0.61118,-0.52917 0.0728,0 -0.0832,0.23812 -0.3466,0.52917 -0.26339,0.29104 -0.53842,0.52916 -0.61118,0.52916 -0.0728,0 0.0832,-0.23812 0.3466,-0.52916 z m -47.431329,-4.7625 c 0,-0.50933 0.05445,-0.71769 0.121001,-0.46303 0.06655,0.25467 0.06655,0.67139 0,0.92605 -0.06655,0.25466 -0.121001,0.0463 -0.121001,-0.46302 z m 72.169869,-1.40571 c 0,-0.0455 0.38695,-0.43249 0.8599,-0.8599 l 0.85989,-0.7771 -0.7771,0.85989 c -0.72437,0.80155 -0.94269,0.98151 -0.94269,0.77711 z m -25.14966,-3.55523 -0.9118,-0.99219 0.99219,0.9118 c 0.92351,0.84868 1.11384,1.07258 0.9118,1.07258 -0.0442,0 -0.4907,-0.44649 -0.99219,-0.99219 z m 30.17674,-1.52136 c 0.34178,-0.3638 0.68094,-0.66145 0.7537,-0.66145 0.0728,0 -0.14734,0.29765 -0.48911,0.66145 -0.34178,0.36381 -0.68094,0.66146 -0.7537,0.66146 -0.0728,0 0.14734,-0.29765 0.48911,-0.66146 z"
         id="path1534" /><path
         style="fill:url(#linearGradient2229);fill-opacity:1;stroke:#5e5c64;stroke-width:0.7;stroke-dasharray:none"
         d="m 123.52637,142.52713 c 0.56839,-0.58208 1.09297,-1.05833 1.16573,-1.05833 0.0728,0 -0.33276,0.47625 -0.90115,1.05833 -0.56838,0.58208 -1.09296,1.05833 -1.16572,1.05833 -0.0728,0 0.33275,-0.47625 0.90114,-1.05833 z m 3.175,-3.175 c 0.71667,-0.72761 1.36256,-1.32292 1.43532,-1.32292 0.0728,0 -0.45407,0.59531 -1.17074,1.32292 -0.71666,0.7276 -1.36255,1.32292 -1.43531,1.32292 -0.0728,0 0.45407,-0.59532 1.17073,-1.32292 z m 18.35479,-4.43177 c -0.3291,-0.41965 -0.31975,-0.42901 0.0999,-0.0999 0.25466,0.19972 0.46302,0.40808 0.46302,0.46302 0,0.21777 -0.21727,0.0776 -0.56292,-0.36312 z m -31.58396,-1.12448 c 0.26339,-0.29104 0.53843,-0.52917 0.61119,-0.52917 0.0728,0 -0.0832,0.23813 -0.3466,0.52917 -0.26339,0.29104 -0.53842,0.52917 -0.61118,0.52917 -0.0728,0 0.0832,-0.23813 0.34659,-0.52917 z m 2.77813,-2.77813 c 0.34178,-0.3638 0.68094,-0.66145 0.7537,-0.66145 0.0728,0 -0.14734,0.29765 -0.48912,0.66145 -0.34177,0.36381 -0.68094,0.66146 -0.7537,0.66146 -0.0728,0 0.14734,-0.29765 0.48912,-0.66146 z m 73.88014,-3.0427 c 0,-0.50933 0.0545,-0.71769 0.121,-0.46303 0.0665,0.25467 0.0665,0.67139 0,0.92605 -0.0666,0.25466 -0.121,0.0463 -0.121,-0.46302 z m -51.52285,-0.79375 c 0.26339,-0.29105 0.53842,-0.52917 0.61118,-0.52917 0.0728,0 -0.0832,0.23812 -0.34659,0.52917 -0.26339,0.29104 -0.53843,0.52916 -0.61119,0.52916 -0.0728,0 0.0832,-0.23812 0.3466,-0.52916 z m -25.9543,-5.6224 -0.50403,-0.59531 0.59531,0.50403 c 0.55945,0.47366 0.71576,0.68659 0.50403,0.68659 -0.0502,0 -0.3181,-0.26789 -0.59531,-0.59531 z m 8.99583,-10.05417 -0.50403,-0.59531 0.59531,0.50403 c 0.55945,0.47366 0.71577,0.6866 0.50403,0.6866 -0.0502,0 -0.3181,-0.26789 -0.59531,-0.59532 z"
         id="path1532" /><path
         style="fill:url(#linearGradient2231);fill-opacity:1;stroke:#5e5c64;stroke-width:0.7;stroke-dasharray:none"
         d="m 168.32364,162.19014 c 0.19099,-0.0764 0.4192,-0.067 0.50712,0.0209 0.0879,0.0879 -0.0684,0.15045 -0.34727,0.13896 -0.30822,-0.0127 -0.37092,-0.0754 -0.15985,-0.15985 z m -33.18074,-18.14166 -0.50403,-0.59531 0.59531,0.50403 c 0.32743,0.27721 0.59532,0.5451 0.59532,0.59531 0,0.21173 -0.21294,0.0554 -0.6866,-0.50403 z m -62.317988,-1.19062 c -0.329108,-0.41965 -0.319749,-0.42901 0.0999,-0.0999 0.254661,0.19972 0.463021,0.40808 0.463021,0.46302 0,0.21777 -0.217273,0.0776 -0.562916,-0.36312 z m 56.634558,-4.49792 -0.64143,-0.7276 0.7276,0.64143 c 0.40018,0.35279 0.72761,0.68021 0.72761,0.7276 0,0.20751 -0.21426,0.0386 -0.81378,-0.64143 z m 16.39044,-2.64583 c -0.3291,-0.41965 -0.31975,-0.42901 0.0999,-0.0999 0.44073,0.34565 0.58089,0.56292 0.36312,0.56292 -0.0549,0 -0.2633,-0.20836 -0.46302,-0.46302 z m -28.27666,-6.01927 c 0.34177,-0.3638 0.68094,-0.66146 0.7537,-0.66146 0.0728,0 -0.14734,0.29766 -0.48912,0.66146 -0.34178,0.3638 -0.68094,0.66146 -0.7537,0.66146 -0.0728,0 0.14734,-0.29766 0.48912,-0.66146 z m -5.85459,-9.06198 c -0.3291,-0.41965 -0.31975,-0.42901 0.0999,-0.0999 0.44073,0.34565 0.58089,0.56292 0.36312,0.56292 -0.0549,0 -0.2633,-0.20836 -0.46302,-0.46302 z m 15.10597,-3.96875 -1.44618,-1.52136 1.52136,1.44617 c 0.83674,0.7954 1.52135,1.48001 1.52135,1.52136 0,0.19639 -0.253,-0.0328 -1.59653,-1.44617 z m -3.17501,-3.175 -1.44617,-1.52136 1.52136,1.44617 c 1.41338,1.34354 1.64256,1.59654 1.44617,1.59654 -0.0413,0 -0.72596,-0.68461 -1.52136,-1.52135 z m 11.38613,-1.48896 c 0,-0.0549 0.20836,-0.2633 0.46302,-0.46302 0.41964,-0.32911 0.429,-0.31975 0.0999,0.0999 -0.34564,0.44073 -0.56291,0.58089 -0.56291,0.36313 z"
         id="path1530" /><path
         style="fill:url(#linearGradient2233);fill-opacity:1;stroke:#5e5c64;stroke-width:0.7;stroke-dasharray:none"
         d="m 171.23406,162.19014 c 0.19099,-0.0764 0.4192,-0.067 0.50711,0.0209 0.0879,0.0879 -0.0684,0.15045 -0.34726,0.13896 -0.30823,-0.0127 -0.37092,-0.0754 -0.15985,-0.15985 z m 23.59752,-10.23791 c 0,-0.0549 0.20836,-0.2633 0.46302,-0.46302 0.41965,-0.32911 0.42901,-0.31975 0.0999,0.0999 -0.34564,0.44073 -0.56292,0.58089 -0.56292,0.36312 z m -62.44751,-10.68187 -2.24311,-2.31511 2.3151,2.24312 c 1.27331,1.23372 2.3151,2.27551 2.3151,2.3151 0,0.19252 -0.30375,-0.0929 -2.38709,-2.24311 z m -20.63166,-5.72229 c 0,-0.0549 0.20836,-0.2633 0.46302,-0.46302 0.41965,-0.32911 0.42901,-0.31975 0.0999,0.0999 -0.34564,0.44073 -0.56292,0.58089 -0.56292,0.36313 z m 6.61459,-6.61459 c 0,-0.0549 0.20836,-0.2633 0.46302,-0.46302 0.41964,-0.32911 0.429,-0.31975 0.0999,0.0999 -0.34564,0.44073 -0.56291,0.58089 -0.56291,0.36312 z m -7.44209,-9.09437 c -0.3291,-0.41965 -0.31975,-0.42901 0.0999,-0.0999 0.44073,0.34565 0.58089,0.56292 0.36312,0.56292 -0.0549,0 -0.2633,-0.20836 -0.46302,-0.46302 z m 20.93584,-4.69636 c 1.66874,-1.67349 3.09361,-3.0427 3.16637,-3.0427 0.0728,0 -1.23305,1.36921 -2.90179,3.0427 -1.66874,1.67349 -3.09361,3.04271 -3.16637,3.04271 -0.0728,0 1.23304,-1.36922 2.90179,-3.04271 z"
         id="path1528" /><path
         style="fill:url(#linearGradient2235);fill-opacity:1;stroke:#5e5c64;stroke-width:0.7;stroke-dasharray:none"
         d="m 87.625719,162.19014 c 0.190995,-0.0764 0.419198,-0.067 0.507119,0.0209 0.08792,0.0879 -0.06835,0.15045 -0.347266,0.13896 -0.308226,-0.0127 -0.370919,-0.0754 -0.159853,-0.15985 z m 82.136591,-0.002 c 0.25466,-0.0665 0.67138,-0.0665 0.92604,0 0.25466,0.0666 0.0463,0.121 -0.46302,0.121 -0.50932,0 -0.71768,-0.0545 -0.46302,-0.121 z m -50.83959,-34.55627 c -0.33467,-0.55729 -0.32903,-0.56293 0.12656,-0.12655 0.26227,0.25119 0.41989,0.51367 0.35028,0.58327 -0.0696,0.0696 -0.28418,-0.13591 -0.47684,-0.45672 z M 62.010744,104.32723 c 0,-0.0549 0.208359,-0.2633 0.463021,-0.46302 0.419644,-0.3291 0.429002,-0.31975 0.09989,0.0999 -0.345643,0.44073 -0.562915,0.58089 -0.562915,0.36312 z M 85.757099,93.668567 c 0.181901,-0.0734 0.479557,-0.0734 0.661458,0 0.181901,0.0734 0.03307,0.133452 -0.330729,0.133452 -0.363802,0 -0.51263,-0.06005 -0.330729,-0.133452 z m 2.116667,0 c 0.181901,-0.0734 0.479557,-0.0734 0.661458,0 0.181901,0.0734 0.03307,0.133452 -0.330729,0.133452 -0.363802,0 -0.51263,-0.06005 -0.330729,-0.133452 z"
         id="path1526" /><path
         style="fill:url(#linearGradient2237);fill-opacity:1;stroke:#5e5c64;stroke-width:0.7;stroke-dasharray:none"
         d="m 84.042342,162.18753 c 0.257432,-0.0671 0.614619,-0.0627 0.79375,0.01 0.179131,0.0725 -0.03149,0.12736 -0.468056,0.12197 -0.436562,-0.005 -0.583125,-0.0647 -0.325694,-0.13177 z m 2.38125,0 c 0.257432,-0.0671 0.61462,-0.0627 0.79375,0.01 0.179131,0.0725 -0.03149,0.12736 -0.468055,0.12197 -0.436563,-0.005 -0.583126,-0.0647 -0.325695,-0.13177 z m 53.090048,-32.55884 -0.64143,-0.7276 0.7276,0.64143 c 0.40018,0.35279 0.7276,0.68021 0.7276,0.7276 0,0.20751 -0.21426,0.0386 -0.81377,-0.64143 z m -21.44498,-2.91042 c -0.3291,-0.41964 -0.31975,-0.429 0.0999,-0.0999 0.25466,0.19972 0.46302,0.40808 0.46302,0.46302 0,0.21776 -0.21727,0.0776 -0.56292,-0.36313 z M 72.990953,113.42296 c 0.263389,-0.29104 0.53842,-0.52916 0.611181,-0.52916 0.07276,0 -0.08321,0.23812 -0.346598,0.52916 -0.263389,0.29104 -0.538421,0.52917 -0.611181,0.52917 -0.07276,0 0.08321,-0.23813 0.346598,-0.52917 z M 86.815432,93.668567 c 0.181901,-0.0734 0.479558,-0.0734 0.661459,0 0.181901,0.0734 0.03307,0.133452 -0.330729,0.133452 -0.363803,0 -0.512631,-0.06005 -0.33073,-0.133452 z"
         id="path1524" /><path
         style="fill:url(#linearGradient2239);fill-opacity:1;stroke:#5e5c64;stroke-width:0.7;stroke-dasharray:none"
         d="m 82.648245,162.08458 c -14.254828,-1.12277 -25.238337,-10.43742 -28.833232,-24.45224 -3.284935,-12.80643 0.134896,-25.35777 9.305748,-34.1536 6.552507,-6.284566 14.906911,-9.634944 24.025401,-9.634944 7.34323,0 14.165198,2.116793 20.755758,6.440314 5.08209,3.33393 8.73325,6.41125 15.57024,13.12307 l 5.23951,5.1436 4.5511,-4.5096 c 5.32489,-5.27634 8.13888,-7.78237 11.78909,-10.49896 6.71319,-4.996116 12.52937,-7.79161 19.1705,-9.214121 3.53405,-0.756983 9.99568,-0.817029 13.50285,-0.125477 12.35596,2.436371 20.83009,9.480188 24.71477,20.543258 4.06747,11.58366 2.7917,22.81786 -3.69125,32.50449 -2.88522,4.31102 -8.62099,9.18954 -13.55983,11.53322 -5.02912,2.38652 -8.7995,3.19041 -14.96357,3.19041 -6.50214,0 -10.78823,-0.9994 -16.45722,-3.8374 -5.83197,-2.91958 -11.44996,-7.31989 -19.72534,-15.44992 l -5.35859,-5.26448 -4.69557,4.60548 c -7.11655,6.98 -12.074,11.06806 -17.13099,14.12671 -7.405012,4.47881 -15.977148,6.5786 -24.209375,5.93019 z m 10.583333,-14.51707 c 2.419189,-0.69909 6.732633,-2.72453 9.174022,-4.30779 3.27853,-2.12615 7.29621,-5.53799 12.19758,-10.35825 2.65933,-2.61533 4.80246,-4.83412 4.7625,-4.93064 -0.16403,-0.39629 -10.55966,-10.3225 -12.64097,-12.07016 -4.77888,-4.01279 -9.288542,-6.5359 -13.726071,-7.67957 -2.241521,-0.57771 -2.971345,-0.64392 -6.117061,-0.555 -3.157053,0.0892 -3.841086,0.19539 -5.889945,0.91404 -6.598431,2.31443 -11.522593,7.61419 -13.34957,14.36782 -0.686572,2.538 -0.613703,7.8944 0.145777,10.71563 1.95912,7.2775 6.859998,12.30455 13.802071,14.1574 2.732736,0.72938 8.689327,0.59968 11.641667,-0.25348 z m 82.946882,-0.11345 c 5.61254,-1.9202 10.49687,-6.50815 12.64733,-11.8799 2.18386,-5.45518 1.86096,-12.02809 -0.86075,-17.52099 -2.58023,-5.2074 -6.72387,-8.52482 -12.43486,-9.95543 -3.15723,-0.79089 -8.34185,-0.61094 -11.75495,0.40798 -6.62009,1.97632 -12.11354,5.77489 -20.93115,14.47333 l -5.02396,4.95607 4.75937,4.60491 c 7.514,7.27012 10.70445,9.92324 14.81355,12.31866 4.53803,2.64547 7.82081,3.50576 12.96458,3.3975 3.21997,-0.0678 3.98086,-0.17262 5.82084,-0.80213 z"
         id="path1522" /></g></g></svg>
