<?xml version="1.0" encoding="UTF-8" standalone="no"?>
<!-- Created with Inkscape (http://www.inkscape.org/) -->

<svg
   version="1.1"
   id="svg182"
   width="900"
   height="900"
   viewBox="0 0 900 900"
   xmlns="http://www.w3.org/2000/svg"
   xmlns:svg="http://www.w3.org/2000/svg">
  <defs
     id="defs186" />
  <g
     id="g188">
    <g
       id="g300"
       transform="translate(2.3940138,26.33416)">
      <path
         style="fill:#fdfdfd;stroke-width:1.3512"
         d="m -794.81299,447.83053 v -749.4764 H 468.02991 1730.8728 v 749.4764 749.47637 H 468.02991 -794.81299 Z M 477.12456,817.02549 c -0.54926,-11.82736 -0.85974,-21.65084 -0.68998,-21.82997 0.16977,-0.17911 6.86561,-1.29057 14.87968,-2.46991 44.85694,-6.60109 93.44864,-25.34333 133.25555,-51.39779 31.12211,-20.37012 68.08775,-54.86427 89.93454,-83.92148 50.75721,-67.50966 77.20561,-148.44427 77.10419,-235.94628 l -0.0184,-15.96107 16.61533,-49.69085 c 9.13838,-27.32998 16.3996,-49.90403 16.13611,-50.16457 -0.26362,-0.26054 -10.83848,1.64449 -23.4998,4.23339 -12.66131,2.5889 -23.61253,4.70009 -24.33603,4.69154 -0.7235,-0.008 -3.8939,-7.52946 -7.04548,-16.71311 C 757.4593,262.88353 736.35811,223.69748 713.07655,193.14735 699.42127,175.22896 669.55306,144.54748 653.13308,131.57178 600.33151,89.845876 539.62153,64.62934 475.4184,57.756058 c -19.89311,-2.129651 -67.65679,-0.963271 -85.65831,2.091761 -44.19729,7.500732 -83.24476,21.414872 -119.1848,42.470221 -39.43995,23.10577 -78.57504,58.46494 -106.10324,95.86595 -5.91396,8.03496 -6.53014,8.43025 -47.54942,30.5046 -22.856783,12.30026 -42.007533,22.80084 -42.557211,23.33462 -0.549679,0.53377 8.625664,7.42576 20.389651,15.31554 11.76399,7.88978 21.58451,14.51251 21.82339,14.71718 0.23887,0.20466 -1.98259,7.14818 -4.9366,15.43005 -9.00899,25.25763 -15.421024,52.01887 -19.229153,80.25463 -2.523161,18.70819 -2.537223,74.03851 -0.0242,95.12522 7.732773,64.88488 32.628903,128.24152 70.837613,180.27019 13.40441,18.25277 45.04813,51.89253 60.78582,64.62011 48.01809,38.83381 103.86652,64.64362 160.74609,74.28726 8.21098,1.39212 15.02222,4.61561 51.30138,24.27886 23.00833,12.47048 41.88522,22.56874 41.94862,22.44058 0.0634,-0.12824 -0.33409,-9.90996 -0.88335,-21.73734 z m -3.20846,-75.03014 c -0.52874,-16.02048 -1.39518,-29.41106 -1.92541,-29.75682 -0.53024,-0.34576 -15.10537,9.11137 -32.38918,21.01583 -17.28379,11.90446 -36.00799,24.74812 -41.60929,28.54145 l -10.18421,6.89698 -16.19078,-3.58093 c -138.07,-30.53704 -241.51732,-151.84943 -257.45099,-301.9121 -3.38596,-31.88877 -1.07831,-79.43735 5.35536,-110.34593 4.55698,-21.8926 15.14776,-56.3065 17.32818,-56.3065 0.54298,0 8.37852,5.01169 17.4123,11.1371 9.03377,6.1254 17.23155,11.46361 18.21727,11.86271 1.45525,0.58918 1.95579,-4.17967 2.66213,-25.36327 0.47846,-14.34889 1.25595,-37.25771 1.72778,-50.90848 l 0.85786,-24.81959 7.91371,-10.57235 c 9.88613,-13.20739 35.04876,-39.78542 48.68821,-51.42692 33.64872,-28.7197 77.02692,-51.81879 121.41617,-64.654646 29.56716,-8.549805 49.26284,-11.064464 85.97547,-10.976984 34.5961,0.08244 50.54091,2.024391 78.90276,9.609759 36.20892,9.684041 76.6466,29.215261 106.91813,51.640841 35.27028,26.1288 69.70406,64.51717 92.01692,102.58487 12.13368,20.70091 28.78755,57.94505 31.95203,71.45619 l 0.84505,3.60815 -22.12698,4.56588 c -12.16986,2.51123 -22.51767,4.94722 -22.99506,5.41331 -0.47738,0.46611 12.93467,17.7006 29.80454,38.29889 33.51743,40.92489 32.20276,38.57276 32.20447,57.62103 0,25.23651 -3.98164,57.67751 -10.58841,86.22342 -10.97805,47.43341 -35.78976,98.19968 -67.41003,137.92554 -46.58785,58.53024 -114.72296,101.2803 -184.40808,115.70335 -10.85256,2.24621 -22.48292,4.43578 -25.84524,4.86571 l -6.11333,0.78169 z M 358.39985,665.07506 c 1.80353,-1.33284 5.0027,-8.6698 9.17205,-21.03526 l 6.40252,-18.98854 0.37195,15.48359 0.37195,15.48357 h 5.82329 5.8233 l 0.38206,-11.45033 c 0.30276,-9.07364 0.79164,-11.45034 2.35526,-11.45034 1.56362,0 2.0525,2.3767 2.35525,11.45034 l 0.38207,11.45033 h 5.86637 5.86638 v -11.79731 c 0,-9.56123 0.374,-11.79732 1.9732,-11.79732 1.48276,0 1.97319,1.67333 1.97319,6.73249 0,13.4829 5.10851,19.7255 14.38319,17.57624 3.55411,-0.82362 4.03327,-1.5059 4.03327,-5.74294 0,-3.80939 -0.47824,-4.72356 -2.30206,-4.40046 -1.90992,0.33836 -2.36979,-0.83341 -2.69967,-6.87875 -0.35794,-6.55942 -0.12826,-7.28658 2.30206,-7.28658 2.12265,0 2.69967,-0.88993 2.69967,-4.16376 0,-3.23847 -0.58465,-4.16375 -2.63093,-4.16375 -2.12119,0 -2.63092,-0.92529 -2.63092,-4.77581 0,-5.71957 -0.53671,-6.13053 -6.90617,-5.28826 -4.60884,0.60946 -4.93298,0.96155 -4.93298,5.3582 0,3.78058 -0.51729,4.70587 -2.63092,4.70587 -1.57112,0 -2.63093,0.92528 -2.63093,2.29699 0,2.13737 -0.16717,2.13737 -2.40563,0 -2.70801,-2.58571 -9.6278,-3.02775 -13.46638,-0.86025 -1.78369,1.00719 -2.54445,0.98974 -2.54445,-0.0584 0,-0.97392 -3.53263,-1.35382 -10.13361,-1.08977 l -10.13363,0.40536 -1.93648,6.59262 c -1.06506,3.62594 -2.36548,6.59261 -2.88979,6.59261 -0.52432,0 -1.66335,-3.12282 -2.53117,-6.93959 l -1.57787,-6.9396 h -6.44611 c -3.54535,6e-5 -6.4461,0.50377 -6.4461,1.11944 0,0.61567 2.36783,7.52991 5.26185,15.36497 2.89401,7.83509 5.26184,14.82613 5.26184,15.53565 0,0.70953 -2.07185,1.29006 -4.60411,1.29006 -4.38487,0 -4.60412,0.23132 -4.60412,4.85772 0,4.79458 0.0731,4.85771 5.62688,4.85771 3.09479,0 6.87318,-0.92102 8.39643,-2.04671 z m -26.68103,-9.17857 c 7.46865,-2.18797 11.34226,-6.86482 11.34226,-13.69418 0,-7.34817 -3.10375,-10.52174 -13.1815,-13.47792 -7.7436,-2.27151 -9.71455,-4.89816 -4.30929,-5.74292 1.48103,-0.23146 3.58398,0.51944 4.67321,1.66868 1.58084,1.66792 2.95724,1.80496 6.82156,0.6792 6.01707,-1.75291 5.83076,-4.6839 -0.59039,-9.28763 -3.87497,-2.77822 -5.81092,-3.20462 -12.35446,-2.72117 -6.72425,0.49682 -8.25984,1.16419 -11.51028,5.00245 -7.53035,8.89215 -3.54803,17.61974 9.92539,21.75231 4.51282,1.38418 7.37115,3.02999 7.37115,4.24428 0,2.97231 -7.06984,2.46742 -9.78568,-0.69884 -1.26537,-1.47524 -2.98499,-2.46424 -3.8214,-2.1978 -0.8364,0.26644 -3.14861,0.86077 -5.13825,1.32076 -4.54677,1.05115 -4.58837,3.54434 -0.1375,8.24036 5.43313,5.73242 12.31778,7.36662 20.69518,4.91242 z m 149.99377,-0.42542 c 2.41446,-1.0644 5.27547,-3.26918 6.35779,-4.89953 l 1.96786,-2.96426 2.14693,3.45711 c 4.18343,6.73642 18.10426,7.79804 25.18599,1.92073 3.26768,-2.71194 3.2772,-2.71149 3.2772,0.15673 0,2.52661 0.8002,2.87657 6.57731,2.87657 h 6.57731 v -15.96107 -15.96107 h -6.57731 -6.57731 v 8.42825 8.42825 l -3.27323,-2.71655 c -1.80028,-1.49409 -6.01538,-3.15041 -9.36692,-3.68068 -4.31041,-0.68199 -5.68371,-1.3967 -4.69272,-2.44228 0.99098,-1.04556 2.51808,-0.98992 5.21829,0.19015 3.82292,1.67073 10.79912,0.81977 10.79912,-1.31728 0,-3.27643 -7.24398,-6.88986 -13.81234,-6.88986 -8.86512,0 -13.81235,3.68741 -13.81235,10.29501 0,5.88463 3.033,8.66083 11.57308,10.59323 3.77383,0.85391 6.52652,2.12447 6.11708,2.82344 -1.02586,1.75133 -6.32931,1.59897 -8.0644,-0.2317 -2.02172,-2.13308 -22.78037,-3.28184 -22.78037,-1.26065 0,2.1056 -6.88711,1.14734 -7.57207,-1.05357 -0.40061,-1.28722 2.07882,-1.73489 9.60885,-1.73489 h 10.14879 l -0.74972,-5.89866 c -1.06137,-8.35071 -6.73236,-13.53221 -14.81059,-13.53221 -7.66862,0 -13.47436,3.21297 -15.64419,8.65771 l -1.71933,4.31433 -0.91978,-4.41842 c -0.50588,-2.43012 -1.80163,-5.34884 -2.87944,-6.48603 -2.34872,-2.47807 -11.12949,-2.74259 -13.34781,-0.40209 -1.22776,1.29539 -1.57855,0.0616 -1.57855,-5.55168 v -7.21718 h -5.91958 -5.91957 v 21.51275 21.51275 h 5.86638 5.86638 l 0.38206,-11.45033 c 0.30275,-9.07364 0.79163,-11.45034 2.35525,-11.45034 1.56363,0 2.0525,2.3767 2.35526,11.45034 l 0.38206,11.45033 h 6.52411 6.52411 v -5.75692 -5.75694 l 3.00534,4.716 c 4.59059,7.20356 13.24879,9.75618 21.20103,6.25051 z m -11.05176,-20.81691 c 0,-2.67135 3.89328,-4.00468 6.08631,-2.08437 2.89479,2.5348 2.10495,4.01776 -2.13992,4.01776 -2.49621,0 -3.94639,-0.71046 -3.94639,-1.93339 z m 112.94657,21.88867 c 4.6958,-0.99089 10.7068,-6.31294 10.7068,-9.47961 0,-1.57554 -1.38189,-2.14816 -5.18423,-2.14816 -2.85127,0 -5.55007,0.62457 -5.99719,1.38792 -1.30796,2.23296 -7.23504,1.66445 -7.23504,-0.69396 0,-1.65059 1.8915,-2.08187 9.13062,-2.08187 5.02177,0 9.48803,-0.61016 9.92476,-1.3559 0.43686,-0.74575 0.16101,-3.83716 -0.61287,-6.8698 -1.93689,-7.58887 -7.04167,-11.20517 -15.81737,-11.20517 -6.01877,0 -7.36856,0.5633 -11.30718,4.71892 -3.61502,3.8142 -4.47257,5.79741 -4.47257,10.34409 0,8.20362 2.47793,12.75357 8.52366,15.65128 5.94352,2.84869 6.60796,2.94194 12.34061,1.73226 z m -7.4592,-22.38414 c 0.24376,-1.33587 1.61105,-2.42886 3.03819,-2.42886 1.42715,0 2.79444,1.09299 3.03819,2.42886 0.33216,1.81922 -0.43055,2.42886 -3.03819,2.42886 -2.60763,0 -3.37034,-0.60964 -3.03819,-2.42886 z m -13.40507,17.69597 c 0,-4.0785 -0.13642,-4.16376 -6.66466,-4.16376 h -6.66452 l 6.00679,-8.06692 c 3.74591,-5.03043 6.00693,-9.47107 6.00693,-11.79731 v -3.73039 H 548.93078 536.4339 v 4.08395 c 0,3.76955 0.40582,4.11682 5.27132,4.51074 l 5.27118,0.42678 -5.92891,7.95468 c -3.46335,4.64661 -5.92905,9.40839 -5.92905,11.45033 v 3.49566 h 13.81234 13.81235 z m -28.94015,-34.69798 c 0,-4.07123 -0.14615,-4.16376 -6.57731,-4.16376 -6.43116,0 -6.57731,0.0926 -6.57731,4.16376 0,4.07122 0.14615,4.16376 6.57731,4.16376 6.43116,0 6.57731,-0.0926 6.57731,-4.16376 z M 245.07273,411.13415 c 2.68703,-1.18454 4.84431,-1.46717 5.29723,-0.69396 0.42026,0.71745 3.56831,1.30444 6.99569,1.30444 h 6.23162 l -0.4487,-13.53221 c -0.24678,-7.44272 -0.72751,-14.92959 -1.06828,-16.63748 -2.0991,-10.52043 -28.22143,-10.70062 -33.53193,-0.23129 -1.83999,3.62743 -1.36247,4.09228 5.15092,5.01402 3.86025,0.5463 5.88131,0.1374 7.43763,-1.50461 2.65887,-2.80531 6.68645,-2.92291 7.66809,-0.2239 0.53868,1.48107 -0.58055,2.26415 -4.13451,2.89271 -8.88945,1.57222 -13.3535,3.56604 -16.03397,7.16141 -3.20013,4.29239 -3.37477,8.41463 -0.53755,12.68843 3.77325,5.68381 9.65694,6.98801 16.97376,3.76244 z m -3.30217,-10.21529 c 0,-3.19759 2.49428,-5.82926 5.52493,-5.82926 2.68207,0 2.99061,1.73055 1.0061,5.64292 -1.74731,3.4447 -6.53103,3.58119 -6.53103,0.18634 z m 60.67438,8.58811 c 2.27363,-2.17096 2.46776,-2.17562 2.46776,-0.0593 0,1.83111 1.33402,2.29699 6.57731,2.29699 h 6.57731 v -18.73691 -18.73691 h -7.23504 -7.23504 v 12.32134 c 0,9.09435 -0.50169,12.76062 -1.91557,13.99867 -3.58493,3.1391 -4.66174,0.0862 -4.66174,-13.21669 v -13.10332 h -7.23503 -7.23504 l 0.0925,14.92013 c 0.0508,8.20607 0.52506,16.08081 1.0538,17.4994 2.35202,6.31033 13.35819,7.96377 18.74881,2.81663 z m 39.46384,0 c 2.27363,-2.17096 2.46776,-2.17562 2.46776,-0.0593 0,1.8453 1.35803,2.29759 6.90617,2.30001 l 6.90618,0.003 -0.41623,-13.88222 c -0.35569,-11.86278 -0.11651,-13.88204 1.64433,-13.88204 1.68913,0 2.06055,1.89558 2.06055,10.51616 0,9.77256 0.27189,10.80303 3.8452,14.57315 3.84876,4.06076 7.91894,4.97018 14.24239,3.18221 2.42514,-0.6857 2.95979,-1.8105 2.95979,-6.22668 0,-4.82384 -0.34532,-5.3898 -3.28865,-5.3898 -3.14249,0 -3.28865,-0.37012 -3.28865,-8.32752 0,-7.9574 0.14616,-8.32752 3.28865,-8.32752 2.88149,0 3.28865,-0.60142 3.28865,-4.85771 0,-4.25629 -0.40716,-4.85772 -3.28865,-4.85772 -3.0207,0 -3.28865,-0.50891 -3.28865,-6.24564 v -6.24563 h -6.50167 -6.50167 l -0.4045,5.89865 c -0.33628,4.90355 -0.90383,5.97348 -3.3643,6.34217 -1.91993,0.28769 -2.95979,1.39942 -2.95979,3.16437 0,2.60665 -0.17027,2.58804 -4.05659,-0.44351 -5.56821,-4.34352 -19.02373,-4.51967 -24.3565,-0.31889 -5.33219,4.20035 -6.89772,7.33953 -4.47344,8.97008 3.25656,2.19035 11.45464,1.65296 12.35026,-0.80955 0.46707,-1.28421 1.96829,-1.99673 3.65522,-1.7349 4.42675,0.6871 4.33021,3.56641 -0.15026,4.48166 -2.20883,0.45121 -5.74516,1.17146 -7.8585,1.60053 -11.48987,2.33284 -14.79522,17.55275 -4.84006,22.2867 4.89111,2.32584 12.02461,1.53498 15.42296,-1.70988 z m -6.33775,-8.37244 c -0.50828,-1.3975 0.11523,-3.01201 1.60816,-4.16376 3.38447,-2.61109 5.88189,-2.34908 5.88189,0.61708 0,5.13131 -5.89797,7.92411 -7.49005,3.54668 z m 76.7934,9.30076 c 3.28941,-1.5757 6.32944,-4.3215 7.55657,-6.82523 l 2.0531,-4.18895 -5.96393,-0.9436 c -4.66261,-0.73771 -6.50303,-0.42884 -8.43468,1.41557 -3.03619,2.89905 -8.42372,2.30966 -9.01919,-0.9867 -0.39212,-2.17077 0.84744,-2.42886 11.66498,-2.42886 h 12.10374 l -0.87185,-5.75255 c -1.18483,-7.81767 -4.92949,-12.90739 -11.55381,-15.70391 -13.25984,-5.59777 -26.56898,3.74833 -26.56197,18.65264 0.004,7.98622 3.40132,13.53683 10.31382,16.84969 6.77244,3.24574 11.80301,3.22206 18.71322,-0.0881 z m -14.05397,-24.41072 c 0,-4.46986 7.47357,-4.05915 8.91068,0.48969 0.33263,1.05283 -1.163,1.63574 -4.19695,1.63574 -3.35594,0 -4.71373,-0.61222 -4.71373,-2.12543 z m -206.78066,19.8214 -0.40451,-5.89865 -10.85255,-0.40311 c -10.49031,-0.38966 -10.85256,-0.51495 -10.85256,-3.75337 0,-3.17031 0.47694,-3.37229 8.87937,-3.76065 l 8.87936,-0.41039 v -5.55168 -5.55167 l -8.96272,-0.4124 c -8.38945,-0.38602 -8.93637,-0.60796 -8.5505,-3.46979 0.3816,-2.83024 1.21859,-3.08736 11.26478,-3.46052 l 10.85256,-0.4031 v -5.49555 -5.49555 h -18.41646 -18.41646 v 24.98254 24.98255 h 18.4921 18.49209 z m 29.65423,-11.54965 c 3.36405,-9.59656 6.11645,-18.02817 6.11645,-18.73691 0,-0.70873 -2.2741,-1.2886 -5.05357,-1.2886 -5.03408,0 -5.06279,0.0321 -7.44331,8.32751 -1.31436,4.58014 -2.79425,8.32752 -3.28865,8.32752 -0.49441,0 -1.9743,-3.74738 -3.28866,-8.32752 l -2.38973,-8.32751 h -7.52231 -7.52229 l 6.63329,18.73691 6.63331,18.73691 h 5.50452 5.50451 z m 58.73491,-7.53424 v -24.98254 h -7.23504 -7.23504 v 24.98254 24.98255 h 7.23504 7.23504 z M 551.42227,246.63816 c 3.97045,-1.5927 6.61572,-6.90029 13.42757,-26.9417 2.82061,-8.29864 5.31972,-14.07586 5.55361,-12.83825 0.31545,1.66853 1.93071,2.25021 6.24845,2.25021 3.20275,0 5.82315,0.33994 5.82315,0.75541 0,0.41549 -2.95979,4.88058 -6.57731,9.92242 -3.61752,5.04185 -6.57731,10.63526 -6.57731,12.42982 0,3.23598 0.12366,3.26281 15.12781,3.26281 h 15.12781 v -4.0945 c 0,-3.9891 -0.1868,-4.1052 -7.25925,-4.51073 l -7.25924,-0.41624 6.60151,-8.59662 c 4.73619,-6.16761 6.60151,-9.80589 6.60151,-12.87637 v -4.27973 l -18.63745,0.38508 -18.63733,0.38509 -2.59567,8.22122 -2.59566,8.22122 -2.49293,-8.5682 -2.49294,-8.5682 h -7.18741 -7.18729 v -6.24563 -6.24564 h -6.57731 -6.5773 v 23.59463 23.59462 h 6.5773 6.57731 l 0.0513,-17.00201 0.0526,-17.00201 5.86749,15.95523 c 3.22722,8.77538 5.86761,16.73857 5.86761,17.69597 0,1.06415 -1.78955,1.74074 -4.60411,1.74074 -4.49454,0 -4.60412,0.13213 -4.60412,5.55168 0,5.39945 0.12365,5.55168 4.51848,5.55168 2.48517,0 6.01271,-0.5994 7.83897,-1.332 z m -48.31617,-11.2461 c 2.022,-0.81112 4.12332,-2.21639 4.66961,-3.12282 0.6654,-1.10412 0.99987,-0.84643 1.01336,0.78078 0.0163,1.96917 1.20273,2.42907 6.26858,2.42993 l 6.24844,0.001 -0.4366,-13.53329 c -0.27674,-8.57977 -1.11806,-14.65636 -2.2985,-16.60161 -2.3443,-3.86312 -11.10304,-6.42702 -17.84835,-5.22464 -5.54075,0.98767 -12.96081,6.60059 -12.96081,9.80426 0,2.31381 11.17683,2.82412 12.49688,0.57059 1.30799,-2.23296 7.23504,-1.66445 7.23504,0.69396 0,1.37766 -1.30595,2.08188 -3.86075,2.08188 -4.9975,0 -10.5531,2.25524 -14.0375,5.69838 l -2.77045,2.73764 -0.76603,-7.83103 c -0.42132,-4.30706 -1.72586,-8.95004 -2.89899,-10.31772 -2.95487,-3.44496 -8.41148,-4.26602 -13.48545,-2.02921 -2.35159,1.03668 -4.27559,1.29217 -4.27559,0.56776 0,-0.7244 -2.66381,-1.3171 -5.91958,-1.3171 h -5.91957 l -0.0991,16.30805 -0.099,16.30805 -5.86629,-19.43087 c -8.34213,-27.63152 -7.20698,-25.6765 -14.90856,-25.6765 -4.92327,0 -6.85163,0.60578 -7.73162,2.42886 -0.64481,1.33587 -3.6495,11.03171 -6.67707,21.54631 -3.02759,10.51459 -5.83993,20.03919 -6.24967,21.16576 -0.59071,1.62413 0.51686,2.04832 5.34822,2.04832 5.71786,0 6.14182,-0.25648 6.88248,-4.16375 0.74404,-3.92514 1.14737,-4.16376 7.03772,-4.16376 5.89035,0 6.29368,0.23862 7.03772,4.16376 l 0.78927,4.16375 h 13.79402 13.79401 l 0.38009,-12.12868 c 0.32149,-10.25879 0.73499,-12.20026 2.68213,-12.59303 2.05564,-0.41466 2.30206,0.88367 2.30206,12.12868 v 12.59303 h 7.23504 c 6.56843,0 7.23504,-0.28019 7.23504,-3.04111 0,-2.73133 0.16749,-2.80738 1.64432,-0.74664 1.61828,2.25813 6.72635,4.91533 9.78033,5.08769 0.85728,0.0484 3.21306,-0.57565 5.23507,-1.38676 z m -2.18966,-10.77151 c 0,-2.5194 2.34028,-4.40878 5.46093,-4.40878 0.71465,0 1.1102,1.40527 0.87901,3.12282 -0.55787,4.14434 -6.33994,5.31715 -6.33994,1.28596 z m -71.64349,-13.08327 c 0.50375,-2.48091 1.14274,-4.77098 1.41998,-5.08905 0.83847,-0.96193 1.46687,0.35514 2.42811,5.08905 0.8111,3.99454 0.59092,4.51073 -1.92405,4.51073 -2.51496,0 -2.73514,-0.51619 -1.92404,-4.51073 z m 193.86393,24.45216 c 4.76342,-1.00516 11.95662,-7.49221 11.95662,-10.78284 0,-3.05342 -10.81546,-3.11085 -13.20723,-0.0701 -2.16946,2.75801 -7.02391,2.04981 -7.59429,-1.10792 -0.38859,-2.15086 0.77678,-2.42886 10.18141,-2.42886 h 10.62011 v -4.65247 c 0,-11.10691 -11.1338,-19.35652 -21.96939,-16.27811 -15.61768,4.43708 -18.31069,26.61196 -4.06043,33.43585 6.18411,2.96134 7.88843,3.18956 14.0732,1.88448 z m -8.76189,-24.45216 c 0.3015,-0.9542 1.92938,-1.7349 3.61751,-1.7349 1.68814,0 3.31602,0.7807 3.61752,1.7349 0.36162,1.14442 -0.86965,1.7349 -3.61752,1.7349 -2.74786,0 -3.97913,-0.59048 -3.61751,-1.7349 z"
         id="path316" />
      <path
         style="fill:#d7d7d7;stroke-width:1.3512"
         d="m 434.64274,815.54623 c -23.78195,-12.90308 -43.90554,-23.05933 -44.71908,-22.56945 -0.81354,0.48988 -1.03358,0.37247 -0.48897,-0.2609 0.5446,-0.63338 -3.00715,-3.43433 -7.89277,-6.22433 -4.88563,-2.79003 -8.88296,-5.42283 -8.88296,-5.85069 0,-2.04244 98.31703,-69.34706 99.43234,-68.06813 0.50092,0.57439 1.63366,20.71809 2.51722,44.76379 0.88356,24.04571 2.02111,52.15107 2.52791,62.45637 0.50679,10.3053 0.88203,18.84414 0.83383,18.9752 -0.0482,0.13102 -19.54557,-10.31877 -43.32752,-23.22186 z m -230.48781,-115.46137 -2.50594,-3.12282 2.95978,2.64397 c 2.78147,2.48468 3.55864,3.60166 2.50594,3.60166 -0.24962,0 -1.58152,-1.40526 -2.95978,-3.12281 z m 471.71787,-0.34698 c 1.69919,-1.90839 3.38548,-3.4698 3.74723,-3.4698 0.36175,0 -0.73258,1.56141 -2.43176,3.4698 -1.69919,1.90838 -3.38548,3.46979 -3.74723,3.46979 -0.36175,0 0.73258,-1.56141 2.43176,-3.46979 z m -19.73192,-12.32134 c 0,-0.2882 1.03593,-1.38119 2.30206,-2.42886 2.08645,-1.72639 2.13289,-1.6773 0.49672,0.52402 -1.71852,2.31193 -2.79878,3.04715 -2.79878,1.90484 z M 179.77607,674.40835 c -1.63626,-2.20132 -1.58973,-2.25041 0.49667,-0.52402 1.26613,1.04767 2.30206,2.14065 2.30206,2.42885 0,1.14232 -1.08025,0.4071 -2.79873,-1.90483 z m 518.45958,1.90483 c 0,-0.2882 1.03592,-1.38118 2.30205,-2.42885 2.08646,-1.72639 2.13289,-1.6773 0.49672,0.52402 -1.71852,2.31193 -2.79877,3.04715 -2.79877,1.90483 z m -13.15462,-19.43086 c 0,-0.28821 1.03593,-1.38119 2.30206,-2.42886 2.08645,-1.72639 2.13289,-1.6773 0.49672,0.52402 -1.71852,2.31193 -2.79878,3.04715 -2.79878,1.90484 z M 112.9592,458.12427 c 0.0631,-1.61686 0.37483,-1.94572 0.79475,-0.83854 0.38,1.0019 0.33327,2.19899 -0.10379,2.66018 -0.43712,0.46119 -0.74802,-0.35855 -0.69091,-1.82164 z m 655.09969,-13.87919 c 0.0631,-1.61686 0.37491,-1.94573 0.7948,-0.83854 0.38004,1.00189 0.33334,2.19899 -0.10392,2.66018 -0.43713,0.46119 -0.7481,-0.35855 -0.69101,-1.82164 z m 22.21433,-16.53938 -0.61301,-18.04295 -2.63092,7.91596 -2.63092,7.91595 -7.21202,-8.97427 c -5.85749,-7.2887 -7.3725,-8.5148 -8.06602,-6.52802 -0.67588,1.9361 -0.95502,1.66644 -1.33848,-1.29317 -0.319,-2.46179 -10.6751,-16.21344 -30.31138,-40.24966 -16.40473,-20.08065 -29.9007,-37.13168 -29.99108,-37.89119 -0.16075,-1.35048 34.94694,-9.47777 47.97883,-11.10692 3.61751,-0.45224 10.12905,-1.73886 14.47007,-2.85914 11.6759,-3.01319 53.85722,-11.49832 54.41551,-10.94615 0.26493,0.26196 -6.83856,22.21144 -15.78554,48.77665 l -16.26713,48.30036 -0.70245,21.51275 -0.70246,21.51275 z m -678.4016,4.16376 c 0.0146,-3.05342 0.28399,-4.13912 0.59864,-2.41268 0.31464,1.72645 0.3027,4.2247 -0.0266,5.55168 -0.32924,1.32698 -0.58669,-0.0856 -0.57209,-3.139 z m 0.0445,-12.49127 c 0.0105,-3.81678 0.26535,-5.21346 0.56771,-3.10374 0.30237,2.10972 0.29428,5.23254 -0.0179,6.9396 -0.31224,1.70705 -0.55962,-0.019 -0.54976,-3.83586 z M 90.596318,390.11623 c 0.06314,-1.61686 0.374827,-1.94573 0.794749,-0.83854 0.379997,1.00189 0.333272,2.19899 -0.10379,2.66018 -0.437115,0.46119 -0.748024,-0.35856 -0.690907,-1.82164 z m 96.256592,-4.04811 c 0.0146,-3.05342 0.284,-4.13912 0.59864,-2.41267 0.31465,1.72644 0.3027,4.2247 -0.0266,5.55167 -0.32925,1.32698 -0.58669,-0.0856 -0.57209,-3.139 z m -31.59698,-77.7236 c -9.5991,-6.48845 -17.98516,-11.79719 -18.6357,-11.79719 -0.65055,0 -1.38011,-0.54774 -1.62129,-1.2172 -0.43819,-1.21639 -5.80328,-4.94644 -42.147435,-29.30281 -10.640372,-7.13074 -19.117508,-13.35524 -18.838104,-13.83224 0.961208,-1.64092 101.948979,-54.68971 102.667789,-53.93129 1.10192,1.16261 0.79429,34.33916 -0.64751,69.8312 -0.71323,17.55717 -1.30912,36.45023 -1.32421,41.98455 -0.0151,5.53433 -0.47141,10.06236 -1.01404,10.06229 -0.54263,-5e-5 -8.8404,-5.30884 -18.4395,-11.79731 z m 387.50863,-71.0379 c 0.94963,-0.40093 2.08422,-0.35163 2.52134,0.10951 0.43713,0.46119 -0.33991,0.78922 -1.72654,0.72896 -1.53251,-0.0666 -1.84415,-0.39547 -0.7948,-0.83853 z M 193.09849,197.48104 c 0,-0.2882 1.03592,-1.38119 2.30205,-2.42886 2.0864,-1.72639 2.13293,-1.6773 0.49667,0.52402 -1.71848,2.31193 -2.79872,3.04715 -2.79872,1.90484 z m 485.30566,-8.84443 -3.18908,-3.81678 3.61752,3.36475 c 1.98964,1.85062 3.61752,3.56817 3.61752,3.81677 0,1.08852 -1.06526,0.20261 -4.04596,-3.36474 z m -506.35304,-0.871 c 0,-0.28821 1.03592,-1.38119 2.30205,-2.42886 2.0864,-1.72639 2.13293,-1.6773 0.49667,0.52402 -1.71848,2.31193 -2.79872,3.04715 -2.79872,1.90484 z m 531.27853,-6.0686 c -1.63617,-2.20132 -1.58974,-2.25041 0.49672,-0.52402 2.19116,1.81314 2.88809,2.95288 1.80534,2.95288 -0.27309,0 -1.30902,-1.09299 -2.30206,-2.42886 z m -36.06929,-4.85772 -5.19989,-5.89865 5.59071,5.48637 c 5.19936,5.10227 6.19517,6.31094 5.19989,6.31094 -0.21482,0 -2.73064,-2.65439 -5.59071,-5.89866 z M 182.5748,175.36406 c 0,-0.23886 1.92386,-2.26869 4.27525,-4.51074 l 4.27524,-4.07644 -3.86362,4.51074 c -3.60145,4.20464 -4.68687,5.14869 -4.68687,4.07644 z m 17.10099,-18.13268 c 0,-0.2882 1.03593,-1.38119 2.30206,-2.42886 2.0864,-1.72639 2.13293,-1.6773 0.49667,0.52403 -1.71848,2.31192 -2.79873,3.04715 -2.79873,1.90483 z m 470.76732,-10.23235 c -1.63618,-2.20132 -1.58974,-2.25041 0.49671,-0.52402 2.19117,1.81313 2.8881,2.95288 1.80534,2.95288 -0.27309,0 -1.30901,-1.09299 -2.30205,-2.42886 z M 463.75466,80.500654 c 0.90438,-0.385022 2.38427,-0.385022 3.28865,0 0.90438,0.385023 0.16444,0.700053 -1.64432,0.700053 -1.80876,0 -2.54871,-0.31503 -1.64433,-0.700053 z"
         id="path314" />
      <path
         style="fill:#fed8a0;stroke-width:1.3512"
         d="m 346.02087,657.83752 c 1.26613,-0.34909 3.33798,-0.34909 4.60411,0 1.26614,0.34911 0.23021,0.63474 -2.30205,0.63474 -2.53227,0 -3.56819,-0.28563 -2.30206,-0.63474 z m -22.33781,-1.393 c 1.2799,-0.35189 3.05578,-0.32875 3.94638,0.0515 0.89061,0.38019 -0.15658,0.6681 -2.32709,0.63981 -2.17051,-0.0283 -2.89919,-0.33934 -1.61929,-0.69124 z m 93.39776,0 c 1.2799,-0.35189 3.05577,-0.32875 3.94638,0.0515 0.89061,0.38019 -0.15658,0.6681 -2.32709,0.63981 -2.17051,-0.0283 -2.8992,-0.33934 -1.61929,-0.69124 z m 55.88207,0.0426 c 0.90438,-0.38502 2.38427,-0.38502 3.28865,0 0.90438,0.38503 0.16444,0.70006 -1.64432,0.70006 -1.80876,0 -2.54871,-0.31503 -1.64433,-0.70006 z m 31.57107,0 c 0.90438,-0.38502 2.38428,-0.38502 3.28866,0 0.90438,0.38503 0.16443,0.70006 -1.64433,0.70006 -1.80876,0 -2.54871,-0.31503 -1.64433,-0.70006 z m 73.66584,0 c 0.90438,-0.38502 2.38427,-0.38502 3.28865,0 0.90438,0.38503 0.16443,0.70006 -1.64432,0.70006 -1.80876,0 -2.54871,-0.31503 -1.64433,-0.70006 z M 385.59812,646.30298 c 0,-5.72516 0.23219,-8.06728 0.516,-5.20469 0.2838,2.86258 0.2838,7.54681 0,10.40939 -0.28381,2.86258 -0.516,0.52047 -0.516,-5.2047 z m 59.21312,-1.38792 c 0,-6.48852 0.2266,-9.14291 0.50356,-5.89865 0.27694,3.24426 0.27694,8.55305 0,11.79731 -0.27696,3.24426 -0.50356,0.58987 -0.50356,-5.89866 z m 11.58765,0 c -0.0946,-8.70609 0.22685,-11.15401 1.2266,-9.34223 0.90147,1.63366 0.94435,5.58074 0.12813,11.79731 l -1.2266,9.34224 z m 64.12829,7.98054 c -0.29722,-7.65919 0.30193,-28.0648 0.84087,-28.63332 0.32768,-0.34575 0.59578,6.65794 0.59578,15.56374 0,8.90582 -0.29598,16.1924 -0.65774,16.1924 -0.36175,0 -0.71226,-1.40527 -0.77891,-3.12282 z m 12.46258,-12.83825 c 0,-9.16027 0.21547,-12.72704 0.47304,-7.92615 0.25757,4.80089 0.25546,12.29565 0,16.65504 -0.2602,4.35937 -0.47094,0.43137 -0.4683,-8.72889 z m 28.5905,12.91429 c -0.14023,-3.43653 -0.66076,-3.78301 -6.40104,-4.26056 l -6.24844,-0.51983 6.28975,-0.25017 c 6.60598,-0.26275 8.35384,1.27248 7.12875,6.26137 -0.41135,1.67478 -0.6672,1.26523 -0.76902,-1.23081 z m -68.72438,-0.77 c -1.63627,-2.20132 -1.58974,-2.25041 0.49666,-0.52402 1.26613,1.04767 2.30206,2.14066 2.30206,2.42886 0,1.14231 -1.08025,0.40709 -2.79872,-1.90484 z m -155.05664,0.51692 c 0,-0.2882 1.03592,-1.38119 2.30205,-2.42886 2.0864,-1.72639 2.13293,-1.6773 0.49667,0.52402 -1.71848,2.31193 -2.79872,3.04715 -2.79872,1.90484 z m 136.56133,-4.58784 c 0.94959,-0.40093 2.08419,-0.35163 2.5213,0.10951 0.43712,0.46119 -0.33983,0.78922 -1.72654,0.72896 -1.53245,-0.0666 -1.84415,-0.39547 -0.79476,-0.83852 z m 15.33362,-0.50952 c -1.2082,-2.06258 -0.24731,-2.79277 1.86369,-1.41624 1.13095,0.73747 1.26549,1.45273 0.38167,2.02905 -0.75075,0.48955 -1.76116,0.21378 -2.24536,-0.61281 z m 10.00399,-0.50069 c -1.12372,-1.42859 -1.14362,-2.21706 -0.0735,-2.91482 0.80677,-0.52608 1.82211,-0.58168 2.25632,-0.12353 0.43419,0.45812 0.0263,0.83295 -0.90633,0.83295 -1.3582,0 -1.36979,0.41443 -0.0581,2.08188 0.90068,1.14503 1.34162,2.08187 0.97987,2.08187 -0.36175,0 -1.35091,-0.88124 -2.19814,-1.95831 z m 78.58383,1.01021 c 0.94964,-0.40093 2.08422,-0.35163 2.52135,0.10951 0.43713,0.46119 -0.33992,0.78922 -1.72654,0.72896 -1.53252,-0.0666 -1.84415,-0.39547 -0.79481,-0.83852 z m -170.3557,-8.07337 c 0.008,-4.58014 0.25296,-6.2865 0.54573,-3.79192 0.29277,2.49457 0.28673,6.24196 -0.0134,8.32751 -0.30016,2.08556 -0.53969,0.0445 -0.53231,-4.53559 z m 11.96499,5.71045 c -0.38469,-1.05769 -0.50138,-4.64893 -0.25929,-7.98053 0.42597,-5.8625 0.46038,-5.80056 1.06957,1.92499 0.63887,8.10179 0.44927,9.51869 -0.81028,6.05554 z m -90.55799,-3.22173 c -0.71388,-1.97807 -0.56278,-2.13748 0.73639,-0.77696 0.89902,0.94148 1.30319,2.06139 0.89817,2.48872 -0.40501,0.42733 -1.14057,-0.34297 -1.63456,-1.71176 z m 146.29527,-0.0369 c 3.09402,-0.29319 7.82968,-0.28906 10.52369,0.01 2.69401,0.29823 0.16255,0.53811 -5.62548,0.53308 -5.78803,-0.006 -7.99223,-0.24905 -4.89821,-0.54225 z m 108.12352,0.0139 c 5.61228,-0.2955 10.31019,-1.23286 10.95266,-2.18536 0.79493,-1.17828 0.96831,-1.05677 0.59064,0.41397 -0.41503,1.61616 -2.86507,2.10503 -10.95279,2.18535 l -10.41806,0.10354 9.82755,-0.51745 z m -224.24775,-3.15964 c -0.44715,-0.76336 -0.18611,-1.38792 0.58009,-1.38792 0.7662,0 1.3931,0.62456 1.3931,1.38792 0,0.76335 -0.26104,1.38792 -0.58009,1.38792 -0.31905,0 -0.94595,-0.62457 -1.3931,-1.38792 z m -48.18214,-5.2047 c -1.63626,-2.20132 -1.58974,-2.25041 0.49666,-0.52402 2.19123,1.81313 2.88807,2.95288 1.8054,2.95288 -0.27316,0 -1.30909,-1.09299 -2.30206,-2.42886 z m 91.91514,-3.4698 c -0.33904,-0.95419 -0.14799,-2.98402 0.42454,-4.51074 0.84768,-2.26044 1.05813,-1.93832 1.13341,1.7349 0.0962,4.69082 -0.50008,5.75314 -1.55795,2.77584 z m 56.89979,-0.17704 c 0,-0.2882 1.03593,-1.38119 2.30206,-2.42886 2.0864,-1.72639 2.13293,-1.6773 0.49666,0.52402 -1.71847,2.31193 -2.79872,3.04715 -2.79872,1.90484 z m -151.07036,-3.63974 c 0,-1.90838 0.29859,-2.68909 0.66351,-1.73489 0.36492,0.95419 0.36492,2.5156 0,3.46979 -0.36492,0.9542 -0.66351,0.17349 -0.66351,-1.7349 z m 183.9569,2.25182 c 0,-0.2882 1.03592,-1.38119 2.30205,-2.42886 2.0864,-1.72639 2.13293,-1.6773 0.49667,0.52402 -1.71848,2.31193 -2.79872,3.04715 -2.79872,1.90484 z m -73.33411,-9.88537 c 0.0146,-3.05342 0.284,-4.13912 0.59864,-2.41268 0.31465,1.72645 0.3027,4.2247 -0.0266,5.55168 -0.32925,1.32698 -0.58669,-0.0856 -0.57209,-3.139 z m 101.26398,-2.08188 c 0,-2.67174 0.27072,-3.76473 0.60156,-2.42886 0.33097,1.33587 0.33097,3.52185 0,4.85772 -0.33084,1.33587 -0.60156,0.24288 -0.60156,-2.42886 z m 11.83915,0 c 0,-2.67174 0.27073,-3.76473 0.60156,-2.42886 0.33097,1.33587 0.33097,3.52185 0,4.85772 -0.33083,1.33587 -0.60156,0.24288 -0.60156,-2.42886 z m -123.75085,0 c 0,-1.90839 0.29858,-2.68909 0.6635,-1.7349 0.36492,0.9542 0.36492,2.5156 0,3.4698 -0.36492,0.95419 -0.6635,0.17349 -0.6635,-1.7349 z m 21.18663,-3.77178 c 1.99958,-0.31903 4.95937,-0.31049 6.57731,0.0189 1.61794,0.32944 -0.018,0.59045 -3.63561,0.58004 -3.61751,-0.0111 -4.94128,-0.27997 -2.9417,-0.59898 z M 236.86261,412.17073 c 1.2799,-0.35189 3.05578,-0.32875 3.94638,0.0515 0.89061,0.38019 -0.15658,0.6681 -2.32709,0.63981 -2.17051,-0.0283 -2.89919,-0.33934 -1.61929,-0.69124 z m 54.56661,0.0426 c 0.90438,-0.38502 2.38428,-0.38502 3.28866,0 0.90438,0.38503 0.16443,0.70006 -1.64433,0.70006 -1.80876,0 -2.54871,-0.31503 -1.64433,-0.70006 z m 40.14661,-0.0426 c 1.2799,-0.35189 3.05577,-0.32875 3.94638,0.0515 0.89061,0.38019 -0.15658,0.6681 -2.32709,0.63981 -2.17051,-0.0283 -2.8992,-0.33934 -1.61929,-0.69124 z m 40.11187,-0.0198 c 1.63632,-0.33198 4.00415,-0.31938 5.26185,0.028 1.2577,0.34739 -0.0812,0.61902 -2.97513,0.60361 -2.89401,-0.0154 -3.92303,-0.29964 -2.28672,-0.63162 z m 29.60758,0.0198 c 1.2799,-0.35189 3.05578,-0.32875 3.94638,0.0515 0.89061,0.38019 -0.15658,0.6681 -2.32709,0.63981 -2.17051,-0.0283 -2.89919,-0.33934 -1.61929,-0.69124 z m -210.61719,-5.57467 -0.21053,-5.84253 -10.85255,-0.46758 -10.85256,-0.46759 10.89384,-0.28249 c 12.04198,-0.31228 12.71418,0.15934 11.77222,8.25985 -0.49167,4.22805 -0.5587,4.12086 -0.75042,-1.19966 z m 75.31679,-19.83398 c 0,-14.12208 0.19535,-19.89929 0.43409,-12.83825 0.23875,7.06104 0.23875,18.61547 0,25.67651 -0.23874,7.06103 -0.43409,1.28382 -0.43409,-12.83826 z m 51.276,6.24564 c 0.003,-10.68698 0.20854,-14.87546 0.45888,-9.30773 0.25033,5.56772 0.24864,14.31161 -0.004,19.43087 -0.25216,5.11925 -0.45698,0.56384 -0.45493,-10.12314 z m -69.44524,15.72975 c 0.37262,-0.63613 1.23452,-1.1566 1.91532,-1.1566 0.68081,0 1.23783,0.52047 1.23783,1.1566 0,0.63614 -0.86191,1.1566 -1.91533,1.1566 -1.05343,0 -1.61045,-0.52046 -1.23782,-1.1566 z m 53.14068,1.09522 c 0,-0.2882 1.03592,-1.38119 2.30206,-2.42886 2.0864,-1.72639 2.13292,-1.6773 0.49666,0.52402 -1.71848,2.31193 -2.79872,3.04715 -2.79872,1.90484 z m 86.65265,-3.29276 c -1.63627,-2.20132 -1.58974,-2.25041 0.49666,-0.52402 1.26613,1.04767 2.30206,2.14066 2.30206,2.42886 0,1.14231 -1.08024,0.40709 -2.79872,-1.90484 z m 27.79249,1.90484 c 0,-0.2882 1.03592,-1.38119 2.30205,-2.42886 2.0864,-1.72639 2.13293,-1.6773 0.49667,0.52402 -1.71848,2.31193 -2.79872,3.04715 -2.79872,1.90484 z m -58.72883,-12.66121 c -0.004,-6.8702 0.21843,-9.85573 0.49431,-6.63449 0.27588,3.22122 0.27917,8.84229 0.008,12.49127 -0.27186,3.64897 -0.49759,1.01342 -0.50159,-5.85678 z m -130.44116,5.55167 c 0.0268,-2.29006 0.32163,-3.05889 0.65515,-1.70848 0.33352,1.3504 0.3116,3.22409 -0.0488,4.16376 -0.36035,0.93966 -0.63322,-0.16521 -0.60642,-2.45528 z m 56.80586,-11.79731 c 0,-8.77859 0.21359,-12.36983 0.47464,-7.98053 0.26106,4.38929 0.26106,11.57177 0,15.96107 -0.26105,4.38929 -0.47464,0.79805 -0.47464,-7.98054 z m 118.88065,12.96 c 0.90438,-0.38502 2.38427,-0.38502 3.28865,0 0.90438,0.38503 0.16443,0.70006 -1.64433,0.70006 -1.80876,0 -2.5487,-0.31503 -1.64432,-0.70006 z m -24.311,-1.43054 c 1.2799,-0.35189 3.05577,-0.32876 3.94638,0.0515 0.89061,0.38019 -0.15658,0.6681 -2.32709,0.63982 -2.17051,-0.0283 -2.8992,-0.33935 -1.61929,-0.69124 z m 31.02413,-2.16551 c 0.66278,-0.69929 2.60524,-1.03906 4.31656,-0.75503 2.63315,0.43703 2.44787,0.63251 -1.20506,1.27146 -2.61412,0.45723 -3.8413,0.25356 -3.1115,-0.51643 z m -65.93361,-2.3131 c -0.57219,-2.30859 -0.40099,-2.85048 0.57517,-1.82054 0.76442,0.80652 1.13102,2.28565 0.81468,3.28695 -0.32841,1.03948 -0.92469,0.41034 -1.38985,-1.46641 z m 32.33228,-4.96897 c 0.008,-4.58013 0.25296,-6.2865 0.54573,-3.79192 0.29277,2.49458 0.28673,6.24196 -0.0134,8.32752 -0.30016,2.08555 -0.53969,0.0446 -0.53231,-4.5356 z m 22.81203,4.51074 c 0.33765,-0.57252 5.56945,-1.04094 11.62622,-1.04094 10.37427,0 11.04532,-0.18093 11.58237,-3.12282 0.50105,-2.74468 0.59178,-2.67219 0.74922,0.59872 l 0.17914,3.72154 -12.37544,0.44222 c -6.80648,0.24322 -12.09918,-0.0262 -11.76151,-0.59872 z m -186.99459,-3.81678 c -0.44716,-0.76336 -0.18612,-1.38792 0.58009,-1.38792 0.7662,0 1.3931,0.62456 1.3931,1.38792 0,0.76336 -0.26104,1.38792 -0.58009,1.38792 -0.31906,0 -0.94595,-0.62456 -1.3931,-1.38792 z m -37.84885,-1.0017 c 2.33524,-0.30661 6.47895,-0.31165 9.20823,-0.0111 2.72926,0.30046 0.81861,0.55131 -4.24592,0.55747 -5.06452,0.006 -7.29757,-0.23966 -4.96231,-0.54627 z m 224.83264,-2.84062 c -0.34359,-0.58657 1.69333,-0.83325 4.52649,-0.54818 2.83315,0.28506 5.15119,0.76498 5.15119,1.06649 0,1.03378 -9.05251,0.54896 -9.67768,-0.51831 z m -57.41085,-0.8669 c 0,-0.30002 0.91868,-0.91742 2.04152,-1.37203 1.17065,-0.47396 1.69868,-0.24129 1.23782,0.54546 -0.77252,1.31882 -3.27934,1.95066 -3.27934,0.82657 z m -106.88124,-1.76165 c 0.90438,-0.38502 2.38428,-0.38502 3.28866,0 0.90438,0.38502 0.16443,0.70005 -1.64433,0.70005 -1.80876,0 -2.54871,-0.31503 -1.64433,-0.70005 z m 93.39776,0 c 0.90438,-0.38502 2.38427,-0.38502 3.28865,0 0.90438,0.38502 0.16444,0.70005 -1.64432,0.70005 -1.80876,0 -2.54871,-0.31503 -1.64433,-0.70005 z M 173.00837,380.2087 c 2.33524,-0.3066 6.47895,-0.31164 9.20823,-0.0111 2.72926,0.30046 0.81861,0.55131 -4.24592,0.55747 -5.06452,0.006 -7.29757,-0.23967 -4.96231,-0.54627 z m 55.60757,0.47768 c 0,-0.2882 1.03593,-1.38119 2.30206,-2.42886 2.0864,-1.72639 2.13293,-1.6773 0.49667,0.52403 -1.71848,2.31192 -2.79873,3.04715 -2.79873,1.90483 z m 127.2778,-2.94577 c 0.34576,-1.90839 0.85562,-3.4698 1.13304,-3.4698 0.27741,0 0.50438,1.56141 0.50438,3.4698 0,1.90839 -0.50988,3.4698 -1.13305,3.4698 -0.62317,0 -0.85014,-1.56141 -0.50437,-3.4698 z m 59.34992,1.04094 c -1.63627,-2.20133 -1.58974,-2.25042 0.49666,-0.52403 1.26613,1.04767 2.30206,2.14066 2.30206,2.42886 0,1.14232 -1.08025,0.40709 -2.79872,-1.90483 z m -156.53991,-1.38792 c -1.63626,-2.20133 -1.58973,-2.25042 0.49667,-0.52403 1.26613,1.04768 2.30206,2.14066 2.30206,2.42886 0,1.14232 -1.08025,0.40709 -2.79873,-1.90483 z M 244.75538,373.309 c 1.2799,-0.3519 3.05578,-0.32876 3.94638,0.0515 0.89061,0.38019 -0.15658,0.6681 -2.32709,0.63981 -2.17051,-0.0283 -2.8992,-0.33934 -1.61929,-0.69124 z m 93.39775,0 c 1.27991,-0.3519 3.05578,-0.32876 3.94639,0.0515 0.89061,0.38019 -0.15658,0.6681 -2.32709,0.63981 -2.17051,-0.0283 -2.8992,-0.33934 -1.6193,-0.69124 z m 36.85526,-5.28383 c 0.0105,-3.81678 0.26535,-5.21345 0.56771,-3.10373 0.30237,2.10972 0.29428,5.23254 -0.0179,6.93959 -0.31224,1.70706 -0.55962,-0.0192 -0.54976,-3.83586 z m 27.0018,5.29754 c 0.9496,-0.40093 2.08419,-0.35163 2.52131,0.1095 0.43711,0.4612 -0.33984,0.78923 -1.72654,0.72897 -1.53245,-0.0666 -1.84415,-0.39548 -0.79477,-0.83853 z m -211.18435,-5.9915 c 0,-3.4351 0.25654,-4.84037 0.57008,-3.12282 0.31356,1.71755 0.31356,4.52809 0,6.24564 -0.31354,1.71755 -0.57008,0.31228 -0.57008,-3.12282 z m 173.12356,-4.5511 c 0.63471,-0.66967 2.85402,-0.99387 4.93179,-0.72046 3.47758,0.45762 3.38587,0.55437 -1.15401,1.21758 -2.8279,0.41311 -4.43949,0.20104 -3.77778,-0.49712 z M 541.36688,246.99066 c 1.62788,-0.33082 4.29169,-0.33082 5.91958,0 1.62788,0.33081 0.29598,0.60148 -2.95979,0.60148 -3.25577,0 -4.58767,-0.27067 -2.95979,-0.60148 z m 10.85256,-0.93245 c 0,-0.2882 1.03592,-1.38118 2.30205,-2.42885 2.08646,-1.7264 2.13289,-1.6773 0.49672,0.52402 -1.71852,2.31193 -2.79877,3.04715 -2.79877,1.90483 z m -55.57825,-10.1106 c 0.90438,-0.38502 2.38428,-0.38502 3.28866,0 0.90438,0.38502 0.16443,0.70005 -1.64433,0.70005 -1.80876,0 -2.54871,-0.31503 -1.64433,-0.70005 z M 617.0309,235.905 c 1.27995,-0.35189 3.05582,-0.32875 3.94639,0.0515 0.8907,0.3802 -0.15654,0.66811 -2.32705,0.63982 -2.17052,-0.0283 -2.89915,-0.33935 -1.61934,-0.69124 z M 465.84994,225.06949 c 0.005,-6.10685 0.23605,-8.43246 0.51394,-5.16802 0.27788,3.26445 0.27397,8.26096 -0.009,11.10336 -0.28265,2.8424 -0.51002,0.1715 -0.50524,-5.93534 z m 6.39412,-1.63314 c -0.22747,-10.81955 -0.61425,-12.83201 -2.56982,-13.3712 -2.15748,-0.59486 -2.15489,-0.64484 0.0413,-0.79573 3.29151,-0.22615 3.75125,1.93183 3.24301,15.22213 l -0.44672,11.68129 -0.26775,-12.73649 z m 13.01797,0.36087 c -0.0721,-6.80657 0.10064,-12.11536 0.38393,-11.79731 1.07082,1.20229 1.62157,17.38114 0.70477,20.70313 -0.59061,2.14013 -1.00782,-1.27268 -1.0887,-8.90582 z m 50.12305,-10.79598 -0.26664,-23.1716 -5.928,-0.55092 -5.92812,-0.55094 6.25699,0.12797 6.25686,0.12796 0.65773,6.24564 c 0.36175,3.4351 0.33373,14.05268 -0.0618,23.59463 l -0.71995,17.34899 -0.26664,-23.17161 z m 34.19174,19.00785 c 0.0263,-2.29007 0.32163,-3.0589 0.65523,-1.70849 0.33347,1.3504 0.31163,3.22409 -0.0487,4.16376 -0.36031,0.93966 -0.63313,-0.16521 -0.60643,-2.45527 z m 28.98895,-0.69396 c 0,-2.67175 0.27072,-3.76474 0.60156,-2.42886 0.33097,1.33587 0.33097,3.52184 0,4.85771 -0.33084,1.33588 -0.60156,0.24289 -0.60156,-2.42885 z m -98.51085,-4.91758 c -0.42843,-1.17796 -0.40984,-2.53118 0.0413,-3.00715 0.45113,-0.47599 0.82024,0.24832 0.82024,1.60957 0,1.88352 0.77642,2.31839 3.24885,1.81973 1.78685,-0.36039 2.93584,-0.12089 2.55328,0.53217 -1.16659,1.99156 -5.83541,1.32293 -6.66365,-0.95432 z m -72.47545,-0.24028 c 1.98964,-0.31801 5.24541,-0.31801 7.23504,0 1.98964,0.318 0.36175,0.57819 -3.61752,0.57819 -3.97927,0 -5.60715,-0.26019 -3.61752,-0.57819 z m 79.91428,-3.74796 c 0,-1.08142 -0.73995,-2.28124 -1.64433,-2.66627 -0.9823,-0.4182 -0.7175,-0.74416 0.65773,-0.80961 1.45971,-0.0695 2.30206,0.90614 2.30206,2.66626 0,1.52671 -0.29598,2.77584 -0.65773,2.77584 -0.36175,0 -0.65773,-0.8848 -0.65773,-1.96622 z m 105.25704,0.23132 c -0.0184,-2.15083 1.29744,-2.39688 11.49016,-2.14955 l 11.51028,0.27932 -10.48344,0.47851 c -6.2758,0.28645 -10.88754,1.1492 -11.49016,2.14954 -0.68653,1.13951 -1.01303,0.89847 -1.02684,-0.75782 z m 16.09427,0.77816 c 1.26613,-0.34908 3.33798,-0.34908 4.60412,0 1.26613,0.34911 0.2302,0.63474 -2.30206,0.63474 -2.53227,0 -3.56819,-0.28563 -2.30206,-0.63474 z m -29.16522,-8.18039 c 0.0631,-1.61686 0.3749,-1.94573 0.7948,-0.83854 0.38003,1.0019 0.33333,2.19899 -0.10392,2.66018 -0.43713,0.46119 -0.74811,-0.35855 -0.69102,-1.82164 z m -100.32551,-1.52641 c 0.9496,-0.40093 2.08419,-0.35163 2.52131,0.10951 0.43711,0.46119 -0.33984,0.78923 -1.72654,0.72896 -1.53245,-0.0666 -1.84415,-0.39547 -0.79477,-0.83852 z m 113.37633,-0.16112 c 0,-0.61007 2.07185,-0.85403 4.60411,-0.54211 2.53227,0.31191 4.60412,0.81106 4.60412,1.10923 0,0.29815 -2.07185,0.5421 -4.60412,0.5421 -2.53226,0 -4.60411,-0.49915 -4.60411,-1.10922 z m -123.90002,-2.61472 c 0.94959,-0.40092 2.08419,-0.35162 2.52131,0.10951 0.43711,0.46119 -0.33984,0.78923 -1.72655,0.72896 -1.53244,-0.0666 -1.84414,-0.39547 -0.79476,-0.83852 z m 126.22628,-2.06153 c 0.76455,-0.80652 2.16643,-1.19332 3.11541,-0.85955 0.98528,0.34649 0.38898,0.97562 -1.38979,1.46641 -2.18814,0.6037 -2.70169,0.42308 -1.72562,-0.60686 z m -111.7562,-0.7143 c 0.94959,-0.40093 2.08419,-0.35163 2.5213,0.1095 0.43712,0.46119 -0.33983,0.78923 -1.72654,0.72897 -1.53245,-0.0666 -1.84415,-0.39548 -0.79476,-0.83853 z m 66.9921,-1.6741 c -0.35741,-1.44221 -0.13957,-3.47205 0.48422,-4.51074 0.771,-1.284 1.14051,-0.4446 1.15419,2.6222 0.0224,5.04979 -0.65997,5.83642 -1.63841,1.88854 z m 59.37098,-1.19458 c -1.63617,-2.20132 -1.58973,-2.25041 0.49672,-0.52402 2.19117,1.81313 2.8881,2.95288 1.80534,2.95288 -0.27309,0 -1.30901,-1.09299 -2.30206,-2.42886 z m -199.12454,-0.34698 c 0.44715,-0.76336 1.07405,-1.38792 1.3931,-1.38792 0.31905,0 0.58009,0.62456 0.58009,1.38792 0,0.76336 -0.62689,1.38792 -1.3931,1.38792 -0.7662,0 -1.02724,-0.62456 -0.58009,-1.38792 z m 72.67924,-5.08295 c 0.90438,-0.38502 2.38427,-0.38502 3.28865,0 0.90438,0.38502 0.16444,0.70005 -1.64432,0.70005 -1.80876,0 -2.54871,-0.31503 -1.64433,-0.70005 z m -70.70605,-10.18416 -7.23503,-0.93547 6.82853,-0.22622 c 3.75569,-0.1245 7.19439,0.39833 7.64154,1.16169 0.44715,0.76335 0.63008,1.28611 0.4065,1.16169 -0.22357,-0.12442 -3.66227,-0.64719 -7.64154,-1.16169 z"
         id="path312" />
      <path
         style="fill:#fec570;stroke-width:1.3512"
         d="m 344.88173,665.12096 c -0.40023,-1.10044 -0.45032,-3.13027 -0.11129,-4.51074 0.41256,-1.67996 0.66685,-1.27689 0.76898,1.21892 0.12787,3.12387 0.84623,3.81966 4.42785,4.28861 l 4.27525,0.55979 -4.31653,0.22211 c -2.70022,0.13894 -4.58903,-0.52708 -5.04424,-1.77869 z m 8.12988,-8.12146 c 0.494,-1.3688 1.22955,-2.13909 1.63457,-1.71177 0.40502,0.42733 8.4e-4,1.54724 -0.89817,2.48872 -1.29918,1.36053 -1.45027,1.20111 -0.7364,-0.77695 z m 39.18118,-12.08444 c 0,-6.48852 0.2266,-9.14291 0.50356,-5.89865 0.27694,3.24426 0.27694,8.55305 0,11.79731 -0.27696,3.24426 -0.50356,0.58987 -0.50356,-5.89866 z m 32.73208,6.9396 c 0,-2.67174 0.27072,-3.76473 0.6016,-2.42886 0.33087,1.33587 0.33087,3.52185 0,4.85772 -0.33088,1.33587 -0.6016,0.24289 -0.6016,-2.42886 z m 13.30038,-6.24564 c 0.005,-6.10684 0.23605,-8.43245 0.51394,-5.16801 0.27788,3.26444 0.27397,8.26095 -0.009,11.10335 -0.28265,2.84241 -0.51002,0.17151 -0.50524,-5.93534 z m 97.14957,6.9396 c 0.0263,-2.29007 0.32163,-3.05889 0.65523,-1.70849 0.33347,1.35041 0.31164,3.2241 -0.0487,4.16376 -0.3603,0.93966 -0.63313,-0.1652 -0.60643,-2.45527 z m -211.05906,-5.77691 c 0.90438,-0.38502 2.38427,-0.38502 3.28865,0 0.90438,0.38502 0.16443,0.70005 -1.64433,0.70005 -1.80876,0 -2.5487,-0.31503 -1.64432,-0.70005 z m 160.48628,-1.38792 c 0.90438,-0.38502 2.38428,-0.38502 3.28866,0 0.90438,0.38503 0.16443,0.70006 -1.64433,0.70006 -1.80876,0 -2.54871,-0.31503 -1.64433,-0.70006 z m 105.31913,-0.0289 c 0.94963,-0.40092 2.08421,-0.35163 2.52134,0.10951 0.43713,0.46119 -0.33991,0.78923 -1.72654,0.72896 -1.53251,-0.0666 -1.84415,-0.39547 -0.7948,-0.83852 z m -80.64491,-12.9152 c -0.46086,-0.78675 0.0672,-1.01942 1.23782,-0.54546 2.27893,0.92267 2.69589,1.91749 0.80369,1.91749 -0.6808,0 -1.59949,-0.61741 -2.04151,-1.37203 z m -84.70398,-3.04218 c -0.11024,-2.68788 -0.97393,-3.88715 -3.11238,-4.32173 l -2.95979,-0.60148 3.00107,-0.18901 c 3.25947,-0.20528 4.81445,2.35493 3.84008,6.32255 -0.41349,1.68372 -0.66661,1.28533 -0.76898,-1.21033 z m 112.13729,0.94441 c -1.90992,-5.25123 0.27901,-6.25692 12.9665,-5.95758 l 12.20933,0.28805 -12.16802,0.45799 c -10.93675,0.41165 -12.16802,0.72551 -12.16802,3.10195 0,2.10191 1.14616,2.75287 5.59071,3.17522 l 5.59071,0.5313 -5.63201,0.24247 c -3.9506,0.17009 -5.85802,-0.37905 -6.3892,-1.8394 z m -51.94646,-1.73489 c -1.63627,-2.20133 -1.58974,-2.25042 0.49666,-0.52403 1.26613,1.04767 2.30206,2.14066 2.30206,2.42886 0,1.14231 -1.08024,0.40709 -2.79872,-1.90483 z m 80.41094,1.90479 c 0,-0.2882 1.03593,-1.38119 2.30206,-2.42886 2.08645,-1.72639 2.13289,-1.6773 0.49672,0.52402 -1.71852,2.31193 -2.79878,3.04715 -2.79878,1.90484 z m -127.44716,-9.53839 c 0.15855,-7.571 0.6756,-6.844 1.48063,2.08188 0.25818,2.86258 -0.004,5.20469 -0.5819,5.20469 -0.57823,0 -0.98265,-3.27896 -0.89873,-7.28657 z m -94.86581,4.23204 c 0,-0.61007 2.8118,-1.05991 6.24844,-0.99965 6.8778,0.12061 6.32139,0.79442 -1.31546,1.59301 -2.71314,0.28372 -4.93298,0.0167 -4.93298,-0.59336 z m 24.00717,-0.67804 c 1.26613,-0.34909 3.33798,-0.34909 4.60412,0 1.26613,0.3491 0.2302,0.63474 -2.30206,0.63474 -2.53226,0 -3.56819,-0.28564 -2.30206,-0.63474 z m 9.86596,-0.0228 c 1.62788,-0.33083 4.29169,-0.33083 5.91958,0 1.62788,0.33081 0.29598,0.60148 -2.95979,0.60148 -3.25577,0 -4.58767,-0.27067 -2.95979,-0.60148 z m 29.02237,0.0314 c 0.94959,-0.40093 2.08419,-0.35163 2.5213,0.1095 0.43712,0.46119 -0.33983,0.78923 -1.72654,0.72897 -1.53245,-0.0666 -1.84415,-0.39548 -0.79476,-0.83853 z m 118.3093,-0.0314 c 1.62789,-0.33083 4.2917,-0.33083 5.91958,0 1.62788,0.33081 0.29598,0.60148 -2.95979,0.60148 -3.25577,0 -4.58767,-0.27067 -2.95979,-0.60148 z m -199.86791,-2.74444 c 0.9496,-0.40093 2.08419,-0.35163 2.52131,0.1095 0.43711,0.46119 -0.33984,0.78923 -1.72654,0.72896 -1.53245,-0.0666 -1.84415,-0.39547 -0.79477,-0.83852 z m -12.90796,-2.35176 c 0,-0.28821 1.03592,-1.38119 2.30206,-2.42886 2.0864,-1.72639 2.13292,-1.6773 0.49666,0.52402 -1.71848,2.31193 -2.79872,3.04715 -2.79872,1.90484 z M 155.49613,386.76208 c 0,-14.12208 0.19535,-19.89929 0.43409,-12.83825 0.23874,7.06104 0.23874,18.61547 0,25.67651 -0.23874,7.06103 -0.43409,1.28382 -0.43409,-12.83826 z m 123.65337,0 c 0,-14.12208 0.19534,-19.89929 0.43409,-12.83825 0.23874,7.06104 0.23874,18.61547 0,25.67651 -0.23875,7.06103 -0.43409,1.28382 -0.43409,-12.83826 z m 102.39169,20.12483 c 0.0146,-3.05342 0.284,-4.13912 0.59864,-2.41267 0.31465,1.72644 0.3027,4.2247 -0.0266,5.55167 -0.32925,1.32698 -0.58669,-0.0856 -0.57209,-3.139 z M 361.72627,393.3547 c -0.22184,-8.35571 -0.53315,-9.36846 -2.87965,-9.36846 -1.44701,0 -2.63093,-0.56609 -2.63093,-1.25798 0,-1.79748 5.3621,-0.0813 6.10198,1.95296 0.3396,0.93375 0.40143,5.37517 0.1374,9.86982 l -0.48006,8.17211 z m -66.0218,-5.82261 v -11.72127 l -6.24844,-0.51983 -6.24844,-0.51984 6.90617,-0.25017 6.90617,-0.25017 v 12.49127 c 0,6.8702 -0.29597,12.49128 -0.65773,12.49128 -0.36175,0 -0.65773,-5.27457 -0.65773,-11.72127 z m 8.16053,-1.11699 -0.26776,-12.14429 6.90617,0.25017 6.90617,0.25017 -6.19637,0.51759 -6.19636,0.51759 -0.44205,11.37653 -0.44205,11.37654 z m 74.38467,-3.40835 c 2.07266,-0.42121 2.95979,-1.58362 2.95979,-3.87822 0,-2.29461 -0.88713,-3.45702 -2.95979,-3.87822 -2.53772,-0.51571 -2.44391,-0.62844 0.65773,-0.79049 3.29146,-0.17198 3.61752,0.24884 3.61752,4.66871 0,4.41987 -0.32606,4.84068 -3.61752,4.66871 -3.10164,-0.16206 -3.19545,-0.27478 -0.65773,-0.79049 z m -54.92051,-2.32037 c 0,-0.2882 1.03593,-1.38119 2.30206,-2.42886 2.0864,-1.72639 2.13293,-1.6773 0.49666,0.52403 -1.71848,2.31192 -2.79872,3.04715 -2.79872,1.90483 z m -131.54613,-5.37463 c 0,-0.57252 2.92485,-1.04094 6.49966,-1.04094 3.57482,0 6.77406,0.46842 7.10943,1.04094 0.33536,0.57252 -2.58949,1.04094 -6.49967,1.04094 -3.91018,0 -7.10942,-0.46842 -7.10942,-1.04094 z m 30.25561,0.34698 -4.60412,-1.02251 4.93298,-0.18271 c 2.71314,-0.10048 4.93298,0.44186 4.93298,1.20522 0,0.76335 -0.14799,1.3057 -0.32886,1.20521 -0.18088,-0.10048 -2.40072,-0.64284 -4.93298,-1.20521 z m 136.56133,-0.9481 c 0.94959,-0.40093 2.08419,-0.35163 2.5213,0.1095 0.43712,0.4612 -0.33983,0.78923 -1.72654,0.72897 -1.53245,-0.0666 -1.84414,-0.39548 -0.79476,-0.83853 z m 4.29689,-8.18903 c 0.0631,-1.61686 0.37482,-1.94573 0.79475,-0.83854 0.37999,1.0019 0.33327,2.19899 -0.10379,2.66018 -0.43712,0.46119 -0.74803,-0.35855 -0.69091,-1.82164 z m 156.8677,-148.39171 c 0.005,-5.34349 0.2436,-7.35938 0.52837,-4.47978 0.28475,2.87961 0.27998,7.25155 -0.0105,9.71543 -0.2906,2.46389 -0.52359,0.10784 -0.51775,-5.23565 z m 104.5586,5.29754 c 0.94963,-0.40093 2.08422,-0.35163 2.52135,0.1095 0.43712,0.4612 -0.33992,0.78923 -1.72655,0.72897 -1.53251,-0.0666 -1.84414,-0.39548 -0.7948,-0.83853 z m -194.08773,-6.95331 c 1.2799,-0.35189 3.05578,-0.32876 3.94638,0.0515 0.89061,0.38019 -0.15658,0.6681 -2.32709,0.63982 -2.17051,-0.0283 -2.8992,-0.33935 -1.61929,-0.69124 z m 58.84186,-9.27764 c 0,-0.28821 1.03593,-1.38119 2.30206,-2.42886 2.0864,-1.72639 2.13293,-1.6773 0.49666,0.52402 -1.71847,2.31193 -2.79872,3.04715 -2.79872,1.90484 z m 76.29676,-5.02766 -4.60411,-1.02251 4.93298,-0.1827 c 2.71313,-0.10049 4.93298,0.44186 4.93298,1.20521 0,0.76336 -0.14799,1.3057 -0.32887,1.20521 -0.18088,-0.10048 -2.40072,-0.64284 -4.93298,-1.20521 z m -108.83634,-0.99594 c 1.99958,-0.31903 4.95937,-0.31049 6.57731,0.0189 1.61794,0.32944 -0.018,0.59045 -3.63561,0.58004 -3.61752,-0.0111 -4.94128,-0.27997 -2.9417,-0.59898 z m 84.17144,0.001 c 1.98964,-0.31802 5.2454,-0.31802 7.23504,0 1.98963,0.318 0.36175,0.57819 -3.61752,0.57819 -3.97927,0 -5.60716,-0.26019 -3.61752,-0.57819 z m 37.49065,-0.0292 c 3.79839,-0.28036 10.01395,-0.28036 13.81234,0 3.7984,0.28036 0.69062,0.50975 -6.90617,0.50975 -7.59679,0 -10.70457,-0.22939 -6.90617,-0.50975 z"
         id="path310" />
      <path
         style="fill:#febc58;stroke-width:1.3512"
         d="m 345.692,662.26406 c 0,-2.91458 0.61906,-3.4698 3.86875,-3.4698 2.12781,0 4.20834,-0.57974 4.6234,-1.2883 0.41505,-0.70856 -1.61858,-7.7349 -4.51918,-15.61409 -2.9006,-7.87919 -5.2771,-14.83012 -5.28113,-15.44654 -0.004,-0.6164 2.46295,-0.92869 5.48215,-0.69396 5.41183,0.42075 5.5165,0.5298 7.40351,7.71336 1.05274,4.00762 2.3221,7.28658 2.82082,7.28658 0.49872,0 1.93304,-3.4351 3.1874,-7.63356 2.07584,-6.94803 2.62372,-7.63355 6.10086,-7.63355 h 3.82021 l -3.29137,9.36845 c -11.04774,31.44596 -10.69068,30.8812 -19.52482,30.8812 -4.12633,0 -4.6906,-0.4174 -4.6906,-3.46979 z m -29.99503,-8.56737 c -2.38894,-1.2422 -5.18349,-3.9723 -6.21011,-6.06691 -1.85865,-3.7922 -1.84579,-3.81098 3.02808,-4.42047 3.48255,-0.4355 5.90776,0.17416 8.40636,2.11323 2.46041,1.90945 4.55408,2.44929 6.99357,1.8033 5.95558,-1.57709 3.55109,-5.23395 -5.24656,-7.97922 -8.96646,-2.79795 -12.49376,-6.43438 -12.49376,-12.88029 0,-8.376 9.98873,-14.34974 20.01856,-11.97207 5.44809,1.29154 10.23705,4.92254 10.23705,7.76176 0,2.94901 -7.46543,3.55783 -11.75746,0.95886 -3.72797,-2.2574 -4.05992,-2.25566 -6.22863,0.0325 -2.92246,3.08343 -1.56444,4.3811 6.80467,6.50231 8.73381,2.21365 12.08928,4.69611 13.13454,9.71723 2.57096,12.35033 -13.73204,21.16564 -26.68631,14.42977 z m 58.93518,-12.94538 V 625.4842 h 5.26185 c 3.80022,0 5.26184,0.5783 5.26184,2.08187 0,1.61925 0.58465,1.46504 2.63093,-0.69396 3.55533,-3.75117 8.6458,-3.49541 12.55667,0.63088 2.95224,3.11484 3.22886,4.4823 3.22886,15.96107 v 12.55436 h -5.26184 -5.26185 V 645.085 c 0,-12.16142 -1.87807,-16.0331 -5.7802,-11.91602 -1.5606,1.64656 -2.11257,4.92277 -2.11257,12.53918 v 10.31026 h -5.26184 -5.26185 z m 36.83292,12.49127 c -2.09124,-2.20643 -2.63092,-4.62639 -2.63092,-11.79731 0,-7.09381 -0.42162,-9.02148 -1.97319,-9.02148 -1.22776,0 -1.97319,-1.3108 -1.97319,-3.4698 0,-2.04054 0.75481,-3.46979 1.83245,-3.46979 2.12093,0 3.42939,-2.95584 3.42939,-7.74708 0,-2.91047 0.61156,-3.35628 4.60412,-3.35628 4.49449,0 4.60411,0.13213 4.60411,5.55168 0,4.62639 0.43848,5.55168 2.63092,5.55168 1.92935,0 2.63093,0.92528 2.63093,3.46979 0,2.54452 -0.70158,3.4698 -2.63093,3.4698 -2.28657,0 -2.63092,0.92529 -2.63092,7.06953 0,5.9023 0.43439,7.18938 2.63092,7.79543 1.86355,0.51417 2.63093,1.89315 2.63093,4.72778 0,3.74358 -0.33963,4.00189 -5.26185,4.00189 -3.5079,0 -6.13882,-0.92529 -7.89277,-2.77584 z m 15.78554,-18.04295 v -20.81879 h 5.26184 5.26185 v 6.9396 c 0,7.42328 0.53867,7.99609 4.52667,4.81358 3.5605,-2.84136 8.15155,-2.54038 11.25887,0.73809 2.26167,2.38625 2.63092,4.6264 2.63092,15.96108 v 13.18523 h -5.20865 -5.20865 l -0.38206,-11.43498 c -0.33114,-9.911 -0.71169,-11.50148 -2.85535,-11.93388 -3.68398,-0.7431 -4.7193,2.16234 -4.74161,13.30644 l -0.0201,10.06242 h -5.26185 -5.26184 z m 39.9744,19.53398 c -11.65669,-5.28584 -10.68047,-25.02109 1.44657,-29.24382 9.65338,-3.36139 18.21336,1.53572 20.37703,11.65758 l 1.06708,4.99186 h -10.38516 c -5.71184,0 -10.38516,0.35333 -10.38516,0.7852 0,0.43186 0.61278,1.99327 1.36174,3.4698 1.63138,3.21615 4.85499,3.45911 7.8575,0.59219 1.49062,-1.42328 3.52187,-1.81163 6.35202,-1.21443 5.01121,1.05746 5.13271,1.85948 0.91493,6.04012 -3.57341,3.54195 -13.72367,5.1357 -18.60655,2.9215 z m 11.08274,-20.57492 c -0.53606,-2.96748 -6.26542,-4.07518 -7.80688,-1.50935 -1.93384,3.21899 -1.28643,3.93821 3.54507,3.93821 3.76691,0 4.61342,-0.48244 4.26181,-2.42886 z m 19.27437,20.61465 c -1.47212,-0.67114 -3.50592,-2.27456 -4.51953,-3.56316 -1.58263,-2.01201 -1.57619,-2.521 0.0456,-3.6038 2.54875,-1.70162 5.66339,-1.62324 7.37782,0.18562 1.6632,1.75482 10.29633,1.17615 10.29633,-0.69013 0,-0.70566 -3.1621,-2.0344 -7.02688,-2.95277 -10.9886,-2.61116 -14.48595,-8.57926 -8.98304,-15.32917 2.72936,-3.34785 4.15013,-3.88627 10.43059,-3.95273 5.37639,-0.0569 7.993,0.61193 10.0426,2.56701 4.59786,4.38586 3.34624,5.27544 -5.94539,4.22557 -7.08963,-0.80105 -8.60496,-0.62985 -8.11628,0.91695 0.33047,1.04603 3.51324,2.39328 7.07282,2.99386 4.38964,0.74065 7.42426,2.2212 9.43175,4.60166 3.73749,4.43192 3.71841,6.43327 -0.10603,11.12434 -2.49983,3.0663 -4.38177,3.84693 -10.19482,4.22874 -3.92098,0.25755 -8.33353,-0.0808 -9.80566,-0.75199 z m 24.38171,-14.02203 V 625.4842 h 5.26184 5.26185 v 15.26711 15.26711 h -5.26185 -5.26184 z m 14.47007,11.69188 c 0,-2.10954 2.42676,-6.90266 5.91958,-11.69188 3.25576,-4.46418 5.91957,-8.4764 5.91957,-8.91605 0,-0.43967 -2.36783,-0.79939 -5.26184,-0.79939 -4.38483,0 -5.26185,-0.46263 -5.26185,-2.77584 0,-2.57021 0.87702,-2.77583 11.83915,-2.77583 14.47232,0 14.85117,0.97028 5.26185,13.47442 -3.61752,4.71709 -6.57731,8.92386 -6.57731,9.34837 0,0.42451 2.95979,0.77183 6.57731,0.77183 6.13886,0 6.57731,0.23133 6.57731,3.4698 0,3.45763 -0.0434,3.4698 -12.49689,3.4698 H 536.4339 Z m 34.48166,1.48418 c -8.55102,-3.91989 -10.21548,-16.72304 -3.1992,-24.60912 8.74387,-9.82785 26.57245,-3.32597 26.59297,9.69816 0,2.96136 -0.50527,3.12282 -9.86109,3.12282 -7.2182,0 -9.86596,0.48423 -9.86596,1.80429 0,4.69028 6.8058,6.93808 8.92277,2.94697 0.88715,-1.67261 2.29075,-1.96467 5.95576,-1.23923 4.1904,0.82941 4.62792,1.27863 3.46979,3.56189 -3.16527,6.24019 -13.74447,8.50557 -22.01504,4.71422 z m 12.85482,-18.38076 c -0.0934,-4.80041 -8.10127,-6.04339 -8.94224,-1.38792 -0.35162,1.94642 0.49488,2.42886 4.26183,2.42886 2.58528,0 4.69146,-0.46842 4.68041,-1.04094 z m -61.80655,-18.38993 c 0,-3.93243 0.29229,-4.16376 5.26184,-4.16376 4.96955,0 5.26185,0.23133 5.26185,4.16376 0,3.93243 -0.2923,4.16376 -5.26185,4.16376 -4.96955,0 -5.26184,-0.23133 -5.26184,-4.16376 z M 156.26557,386.76208 v -24.98254 h 17.101 17.10099 v 5.55167 5.55168 h -10.52369 -10.52369 v 4.16376 4.16376 h 8.5505 8.5505 v 4.85771 4.85772 h -8.5505 -8.5505 v 4.85772 4.85772 h 10.52369 10.52369 v 5.55167 5.55168 h -17.10099 -17.101 z m 47.53918,21.94366 c -0.62054,-1.76371 -3.28331,-9.3109 -5.91726,-16.77153 -2.63395,-7.46064 -4.789,-14.20893 -4.789,-14.99618 0,-0.84016 2.55286,-1.25666 6.18056,-1.00837 l 6.18056,0.42303 2.62322,8.67449 c 1.44277,4.77098 2.98723,8.6745 3.43212,8.6745 0.44488,0 1.98872,-3.90352 3.43075,-8.6745 2.43509,-8.05656 2.92166,-8.70547 6.83058,-9.10941 2.31481,-0.23921 4.20874,0.11881 4.20874,0.79554 0,0.67675 -2.59012,8.67952 -5.75581,17.78391 l -5.7558,16.55345 -4.77021,0.43091 c -3.97498,0.35907 -4.95828,-0.10368 -5.89845,-2.77584 z m 27.11325,0.29767 c -2.62002,-2.18141 -3.61752,-4.25692 -3.61752,-7.52698 0,-6.46171 4.5566,-10.3912 14.31952,-12.34876 6.24467,-1.25213 8.04333,-2.16251 8.04333,-4.07106 0,-3.13907 -7.9357,-3.97177 -8.98899,-0.94323 -0.4675,1.34421 -12.0584,1.80135 -12.0584,0.47558 0,-8.19329 17.99317,-13.49127 27.74653,-8.16979 5.31603,2.90045 6.45547,6.82432 6.45547,22.23058 v 13.09488 h -5.91958 c -5.18451,0 -5.91957,-0.37139 -5.91957,-2.99095 0,-2.88239 -0.0935,-2.90161 -2.57754,-0.52981 -4.16478,3.97666 -13.16148,4.37781 -17.48325,0.77954 z m 16.20088,-5.63512 c 1.63728,-0.92451 2.54445,-2.90385 2.54445,-5.55168 0,-4.631 -1.87406,-5.21379 -6.28461,-1.95436 -4.21067,3.11173 -3.81224,7.62162 0.78037,8.83321 0.22845,0.0602 1.56035,-0.53696 2.95979,-1.32717 z m 19.64544,-16.60621 v -24.98254 h 5.91958 5.91958 v 24.98254 24.98255 h -5.91958 -5.91958 z m 19.73192,22.20671 c -2.31203,-2.43938 -2.63092,-4.62639 -2.63092,-18.04295 v -15.26711 h 5.91958 5.91957 v 10.98983 c 0,12.76257 0.68783,15.38063 4.04085,15.38063 3.745,0 5.16738,-4.36835 5.16738,-15.86983 v -10.50063 h 5.91958 5.91957 v 18.04295 18.04295 h -5.91957 c -5.40801,0 -5.91958,-0.29441 -5.91958,-3.40672 v -3.4067 l -3.22886,3.4067 c -4.09079,4.31613 -11.40671,4.62002 -15.1876,0.63088 z m 38.54524,0.69224 c -3.45146,-2.55066 -5.02519,-9.24575 -3.07636,-13.08775 1.98068,-3.90477 7.56455,-6.7029 15.6284,-7.83152 7.0842,-0.99152 8.88643,-3.47014 4.37533,-6.01738 -1.69225,-0.95556 -3.49589,-0.76386 -6.06993,0.64513 -2.01425,1.10256 -5.98326,2.00465 -8.82002,2.00465 -4.79494,0 -5.05607,-0.2005 -3.71206,-2.8501 3.79797,-7.48747 17.11838,-10.58587 26.92471,-6.26284 5.33381,2.35136 5.71026,3.68193 6.21098,21.95227 l 0.3709,13.53329 -5.50207,-10e-4 c -4.36049,-8.5e-4 -5.67667,-0.58151 -6.34362,-2.79864 l -0.84157,-2.79759 -3.37087,2.79759 c -4.01483,3.332 -11.75698,3.68244 -15.77382,0.71397 z m 17.26791,-7.03701 c 2.23328,-2.35629 2.84948,-8.92234 0.83733,-8.92234 -6.26856,0 -11.08245,6.29092 -7.14085,9.33184 2.96407,2.28676 3.79944,2.2325 6.30352,-0.4095 z m 23.34383,5.90834 c -2.43061,-2.7298 -2.86022,-4.83394 -2.86022,-14.00913 0,-9.62962 -0.28443,-10.87533 -2.63092,-11.52276 -3.45673,-0.95375 -3.56431,-6.76047 -0.14274,-7.7045 1.71393,-0.47289 2.77325,-2.46674 3.40428,-6.40751 0.88808,-5.54609 1.07113,-5.721 5.98668,-5.721 5.02497,0 5.07422,0.053 5.47508,5.89865 0.33627,4.90355 0.90383,5.97348 3.36429,6.34217 2.11494,0.31692 2.95979,1.37884 2.95979,3.72025 0,2.3414 -0.84485,3.40333 -2.95979,3.72024 -2.72273,0.408 -2.95979,1.16608 -2.95979,9.46499 0,8.29891 0.23706,9.05699 2.95979,9.46498 2.41252,0.36152 2.95979,1.32387 2.95979,5.2047 v 4.76119 h -6.34801 c -4.93464,0 -6.98482,-0.7152 -9.20823,-3.21227 z m 27.75016,1.15455 c -5.28259,-2.42298 -9.55159,-9.57225 -9.55808,-16.00688 -0.0145,-14.34701 13.72183,-23.25362 26.90198,-17.44327 5.26862,2.32262 8.43847,6.94313 9.50054,13.84832 l 0.76971,5.00452 h -12.01127 c -12.36082,0 -13.26803,0.4807 -10.64952,5.64292 1.61932,3.19238 6.85405,3.53675 9.16195,0.60271 1.69504,-2.15488 13.15461,-3.02845 13.15461,-1.00278 0,0.59352 -0.9653,2.53317 -2.14511,4.31038 -4.3682,6.57998 -16.47645,9.01085 -25.12481,5.04408 z m 14.11531,-22.876 c 0,-2.28432 -3.39827,-5.6005 -5.73914,-5.6005 -1.41033,0 -4.78455,4.47454 -4.78455,6.34477 0,1.38792 1.57855,1.98274 5.26184,1.98274 4.35347,0 5.26185,-0.47078 5.26185,-2.72701 z M 539.06482,242.41848 c 0,-3.84035 0.36083,-4.16376 4.64542,-4.16376 6.04797,0 6.63072,-2.05441 3.18631,-11.23341 -1.54856,-4.12693 -4.21368,-11.40702 -5.92247,-16.17799 l -3.10685,-8.6745 h 6.34499 6.345 l 2.25733,8.48821 c 1.24153,4.6685 2.72669,7.94746 3.30036,7.28658 0.57368,-0.6609 2.0512,-4.4806 3.28353,-8.48821 2.02541,-6.58655 2.60961,-7.28658 6.08137,-7.28658 2.11237,0 3.83365,0.46842 3.8251,1.04094 -0.0618,4.12245 -13.5653,38.95651 -15.87235,40.94362 -1.73273,1.49237 -5.04625,2.42886 -8.59391,2.42886 -5.53836,0 -5.77383,-0.16979 -5.77383,-4.16376 z m -126.24848,-7.89675 c 0.0197,-0.61861 2.88902,-10.80546 6.37628,-22.63747 l 6.34046,-21.51275 h 6.98215 6.98214 l 6.35653,21.51275 c 3.4961,11.83201 6.36418,22.01539 6.3735,22.62973 0.009,0.61435 -2.76011,0.92663 -6.15433,0.69396 -5.73563,-0.39316 -6.24905,-0.74146 -7.27265,-4.93376 -1.05573,-4.32393 -1.37064,-4.51074 -7.60343,-4.51074 -6.23301,0 -6.54761,0.18667 -7.60238,4.51074 -0.96165,3.94234 -1.71232,4.56502 -5.9572,4.9415 -2.67128,0.23692 -4.84076,-0.0754 -4.82107,-0.69396 z m 22.32704,-17.85912 c 0,-2.72645 -3.12236,-13.10587 -3.94255,-13.10587 -1.26075,0 -4.02612,11.23884 -3.13831,12.75449 0.73427,1.25352 7.08086,1.56846 7.08086,0.35138 z m 18.41646,2.16124 v -16.65503 h 5.91957 c 4.38487,0 5.91958,0.53975 5.91958,2.08188 0,1.61924 0.58464,1.46503 2.63092,-0.69396 3.917,-4.13275 10.95836,-3.70114 14.3746,0.88113 2.33974,3.13835 2.7264,5.59873 2.7264,17.349 v 13.69201 h -5.91958 -5.91957 v -12.53482 c 0,-9.90864 -0.41693,-12.70364 -1.98994,-13.34052 -4.29583,-1.73925 -5.90283,2.13966 -5.90283,14.24797 v 11.62737 h -5.91958 -5.91957 z m 37.08096,13.82512 c -3.74127,-3.6775 -3.7523,-10.0827 -0.0237,-13.74778 1.57041,-1.54365 6.33359,-3.52865 10.58486,-4.4111 5.93144,-1.23121 7.63571,-2.12453 7.32609,-3.84004 -0.56191,-3.11345 -6.42988,-3.7366 -8.40119,-0.89218 -1.21778,1.75714 -2.71205,2.07984 -6.32215,1.36526 -5.63059,-1.11448 -5.78992,-1.86564 -1.33282,-6.28352 2.91476,-2.88909 4.6762,-3.36475 12.46035,-3.36475 12.78036,0 13.86538,1.44552 14.84547,19.77785 l 0.76056,14.22617 h -5.20681 c -3.7513,0 -5.20681,-0.58197 -5.20681,-2.08188 0,-2.55528 -1.0252,-2.55528 -5.26184,0 -4.7494,2.86454 -10.87458,2.54239 -14.22203,-0.74803 z m 16.58986,-5.77519 c 1.86189,-1.96444 2.12552,-8.04993 0.34873,-8.04993 -0.67641,0 -2.74826,0.6091 -4.60412,1.35357 -3.17876,1.27512 -4.52826,5.29376 -2.49731,7.43658 1.39614,1.47304 5.03282,1.07439 6.7527,-0.74022 z m 16.04863,-14.29556 v -22.90067 h 5.91957 5.91958 v 22.90067 22.90066 h -5.91958 -5.91957 z m 47.35661,19.26966 c 0,-2.25454 2.49332,-6.97854 6.5773,-12.46149 3.61752,-4.85676 6.57731,-9.15616 6.57731,-9.55421 0,-0.39807 -2.66381,-0.72376 -5.91958,-0.72376 -5.43719,0 -5.91957,-0.28272 -5.91957,-3.4698 v -3.4698 h 13.15461 c 12.78563,0 13.15264,0.0876 13.08463,3.12282 -0.0381,1.71755 -3.25919,7.18248 -7.15703,12.14429 l -7.08692,9.02148 7.15704,0.41624 c 6.95905,0.40474 7.15689,0.52942 7.15689,4.51073 v 4.0945 H 584.44824 570.6359 Z m 38.64601,1.63667 c -2.25851,-1.03712 -5.07031,-3.33762 -6.24844,-5.11222 -2.79509,-4.21035 -2.74181,-14.29436 0.10261,-19.37432 4.41048,-7.87769 15.835,-10.53932 23.65213,-5.51035 4.65568,2.99516 6.23883,5.5404 7.59665,12.21337 l 0.91793,4.51074 h -11.28587 c -11.13551,0 -12.0608,0.41857 -10.48751,4.7442 0.88675,2.43802 7.75412,3.04956 9.06747,0.80748 0.84163,-1.43672 11.18142,-1.99407 11.18142,-0.60272 0,0.43187 -0.60945,1.98681 -1.3544,3.45543 -3.18473,6.27828 -14.76565,8.71462 -23.14172,4.86839 z m 13.97244,-19.60966 c 0,-0.43186 -0.61274,-1.99327 -1.36177,-3.4698 -1.53474,-3.0256 -5.21304,-3.51992 -7.58337,-1.01909 -3.12185,3.2938 -1.73891,5.27409 3.68329,5.27409 2.89402,0 5.26185,-0.35333 5.26185,-0.7852 z"
         id="path308" />
      <path
         style="fill:#9f9f9f;stroke-width:1.3512"
         d="m 474.93895,780.23719 c 0.0146,-3.05342 0.28399,-4.13912 0.59864,-2.41267 0.31465,1.72644 0.3027,4.2247 -0.0266,5.55167 -0.32925,1.32698 -0.5867,-0.0856 -0.5721,-3.139 z m -276.04587,-85.70401 -2.50594,-3.12282 2.95979,2.64397 c 2.78146,2.48468 3.55864,3.60167 2.50594,3.60167 -0.24962,0 -1.58153,-1.40527 -2.95979,-3.12282 z m 489.47661,-7.98054 c 5.02572,-5.34349 9.4337,-9.71543 9.79545,-9.71543 0.36175,0 -3.45427,4.37194 -8.47999,9.71543 -5.02572,5.34349 -9.4337,9.71544 -9.79545,9.71544 -0.36176,0 3.45427,-4.37195 8.47999,-9.71544 z m -501.91932,-5.20469 -4.5333,-5.2047 4.93298,4.783 c 4.59151,4.45191 5.53781,5.62639 4.5333,5.62639 -0.21983,0 -2.43967,-2.34211 -4.93298,-5.20469 z m 24.96501,-5.55168 -3.18909,-3.81678 3.61752,3.36475 c 1.98964,1.85062 3.61752,3.56817 3.61752,3.81677 0,1.08852 -1.06526,0.20261 -4.04595,-3.36474 z m 463.79969,-7.28658 c 2.82588,-3.05342 5.43404,-5.55167 5.79579,-5.55167 0.36176,0 -1.65445,2.49825 -4.48033,5.55167 -2.82587,3.05342 -5.43403,5.55168 -5.79579,5.55168 -0.36175,0 1.65446,-2.49826 4.48033,-5.55168 z m 113.8912,-207.60958 c 0.0631,-1.61686 0.37491,-1.94573 0.7948,-0.83854 0.38004,1.0019 0.33334,2.19899 -0.10392,2.66018 -0.43713,0.46119 -0.7481,-0.35855 -0.69101,-1.82164 z M 90.596357,456.73635 c 0.06314,-1.61686 0.374828,-1.94572 0.794749,-0.83854 0.379997,1.0019 0.333272,2.19899 -0.10379,2.66018 -0.437114,0.4612 -0.748024,-0.35855 -0.690906,-1.82164 z m 677.462533,-8.32752 c 0.0631,-1.61685 0.37491,-1.94572 0.7948,-0.83853 0.38004,1.00189 0.33334,2.19899 -0.10392,2.66018 -0.43713,0.46119 -0.7481,-0.35856 -0.69101,-1.82165 z m -656.18727,-6.82394 c 0.0146,-3.05342 0.28399,-4.13912 0.59864,-2.41267 0.31464,1.72644 0.3027,4.2247 -0.0266,5.55167 -0.32924,1.32698 -0.58669,-0.0856 -0.57209,-3.139 z m -0.0752,-31.92214 c 0.0268,-2.29007 0.32163,-3.05889 0.65515,-1.70849 0.33353,1.35041 0.3116,3.2241 -0.0488,4.16376 -0.36034,0.93966 -0.63322,-0.1652 -0.60641,-2.45527 z M 90.596396,394.27998 c 0.06314,-1.61685 0.374828,-1.94572 0.79475,-0.83854 0.379997,1.0019 0.333272,2.199 -0.10379,2.66019 -0.437115,0.46119 -0.748024,-0.35856 -0.690907,-1.82165 z M 177.67123,202.16882 c 0,-3.4351 0.25654,-4.84037 0.57008,-3.12282 0.31355,1.71755 0.31355,4.52809 0,6.24564 -0.31354,1.71755 -0.57008,0.31228 -0.57008,-3.12282 z m 505.92649,-7.98053 c -1.63617,-2.20133 -1.58974,-2.25042 0.49672,-0.52403 2.19116,1.81314 2.88809,2.95288 1.80534,2.95288 -0.27309,0 -1.30902,-1.09298 -2.30206,-2.42885 z m 15.78554,-16.65504 c -1.63618,-2.20132 -1.58974,-2.25041 0.49671,-0.52402 2.19117,1.81314 2.8881,2.95288 1.80534,2.95288 -0.27309,0 -1.30901,-1.09298 -2.30205,-2.42886 z m -39.46385,-8.32751 c -1.63617,-2.20132 -1.58973,-2.25042 0.49672,-0.52402 2.19117,1.81313 2.8881,2.95288 1.80534,2.95288 -0.27309,0 -1.30901,-1.09299 -2.30206,-2.42886 z m -465.50546,-6.59262 c 2.45436,-2.67174 4.75846,-4.85772 5.12021,-4.85772 0.36175,0 -1.35039,2.18598 -3.80475,4.85772 -2.45436,2.67175 -4.75846,4.85772 -5.12021,4.85772 -0.36175,0 1.35039,-2.18597 3.80475,-4.85772 z m 479.97554,-11.45033 c -1.63617,-2.20132 -1.58974,-2.25042 0.49672,-0.52402 2.19116,1.81313 2.88809,2.95288 1.80534,2.95288 -0.27309,0 -1.30902,-1.09299 -2.30206,-2.42886 z M 412.53388,80.471744 c 0.9496,-0.400928 2.08419,-0.351629 2.52131,0.109507 0.43711,0.461192 -0.33984,0.789226 -1.72654,0.728963 -1.53245,-0.06662 -1.84415,-0.395474 -0.79477,-0.838525 z m 3.94639,-23.594627 c 0.94959,-0.400929 2.08419,-0.35163 2.5213,0.109506 0.43712,0.461192 -0.33983,0.789227 -1.72654,0.728963 -1.53245,-0.06662 -1.84414,-0.395473 -0.79476,-0.838525 z m 45.95893,0.02887 c 0.90438,-0.385022 2.38427,-0.385022 3.28865,0 0.90438,0.385023 0.16444,0.700053 -1.64432,0.700053 -1.80876,0 -2.54871,-0.31503 -1.64433,-0.700053 z"
         id="path306" />
      <path
         style="fill:#606060;stroke-width:1.3512"
         d="m 474.71107,773.18194 c 0.0631,-1.61686 0.37483,-1.94572 0.79475,-0.83854 0.38,1.0019 0.33327,2.19899 -0.10379,2.66019 -0.43711,0.46119 -0.74802,-0.35856 -0.6909,-1.82165 z m 8.85773,-2.91432 c 0.94959,-0.40093 2.08419,-0.35163 2.5213,0.1095 0.43712,0.46119 -0.33983,0.78923 -1.72654,0.72897 -1.53245,-0.0666 -1.84415,-0.39548 -0.79476,-0.83853 z M 210.03168,704.94257 c -1.63626,-2.20132 -1.58973,-2.25041 0.49667,-0.52402 1.26613,1.04767 2.30206,2.14066 2.30206,2.42886 0,1.14231 -1.08025,0.40709 -2.79873,-1.90484 z m 459.26382,0.51692 c 0,-0.2882 1.03592,-1.38119 2.30205,-2.42886 2.08646,-1.72639 2.13289,-1.6773 0.49672,0.52402 -1.71852,2.31193 -2.79877,3.04715 -2.79877,1.90484 z m -475.66426,-16.47799 -2.50595,-3.12282 2.95979,2.64398 c 2.78147,2.48468 3.55864,3.60166 2.50594,3.60166 -0.24962,0 -1.58152,-1.40527 -2.95978,-3.12282 z m 24.36145,-6.24564 -3.18909,-3.81677 3.61752,3.36474 c 1.98963,1.85063 3.61752,3.56818 3.61752,3.81678 0,1.08852 -1.06526,0.20261 -4.04595,-3.36475 z m 447.35642,-3.81677 c 2.45439,-2.67175 4.75842,-4.85772 5.12017,-4.85772 0.36176,0 -1.35032,2.18597 -3.80471,4.85772 -2.45438,2.67174 -4.75841,4.85771 -5.12017,4.85771 -0.36175,0 1.35033,-2.18597 3.80471,-4.85771 z M 202.30672,666.42781 c -3.1953,-3.4351 -5.51365,-6.24563 -5.1519,-6.24563 0.36175,0 3.27206,2.81053 6.46736,6.24563 3.19529,3.4351 5.51365,6.24564 5.1519,6.24564 -0.36175,0 -3.27207,-2.81054 -6.46736,-6.24564 z m -26.47703,2.42886 c -1.63626,-2.20132 -1.58974,-2.25041 0.49666,-0.52402 1.26614,1.04767 2.30206,2.14066 2.30206,2.42886 0,1.14231 -1.08024,0.40709 -2.79872,-1.90484 z m 505.30496,-6.42268 c 0,-0.2882 1.03593,-1.38119 2.30206,-2.42886 2.08645,-1.72639 2.13289,-1.6773 0.49671,0.52403 -1.71851,2.31192 -2.79877,3.04715 -2.79877,1.90483 z M 187.66884,649.4258 c -1.63626,-2.20132 -1.58973,-2.25041 0.49667,-0.52402 1.26613,1.04767 2.30205,2.14066 2.30205,2.42886 0,1.14231 -1.08024,0.40709 -2.79872,-1.90484 z M 93.22728,478.94306 c 0.06314,-1.61686 0.374827,-1.94573 0.794749,-0.83854 0.379997,1.0019 0.333272,2.19899 -0.10379,2.66018 -0.437115,0.46119 -0.748024,-0.35855 -0.690907,-1.82164 z m 694.56353,-8.32752 c 0.0631,-1.61685 0.37491,-1.94572 0.7948,-0.83854 0.38004,1.0019 0.33334,2.19899 -0.10392,2.66019 -0.43713,0.46119 -0.7481,-0.35856 -0.69101,-1.82165 z M 91.911818,467.8397 c 0.06314,-1.61685 0.374828,-1.94572 0.79475,-0.83854 0.379997,1.0019 0.333272,2.199 -0.10379,2.66019 -0.437115,0.46119 -0.748024,-0.35856 -0.690907,-1.82165 z m 674.831612,0 c 0.0631,-1.61685 0.3749,-1.94572 0.7948,-0.83854 0.38004,1.0019 0.33334,2.199 -0.10392,2.66019 -0.43713,0.46119 -0.74811,-0.35856 -0.69101,-1.82165 z M 112.9592,465.06387 c 0.0631,-1.61686 0.37483,-1.94573 0.79475,-0.83854 0.38,1.00189 0.33327,2.19899 -0.10379,2.66018 -0.43712,0.46119 -0.74802,-0.35856 -0.69091,-1.82164 z m 676.14707,-8.32752 c 0.0631,-1.61686 0.37491,-1.94572 0.7948,-0.83854 0.38004,1.0019 0.33334,2.19899 -0.10392,2.66018 -0.43713,0.4612 -0.7481,-0.35855 -0.69101,-1.82164 z m -20.94346,-3.35414 c 0,-1.90839 0.29861,-2.6891 0.66352,-1.7349 0.36491,0.95419 0.36491,2.5156 0,3.4698 -0.36491,0.95419 -0.66352,0.17349 -0.66352,-1.7349 z M 90.7002,451.99429 c 0,-1.90839 0.298583,-2.6891 0.663505,-1.7349 0.364922,0.95419 0.364922,2.5156 0,3.4698 -0.364922,0.95419 -0.663505,0.17349 -0.663505,-1.7349 z m 21.04738,-2.77584 c 0,-1.90839 0.29858,-2.68909 0.66351,-1.7349 0.36492,0.95419 0.36492,2.5156 0,3.4698 -0.36493,0.95419 -0.66351,0.17349 -0.66351,-1.7349 z m 0.0488,-46.4953 c 0.0268,-2.29006 0.32164,-3.05889 0.65516,-1.70848 0.33352,1.3504 0.31159,3.22409 -0.0488,4.16375 -0.36034,0.93967 -0.63322,-0.1652 -0.60641,-2.45527 z M 90.7002,399.25336 c 0,-1.90839 0.298583,-2.6891 0.663505,-1.7349 0.364922,0.95419 0.364922,2.5156 0,3.4698 -0.364922,0.95419 -0.663505,0.17348 -0.663505,-1.7349 z m 22.259,-13.30089 c 0.0631,-1.61686 0.37483,-1.94573 0.79475,-0.83854 0.38,1.0019 0.33327,2.19899 -0.10379,2.66018 -0.43712,0.46119 -0.74802,-0.35855 -0.69091,-1.82164 z m -21.047382,-2.77584 c 0.06314,-1.61686 0.374828,-1.94572 0.79475,-0.83854 0.379997,1.0019 0.333272,2.19899 -0.10379,2.66018 -0.437115,0.46119 -0.748024,-0.35855 -0.690907,-1.82164 z m 85.401132,-170.5165 c 0,-2.7168 0.2288,-4.93963 0.50843,-4.93963 1.08023,0 1.62458,8.48837 0.58771,9.1645 -0.60288,0.39311 -1.09614,-1.50807 -1.09614,-4.22487 z M 687.5441,198.35204 c -1.63617,-2.20132 -1.58973,-2.25041 0.49672,-0.52402 1.26613,1.04767 2.30206,2.14066 2.30206,2.42886 0,1.14231 -1.08026,0.40709 -2.79878,-1.90484 z M 207.56856,180.65607 c 6.11783,-6.48852 11.41931,-11.79731 11.78106,-11.79731 0.36176,0 -4.34777,5.30879 -10.4656,11.79731 -6.11783,6.48853 -11.41931,11.79732 -11.78106,11.79732 -0.36175,0 4.34777,-5.30879 10.4656,-11.79732 z m 498.392,5.2047 c -1.63617,-2.20132 -1.58973,-2.25041 0.49672,-0.52402 2.19116,1.81313 2.8881,2.95288 1.80534,2.95288 -0.27309,0 -1.30902,-1.09299 -2.30206,-2.42886 z m -527.33215,-5.03476 c 0,-0.2882 1.03593,-1.38119 2.30206,-2.42886 2.0864,-1.72639 2.13293,-1.6773 0.49667,0.52402 -1.71848,2.31193 -2.79873,3.04715 -2.79873,1.90484 z m 514.27462,-10.23235 -4.53334,-5.2047 4.93298,4.78301 c 4.59148,4.4519 5.53783,5.62639 4.53334,5.62639 -0.21981,0 -2.43965,-2.34212 -4.93298,-5.2047 z m -36.93,-5.55168 c -1.63617,-2.20132 -1.58973,-2.25041 0.49672,-0.52402 2.19116,1.81313 2.88809,2.95288 1.80534,2.95288 -0.27309,0 -1.30902,-1.09299 -2.30206,-2.42886 z m -429.98801,-2.25892 c 0,-0.2882 1.03593,-1.38119 2.30206,-2.42886 2.0864,-1.72639 2.13293,-1.6773 0.49666,0.52402 -1.71848,2.31193 -2.79872,3.04715 -2.79872,1.90484 z m 455.07886,-4.68068 -4.53335,-5.20469 4.93298,4.783 c 4.59149,4.45191 5.53783,5.62639 4.53335,5.62639 -0.21982,0 -2.43966,-2.34211 -4.93298,-5.2047 z m -474.15305,-7.28657 c 1.30953,-1.52671 2.67694,-2.77584 3.03869,-2.77584 0.36175,0 -0.4137,1.24913 -1.72323,2.77584 -1.30953,1.52671 -2.67693,2.77584 -3.03869,2.77584 -0.36175,0 0.4137,-1.24913 1.72323,-2.77584 z m 9.86596,-8.85154 c 0,-0.2882 1.03593,-1.38119 2.30206,-2.42886 2.0864,-1.72639 2.13293,-1.6773 0.49666,0.52402 -1.71847,2.31193 -2.79872,3.04715 -2.79872,1.90484 z M 407.18982,80.500654 c 0.90438,-0.385022 2.38428,-0.385022 3.28866,0 0.90438,0.385023 0.16443,0.700053 -1.64433,0.700053 -1.80876,0 -2.54871,-0.31503 -1.64433,-0.700053 z m 64.53983,-0.02887 c 0.94959,-0.400929 2.08419,-0.35163 2.5213,0.109506 0.43712,0.461192 -0.33984,0.789227 -1.72654,0.728963 -1.53245,-0.06662 -1.84415,-0.395473 -0.79476,-0.838525 z m -40.86152,-1.467475 c 4.5219,-0.271019 11.92137,-0.271019 16.44326,0 4.5219,0.271019 0.82217,0.492767 -8.22163,0.492767 -9.0438,0 -12.74353,-0.221748 -8.22163,-0.492767 z m 55.33159,-19.351356 c 0.94959,-0.400928 2.08419,-0.351629 2.52131,0.109507 0.43711,0.461192 -0.33984,0.789226 -1.72655,0.728963 -1.53244,-0.06662 -1.84414,-0.395474 -0.79476,-0.838525 z m -80.24314,-1.387919 c 0.94959,-0.400928 2.08419,-0.351629 2.5213,0.109507 0.43712,0.461191 -0.33983,0.789226 -1.72654,0.728963 -1.53245,-0.06662 -1.84415,-0.395474 -0.79476,-0.838526 z m 68.40399,0 c 0.94959,-0.400928 2.08419,-0.351629 2.5213,0.109507 0.43712,0.461191 -0.33983,0.789226 -1.72654,0.728963 -1.53245,-0.06662 -1.84415,-0.395474 -0.79476,-0.838526 z m -53.3584,-1.396552 c 1.26613,-0.34909 3.33798,-0.34909 4.60411,0 1.26613,0.349103 0.23021,0.634737 -2.30206,0.634737 -2.53226,0 -3.56818,-0.285634 -2.30205,-0.634737 z m 32.2288,-0.02276 c 1.62788,-0.330825 4.29169,-0.330825 5.91958,0 1.62788,0.33081 0.29597,0.601482 -2.95979,0.601482 -3.25577,0 -4.58767,-0.270672 -2.95979,-0.601482 z"
         id="path304" />
      <path
         style="fill:#010101;stroke-width:1.3512"
         d="m 475.92268,782.31907 v -11.10335 h 3.77407 c 13.02041,0 49.35373,-9.14217 72.14107,-18.15213 47.91002,-18.94325 86.41726,-44.78725 120.7658,-81.05168 28.12312,-29.69178 45.60468,-55.4454 63.14412,-93.02301 22.52162,-48.25196 31.88323,-88.17582 33.17948,-141.49788 l 0.7068,-29.07643 7.61152,8.9516 c 5.49298,6.46007 7.81792,8.37214 8.35318,6.86971 5.04638,-14.16507 4.77487,-15.07019 4.16226,13.8792 -0.64905,30.66775 -2.73314,47.4618 -9.46659,76.28535 -16.03903,68.65671 -49.25153,128.99594 -98.28522,178.56051 -51.12396,51.67746 -114.06445,85.05011 -184.18323,97.6586 -23.56274,4.23696 -21.90326,4.86584 -21.90326,-8.30049 z m -106.55237,5.5608 C 303.45575,773.05643 246.44951,741.3631 198.83043,693.06612 109.50788,602.47199 72.119966,471.77042 99.133977,344.54487 102.16951,330.2487 114.22934,289.80415 116.71621,285.5801 c 0.94236,-1.60063 2.16858,-1.31319 6.91321,1.62051 3.17222,1.96145 7.06828,4.71072 8.65791,6.10951 l 2.89022,2.54325 -4.48297,12.49127 c -5.72953,15.96468 -11.90297,41.0536 -15.5389,63.15033 -2.44383,14.8519 -2.85471,22.64283 -2.85471,54.12885 0,31.79303 0.3994,39.22624 2.9457,54.82281 6.10207,37.37636 14.70738,65.84556 29.78615,98.54227 16.69172,36.19426 36.09794,64.63189 64.42136,94.4022 25.73347,27.04805 47.48103,43.81818 79.72687,61.47949 28.00969,15.34115 54.92936,25.48893 83.80678,31.59228 6.69241,1.41446 12.16801,2.93054 12.16801,3.36905 0,0.43851 -3.27221,2.8897 -7.27156,5.44708 -3.99937,2.55738 -6.93155,5.00855 -6.51594,5.44703 0.41559,0.43849 4.72373,3.14934 9.57362,6.02413 4.8499,2.87477 8.22604,5.2036 7.50254,5.17516 -0.72351,-0.0285 -9.30689,-1.84889 -19.07419,-4.04545 z M 752.59722,316.32518 C 735.55673,264.92274 710.90209,222.66801 675.98146,185.01629 646.73928,153.48703 620.72787,133.52635 584.44824,114.77517 535.22183,89.332429 495.05024,79.536925 439.74749,79.491026 c -22.21389,-0.01846 -31.3607,0.589366 -46.69888,3.10311 -59.65054,9.776004 -114.60665,35.126754 -159.96662,73.791144 -12.94738,11.03621 -38.54482,38.0139 -47.2458,49.79332 l -6.55005,8.8675 -0.38897,-9.21448 c -0.21393,-5.06796 -0.67478,-9.21448 -1.02411,-9.21448 -0.34932,0 -4.17,1.88269 -8.49039,4.18375 -4.32039,2.30104 -7.85526,3.81336 -7.85526,3.36068 0,-2.20661 18.11908,-23.99128 32.8342,-39.47676 28.82919,-30.33844 56.6146,-51.41122 91.4769,-69.377167 37.92924,-19.546455 68.69912,-29.280724 112.47195,-35.581295 19.49431,-2.80597 61.04136,-3.14161 80.90087,-0.653557 80.66291,10.105648 152.88042,46.951629 208.80187,106.532549 38.23835,40.74066 63.34499,82.61924 82.48363,137.5845 2.88626,8.28925 3.54951,11.64384 2.37559,12.01457 -2.23023,0.7043 -16.92538,3.54963 -18.33266,3.54963 -0.6255,0 -1.49963,-1.09299 -1.94254,-2.42886 z"
         id="path302" />
    </g>
  </g>
</svg>
