<?xml version="1.0" encoding="UTF-8" standalone="no"?>
<!-- Created with Inkscape (http://www.inkscape.org/) -->

<svg
   width="210mm"
   height="297mm"
   viewBox="0 0 210 297"
   version="1.1"
   id="svg5"
   xmlns="http://www.w3.org/2000/svg"
   xmlns:svg="http://www.w3.org/2000/svg">
  <defs
     id="defs2">
    <rect
       x="-96.961833"
       y="484.80917"
       width="238.67528"
       height="72.099825"
       id="rect1435" />
    <rect
       x="144.19965"
       y="568.09689"
       width="256.07869"
       height="60.911921"
       id="rect1225" />
    <rect
       x="-96.961833"
       y="484.80917"
       width="238.67528"
       height="72.099825"
       id="rect1443" />
    <rect
       x="-96.961833"
       y="484.80917"
       width="238.67528"
       height="72.099825"
       id="rect1449" />
  </defs>
  <g
     id="layer1">
    <g
       id="g1471"
       transform="translate(-30.58804,-2.6312292)">
      <path
         style="opacity:0.9;fill:#ffa348;fill-rule:evenodd;stroke:#f6f5f4;stroke-width:0.639;stroke-miterlimit:0;stroke-opacity:0.901961"
         id="path234"
         d="m 65.854747,115.78541 a 15.787374,39.632889 0 0 1 0.09455,0.88798" />
      <path
         id="path554"
         style="opacity:0.9;fill:#c0bfbc;fill-rule:evenodd;stroke:#f6f5f4;stroke-width:0.566124;stroke-miterlimit:0;stroke-opacity:0.901961"
         d="m 101.3023,76.717837 c -45.093676,-9.1e-5 -81.649421,34.862003 -81.649584,77.866713 -9.5e-5,43.00489 36.555726,77.86725 81.649584,77.86716 45.09387,9e-5 81.64968,-34.86227 81.64959,-77.86716 -1.7e-4,-43.00471 -36.55591,-77.866803 -81.64959,-77.866713 z m -0.14908,5.945427 c 40.4145,1.05e-4 75.26563,33.359896 75.26583,71.352126 5e-5,37.99241 -35.44792,72.2061 -75.8626,72.20627 C 67.022917,226.2218 25.886859,192.5771 25.886913,154.58452 25.88712,116.59211 60.738537,82.663123 101.15322,82.663264 Z" />
      <path
         style="opacity:0.9;fill:#ffa348;fill-opacity:1;fill-rule:evenodd;stroke:#77767b;stroke-width:0.639;stroke-miterlimit:0;stroke-opacity:0.901961"
         id="path611"
         d="M 16.116279,35.850497 7.7162707,29.846424 -0.68373684,23.842351 8.7159469,19.569768 18.11563,15.297184 17.115954,25.573841 Z"
         transform="matrix(1.3064745,-0.01128557,0.10583172,1.1740455,14.480766,91.393047)" />
      <path
         style="opacity:0.9;fill:#ffa348;fill-opacity:1;fill-rule:evenodd;stroke:#77767b;stroke-width:0.639;stroke-miterlimit:0;stroke-opacity:0.901961"
         id="path613"
         d="M 16.116279,35.850497 7.7162707,29.846424 -0.68373684,23.842351 8.7159469,19.569768 18.11563,15.297184 17.115954,25.573841 Z"
         transform="matrix(1.3064324,0.01540358,0.08182793,1.1759624,78.344673,198.7072)" />
      <path
         style="opacity:0.9;fill:#ffa348;fill-opacity:1;fill-rule:evenodd;stroke:#77767b;stroke-width:0.639;stroke-miterlimit:0;stroke-opacity:0.901961"
         id="path615"
         d="M 16.116279,35.850497 7.7162707,29.846424 -0.68373684,23.842351 8.7159469,19.569768 18.11563,15.297184 17.115954,25.573841 Z"
         transform="matrix(1.3051958,-0.05888279,0.14854077,1.1694096,148.06929,88.563534)" />
      <text
         xml:space="preserve"
         transform="scale(0.26458333)"
         id="text1223"
         style="font-size:37.3333px;font-family:'Arial Black';-inkscape-font-specification:'Arial Black, ';text-align:center;white-space:pre;shape-inside:url(#rect1225);opacity:0.9;fill:#ffa348;fill-opacity:1;fill-rule:evenodd;stroke:#77767b;stroke-width:2.41512;stroke-miterlimit:0;stroke-opacity:0.901961" />
      <text
         xml:space="preserve"
         transform="matrix(0.39621382,0,0,0.53620651,92.346633,-192.81271)"
         id="text1433"
         style="font-size:37.3333px;font-family:'Arial Black';-inkscape-font-specification:'Arial Black, ';text-align:center;white-space:pre;shape-inside:url(#rect1435);opacity:0.9;fill:#fffefd;fill-opacity:1;fill-rule:evenodd;stroke:#77767b;stroke-width:2.41512;stroke-miterlimit:0;stroke-opacity:0.901961"><tspan
           x="-57.631768"
           y="518.28085"
           id="tspan1511">Analyze</tspan></text>
      <text
         xml:space="preserve"
         transform="matrix(0.39621382,0,0,0.53620651,155.82504,-82.958894)"
         id="text1441"
         style="font-size:37.3333px;font-family:'Arial Black';-inkscape-font-specification:'Arial Black, ';text-align:center;white-space:pre;shape-inside:url(#rect1443);opacity:0.9;fill:#fffefd;fill-opacity:1;fill-rule:evenodd;stroke:#77767b;stroke-width:2.41512;stroke-miterlimit:0;stroke-opacity:0.901961"><tspan
           x="-66.491135"
           y="518.28085"
           id="tspan1513">Evaluate</tspan></text>
      <text
         xml:space="preserve"
         transform="matrix(0.39621382,0,0,0.53620651,27.552613,-88.879162)"
         id="text1447"
         style="font-size:37.3333px;font-family:'Arial Black';-inkscape-font-specification:'Arial Black, ';text-align:center;white-space:pre;shape-inside:url(#rect1449);opacity:0.9;fill:#fffefd;fill-opacity:1;fill-rule:evenodd;stroke:#77767b;stroke-width:2.41512;stroke-miterlimit:0;stroke-opacity:0.901961"><tspan
           x="-92.577051"
           y="518.28085"
           id="tspan1515">Synthezyze</tspan></text>
    </g>
  </g>
</svg>
