<?xml version="1.0" standalone="no"?>
<!DOCTYPE svg PUBLIC "-//W3C//DTD SVG 20010904//EN"
 "http://www.w3.org/TR/2001/REC-SVG-20010904/DTD/svg10.dtd">
<svg version="1.0" xmlns="http://www.w3.org/2000/svg"
 width="739.000000pt" height="799.000000pt" viewBox="0 0 739.000000 799.000000"
 preserveAspectRatio="xMidYMid meet">

<g transform="translate(0.000000,799.000000) scale(0.100000,-0.100000)"
fill="#000000" stroke="none">
<path d="M1855 6750 c-4 -6 -10 -8 -15 -5 -13 8 -100 -16 -100 -27 0 -5 -8 -8
-17 -7 -22 3 -84 -10 -98 -21 -5 -4 -30 -11 -55 -14 -55 -9 -141 -56 -155 -85
-5 -11 -17 -21 -26 -21 -9 0 -30 -15 -46 -32 -16 -18 -43 -40 -59 -49 -16 -10
-33 -26 -39 -38 -5 -12 -17 -21 -26 -21 -16 0 -72 -53 -69 -65 1 -4 -9 -13
-21 -19 -12 -6 -29 -26 -38 -43 -9 -18 -22 -33 -29 -33 -8 0 -12 -6 -10 -12 3
-7 -15 -36 -39 -66 -24 -29 -43 -56 -43 -60 0 -3 14 11 32 32 17 21 48 45 67
53 20 8 47 25 61 38 14 13 39 27 55 31 28 7 24 1 -40 -67 -197 -209 -272 -441
-219 -682 22 -103 110 -278 201 -399 102 -137 417 -451 673 -672 113 -98 209
-184 215 -192 7 -10 -3 -26 -40 -64 -27 -27 -53 -50 -59 -50 -18 0 -76 52 -70
62 5 7 2 8 -6 3 -9 -5 -11 -4 -6 3 4 7 2 10 -6 7 -16 -6 -281 243 -273 256 4
5 0 6 -7 4 -19 -7 -82 60 -73 76 6 8 4 10 -5 4 -13 -8 -30 10 -30 35 0 8 45
-30 99 -84 55 -55 98 -103 96 -107 -5 -7 24 -23 36 -21 3 0 23 -17 44 -39 22
-21 35 -39 31 -39 -5 0 -3 -7 4 -15 15 -18 34 -20 25 -2 -4 6 23 -18 60 -55
65 -66 87 -79 100 -58 4 6 -1 7 -12 4 -16 -6 -15 -5 2 9 10 8 24 13 30 11 6
-3 19 4 28 14 16 17 14 21 -36 73 -28 30 -45 45 -37 34 8 -12 2 -7 -15 10 -16
16 -32 29 -36 28 -3 -1 -17 10 -30 25 l-24 27 25 -20 c21 -16 21 -15 -3 8 -15
15 -32 25 -36 23 -4 -3 -19 7 -32 22 l-24 27 30 -25 30 -24 -26 27 c-14 16
-33 29 -42 31 -21 3 -58 36 -51 47 2 4 -5 13 -16 19 -11 6 -20 8 -20 4 0 -3
-7 -1 -15 6 -8 6 -13 15 -12 19 2 9 -222 225 -275 264 -21 15 -37 31 -35 36 1
4 -11 20 -28 35 -16 15 -24 24 -16 20 9 -5 12 -3 7 4 -4 7 -13 12 -19 12 -13
0 -73 71 -70 82 2 4 -6 12 -17 18 -11 6 -20 17 -20 25 0 8 -9 19 -20 25 -11 6
-22 21 -26 34 -3 13 -19 33 -34 45 -17 12 -27 27 -24 35 3 8 0 17 -7 22 -8 5
-10 3 -4 -7 5 -8 -1 -5 -13 5 -25 21 -31 36 -7 16 22 -18 19 -7 -20 63 -39 70
-75 168 -75 202 0 13 -6 28 -14 35 -8 6 -17 24 -19 38 -3 19 -4 14 -6 -15 0
-23 6 -76 14 -119 14 -75 28 -112 82 -222 25 -50 26 -71 4 -58 -5 4 -27 38
-48 77 -21 38 -39 65 -41 59 -5 -15 60 -131 136 -240 177 -254 405 -503 787
-857 l110 -103 -30 -25 c-37 -31 -41 -31 -48 -2 -4 12 -70 80 -148 152 -287
262 -452 442 -642 695 -104 140 -145 189 -112 135 66 -110 225 -309 384 -484
47 -51 85 -97 83 -102 -1 -5 2 -8 6 -7 8 3 422 -381 422 -391 0 -10 -54 -61
-65 -61 -6 0 -24 -13 -40 -30 -16 -16 -34 -30 -40 -30 -30 0 -279 225 -269
242 5 7 2 8 -6 3 -9 -6 -11 -4 -5 5 5 8 4 11 -2 7 -14 -9 -362 347 -496 507
-342 411 -479 767 -433 1131 7 59 10 66 19 48 6 -15 6 -35 0 -60 -12 -48 0
-240 22 -341 8 -41 13 -78 9 -83 -7 -12 5 -51 15 -44 8 5 32 -62 37 -105 1
-13 8 -26 14 -28 15 -5 52 -81 45 -92 -3 -5 1 -12 8 -17 18 -10 48 -68 40 -77
-3 -3 6 -17 21 -31 15 -14 25 -29 22 -34 -3 -5 5 -16 19 -25 14 -9 25 -22 25
-29 0 -7 18 -33 39 -57 22 -25 72 -83 111 -130 193 -227 608 -657 707 -732 60
-45 68 -45 132 11 38 32 43 42 37 64 -3 15 -19 33 -36 42 -17 9 -87 71 -155
138 -69 67 -145 139 -170 160 -24 22 -44 42 -43 45 2 6 -75 89 -181 197 -11
12 -40 48 -64 80 -25 33 -56 71 -70 85 -53 54 -257 358 -257 384 0 20 21 -2
50 -54 58 -103 44 -59 -24 76 -114 227 -140 336 -141 599 0 123 4 198 14 235
39 153 131 301 277 448 57 56 100 102 96 102 -21 0 -134 -105 -199 -185 -85
-104 -153 -235 -183 -350 -57 -218 -26 -522 78 -764 22 -49 33 -87 27 -84 -16
5 -84 152 -91 196 -3 18 -10 41 -14 52 -8 19 -36 148 -41 188 -1 9 -2 79 -2
155 -1 135 5 201 18 222 4 7 9 32 11 56 5 54 39 145 61 161 8 6 12 16 9 22 -3
5 2 17 11 27 35 34 62 77 56 87 -3 6 -1 7 5 3 11 -7 38 32 34 47 -1 5 2 6 7 3
13 -8 63 53 54 67 -3 7 -3 9 2 5 10 -10 65 30 62 45 -1 7 5 11 13 9 8 -2 12 0
8 4 -4 4 -3 13 4 21 6 8 -9 4 -35 -9 -25 -13 -47 -27 -48 -33 0 -5 -26 -32
-57 -60 -33 -31 -50 -41 -43 -27 6 12 9 22 6 22 -6 0 47 47 116 103 l34 28
-35 -18 c-19 -10 -100 -83 -181 -163 -130 -129 -152 -156 -197 -240 -100 -186
-139 -358 -129 -554 10 -188 46 -323 129 -491 57 -114 171 -292 263 -410 125
-160 606 -645 778 -784 l68 -55 -23 -22 c-13 -12 -111 -102 -218 -201 -209
-193 -284 -269 -396 -403 -260 -310 -419 -646 -440 -927 -22 -304 118 -654
360 -897 99 -99 192 -167 328 -241 97 -52 251 -118 243 -104 -4 5 0 7 7 4 205
-69 312 -94 450 -104 81 -6 156 -11 168 -11 27 0 18 -16 -24 -41 -17 -10 -26
-19 -19 -19 6 0 26 12 44 27 17 15 43 28 58 29 93 8 327 40 506 70 193 32 215
38 280 74 40 22 83 50 97 62 14 13 53 43 86 67 80 57 216 198 270 281 56 84
112 200 158 325 34 91 37 111 40 220 l3 120 -14 -110 c-25 -199 -86 -363 -196
-529 -63 -95 -236 -279 -256 -272 -8 3 -12 2 -9 -3 8 -13 -62 -63 -76 -55 -7
4 -8 3 -4 -4 4 -6 -4 -16 -16 -23 -28 -15 -70 -21 -63 -9 3 5 13 6 22 3 10 -4
14 -2 10 4 -4 6 25 31 63 56 68 46 245 204 245 220 0 5 9 15 20 23 11 8 20 18
20 22 1 13 70 122 78 122 4 0 5 5 1 12 -4 6 -3 8 3 5 13 -8 36 41 27 55 -4 7
-2 8 4 4 6 -4 11 1 11 11 -1 30 59 185 65 171 3 -7 4 1 1 17 -3 17 -2 25 3 18
20 -30 22 364 2 462 -7 33 -15 76 -18 95 -2 19 -8 37 -12 40 -14 9 -39 80 -34
94 3 7 -1 20 -9 28 -20 19 -47 73 -47 93 0 8 -4 15 -10 15 -14 0 -42 58 -31
65 12 7 68 -91 110 -192 37 -85 78 -225 91 -308 8 -54 9 -50 4 35 -8 146 -33
218 -146 417 -176 311 -375 532 -905 1004 -27 23 -43 46 -43 60 0 16 63 87
213 238 198 200 317 332 317 349 -1 7 -20 -14 -128 -136 -35 -40 -70 -72 -79
-72 -11 0 -5 13 21 43 20 23 93 111 163 195 82 98 133 152 145 152 18 0 18 -1
1 -25 -10 -13 -24 -22 -30 -20 -8 3 -13 -4 -13 -16 0 -11 -12 -36 -26 -55 -15
-19 -24 -34 -20 -34 7 0 150 178 184 230 l24 35 -28 -30 c-15 -16 -34 -29 -42
-27 -9 2 -13 -2 -9 -10 8 -22 -15 -46 -37 -38 -14 4 -16 9 -8 14 7 4 12 12 12
17 0 5 -21 -16 -47 -48 -192 -238 -471 -539 -613 -663 l-55 -48 -74 54 c-40
30 -77 54 -82 54 -5 0 -21 -12 -37 -27 -15 -16 -18 -20 -6 -10 18 16 26 17 44
7 18 -10 21 -10 14 1 -4 8 16 -10 46 -38 29 -28 59 -49 66 -46 18 7 11 -22
-11 -47 -10 -11 -14 -20 -10 -20 4 0 0 -9 -10 -20 -22 -25 -43 -27 -24 -2 8 9
-42 -35 -110 -98 -211 -196 -326 -299 -333 -300 -4 0 -47 -38 -95 -84 -49 -46
-144 -135 -213 -198 -69 -63 -167 -161 -219 -219 -51 -57 -97 -103 -101 -102
-5 1 -14 -5 -22 -14 -9 -12 -9 -15 0 -9 21 12 14 0 -48 -86 -66 -93 -130 -215
-154 -298 -10 -30 -19 -93 -21 -140 l-5 -85 19 104 c20 110 37 163 82 252 45
91 162 258 236 339 145 159 599 578 695 642 l41 28 76 -67 c344 -304 537 -494
665 -655 236 -296 331 -544 297 -767 -25 -160 -87 -285 -204 -408 -76 -80
-225 -185 -321 -228 -279 -124 -712 -120 -990 8 -121 57 -244 143 -336 236
-126 127 -192 245 -230 416 -10 44 -19 70 -19 58 -2 -35 26 -155 49 -214 35
-88 122 -209 217 -299 175 -168 379 -265 633 -300 76 -10 427 -21 400 -12 -7
3 36 17 96 32 175 44 296 102 421 202 162 128 274 316 310 516 15 85 12 135
-14 240 -8 35 15 26 26 -10 5 -18 10 -26 10 -17 1 24 -20 79 -30 79 -5 0 -9
-6 -10 -12 0 -7 -12 21 -27 62 -31 85 -111 230 -178 320 -49 67 -55 83 -22 54
13 -10 6 1 -14 26 -20 25 -41 44 -46 43 -11 -2 -217 223 -217 237 0 6 -3 9 -7
8 -10 -4 -78 64 -73 72 3 4 -5 16 -18 26 l-22 19 19 -22 c11 -13 16 -23 12
-23 -13 0 -205 183 -201 190 3 4 -5 16 -17 26 -12 11 -18 13 -13 5 5 -9 4 -12
-4 -10 -7 3 -11 7 -9 11 5 9 -34 48 -43 42 -4 -2 -16 7 -25 21 -9 13 -19 23
-23 20 -4 -2 -27 16 -52 41 l-43 44 39 40 40 40 32 -17 c49 -27 145 -116 386
-358 133 -133 181 -178 121 -112 -53 59 -187 196 -297 304 -166 161 -199 198
-190 212 6 9 17 17 25 19 8 2 78 -55 154 -126 253 -235 452 -454 576 -634 33
-49 62 -88 64 -88 9 0 -19 46 -75 124 -31 43 -55 84 -53 90 2 6 1 8 -3 4 -4
-4 -30 21 -58 55 -28 34 -96 111 -152 171 -55 59 -99 113 -97 118 1 5 -1 7 -6
4 -12 -7 -94 78 -85 88 5 4 3 6 -2 4 -16 -5 -136 103 -128 115 3 5 2 7 -4 4
-6 -4 -21 5 -33 18 -19 20 -20 25 -8 25 9 0 32 -18 51 -40 19 -22 38 -40 43
-40 6 0 30 -20 54 -45 24 -25 40 -45 35 -45 -5 0 5 -11 23 -23 33 -25 132
-122 132 -131 0 -3 28 -34 63 -69 103 -108 196 -217 183 -217 -3 0 5 -11 17
-24 34 -36 57 -69 57 -81 0 -7 9 -20 20 -30 24 -22 81 -109 84 -129 1 -8 8
-21 15 -30 19 -23 81 -155 81 -173 0 -9 12 -41 27 -72 30 -63 44 -153 48 -316
3 -101 -8 -195 -24 -195 -3 0 -4 53 -3 117 4 121 -11 315 -28 355 -12 32 -12
18 5 -97 18 -121 19 -177 5 -155 -7 10 -8 -11 -4 -67 5 -55 3 -87 -4 -96 -13
-15 -64 -199 -57 -205 2 -3 11 1 20 8 24 20 18 -5 -9 -37 -13 -15 -26 -37 -30
-48 -9 -27 -40 -63 -63 -72 -10 -5 -41 -32 -68 -62 -28 -30 -43 -51 -35 -47
30 15 -77 -78 -145 -126 -184 -130 -452 -222 -690 -235 -345 -19 -825 184
-1005 426 -45 61 -64 76 -54 44 3 -10 -11 0 -30 21 -20 22 -36 45 -36 52 0 7
-8 17 -17 23 -12 6 -17 21 -16 47 1 41 -8 66 -37 99 -10 11 -20 40 -23 65 -10
73 -28 125 -37 110 -18 -29 -34 75 -34 220 0 119 4 160 22 227 65 240 210 472
442 703 63 63 277 263 475 445 767 702 974 918 1176 1223 181 275 261 506 262
762 0 185 -33 325 -115 480 -80 152 -261 342 -402 421 -54 30 -36 7 27 -35
220 -148 379 -359 436 -580 30 -114 45 -323 32 -430 -29 -238 -194 -561 -432
-848 -109 -130 -368 -400 -379 -393 -5 3 -18 -10 -29 -29 -12 -18 -39 -45 -61
-60 -23 -15 -38 -31 -35 -36 3 -4 -17 -28 -44 -52 -181 -161 -848 -787 -948
-891 -67 -69 -156 -171 -198 -228 -95 -127 -185 -309 -221 -444 -25 -94 -26
-110 -21 -255 6 -166 18 -225 67 -336 20 -44 25 -62 15 -54 -21 18 -46 66 -38
74 3 3 -1 14 -9 23 -47 55 -77 274 -59 429 7 59 17 102 27 111 8 8 12 23 9 33
-6 19 11 66 32 88 7 8 11 18 7 23 -3 5 4 24 15 43 12 18 21 40 21 47 0 8 8 26
17 39 10 14 18 31 20 38 1 8 9 22 19 33 17 19 29 39 59 96 9 17 28 39 41 48
14 9 22 20 19 25 -3 4 7 18 22 30 16 12 28 25 28 28 0 12 324 334 425 423 52
46 117 106 144 134 27 27 54 50 60 50 6 0 11 5 11 11 0 6 126 128 280 271 237
220 649 629 612 606 -7 -4 21 26 61 66 40 40 70 76 67 81 -3 4 4 19 16 31 11
13 17 17 13 9 -11 -23 8 -2 50 57 21 29 35 57 32 62 -4 5 -1 13 5 17 8 5 9 3
4 -6 -5 -9 -4 -11 4 -6 6 4 9 12 6 17 -3 5 12 39 33 76 22 38 54 96 71 131 17
34 34 62 37 62 3 0 2 -5 -2 -12 -5 -7 -3 -8 5 -4 7 5 10 15 7 23 -4 8 -2 11 5
7 7 -4 9 0 5 14 -4 13 0 26 11 38 10 10 18 22 19 28 2 31 18 83 30 97 8 9 14
29 12 45 -3 47 1 86 10 81 9 -6 -4 233 -19 333 -6 41 -13 98 -15 125 -10 115
-151 328 -307 463 -86 75 -142 112 -207 139 -42 17 -49 23 -30 24 25 1 24 1
-5 14 -16 8 -42 14 -56 15 -14 0 -40 7 -57 16 -17 8 -46 16 -64 17 -18 2 -44
9 -58 17 -20 12 -84 15 -317 17 -185 2 -294 -1 -298 -7z m638 -147 c-7 -2 -13
-17 -13 -32 0 -21 -7 -31 -27 -40 -27 -12 -27 -13 -8 -27 11 -9 61 -38 110
-66 166 -93 213 -133 393 -332 28 -33 52 -66 52 -75 0 -9 14 -32 30 -51 16
-19 30 -39 30 -45 0 -5 -5 -3 -10 5 -13 20 -12 10 1 -28 6 -18 15 -30 19 -27
16 10 31 -90 37 -232 4 -107 3 -143 -6 -143 -8 0 -10 -8 -6 -20 4 -13 -2 -34
-15 -55 -12 -20 -19 -42 -16 -51 3 -8 2 -12 -4 -9 -6 3 -10 4 -10 1 0 -2 -3
-12 -7 -22 -4 -12 -3 -15 5 -10 8 5 10 2 6 -8 -3 -9 -9 -14 -13 -12 -3 2 -7
-7 -7 -20 -1 -12 -11 -35 -23 -50 -12 -15 -21 -32 -21 -39 0 -7 -15 -32 -34
-56 -19 -23 -32 -47 -29 -53 4 -5 1 -6 -6 -2 -8 6 -11 2 -9 -10 2 -11 -3 -19
-12 -19 -8 0 -15 -9 -15 -20 0 -11 -6 -20 -14 -20 -8 0 -16 -6 -19 -14 -3 -10
0 -11 9 -5 8 4 -1 -11 -19 -34 -18 -23 -38 -41 -44 -39 -5 1 -18 -14 -29 -33
-25 -46 -197 -230 -212 -227 -7 1 -11 -3 -10 -10 2 -7 -30 -40 -69 -75 -40
-35 -122 -114 -183 -175 -60 -62 -137 -133 -170 -158 -33 -26 -60 -50 -60 -54
0 -4 -25 -29 -55 -56 -30 -26 -88 -78 -128 -114 -40 -36 -76 -66 -80 -66 -4 0
-34 -26 -66 -58 -33 -31 -61 -55 -64 -53 -2 2 -20 -14 -40 -36 -20 -22 -38
-35 -40 -29 -2 6 -14 -3 -26 -21 -13 -18 -28 -32 -35 -30 -7 1 -10 -1 -7 -6 5
-9 -39 -57 -52 -57 -3 0 -82 -79 -175 -175 -93 -96 -183 -188 -201 -204 -17
-16 -25 -25 -18 -21 19 10 -91 -130 -139 -178 -22 -22 -38 -46 -35 -53 2 -6
-5 -22 -17 -35 -12 -13 -21 -27 -19 -31 1 -5 -10 -27 -25 -50 -14 -24 -37 -66
-49 -95 -13 -29 -29 -53 -35 -53 -5 0 -9 -8 -8 -17 4 -23 -63 -223 -71 -218
-4 2 -7 -15 -8 -39 0 -24 -5 -52 -10 -62 -10 -20 10 -300 28 -386 5 -26 7 -54
4 -61 -3 -8 3 -22 12 -32 23 -22 94 -182 86 -190 -4 -4 3 -14 14 -23 12 -9 49
-55 84 -102 64 -86 277 -306 287 -296 3 3 24 -7 47 -23 22 -15 77 -48 121 -72
44 -23 82 -47 83 -51 2 -5 8 -6 13 -2 5 3 9 0 9 -6 0 -6 6 -8 13 -4 9 5 9 4 1
-5 -9 -10 -29 -4 -91 27 -334 168 -587 455 -699 792 -27 82 -28 92 -28 290 0
195 2 210 28 295 31 102 122 297 195 419 159 262 418 540 844 903 356 304 751
677 965 913 188 207 306 391 367 575 26 77 27 87 23 245 -5 188 -15 224 -99
365 -117 198 -281 331 -533 434 -78 31 -136 48 -195 55 l-84 10 164 42 c151
39 203 50 172 37z m-1665 -105 c-7 -13 -38 -52 -69 -88 -31 -36 -73 -90 -95
-120 -21 -30 -42 -58 -47 -61 -7 -5 -13 -22 -16 -50 -1 -3 -8 -6 -16 -6 -29 0
81 166 185 280 66 71 78 81 58 45z m1427 -15 c378 -72 715 -362 780 -669 20
-93 19 -279 -1 -358 -31 -121 -152 -338 -270 -484 -149 -184 -673 -712 -707
-712 -7 0 -18 9 -24 19 -7 10 -76 74 -155 142 -189 162 -464 417 -558 515
-135 142 -275 335 -326 451 -36 80 -66 217 -66 298 -1 120 46 268 123 390 44
71 183 208 232 230 28 13 722 187 787 197 33 5 88 0 185 -19z m806 -130 c13
-17 13 -17 -6 -3 -11 8 -22 16 -24 17 -2 2 0 3 6 3 6 0 17 -8 24 -17z m-41 4
c0 -2 -10 -12 -22 -23 l-23 -19 19 23 c18 21 26 27 26 19z m-40 -50 c0 -2 -10
-12 -22 -23 l-23 -19 19 23 c18 21 26 27 26 19z m-75 -55 c-3 -3 -11 0 -18 7
-9 10 -8 11 6 5 10 -3 15 -9 12 -12z m285 -82 c6 -11 8 -20 6 -20 -3 0 -10 9
-16 20 -6 11 -8 20 -6 20 3 0 10 -9 16 -20z m-2618 -49 c-10 -20 -21 -39 -26
-42 -5 -4 -10 -18 -11 -32 -6 -55 -17 -87 -27 -81 -7 5 -9 -3 -4 -22 5 -21 4
-25 -4 -14 -13 19 -5 56 31 151 17 44 35 76 43 76 12 0 11 -7 -2 -36z m435
-970 c-1 -15 -4 -17 -14 -9 -17 14 -16 28 1 28 8 0 14 -9 13 -19z m51 -71 c35
-43 38 -50 19 -50 -6 0 -24 20 -39 45 -34 55 -24 58 20 5z m73 -108 c11 -7 19
-22 19 -32 0 -10 9 -22 20 -25 11 -3 20 -13 20 -21 0 -8 2 -14 4 -14 2 0 12
-3 22 -7 12 -5 3 15 -27 58 -49 68 -69 101 -52 84 22 -23 158 -218 159 -228 4
-39 5 -42 12 -26 5 11 20 0 61 -50 30 -36 48 -60 41 -53 -23 20 -35 14 -15 -8
34 -38 9 -20 -30 21 -22 23 -34 38 -27 34 10 -5 13 -2 10 11 -2 11 -11 19 -20
19 -24 0 -88 65 -174 177 -46 60 -69 98 -61 101 6 2 14 -3 16 -12 2 -9 12 -22
22 -29z m1696 -770 c-125 -133 -344 -332 -364 -332 -4 0 4 11 17 25 13 14 19
25 14 25 -5 0 5 8 21 19 17 10 100 86 185 168 85 83 159 149 163 146 4 -3 -12
-26 -36 -51z m-278 -345 c6 -8 8 -16 5 -19 -3 -3 1 -5 9 -4 21 2 232 -192 452
-416 198 -200 273 -287 367 -423 71 -103 72 -106 54 -99 -14 5 -52 54 -42 54
2 0 -9 14 -25 31 -16 18 -28 33 -26 35 2 2 -13 23 -34 45 -21 23 -38 44 -37
48 2 18 -3 32 -10 27 -8 -5 -107 101 -107 114 0 3 -30 34 -65 69 -36 35 -64
68 -62 73 1 4 -5 8 -13 8 -9 0 -20 12 -25 26 -6 14 -14 23 -19 20 -5 -3 -36
23 -70 59 -33 36 -62 64 -64 63 -2 -2 -67 57 -145 130 -78 72 -146 132 -152
132 -6 0 -8 5 -5 10 4 6 -6 10 -22 9 -25 0 -26 -1 -8 -9 11 -5 14 -9 8 -9 -11
-1 -78 -47 -122 -83 -11 -9 -13 -8 -9 3 6 19 125 119 142 119 7 0 19 -6 25
-13z m-139 -30 c0 -2 -12 -14 -27 -28 l-28 -24 24 28 c23 25 31 32 31 24z m15
-107 c3 -5 2 -10 -4 -10 -5 0 -13 5 -16 10 -3 6 -2 10 4 10 5 0 13 -4 16 -10z
m-64 -277 c13 -16 12 -17 -3 -4 -10 7 -18 15 -18 17 0 8 8 3 21 -13z m609
-606 c0 -6 -9 -2 -20 8 -11 10 -20 23 -20 28 0 6 9 2 20 -8 11 -10 20 -23 20
-28z m370 -851 c0 -15 -24 -66 -31 -66 -11 0 -11 0 2 39 6 17 15 31 20 31 5 0
9 -2 9 -4z m-2268 -91 c11 -20 11 -20 -11 -1 -11 11 -21 26 -21 35 0 14 2 14
10 1 6 -8 16 -24 22 -35z m425 -711 c-3 -3 -12 -4 -19 -1 -8 3 -5 6 6 6 11 1
17 -2 13 -5z"/>
<path d="M2820 4980 c-12 -16 -19 -30 -16 -30 2 0 14 14 26 30 12 17 19 30 16
30 -2 0 -14 -13 -26 -30z"/>
<path d="M2614 4748 l-29 -33 33 29 c30 28 37 36 29 36 -2 0 -16 -15 -33 -32z"/>
<path d="M1684 3888 l-19 -23 23 19 c21 18 27 26 19 26 -2 0 -12 -10 -23 -22z"/>
<path d="M1209 3443 l-34 -38 38 34 c34 33 42 41 34 41 -2 0 -19 -17 -38 -37z"/>
<path d="M1009 3213 c-13 -16 -12 -17 4 -4 16 13 21 21 13 21 -2 0 -10 -8 -17
-17z"/>
<path d="M930 1586 c0 -2 8 -10 18 -17 15 -13 16 -12 3 4 -13 16 -21 21 -21
13z"/>
<path d="M2805 3600 c10 -11 20 -20 23 -20 3 0 -3 9 -13 20 -10 11 -20 20 -23
20 -3 0 3 -9 13 -20z"/>
<path d="M3065 6639 l-20 -9 20 2 c11 2 27 -2 35 -7 13 -8 13 -7 1 8 -7 9 -14
17 -15 16 0 0 -10 -5 -21 -10z"/>
<path d="M3136 6555 c81 -66 180 -163 226 -221 29 -37 49 -53 60 -51 11 3 30
-14 58 -55 23 -32 44 -57 47 -54 16 16 -229 315 -315 384 -50 39 -64 42 -22 5
19 -18 27 -33 22 -40 -10 -15 -91 46 -85 64 3 7 -5 11 -17 10 -19 -1 -15 -7
26 -42z m245 -191 c53 -67 56 -74 34 -74 -8 0 -15 5 -15 11 0 5 -43 54 -96
109 -59 61 -90 100 -82 103 16 6 92 -66 159 -149z"/>
<path d="M3430 6245 c0 -5 27 -57 60 -115 71 -124 79 -125 15 -1 -47 91 -74
133 -75 116z"/>
<path d="M3562 6080 c9 -27 28 -50 28 -35 0 9 -30 65 -35 65 -2 0 1 -14 7 -30z"/>
<path d="M895 5998 c-25 -50 -45 -99 -44 -107 0 -9 12 9 27 39 23 46 31 54 51
52 15 -2 21 0 17 7 -4 6 -14 11 -21 11 -12 0 -11 9 5 45 34 78 11 49 -35 -47z"/>
<path d="M3600 5992 c0 -5 7 -32 16 -61 14 -48 14 -55 0 -70 -9 -10 -16 -22
-16 -27 0 -5 5 -2 10 6 7 11 10 3 10 -30 0 -31 3 -40 9 -31 12 18 7 123 -8
179 -11 38 -21 55 -21 34z"/>
<path d="M3572 5955 c0 -11 5 -38 13 -60 7 -22 13 -31 13 -20 0 11 -5 38 -13
60 -7 22 -13 31 -13 20z"/>
<path d="M890 5922 c0 -10 -5 -23 -12 -30 -9 -9 -9 -12 0 -12 12 0 32 31 32
49 0 6 -4 11 -10 11 -5 0 -10 -8 -10 -18z"/>
<path d="M826 5814 c-19 -48 2 -377 26 -414 7 -12 8 -11 3 5 -11 36 -27 300
-21 363 5 62 3 75 -8 46z"/>
<path d="M3663 5675 c0 -22 2 -30 4 -17 2 12 2 30 0 40 -3 9 -5 -1 -4 -23z"/>
<path d="M862 5660 c0 -19 2 -27 5 -17 2 9 2 25 0 35 -3 9 -5 1 -5 -18z"/>
<path d="M3632 5670 c0 -14 2 -19 5 -12 2 6 2 18 0 25 -3 6 -5 1 -5 -13z"/>
<path d="M3628 5537 c-10 -14 -20 -52 -23 -84 -4 -40 -2 -52 4 -38 5 11 10 37
10 58 1 34 3 37 16 23 13 -13 14 -23 4 -60 -6 -24 -9 -52 -7 -62 9 -41 29 94
21 142 l-8 48 -17 -27z"/>
<path d="M3572 5327 c-7 -16 -12 -38 -11 -50 0 -18 3 -16 15 12 8 18 13 41 11
50 -3 12 -7 8 -15 -12z"/>
<path d="M3601 5279 c-15 -51 -145 -307 -188 -371 -45 -66 -48 -77 -10 -35 20
21 69 104 110 185 80 159 112 233 105 253 -2 6 -10 -8 -17 -32z"/>
<path d="M3506 5151 c-15 -28 -23 -51 -18 -51 10 0 55 91 48 97 -3 3 -16 -18
-30 -46z"/>
<path d="M3148 5168 c-23 -35 -52 -94 -40 -83 13 14 65 105 59 105 -3 0 -11
-10 -19 -22z"/>
<path d="M3393 4953 c-39 -60 -89 -135 -112 -168 -42 -59 -42 -59 -6 -20 20
22 72 93 115 158 71 104 89 137 76 137 -2 0 -35 -48 -73 -107z"/>
<path d="M840 4826 c0 -2 8 -10 18 -17 15 -13 16 -12 3 4 -13 16 -21 21 -21
13z"/>
<path d="M1000 4645 c13 -14 26 -25 28 -25 3 0 -5 11 -18 25 -13 14 -26 25
-28 25 -3 0 5 -11 18 -25z"/>
<path d="M1510 4535 c19 -19 36 -35 39 -35 3 0 -10 16 -29 35 -19 19 -36 35
-39 35 -3 0 10 -16 29 -35z"/>
<path d="M1695 4520 c10 -11 20 -20 23 -20 3 0 -3 9 -13 20 -10 11 -20 20 -23
20 -3 0 3 -9 13 -20z"/>
<path d="M1590 4455 c19 -19 36 -35 39 -35 3 0 -10 16 -29 35 -19 19 -36 35
-39 35 -3 0 10 -16 29 -35z"/>
<path d="M1700 4355 c19 -19 36 -35 39 -35 3 0 -10 16 -29 35 -19 19 -36 35
-39 35 -3 0 10 -16 29 -35z"/>
<path d="M1800 4265 c13 -14 26 -25 28 -25 3 0 -5 11 -18 25 -13 14 -26 25
-28 25 -3 0 5 -11 18 -25z"/>
<path d="M2180 3913 c-171 -154 -610 -556 -610 -560 0 -7 253 219 479 426 195
180 229 212 219 211 -2 -1 -41 -35 -88 -77z"/>
<path d="M2450 3376 c0 -2 8 -10 18 -17 15 -13 16 -12 3 4 -13 16 -21 21 -21
13z"/>
<path d="M1549 3323 c-13 -16 -12 -17 4 -4 9 7 17 15 17 17 0 8 -8 3 -21 -13z"/>
<path d="M1430 3215 c-24 -25 -42 -45 -39 -45 3 0 25 20 49 45 24 25 42 45 39
45 -3 0 -25 -20 -49 -45z"/>
<path d="M1303 3076 c-46 -52 -90 -116 -79 -116 3 0 20 21 37 47 18 26 48 64
67 85 19 21 32 38 29 38 -3 0 -27 -24 -54 -54z"/>
<path d="M1539 3073 c-13 -16 -12 -17 4 -4 9 7 17 15 17 17 0 8 -8 3 -21 -13z"/>
<path d="M2770 3066 c0 -2 8 -10 18 -17 15 -13 16 -12 3 4 -13 16 -21 21 -21
13z"/>
<path d="M2985 2970 c10 -11 20 -20 23 -20 3 0 -3 9 -13 20 -10 11 -20 20 -23
20 -3 0 3 -9 13 -20z"/>
<path d="M1429 2953 c-13 -16 -12 -17 4 -4 9 7 17 15 17 17 0 8 -8 3 -21 -13z"/>
<path d="M1173 2897 c-41 -58 -49 -72 -35 -63 16 10 75 96 70 102 -3 2 -18
-15 -35 -39z"/>
<path d="M3030 2919 c0 -9 7 -22 15 -29 19 -16 19 0 0 26 -12 16 -14 16 -15 3z"/>
<path d="M3080 2848 c0 -11 90 -157 101 -164 5 -3 -9 25 -32 63 -51 83 -69
110 -69 101z"/>
<path d="M3222 2713 c63 -133 76 -156 63 -113 -13 44 -108 240 -116 240 -4 0
20 -57 53 -127z"/>
<path d="M1105 2789 c-4 -6 -5 -13 -2 -16 7 -7 27 6 27 18 0 12 -17 12 -25 -2z"/>
<path d="M1055 2668 c-30 -62 -46 -112 -31 -97 9 9 75 169 70 169 -3 0 -20
-32 -39 -72z"/>
<path d="M3225 2583 c16 -38 25 -52 25 -39 0 12 -29 76 -35 76 -3 0 2 -17 10
-37z"/>
<path d="M3149 2575 c14 -30 40 -61 41 -50 0 6 -12 24 -26 40 -14 17 -21 21
-15 10z"/>
<path d="M992 2459 c-12 -50 -16 -106 -8 -98 7 6 28 141 23 145 -2 2 -9 -19
-15 -47z"/>
<path d="M3261 2495 c0 -11 6 -33 14 -50 l14 -30 -6 35 c-7 44 -22 75 -22 45z"/>
<path d="M3200 2468 c0 -9 5 -20 10 -23 13 -8 13 5 0 25 -8 13 -10 13 -10 -2z"/>
<path d="M1072 2195 c0 -16 2 -22 5 -12 2 9 2 23 0 30 -3 6 -5 -1 -5 -18z"/>
<path d="M1082 2120 c0 -14 2 -19 5 -12 2 6 2 18 0 25 -3 6 -5 1 -5 -13z"/>
<path d="M1111 2023 c-1 -23 4 -45 9 -48 12 -7 12 29 0 65 -7 21 -8 19 -9 -17z"/>
<path d="M3225 1950 c-3 -5 -1 -10 4 -10 6 0 11 5 11 10 0 6 -2 10 -4 10 -3 0
-8 -4 -11 -10z"/>
<path d="M1156 1908 c11 -37 34 -79 77 -140 45 -66 60 -77 27 -20 -13 20 -41
70 -62 110 -40 73 -55 91 -42 50z"/>
<path d="M3035 1658 l-70 -73 73 70 c39 38 72 71 72 72 0 8 -11 -2 -75 -69z"/>
<path d="M1353 1633 c4 -6 26 -26 49 -45 23 -18 39 -28 35 -21 -4 6 -26 26
-49 45 -23 18 -39 28 -35 21z"/>
<path d="M3080 1260 c-9 -6 -10 -10 -3 -10 6 0 15 5 18 10 8 12 4 12 -15 0z"/>
<path d="M1627 1089 c7 -7 15 -10 18 -7 3 3 -2 9 -12 12 -14 6 -15 5 -6 -5z"/>
<path d="M1730 1040 c8 -5 20 -10 25 -10 6 0 3 5 -5 10 -8 5 -19 10 -25 10 -5
0 -3 -5 5 -10z"/>
<path d="M1968 963 c6 -2 18 -2 25 0 6 3 1 5 -13 5 -14 0 -19 -2 -12 -5z"/>
<path d="M2088 963 c7 -3 16 -2 19 1 4 3 -2 6 -13 5 -11 0 -14 -3 -6 -6z"/>
</g>
</svg>
