<?xml version="1.0" encoding="UTF-8" standalone="no"?>
<!-- Created with Inkscape (http://www.inkscape.org/) -->

<svg
   version="1.1"
   id="svg182"
   width="659.90509"
   height="510.67081"
   viewBox="0 0 659.90509 510.6708"
   sodipodi:docname="8 ZenSe (1).pdf"
   xmlns:inkscape="http://www.inkscape.org/namespaces/inkscape"
   xmlns:sodipodi="http://sodipodi.sourceforge.net/DTD/sodipodi-0.dtd"
   xmlns="http://www.w3.org/2000/svg"
   xmlns:svg="http://www.w3.org/2000/svg">
  <defs
     id="defs186">
    <clipPath
       clipPathUnits="userSpaceOnUse"
       id="clipPath208">
      <path
         d="M 0,0 H 566.929 V 566.929 H 0 Z"
         id="path206" />
    </clipPath>
    <clipPath
       clipPathUnits="userSpaceOnUse"
       id="clipPath254">
      <path
         d="M 0,0 H 566.929 V 566.929 H 0 Z"
         id="path252" />
    </clipPath>
    <clipPath
       clipPathUnits="userSpaceOnUse"
       id="clipPath302">
      <path
         d="M 0,0 H 566.929 V 566.929 H 0 Z"
         id="path300" />
    </clipPath>
    <clipPath
       clipPathUnits="userSpaceOnUse"
       id="clipPath342">
      <path
         d="M 0,0 H 566.929 V 566.929 H 0 Z"
         id="path340" />
    </clipPath>
  </defs>
  <sodipodi:namedview
     id="namedview184"
     pagecolor="#ffffff"
     bordercolor="#000000"
     borderopacity="0.25"
     inkscape:showpageshadow="2"
     inkscape:pageopacity="0.0"
     inkscape:pagecheckerboard="0"
     inkscape:deskcolor="#d1d1d1"
     showgrid="false" />
  <g
     id="g190"
     inkscape:groupmode="layer"
     inkscape:label="Page 1"
     transform="matrix(1.3333333,0,0,-1.3333333,-48.000382,634.99825)">
    <g
       id="g192"
       transform="translate(53.0846,241.7614)">
      <path
         d="m 0,0 h -11.308 v -10.142 h -1.858 V 11.591 H 0.189 V 9.985 H -11.308 V 1.606 H 0 Z"
         style="fill:#7a918f;fill-opacity:1;fill-rule:nonzero;stroke:none"
         id="path194" />
    </g>
    <path
       d="m 59.762,231.619 h -1.858 v 21.734 h 1.858 z"
       style="fill:#7a918f;fill-opacity:1;fill-rule:nonzero;stroke:none"
       id="path196" />
    <g
       id="g198"
       transform="translate(82.8177,253.3527)">
      <path
         d="m 0,0 v -21.734 h -3.842 l -10.993,21.64 v -21.64 h -1.858 V 0 h 3.842 L -1.858,-21.639 V 0 Z"
         style="fill:#7a918f;fill-opacity:1;fill-rule:nonzero;stroke:none"
         id="path200" />
    </g>
    <g
       id="g202">
      <g
         id="g204"
         clip-path="url(#clipPath208)">
        <g
           id="g210"
           transform="translate(89.1807,231.6191)">
          <path
             d="m 0,0 v 21.734 h 5.607 c 1.889,0 3.553,-0.279 4.992,-0.835 1.438,-0.557 2.63,-1.318 3.575,-2.284 0.945,-0.966 1.658,-2.11 2.142,-3.433 0.482,-1.323 0.724,-2.761 0.724,-4.316 0,-1.554 -0.242,-2.992 -0.724,-4.314 C 15.832,5.228 15.119,4.084 14.174,3.119 13.229,2.153 12.037,1.391 10.599,0.835 9.16,0.278 7.496,0 5.607,0 Z M 5.291,20.127 H 1.858 V 1.606 h 3.433 c 3.171,0 5.591,0.809 7.26,2.426 1.67,1.617 2.504,3.895 2.504,6.834 0,2.941 -0.834,5.218 -2.504,6.836 -1.669,1.616 -4.089,2.425 -7.26,2.425"
             style="fill:#7a918f;fill-opacity:1;fill-rule:nonzero;stroke:none"
             id="path212" />
        </g>
      </g>
    </g>
    <g
       id="g214"
       transform="translate(115.2598,251.7462)">
      <path
         d="M 0,0 V 1.607 H 17.008 V 0 H 9.417 V -20.127 H 7.591 V 0 Z"
         style="fill:#7a918f;fill-opacity:1;fill-rule:nonzero;stroke:none"
         id="path216" />
    </g>
    <g
       id="g218"
       transform="translate(149.3719,253.3527)">
      <path
         d="M 0,0 H 1.858 V -21.734 H 0 v 10.3 h -11.717 v -10.3 h -1.858 V 0 h 1.858 V -9.828 H 0 Z"
         style="fill:#7a918f;fill-opacity:1;fill-rule:nonzero;stroke:none"
         id="path220" />
    </g>
    <g
       id="g222"
       transform="translate(170.0338,233.2255)">
      <path
         d="M 0,0 V -1.606 H -12.441 V 20.127 H -0.252 V 18.521 H -10.583 V 10.426 H -0.536 V 8.82 H -10.583 V 0 Z"
         style="fill:#7a918f;fill-opacity:1;fill-rule:nonzero;stroke:none"
         id="path224" />
    </g>
    <g
       id="g226"
       transform="translate(181.1826,233.2255)">
      <path
         d="M 0,0 12.568,18.521 H 0.189 v 1.606 H 14.804 V 18.521 L 2.236,0 H 15.088 V -1.606 H 0 Z"
         style="fill:#7a918f;fill-opacity:1;fill-rule:nonzero;stroke:none"
         id="path228" />
    </g>
    <g
       id="g230"
       transform="translate(213.0899,233.2255)">
      <path
         d="M 0,0 V -1.606 H -12.441 V 20.127 H -0.252 V 18.521 H -10.583 V 10.426 H -0.536 V 8.82 H -10.583 V 0 Z"
         style="fill:#7a918f;fill-opacity:1;fill-rule:nonzero;stroke:none"
         id="path232" />
    </g>
    <g
       id="g234"
       transform="translate(234.8228,253.3527)">
      <path
         d="m 0,0 v -21.734 h -3.842 l -10.993,21.64 v -21.64 h -1.858 V 0 h 3.842 L -1.858,-21.639 V 0 Z"
         style="fill:#7a918f;fill-opacity:1;fill-rule:nonzero;stroke:none"
         id="path236" />
    </g>
    <path
       d="m 251.075,231.619 h -1.858 v 21.734 h 1.858 z"
       style="fill:#7a918f;fill-opacity:1;fill-rule:nonzero;stroke:none"
       id="path238" />
    <g
       id="g240"
       transform="translate(274.1312,253.3527)">
      <path
         d="m 0,0 v -21.734 h -3.842 l -10.993,21.64 v -21.64 h -1.858 V 0 h 3.842 L -1.858,-21.639 V 0 Z"
         style="fill:#7a918f;fill-opacity:1;fill-rule:nonzero;stroke:none"
         id="path242" />
    </g>
    <g
       id="g244"
       transform="translate(303.1093,253.3527)">
      <path
         d="m 0,0 -8.347,-12.001 v -9.733 h -1.858 v 9.733 L -18.552,0 h 2.141 L -9.261,-10.299 -2.142,0 Z"
         style="fill:#7a918f;fill-opacity:1;fill-rule:nonzero;stroke:none"
         id="path246" />
    </g>
    <g
       id="g248">
      <g
         id="g250"
         clip-path="url(#clipPath254)">
        <g
           id="g256"
           transform="translate(324.3067,242.4855)">
          <path
             d="M 0,0 C 0,-1.491 -0.247,-2.919 -0.74,-4.283 -1.234,-5.649 -1.921,-6.84 -2.803,-7.858 -3.685,-8.877 -4.751,-9.685 -6,-10.283 c -1.25,-0.6 -2.63,-0.899 -4.142,-0.899 -1.512,0 -2.893,0.299 -4.142,0.899 -1.249,0.598 -2.315,1.406 -3.197,2.425 -0.882,1.018 -1.57,2.209 -2.063,3.575 -0.494,1.364 -0.74,2.792 -0.74,4.283 0,1.491 0.246,2.919 0.74,4.284 0.493,1.365 1.181,2.557 2.063,3.575 0.882,1.019 1.948,1.827 3.197,2.425 1.249,0.598 2.63,0.898 4.142,0.898 1.512,0 2.892,-0.3 4.142,-0.898 C -4.751,9.686 -3.685,8.878 -2.803,7.859 -1.921,6.841 -1.234,5.649 -0.74,4.284 -0.247,2.919 0,1.491 0,0 m -18.3,0 c 0,-1.47 0.22,-2.798 0.662,-3.984 0.441,-1.187 1.034,-2.19 1.779,-3.008 0.745,-0.819 1.611,-1.454 2.599,-1.906 0.986,-0.451 2.026,-0.677 3.118,-0.677 1.092,0 2.131,0.226 3.118,0.677 0.987,0.452 1.853,1.087 2.599,1.906 0.745,0.818 1.339,1.821 1.779,3.008 0.441,1.186 0.662,2.514 0.662,3.984 0,1.47 -0.221,2.798 -0.662,3.985 -0.44,1.186 -1.034,2.189 -1.779,3.008 -0.746,0.819 -1.612,1.454 -2.599,1.906 -0.987,0.45 -2.026,0.677 -3.118,0.677 -1.092,0 -2.132,-0.227 -3.118,-0.677 C -14.248,8.447 -15.114,7.812 -15.859,6.993 -16.604,6.174 -17.197,5.171 -17.638,3.985 -18.08,2.798 -18.3,1.47 -18.3,0"
             style="fill:#7a918f;fill-opacity:1;fill-rule:nonzero;stroke:none"
             id="path258" />
        </g>
        <g
           id="g260"
           transform="translate(344.654,240.3443)">
          <path
             d="m 0,0 c 0,-3.15 -0.714,-5.444 -2.142,-6.882 -1.428,-1.439 -3.339,-2.159 -5.732,-2.159 -2.394,0 -4.305,0.72 -5.733,2.159 -1.428,1.438 -2.142,3.732 -2.142,6.882 v 13.008 h 1.858 V -0.535 c 0,-2.185 0.509,-3.88 1.529,-5.088 1.017,-1.208 2.513,-1.811 4.488,-1.811 1.973,0 3.469,0.603 4.488,1.811 1.018,1.208 1.528,2.903 1.528,5.088 V 13.008 H 0 Z"
             style="fill:#7a918f;fill-opacity:1;fill-rule:nonzero;stroke:none"
             id="path262" />
        </g>
        <g
           id="g264"
           transform="translate(350.7332,231.6191)">
          <path
             d="m 0,0 v 21.734 h 6.614 c 2.54,0 4.536,-0.515 5.985,-1.544 1.449,-1.029 2.173,-2.551 2.173,-4.567 0,-1.596 -0.462,-2.887 -1.386,-3.874 C 12.462,10.762 11.16,10.1 9.481,9.764 L 15.182,0 H 13.04 L 7.528,9.544 C 7.381,9.523 7.228,9.512 7.071,9.512 H 6.614 1.858 V 0 Z M 6.772,20.127 H 1.858 v -9.04 h 4.914 c 1.764,0 3.207,0.347 4.331,1.04 1.122,0.693 1.685,1.858 1.685,3.496 0,1.659 -0.563,2.824 -1.685,3.496 -1.124,0.672 -2.567,1.008 -4.331,1.008"
             style="fill:#7a918f;fill-opacity:1;fill-rule:nonzero;stroke:none"
             id="path266" />
        </g>
      </g>
    </g>
    <g
       id="g268"
       transform="translate(391.144,233.2255)">
      <path
         d="m 0,0 v -1.606 h -12.442 v 21.733 h 12.19 V 18.521 H -10.583 V 10.426 H -0.536 V 8.82 H -10.583 V 0 Z"
         style="fill:#7a918f;fill-opacity:1;fill-rule:nonzero;stroke:none"
         id="path270" />
    </g>
    <g
       id="g272"
       transform="translate(408.4992,233.2255)">
      <path
         d="m 0,0 v -1.606 h -12.316 v 21.733 h 1.859 V 0 Z"
         style="fill:#7a918f;fill-opacity:1;fill-rule:nonzero;stroke:none"
         id="path274" />
    </g>
    <g
       id="g276"
       transform="translate(424.4675,233.2255)">
      <path
         d="M 0,0 V -1.606 H -12.441 V 20.127 H -0.252 V 18.521 H -10.583 V 10.426 H -0.536 V 8.82 H -10.583 V 0 Z"
         style="fill:#7a918f;fill-opacity:1;fill-rule:nonzero;stroke:none"
         id="path278" />
    </g>
    <g
       id="g280"
       transform="translate(440.4366,231.7136)">
      <path
         d="M 0,0 7.213,21.639 H 10.93 V -0.094 H 9.071 V 21.545 L 1.89,-0.094 H -1.89 L -9.071,21.545 V -0.094 h -1.858 v 21.733 h 3.716 z"
         style="fill:#7a918f;fill-opacity:1;fill-rule:nonzero;stroke:none"
         id="path282" />
    </g>
    <g
       id="g284"
       transform="translate(470.1704,233.2255)">
      <path
         d="M 0,0 V -1.606 H -12.441 V 20.127 H -0.252 V 18.521 H -10.583 V 10.426 H -0.536 V 8.82 H -10.583 V 0 Z"
         style="fill:#7a918f;fill-opacity:1;fill-rule:nonzero;stroke:none"
         id="path286" />
    </g>
    <g
       id="g288"
       transform="translate(491.9033,253.3527)">
      <path
         d="m 0,0 v -21.734 h -3.842 l -10.993,21.64 v -21.64 h -1.858 V 0 h 3.842 L -1.858,-21.639 V 0 Z"
         style="fill:#7a918f;fill-opacity:1;fill-rule:nonzero;stroke:none"
         id="path290" />
    </g>
    <g
       id="g292"
       transform="translate(495.4315,251.7462)">
      <path
         d="M 0,0 V 1.607 H 17.008 V 0 H 9.417 V -20.127 H 7.591 V 0 Z"
         style="fill:#7a918f;fill-opacity:1;fill-rule:nonzero;stroke:none"
         id="path294" />
    </g>
    <g
       id="g296">
      <g
         id="g298"
         clip-path="url(#clipPath302)">
        <g
           id="g304"
           transform="translate(530.9291,237.32)">
          <path
             d="m 0,0 c 0,-1.89 -0.74,-3.365 -2.221,-4.425 -1.48,-1.061 -3.439,-1.591 -5.874,-1.591 -1.302,0 -2.478,0.216 -3.528,0.646 -1.05,0.43 -1.947,1.008 -2.693,1.732 -0.746,0.724 -1.338,1.569 -1.779,2.536 -0.442,0.965 -0.704,1.984 -0.788,3.055 h 1.89 c 0.063,-0.882 0.284,-1.712 0.661,-2.489 0.379,-0.776 0.871,-1.454 1.481,-2.031 0.609,-0.577 1.317,-1.029 2.126,-1.354 0.808,-0.326 1.664,-0.489 2.567,-0.489 1.764,0 3.228,0.362 4.394,1.087 1.166,0.725 1.748,1.832 1.748,3.323 0,1.05 -0.431,1.932 -1.291,2.646 -0.862,0.714 -2.111,1.281 -3.749,1.701 l -3.023,0.788 c -1.995,0.503 -3.539,1.185 -4.63,2.047 -1.093,0.86 -1.638,2.047 -1.638,3.559 0,0.776 0.183,1.512 0.551,2.204 0.367,0.694 0.876,1.287 1.527,1.78 0.651,0.493 1.428,0.887 2.331,1.182 0.903,0.293 1.89,0.44 2.961,0.44 2.436,0 4.383,-0.625 5.843,-1.873 1.459,-1.25 2.273,-2.883 2.441,-4.899 h -1.89 c -0.147,1.575 -0.777,2.83 -1.89,3.765 -1.113,0.934 -2.572,1.401 -4.378,1.401 -1.68,0 -3.019,-0.373 -4.016,-1.118 -0.998,-0.745 -1.496,-1.685 -1.496,-2.819 0,-1.029 0.425,-1.822 1.276,-2.378 0.85,-0.556 2.136,-1.056 3.858,-1.496 l 2.93,-0.756 C -4.179,5.628 -2.598,4.856 -1.56,3.858 -0.52,2.861 0,1.575 0,0"
             style="fill:#7a918f;fill-opacity:1;fill-rule:nonzero;stroke:none"
             id="path306" />
        </g>
        <g
           id="g308"
           transform="translate(139.7321,476.2487)">
          <path
             d="m 0,0 c -34.462,0 -67.378,-16.632 -87.026,-47.093 -30.04,-46.572 -18.341,-114.961 25.252,-147.617 19.935,-14.932 42.241,-22.323 65.328,-22.323 26.861,0 54.776,10.012 81.205,29.8 24.965,18.692 43.576,43.431 64.664,65.827 l 0.095,0.12 c 16.076,24.362 35.297,46.017 57.102,65.323 17.072,15.115 36.218,26.279 58.939,31.342 6.588,1.469 13.134,2.174 19.55,2.174 41.276,0 77.126,-29.191 83.877,-72.153 8.675,-55.2 -26.068,-103.496 -76.619,-108.066 -3.291,-0.297 -6.519,-0.441 -9.693,-0.441 -30.61,0 -55.961,13.392 -80.346,31.442 -15.582,11.534 -26.875,27.933 -43.476,38.144 -0.167,0.102 -0.338,0.148 -0.502,0.148 -0.693,0 -1.253,-0.812 -0.785,-1.498 21.692,-31.81 49.457,-56.918 84.588,-73.275 13.221,-6.156 27.362,-9.734 41.993,-9.734 2.735,0 5.489,0.126 8.255,0.382 64.91,6.024 107.639,63.747 95.746,129.138 -9.616,52.866 -53.933,88.157 -104.736,88.157 -9.46,0 -19.152,-1.226 -28.879,-3.789 -30.868,-8.134 -55.527,-26.193 -77.793,-48.131 -25.032,-24.665 -44.686,-53.891 -67.796,-80.18 -23.343,-26.554 -48.466,-51.198 -84.319,-59.73 -8.507,-2.025 -16.808,-3.072 -24.834,-3.072 -23.859,0 -45.258,9.261 -62.189,29.636 -24.356,29.312 -29.129,63.574 -14.952,98.702 13.184,32.669 39.506,49.249 74.479,52.173 2.978,0.249 5.896,0.369 8.77,0.369 35.851,-0.002 63.875,-18.8 90.007,-41.802 9.304,-8.189 18.119,-16.934 27.06,-25.535 0.201,-0.193 0.429,-0.275 0.65,-0.275 0.651,0 1.235,0.717 0.832,1.431 -14.473,25.636 -42.771,51.15 -71.541,66.771 C 35.929,-4.417 17.76,0 0,0"
             style="fill:#b3d9d9;fill-opacity:1;fill-rule:nonzero;stroke:none"
             id="path310" />
        </g>
        <g
           id="g312"
           transform="translate(167.0484,289.7889)">
          <path
             d="m 0,0 c -11.98,5.173 -20.515,13.016 -25.6,23.878 -2.585,5.603 -3.966,11.465 -4.138,17.671 0,3.966 0.087,6.896 0.345,8.792 1.292,9.655 4.74,17.758 10.431,24.482 3.877,4.568 8.532,8.103 13.619,10.603 30.17,15.86 68.185,-0.604 71.461,-37.671 L 54.652,48.101 -15.86,47.066 c 0.603,-16.378 9.655,-39.135 33.101,-46.721 3.88,-1.034 7.586,-1.552 11.292,-1.552 9.31,0 17.587,2.845 24.74,8.793 5.43,4.999 9.31,10.947 11.638,18.016 L 67.238,25.43 C 61.893,5.086 43.189,-4.655 24.656,-5.172 16.553,-5.172 8.363,-3.448 0,0 m 51.979,50.686 c -2.928,34.136 -31.375,49.221 -54.304,30.688 -3.88,-3.189 -6.898,-6.896 -9.052,-11.293 -3.018,-6.723 -4.396,-12.843 -4.396,-20.257 z"
             style="fill:#7a918f;fill-opacity:1;fill-rule:nonzero;stroke:none"
             id="path314" />
        </g>
        <g
           id="g316"
           transform="translate(428.4566,289.7889)">
          <path
             d="m 0,0 c -11.98,5.173 -20.515,13.016 -25.6,23.878 -2.585,5.603 -3.966,11.465 -4.138,17.671 0,3.966 0.087,6.896 0.345,8.792 1.292,9.655 4.74,17.758 10.431,24.482 3.877,4.568 8.532,8.103 13.619,10.603 30.17,15.86 68.185,-0.604 71.461,-37.671 L 54.652,48.101 -15.86,47.066 c 0.604,-16.378 9.655,-39.135 33.101,-46.721 3.88,-1.034 7.586,-1.552 11.292,-1.552 9.31,0 17.587,2.845 24.74,8.793 5.43,4.999 9.31,10.947 11.638,18.016 L 67.238,25.43 C 61.893,5.086 43.189,-4.655 24.656,-5.172 16.553,-5.172 8.364,-3.448 0,0 m 51.979,50.686 c -2.928,34.136 -31.375,49.221 -54.304,30.688 -3.88,-3.189 -6.898,-6.896 -9.051,-11.293 -3.019,-6.723 -4.397,-12.843 -4.397,-20.257 z"
             style="fill:#7a918f;fill-opacity:1;fill-rule:nonzero;stroke:none"
             id="path318" />
        </g>
        <g
           id="g320"
           transform="translate(137.8638,321.1299)">
          <path
             d="m 0,0 c -0.068,0.977 -0.036,1.96 0.082,2.931 h -36.15 L 55.133,128.44 H -48.825 l -7.415,-17.843 0.691,-0.26 c 4.051,9.57 13.964,14.656 29.911,15.258 H 34.961 L -56.24,0 Z"
             style="fill:#7a918f;fill-opacity:1;fill-rule:nonzero;stroke:none"
             id="path322" />
        </g>
        <g
           id="g324"
           transform="translate(410.4917,370.6095)">
          <path
             d="m 0,0 c -5.947,10.775 -19.223,17.844 -39.825,21.12 -9.914,1.982 -17.671,3.706 -23.359,5.171 -7.415,1.983 -13.449,4.568 -18.449,7.931 -4.739,3.448 -7.153,8.534 -7.328,15.257 0,5.948 2.415,11.292 7.328,15.861 8.018,7.327 18.275,10.949 30.861,10.949 13.016,0 25.257,-3.793 32.843,-11.38 3.448,-3.447 8.964,-8.275 15.256,-24.049 l 0.432,20.342 c 0,0 -7.844,8.017 -13.189,10.086 -7.412,4.57 -15.172,6.034 -23.188,7.068 -4.31,0.604 -8.619,1.035 -12.929,1.035 -7.844,0 -15.604,-1.12 -22.929,-3.189 -9.397,-2.586 -16.638,-7.155 -21.725,-13.706 -3.793,-5.345 -5.775,-11.293 -5.775,-18.016 0,-3.449 0.603,-6.81 1.723,-9.913 2.847,-7.328 7.76,-12.758 15.001,-16.378 4.397,-2.5 10.602,-4.655 18.275,-6.466 4.309,-0.948 8.361,-1.809 12.412,-2.586 3.793,-0.776 7.328,-1.551 10.862,-2.327 7.584,-1.638 14.482,-3.793 20.687,-6.637 6.207,-2.759 10.258,-6.379 12.069,-10.948 0.862,-2.241 1.292,-4.741 1.292,-7.5 -0.085,-3.792 -0.947,-7.24 -2.499,-10.344 -3.361,-5.948 -8.706,-10.516 -15.689,-13.619 -7.069,-3.19 -14.568,-4.741 -22.325,-4.741 -7.845,0 -17.93,1.465 -25.086,4.31 -6.369,2.501 -11.47,6.34 -15.597,11.1 -0.511,-0.065 -1.025,-0.109 -1.542,-0.109 h -10.224 c 1.248,-1.232 3.375,-3.195 4.521,-4.096 11.379,-8.964 26.635,-14.136 48.531,-14.136 13.446,0 25.083,2.5 34.825,7.586 8.62,4.741 14.31,11.636 16.722,20.602 0.778,2.93 1.12,6.033 1.12,9.05 C 3.102,-8.103 2.069,-3.879 0,0"
             style="fill:#7a918f;fill-opacity:1;fill-rule:nonzero;stroke:none"
             id="path326" />
        </g>
        <g
           id="g328"
           transform="translate(237.5009,381.2368)">
          <path
             d="m 0,0 c 3.816,0 6.332,-0.954 7.459,-2.862 1.128,-1.908 1.649,-2.255 1.649,-7.459 v -18.04 c 5.203,12.056 12.922,25.499 32.871,27.928 9.453,0.607 25.152,-2.255 33.564,-13.444 5.465,-7.285 7.373,-14.744 7.98,-24.545 l -0.087,-10.841 0.087,-29.576 c 1.128,-13.53 10.322,-13.01 13.183,-2.949 h 0.955 c -1.214,-7.546 -8.587,-14.918 -16.74,-14.831 -9.974,0.347 -12.576,9.194 -12.315,18.3 0,1.908 0,29.056 0.087,30.79 0.086,1.995 0.086,3.817 0.086,5.638 0,4.597 -0.261,9.194 -0.78,13.79 C 66.437,-16.392 59.412,-5.984 46.056,-4.423 26.367,-1.214 11.45,-20.469 9.194,-38.856 v -40.33 c 0.348,-6.418 1.734,-10.755 4.076,-13.097 2.342,-2.341 5.291,-3.556 8.76,-3.556 v -0.78 h -40.503 v 0.78 c 8.066,0 12.228,5.551 12.749,16.653 l 0.087,30.096 v 30.009 c 0,7.286 -1.215,12.056 -3.73,14.572 -2.515,2.514 -5.551,3.729 -9.106,3.729 V 0 Z"
             style="fill:#7a918f;fill-opacity:1;fill-rule:nonzero;stroke:none"
             id="path330" />
        </g>
      </g>
    </g>
    <text
       xml:space="preserve"
       transform="matrix(1,0,0,-1,110.6566,100.2592)"
       style="font-variant:normal;font-weight:normal;font-stretch:normal;font-size:38.4793px;font-family:'Karima For Personal Use Only';-inkscape-font-specification:KarimaForPersonalUseOnly;writing-mode:lr-tb;fill:#7a918f;fill-opacity:1;fill-rule:nonzero;stroke:none"
       id="text334"><tspan
         x="0 31.976297 56.680008 81.922432 108.85794 134.67755 142.91212 155.9566 182.23796 205.32555 218.37003 261.159 285.51642 306.91089 328.80563"
         y="0"
         sodipodi:role="line"
         id="tspan332">Manual de marca</tspan></text>
    <g
       id="g336">
      <g
         id="g338"
         clip-path="url(#clipPath342)">
        <g
           id="g344"
           transform="translate(102.7661,94.2441)">
          <path
             d="m 0,0 c 0.999,0.978 2.998,0.978 3.998,0 0.999,-0.978 2.998,-0.978 3.997,0 1,0.978 2.999,0.978 3.998,0 0.999,-0.978 2.998,-0.978 3.998,0 0.999,0.978 2.998,0.978 3.997,0 1,-0.978 2.999,-0.978 3.998,0 0.999,0.978 2.998,0.978 3.998,0 0.999,-0.978 2.998,-0.978 3.997,0 1,0.978 2.999,0.978 3.998,0 0.999,-0.978 2.998,-0.978 3.998,0 0.999,0.978 2.998,0.978 3.997,0 1,-0.978 2.999,-0.978 3.998,0 0.999,0.978 2.998,0.978 3.998,0 0.999,-0.978 2.998,-0.978 3.997,0 1,0.978 2.999,0.978 3.998,0 0.999,-0.978 2.998,-0.978 3.998,0 0.999,0.978 2.998,0.978 3.997,0 1,-0.978 2.998,-0.978 3.998,0 0.999,0.978 2.998,0.978 3.998,0 0.999,-0.978 2.998,-0.978 3.997,0 1,0.978 2.999,0.978 3.998,0 0.999,-0.978 2.998,-0.978 3.998,0 0.999,0.978 2.998,0.978 3.997,0 1,-0.978 2.998,-0.978 3.998,0 0.999,0.978 2.998,0.978 3.998,0 0.999,-0.978 2.998,-0.978 3.997,0 1,0.978 2.998,0.978 3.998,0 0.999,-0.978 2.998,-0.978 3.998,0 0.999,0.978 2.998,0.978 3.997,0 1,-0.978 2.998,-0.978 3.998,0 0.999,0.978 2.998,0.978 3.998,0 0.999,-0.978 2.998,-0.978 3.997,0 1,0.978 2.998,0.978 3.998,0 0.999,-0.978 2.998,-0.978 3.998,0 0.999,0.978 2.998,0.978 3.997,0 1,-0.978 2.998,-0.978 3.998,0 0.999,0.978 2.998,0.978 3.998,0 0.999,-0.978 2.998,-0.978 3.997,0 1,0.978 2.998,0.978 3.998,0 0.999,-0.978 2.998,-0.978 3.998,0 0.999,0.978 2.998,0.978 3.997,0 1,-0.978 2.998,-0.978 3.998,0 0.999,0.978 2.998,0.978 3.998,0 0.999,-0.978 2.998,-0.978 3.997,0 1,0.978 2.998,0.978 3.998,0 0.999,-0.978 2.998,-0.978 3.998,0 0.999,0.978 2.998,0.978 3.997,0 1,-0.978 2.998,-0.978 3.998,0 0.999,0.978 2.998,0.978 3.997,0 1,-0.978 2.999,-0.978 3.998,0 1,0.978 2.998,0.978 3.998,0 0.999,-0.978 2.998,-0.978 3.997,0 1,0.978 2.999,0.978 3.998,0 1,-0.978 2.998,-0.978 3.998,0 0.999,0.978 2.998,0.978 3.997,0 1,-0.978 2.999,-0.978 3.998,0 1,0.978 2.998,0.978 3.998,0 0.999,-0.978 2.998,-0.978 3.997,0 1,0.978 2.999,0.978 3.998,0 1,-0.978 2.998,-0.978 3.998,0 0.999,0.978 2.998,0.978 3.997,0 1,-0.978 2.999,-0.978 3.998,0 1,0.978 2.998,0.978 3.998,0 0.999,-0.978 2.998,-0.978 3.997,0 1,0.978 2.999,0.978 3.998,0 1,-0.978 2.998,-0.978 3.998,0 0.999,0.978 2.998,0.978 3.997,0 1,-0.978 2.999,-0.978 3.998,0 1,0.978 2.998,0.978 3.998,0 0.999,-0.978 2.998,-0.978 3.997,0 1,0.978 2.999,0.978 3.998,0 0.999,-0.978 2.998,-0.978 3.998,0 0.999,0.978 2.998,0.978 3.997,0 1,-0.978 2.999,-0.978 3.998,0 1,0.978 2.998,0.978 3.998,0 0.999,-0.978 2.998,-0.978 3.997,0 1,0.978 2.999,0.978 3.998,0 0.999,-0.978 2.998,-0.978 3.998,0 0.999,0.978 2.998,0.978 3.997,0 1,-0.978 2.999,-0.978 3.998,0 0.999,0.978 2.998,0.978 3.998,0 0.999,-0.978 2.998,-0.978 3.997,0 1,0.978 2.999,0.978 3.998,0 0.999,-0.978 2.998,-0.978 3.998,0 0.999,0.978 2.998,0.978 3.997,0 1,-0.978 2.999,-0.978 3.998,0 0.999,0.978 2.998,0.978 3.998,0 0.999,-0.978 2.998,-0.978 3.997,0 1,0.978 2.999,0.978 3.998,0 0.999,-0.978 2.998,-0.978 3.998,0 0.999,0.978 2.998,0.978 3.997,0 1,-0.978 2.999,-0.978 3.998,0"
             style="fill:none;stroke:#b3d9d9;stroke-width:0.53;stroke-linecap:butt;stroke-linejoin:miter;stroke-miterlimit:10;stroke-dasharray:none;stroke-opacity:1"
             id="path346" />
        </g>
      </g>
    </g>
  </g>
</svg>
