<?xml version="1.0" encoding="UTF-8" standalone="no"?>
<!-- Created with Inkscape (http://www.inkscape.org/) -->

<svg
   width="230mm"
   height="230mm"
   viewBox="0 0 230 230"
   version="1.1"
   id="svg5"
   xml:space="preserve"
   inkscape:export-filename="Rastergrafik.svg"
   inkscape:export-xdpi="96"
   inkscape:export-ydpi="96"
   sodipodi:docname="LogoEZ300.svg"
   inkscape:version="1.2.2 (b0a8486, 2022-12-01)"
   xmlns:inkscape="http://www.inkscape.org/namespaces/inkscape"
   xmlns:sodipodi="http://sodipodi.sourceforge.net/DTD/sodipodi-0.dtd"
   xmlns="http://www.w3.org/2000/svg"
   xmlns:svg="http://www.w3.org/2000/svg"><sodipodi:namedview
     id="namedview7"
     pagecolor="#ffffff"
     bordercolor="#000000"
     borderopacity="0.25"
     inkscape:showpageshadow="2"
     inkscape:pageopacity="0.0"
     inkscape:pagecheckerboard="false"
     inkscape:deskcolor="#d1d1d1"
     inkscape:document-units="mm"
     showgrid="false"
     inkscape:zoom="1.0387772"
     inkscape:cx="404.80289"
     inkscape:cy="392.76951"
     inkscape:window-width="1920"
     inkscape:window-height="1080"
     inkscape:window-x="0"
     inkscape:window-y="0"
     inkscape:window-maximized="0"
     inkscape:current-layer="layer1" /><defs
     id="defs2"><rect
       x="275.96829"
       y="379.14563"
       width="451.24545"
       height="134.25485"
       id="rect13896" /><filter
       style="color-interpolation-filters:sRGB"
       inkscape:label="Duochrome"
       id="filter18896"
       x="0"
       y="0"
       width="1"
       height="1"><feColorMatrix
         type="luminanceToAlpha"
         result="colormatrix1"
         id="feColorMatrix18876" /><feFlood
         flood-opacity="1"
         flood-color="rgb(81,81,245)"
         result="flood1"
         id="feFlood18878" /><feComposite
         in2="colormatrix1"
         operator="out"
         result="composite1"
         id="feComposite18880" /><feFlood
         flood-opacity="1"
         flood-color="rgb(255,255,0)"
         result="flood2"
         id="feFlood18882" /><feComposite
         in2="colormatrix1"
         result="composite2"
         operator="in"
         id="feComposite18884" /><feComposite
         in="composite2"
         in2="composite1"
         k2="1"
         k3="1"
         operator="arithmetic"
         result="composite3"
         id="feComposite18886"
         k1="0"
         k4="0" /><feColorMatrix
         in="composite3"
         type="matrix"
         values="2 -1 0 0 0 0 2 -1 0 0 -1 0 2 0 0 0 0 0 1 0 "
         result="colormatrix2"
         id="feColorMatrix18888" /><feComposite
         in="colormatrix2"
         in2="composite3"
         operator="arithmetic"
         k2="0"
         result="composite4"
         id="feComposite18890"
         k1="0"
         k3="0"
         k4="0" /><feBlend
         in="composite4"
         in2="composite3"
         mode="normal"
         result="blend"
         id="feBlend18892" /><feComposite
         in2="SourceGraphic"
         operator="in"
         id="feComposite18894"
         result="fbSourceGraphic" /><feColorMatrix
         result="fbSourceGraphicAlpha"
         in="fbSourceGraphic"
         values="0 0 0 -1 0 0 0 0 -1 0 0 0 0 -1 0 0 0 0 1 0"
         id="feColorMatrix18898" /><feColorMatrix
         id="feColorMatrix18900"
         type="luminanceToAlpha"
         result="colormatrix1"
         in="fbSourceGraphic" /><feFlood
         id="feFlood18902"
         flood-opacity="1"
         flood-color="rgb(81,81,245)"
         result="flood1" /><feComposite
         in2="colormatrix1"
         id="feComposite18904"
         operator="out"
         result="composite1" /><feFlood
         id="feFlood18906"
         flood-opacity="1"
         flood-color="rgb(255,255,0)"
         result="flood2" /><feComposite
         in2="colormatrix1"
         id="feComposite18908"
         result="composite2"
         operator="in" /><feComposite
         in2="composite1"
         id="feComposite18910"
         in="composite2"
         k2="1"
         k3="1"
         operator="arithmetic"
         result="composite3"
         k1="0"
         k4="0" /><feColorMatrix
         id="feColorMatrix18912"
         in="composite3"
         type="matrix"
         values="2 -1 0 0 0 0 2 -1 0 0 -1 0 2 0 0 0 0 0 1 0 "
         result="colormatrix2" /><feComposite
         in2="composite3"
         id="feComposite18914"
         in="colormatrix2"
         operator="arithmetic"
         k2="0"
         result="composite4"
         k1="0"
         k3="0"
         k4="0" /><feBlend
         in2="composite3"
         id="feBlend18916"
         in="composite4"
         mode="normal"
         result="blend" /><feComposite
         in2="fbSourceGraphic"
         id="feComposite18918"
         operator="in" /></filter></defs><g
     inkscape:label="Ebene 1"
     inkscape:groupmode="layer"
     id="layer1"
     transform="translate(-10.891758,-6.3111862)"><g
       inkscape:label="Ebene 1"
       id="layer1-0"
       transform="matrix(1.1,0,0,1.1,7.9272725,5.10024)"><g
         id="g12973"
         transform="matrix(0.04937418,0.96624849,-1.2830675,0.0017466,252.54974,-4.1921778)"><g
           id="g332"
           transform="matrix(1.288296,0,0,1.1082554,-17.294681,65.82072)"
           style="display:inline"><path
             style="display:inline;fill:none;stroke-width:0.264583"
             d="m 66.120577,99.218461 c 0.842058,-0.05267 2.151746,-0.05218 2.910417,0.0011 0.758671,0.05326 0.06971,0.09635 -1.531015,0.09575 -1.600729,-5.29e-4 -2.22146,-0.04417 -1.379402,-0.09684 z m 64.284083,0.01343 c 0.25467,-0.06655 0.67138,-0.06655 0.92605,0 0.25466,0.06655 0.0463,0.121002 -0.46302,0.121002 -0.50933,0 -0.71769,-0.05445 -0.46303,-0.121002 z m 5.16246,-0.0047 c 0.32912,-0.06329 0.80537,-0.06088 1.05834,0.0053 0.25296,0.06622 -0.0163,0.118004 -0.5984,0.115067 -0.58208,-0.0029 -0.78905,-0.05712 -0.45994,-0.120407 z m -72.234328,-0.25269 c 0.181901,-0.0734 0.479557,-0.0734 0.661458,0 0.181901,0.0734 0.03307,0.133453 -0.330729,0.133453 -0.363802,0 -0.51263,-0.06006 -0.330729,-0.133453 z m 7.672916,0 c 0.181901,-0.0734 0.479557,-0.0734 0.661458,0 0.181901,0.0734 0.03307,0.133453 -0.330729,0.133453 -0.363802,0 -0.51263,-0.06006 -0.330729,-0.133453 z m 57.679162,0 c 0.1819,-0.0734 0.47956,-0.0734 0.66146,0 0.1819,0.0734 0.0331,0.133453 -0.33073,0.133453 -0.3638,0 -0.51263,-0.06006 -0.33073,-0.133453 z m 8.73125,0 c 0.1819,-0.0734 0.47956,-0.0734 0.66146,0 0.1819,0.0734 0.0331,0.133453 -0.33073,0.133453 -0.3638,0 -0.51263,-0.06006 -0.33073,-0.133453 z M 72.609745,98.704368 c 0.190996,-0.07643 0.419199,-0.06703 0.507118,0.02088 0.08792,0.08792 -0.06835,0.150452 -0.347266,0.138964 -0.308224,-0.0127 -0.370919,-0.07539 -0.159852,-0.159851 z M 140.5199,98.116326 c 1.16138,-0.431622 2.15186,-0.744505 2.20107,-0.695293 0.11821,0.118213 -2.6319,1.143101 -3.57428,1.332032 -0.40611,0.08142 0.21184,-0.205113 1.37321,-0.636739 z m -66.669921,0.239615 c 0.291042,-0.125066 0.70776,-0.227391 0.926042,-0.227391 0.250158,0 0.201252,0.08406 -0.132292,0.227391 -0.291042,0.125066 -0.707761,0.227391 -0.926042,0.227391 -0.250158,0 -0.201252,-0.08406 0.132292,-0.227391 z M 59.165604,97.826774 c -0.218281,-0.141065 -0.277812,-0.256479 -0.132291,-0.256479 0.14552,0 0.443177,0.115414 0.661458,0.256479 0.218281,0.141065 0.277812,0.256479 0.132292,0.256479 -0.145521,0 -0.443177,-0.115414 -0.661459,-0.256479 z m 16.404166,0.04464 c 0.218282,-0.134866 0.694532,-0.324829 1.058334,-0.422143 0.459708,-0.122965 0.540409,-0.102137 0.264583,0.06828 -0.218281,0.134866 -0.694531,0.324829 -1.058333,0.422143 -0.459708,0.122965 -0.540409,0.102137 -0.264584,-0.06828 z m 48.41875,-0.309221 c -0.21828,-0.141065 -0.27781,-0.256479 -0.13229,-0.256479 0.14552,0 0.44317,0.115414 0.66146,0.256479 0.21828,0.141065 0.27781,0.256479 0.13229,0.256479 -0.14552,0 -0.44318,-0.115414 -0.66146,-0.256479 z m -46.0375,-0.661458 c 0.363802,-0.207968 0.780521,-0.378124 0.926042,-0.378124 0.145521,0 -0.03307,0.170156 -0.396875,0.378124 -0.363802,0.207967 -0.780521,0.378124 -0.926042,0.378124 -0.14552,0 0.03307,-0.170157 0.396875,-0.378124 z m 65.0875,0.275338 c 0,-0.07276 0.47625,-0.375256 1.05833,-0.672213 0.58208,-0.296958 1.05833,-0.480391 1.05833,-0.407631 0,0.07276 -0.47625,0.375256 -1.05833,0.672214 -0.58208,0.296958 -1.05833,0.480391 -1.05833,0.40763 z M 121.60727,96.50386 c -0.50932,-0.278842 -0.80698,-0.506987 -0.66146,-0.506987 0.14552,0 0.6813,0.228145 1.19063,0.506987 0.50932,0.278841 0.80697,0.506986 0.66145,0.506986 -0.14552,0 -0.6813,-0.228145 -1.19062,-0.506986 z M 54.898522,95.51167 c -0.329107,-0.419645 -0.319749,-0.429003 0.0999,-0.0999 0.254661,0.199721 0.463021,0.40808 0.463021,0.463021 0,0.217762 -0.217272,0.0776 -0.562916,-0.363125 z m 10.159097,0.279667 c 0.257431,-0.06708 0.614618,-0.06267 0.79375,0.0098 0.179131,0.07248 -0.03149,0.127363 -0.468057,0.121971 -0.436562,-0.0054 -0.583124,-0.06469 -0.325693,-0.131774 z m 54.366841,-0.363828 c -0.54571,-0.288087 -0.99219,-0.582899 -0.99219,-0.65514 0,-0.07224 0.47625,0.111614 1.05833,0.408572 0.58209,0.296958 1.05834,0.597032 1.05834,0.666835 0,0.173082 -0.002,0.172389 -1.12448,-0.420267 z m 25.99531,0.465008 c 0,-0.06165 0.50601,-0.445815 1.12448,-0.8537 0.61846,-0.407884 0.9848,-0.572534 0.81409,-0.365887 -0.32827,0.397362 -1.93857,1.410431 -1.93857,1.219587 z M 61.216125,95.534879 c 0.181901,-0.0734 0.479557,-0.0734 0.661458,0 0.181901,0.0734 0.03307,0.133453 -0.330729,0.133453 -0.363802,0 -0.51263,-0.06006 -0.330729,-0.133453 z m 7.408333,0 c 0.181901,-0.0734 0.479557,-0.0734 0.661459,0 0.181901,0.0734 0.03307,0.133453 -0.33073,0.133453 -0.363802,0 -0.51263,-0.06006 -0.330729,-0.133453 z m 12.236979,0.05653 c 0,-0.07276 0.357187,-0.317 0.79375,-0.542756 0.436562,-0.225756 0.79375,-0.350933 0.79375,-0.278172 0,0.07276 -0.357188,0.317 -0.79375,0.542756 -0.436563,0.225755 -0.79375,0.350932 -0.79375,0.278172 z m -20.687109,-0.32662 c 0.190996,-0.07643 0.419199,-0.06703 0.507118,0.02087 0.08792,0.08792 -0.06835,0.150453 -0.347265,0.138965 -0.308225,-0.0127 -0.37092,-0.07539 -0.159853,-0.159851 z m 9.789583,0 c 0.190996,-0.07643 0.419199,-0.06703 0.507118,0.02087 0.08792,0.08792 -0.06835,0.150453 -0.347265,0.138965 -0.308225,-0.0127 -0.37092,-0.07539 -0.159853,-0.159851 z m 2.38125,-0.529167 c 0.190996,-0.07643 0.419199,-0.06703 0.507118,0.02088 0.08792,0.08792 -0.06835,0.150452 -0.347265,0.138964 -0.308225,-0.0127 -0.37092,-0.07539 -0.159853,-0.159851 z M 82.71352,94.538101 c 0,-0.07276 0.238125,-0.259733 0.529167,-0.415493 0.291042,-0.155761 0.529167,-0.223671 0.529167,-0.150911 0,0.07276 -0.238125,0.259734 -0.529167,0.415494 -0.291042,0.15576 -0.529167,0.223671 -0.529167,0.15091 z m 34.32496,-0.557323 c -0.5431,-0.369049 -0.98746,-0.727925 -0.98746,-0.797505 0,-0.06958 0.47625,0.188661 1.05833,0.573866 0.92423,0.611624 1.23661,0.894635 0.98746,0.894635 -0.039,0 -0.51523,-0.301948 -1.05833,-0.670996 z m -64.507484,-0.321191 -0.641433,-0.727605 0.727604,0.641433 c 0.400182,0.35279 0.727604,0.680212 0.727604,0.727604 0,0.207507 -0.214259,0.03862 -0.813775,-0.641432 z m 3.311741,0.316132 c -0.484269,-0.387977 -0.475826,-0.393486 0.147867,-0.09645 0.809898,0.385712 0.959998,0.507923 0.623834,0.507923 -0.141961,0 -0.489227,-0.185161 -0.771701,-0.411473 z m 72.858673,0.230732 c 0.19099,-0.07643 0.4192,-0.06703 0.50712,0.02088 0.0879,0.08792 -0.0684,0.150453 -0.34727,0.138964 -0.30822,-0.0127 -0.37092,-0.07539 -0.15985,-0.15985 z m 6.35,0 c 0.19099,-0.07643 0.4192,-0.06703 0.50712,0.02088 0.0879,0.08792 -0.0683,0.150453 -0.34727,0.138964 -0.30822,-0.0127 -0.37092,-0.07539 -0.15985,-0.15985 z m 14.38785,-1.551408 c 0.9738,-1.011849 2.01163,-2.137383 2.30631,-2.501186 0.29467,-0.363802 0.53972,-0.57909 0.54456,-0.478416 0.0139,0.289025 -2.39655,2.946728 -3.56307,3.928559 -0.58208,0.489924 -0.26159,0.06289 0.7122,-0.948957 z m -74.663239,1.363581 c 0,-0.05719 0.184777,-0.17489 0.410617,-0.261554 0.235458,-0.09035 0.341662,-0.046 0.248968,0.103984 -0.15538,0.251409 -0.659585,0.371858 -0.659585,0.15757 z m 52.602469,-0.07676 c 0.191,-0.07643 0.4192,-0.06703 0.50712,0.02088 0.0879,0.08792 -0.0683,0.150452 -0.34726,0.138964 -0.30823,-0.0127 -0.37092,-0.07539 -0.15986,-0.159851 z m 8.99584,0 c 0.19099,-0.07643 0.4192,-0.06703 0.50711,0.02088 0.0879,0.08792 -0.0684,0.150452 -0.34726,0.138964 -0.30823,-0.0127 -0.37092,-0.07539 -0.15985,-0.159851 z M 84.681237,93.274353 c 2.230379,-1.742061 6.229363,-4.649369 6.094071,-4.430461 -0.207862,0.336325 -3.891288,3.113606 -5.548246,4.18334 -0.727604,0.469742 -0.973225,0.580949 -0.545825,0.247121 z m -30.143968,0.05753 c -0.09269,-0.149982 0.01351,-0.194336 0.248969,-0.103984 0.458368,0.175892 0.542233,0.365538 0.161648,0.365538 -0.136933,0 -0.32171,-0.1177 -0.410617,-0.261554 z M 76.628104,93.22487 c 0,-0.05719 0.184777,-0.17489 0.410617,-0.261554 0.235458,-0.09035 0.341662,-0.046 0.248968,0.103984 -0.155379,0.251409 -0.659585,0.371858 -0.659585,0.15757 z m 1.516943,-0.722599 c 0.179478,-0.180821 0.39297,-0.262114 0.474433,-0.180652 0.08146,0.08146 -0.06538,0.229407 -0.326319,0.328766 -0.377084,0.143584 -0.407474,0.113194 -0.148114,-0.148114 z m -26.733171,-1.42819 c -0.974199,-0.803566 -1.771271,-1.522283 -1.771271,-1.597147 0,-0.07486 0.74414,0.476893 1.653645,1.226132 1.956364,1.611625 2.199711,1.832041 2.022626,1.832041 -0.07355,0 -0.9308,-0.657463 -1.905,-1.461026 z m 13.309978,1.281697 c -0.363802,-0.059 -0.899583,-0.213325 -1.190625,-0.34295 -0.291041,-0.129625 -1.005416,-0.431226 -1.5875,-0.670224 -4.02614,-1.653096 -6.196514,-3.655208 -8.961069,-8.266351 -0.109057,-0.181901 -0.147549,-0.330729 -0.08554,-0.330729 0.06201,0 0.44354,0.499862 0.847842,1.110803 2.518482,3.805685 6.960877,6.985553 10.741237,7.688585 0.857213,0.159414 1.558407,0.358127 1.558209,0.441585 -1.98e-4,0.08345 0.62488,0.11367 1.389063,0.06715 0.764182,-0.04652 1.687079,0.03522 2.050881,0.181665 0.512592,0.206335 0.125539,0.261922 -1.719792,0.246997 -1.309687,-0.01058 -2.678906,-0.06753 -3.042708,-0.126527 z m 49.212496,-0.646716 c -0.92209,-0.808344 -0.9224,-0.809392 -0.0741,-0.245147 0.46854,0.311666 0.92205,0.680183 1.0078,0.818928 0.25523,0.412975 0.0436,0.28289 -0.93366,-0.573781 z m 27.03154,0.297067 c 0.0558,-0.167452 0.15804,-0.267423 0.22716,-0.222155 0.0691,0.04527 0.59324,-0.206669 1.16471,-0.559856 0.57147,-0.353184 0.95034,-0.498652 0.84194,-0.32326 -0.27635,0.447151 -2.35772,1.476994 -2.23381,1.105271 z M 71.204146,91.612656 c 0.873125,-0.193167 1.944687,-0.488847 2.38125,-0.657069 0.436562,-0.168219 0.674687,-0.190111 0.529166,-0.04865 -0.371195,0.360847 -3.000964,1.103265 -3.818334,1.077965 -0.373771,-0.01157 0.03479,-0.17908 0.907918,-0.37225 z m 60.394224,-0.05843 c 0.32912,-0.06328 0.80537,-0.06088 1.05834,0.0053 0.25296,0.06622 -0.0163,0.118004 -0.5984,0.115067 -0.58208,-0.0029 -0.78905,-0.05712 -0.45994,-0.120406 z m 4.36758,0.0038 c 0.25743,-0.06708 0.61462,-0.06267 0.79375,0.0098 0.17913,0.07248 -0.0315,0.127362 -0.46806,0.12197 -0.43656,-0.0054 -0.58312,-0.06469 -0.32569,-0.131773 z m -86.218192,-0.67655 -0.504028,-0.595313 0.595312,0.504029 c 0.559447,0.473662 0.715762,0.686596 0.504028,0.686596 -0.05021,0 -0.318097,-0.26789 -0.595312,-0.595312 z m 89.057432,0.229296 c 0,-0.05579 0.23828,-0.163746 0.52953,-0.239909 0.29124,-0.07616 0.46281,-0.03052 0.38126,0.101434 -0.14242,0.230428 -0.91079,0.347249 -0.91079,0.138475 z m -10.58334,-0.427734 c -0.21828,-0.141065 -0.27781,-0.256479 -0.13229,-0.256479 0.14552,0 0.44318,0.115414 0.66146,0.256479 0.21828,0.141065 0.27781,0.256479 0.13229,0.256479 -0.14552,0 -0.44318,-0.115414 -0.66146,-0.256479 z M 74.533486,90.59555 c 0.394601,-0.313102 3.682118,-2.029841 3.682118,-1.922798 0,0.165931 -3.280146,2.010272 -3.575253,2.010272 -0.119409,0 -0.167499,-0.03936 -0.106865,-0.08747 z m 37.391354,-0.507838 -0.50403,-0.595313 0.59531,0.504029 c 0.55945,0.473662 0.71576,0.686596 0.50403,0.686596 -0.0502,0 -0.3181,-0.26789 -0.59531,-0.595312 z m 7.00285,0.132291 c -0.32911,-0.419645 -0.31975,-0.429003 0.0999,-0.0999 0.25466,0.199721 0.46302,0.40808 0.46302,0.463021 0,0.217763 -0.21727,0.0776 -0.56291,-0.363125 z m 7.64052,-0.348744 c -0.54571,-0.288087 -0.99219,-0.582899 -0.99219,-0.65514 0,-0.07224 0.47625,0.111614 1.05833,0.408572 0.58209,0.296958 1.05834,0.597032 1.05834,0.666834 0,0.173083 -0.002,0.17239 -1.12448,-0.420266 z m 15.81613,-0.394396 c 2.81835,-1.697125 4.31312,-3.182607 6.67885,-6.637351 0.28115,-0.41057 0.28502,-0.382664 0.0237,0.170595 -1.19443,2.528356 -3.8429,5.323232 -6.21766,6.561352 -2.16443,1.128467 -2.42993,1.076667 -0.48485,-0.0946 z m -24.78266,-0.132459 -0.62462,-0.544869 0.7276,0.443008 c 0.40019,0.243654 0.72761,0.488846 0.72761,0.544869 0,0.206597 -0.22106,0.08869 -0.83059,-0.443008 z m -7.38574,-0.711901 -0.9118,-0.992187 0.99219,0.911799 c 0.92351,0.84868 1.11384,1.072576 0.9118,1.072576 -0.0442,0 -0.4907,-0.446485 -0.99219,-0.992188 z m 42.63175,-0.198437 c 0.32684,-0.582084 0.70788,-1.177396 0.84673,-1.322917 0.3962,-0.415216 -0.5099,1.260943 -1.00121,1.852083 -0.24188,0.291042 -0.17237,0.05292 0.15448,-0.529166 z m -28.21329,0.249986 c -0.49319,-0.395126 -0.48994,-0.40001 0.0817,-0.122981 0.32742,0.158668 0.59532,0.343829 0.59532,0.41147 0,0.202464 -0.13722,0.143996 -0.67704,-0.288489 z M 48.813106,88.36792 c -0.329108,-0.419645 -0.319749,-0.429003 0.09989,-0.0999 0.254662,0.199721 0.463021,0.40808 0.463021,0.463021 0,0.217762 -0.217272,0.07761 -0.562915,-0.363125 z m 29.799373,0.01328 c 0.145521,-0.144532 1.274199,-1.021604 2.50817,-1.949053 3.335028,-2.506592 5.548987,-4.451115 9.681165,-8.502979 2.04747,-2.007674 3.820604,-3.650316 3.940302,-3.650316 0.357764,0 -6.136979,6.340253 -8.985888,8.772136 -3.005288,2.565374 -8.451193,6.628763 -7.143749,5.330212 z M 91.44477,88.253236 c 0.622922,-0.671414 5.63948,-4.798102 5.439598,-4.474683 -0.152959,0.247491 -3.674351,3.228424 -5.307306,4.492746 -0.485447,0.37586 -0.496377,0.374367 -0.132292,-0.01807 z m 24.5725,-0.149899 c -0.32911,-0.419645 -0.31975,-0.429004 0.0999,-0.0999 0.25466,0.19972 0.46302,0.40808 0.46302,0.46302 0,0.217763 -0.21728,0.07761 -0.56292,-0.363124 z m -9.10058,-2.513542 -2.11046,-2.182813 2.18281,2.11046 c 1.20055,1.160754 2.18281,2.143019 2.18281,2.182812 0,0.192974 -0.29503,-0.08313 -2.25516,-2.110459 z m 8.04225,1.719792 c -0.32911,-0.419645 -0.31975,-0.429004 0.0999,-0.0999 0.44073,0.345643 0.58089,0.562916 0.36313,0.562916 -0.0549,0 -0.2633,-0.208359 -0.46302,-0.46302 z m -2.23186,-1.984375 -0.7771,-0.859896 0.85989,0.777105 c 0.80155,0.724371 0.98152,0.942686 0.77711,0.942686 -0.0455,0 -0.43249,-0.386953 -0.8599,-0.859895 z m 41.57324,0.517755 c 0.0994,-0.260938 0.2473,-0.407781 0.32877,-0.326319 0.0815,0.08146 1.7e-4,0.294955 -0.18066,0.474433 -0.2613,0.25936 -0.29169,0.22897 -0.14811,-0.148114 z m -35.7524,-1.840672 -0.77711,-0.859896 0.8599,0.777105 c 0.80154,0.724371 0.98151,0.942687 0.7771,0.942687 -0.0455,0 -0.43249,-0.386953 -0.85989,-0.859896 z m -27.632317,-0.03375 c 0,-0.05494 0.20836,-0.2633 0.463021,-0.463021 0.419645,-0.329107 0.429003,-0.319749 0.0999,0.0999 -0.345643,0.44073 -0.562917,0.580887 -0.562917,0.363125 z m -2.38125,-0.264584 c 0,-0.05494 0.20836,-0.2633 0.463021,-0.46302 0.419645,-0.329108 0.429004,-0.319749 0.0999,0.0999 -0.345643,0.440729 -0.562917,0.580887 -0.562917,0.363124 z m 9.778526,-1.289166 c 1.096423,-1.168186 1.333974,-1.378238 1.333974,-1.179568 0,0.04246 -0.565547,0.60801 -1.256771,1.256771 l -1.256771,1.179568 z m 5.720581,0.562247 c -0.27951,-0.271679 -0.44745,-0.554704 -0.37321,-0.628946 0.0742,-0.07424 0.35181,0.104603 0.61681,0.397428 0.62249,0.687837 0.42194,0.878433 -0.2436,0.231518 z M 92.899978,82.216357 c 0.26339,-0.291041 0.538422,-0.529166 0.611182,-0.529166 0.07276,0 -0.08321,0.238125 -0.346598,0.529166 -0.26339,0.291042 -0.538422,0.529167 -0.611183,0.529167 -0.07276,0 0.08321,-0.238125 0.346599,-0.529167 z M 52.315836,81.657793 c -0.163002,-0.467588 -0.250065,-0.896464 -0.193474,-0.953053 0.05659,-0.05659 0.236259,0.279678 0.399261,0.747265 0.163002,0.467588 0.250065,0.896464 0.193474,0.953053 -0.05659,0.05659 -0.236259,-0.279678 -0.399261,-0.747265 z m 97.072684,0.309597 c 0,-0.136933 0.1177,-0.321712 0.26155,-0.410618 0.14998,-0.09269 0.19434,0.01352 0.10399,0.248968 -0.1759,0.458369 -0.36554,0.542234 -0.36554,0.16165 z M 91.047895,81.422607 c 0.26339,-0.291041 0.538422,-0.529166 0.611182,-0.529166 0.07276,0 -0.08321,0.238125 -0.346599,0.529166 -0.26339,0.291042 -0.538421,0.529167 -0.611182,0.529167 -0.07276,0 0.08321,-0.238125 0.346599,-0.529167 z m 11.230545,-0.46302 -0.9118,-0.992188 0.99219,0.911799 c 0.92351,0.84868 1.11384,1.072576 0.9118,1.072576 -0.0442,0 -0.4907,-0.446484 -0.99219,-0.992187 z m 4.63825,-1.190625 -2.11046,-2.182813 2.18281,2.11046 c 1.20055,1.160753 2.18281,2.143019 2.18281,2.182812 0,0.192974 -0.29503,-0.08313 -2.25516,-2.110459 z m -11.370878,0.06614 c 0.568388,-0.582083 1.092967,-1.058333 1.165727,-1.058333 0.07276,0 -0.332756,0.47625 -0.901144,1.058333 -0.568389,0.582084 -1.092967,1.058334 -1.165728,1.058334 -0.07276,0 0.332756,-0.47625 0.901145,-1.058334 z m -2.38125,-0.264583 c 0.568388,-0.582083 1.092967,-1.058333 1.165727,-1.058333 0.07276,0 -0.332756,0.47625 -0.901144,1.058333 -0.568389,0.582083 -1.092967,1.058333 -1.165728,1.058333 -0.07276,0 0.332756,-0.47625 0.901145,-1.058333 z m -41.520684,0.113393 c -0.09732,-0.38775 -0.125917,-0.756026 -0.06355,-0.818394 0.06237,-0.06236 0.193018,0.203859 0.290337,0.591609 0.09732,0.387749 0.125917,0.756025 0.06355,0.818393 -0.06237,0.06236 -0.193017,-0.203859 -0.290337,-0.591608 z m 48.267558,-1.304018 c -0.64268,-0.654844 -1.108979,-1.190625 -1.036219,-1.190625 0.07276,0 0.658122,0.535781 1.300803,1.190625 0.64268,0.654844 1.10898,1.190625 1.03622,1.190625 -0.0728,0 -0.65812,-0.535781 -1.300804,-1.190625 z M 50.875267,78.137295 c -0.09534,-0.695569 -0.104853,-1.580378 -0.02114,-1.966243 0.118045,-0.544135 0.08893,-0.612508 -0.129733,-0.304695 -0.218918,0.308169 -0.283202,0.160327 -0.287614,-0.661458 -0.0031,-0.582083 -0.192126,-1.415521 -0.420003,-1.852083 -1.05306,-2.017438 -1.434502,-3.79752 -1.434502,-6.694432 0,-2.366407 0.06949,-2.874667 0.393042,-2.874667 0.216172,0 0.4639,0.223259 0.550505,0.496129 0.106905,0.336825 0.31367,0.446548 0.643953,0.34172 0.339039,-0.107606 0.538457,0.0093 0.657949,0.385818 0.0943,0.297121 0.269201,0.540223 0.388661,0.540223 0.11946,0 0.68742,-0.74414 1.262134,-1.653646 0.574713,-0.909505 1.553253,-2.291339 2.174533,-3.070743 1.540185,-1.932183 5.291375,-4.342104 8.154687,-5.238914 1.978123,-0.619562 2.48335,-0.672765 5.291666,-0.557244 2.656013,0.109255 3.429789,0.249785 5.353703,0.972318 4.377724,1.644069 8.698428,4.709299 14.764382,10.474271 1.071829,1.018646 2.05785,1.891771 2.191157,1.940277 0.133308,0.04851 0.242377,0.213132 0.242377,0.365837 0,0.152701 -0.922734,-0.60184 -2.050521,-1.676763 -6.218547,-5.927045 -10.539404,-9.007957 -15.186454,-10.828428 -1.923786,-0.75364 -2.60691,-0.881402 -5.276357,-0.986819 -3.480074,-0.137428 -4.958523,0.172667 -7.910221,1.659118 -3.582261,1.803998 -6.020669,4.405151 -7.970536,8.50251 -0.973697,2.046078 -1.031829,2.316435 -1.194702,5.55625 -0.110753,2.203069 -0.06013,4.06156 0.143377,5.263533 0.195769,1.156277 0.225527,2.098747 0.07879,2.49541 -0.208912,0.564743 -0.255547,0.493242 -0.409131,-0.627279 z m 99.857053,-0.30861 c 0.0127,-0.308227 0.0754,-0.37092 0.15985,-0.159854 0.0764,0.190995 0.067,0.419198 -0.0209,0.507119 -0.0879,0.08792 -0.15045,-0.06835 -0.13897,-0.347265 z M 95.744249,77.307088 c 0.400182,-0.444524 0.727604,-0.91426 0.727604,-1.043856 0,-0.129595 -0.327422,-0.599331 -0.727604,-1.043855 l -0.727604,-0.808228 0.859896,0.777105 c 0.472942,0.427408 0.859895,0.911148 0.859895,1.074978 0,0.16383 -0.386953,0.647571 -0.859895,1.074979 l -0.859896,0.777105 z m 15.775101,-0.316251 c -0.3291,-0.419646 -0.31975,-0.429004 0.0999,-0.0999 0.25466,0.199721 0.46302,0.408081 0.46302,0.463021 0,0.217763 -0.21727,0.07761 -0.56292,-0.363124 z M 97.1469,75.4224 c -0.86565,-0.81565 -1.3419,-1.356249 -1.058333,-1.201333 0.502272,0.274394 2.994933,2.713191 2.753479,2.693977 -0.06668,-0.0053 -0.829495,-0.676997 -1.695146,-1.492644 z m 53.8807,0.840832 c 0.005,-0.436562 0.0647,-0.583125 0.13177,-0.325694 0.0671,0.257432 0.0627,0.614619 -0.01,0.79375 -0.0725,0.179131 -0.12737,-0.03149 -0.12197,-0.468056 z m -45.85825,-0.859895 c -0.3291,-0.419646 -0.31975,-0.429004 0.0999,-0.0999 0.25466,0.199721 0.46302,0.408081 0.46302,0.463021 0,0.217763 -0.21727,0.0776 -0.56292,-0.363124 z m -6.072335,-3.640754 c -1.83038,-1.817508 -3.257344,-3.304559 -3.171032,-3.304559 0.08631,0 1.641645,1.488281 3.456287,3.307292 1.81464,1.81901 3.24161,3.306061 3.17103,3.304558 -0.0706,-0.0016 -1.62591,-1.489784 -3.456285,-3.307291 z m 10.041085,2.58242 c -0.3291,-0.419645 -0.31975,-0.429003 0.0999,-0.0999 0.25466,0.199721 0.46302,0.40808 0.46302,0.463021 0,0.217763 -0.21727,0.0776 -0.56292,-0.363125 z m -15.870581,-2.84807 c -1.253064,-1.234837 -2.202934,-2.245159 -2.110827,-2.245159 0.09211,0 1.174244,1.012031 2.404745,2.248958 1.2305,1.236927 2.180373,2.247249 2.110824,2.245159 -0.06955,-0.0021 -1.151681,-1.014119 -2.404742,-2.248958 z m 6.345584,-1.649847 c -0.329107,-0.419645 -0.319749,-0.429003 0.0999,-0.0999 0.440727,0.345644 0.580887,0.562917 0.363117,0.562917 -0.0549,0 -0.263292,-0.208359 -0.463013,-0.463021 z m 12.601457,-2.182812 c 0.86402,-0.873125 1.63047,-1.5875 1.70323,-1.5875 0.0728,0 -0.57463,0.714375 -1.43865,1.5875 -0.86401,0.873125 -1.63046,1.5875 -1.70322,1.5875 -0.0728,0 0.57463,-0.714375 1.43864,-1.5875 z m -8.3544,0.330729 -0.64143,-0.727604 0.7276,0.641432 c 0.68006,0.599517 0.84894,0.813776 0.64143,0.813776 -0.0474,0 -0.37481,-0.327422 -0.7276,-0.727604 z m -9.203555,-0.604115 c -0.343545,-0.2862 -0.510826,-0.520364 -0.371737,-0.520364 0.139089,0 0.468387,0.238125 0.731777,0.529167 0.60507,0.668594 0.448484,0.664765 -0.36004,-0.0088 z m 6.990195,-0.661069 c -0.28247,-0.213654 -0.38635,-0.388462 -0.23083,-0.388462 0.15552,0 0.43098,0.178594 0.61213,0.396875 0.41201,0.496443 0.2824,0.493583 -0.3813,-0.0084 z m 5.93755,-0.520753 c 0.49366,-0.509323 0.95709,-0.926042 1.02985,-0.926042 0.0728,0 -0.27161,0.416719 -0.76526,0.926042 -0.49366,0.509323 -0.95709,0.926041 -1.02985,0.926041 -0.0728,0 0.27161,-0.416718 0.76526,-0.926041 z m -15.081247,-0.79375 c -0.642681,-0.654844 -1.10898,-1.190625 -1.036219,-1.190625 0.07276,0 0.658122,0.535781 1.300803,1.190625 0.64268,0.654843 1.108979,1.190625 1.036219,1.190625 -0.07276,0 -0.658122,-0.535782 -1.300803,-1.190625 z m 9.810477,0.900903 c -0.0115,-0.232108 0.247,-0.648827 0.57442,-0.926041 0.59024,-0.499738 0.59166,-0.499523 0.16682,0.02513 -0.23568,0.291042 -0.49417,0.70776 -0.57443,0.926042 -0.12386,0.336851 -0.14909,0.333049 -0.16681,-0.02514 z m 6.59369,-1.115986 c 0,-0.04554 0.38695,-0.432488 0.8599,-0.859896 l 0.85989,-0.777105 -0.7771,0.859896 c -0.72437,0.801545 -0.94269,0.981512 -0.94269,0.777105 z m -4.49792,-1.082532 c 0.99028,-1.067911 4.49792,-4.248848 4.49792,-4.078978 0,0.05603 -1.22039,1.221407 -2.71198,2.589742 -1.49159,1.368332 -2.29526,2.038487 -1.78594,1.489236 z m 11.24479,0.371573 c 0.26339,-0.291042 0.53843,-0.529167 0.61119,-0.529167 0.0728,0 -0.0832,0.238125 -0.3466,0.529167 -0.26339,0.291042 -0.53842,0.529167 -0.61118,0.529167 -0.0728,0 0.0832,-0.238125 0.34659,-0.529167 z m -25.41664,-1.124479 -0.777105,-0.859896 0.859896,0.777105 c 0.801544,0.724371 0.981511,0.942687 0.777105,0.942687 -0.04554,0 -0.432488,-0.386954 -0.859896,-0.859896 z m 21.05102,-0.330729 c 0.34177,-0.363802 0.68094,-0.661459 0.7537,-0.661459 0.0728,0 -0.14734,0.297657 -0.48912,0.661459 -0.34177,0.363802 -0.68094,0.661458 -0.7537,0.661458 -0.0728,0 0.14734,-0.297656 0.48912,-0.661458 z m 5.55625,0.561562 c 0,-0.05494 0.20836,-0.2633 0.46302,-0.463021 0.41965,-0.329107 0.429,-0.319749 0.0999,0.0999 -0.34565,0.44073 -0.56292,0.580888 -0.56292,0.363125 z m 30.9225,-0.892292 c -0.32911,-0.419645 -0.31975,-0.429003 0.0999,-0.0999 0.44073,0.345644 0.58089,0.562917 0.36313,0.562917 -0.0549,0 -0.2633,-0.208359 -0.46302,-0.463021 z m -29.46729,-0.330729 c 0.26339,-0.291041 0.53842,-0.529166 0.61118,-0.529166 0.0728,0 -0.0832,0.238125 -0.3466,0.529166 -0.26339,0.291042 -0.53842,0.529167 -0.61118,0.529167 -0.0728,0 0.0832,-0.238125 0.3466,-0.529167 z m -29.785653,-0.463021 -0.641432,-0.727604 0.727604,0.641432 c 0.680056,0.599517 0.84894,0.813777 0.641432,0.813777 -0.04739,0 -0.374814,-0.327422 -0.727604,-0.727605 z m 23.832523,0.363125 c 0,-0.05494 0.20836,-0.2633 0.46302,-0.463021 0.41965,-0.329107 0.42901,-0.319749 0.0999,0.0999 -0.34564,0.44073 -0.56292,0.580888 -0.56292,0.363125 z m 33.59352,-1.660459 c -2.36679,-2.447168 -5.79689,-4.379347 -8.72268,-4.913505 -1.85306,-0.338309 -3.89563,-0.395043 -4.82865,-0.13412 -0.42182,0.117963 -0.7276,0.09902 -0.7276,-0.04509 0,-0.462856 3.34484,-0.633661 5.2226,-0.266694 2.17165,0.424404 1.90183,0.354419 2.79827,0.725785 0.40965,0.169707 0.80552,0.308559 0.87971,0.308559 0.0742,0 0.93221,0.515789 1.90673,1.146201 1.6443,1.063694 3.45835,2.654694 4.65123,4.079319 0.91778,1.096095 0.28194,0.610714 -1.17961,-0.900459 z m -26.71435,1.131293 c 0,-0.05494 0.20836,-0.263301 0.46302,-0.463021 0.41964,-0.329108 0.429,-0.319749 0.0999,0.0999 -0.34565,0.440729 -0.56292,0.580887 -0.56292,0.363125 z m -5.82083,-0.264584 c 0,-0.05494 0.20836,-0.2633 0.46302,-0.463021 0.41964,-0.329107 0.429,-0.319749 0.0999,0.0999 -0.34564,0.44073 -0.56291,0.580888 -0.56291,0.363125 z m 40.61354,-0.693854 c -0.22576,-0.436562 -0.35094,-0.79375 -0.27818,-0.79375 0.0728,0 0.317,0.357188 0.54276,0.79375 0.22576,0.436563 0.35093,0.79375 0.27817,0.79375 -0.0728,0 -0.317,-0.357187 -0.54275,-0.79375 z m -67.601043,-0.551434 -1.190625,-1.079169 1.256771,0.979466 c 1.101698,0.858608 1.428276,1.182159 1.190625,1.17959 -0.03638,-2.65e-4 -0.601927,-0.486344 -1.256771,-1.079887 z M 48.582271,59.726774 c 0,-0.145521 0.12609,-0.264583 0.280199,-0.264583 0.154109,0 0.206613,0.119062 0.116676,0.264583 -0.08994,0.145521 -0.216026,0.264583 -0.280198,0.264583 -0.06417,0 -0.116677,-0.119062 -0.116677,-0.264583 z m 60.589579,0.181792 c 0,-0.04553 0.38696,-0.432487 0.8599,-0.859895 l 0.85989,-0.777105 -0.7771,0.859895 c -0.72437,0.801545 -0.94269,0.981512 -0.94269,0.777105 z M 49.111438,59.097711 c 0,-0.05494 0.208359,-0.2633 0.463021,-0.463021 0.419644,-0.329107 0.429002,-0.319749 0.0999,0.0999 -0.345644,0.44073 -0.562916,0.580888 -0.562916,0.363125 z m 35.420415,-0.363125 c -0.329107,-0.419645 -0.319749,-0.429003 0.0999,-0.0999 0.44073,0.345644 0.580888,0.562917 0.363125,0.562917 -0.05494,0 -0.2633,-0.208359 -0.463021,-0.463021 z m 39.456667,-0.179818 c 0,-0.07276 0.23812,-0.259734 0.52917,-0.415494 0.29104,-0.15576 0.52916,-0.223671 0.52916,-0.150911 0,0.07276 -0.23812,0.259734 -0.52916,0.415494 -0.29105,0.15576 -0.52917,0.223671 -0.52917,0.150911 z M 111.02394,58.32567 c 0,-0.06746 0.55999,-0.581528 1.24444,-1.142378 0.68444,-0.560851 1.15904,-0.881547 1.05466,-0.712655 -0.22241,0.359867 -2.2991,2.03545 -2.2991,1.855033 z m 41.11757,-0.517125 -0.50403,-0.595313 0.59531,0.504029 c 0.55944,0.473662 0.71576,0.686596 0.50403,0.686596 -0.0502,0 -0.3181,-0.26789 -0.59531,-0.595312 z M 51.744967,56.287191 c 0.962039,-0.945886 2.251337,-1.995301 2.865108,-2.332034 1.529261,-0.838999 1.41446,-0.538203 -0.140825,0.368982 -0.691224,0.403186 -1.980522,1.396765 -2.865107,2.207955 -1.556713,1.427549 -1.552193,1.419688 0.140824,-0.244903 z m 30.70397,1.034692 c -0.569852,-0.466111 -0.581052,-0.501742 -0.08088,-0.257278 0.319318,0.15607 0.653765,0.402188 0.743218,0.546926 0.238807,0.386397 0.07843,0.316259 -0.662337,-0.289648 z m 43.656253,0.02364 c 0.21828,-0.141065 0.51593,-0.256479 0.66145,-0.256479 0.14552,0 0.086,0.115414 -0.13229,0.256479 -0.21828,0.141065 -0.51594,0.256479 -0.66146,0.256479 -0.14552,0 -0.086,-0.115414 0.1323,-0.256479 z m 17.31504,-0.375243 c -0.28224,-0.206383 -0.44317,-0.445238 -0.35762,-0.530788 0.0855,-0.08555 0.3717,0.08331 0.6359,0.375242 0.56209,0.621102 0.44665,0.685628 -0.27828,0.155546 z m -15.87541,-0.294629 c 0.28247,-0.213654 0.63265,-0.388461 0.77817,-0.388461 0.14552,0 0.0335,0.174807 -0.24901,0.388461 -0.28247,0.213651 -0.63265,0.388458 -0.77817,0.388458 -0.14552,0 -0.0335,-0.174807 0.24901,-0.388458 z m 22.62841,-1.116066 -1.44617,-1.521354 1.52135,1.44617 c 0.83675,0.795394 1.52136,1.480003 1.52136,1.521355 0,0.196387 -0.253,-0.03279 -1.59654,-1.446171 z m -8.07965,0.614212 c -0.28019,-0.20488 -0.4414,-0.440545 -0.35825,-0.523699 0.0832,-0.08315 0.38044,0.01644 0.66063,0.221318 0.28019,0.204879 0.4414,0.440544 0.35825,0.5237 -0.0832,0.08315 -0.38044,-0.01643 -0.66063,-0.221319 z M 80.184403,55.87572 c -0.493189,-0.395127 -0.489945,-0.400012 0.08172,-0.122983 0.327421,0.158668 0.595312,0.343831 0.595312,0.411471 0,0.202463 -0.137216,0.143996 -0.677034,-0.288488 z m 33.485367,0.311576 c 0,-0.05494 0.20836,-0.263302 0.46302,-0.463021 0.41965,-0.329108 0.429,-0.319749 0.0999,0.0999 -0.34565,0.440729 -0.56292,0.580887 -0.56292,0.363126 z m 7.9375,-0.0041 c 0,-0.05719 0.18478,-0.17489 0.41062,-0.261552 0.23545,-0.09036 0.34166,-0.046 0.24896,0.103984 -0.15538,0.251409 -0.65958,0.371858 -0.65958,0.157568 z m 7.40833,-0.06854 c 0.21828,-0.07191 0.66459,-0.26113 0.99179,-0.420483 0.3272,-0.159353 0.67114,-0.213509 0.7643,-0.120347 0.20308,0.203078 -1.07631,0.722027 -1.70717,0.692468 -0.35751,-0.01675 -0.3672,-0.04678 -0.0489,-0.151638 z m 11.90625,-0.76913 c 0,-0.226869 0.12101,-0.337705 0.2689,-0.246301 0.14789,0.0914 0.2004,0.277024 0.11668,0.41249 -0.22681,0.366989 -0.38558,0.298559 -0.38558,-0.166189 z M 78.861486,55.08197 c -0.493189,-0.395127 -0.489945,-0.400012 0.08172,-0.122983 0.327422,0.158668 0.595312,0.343831 0.595312,0.411471 0,0.202464 -0.137215,0.143996 -0.677034,-0.288488 z m 35.866614,0.311576 c 0,-0.05494 0.20836,-0.263302 0.46302,-0.463021 0.41965,-0.329108 0.42901,-0.319749 0.0999,0.09989 -0.34564,0.440729 -0.56292,0.580887 -0.56292,0.363126 z M 77.686437,54.435107 c -0.238466,-0.154109 -0.2711,-0.258097 -0.08176,-0.260532 0.173312,-0.0022 0.388699,0.115011 0.478636,0.260532 0.203015,0.328487 0.111421,0.328487 -0.396876,0 z M 116.58019,54.05685 c 0,-0.07276 0.23812,-0.259732 0.52916,-0.415493 0.29104,-0.155761 0.52917,-0.22367 0.52917,-0.15091 0,0.07276 -0.23813,0.259733 -0.52917,0.415494 -0.29104,0.15576 -0.52916,0.22367 -0.52916,0.150909 z m 31.45166,-0.349347 c -0.32911,-0.419644 -0.31975,-0.429002 0.0999,-0.0999 0.25466,0.199719 0.46302,0.408079 0.46302,0.463021 0,0.217761 -0.21727,0.0776 -0.56292,-0.363126 z m -72.197496,-0.06615 c -0.218281,-0.141064 -0.277813,-0.25648 -0.132292,-0.25648 0.145521,0 0.443177,0.115416 0.661458,0.25648 0.218282,0.141064 0.277813,0.25648 0.132292,0.25648 -0.145521,0 -0.443177,-0.115416 -0.661458,-0.25648 z m 52.602476,0.08384 c 0.19099,-0.07643 0.4192,-0.06703 0.50712,0.02089 0.0879,0.08792 -0.0684,0.150453 -0.34727,0.138964 -0.30823,-0.01269 -0.37092,-0.07539 -0.15985,-0.159852 z m 1.5875,-0.264583 c 0.19099,-0.07643 0.4192,-0.06703 0.50711,0.02089 0.0879,0.08792 -0.0684,0.150453 -0.34726,0.138965 -0.30823,-0.0127 -0.37092,-0.07539 -0.15985,-0.159853 z m 6.08541,0 c 0.191,-0.07643 0.4192,-0.06703 0.50712,0.02089 0.0879,0.08792 -0.0684,0.150453 -0.34726,0.138965 -0.30823,-0.0127 -0.37092,-0.07539 -0.15986,-0.159853 z m -3.18845,-0.270973 c 0.32912,-0.06329 0.80537,-0.06088 1.05833,0.0053 0.25297,0.06622 -0.0163,0.118003 -0.59839,0.115066 -0.58209,-0.0029 -0.78906,-0.05712 -0.45994,-0.120406 z M 56.713799,52.814776 c 0.179476,-0.180821 0.39297,-0.262115 0.474432,-0.180654 0.08146,0.08146 -0.06538,0.229407 -0.32632,0.328766 -0.377083,0.143585 -0.407475,0.113194 -0.148112,-0.148112 z m 17.268472,0.03283 c -0.218282,-0.141064 -0.277813,-0.25648 -0.132292,-0.25648 0.145521,0 0.443177,0.115416 0.661458,0.25648 0.218281,0.141064 0.277813,0.25648 0.132292,0.25648 -0.145521,0 -0.443177,-0.115416 -0.661458,-0.25648 z m 44.714579,-0.113673 c 0,-0.07276 0.23813,-0.259733 0.52917,-0.415493 0.29104,-0.155761 0.52917,-0.223671 0.52917,-0.15091 0,0.07276 -0.23813,0.259732 -0.52917,0.415493 -0.29104,0.155761 -0.52917,0.22367 -0.52917,0.15091 z M 57.842688,52.363079 c 0.218281,-0.134867 0.694531,-0.324831 1.058333,-0.422142 0.459708,-0.122965 0.540408,-0.102139 0.264583,0.06828 -0.218281,0.134866 -0.694531,0.324831 -1.058333,0.422142 -0.459708,0.122965 -0.540408,0.102138 -0.264583,-0.06828 z m 14.684374,-0.04464 c -0.348916,-0.149935 -0.393979,-0.232346 -0.132291,-0.241936 0.218281,-0.008 0.575468,0.100871 0.79375,0.241936 0.483649,0.312558 0.0659,0.312558 -0.661459,0 z m -12.08815,-0.709908 c 0.190996,-0.07643 0.419199,-0.06703 0.507118,0.02089 0.08792,0.08792 -0.06835,0.150453 -0.347266,0.138965 -0.308224,-0.01269 -0.370919,-0.07539 -0.159852,-0.159853 z m 8.780859,-0.08384 c -0.523765,-0.167739 -0.551304,-0.211836 -0.132292,-0.211836 0.291042,0 0.826823,0.09533 1.190625,0.211836 0.523765,0.167738 0.551303,0.211836 0.132292,0.211836 -0.291042,0 -0.826823,-0.09533 -1.190625,-0.211836 z m -7.739063,-0.175229 c 0.181901,-0.0734 0.479558,-0.0734 0.661459,0 0.181901,0.0734 0.03307,0.133452 -0.330729,0.133452 -0.363802,0 -0.512631,-0.06005 -0.33073,-0.133452 z m 2.910417,-0.283084 c 0.618464,-0.0557 1.630495,-0.0557 2.248958,0 0.618464,0.0557 0.112448,0.10128 -1.124479,0.10128 -1.236927,0 -1.742943,-0.04558 -1.124479,-0.10128 z m 57.745315,-0.203146 c 0.3638,-0.207968 0.78052,-0.378124 0.92604,-0.378124 0.14552,0 -0.0331,0.170156 -0.39688,0.378124 -0.3638,0.207968 -0.78052,0.378124 -0.92604,0.378124 -0.14552,0 0.0331,-0.170156 0.39688,-0.378124 z m 1.5875,-0.661458 c 0.21828,-0.141064 0.51593,-0.25648 0.66145,-0.25648 0.14552,0 0.086,0.115416 -0.13229,0.25648 -0.21828,0.141064 -0.51594,0.25648 -0.66146,0.25648 -0.14552,0 -0.086,-0.115416 0.1323,-0.25648 z m 2.24895,-0.79375 c 0.29105,-0.125065 0.70776,-0.227391 0.92605,-0.227391 0.25015,0 0.20125,0.08406 -0.1323,0.227391 -0.29104,0.125065 -0.70776,0.22739 -0.92604,0.22739 -0.25016,0 -0.20125,-0.08406 0.13229,-0.22739 z m 1.67019,-0.445324 c 0.19099,-0.07643 0.4192,-0.06703 0.50712,0.02089 0.0879,0.08792 -0.0684,0.150453 -0.34727,0.138964 -0.30823,-0.01269 -0.37092,-0.07539 -0.15985,-0.159852 z m 10.58333,0 c 0.19099,-0.07643 0.4192,-0.06703 0.50712,0.02089 0.0879,0.08792 -0.0684,0.150453 -0.34727,0.138964 -0.30822,-0.01269 -0.37092,-0.07539 -0.15985,-0.159852 z m -9.40925,-0.266227 c 0.25467,-0.06655 0.67138,-0.06655 0.92605,0 0.25466,0.06655 0.0463,0.121 -0.46302,0.121 -0.50933,0 -0.71769,-0.05445 -0.46303,-0.121 z m 7.80521,0.0072 c 0.1819,-0.0734 0.47956,-0.0734 0.66146,0 0.1819,0.0734 0.0331,0.133452 -0.33073,0.133452 -0.3638,0 -0.51263,-0.06005 -0.33073,-0.133452 z m -5.02708,-0.284417 c 0.76398,-0.05345 2.01414,-0.05345 2.77812,0 0.76399,0.05345 0.13891,0.09718 -1.38906,0.09718 -1.52797,0 -2.15304,-0.04373 -1.38906,-0.09718 z"
             id="path338" /><path
             style="display:none;fill:#030104;stroke-width:0.264583"
             d="M 48.582271,102.12689 V 90.022849 L 50.5005,92.0346 c 1.77255,1.858974 4.875855,4.469258 5.313391,4.469258 0.102976,0 0.663732,0.300802 1.246126,0.668451 4.322952,2.72896 12.431385,3.283481 18.466632,1.262896 3.160826,-1.058238 7.975446,-3.573375 10.891038,-5.689434 3.138056,-2.27752 10.613686,-8.45403 12.423849,-10.26483 l 2.248174,-2.248959 3.84263,3.847254 c 4.07378,4.078671 4.85571,4.794713 7.84318,7.182202 6.8352,5.462484 14.52432,8.681281 20.738,8.681281 3.77907,0 8.45219,-1.318327 11.78825,-3.325564 3.62516,-2.18118 5.96715,-4.484341 8.05201,-7.918506 0.61842,-1.018646 1.16985,-1.901693 1.2254,-1.962327 0.0555,-0.06063 0.101,6.100852 0.101,13.692188 v 13.80243 H 101.63123 48.582271 Z m 12.919831,-6.935358 c -4.594669,-0.83753 -8.600291,-3.019049 -11.67768,-6.359837 l -1.242151,-1.348468 v -2.988363 -2.988365 l 1.246521,0.189174 c 0.75373,0.114388 1.385085,0.385451 1.597023,0.68566 0.192776,0.273066 0.891358,1.32992 1.552402,2.348566 2.857912,4.403937 6.263498,6.841879 11.842656,8.477756 1.239554,0.36345 2.176998,0.426418 4.630208,0.311004 1.69179,-0.07959 3.4927,-0.290317 4.002023,-0.468278 6.632506,-2.317462 13.903139,-7.293062 22.115459,-15.134543 1.750753,-1.671693 1.901309,-1.759354 2.274861,-1.324514 0.673325,0.783801 0.81207,1.13621 0.382421,0.971338 -0.214588,-0.08235 -0.611122,0.06785 -0.881184,0.333759 -0.504182,0.496432 -4.923848,4.45312 -6.313318,5.651971 -2.19828,1.896702 -10.041281,7.399215 -10.546464,7.399215 -0.08972,0 -0.607242,0.274008 -1.150053,0.608905 -0.909021,0.560837 -3.848571,1.854692 -5.74943,2.530636 -2.960403,1.052719 -9.225428,1.625325 -12.083294,1.104384 z m 67.089768,-1.356609 c -3.11652,-0.521406 -7.53279,-2.550625 -11.06204,-5.082868 -3.20721,-2.301179 -4.28382,-3.320796 -16.69235,-15.808791 C 90.238969,62.276889 84.994882,57.91746 78.452009,54.334142 70.552929,50.008075 61.880612,49.562914 55.49256,53.155605 c -2.449665,1.377712 -3.934174,2.564039 -5.461834,4.364758 l -1.448455,1.707356 V 57.41017 55.592621 l 1.886833,-2.047705 c 5.447856,-5.912339 13.682177,-8.629487 21.3965,-7.060381 0.800364,0.162796 1.693333,0.401666 1.984375,0.530824 0.291042,0.129157 0.873655,0.310176 1.294696,0.402266 1.749015,0.38254 8.857689,4.419631 11.268466,6.399481 0.220782,0.181318 1.889702,1.493046 3.708712,2.914952 1.819011,1.421906 3.78047,3.004828 4.358802,3.517604 1.642128,1.455992 4.362198,4.004847 5.478525,5.133679 l 1.01499,1.026358 -1.060535,1.150543 c -0.583292,0.632799 -1.059513,1.302031 -1.058267,1.487184 0.0026,0.374451 15.530762,15.856572 17.602102,17.549828 3.26854,2.671914 8.64307,5.675609 11.10292,6.205159 0.58209,0.12531 1.53459,0.351714 2.11667,0.503119 0.58208,0.151408 2.30849,0.293029 3.83646,0.314714 2.2863,0.03245 2.56734,0.07694 1.5875,0.251283 -1.52674,0.271663 -4.77581,0.253391 -6.50915,-0.03661 z M 66.573937,91.577311 c -6.014716,-0.919962 -10.409141,-4.036997 -12.894126,-9.146003 -1.343789,-2.762764 -1.838405,-4.455586 -2.169809,-7.426161 -0.650452,-5.830399 1.051102,-10.86597 4.996885,-14.787756 3.263132,-3.243287 6.445399,-4.564658 10.993092,-4.564658 3.102364,0 4.756709,0.425521 8.060206,2.073196 4.48416,2.236552 8.54385,5.468281 16.602582,13.216535 2.667614,2.564839 3.061338,3.07181 2.385632,3.07181 -0.184775,0 -1.464697,1.140846 -2.844271,2.535211 -9.799849,9.904931 -16.823624,14.560595 -22.616649,14.991297 -1.018646,0.07573 -2.149739,0.09217 -2.513542,0.03653 z m 64.881793,-0.497285 c -2.30257,-0.417335 -5.19275,-1.833367 -8.77053,-4.297063 -1.8182,-1.252033 -4.10837,-3.322323 -8.11438,-7.335317 -3.06969,-3.07503 -5.80454,-5.931754 -6.07746,-6.348277 l -0.49621,-0.757315 3.43162,-3.274176 c 10.51441,-10.031995 18.10335,-13.999972 24.96911,-13.055416 4.74622,0.652961 8.70775,3.324036 11.69197,7.883341 2.17042,3.315978 2.96492,6.89792 2.58493,11.653875 -0.22797,2.853242 -0.8249,4.930611 -2.00211,6.967532 -2.74604,4.751459 -6.75751,7.736348 -11.52454,8.575291 -2.56598,0.451583 -3.13897,0.450326 -5.6924,-0.01246 z m -25.95415,-21.53712 c -0.19963,-0.126463 -0.3187,-0.341638 -0.26458,-0.478166 0.13573,-0.342424 4.36001,-4.076142 7.24214,-6.401118 7.4308,-5.994312 14.56572,-9.082617 20.7698,-8.990077 1.28188,0.01912 1.10855,0.07902 -1.45521,0.502883 -2.80545,0.463822 -4.16984,0.791386 -5.29167,1.270433 -2.00427,0.855869 -5.94884,2.859809 -5.95078,3.023142 -0.001,0.109141 -0.11127,0.198438 -0.24439,0.198438 -0.79208,0 -8.6128,6.00044 -12.58538,9.656117 -1.70907,1.572731 -1.68304,1.558443 -2.21993,1.218348 z m -6.16443,-6.061192 c -3.62744,-3.424722 -4.89309,-4.545671 -7.09863,-6.287056 -1.091406,-0.861721 -2.043906,-1.633594 -2.116667,-1.715276 -0.291084,-0.326777 -4.491561,-3.40257 -6.463532,-4.732914 -2.365298,-1.595691 -7.382026,-4.08225 -9.080738,-4.500899 -0.618464,-0.152421 -1.630495,-0.417806 -2.248958,-0.589746 -1.758759,-0.488954 -8.454944,-0.404966 -10.517187,0.131914 -4.542207,1.182508 -9.116571,3.874188 -11.909666,7.007971 l -1.319501,1.480447 V 42.052506 29.828857 h 53.048959 53.04895 V 45.228429 60.628 l -1.20432,-1.839674 c -2.94107,-4.492646 -7.14381,-7.542726 -13.34776,-9.686952 -2.47439,-0.855206 -2.58772,-0.86884 -7.27604,-0.875302 -4.6866,-0.0065 -4.80127,0.007 -7.19561,0.842448 -2.11202,0.73697 -5.98432,2.558125 -7.61669,3.582157 -2.05614,1.289871 -3.20751,2.102897 -5.29603,3.739722 -2.71249,2.125848 -7.95617,6.721176 -9.51255,8.336381 -0.57524,0.596977 -1.13132,1.085411 -1.23575,1.085411 -0.10442,0 -1.30064,-1.048713 -2.65828,-2.330477 z m 36.62376,-9.493574 c 0.25467,-0.06655 0.67138,-0.06655 0.92605,0 0.25466,0.06655 0.0463,0.121 -0.46302,0.121 -0.50933,0 -0.71769,-0.05445 -0.46303,-0.121 z"
             id="path334" /></g><path
           style="fill:#d25826;fill-opacity:1;fill-rule:evenodd;stroke:none;stroke-width:1.794;stroke-miterlimit:0"
           d="m 180.2392,130.24585 2.63123,3.61794 1.64452,7.56478 0.65781,4.27575 0.3289,1.31561 -0.65781,7.23588 -3.28903,7.89369 z"
           id="path593"
           sodipodi:nodetypes="cccccccc" /><path
           style="fill:none;fill-opacity:1;fill-rule:evenodd;stroke:#362214;stroke-width:0.276866;stroke-miterlimit:0;stroke-dasharray:none;stroke-opacity:0.752941"
           d="m 180.5681,131.89036 c 0,0.41878 -6.89002,7.15247 5.26247,16.44519 4.31479,3.29942 -4.60466,13.48505 -4.60466,13.48505 v -0.98671"
           id="path11439"
           sodipodi:nodetypes="cscc" /></g><text
         xml:space="preserve"
         transform="matrix(-0.00231826,-0.53799888,1.6864494,-0.00231654,-575.29695,374.74265)"
         id="text13894"
         style="font-size:85.3333px;font-family:'Arial Black';-inkscape-font-specification:'Arial Black, ';text-align:center;white-space:pre;shape-inside:url(#rect13896);opacity:0.9;fill:#e5a50a;fill-opacity:1;fill-rule:evenodd;stroke:none;stroke-width:1.84819;stroke-miterlimit:0;stroke-dasharray:44.3565, 1.84819;stroke-dashoffset:0;stroke-opacity:0.752941;filter:url(#filter18896)"><tspan
           x="366.84088"
           y="455.65452"
           id="tspan5548">zense</tspan></text><text
         xml:space="preserve"
         style="font-size:13.7756px;font-family:'Arial Black';-inkscape-font-specification:'Arial Black, ';text-align:center;text-anchor:middle;fill:#d0d043;fill-opacity:0.901961;fill-rule:evenodd;stroke:none;stroke-width:0.681975;stroke-miterlimit:0;stroke-dasharray:16.3675, 0.681975;stroke-dashoffset:0;stroke-opacity:1"
         x="168.98827"
         y="129.95946"
         id="text14682"
         transform="scale(0.65113075,1.5357899)"><tspan
           sodipodi:role="line"
           id="tspan14680"
           style="font-size:13.7756px;fill:#d0d043;fill-opacity:0.901961;stroke:none;stroke-width:0.681975;stroke-opacity:1"
           x="168.98827"
           y="129.95946">FIND THE ZEN IN YOUR ELEMENTS</tspan></text><text
         xml:space="preserve"
         style="font-size:23.688px;font-family:'Arial Black';-inkscape-font-specification:'Arial Black, ';text-align:center;text-anchor:middle;fill:#deddda;fill-opacity:0.901961;fill-rule:evenodd;stroke:none;stroke-width:1.17269;stroke-miterlimit:0;stroke-dasharray:28.1449, 1.17269;stroke-dashoffset:0;stroke-opacity:1"
         x="96.456787"
         y="31.734806"
         id="text14682-6"
         transform="scale(1.1196594,0.89312872)"><tspan
           sodipodi:role="line"
           id="tspan14680-7"
           style="font-size:23.688px;fill:#deddda;fill-opacity:0.901961;stroke:none;stroke-width:1.17269;stroke-opacity:1"
           x="96.456787"
           y="31.734806">8zense.com</tspan></text></g></g></svg>
