<?xml version="1.0" encoding="UTF-8" standalone="no"?>
<!-- Created with Inkscape (http://www.inkscape.org/) -->

<svg
   width="190.71964mm"
   height="205.61006mm"
   viewBox="0 0 190.71964 205.61006"
   version="1.1"
   id="svg5"
   xml:space="preserve"
   inkscape:export-filename="LogoEZ40.svg"
   inkscape:export-xdpi="96"
   inkscape:export-ydpi="96"
   xmlns:inkscape="http://www.inkscape.org/namespaces/inkscape"
   xmlns:sodipodi="http://sodipodi.sourceforge.net/DTD/sodipodi-0.dtd"
   xmlns="http://www.w3.org/2000/svg"
   xmlns:svg="http://www.w3.org/2000/svg"><sodipodi:namedview
     id="namedview7"
     pagecolor="#ffffff"
     bordercolor="#000000"
     borderopacity="0.25"
     inkscape:showpageshadow="2"
     inkscape:pageopacity="0.0"
     inkscape:pagecheckerboard="false"
     inkscape:deskcolor="#d1d1d1"
     inkscape:document-units="mm"
     showgrid="false"
     inkscape:zoom="0.56882515"
     inkscape:cx="676.83365"
     inkscape:cy="500.1537"
     inkscape:window-width="1387"
     inkscape:window-height="1027"
     inkscape:window-x="196"
     inkscape:window-y="25"
     inkscape:window-maximized="0"
     inkscape:current-layer="layer1" /><defs
     id="defs2"><linearGradient
       id="linearGradient2092"
       inkscape:swatch="solid"><stop
         style="stop-color:#ffc86a;stop-opacity:1;"
         offset="0"
         id="stop2090" /></linearGradient><rect
       x="275.96829"
       y="379.14563"
       width="451.24545"
       height="134.25485"
       id="rect13896-8" /><filter
       style="color-interpolation-filters:sRGB"
       inkscape:label="Duochrome"
       id="filter18896-0"
       x="0"
       y="0"
       width="1"
       height="1"><feColorMatrix
         type="luminanceToAlpha"
         result="colormatrix1"
         id="feColorMatrix18876-4" /><feFlood
         flood-opacity="1"
         flood-color="rgb(81,81,245)"
         result="flood1"
         id="feFlood18878-0" /><feComposite
         in2="colormatrix1"
         operator="out"
         result="composite1"
         id="feComposite18880-5" /><feFlood
         flood-opacity="1"
         flood-color="rgb(255,255,0)"
         result="flood2"
         id="feFlood18882-7" /><feComposite
         in2="colormatrix1"
         result="composite2"
         operator="in"
         id="feComposite18884-0" /><feComposite
         in="composite2"
         in2="composite1"
         k2="1"
         k3="1"
         operator="arithmetic"
         result="composite3"
         id="feComposite18886-0"
         k1="0"
         k4="0" /><feColorMatrix
         in="composite3"
         type="matrix"
         values="2 -1 0 0 0 0 2 -1 0 0 -1 0 2 0 0 0 0 0 1 0 "
         result="colormatrix2"
         id="feColorMatrix18888-5" /><feComposite
         in="colormatrix2"
         in2="composite3"
         operator="arithmetic"
         k2="0"
         result="composite4"
         id="feComposite18890-6"
         k1="0"
         k3="0"
         k4="0" /><feBlend
         in="composite4"
         in2="composite3"
         mode="normal"
         result="blend"
         id="feBlend18892-7" /><feComposite
         in2="SourceGraphic"
         operator="in"
         id="feComposite18894-8"
         result="fbSourceGraphic" /><feColorMatrix
         result="fbSourceGraphicAlpha"
         in="fbSourceGraphic"
         values="0 0 0 -1 0 0 0 0 -1 0 0 0 0 -1 0 0 0 0 1 0"
         id="feColorMatrix18898-0" /><feColorMatrix
         id="feColorMatrix18900-6"
         type="luminanceToAlpha"
         result="colormatrix1"
         in="fbSourceGraphic" /><feFlood
         id="feFlood18902-5"
         flood-opacity="1"
         flood-color="rgb(81,81,245)"
         result="flood1" /><feComposite
         in2="colormatrix1"
         id="feComposite18904-7"
         operator="out"
         result="composite1" /><feFlood
         id="feFlood18906-3"
         flood-opacity="1"
         flood-color="rgb(255,255,0)"
         result="flood2" /><feComposite
         in2="colormatrix1"
         id="feComposite18908-4"
         result="composite2"
         operator="in" /><feComposite
         in2="composite1"
         id="feComposite18910-3"
         in="composite2"
         k2="1"
         k3="1"
         operator="arithmetic"
         result="composite3"
         k1="0"
         k4="0" /><feColorMatrix
         id="feColorMatrix18912-0"
         in="composite3"
         type="matrix"
         values="2 -1 0 0 0 0 2 -1 0 0 -1 0 2 0 0 0 0 0 1 0 "
         result="colormatrix2" /><feComposite
         in2="composite3"
         id="feComposite18914-4"
         in="colormatrix2"
         operator="arithmetic"
         k2="0"
         result="composite4"
         k1="0"
         k3="0"
         k4="0" /><feBlend
         in2="composite3"
         id="feBlend18916-8"
         in="composite4"
         mode="normal"
         result="blend" /><feComposite
         in2="fbSourceGraphic"
         id="feComposite18918-7"
         operator="in" /></filter></defs><g
     inkscape:label="Ebene 1"
     inkscape:groupmode="layer"
     id="layer1"
     transform="translate(-28.066778,-143.82826)"><g
       inkscape:label="Ebene 1"
       id="layer1-0"
       transform="matrix(1.1,0,0,1.1,2.7754772,129.59338)"><g
         aria-label="8zense.com"
         transform="scale(1.1196594,0.89312872)"
         id="text14682-6"
         style="font-size:23.688px;font-family:'Arial Black';-inkscape-font-specification:'Arial Black, ';text-align:center;text-anchor:middle;fill:#deddda;fill-opacity:0.901961;fill-rule:evenodd;stroke-width:1.17269;stroke-miterlimit:0;stroke-dasharray:28.1449, 1.17269"><g
           id="g3063"
           inkscape:export-filename="Logo700svg.svg"
           inkscape:export-xdpi="96"
           inkscape:export-ydpi="96"><g
             id="g3425"><path
               d="m 23.368667,22.620478 q -1.110375,-0.589887 -1.619297,-1.31857 -0.693984,-0.994711 -0.693984,-2.290149 0,-2.128218 2.000988,-3.481488 1.561465,-1.040976 4.129207,-1.040976 3.400523,0 5.01982,1.295437 1.630863,1.295438 1.630863,3.261727 0,1.145074 -0.647718,2.139785 -0.485789,0.74025 -1.526766,1.434234 1.376402,0.659285 2.047254,1.746527 0.682418,1.087243 0.682418,2.405813 0,1.272305 -0.589887,2.382679 -0.57832,1.098809 -1.434234,1.700262 -0.844348,0.601453 -2.116652,0.879047 -1.260739,0.28916 -2.694973,0.28916 -2.694973,0 -4.117641,-0.636152 -1.422668,-0.636152 -2.162918,-1.873758 -0.74025,-1.237605 -0.74025,-2.764371 0,-1.492066 0.693985,-2.521477 0.693984,-1.040976 2.139785,-1.60773 z m 2.116652,-3.331125 q 0,0.879047 0.543621,1.422668 0.555188,0.532055 1.468934,0.532055 0.809648,0 1.330137,-0.532055 0.520488,-0.532055 0.520488,-1.376402 0,-0.879047 -0.543621,-1.422668 -0.543621,-0.555188 -1.387969,-0.555188 -0.855914,0 -1.399535,0.543621 -0.532055,0.532055 -0.532055,1.387969 z m -0.254461,7.298402 q 0,1.121942 0.682418,1.839059 0.682418,0.705551 1.561465,0.705551 0.844348,0 1.515199,-0.717117 0.670852,-0.728684 0.670852,-1.839059 0,-1.121941 -0.682418,-1.839059 -0.670852,-0.717117 -1.561465,-0.717117 -0.879047,0 -1.538332,0.693985 -0.647719,0.693984 -0.647719,1.873757 z"
               id="path2656"
               style="font-size:23.688px;font-family:'Arial Black';-inkscape-font-specification:'Arial Black, ';text-align:center;text-anchor:middle;fill:#deddda;fill-opacity:0.901961;fill-rule:evenodd;stroke-width:1.17269;stroke-miterlimit:0;stroke-dasharray:28.1449, 1.17269" /><path
               style="display:inline;fill:#5e261a;stroke-width:0.275886"
               d="m 129.40548,104.03768 c -5.23548,-1.0547 -11.28423,-4.302362 -16.63594,-8.932073 -2.98716,-2.584157 -3.769,-3.359628 -7.84225,-7.778297 l -3.84213,-4.167961 -2.248495,2.453975 c -1.81042,1.975874 -9.286933,8.720518 -12.425317,11.209021 -2.915897,2.312084 -7.730887,5.065485 -10.891876,6.228395 -4.694062,1.72692 -10.680962,1.84581 -14.97756,0.29742 -1.33661,-0.48168 -2.906666,-1.20097 -3.489013,-1.59843 -0.582348,-0.39746 -1.143066,-0.72232 -1.246043,-0.72192 -0.756283,0.003 -7.244777,-6.561694 -7.221945,-7.306706 0.0048,-0.15862 0.249202,0.03429 0.54298,0.42869 4.813587,6.462286 11.354812,10.024146 18.358776,9.996806 5.556649,-0.0217 11.280667,-2.2722 17.626984,-6.930377 C 90.13345,93.5317 100.43593,84.108535 100.43604,83.20159 c 2e-5,-0.193283 -0.528876,-0.913823 -1.175335,-1.6012 l -1.175381,-1.249779 -1.180507,1.127161 c -0.649279,0.619938 -2.458279,2.361939 -4.020005,3.871113 -3.593002,3.472105 -7.855405,6.92529 -11.365273,9.20758 -1.504678,0.978415 -2.829318,1.779302 -2.943643,1.779748 -0.369916,0.0014 0.260002,-0.485432 1.882536,-1.455049 2.594085,-1.550213 8.100829,-5.759714 10.567848,-8.078342 1.347863,-1.26679 5.801591,-5.617597 6.314123,-6.168214 0.2701,-0.29017 0.666657,-0.455016 0.881235,-0.366322 0.429629,0.177581 0.290931,-0.205037 -0.382292,-1.054603 -0.373495,-0.471326 -0.524064,-0.375428 -2.275054,1.448969 -3.322316,3.461601 -7.37077,7.230179 -9.681222,9.011946 -5.036176,3.883782 -10.575635,7.272569 -11.836751,7.241181 -0.257039,-0.0064 0.06847,-0.245095 0.723352,-0.530434 3.069131,-1.337259 8.194825,-4.527386 10.231656,-6.367972 0.46101,-0.416592 1.406069,-1.212734 2.100133,-1.769209 2.8886,-2.315967 9.630875,-8.897582 9.630938,-9.401445 4.4e-5,-0.351042 -1.706591,-2.136303 -2.040968,-2.134998 -0.0939,3.67e-4 -1.846163,1.793182 -3.893918,3.984035 -11.894414,12.725608 -18.701831,16.634538 -26.080331,14.975752 -4.212577,-0.947045 -8.238843,-4.030783 -11.024366,-8.443622 -1.871149,-2.96428 -2.89163,-8.350943 -2.63419,-13.904695 0.163314,-3.523152 0.221483,-3.817327 1.195463,-6.045744 1.950435,-4.462501 4.389211,-7.300145 7.971738,-9.27554 2.951918,-1.627679 4.430418,-1.970603 7.910495,-1.834767 2.669448,0.104196 3.352559,0.24044 5.276255,1.052332 5.317629,2.244295 9.082775,5.329866 18.653989,15.287111 2.599038,2.703865 6.294321,6.787041 8.211735,9.073728 8.13891,9.706347 14.47756,15.457857 20.66093,18.747129 5.16021,2.745 7.15159,3.34193 11.65622,3.49404 3.20207,0.10812 4.02969,0.0391 5.95322,-0.49639 6.66647,-1.85592 12.35502,-6.703787 15.36078,-13.090702 0.32159,-0.683339 0.63499,-1.081976 0.69644,-0.885861 0.15597,0.497728 -2.11907,4.503206 -3.66361,6.450193 -5.09343,6.4206 -13.87917,9.78161 -21.5368,8.23896 z M 72.819319,94.750807 c 2.056884,-0.733002 5.690265,-2.999214 8.338951,-5.201173 2.361294,-1.963037 7.570444,-7.081128 10.541749,-10.357477 1.379771,-1.521421 2.659856,-2.766812 2.844632,-2.767533 0.67571,-0.0026 0.282052,-0.552309 -2.38523,-3.33054 -8.057729,-8.392901 -12.117005,-11.890781 -16.600889,-14.304988 -3.303294,-1.778555 -4.957591,-2.234749 -8.059974,-2.222639 -4.54772,0.01775 -7.730186,1.466845 -10.993778,5.005874 -3.946339,4.279398 -5.648587,9.761008 -4.998922,16.097621 0.331003,3.22849 0.825392,5.067095 2.168815,8.065689 2.484307,5.545112 6.878335,8.916983 12.892963,9.893742 1.315264,0.213593 4.405622,-0.220706 6.251683,-0.878576 z m -12.860045,4.799462 c -1.233187,-0.297585 -3.078582,-0.970893 -4.100878,-1.496236 -2.107571,-1.083048 -5.462461,-3.859174 -6.568008,-5.434934 -1.026561,-1.463182 -0.6025,-1.326738 0.642814,0.206828 1.230188,1.514939 4.072822,3.827083 5.968945,4.855025 2.739897,1.485373 5.158676,2.012356 9.209766,2.006545 4.555336,-0.0065 7.299352,-0.635061 11.355111,-2.600923 0.857458,-0.415617 1.613105,-0.69706 1.679216,-0.625426 0.118256,0.128131 -0.627997,0.511631 -3.244494,1.667359 -4.326616,1.911103 -10.486063,2.497163 -14.942472,1.421762 z m 67.859456,-1.566531 c -3.32434,-0.853351 -6.658,-2.483912 -9.52447,-4.65861 -3.47005,-2.632601 -5.74731,-4.907257 -15.21173,-15.194272 C 88.622591,62.41415 82.588975,57.161819 75.171858,53.834304 71.164613,52.036546 69.597837,51.682491 65.647074,51.68192 c -5.053116,-7.28e-4 -8.417536,1.078702 -12.171388,3.905043 -1.083861,0.816057 -3.37449,3.341162 -4.172568,4.599685 -0.245386,0.386956 -0.514416,0.629604 -0.597843,0.53921 -0.25273,-0.273835 2.686055,-3.854636 4.036021,-4.917747 2.977556,-2.344852 5.253077,-3.451374 8.540132,-4.15282 5.361619,-1.144153 11.5078,0.0854 17.169406,3.434767 6.542426,3.870455 11.785953,8.589813 22.383086,20.145553 12.42368,13.547535 13.47976,14.630649 16.71409,17.141808 4.46779,3.468848 9.04115,5.423411 13.24424,5.660328 1.4205,0.08007 3.23759,0.01806 4.03799,-0.1378 1.06096,-0.206604 1.24019,-0.298978 0.66149,-0.340943 -0.5372,-0.03896 -0.20347,-0.187345 1.03251,-0.459099 1.00443,-0.220844 1.92718,-0.334095 2.05056,-0.251666 0.12337,0.08243 0.22434,0.02283 0.22436,-0.132468 4e-5,-0.3122 1.80985,-1.051319 2.0191,-0.824595 0.24903,0.269821 -2.68461,1.585826 -4.58505,2.056813 -2.31878,0.574669 -6.25,0.591371 -8.41448,0.03578 z M 65.017024,97.515816 c -1.262907,-0.416286 -0.910971,-0.572738 0.499239,-0.221937 1.205979,0.299999 6.572991,0.151803 7.533519,-0.208022 0.522538,-0.195746 0.522647,-0.193703 0.0087,0.162413 -0.667703,0.462663 -6.827766,0.667612 -8.041464,0.267546 z m 65.183036,-0.08414 c -0.14551,-0.05221 -0.60604,-0.175943 -1.02338,-0.274964 -1.48828,-0.353112 -0.5312,-0.356979 1.288,-0.0052 1.17429,0.227071 1.51316,0.361233 0.926,0.366615 -0.50933,0.0046 -1.04511,-0.03424 -1.19062,-0.08644 z M 61.069993,95.984272 c -1.050858,-0.543485 -1.910644,-1.056727 -1.910633,-1.140537 1e-5,-0.08382 0.744117,0.220244 1.653571,0.675678 0.909453,0.455434 1.951193,0.959203 2.314977,1.119489 0.363784,0.160286 0.479471,0.300902 0.257081,0.312477 -0.222388,0.01152 -1.264137,-0.423623 -2.314996,-0.967107 z m 64.367737,-0.09749 c -1.7749,-0.932348 -1.82862,-1.179078 -0.0732,-0.336125 0.62232,0.298839 1.42914,0.675285 1.79292,0.836543 0.36378,0.161261 0.48283,0.302255 0.26455,0.313322 -0.21829,0.01107 -1.11122,-0.355115 -1.98428,-0.81374 z M 131.6946,95.27462 C 127.31925,94.547831 121.8722,90.694486 115.55213,83.85513 110.62309,78.521093 102.793,69.580488 101.5143,67.826369 c -1.26808,-1.739573 -7.40498,-7.890982 -9.562777,-9.585393 -0.853057,-0.669861 -1.554469,-1.323596 -1.558695,-1.452741 -0.01645,-0.50257 4.679786,3.755393 8.591584,7.789793 3.310208,3.41395 2.763098,3.324417 5.106988,0.835742 4.6166,-4.901767 9.73721,-9.420628 13.94765,-12.308601 1.63252,-1.11976 5.50509,-3.114941 7.61723,-3.924462 2.39446,-0.917732 2.50914,-0.932776 7.19576,-0.944046 4.68835,-0.01123 4.80168,0.0031 7.27597,0.923279 4.80583,1.787256 8.23672,4.05303 11.02016,7.277757 1.6147,1.870692 3.53171,4.963822 3.52894,5.693989 -8.3e-4,0.216633 -0.46627,-0.446658 -1.03432,-1.473981 -3.38346,-6.118945 -10.3324,-10.962326 -17.272,-12.038499 -7.35151,-1.140051 -15.0016,1.718533 -23.16392,8.655582 -3.77468,3.208041 -10.91676,10.13374 -10.91682,10.58606 -3e-5,0.278004 2.19218,2.771575 2.43579,2.770624 0.12064,-4.71e-4 1.9808,-1.65824 4.13367,-3.683932 2.15288,-2.025692 5.00941,-4.528787 6.34783,-5.562432 2.73539,-2.112493 6.37844,-4.45795 6.58187,-4.237526 0.0737,0.07989 -0.50292,0.49783 -1.28142,0.928769 -2.06967,1.145645 -5.31497,3.544916 -8.03075,5.937185 -2.88246,2.5391 -7.10727,6.615107 -7.24305,6.98794 -0.0889,0.244116 0.42421,0.7617 0.76463,0.771306 0.0754,0.002 0.84943,-0.714247 1.71999,-1.591945 2.16358,-2.181297 9.19938,-8.392641 9.96109,-8.79383 l 0.61858,-0.325808 -0.60839,0.517883 c -2.70102,2.299217 -7.23574,6.287045 -7.99156,7.027757 -2.39313,2.345315 -3.44004,3.528315 -3.44008,3.887288 -5e-5,0.375179 1.20131,1.57872 1.57439,1.577263 0.0992,-3.87e-4 1.76541,-1.657083 3.70275,-3.681545 5.44343,-5.68824 10.6236,-9.970391 14.23662,-11.768594 0.8374,-0.416778 1.74606,-0.894428 2.01922,-1.061443 1.21044,-0.740055 6.24572,-1.835279 7.35791,-1.600419 0.48231,0.101853 1.50832,0.297706 2.28002,0.435237 1.71013,0.30478 5.31244,2.192463 6.93085,3.631902 3.15965,2.810249 5.22216,6.313365 6.24692,10.610216 0.58661,2.459732 0.65716,3.232094 0.53474,5.854632 -0.23982,5.137748 -1.22162,8.213073 -3.78835,11.866354 -1.96271,2.793587 -5.19525,5.275864 -8.20037,6.297106 -1.92889,0.655498 -5.47121,0.949865 -7.45835,0.619784 z m 5.44772,-0.447828 c 4.76718,-0.930755 8.77908,-4.19176 11.52578,-9.368544 1.17749,-2.219255 1.77471,-4.480223 2.00306,-7.583325 0.38064,-5.172437 -0.41338,-9.063834 -2.58336,-12.660688 -2.98362,-4.945496 -6.94481,-7.834182 -11.69097,-8.525594 -6.86567,-1.000177 -14.4552,3.343663 -24.97103,14.292078 l -3.43209,3.573271 0.49611,0.821461 c 0.27287,0.451803 3.00734,3.547126 6.07664,6.878497 4.00549,4.347526 6.29539,6.589528 8.11343,7.943715 3.57747,2.664709 6.46747,4.193021 8.77,4.637785 2.55338,0.493217 3.12638,0.492347 5.69243,-0.0087 z m -14.08571,-0.102556 c -0.0899,-0.157867 -0.0445,-0.287497 0.10109,-0.288065 0.14552,-5.68e-4 0.33816,0.128132 0.42807,0.285999 0.0899,0.157868 0.0445,0.287498 -0.1011,0.288066 -0.14552,5.68e-4 -0.33815,-0.128132 -0.42806,-0.286 z M 57.677816,93.87653 c -1.500864,-1.179994 -3.801992,-3.974559 -4.867632,-5.911412 -1.352536,-2.458299 -1.924764,-3.027637 -3.038626,-3.023289 -0.523248,0.002 -1.004274,-0.160176 -1.075869,-0.362822 -0.07122,-0.201583 -0.09689,-3.081783 -0.05704,-6.400443 l 0.07244,-6.033929 0.458675,1.545477 c 0.252271,0.850013 0.585363,1.71098 0.740203,1.913258 0.154841,0.202278 0.465961,1.770199 0.691378,3.484265 0.499714,3.799815 1.317472,6.58134 2.646885,9.003116 1.011417,1.842488 3.512841,4.837016 4.985178,5.967901 0.436522,0.335291 0.722244,0.613998 0.634936,0.61935 -0.08731,0.0053 -0.623047,-0.355309 -1.190532,-0.801472 z m 63.588234,-0.162517 c -1.13161,-0.831709 -1.36008,-1.317967 -0.25978,-0.552928 1.44748,1.006441 1.7666,1.276592 1.5092,1.277597 -0.14412,5.62e-4 -0.70635,-0.325538 -1.24942,-0.724669 z M 118.5555,91.75787 c -0.7256,-0.530802 -1.5555,-1.271909 -1.84422,-1.646906 -0.4684,-0.608361 -0.43989,-0.600797 0.26458,0.0702 0.43423,0.41361 1.2955,1.107072 1.91391,1.541026 0.9783,0.686498 1.30826,0.999507 1.05468,1.000497 -0.0383,1.49e-4 -0.66335,-0.43402 -1.38895,-0.964825 z m -3.66416,-3.203317 c -0.56217,-0.559211 -0.97109,-1.072427 -0.90871,-1.140478 0.0624,-0.06804 0.57625,0.389895 1.14196,1.017659 1.27543,1.41534 1.13855,1.487415 -0.23325,0.122819 z m -8.70633,-9.253838 c -4.03425,-4.389723 -7.334975,-8.133833 -7.334952,-8.320237 2.4e-5,-0.186408 0.477356,-0.903705 1.060737,-1.593998 l 1.060695,-1.255077 -1.014854,-1.111955 c -1.116181,-1.222975 -3.835921,-3.983623 -5.477862,-5.560253 -1.280332,-1.229402 -7.498892,-6.530963 -8.05497,-6.867168 -0.219792,-0.132887 -0.341078,-0.304701 -0.26952,-0.38181 0.124759,-0.134432 6.074096,4.761709 8.133134,6.693348 2.755344,2.584859 6.944292,6.970652 6.944252,7.270574 -2e-5,0.187288 -0.47636,0.848004 -1.05852,1.468262 -0.582165,0.620257 -1.058496,1.247627 -1.058514,1.394155 -1.8e-5,0.146527 1.107644,1.442811 2.461454,2.880631 3.43947,3.652868 12.20368,13.363833 12.06146,13.364388 -0.0647,2.53e-4 -3.41829,-3.591133 -7.45254,-7.98086 z m 13.36387,-19.248257 c 0.25124,-0.286927 0.52934,-0.443076 0.61802,-0.346995 0.0887,0.09608 -0.11687,0.330842 -0.45679,0.521687 -0.59082,0.331723 -0.59791,0.324035 -0.16123,-0.174692 z m 0.99858,-0.668669 c 4e-5,-0.258262 0.79514,-0.706145 0.95195,-0.536234 0.0453,0.04909 -0.15036,0.248176 -0.4348,0.442411 -0.28446,0.194235 -0.51716,0.236456 -0.51715,0.09383 z m 1.32302,-0.756292 c 2e-5,-0.192149 3.73667,-2.234252 3.85454,-2.106536 0.0527,0.05712 -0.79299,0.585475 -1.87936,1.174127 -1.08636,0.588648 -1.97519,1.008233 -1.97518,0.932409 z m 0.41034,-1.846095 c 0.37311,-0.388903 4.92126,-2.093734 5.25553,-1.96999 0.15826,0.05858 -0.42666,0.335858 -1.29982,0.616162 -0.87317,0.280303 -2.0871,0.758189 -2.69762,1.061968 -1.20569,0.59992 -1.65327,0.703753 -1.25809,0.29186 z m -35.05925,-2.52764 c -1.521686,-1.245984 -2.831244,-2.350117 -2.910127,-2.453627 -0.371088,-0.48694 3.745304,2.649531 5.787113,4.409471 0.06062,0.05226 0.06061,0.143292 -2.5e-5,0.202298 -0.06065,0.059 -1.355275,-0.912158 -2.876961,-2.158142 z m 39.28549,1.937348 c 0.14222,-0.151877 0.61577,-0.369631 1.05235,-0.483899 1.02392,-0.267992 0.79391,-0.02188 -0.39088,0.418254 -0.50603,0.187982 -0.80369,0.217522 -0.66147,0.06564 z M 49.335011,55.402478 c 1.163362,-1.648452 4.257345,-4.708289 5.574692,-5.513167 1.636196,-0.999688 1.294338,-0.575232 -0.654721,0.812913 -0.954263,0.679639 -2.643589,2.28722 -3.754058,3.572405 -1.110468,1.285184 -1.63513,1.792717 -1.165913,1.127849 z m 89.204709,-0.0034 c -1.45342,-0.410242 -2.0617,-0.689605 -1.7197,-0.789796 0.29105,-0.08527 -0.54239,-0.107135 -1.85208,-0.0486 -1.84045,0.08226 -2.14091,0.0478 -1.32291,-0.151716 0.78733,-0.192031 0.41466,-0.22561 -1.4552,-0.131119 -1.38247,0.06986 -2.93031,0.197952 -3.43964,0.284646 l -0.92606,0.157627 0.79379,-0.335709 c 0.46726,-0.197611 2.37198,-0.343805 4.63028,-0.35539 3.3811,-0.01733 4.0092,0.05667 5.29161,0.623574 0.80033,0.35379 1.6635,0.711345 1.91815,0.794567 0.25465,0.08322 0.46299,0.265666 0.46297,0.405432 -2e-5,0.139765 -0.0298,0.237725 -0.0661,0.217686 -0.0364,-0.02004 -1.07815,-0.32208 -2.31504,-0.671203 z m -9.65733,-0.108386 c 0.29106,-0.137114 0.82686,-0.246654 1.19067,-0.243424 l 0.66145,0.0059 -0.66148,0.232905 c -0.36383,0.128096 -0.89963,0.237636 -1.19067,0.243424 l -0.52917,0.01055 z m -80.301476,-0.08284 c 8e-6,-0.05973 0.208397,-0.28709 0.463087,-0.50523 0.419691,-0.359464 0.429048,-0.349326 0.09988,0.108216 -0.345706,0.480537 -0.562998,0.633773 -0.562969,0.397009 z m 82.484356,-0.403865 c 0.18192,-0.08051 0.47958,-0.08168 0.66147,-0.0026 0.18189,0.07909 0.0331,0.144968 -0.33075,0.146388 -0.3638,0.0014 -0.51263,-0.06329 -0.33072,-0.143806 z M 50.182927,53.123935 c 1.862427,-2.122168 7.013635,-5.905805 8.026824,-5.89582 0.161749,0.0015 -0.580857,0.524812 -1.650235,1.162707 -2.597531,1.549454 -3.928204,2.572819 -5.611543,4.315609 -1.624533,1.681907 -2.104624,1.943904 -0.765046,0.417504 z M 84.03559,52.709072 C 83.089788,51.991122 81.571863,50.951687 80.662421,50.399219 79.038359,49.41263 78.557336,48.993056 79.47192,49.3608 c 1.383984,0.556485 7.013574,4.685039 6.349454,4.656479 -0.03638,-0.0016 -0.839983,-0.590258 -1.785784,-1.308207 z M 82.448333,50.68892 c -1.694377,-1.191066 -6.402083,-3.66227 -7.50525,-3.93971 -0.417342,-0.104955 -0.687868,-0.268227 -0.601169,-0.362818 0.377411,-0.411759 7.465748,3.203986 9.032428,4.607422 1.119835,1.003152 0.771728,0.888535 -0.926009,-0.304894 z m -26.1937,-1.560247 c 2.5e-5,-0.205922 3.279188,-1.805121 4.101313,-2.000152 0.75044,-0.178025 0.757662,-0.171467 0.132278,0.12011 -0.363825,0.169628 -1.407947,0.688069 -2.320271,1.152092 -1.669893,0.849334 -1.913347,0.94196 -1.91332,0.72795 z m 20.902284,-0.684044 c -0.6548,-0.378692 -1.116382,-0.69467 -1.025739,-0.702173 0.255629,-0.02116 2.613193,1.137946 2.613175,1.284779 -3.1e-5,0.249898 -0.40483,0.101336 -1.587436,-0.582606 z m -2.381148,-0.917251 c -0.363797,-0.06954 -0.780494,-0.253623 -0.925996,-0.409072 -0.300316,-0.320846 1.063537,-0.03873 1.719756,0.355745 0.417585,0.25102 0.286519,0.259825 -0.79376,0.05333 z m -15.610415,-0.71635 c 0.363834,-0.239742 0.840111,-0.437242 1.058395,-0.43889 0.352779,-0.0027 0.352776,0.0243 -3.1e-5,0.242679 -0.2183,0.135121 -0.694577,0.332621 -1.058394,0.438889 l -0.661486,0.193215 z m 2.77816,-0.1587 c 0.29106,-0.129303 1.184057,-0.313754 1.984438,-0.409892 l 1.455238,-0.174795 -1.58756,0.414023 c -1.761032,0.459263 -2.695604,0.54538 -1.852116,0.170664 z m 9.422379,-0.07826 c -1.618697,-0.339357 -1.712632,-0.585942 -0.140944,-0.369985 1.259613,0.173076 2.628136,0.684302 1.698811,0.634609 -0.21828,-0.01167 -0.91932,-0.130753 -1.557867,-0.264624 z M 61.181037,46.074466 c 0.308224,-0.140738 1.14169,-0.332128 1.852147,-0.42531 1.601132,-0.210002 0.528005,0.226598 -1.221898,0.497128 -0.795979,0.123055 -1.004892,0.09925 -0.630249,-0.07182 z m 10.964479,-0.08141 c -1.712931,-0.358536 -1.942268,-0.567868 -0.412235,-0.376275 0.727597,0.09111 1.501485,0.278174 1.71975,0.415695 0.469102,0.295564 0.263246,0.289358 -1.307515,-0.03942 z M 66.90822,45.833007 c 0.402194,-0.06769 0.997509,-0.06825 1.322924,-0.0012 0.325414,0.06701 -0.0036,0.122395 -0.731262,0.123076 -0.727608,6.66e-4 -0.993856,-0.05415 -0.591662,-0.12184 z m -0.524752,-0.578669 c 0.695626,-0.06217 1.767195,-0.06563 2.381264,-0.0077 0.614069,0.05794 0.04492,0.1088 -1.264775,0.113032 -1.309695,0.0042 -1.812115,-0.04317 -1.116489,-0.105336 z"
               id="path336"
               transform="matrix(0.05681063,1.3937678,-1.2699992,0.0021673,149.36989,-23.275676)" /><path
               style="fill:#d25826;fill-opacity:1;fill-rule:evenodd;stroke:none;stroke-width:1.794;stroke-miterlimit:0"
               d="m 180.2392,130.24585 2.63123,3.61794 1.64452,7.56478 0.65781,4.27575 0.3289,1.31561 -0.65781,7.23588 -3.28903,7.89369 z"
               id="path593"
               sodipodi:nodetypes="cccccccc"
               transform="matrix(0.0440975,1.0818692,-1.1459445,0.0019556,225.55944,-4.6938121)" /><path
               style="fill:none;fill-opacity:1;fill-rule:evenodd;stroke:#b97644;stroke-width:0.489;stroke-miterlimit:0;stroke-dasharray:1.956, 0.489;stroke-dashoffset:0;stroke-opacity:0.752941"
               d="m 45.388704,126.95681 -2.631228,2.63123 -1.973424,3.61794 -1.644518,4.60465 -0.657807,5.92027 0.657807,6.57807 0.986711,5.59136 1.644517,4.27575 3.289039,4.93355 v -0.3289 0"
               id="path9027"
               transform="matrix(0.0440975,1.0818692,-1.1459445,0.0019556,225.55944,-4.6938121)" /><path
               style="fill:#d25826;fill-opacity:1;fill-rule:evenodd;stroke:#362214;stroke-width:0.489;stroke-miterlimit:0;stroke-dasharray:1.956, 0.489;stroke-dashoffset:0;stroke-opacity:0.752941"
               d="m 45.059801,132.54817 -2.302325,6.24917 v 9.86711 l 2.631228,7.23588 6.578073,6.24917 3.289036,2.30232"
               id="path11441"
               transform="matrix(0.0440975,1.0818692,-1.1459445,0.0019556,225.55944,-4.6938121)" /><path
               d="m 370.04921,411.40454 h 41.04165 v 9.91666 l -22.33333,22.74999 h 23.70833 v 11.58333 h -44.08332 v -10.99999 l 21.16666,-21.66666 h -19.49999 z"
               id="path2677"
               style="font-size:85.3333px;font-family:'Arial Black';-inkscape-font-specification:'Arial Black, ';text-align:center;white-space:pre;shape-inside:url(#rect13896-8);opacity:0.9;fill:#e5a50a;fill-rule:evenodd;stroke-width:1.84819;stroke-miterlimit:0;stroke-dasharray:44.3565, 1.84819;stroke-opacity:0.752941;filter:url(#filter18896-0)"
               transform="matrix(-0.0020705,-0.60237554,1.5062164,-0.00259374,-513.81426,419.58413)" /><path
               d="m 467.71583,437.73786 h -33.99998 q 0.45833,4.08334 2.20833,6.08333 2.45833,2.875 6.41667,2.875 2.49999,0 4.74999,-1.25 1.375,-0.79166 2.95834,-2.79166 l 16.70832,1.54166 q -3.83333,6.66667 -9.24999,9.58333 -5.41667,2.875 -15.54166,2.875 -8.79167,0 -13.83333,-2.45833 -5.04167,-2.5 -8.375,-7.875 -3.29166,-5.41666 -3.29166,-12.70832 0,-10.375 6.62499,-16.79166 6.66667,-6.41667 18.375,-6.41667 9.49999,0 14.99999,2.875 5.5,2.875 8.375,8.33333 2.87499,5.45833 2.87499,14.20833 z m -17.24999,-8.12499 q -0.5,-4.91667 -2.66666,-7.04167 -2.125,-2.125 -5.625,-2.125 -4.04167,0 -6.45833,3.20834 -1.54167,2 -1.95833,5.95833 z"
               id="path2679"
               style="font-size:85.3333px;font-family:'Arial Black';-inkscape-font-specification:'Arial Black, ';text-align:center;white-space:pre;shape-inside:url(#rect13896-8);opacity:0.9;fill:#e5a50a;fill-rule:evenodd;stroke-width:1.84819;stroke-miterlimit:0;stroke-dasharray:44.3565, 1.84819;stroke-opacity:0.752941;filter:url(#filter18896-0)"
               transform="matrix(-0.0020705,-0.60237554,1.5062164,-0.00259374,-513.81426,419.58413)" /><path
               d="m 475.5075,411.40454 h 15.79166 v 7.20833 q 3.54167,-4.41666 7.16666,-6.29166 3.625,-1.91667 8.83333,-1.91667 7.04167,0 11,4.20833 4,4.16667 4,12.91666 v 28.12499 H 505.25749 V 431.3212 q 0,-4.16667 -1.54167,-5.875 -1.54166,-1.75 -4.33333,-1.75 -3.08333,0 -5,2.33333 -1.91666,2.33334 -1.91666,8.375 v 21.24999 H 475.5075 Z"
               id="path2681"
               style="font-size:85.3333px;font-family:'Arial Black';-inkscape-font-specification:'Arial Black, ';text-align:center;white-space:pre;shape-inside:url(#rect13896-8);opacity:0.9;fill:#e5a50a;fill-rule:evenodd;stroke-width:1.84819;stroke-miterlimit:0;stroke-dasharray:44.3565, 1.84819;stroke-opacity:0.752941;filter:url(#filter18896-0)"
               transform="matrix(-0.0020705,-0.60237554,1.5062164,-0.00259374,-513.81426,419.58413)" /><path
               d="m 529.42414,443.40453 16.83333,-1.58333 q 1.04167,2.99999 2.91666,4.29166 1.875,1.29167 5,1.29167 3.41667,0 5.29167,-1.45834 1.45833,-1.08333 1.45833,-2.70833 0,-1.83333 -1.91667,-2.83333 -1.375,-0.70833 -7.29166,-1.75 -8.83333,-1.54167 -12.29166,-2.83333 -3.41667,-1.33334 -5.79167,-4.45833 -2.33333,-3.125 -2.33333,-7.125 0,-4.375 2.54167,-7.54166 2.54166,-3.16667 6.99999,-4.70834 4.45834,-1.58333 11.95833,-1.58333 7.91667,0 11.66666,1.20833 3.79167,1.20834 6.29167,3.75 2.54166,2.54167 4.20833,6.875 l -16.08333,1.58333 q -0.625,-2.125 -2.08333,-3.125 -2,-1.33333 -4.83333,-1.33333 -2.875,0 -4.20833,1.04167 -1.29167,1 -1.29167,2.45833 0,1.625 1.66667,2.45833 1.66666,0.83333 7.25,1.5 8.45833,0.95833 12.58332,2.66667 4.125,1.70833 6.29167,4.87499 2.20833,3.16667 2.20833,6.95834 0,3.83333 -2.33333,7.45833 -2.29167,3.62499 -7.29167,5.79166 -4.95833,2.125 -13.54166,2.125 -12.12499,0 -17.29166,-3.45833 -5.12499,-3.45833 -6.58333,-9.83333 z"
               id="path2683"
               style="font-size:85.3333px;font-family:'Arial Black';-inkscape-font-specification:'Arial Black, ';text-align:center;white-space:pre;shape-inside:url(#rect13896-8);opacity:0.9;fill:#e5a50a;fill-rule:evenodd;stroke-width:1.84819;stroke-miterlimit:0;stroke-dasharray:44.3565, 1.84819;stroke-opacity:0.752941;filter:url(#filter18896-0)"
               transform="matrix(-0.0020705,-0.60237554,1.5062164,-0.00259374,-513.81426,419.58413)" /><path
               d="m 633.67411,437.73786 h -33.99999 q 0.45833,4.08334 2.20833,6.08333 2.45833,2.875 6.41667,2.875 2.5,0 4.74999,-1.25 1.375,-0.79166 2.95834,-2.79166 l 16.70832,1.54166 q -3.83333,6.66667 -9.24999,9.58333 -5.41667,2.875 -15.54166,2.875 -8.79167,0 -13.83333,-2.45833 -5.04167,-2.5 -8.375,-7.875 -3.29166,-5.41666 -3.29166,-12.70832 0,-10.375 6.62499,-16.79166 6.66667,-6.41667 18.375,-6.41667 9.49999,0 14.99999,2.875 5.5,2.875 8.375,8.33333 2.875,5.45833 2.875,14.20833 z m -17.25,-8.12499 q -0.5,-4.91667 -2.66666,-7.04167 -2.125,-2.125 -5.625,-2.125 -4.04167,0 -6.45833,3.20834 -1.54167,2 -1.95833,5.95833 z"
               id="path2685"
               style="font-size:85.3333px;font-family:'Arial Black';-inkscape-font-specification:'Arial Black, ';text-align:center;white-space:pre;shape-inside:url(#rect13896-8);opacity:0.9;fill:#e5a50a;fill-rule:evenodd;stroke-width:1.84819;stroke-miterlimit:0;stroke-dasharray:44.3565, 1.84819;stroke-opacity:0.752941;filter:url(#filter18896-0)"
               transform="matrix(-0.0020705,-0.60237554,1.5062164,-0.00259374,-513.81426,419.58413)" /><path
               d="m 36.885773,120.0986 h 7.533532 v 2.11881 h -4.473034 v 1.72195 h 3.820576 v 1.991 h -3.820576 v 4.0291 h -3.060498 z"
               id="path2688"
               style="font-size:13.7756px;font-family:'Arial Black';-inkscape-font-specification:'Arial Black, ';text-align:center;text-anchor:middle;fill:#d0d043;fill-opacity:0.901961;fill-rule:evenodd;stroke-width:0.681975;stroke-miterlimit:0;stroke-dasharray:16.3675, 0.681975"
               transform="scale(0.5815436,1.7195617)" /><path
               d="m 46.181613,120.0986 h 3.053771 v 9.86086 h -3.053771 z"
               id="path2690"
               style="font-size:13.7756px;font-family:'Arial Black';-inkscape-font-specification:'Arial Black, ';text-align:center;text-anchor:middle;fill:#d0d043;fill-opacity:0.901961;fill-rule:evenodd;stroke-width:0.681975;stroke-miterlimit:0;stroke-dasharray:16.3675, 0.681975"
               transform="scale(0.5815436,1.7195617)" /><path
               d="m 51.441633,120.0986 h 2.845254 l 3.712954,5.45509 V 120.0986 H 60.872 v 9.86086 h -2.872159 l -3.692775,-5.41473 v 5.41473 h -2.865433 z"
               id="path2692"
               style="font-size:13.7756px;font-family:'Arial Black';-inkscape-font-specification:'Arial Black, ';text-align:center;text-anchor:middle;fill:#d0d043;fill-opacity:0.901961;fill-rule:evenodd;stroke-width:0.681975;stroke-miterlimit:0;stroke-dasharray:16.3675, 0.681975"
               transform="scale(0.5815436,1.7195617)" /><path
               d="m 62.936994,120.0986 h 4.526845 q 1.338547,0 2.159164,0.36323 0.827343,0.36322 1.365453,1.04258 0.538109,0.67937 0.780258,1.5807 0.242149,0.90133 0.242149,1.91029 0,1.58069 -0.363223,2.45512 -0.356498,0.8677 -0.995503,1.45962 -0.639005,0.5852 -1.372179,0.78026 -1.002228,0.26906 -1.816119,0.26906 h -4.526845 z m 3.047044,2.23316 v 5.38782 h 0.746627 q 0.955144,0 1.358726,-0.20852 0.403582,-0.21524 0.632279,-0.7399 0.228696,-0.53138 0.228696,-1.71522 0,-1.56725 -0.511204,-2.14572 -0.511204,-0.57846 -1.695044,-0.57846 z"
               id="path2694"
               style="font-size:13.7756px;font-family:'Arial Black';-inkscape-font-specification:'Arial Black, ';text-align:center;text-anchor:middle;fill:#d0d043;fill-opacity:0.901961;fill-rule:evenodd;stroke-width:0.681975;stroke-miterlimit:0;stroke-dasharray:16.3675, 0.681975"
               transform="scale(0.5815436,1.7195617)" /><path
               d="m 77.513031,120.0986 h 9.262208 v 2.43495 h -3.107581 v 7.42591 h -3.047045 v -7.42591 h -3.107582 z"
               id="path2696"
               style="font-size:13.7756px;font-family:'Arial Black';-inkscape-font-specification:'Arial Black, ';text-align:center;text-anchor:middle;fill:#d0d043;fill-opacity:0.901961;fill-rule:evenodd;stroke-width:0.681975;stroke-miterlimit:0;stroke-dasharray:16.3675, 0.681975"
               transform="scale(0.5815436,1.7195617)" /><path
               d="m 88.167599,120.0986 h 3.047045 v 3.45063 h 3.329552 v -3.45063 h 3.060497 v 9.86086 h -3.060497 v -3.98874 h -3.329552 v 3.98874 h -3.047045 z"
               id="path2698"
               style="font-size:13.7756px;font-family:'Arial Black';-inkscape-font-specification:'Arial Black, ';text-align:center;text-anchor:middle;fill:#d0d043;fill-opacity:0.901961;fill-rule:evenodd;stroke-width:0.681975;stroke-miterlimit:0;stroke-dasharray:16.3675, 0.681975"
               transform="scale(0.5815436,1.7195617)" /><path
               d="m 99.622602,120.0986 h 8.165808 v 2.10536 h -5.11204 v 1.56724 h 4.74209 v 2.01118 h -4.74209 v 1.94392 h 5.26002 v 2.23316 h -8.313788 z"
               id="path2700"
               style="font-size:13.7756px;font-family:'Arial Black';-inkscape-font-specification:'Arial Black, ';text-align:center;text-anchor:middle;fill:#d0d043;fill-opacity:0.901961;fill-rule:evenodd;stroke-width:0.681975;stroke-miterlimit:0;stroke-dasharray:16.3675, 0.681975"
               transform="scale(0.5815436,1.7195617)" /><path
               d="m 113.92286,120.0986 h 8.6232 v 1.97083 l -5.52907,5.77122 h 5.73086 v 2.11881 h -9.35637 v -2.04482 l 5.46853,-5.71068 h -4.93715 z"
               id="path2702"
               style="font-size:13.7756px;font-family:'Arial Black';-inkscape-font-specification:'Arial Black, ';text-align:center;text-anchor:middle;fill:#d0d043;fill-opacity:0.901961;fill-rule:evenodd;stroke-width:0.681975;stroke-miterlimit:0;stroke-dasharray:16.3675, 0.681975"
               transform="scale(0.5815436,1.7195617)" /><path
               d="m 124.11331,120.0986 h 8.16581 v 2.10536 h -5.11204 v 1.56724 h 4.74209 v 2.01118 h -4.74209 v 1.94392 h 5.26002 v 2.23316 h -8.31379 z"
               id="path2704"
               style="font-size:13.7756px;font-family:'Arial Black';-inkscape-font-specification:'Arial Black, ';text-align:center;text-anchor:middle;fill:#d0d043;fill-opacity:0.901961;fill-rule:evenodd;stroke-width:0.681975;stroke-miterlimit:0;stroke-dasharray:16.3675, 0.681975"
               transform="scale(0.5815436,1.7195617)" /><path
               d="m 134.08851,120.0986 h 2.84525 l 3.71295,5.45509 v -5.45509 h 2.87216 v 9.86086 h -2.87216 l -3.69277,-5.41473 v 5.41473 h -2.86543 z"
               id="path2706"
               style="font-size:13.7756px;font-family:'Arial Black';-inkscape-font-specification:'Arial Black, ';text-align:center;text-anchor:middle;fill:#d0d043;fill-opacity:0.901961;fill-rule:evenodd;stroke-width:0.681975;stroke-miterlimit:0;stroke-dasharray:16.3675, 0.681975"
               transform="scale(0.5815436,1.7195617)" /><path
               d="m 150.2587,120.0986 h 3.05377 v 9.86086 h -3.05377 z"
               id="path2708"
               inkscape:export-filename="LogoEZ700.svg"
               inkscape:export-xdpi="96"
               inkscape:export-ydpi="96"
               style="font-size:13.7756px;font-family:'Arial Black';-inkscape-font-specification:'Arial Black, ';text-align:center;text-anchor:middle;fill:#d0d043;fill-opacity:0.901961;fill-rule:evenodd;stroke-width:0.681975;stroke-miterlimit:0;stroke-dasharray:16.3675, 0.681975"
               transform="scale(0.5815436,1.7195617)" /><path
               d="m 155.51871,120.0986 h 2.84526 l 3.71295,5.45509 v -5.45509 h 2.87216 v 9.86086 h -2.87216 l -3.69277,-5.41473 v 5.41473 h -2.86544 z"
               id="path2710"
               style="font-size:13.7756px;font-family:'Arial Black';-inkscape-font-specification:'Arial Black, ';text-align:center;text-anchor:middle;fill:#d0d043;fill-opacity:0.901961;fill-rule:evenodd;stroke-width:0.681975;stroke-miterlimit:0;stroke-dasharray:16.3675, 0.681975"
               transform="scale(0.5815436,1.7195617)" /><path
               d="m 170.57233,120.0986 h 3.38336 l 1.99101,3.32955 1.991,-3.32955 h 3.36319 l -3.83403,5.73087 v 4.12999 h -3.05378 v -4.12999 z"
               id="path2712"
               style="font-size:13.7756px;font-family:'Arial Black';-inkscape-font-specification:'Arial Black, ';text-align:center;text-anchor:middle;fill:#d0d043;fill-opacity:0.901961;fill-rule:evenodd;stroke-width:0.681975;stroke-miterlimit:0;stroke-dasharray:16.3675, 0.681975"
               transform="scale(0.5815436,1.7195617)" /><path
               d="m 181.07218,125.03576 q 0,-2.41477 1.34528,-3.76004 1.34527,-1.34528 3.74659,-1.34528 2.46185,0 3.79367,1.3251 1.33182,1.31837 1.33182,3.6995 0,1.72868 -0.5852,2.83853 -0.57846,1.10312 -1.68159,1.72195 -1.0964,0.6121 -2.73763,0.6121 -1.66814,0 -2.76454,-0.53139 -1.08967,-0.53138 -1.76903,-1.68159 -0.67937,-1.15021 -0.67937,-2.87888 z m 3.04705,0.0135 q 0,1.49325 0.55156,2.14571 0.55829,0.65246 1.51343,0.65246 0.98205,0 1.52016,-0.63901 0.53811,-0.639 0.53811,-2.29369 0,-1.39236 -0.56501,-2.03136 -0.55829,-0.64573 -1.52016,-0.64573 -0.92151,0 -1.4798,0.65246 -0.55829,0.65245 -0.55829,2.15916 z"
               id="path2714"
               style="font-size:13.7756px;font-family:'Arial Black';-inkscape-font-specification:'Arial Black, ';text-align:center;text-anchor:middle;fill:#d0d043;fill-opacity:0.901961;fill-rule:evenodd;stroke-width:0.681975;stroke-miterlimit:0;stroke-dasharray:16.3675, 0.681975"
               transform="scale(0.5815436,1.7195617)" /><path
               d="m 199.34773,120.0986 h 3.04032 v 5.87885 q 0,0.87443 -0.27578,1.65468 -0.26906,0.77354 -0.85425,1.35873 -0.57847,0.57847 -1.21747,0.81389 -0.88788,0.32959 -2.13226,0.32959 -0.71972,0 -1.57397,-0.10089 -0.84752,-0.1009 -1.41926,-0.39686 -0.57175,-0.30268 -1.04932,-0.85425 -0.47084,-0.55156 -0.64573,-1.13675 -0.28251,-0.94169 -0.28251,-1.66814 v -5.87885 h 3.04032 v 6.0201 q 0,0.80717 0.44394,1.26456 0.45067,0.45067 1.24438,0.45067 0.78698,0 1.23093,-0.44394 0.45066,-0.45067 0.45066,-1.27129 z"
               id="path2716"
               style="font-size:13.7756px;font-family:'Arial Black';-inkscape-font-specification:'Arial Black, ';text-align:center;text-anchor:middle;fill:#d0d043;fill-opacity:0.901961;fill-rule:evenodd;stroke-width:0.681975;stroke-miterlimit:0;stroke-dasharray:16.3675, 0.681975"
               transform="scale(0.5815436,1.7195617)" /><path
               d="m 204.44631,129.95946 v -9.86086 h 5.07841 q 1.41253,0 2.15916,0.24215 0.74663,0.24215 1.20402,0.90134 0.45739,0.65245 0.45739,1.59414 0,0.82062 -0.34977,1.41927 -0.34977,0.59192 -0.96187,0.96187 -0.39013,0.23542 -1.06949,0.39013 0.54484,0.18161 0.79371,0.36322 0.16816,0.12108 0.4843,0.51793 0.32286,0.39686 0.43049,0.6121 l 1.47307,2.85871 h -3.4439 l -1.62778,-3.01342 q -0.30941,-0.58519 -0.55156,-0.76007 -0.32959,-0.2287 -0.74663,-0.2287 h -0.26905 v 4.00219 z m 3.0605,-5.86539 h 1.28473 q 0.20852,0 0.80717,-0.13453 0.30268,-0.0605 0.49102,-0.30942 0.19507,-0.24887 0.19507,-0.57174 0,-0.47757 -0.30269,-0.73317 -0.30269,-0.2556 -1.13676,-0.2556 h -1.33854 z"
               id="path2718"
               style="font-size:13.7756px;font-family:'Arial Black';-inkscape-font-specification:'Arial Black, ';text-align:center;text-anchor:middle;fill:#d0d043;fill-opacity:0.901961;fill-rule:evenodd;stroke-width:0.681975;stroke-miterlimit:0;stroke-dasharray:16.3675, 0.681975"
               transform="scale(0.5815436,1.7195617)" /><path
               d="m 219.70844,120.0986 h 8.16581 v 2.10536 h -5.11204 v 1.56724 h 4.74209 v 2.01118 h -4.74209 v 1.94392 h 5.26002 v 2.23316 h -8.31379 z"
               id="path2720"
               style="font-size:13.7756px;font-family:'Arial Black';-inkscape-font-specification:'Arial Black, ';text-align:center;text-anchor:middle;fill:#d0d043;fill-opacity:0.901961;fill-rule:evenodd;stroke-width:0.681975;stroke-miterlimit:0;stroke-dasharray:16.3675, 0.681975"
               transform="scale(0.5815436,1.7195617)" /><path
               d="m 229.66346,120.0986 h 3.04704 v 7.43264 h 4.75554 v 2.42822 h -7.80258 z"
               id="path2722"
               style="font-size:13.7756px;font-family:'Arial Black';-inkscape-font-specification:'Arial Black, ';text-align:center;text-anchor:middle;fill:#d0d043;fill-opacity:0.901961;fill-rule:evenodd;stroke-width:0.681975;stroke-miterlimit:0;stroke-dasharray:16.3675, 0.681975"
               transform="scale(0.5815436,1.7195617)" /><path
               d="m 238.84495,120.0986 h 8.16581 v 2.10536 h -5.11204 v 1.56724 h 4.74209 v 2.01118 h -4.74209 v 1.94392 h 5.26002 v 2.23316 h -8.31379 z"
               id="path2724"
               style="font-size:13.7756px;font-family:'Arial Black';-inkscape-font-specification:'Arial Black, ';text-align:center;text-anchor:middle;fill:#d0d043;fill-opacity:0.901961;fill-rule:evenodd;stroke-width:0.681975;stroke-miterlimit:0;stroke-dasharray:16.3675, 0.681975"
               transform="scale(0.5815436,1.7195617)" /><path
               d="m 248.76635,120.0986 h 4.00891 l 1.54707,5.99992 1.54033,-5.99992 h 3.99547 v 9.86086 h -2.48876 v -7.52008 l -1.93047,7.52008 h -2.25333 l -1.92374,-7.52008 v 7.52008 h -2.49548 z"
               id="path2726"
               style="font-size:13.7756px;font-family:'Arial Black';-inkscape-font-specification:'Arial Black, ';text-align:center;text-anchor:middle;fill:#d0d043;fill-opacity:0.901961;fill-rule:evenodd;stroke-width:0.681975;stroke-miterlimit:0;stroke-dasharray:16.3675, 0.681975"
               transform="scale(0.5815436,1.7195617)" /><path
               d="m 261.79533,120.0986 h 8.16581 v 2.10536 h -5.11204 v 1.56724 h 4.74209 v 2.01118 h -4.74209 v 1.94392 h 5.26002 v 2.23316 h -8.31379 z"
               id="path2728"
               style="font-size:13.7756px;font-family:'Arial Black';-inkscape-font-specification:'Arial Black, ';text-align:center;text-anchor:middle;fill:#d0d043;fill-opacity:0.901961;fill-rule:evenodd;stroke-width:0.681975;stroke-miterlimit:0;stroke-dasharray:16.3675, 0.681975"
               transform="scale(0.5815436,1.7195617)" /><path
               d="m 271.77052,120.0986 h 2.84525 l 3.71296,5.45509 v -5.45509 h 2.87216 v 9.86086 h -2.87216 l -3.69278,-5.41473 v 5.41473 h -2.86543 z"
               id="path2730"
               style="font-size:13.7756px;font-family:'Arial Black';-inkscape-font-specification:'Arial Black, ';text-align:center;text-anchor:middle;fill:#d0d043;fill-opacity:0.901961;fill-rule:evenodd;stroke-width:0.681975;stroke-miterlimit:0;stroke-dasharray:16.3675, 0.681975"
               transform="scale(0.5815436,1.7195617)" /><path
               d="m 282.53272,120.0986 h 9.2622 v 2.43495 h -3.10758 v 7.42591 h -3.04704 v -7.42591 h -3.10758 z"
               id="path2732"
               style="font-size:13.7756px;font-family:'Arial Black';-inkscape-font-specification:'Arial Black, ';text-align:center;text-anchor:middle;fill:#d0d043;fill-opacity:0.901961;fill-rule:evenodd;stroke-width:0.681975;stroke-miterlimit:0;stroke-dasharray:16.3675, 0.681975"
               transform="scale(0.5815436,1.7195617)" /><path
               d="m 292.64245,126.69717 2.89907,-0.18161 q 0.0942,0.70627 0.3834,1.07622 0.47084,0.59864 1.34527,0.59864 0.65246,0 1.00223,-0.30268 0.3565,-0.30942 0.3565,-0.713 0,-0.3834 -0.33632,-0.68609 -0.33632,-0.30268 -1.56052,-0.57174 -2.00445,-0.45067 -2.8587,-1.19729 -0.86098,-0.74663 -0.86098,-1.90356 0,-0.76008 0.43722,-1.43272 0.44394,-0.67936 1.32509,-1.06277 0.88788,-0.39013 2.42822,-0.39013 1.89011,0 2.87888,0.70627 0.99551,0.69954 1.18384,2.23316 l -2.87215,0.16816 q -0.11435,-0.66592 -0.4843,-0.9686 -0.36323,-0.30269 -1.00896,-0.30269 -0.53138,0 -0.80044,0.2287 -0.26905,0.22197 -0.26905,0.54483 0,0.23543 0.22197,0.42377 0.21524,0.19506 1.02241,0.36322 1.99773,0.43049 2.8587,0.87443 0.86771,0.43721 1.25783,1.08967 0.39686,0.65246 0.39686,1.45962 0,0.94842 -0.52466,1.74886 -0.52465,0.80043 -1.46634,1.21747 -0.9417,0.41031 -2.37441,0.41031 -2.51566,0 -3.48426,-0.9686 -0.9686,-0.9686 -1.0964,-2.46185 z"
               id="path2734"
               style="font-size:13.7756px;font-family:'Arial Black';-inkscape-font-specification:'Arial Black, ';text-align:center;text-anchor:middle;fill:#d0d043;fill-opacity:0.901961;fill-rule:evenodd;stroke-width:0.681975;stroke-miterlimit:0;stroke-dasharray:16.3675, 0.681975"
               transform="scale(0.5815436,1.7195617)" /><path
               d="m 36.253644,19.451283 h 11.39291 v 2.752804 l -6.199594,6.315258 h 6.581285 v 3.215461 H 35.790988 v -3.053531 l 5.875734,-6.014531 h -5.413078 z"
               id="path2658" /><path
               d="m 63.365301,26.761251 h -9.438187 q 0.12723,1.133508 0.613019,1.688696 0.682418,0.798082 1.781227,0.798082 0.693984,0 1.31857,-0.346992 0.381692,-0.219762 0.821215,-0.77495 l 4.638129,0.427957 q -1.064109,1.850625 -2.567742,2.660274 -1.503633,0.798082 -4.31427,0.798082 -2.440511,0 -3.840047,-0.682418 -1.399535,-0.693985 -2.324847,-2.186051 -0.913746,-1.503633 -0.913746,-3.527754 0,-2.880035 1.839058,-4.661261 1.850625,-1.781227 5.100785,-1.781227 2.637141,0 4.163907,0.798082 1.526765,0.798082 2.324847,2.313281 0.798082,1.515199 0.798082,3.944145 z m -4.788492,-2.255449 q -0.138797,-1.364836 -0.74025,-1.954722 -0.589887,-0.589887 -1.561465,-0.589887 -1.121941,0 -1.792793,0.890613 -0.427957,0.555188 -0.543621,1.653996 z"
               id="path2660" /><path
               d="m 65.528216,19.451283 h 4.383668 v 2.000988 q 0.983144,-1.226039 1.989422,-1.746527 1.006277,-0.532055 2.452078,-0.532055 1.954722,0 3.053531,1.168207 1.110375,1.156641 1.110375,3.585586 v 7.807324 h -4.73066 v -6.754781 q 0,-1.156641 -0.427957,-1.630863 -0.427957,-0.485789 -1.202906,-0.485789 -0.855914,0 -1.387969,0.647718 -0.532055,0.647719 -0.532055,2.324848 v 5.898867 h -4.707527 z"
               id="path2662" /><path
               d="m 80.495148,28.334283 4.672828,-0.439524 q 0.28916,0.832781 0.809648,1.19134 0.520489,0.358559 1.387969,0.358559 0.948445,0 1.468934,-0.404825 0.404824,-0.300726 0.404824,-0.751816 0,-0.508922 -0.532055,-0.786516 -0.381691,-0.196628 -2.024121,-0.485789 -2.452078,-0.427957 -3.41209,-0.786515 -0.948445,-0.370125 -1.60773,-1.237606 -0.647719,-0.86748 -0.647719,-1.977855 0,-1.214473 0.705551,-2.09352 0.705551,-0.879047 1.943156,-1.307004 1.237606,-0.439523 3.319559,-0.439523 2.197617,0 3.238593,0.335426 1.052543,0.335426 1.746528,1.040976 0.70555,0.705551 1.168207,1.908457 l -4.464633,0.439524 q -0.173496,-0.589887 -0.57832,-0.867481 -0.555188,-0.370125 -1.341703,-0.370125 -0.798083,0 -1.168208,0.28916 -0.358558,0.277594 -0.358558,0.682418 0,0.45109 0.462656,0.682418 0.462656,0.231329 2.012555,0.416391 2.34798,0.266027 3.493054,0.74025 1.145075,0.474223 1.746528,1.35327 0.613019,0.879046 0.613019,1.931589 0,1.06411 -0.647718,2.070387 -0.636153,1.006277 -2.024122,1.607731 -1.376402,0.589886 -3.759081,0.589886 -3.365825,0 -4.800059,-0.960011 -1.422668,-0.960012 -1.827492,-2.729672 z"
               id="path2664" /><path
               d="m 109.4343,26.761251 h -9.438192 q 0.127232,1.133508 0.613022,1.688696 0.68242,0.798082 1.78122,0.798082 0.69399,0 1.31857,-0.346992 0.3817,-0.219762 0.82122,-0.77495 l 4.63813,0.427957 q -1.06411,1.850625 -2.56774,2.660274 -1.50364,0.798082 -4.31427,0.798082 -2.440515,0 -3.84005,-0.682418 -1.399535,-0.693985 -2.324848,-2.186051 -0.913746,-1.503633 -0.913746,-3.527754 0,-2.880035 1.839059,-4.661261 1.850625,-1.781227 5.100785,-1.781227 2.63714,0 4.16391,0.798082 1.52676,0.798082 2.32484,2.313281 0.79809,1.515199 0.79809,3.944145 z m -4.7885,-2.255449 q -0.13879,-1.364836 -0.74025,-1.954722 -0.58988,-0.589887 -1.56146,-0.589887 -1.12194,0 -1.79279,0.890613 -0.42796,0.555188 -0.54363,1.653996 z"
               id="path2666" /><path
               d="m 111.60878,27.015712 h 5.03139 v 4.719094 h -5.03139 z"
               id="path2668" /><path
               d="m 128.6461,26.934748 4.4762,0.508921 q -0.37013,1.399536 -1.21447,2.428946 -0.84435,1.017843 -2.16292,1.584597 -1.30701,0.566754 -3.33113,0.566754 -1.95472,0 -3.26172,-0.358558 -1.29544,-0.370125 -2.23232,-1.179774 -0.93688,-0.821215 -1.46893,-1.920023 -0.53206,-1.098809 -0.53206,-2.914735 0,-1.89689 0.64772,-3.157628 0.47422,-0.925313 1.29544,-1.653997 0.82121,-0.740249 1.68869,-1.098808 1.37641,-0.566754 3.52776,-0.566754 3.00726,0 4.58029,1.075676 1.5846,1.075676 2.22075,3.146062 l -4.42993,0.589887 q -0.20819,-0.786516 -0.76338,-1.179773 -0.54362,-0.404825 -1.46894,-0.404825 -1.1682,0 -1.89689,0.844348 -0.71711,0.832781 -0.71711,2.533043 0,1.515199 0.71711,2.301715 0.71712,0.786515 1.8275,0.786515 0.92531,0 1.54989,-0.474222 0.63616,-0.474223 0.94845,-1.457367 z"
               id="path2670" /><path
               d="m 134.70689,25.627744 q 0,-2.810637 1.89689,-4.626563 1.89689,-1.827492 5.12392,-1.827492 3.68968,0 5.57501,2.139785 1.5152,1.723395 1.5152,4.244871 0,2.83377 -1.88533,4.649695 -1.87375,1.80436 -5.19331,1.80436 -2.961,0 -4.7885,-1.503633 -2.24388,-1.862191 -2.24388,-4.881023 z m 4.7191,-0.01157 q 0,1.64243 0.65928,2.428946 0.67085,0.786515 1.67713,0.786515 1.01784,0 1.66556,-0.774949 0.65929,-0.774949 0.65929,-2.486777 0,-1.596164 -0.65929,-2.371114 -0.65928,-0.786515 -1.63086,-0.786515 -1.02941,0 -1.70026,0.798082 -0.67085,0.786515 -0.67085,2.405812 z"
               id="path2672" /><path
               d="m 151.11962,19.451283 h 4.39524 v 1.792793 q 0.94844,-1.121942 1.90846,-1.596164 0.97157,-0.474223 2.33641,-0.474223 1.46893,0 2.32485,0.520488 0.85591,0.520489 1.39953,1.549899 1.11038,-1.202907 2.02412,-1.630864 0.91375,-0.439523 2.25545,-0.439523 1.97786,0 3.08823,1.179773 1.11038,1.168207 1.11038,3.666551 v 7.714793 h -4.7191 V 24.73713 q 0,-0.832781 -0.32385,-1.237605 -0.47423,-0.636152 -1.17978,-0.636152 -0.83278,0 -1.3417,0.601453 -0.50892,0.601453 -0.50892,1.93159 v 6.33839 h -4.7191 v -6.766348 q 0,-0.809648 -0.0925,-1.098808 -0.15036,-0.462656 -0.52049,-0.74025 -0.37012,-0.28916 -0.86748,-0.28916 -0.80965,0 -1.33013,0.613019 -0.52049,0.61302 -0.52049,2.012555 v 6.268992 h -4.7191 z"
               id="path2674" /></g></g></g></g></g></svg>
