<?xml version="1.0" encoding="UTF-8" standalone="no"?>
<!-- Created with Inkscape (http://www.inkscape.org/) -->

<svg
   width="147.29362mm"
   height="72.995621mm"
   viewBox="0 0 147.29362 72.995621"
   version="1.1"
   id="svg5"
   xml:space="preserve"
   xmlns:inkscape="http://www.inkscape.org/namespaces/inkscape"
   xmlns:sodipodi="http://sodipodi.sourceforge.net/DTD/sodipodi-0.dtd"
   xmlns="http://www.w3.org/2000/svg"
   xmlns:svg="http://www.w3.org/2000/svg"><sodipodi:namedview
     id="namedview7"
     pagecolor="#ffffff"
     bordercolor="#000000"
     borderopacity="0.25"
     inkscape:showpageshadow="2"
     inkscape:pageopacity="0.0"
     inkscape:pagecheckerboard="0"
     inkscape:deskcolor="#d1d1d1"
     inkscape:document-units="mm"
     showgrid="false" /><defs
     id="defs2" /><g
     inkscape:label="Ebene 1"
     inkscape:groupmode="layer"
     id="layer1"
     transform="translate(-30.359759,-117.35675)"><g
       id="g332"
       transform="translate(-4.7411626,57.90992)"
       inkscape:export-filename="LogoEZ30.svg"
       inkscape:export-xdpi="97"
       inkscape:export-ydpi="97"><path
         style="fill:#e0e0e0;stroke-width:0.264583"
         d="m 42.267346,129.00206 c 0,-1.81901 0.04227,-2.56315 0.09394,-1.65364 0.05166,0.9095 0.05166,2.39778 0,3.30729 -0.05167,0.9095 -0.09394,0.16536 -0.09394,-1.65365 z m 6.879166,0 c 0,-1.81901 0.04227,-2.56315 0.09394,-1.65364 0.05167,0.9095 0.05167,2.39778 0,3.30729 -0.05166,0.9095 -0.09394,0.16536 -0.09394,-1.65365 z m 15.610417,0 c 0,-1.81901 0.04227,-2.56315 0.09394,-1.65364 0.05167,0.9095 0.05167,2.39778 0,3.30729 -0.05166,0.9095 -0.09394,0.16536 -0.09394,-1.65365 z m 4.7625,0 c 0,-1.81901 0.04227,-2.56315 0.09394,-1.65364 0.05167,0.9095 0.05167,2.39778 0,3.30729 -0.05166,0.9095 -0.09394,0.16536 -0.09394,-1.65365 z m 14.552083,0 c 0,-1.81901 0.04227,-2.56315 0.09394,-1.65364 0.05167,0.9095 0.05167,2.39778 0,3.30729 -0.05166,0.9095 -0.09394,0.16536 -0.09394,-1.65365 z m 10.318749,0 c 0,-1.81901 0.04227,-2.56315 0.09394,-1.65364 0.05166,0.9095 0.05166,2.39778 0,3.30729 -0.05166,0.9095 -0.09394,0.16536 -0.09394,-1.65365 z m 47.889579,0 c 0,-1.81901 0.0423,-2.56315 0.0939,-1.65364 0.0517,0.9095 0.0517,2.39778 0,3.30729 -0.0517,0.9095 -0.0939,0.16536 -0.0939,-1.65365 z m 15.8731,0.26459 c 0,-1.67349 0.043,-2.3581 0.0955,-1.52136 0.0525,0.83675 0.0525,2.20597 0,3.04271 -0.0525,0.83674 -0.0955,0.15214 -0.0955,-1.52135 z m 7.67482,-0.26459 c 0,-1.81901 0.0423,-2.56315 0.0939,-1.65364 0.0517,0.9095 0.0517,2.39778 0,3.30729 -0.0517,0.9095 -0.0939,0.16536 -0.0939,-1.65365 z m 8.99393,0.26459 c 0,-1.67349 0.043,-2.3581 0.0955,-1.52136 0.0525,0.83675 0.0525,2.20597 0,3.04271 -0.0525,0.83674 -0.0955,0.15214 -0.0955,-1.52135 z m -57.03508,2.46509 c 0.19099,-0.0764 0.4192,-0.067 0.50712,0.0209 0.0879,0.0879 -0.0684,0.15045 -0.34727,0.13896 -0.30822,-0.0127 -0.37092,-0.0754 -0.15985,-0.15985 z m 1.90169,0.0808 c 0,-0.0549 0.20836,-0.2633 0.46302,-0.46302 0.41965,-0.32911 0.42901,-0.31975 0.0999,0.0999 -0.34565,0.44073 -0.56292,0.58089 -0.56292,0.36312 z m 60.27539,-0.0808 c 0.191,-0.0764 0.4192,-0.067 0.50712,0.0209 0.0879,0.0879 -0.0684,0.15045 -0.34727,0.13896 -0.30822,-0.0127 -0.37092,-0.0754 -0.15985,-0.15985 z m -42.20805,-1.27447 c 0.002,-0.7276 0.0534,-0.99386 0.11419,-0.59167 0.0608,0.40218 0.0592,0.99749 -0.004,1.32291 -0.0628,0.32542 -0.11256,-0.004 -0.11058,-0.73124 z m 23.54792,0 c 0.002,-0.7276 0.0534,-0.99386 0.11418,-0.59167 0.0608,0.40218 0.0592,0.99749 -0.004,1.32291 -0.0628,0.32542 -0.11255,-0.004 -0.11057,-0.73124 z m -38.34781,-2.51354 c 0,-1.23693 0.0456,-1.74294 0.10128,-1.12448 0.0557,0.61846 0.0557,1.63049 0,2.24896 -0.0557,0.61846 -0.10128,0.11245 -0.10128,-1.12448 z m 3.43958,0 c 0,-1.23693 0.0456,-1.74294 0.10128,-1.12448 0.0557,0.61846 0.0557,1.63049 0,2.24896 -0.0557,0.61846 -0.10128,0.11245 -0.10128,-1.12448 z m 51.18711,1.93593 c 0.191,-0.0764 0.4192,-0.067 0.50712,0.0209 0.0879,0.0879 -0.0684,0.15045 -0.34727,0.13897 -0.30822,-0.0127 -0.37092,-0.0754 -0.15985,-0.15985 z m -91.36393,-1.14218 -1.5875,-0.17563 1.505739,-0.0445 c 0.828156,-0.0245 1.579324,0.0746 1.669261,0.22011 0.08994,0.14552 0.12673,0.24457 0.08176,0.2201 -0.04497,-0.0245 -0.796137,-0.12351 -1.669262,-0.2201 z m 43.72548,0.0774 c 0.32912,-0.0633 0.80537,-0.0609 1.05833,0.005 0.25297,0.0662 -0.0163,0.118 -0.59839,0.11507 -0.58209,-0.003 -0.78906,-0.0571 -0.45994,-0.12041 z m -57.148345,-0.2692 c 0.475549,-0.0589 1.189924,-0.0577 1.5875,0.003 0.397576,0.0604 0.0085,0.10855 -0.864635,0.10706 -0.873125,-0.002 -1.198414,-0.0509 -0.722865,-0.10976 z m 64.989665,-0.17994 c -0.0784,-0.20443 -0.0938,-0.76997 -0.034,-1.25677 0.0992,-0.80829 0.11227,-0.78872 0.15094,0.22557 l 0.0423,1.11065 1.38906,0.0972 1.38907,0.0972 -1.39737,0.0489 c -0.99089,0.0347 -1.43886,-0.0592 -1.54,-0.32275 z m 10.68117,0.17994 c 0.47555,-0.0589 1.18992,-0.0577 1.5875,0.003 0.39757,0.0604 0.008,0.10855 -0.86464,0.10706 -0.87312,-0.002 -1.19841,-0.0509 -0.72286,-0.10976 z m 12.86675,-0.17994 c -0.0784,-0.20443 -0.0938,-0.76997 -0.034,-1.25677 0.0992,-0.80829 0.11226,-0.78872 0.15093,0.22557 l 0.0423,1.11065 1.38906,0.0972 1.38906,0.0972 -1.39736,0.0489 c -0.9909,0.0347 -1.43886,-0.0592 -1.54,-0.32275 z m -14.19441,-4.30146 c 0.1819,-0.0734 0.47956,-0.0734 0.66146,0 0.1819,0.0734 0.0331,0.13346 -0.33073,0.13346 -0.3638,0 -0.51263,-0.0601 -0.33073,-0.13346 z m 6.35,0 c 0.1819,-0.0734 0.47956,-0.0734 0.66146,0 0.1819,0.0734 0.0331,0.13346 -0.33073,0.13346 -0.3638,0 -0.51263,-0.0601 -0.33073,-0.13346 z M 63.265906,123.7997 c 0.181902,-0.0734 0.479558,-0.0734 0.661459,0 0.181901,0.0734 0.03307,0.13345 -0.330729,0.13345 -0.363802,0 -0.512631,-0.0601 -0.33073,-0.13345 z m 7.14375,0 c 0.181901,-0.0734 0.479558,-0.0734 0.661459,0 0.181901,0.0734 0.03307,0.13345 -0.33073,0.13345 -0.363802,0 -0.51263,-0.0601 -0.330729,-0.13345 z m 2.133203,-0.27009 c 0.190995,-0.0764 0.419198,-0.067 0.507119,0.0209 0.08792,0.0879 -0.06835,0.15045 -0.347265,0.13897 -0.308227,-0.0127 -0.37092,-0.0754 -0.159854,-0.15985 z m 76.588321,-3.71824 c 0.69561,-0.0547 1.76718,-0.054 2.38125,0.002 0.61407,0.0555 0.0449,0.10023 -1.26475,0.0994 -1.30969,-7.9e-4 -1.81211,-0.0462 -1.1165,-0.10088 z m -3.29874,-0.25051 c 0.191,-0.0764 0.4192,-0.067 0.50712,0.0209 0.0879,0.0879 -0.0684,0.15045 -0.34727,0.13897 -0.30822,-0.0127 -0.37091,-0.0754 -0.15985,-0.15985 z m 8.20208,0 c 0.191,-0.0764 0.4192,-0.067 0.50712,0.0209 0.0879,0.0879 -0.0684,0.15045 -0.34726,0.13897 -0.30823,-0.0127 -0.37092,-0.0754 -0.15986,-0.15985 z m -9.78958,-0.26459 c 0.191,-0.0764 0.4192,-0.067 0.50712,0.0209 0.0879,0.0879 -0.0684,0.15045 -0.34727,0.13896 -0.30822,-0.0127 -0.37091,-0.0754 -0.15985,-0.15985 z m -78.994659,-1.86408 c 0.545704,-0.0571 1.438672,-0.0571 1.984375,0 0.545704,0.0571 0.09922,0.10378 -0.992187,0.10378 -1.091406,0 -1.537891,-0.0467 -0.992188,-0.10378 z m -3.026171,-0.25258 c 0.190994,-0.0764 0.419198,-0.067 0.507119,0.0209 0.08792,0.0879 -0.06835,0.15045 -0.347266,0.13897 -0.308226,-0.0127 -0.370919,-0.0754 -0.159853,-0.15985 z m 7.672916,0 c 0.190995,-0.0764 0.419198,-0.067 0.507119,0.0209 0.08792,0.0879 -0.06835,0.15045 -0.347266,0.13897 -0.308226,-0.0127 -0.370919,-0.0754 -0.159853,-0.15985 z m -23.267472,-0.54687 c -0.329108,-0.41964 -0.319749,-0.429 0.09989,-0.0999 0.254662,0.19973 0.463021,0.40809 0.463021,0.46303 0,0.21776 -0.217272,0.0776 -0.562915,-0.36313 z m 24.854972,0.28228 c 0.190995,-0.0764 0.419198,-0.067 0.507119,0.0209 0.08792,0.0879 -0.06835,0.15045 -0.347266,0.13896 -0.308226,-0.0127 -0.370919,-0.0754 -0.159853,-0.15985 z m -26.693332,-1.86978 -0.641433,-0.7276 0.727604,0.64143 c 0.680056,0.59952 0.848939,0.81378 0.641433,0.81378 -0.04739,0 -0.374816,-0.32743 -0.727604,-0.72761 z m 129.401276,-1.48896 c 0,-0.0549 0.20836,-0.2633 0.46302,-0.46302 0.41964,-0.32911 0.429,-0.31975 0.0999,0.0999 -0.34564,0.44073 -0.56291,0.58088 -0.56291,0.36312 z m -123.065,-1.15687 c -0.329107,-0.41965 -0.319749,-0.42901 0.09989,-0.0999 0.440729,0.34565 0.580887,0.56292 0.363126,0.56292 -0.05494,0 -0.263302,-0.20836 -0.463021,-0.46302 z m 68.9047,-2.4474 c 0,-0.80036 0.0496,-1.12778 0.11022,-0.7276 0.0606,0.40018 0.0606,1.05502 0,1.45521 -0.0606,0.40018 -0.11022,0.0728 -0.11022,-0.72761 z m 0.82162,-0.59531 -0.50403,-0.59531 0.59531,0.50403 c 0.32742,0.27721 0.59531,0.5451 0.59531,0.59531 0,0.21173 -0.21293,0.0554 -0.68659,-0.50403 z m 1.86477,-1.85208 -1.04588,-1.12448 1.12448,1.04588 c 1.04575,0.97266 1.24606,1.20307 1.04588,1.20307 -0.0432,0 -0.54924,-0.50601 -1.12448,-1.12447 z m -31.208383,-1.52136 c 0.568388,-0.58208 1.092967,-1.05833 1.165727,-1.05833 0.07276,0 -0.332755,0.47625 -0.901144,1.05833 -0.568388,0.58208 -1.092967,1.05833 -1.165728,1.05833 -0.07276,0 0.332756,-0.47625 0.901145,-1.05833 z m 8.863543,0.71096 c 0,-0.0455 0.38695,-0.43249 0.85989,-0.8599 l 0.8599,-0.7771 -0.77711,0.8599 c -0.72437,0.80154 -0.94268,0.98151 -0.94268,0.7771 z m 19.57916,-2.56304 c 0,-0.43656 0.0984,-0.79375 0.21876,-0.79375 0.12032,0 0.16634,0.35719 0.10227,0.79375 -0.0641,0.43656 -0.16252,0.79375 -0.21876,0.79375 -0.0562,0 -0.10227,-0.35719 -0.10227,-0.79375 z m 11.31403,0.60662 c 0.32911,-0.0633 0.80536,-0.0609 1.05833,0.005 0.25297,0.0662 -0.0163,0.11801 -0.5984,0.11507 -0.58208,-0.003 -0.78905,-0.0571 -0.45993,-0.12041 z m -27.71819,-1.53266 c 0.34177,-0.36381 0.68094,-0.66146 0.7537,-0.66146 0.0728,0 -0.14734,0.29765 -0.48912,0.66146 -0.34177,0.3638 -0.68094,0.66145 -0.7537,0.66145 -0.0728,0 0.14734,-0.29765 0.48912,-0.66145 z m 1.98437,-2.24896 c 0.26339,-0.29104 0.53842,-0.52917 0.61119,-0.52917 0.0728,0 -0.0832,0.23813 -0.3466,0.52917 -0.26339,0.29104 -0.53843,0.52916 -0.61119,0.52916 -0.0728,0 0.0832,-0.23812 0.3466,-0.52916 z m -24.006195,-0.19175 c 0.475549,-0.0589 1.189924,-0.0577 1.5875,0.003 0.397576,0.0604 0.0085,0.10855 -0.864635,0.10706 -0.873125,-0.002 -1.198414,-0.0509 -0.722865,-0.10976 z m 77.787495,0 c 0.47555,-0.0589 1.18993,-0.0577 1.5875,0.003 0.39758,0.0604 0.008,0.10855 -0.86463,0.10706 -0.87313,-0.002 -1.19842,-0.0509 -0.72287,-0.10976 z m -39.28944,-1.131169 c 0,-0.654844 0.0516,-0.922734 0.11466,-0.595312 0.0631,0.327421 0.0631,0.863203 0,1.190621 -0.0631,0.32743 -0.11466,0.0595 -0.11466,-0.595309 z m -50.43732,0.325861 c -0.06911,-0.111821 0.340585,-0.158845 0.910429,-0.104503 0.569841,0.05434 1.036076,0.145831 1.036076,0.203311 0,0.19707 -1.820761,0.10465 -1.946505,-0.09881 z m 78.34803,0.01617 c 0.32911,-0.06329 0.80536,-0.06088 1.05833,0.0053 0.25297,0.06623 -0.0163,0.118008 -0.5984,0.115068 -0.58208,-0.003 -0.78905,-0.0571 -0.45993,-0.120408 z M 107.78205,98.44264 c 0.34178,-0.363802 0.68094,-0.661458 0.7537,-0.661458 0.0728,0 -0.14734,0.297656 -0.48912,0.661458 -0.34177,0.363802 -0.68093,0.661458 -0.7537,0.661458 -0.0728,0 0.14735,-0.297656 0.48912,-0.661458 z m 73.83964,-0.551214 c 0.0127,-0.308227 0.0754,-0.37092 0.15985,-0.159854 0.0764,0.190995 0.067,0.419198 -0.0209,0.507119 -0.0879,0.08792 -0.15045,-0.06835 -0.13896,-0.347265 z m -82.306305,-0.21014 c 0,-0.05494 0.208359,-0.2633 0.463021,-0.463021 0.419644,-0.329108 0.429004,-0.319749 0.0999,0.0999 -0.345644,0.44073 -0.562917,0.580887 -0.562917,0.363125 z m 82.591775,-1.752188 c 0,-0.363802 0.06,-0.51263 0.13345,-0.330729 0.0734,0.181901 0.0734,0.479557 0,0.661458 -0.0734,0.181902 -0.13345,0.03307 -0.13345,-0.330729 z m -5.81103,-0.926041 c 0.005,-0.436563 0.0647,-0.583126 0.13177,-0.325695 0.0671,0.257432 0.0627,0.61462 -0.01,0.79375 -0.0725,0.179131 -0.12737,-0.03149 -0.12197,-0.468055 z M 35.307108,94.981063 c 0.01269,-0.308227 0.07539,-0.37092 0.159852,-0.159854 0.07643,0.190995 0.06703,0.419198 -0.02089,0.507119 -0.08792,0.08792 -0.150453,-0.06835 -0.138964,-0.347265 z m 5.55625,-0.264584 c 0.01269,-0.308226 0.07539,-0.370919 0.159852,-0.159853 0.07643,0.190995 0.06703,0.419198 -0.02089,0.507119 -0.08792,0.08792 -0.150453,-0.06835 -0.138964,-0.347266 z m 61.097862,-0.210148 c 0,-0.05494 0.20836,-0.2633 0.46302,-0.46302 0.41964,-0.329108 0.429,-0.319749 0.0999,0.0999 -0.34565,0.440729 -0.56292,0.580887 -0.56292,0.363124 z M 40.671801,90.769769 c -7.93e-4,-1.309687 0.04393,-1.878827 0.09942,-1.264753 0.05549,0.614071 0.05615,1.685634 0.0015,2.38125 -0.05468,0.695613 -0.100084,0.193191 -0.100891,-1.116497 z m 52.579056,1.565452 c 0.0127,-0.308226 0.07539,-0.370919 0.159851,-0.159853 0.07643,0.190995 0.06703,0.419198 -0.02088,0.507119 -0.08792,0.08792 -0.150452,-0.06835 -0.138964,-0.347266 z m 74.571583,-0.308681 -0.64143,-0.727604 0.7276,0.641432 c 0.40018,0.35279 0.72761,0.680212 0.72761,0.727604 0,0.207507 -0.21426,0.03862 -0.81378,-0.641432 z M 35.100922,90.902061 c 0,-0.800365 0.0496,-1.127787 0.110223,-0.727604 0.06062,0.400182 0.06062,1.055026 0,1.455208 -0.06062,0.400182 -0.110223,0.07276 -0.110223,-0.727604 z m 77.708208,1.22302 c 0,-0.05494 0.20836,-0.2633 0.46303,-0.46302 0.41964,-0.329108 0.429,-0.319749 0.0999,0.0999 -0.34564,0.440729 -0.56292,0.580887 -0.56292,0.363124 z m 37.70313,-0.693854 c 0.26339,-0.291041 0.53842,-0.529166 0.61118,-0.529166 0.0728,0 -0.0832,0.238125 -0.3466,0.529166 -0.26339,0.291042 -0.53842,0.529167 -0.61118,0.529167 -0.0728,0 0.0832,-0.238125 0.3466,-0.529167 z M 89.227468,91.23279 c -0.329107,-0.419645 -0.319749,-0.429003 0.0999,-0.0999 0.254662,0.199721 0.463021,0.40808 0.463021,0.463021 0,0.217762 -0.217273,0.0776 -0.562917,-0.363125 z m 57.712912,0.359037 c 0,-0.05719 0.18478,-0.17489 0.41062,-0.261554 0.23546,-0.09035 0.34166,-0.046 0.24897,0.103984 -0.15538,0.25141 -0.65959,0.371859 -0.65959,0.15757 z m 29.14594,-1.483516 c 0,-0.363802 0.0601,-0.512631 0.13346,-0.330729 0.0734,0.181901 0.0734,0.479557 0,0.661458 -0.0734,0.181901 -0.13346,0.03307 -0.13346,-0.330729 z m -31.01805,-1.256771 -0.64143,-0.727604 0.72761,0.641432 c 0.40018,0.35279 0.7276,0.680212 0.7276,0.727604 0,0.207507 -0.21426,0.03862 -0.81378,-0.641432 z m 36.83889,-0.330729 c 0,-0.363802 0.06,-0.512631 0.13345,-0.33073 0.0734,0.181902 0.0734,0.479558 0,0.661459 -0.0734,0.181901 -0.13345,0.03307 -0.13345,-0.330729 z m -6.1063,-0.683506 c 0.0127,-0.308227 0.0754,-0.37092 0.15985,-0.159854 0.0764,0.190995 0.067,0.419198 -0.0209,0.507119 -0.0879,0.08792 -0.15045,-0.06835 -0.13896,-0.347265 z M 35.307108,86.778971 c 0.01269,-0.308226 0.07539,-0.370919 0.159852,-0.159853 0.07643,0.190995 0.06703,0.419198 -0.02089,0.507119 -0.08792,0.08792 -0.150453,-0.06835 -0.138964,-0.347266 z M 181.62169,86.514388 c 0.0127,-0.308227 0.0754,-0.37092 0.15985,-0.159853 0.0764,0.190994 0.067,0.419197 -0.0209,0.507118 -0.0879,0.08792 -0.15045,-0.06835 -0.13896,-0.347265 z m -63.3886,-1.168577 c 0.26339,-0.291042 0.53842,-0.529167 0.61118,-0.529167 0.0728,0 -0.0832,0.238125 -0.34659,0.529167 -0.26339,0.291041 -0.53843,0.529166 -0.61119,0.529166 -0.0728,0 0.0832,-0.238125 0.3466,-0.529166 z M 35.571691,84.926888 c 0.0127,-0.308227 0.07539,-0.37092 0.159852,-0.159854 0.07643,0.190995 0.06703,0.419198 -0.02089,0.507119 -0.08792,0.08792 -0.150453,-0.06835 -0.138965,-0.347265 z m 73.797859,0.319026 c 0,-0.05494 0.20836,-0.2633 0.46302,-0.46302 0.41965,-0.329108 0.42901,-0.319749 0.0999,0.0999 -0.34565,0.440729 -0.56292,0.580887 -0.56292,0.363124 z m 2.64583,-3.174998 c 0,-0.05494 0.20836,-0.263302 0.46303,-0.463021 0.41964,-0.329108 0.429,-0.319749 0.0999,0.0999 -0.34564,0.440729 -0.56292,0.580887 -0.56292,0.363126 z m 12.03855,-2.810522 c 0.86401,-0.873125 1.63046,-1.5875 1.70322,-1.5875 0.0728,0 -0.57463,0.714375 -1.43864,1.5875 -0.86402,0.873125 -1.63047,1.5875 -1.70323,1.5875 -0.0728,0 0.57463,-0.714375 1.43865,-1.5875 z m -10.45105,0.958438 c 0,-0.05494 0.20836,-0.263301 0.46303,-0.463021 0.41964,-0.329107 0.429,-0.319749 0.0999,0.0999 -0.34564,0.440729 -0.56292,0.580887 -0.56292,0.363126 z m -16.153821,-1.421459 -0.911799,-0.992188 0.992187,0.911799 c 0.545704,0.501489 0.992188,0.947973 0.992188,0.992187 0,0.202041 -0.223896,0.01171 -1.072576,-0.911798 z m 0.38598,-2.513542 -0.504029,-0.595313 0.595312,0.504029 c 0.559446,0.473661 0.715762,0.686596 0.504029,0.686596 -0.05021,0 -0.318098,-0.26789 -0.595312,-0.595312 z m -3.439584,-0.264583 -0.504028,-0.595313 0.595312,0.504028 c 0.559446,0.473662 0.715762,0.686597 0.504029,0.686597 -0.05021,0 -0.318098,-0.26789 -0.595313,-0.595312 z m 32.965765,0.230834 c 0,-0.05494 0.20836,-0.263302 0.46302,-0.463021 0.41964,-0.329107 0.429,-0.319749 0.0999,0.0999 -0.34564,0.440729 -0.56291,0.580887 -0.56291,0.363126 z m 18.58755,-0.826147 c 0.003,-0.582083 0.0571,-0.789054 0.12041,-0.459936 0.0633,0.329119 0.0609,0.805369 -0.005,1.058333 -0.0662,0.252965 -0.11801,-0.01631 -0.11507,-0.598397 z m 23.97661,-0.595312 c -0.3291,-0.419644 -0.31975,-0.429003 0.0999,-0.09989 0.25466,0.199719 0.46302,0.408078 0.46302,0.463021 0,0.217761 -0.21727,0.0776 -0.56292,-0.363126 z M 46.398719,73.075082 c 0,-0.05494 0.20836,-0.263302 0.463021,-0.463021 0.419644,-0.329107 0.429002,-0.319749 0.0999,0.0999 -0.345644,0.440729 -0.562916,0.580887 -0.562916,0.363126 z M 167.27955,72.182789 c -0.32911,-0.419644 -0.31975,-0.429002 0.0999,-0.0999 0.44073,0.345644 0.58088,0.562916 0.36312,0.562916 -0.0549,0 -0.2633,-0.208359 -0.46302,-0.463021 z m -74.207011,-0.661458 -0.504029,-0.595313 0.595312,0.504028 c 0.559446,0.473662 0.715762,0.686597 0.504029,0.686597 -0.05021,0 -0.318098,-0.26789 -0.595312,-0.595312 z M 48.250803,70.958415 c 0,-0.05494 0.208359,-0.263302 0.46302,-0.463021 0.419644,-0.329107 0.429003,-0.319749 0.0999,0.09989 -0.345643,0.440729 -0.562915,0.580887 -0.562915,0.363126 z M 174.4233,70.595289 c -0.32911,-0.419644 -0.31975,-0.429002 0.0999,-0.09989 0.44073,0.345644 0.58088,0.562916 0.36312,0.562916 -0.0549,0 -0.2633,-0.208359 -0.46302,-0.463021 z M 42.826844,69.735393 c 0.263389,-0.291041 0.538421,-0.529166 0.611181,-0.529166 0.07276,0 -0.08321,0.238125 -0.346597,0.529166 -0.263389,0.291042 -0.538421,0.529167 -0.611181,0.529167 -0.07276,0 0.08321,-0.238125 0.346597,-0.529167 z m 19.380729,-1.520929 c 2.510234,-0.04349 6.617891,-0.04349 9.128125,0 2.510234,0.04349 0.456406,0.07907 -4.564062,0.07907 -5.020469,0 -7.074297,-0.03558 -4.564063,-0.07907 z M 45.472678,67.08956 c 0.263389,-0.291042 0.53842,-0.529167 0.611181,-0.529167 0.07276,0 -0.08321,0.238125 -0.346598,0.529167 -0.263389,0.291041 -0.53842,0.529166 -0.611181,0.529166 -0.07276,0 0.08321,-0.238125 0.346598,-0.529166 z M 170.71913,66.891122 c -0.3291,-0.419644 -0.31975,-0.429002 0.0999,-0.09989 0.44073,0.345644 0.58089,0.562916 0.36312,0.562916 -0.0549,0 -0.2633,-0.208359 -0.46302,-0.463021 z m -16.15544,-0.51147 c 0.191,-0.07643 0.4192,-0.06703 0.50712,0.02089 0.0879,0.08792 -0.0683,0.150453 -0.34727,0.138965 -0.30822,-0.0127 -0.37092,-0.07539 -0.15985,-0.159853 z m -4.63876,-0.278648 c 0.69561,-0.05468 1.76718,-0.05402 2.38125,0.0015 0.61407,0.05549 0.0449,0.10023 -1.26475,0.09942 -1.30969,-7.94e-4 -1.81211,-0.04621 -1.1165,-0.10089 z M 62.753276,63.998402 c 0.190995,-0.07643 0.419198,-0.06703 0.507119,0.02089 0.08792,0.08792 -0.06835,0.150453 -0.347265,0.138965 -0.308227,-0.01269 -0.37092,-0.07539 -0.159854,-0.159853 z m 9.525,0 c 0.190995,-0.07643 0.419198,-0.06703 0.507119,0.02089 0.08792,0.08792 -0.06835,0.150453 -0.347266,0.138965 -0.308226,-0.01269 -0.370919,-0.07539 -0.159853,-0.159853 z m -7.287543,-0.267196 c 0.257432,-0.06708 0.614619,-0.06267 0.79375,0.0098 0.179131,0.07248 -0.03149,0.127362 -0.468056,0.121969 -0.436562,-0.0054 -0.583126,-0.06469 -0.325694,-0.131773 z m 4.889757,0.0081 c 0.181901,-0.0734 0.479557,-0.0734 0.661458,0 0.181901,0.0734 0.03307,0.133452 -0.330729,0.133452 -0.363802,0 -0.51263,-0.06005 -0.330729,-0.133452 z m 0.810286,-3.974262 c 0.190995,-0.07643 0.419198,-0.06703 0.507119,0.02089 0.08792,0.08792 -0.06835,0.150453 -0.347266,0.138964 -0.308226,-0.0127 -0.370919,-0.07539 -0.159853,-0.159852 z m 74.877084,0 c 0.19099,-0.07643 0.4192,-0.06703 0.50712,0.02089 0.0879,0.08792 -0.0684,0.150453 -0.34727,0.138964 -0.30823,-0.0127 -0.37092,-0.07539 -0.15985,-0.159852 z m 8.99583,0 c 0.191,-0.07643 0.4192,-0.06703 0.50712,0.02089 0.0879,0.08792 -0.0683,0.150453 -0.34727,0.138964 -0.30822,-0.0127 -0.37092,-0.07539 -0.15985,-0.159852 z M 63.001323,59.505998 c 0.181901,-0.0734 0.479557,-0.0734 0.661458,0 0.181902,0.0734 0.03307,0.133452 -0.330729,0.133452 -0.363802,0 -0.51263,-0.06005 -0.330729,-0.133452 z m 5.291667,0 c 0.181901,-0.0734 0.479557,-0.0734 0.661458,0 0.181901,0.0734 0.03307,0.133452 -0.330729,0.133452 -0.363802,0 -0.51263,-0.06005 -0.330729,-0.133452 z m 79.90416,-0.0115 c 0.32743,-0.06306 0.86321,-0.06306 1.19063,0 0.32742,0.06306 0.0595,0.114662 -0.59531,0.114662 -0.65485,0 -0.92274,-0.0516 -0.59532,-0.114662 z m 3.04635,-0.0031 c 0.40218,-0.06081 0.9975,-0.05919 1.32292,0.0036 0.32542,0.0628 -0.004,0.11256 -0.73124,0.110574 -0.72761,-0.002 -0.99386,-0.05337 -0.59168,-0.114186 z"
         id="path346" /><path
         style="fill:#d2d2d2;stroke-width:0.264583"
         d="m 48.184657,132.26642 c 0.181901,-0.0734 0.479557,-0.0734 0.661458,0 0.181901,0.0734 0.03307,0.13345 -0.330729,0.13345 -0.363802,0 -0.51263,-0.06 -0.330729,-0.13345 z m 3.307291,-0.007 c 0.254662,-0.0665 0.671381,-0.0665 0.926042,0 0.254661,0.0666 0.0463,0.12101 -0.463021,0.12101 -0.509323,0 -0.717682,-0.0545 -0.463021,-0.12101 z m 9.986643,-2.93865 0.130913,-3.09667 0.07692,2.8878 c 0.0423,1.58828 -0.01662,2.98179 -0.130913,3.09667 -0.114306,0.11488 -0.148921,-1.18463 -0.07692,-2.8878 z m 10.452419,2.96296 c 1.21783,-0.19793 3.248401,-0.22409 3.134503,-0.0404 -0.06766,0.10914 -0.91967,0.18222 -1.893347,0.1624 -0.973678,-0.0198 -1.532197,-0.0747 -1.241156,-0.12203 z m 7.614754,-0.0367 c 0.695616,-0.0547 1.767178,-0.054 2.38125,0.002 0.614074,0.0555 0.04493,0.10023 -1.264754,0.0994 -1.309687,-7.9e-4 -1.81211,-0.0462 -1.116496,-0.10089 z m 5.410075,0.004 c 0.469696,-0.0584 1.303134,-0.0594 1.852083,-0.002 0.548947,0.0573 0.164651,0.1051 -0.853995,0.10627 -1.018646,0.001 -1.467787,-0.0457 -0.998088,-0.10413 z m 8.472567,0.0157 c 0.181901,-0.0734 0.479557,-0.0734 0.661458,0 0.181901,0.0734 0.03307,0.13346 -0.330729,0.13346 -0.363802,0 -0.51263,-0.0601 -0.330729,-0.13346 z m 7.589334,-0.17167 c -0.0732,-0.1908 -0.0986,-1.70885 -0.0563,-3.37344 l 0.0768,-3.02653 0.13075,3.37392 c 0.0719,1.85565 0.0973,3.3737 0.0563,3.37343 -0.0409,-2.6e-4 -0.13435,-0.15658 -0.20757,-0.34738 z m 4.05233,0.17167 c 0.1819,-0.0734 0.47956,-0.0734 0.66146,0 0.1819,0.0734 0.0331,0.13346 -0.33073,0.13346 -0.3638,0 -0.51263,-0.0601 -0.33073,-0.13346 z m 6.52344,-0.19137 c -0.0774,-0.20164 -0.10084,-0.88625 -0.0521,-1.52136 0.0857,-1.11759 0.0926,-1.10578 0.21513,0.36697 0.1285,1.54447 0.0904,1.81458 -0.16298,1.15439 z m 17.20548,0.0197 c -0.0732,-0.1908 -0.0986,-1.70885 -0.0563,-3.37344 l 0.0768,-3.02653 0.13075,3.37392 c 0.0719,1.85565 0.0973,3.3737 0.0563,3.37343 -0.041,-2.6e-4 -0.13435,-0.15658 -0.20757,-0.34738 z m 9.3381,0.15594 c 0.46969,-0.0584 1.30313,-0.0594 1.85208,-0.002 0.54895,0.0573 0.16465,0.1051 -0.85399,0.10627 -1.01865,0.001 -1.46779,-0.0457 -0.99809,-0.10414 z m 5.02708,0 c 0.4697,-0.0584 1.30313,-0.0594 1.85208,-0.002 0.54895,0.0573 0.16465,0.1051 -0.85399,0.10627 -1.01865,0.001 -1.46779,-0.0457 -0.99809,-0.10414 z m 3.89107,-0.15594 c -0.0732,-0.1908 -0.0949,-1.70885 -0.0482,-3.37344 l 0.0849,-3.02653 0.0566,3.22905 0.0566,3.22906 1.78593,0.0926 1.78594,0.0926 -1.79424,0.0518 c -1.27468,0.0368 -1.83279,-0.0486 -1.92736,-0.29508 z m 8.28566,0.17167 c 0.18191,-0.0734 0.47956,-0.0734 0.66146,0 0.1819,0.0734 0.0331,0.13346 -0.33073,0.13346 -0.3638,0 -0.51263,-0.0601 -0.33073,-0.13346 z m 6.21771,-0.0175 c 0.54571,-0.0571 1.43867,-0.0571 1.98438,0 0.5457,0.0571 0.0992,0.10378 -0.99219,0.10378 -1.09141,0 -1.53789,-0.0467 -0.99219,-0.10378 z m 8.33438,0.0175 c 0.1819,-0.0734 0.47955,-0.0734 0.66146,0 0.1819,0.0734 0.0331,0.13346 -0.33073,0.13346 -0.36381,0 -0.51263,-0.0601 -0.33073,-0.13346 z m -49.63375,-3.26434 c 0,-0.3638 0.0601,-0.51263 0.13346,-0.33073 0.0734,0.1819 0.0734,0.47956 0,0.66146 -0.0734,0.1819 -0.13346,0.0331 -0.13346,-0.33073 z M 63.81161,117.44424 c 0.190994,-0.0764 0.419197,-0.067 0.507119,0.0209 0.08792,0.0879 -0.06835,0.15046 -0.347266,0.13897 -0.308226,-0.0127 -0.370919,-0.0754 -0.159853,-0.15985 z m 107.86731,-1.40676 c 0.2634,-0.29104 0.53843,-0.52917 0.61119,-0.52917 0.0728,0 -0.0832,0.23813 -0.3466,0.52917 -0.26339,0.29104 -0.53842,0.52917 -0.61118,0.52917 -0.0728,0 0.0832,-0.23813 0.34659,-0.52917 z M 48.481637,110.01821 c -0.329108,-0.41965 -0.319749,-0.42901 0.0999,-0.0999 0.254661,0.19972 0.463021,0.40808 0.463021,0.46302 0,0.21776 -0.217273,0.0776 -0.562916,-0.36312 z m 75.670833,-1.05834 c -0.32911,-0.41964 -0.31975,-0.429 0.0999,-0.0999 0.44073,0.34564 0.58089,0.56291 0.36313,0.56291 -0.0549,0 -0.2633,-0.20835 -0.46302,-0.46302 z m -25.366252,-0.6781 c 0,-0.0455 0.386953,-0.43249 0.859896,-0.8599 l 0.859896,-0.7771 -0.777105,0.8599 c -0.724371,0.80154 -0.942687,0.98151 -0.942687,0.7771 z m -33.581194,-7.47988 c 0.0127,-0.30823 0.07539,-0.37092 0.159851,-0.15985 0.07643,0.19099 0.06703,0.41919 -0.02088,0.50711 -0.08792,0.0879 -0.150452,-0.0684 -0.138964,-0.34726 z m 13.807228,-0.0355 c 0.402183,-0.0608 0.997496,-0.0592 1.322917,0.004 0.325422,0.0628 -0.0036,0.11256 -0.731242,0.11057 -0.727604,-0.002 -0.993857,-0.0534 -0.591675,-0.11419 z m 77.787498,0 c 0.40218,-0.0608 0.9975,-0.0592 1.32292,0.004 0.32542,0.0628 -0.004,0.11256 -0.73124,0.11057 -0.72761,-0.002 -0.99386,-0.0534 -0.59168,-0.11419 z m -41.27806,-1.000767 c 0.003,-0.582084 0.0571,-0.789054 0.12041,-0.459936 0.0633,0.329118 0.0609,0.805363 -0.005,1.058333 -0.0662,0.25297 -0.118,-0.0163 -0.11506,-0.598397 z m -43.255212,0.205123 c 0.475549,-0.05889 1.189924,-0.05767 1.5875,0.0027 0.397576,0.06037 0.0085,0.108554 -0.864634,0.107064 -0.873125,-0.002 -1.198415,-0.0509 -0.722866,-0.109764 z m 77.787502,0 c 0.47555,-0.05889 1.18992,-0.05767 1.5875,0.0027 0.39757,0.06037 0.008,0.108554 -0.86464,0.107064 -0.87312,-0.002 -1.19841,-0.0509 -0.72286,-0.109764 z M 69.438358,99.214388 c 0.0127,-0.308226 0.07539,-0.370919 0.15985,-0.159853 0.07643,0.190995 0.06703,0.419198 -0.02088,0.507119 -0.08792,0.08792 -0.150453,-0.06835 -0.138965,-0.347266 z m 40.063482,-2.756077 c 0.26339,-0.291042 0.53842,-0.529167 0.61119,-0.529167 0.0728,0 -0.0832,0.238125 -0.3466,0.529167 -0.26339,0.291042 -0.53843,0.529167 -0.61119,0.529167 -0.0728,0 0.0832,-0.238125 0.3466,-0.529167 z M 69.020594,91.960394 c 0.26339,-0.291042 0.538422,-0.529167 0.611182,-0.529167 0.07276,0 -0.08321,0.238125 -0.346599,0.529167 -0.26339,0.291042 -0.538422,0.529167 -0.611182,0.529167 -0.07276,0 0.08321,-0.238125 0.346599,-0.529167 z m 10.120312,-3.614812 c 0.181901,-0.0734 0.479557,-0.0734 0.661458,0 0.181901,0.0734 0.03307,0.133454 -0.330729,0.133454 -0.363802,0 -0.51263,-0.06006 -0.330729,-0.133454 z m 78.068614,-0.0055 c 0.191,-0.07643 0.4192,-0.06703 0.50712,0.02088 0.0879,0.08792 -0.0684,0.150452 -0.34726,0.138964 -0.30823,-0.0127 -0.37092,-0.07539 -0.15986,-0.159851 z m -55.65763,-5.706248 -1.04588,-1.124479 1.12448,1.045884 c 1.04575,0.972662 1.24606,1.203074 1.04588,1.203074 -0.0432,0 -0.54924,-0.506015 -1.12448,-1.124479 z m 12.84474,-3.208749 c 0,-0.05494 0.20836,-0.263302 0.46303,-0.463021 0.41964,-0.329107 0.429,-0.319749 0.0999,0.09989 -0.34564,0.440729 -0.56292,0.580887 -0.56292,0.363126 z M 96.106635,77.474456 c -0.329108,-0.419644 -0.319749,-0.429002 0.0999,-0.0999 0.254661,0.199719 0.463021,0.408079 0.463021,0.463021 0,0.217761 -0.217274,0.0776 -0.562917,-0.363126 z m 29.667085,0.09854 c 0,-0.05494 0.20836,-0.263302 0.46302,-0.463021 0.41964,-0.329108 0.429,-0.319749 0.0999,0.0999 -0.34564,0.440729 -0.56291,0.580887 -0.56291,0.363126 z m -28.873335,-2.21521 c -0.329108,-0.419644 -0.319749,-0.429002 0.0999,-0.0999 0.440729,0.345644 0.580887,0.562916 0.363124,0.562916 -0.05494,0 -0.2633,-0.208359 -0.46302,-0.463021 z m 49.048385,-1.785937 c 0.003,-0.582084 0.0571,-0.789055 0.12041,-0.459936 0.0633,0.329118 0.0609,0.805368 -0.005,1.058333 -0.0662,0.252965 -0.118,-0.01631 -0.11507,-0.598397 z m -51.817898,-0.992188 -0.504029,-0.595312 0.595313,0.504028 c 0.559445,0.473662 0.715761,0.686597 0.504028,0.686597 -0.05021,0 -0.318098,-0.267891 -0.595312,-0.595313 z M 47.457053,71.752165 c 0,-0.05494 0.208359,-0.263302 0.46302,-0.463021 0.419644,-0.329107 0.429003,-0.319749 0.09989,0.0999 -0.345643,0.440729 -0.562915,0.580887 -0.562915,0.363126 z m 126.048817,-2.082918 -0.50403,-0.595312 0.59531,0.504028 c 0.32743,0.277215 0.59532,0.545106 0.59532,0.595312 0,0.211734 -0.21294,0.05542 -0.6866,-0.504028 z M 43.488303,69.123436 c 0,-0.04554 0.386953,-0.432488 0.859896,-0.859896 l 0.859895,-0.777105 -0.777105,0.859896 c -0.724371,0.801543 -0.942686,0.981512 -0.942686,0.777105 z M 171.51288,67.684872 c -0.3291,-0.419644 -0.31975,-0.429002 0.0999,-0.09989 0.25466,0.199719 0.46302,0.408078 0.46302,0.46302 0,0.217761 -0.21727,0.0776 -0.56292,-0.363126 z m -107.315897,-8.187 c 0.257432,-0.06708 0.614619,-0.06267 0.79375,0.0098 0.179131,0.07248 -0.03149,0.127362 -0.468056,0.12197 -0.436562,-0.0054 -0.583126,-0.06469 -0.325694,-0.131774 z m 2.910417,0 c 0.257431,-0.06708 0.614619,-0.06267 0.79375,0.0098 0.179131,0.07248 -0.03149,0.127362 -0.468056,0.12197 -0.436563,-0.0054 -0.583126,-0.06469 -0.325694,-0.131774 z m 82.95837,0.0026 c 0.191,-0.07643 0.4192,-0.06703 0.50712,0.02089 0.0879,0.08792 -0.0684,0.150453 -0.34726,0.138965 -0.30823,-0.0127 -0.37092,-0.07539 -0.15986,-0.159853 z"
         id="path344" /><path
         style="fill:#c6c6c6;stroke-width:0.264583"
         d="m 106.03193,129.00206 c 0,-1.81901 0.0423,-2.56315 0.0939,-1.65364 0.0517,0.9095 0.0517,2.39778 0,3.30729 -0.0517,0.9095 -0.0939,0.16536 -0.0939,-1.65365 z m 46.82934,0.26459 c 0,-1.67349 0.043,-2.3581 0.0955,-1.52136 0.0525,0.83675 0.0525,2.20597 0,3.04271 -0.0525,0.83674 -0.0955,0.15214 -0.0955,-1.52135 z M 51.539249,131.5619 c -0.07399,-0.19282 -0.09496,-1.47274 -0.04661,-2.84427 l 0.08792,-2.49369 0.05491,2.69357 c 0.05224,2.56267 0.08384,2.69915 0.650224,2.80824 l 0.595313,0.11467 -0.603617,0.036 c -0.331988,0.0198 -0.664154,-0.12173 -0.738145,-0.31455 z m 20.365827,-0.0185 c -0.07789,-0.20297 -0.09417,-0.82805 -0.03617,-1.38906 0.101235,-0.97929 0.10722,-0.97037 0.149924,0.22356 l 0.04448,1.24356 1.521354,0.0955 1.521354,0.0955 -1.529656,0.05 c -1.100069,0.036 -1.569432,-0.0536 -1.671278,-0.31903 z m 8.02368,0.1781 c 0.469696,-0.0584 1.303134,-0.0594 1.852083,-0.002 0.548947,0.0573 0.16465,0.1051 -0.853995,0.10627 -1.018646,0.001 -1.467787,-0.0457 -0.998088,-0.10413 z m 5.566889,-8e-4 c 0.475549,-0.0589 1.189924,-0.0577 1.5875,0.003 0.397576,0.0604 0.0085,0.10855 -0.864635,0.10707 -0.873125,-0.002 -1.198414,-0.0509 -0.722865,-0.10977 z m 53.181245,0 c 0.47555,-0.0589 1.18993,-0.0577 1.5875,0.003 0.39758,0.0604 0.008,0.10855 -0.86463,0.10707 -0.87313,-0.002 -1.19842,-0.0509 -0.72287,-0.10977 z m 5.02709,0 c 0.47555,-0.0589 1.18992,-0.0577 1.5875,0.003 0.39757,0.0604 0.008,0.10855 -0.86464,0.10707 -0.87312,-0.002 -1.19841,-0.0509 -0.72286,-0.10977 z m 4.7625,0 c 0.47555,-0.0589 1.18992,-0.0577 1.5875,0.003 0.39757,0.0604 0.008,0.10855 -0.86464,0.10707 -0.87312,-0.002 -1.19841,-0.0509 -0.72286,-0.10977 z m 13.75833,0 c 0.47555,-0.0589 1.18992,-0.0577 1.5875,0.003 0.39758,0.0604 0.008,0.10855 -0.86463,0.10707 -0.87313,-0.002 -1.19842,-0.0509 -0.72287,-0.10977 z m -90.354029,-4.30617 c 0,-0.65484 0.0516,-0.92273 0.114662,-0.59531 0.06307,0.32742 0.06307,0.8632 0,1.19062 -0.06306,0.32743 -0.114662,0.0595 -0.114662,-0.59531 z m 75.057749,-3.44782 c -7.29434,-1.01954 -16.98307,-6.3317 -24.77131,-13.58167 l -1.89671,-1.76562 -0.0877,-1.8183 -0.0877,-1.81831 2.64754,2.55076 c 2.7757,2.67422 7.39218,5.98304 11.24308,8.05837 10.07047,5.42716 20.83652,5.827 29.03764,1.07842 3.90607,-2.26168 4.7026,-2.79955 5.96572,-4.02848 1.23897,-1.20543 2.56747,-3.14416 2.56747,-3.7468 0,-0.1657 0.29536,-0.6885 0.65634,-1.16178 1.48223,-1.9433 3.08445,-6.30024 3.74767,-10.191079 0.55868,-3.277563 0.36763,-9.013648 -0.40182,-12.064149 -1.24432,-4.933136 -3.13768,-8.260319 -6.78031,-11.915001 -2.97564,-2.985478 -5.28102,-4.508429 -8.8592,-5.852448 -5.73312,-2.153446 -11.54041,-2.195905 -17.96051,-0.131316 l -2.3274,0.748452 -2.35978,-0.50782 C 135.71448,67.487027 133.69899,67.2966 131.40895,67.267 l -3.4929,-0.04515 1.7731,-1.135768 c 11.39456,-7.298821 24.45759,-8.412858 35.16429,-2.998869 5.92148,2.994273 10.7004,7.852786 13.69612,13.924221 8.08545,16.386829 1.92203,35.922976 -13.81333,43.783956 -5.35736,2.6764 -12.38924,3.9287 -17.8077,3.17135 z m -83.199603,-0.15547 c -4.274566,-0.65346 -7.346446,-1.5929 -10.776483,-3.29565 C 43.984988,116.06398 38.208379,108.35031 35.916724,97.767316 35.310246,94.966569 35.234228,87.740311 35.781878,84.948935 36.649511,80.52661 38.76616,75.416443 41.023564,72.294079 45.579858,65.99197 52.662785,61.503786 60.328002,60.061583 c 2.696901,-0.507419 8.052911,-0.576835 10.716199,-0.138887 8.031036,1.320616 17.187444,6.610312 24.874675,14.370206 2.957039,2.98499 7.457104,8.932593 7.059444,9.330256 -0.0566,0.05661 -2.00526,-1.687676 -4.330331,-3.876195 -8.77367,-8.258405 -15.005875,-12.515209 -21.413387,-14.626064 -7.282005,-2.398943 -16.430093,-1.812547 -22.956984,1.47155 -0.832595,0.418932 -1.939998,0.761694 -2.460896,0.761694 -0.822142,0 -0.995413,0.115658 -1.313393,0.876692 -0.201468,0.48218 -1.156877,1.682982 -2.123132,2.668448 -2.869289,2.926336 -4.867791,6.369956 -6.320188,10.890316 -2.607061,8.114075 -1.672316,16.173495 2.692778,23.217301 5.366464,8.65967 13.305776,13.04167 22.680307,12.51811 2.727724,-0.15234 6.498291,-0.82714 8.123602,-1.45384 0.523769,-0.20196 1.196727,-0.17378 2.513542,0.10524 4.806161,1.0184 9.802145,-0.32616 12.983956,-3.49435 0.850297,-0.84665 1.751414,-1.83703 2.002488,-2.20083 0.45416,-0.65807 0.455721,-0.65469 0.304872,0.66146 -0.287327,2.50687 -0.365456,2.66381 -1.85859,3.73341 -0.79012,0.566 -1.439151,1.11838 -1.442289,1.22752 -0.0031,0.10914 -0.121057,0.19844 -0.26204,0.19844 -0.140983,0 -1.063718,0.52088 -2.050521,1.15752 -4.128984,2.66381 -9.544687,4.89275 -14.229604,5.85648 -2.069224,0.42566 -8.211954,0.73639 -9.789583,0.49521 z m 16.933333,-8.74602 c -1.328401,-0.29394 -1.250574,-0.42523 0.926042,-1.56226 2.990146,-1.562 6.449332,-4.0771 9.488479,-6.89888 l 2.485763,-2.30796 -0.109455,1.70348 c -0.266359,4.14546 -4.031888,8.14634 -8.456962,8.98554 -1.372851,0.26035 -3.353747,0.29696 -4.333867,0.0801 z m 66.24437,-3.45954 c -0.3291,-0.41965 -0.31975,-0.42901 0.0999,-0.0999 0.25466,0.19972 0.46302,0.40808 0.46302,0.46302 0,0.21776 -0.21727,0.0776 -0.56292,-0.36312 z m -48.914162,-7.21392 v -4.801683 l 2.580702,-3.087251 c 1.41939,-1.69799 3.35416,-4.079912 4.29948,-5.293162 l 1.71878,-2.205908 1.76244,0.138023 c 1.72279,0.134919 3.10997,0.670642 4.41307,1.704311 l 0.61927,0.491225 -1.26866,1.83288 c -1.22238,1.766033 -7.7632,9.267275 -12.05304,13.822855 l -2.072042,2.20039 z m 17.529222,-0.12827 c 0.003,-0.58208 0.0571,-0.78905 0.12041,-0.45994 0.0633,0.32912 0.0609,0.80537 -0.005,1.05834 -0.0662,0.25296 -0.118,-0.0163 -0.11506,-0.5984 z m -50.276171,-2.24896 c 0,-0.50932 0.05445,-0.71768 0.121002,-0.46302 0.06655,0.25466 0.06655,0.67138 0,0.92604 -0.06655,0.25466 -0.121002,0.0463 -0.121002,-0.46302 z m 48.934591,-0.8268 c -0.62841,-0.88355 -1.07732,-1.671715 -0.99757,-1.751468 0.0797,-0.07975 0.62367,0.171767 1.20872,0.558929 0.94623,0.626189 1.06371,0.820399 1.06371,1.758509 0,0.58002 -0.0298,1.05141 -0.0662,1.04754 -0.0364,-0.004 -0.5803,-0.72995 -1.20871,-1.61351 z m 26.93944,0.46232 c 0,-0.0549 0.20836,-0.2633 0.46302,-0.46302 0.41965,-0.32911 0.429,-0.31975 0.0999,0.0999 -0.34565,0.44073 -0.56292,0.58088 -0.56292,0.36312 z m -63.6934,-0.87721 c 0.257431,-0.0671 0.614619,-0.0627 0.79375,0.01 0.17913,0.0725 -0.03149,0.12736 -0.468056,0.12197 -0.436563,-0.005 -0.583126,-0.0647 -0.325694,-0.13177 z m 77.7875,0 c 0.25743,-0.0671 0.61462,-0.0627 0.79375,0.01 0.17913,0.0725 -0.0315,0.12736 -0.46806,0.12197 -0.43656,-0.005 -0.58312,-0.0647 -0.32569,-0.13177 z M 74.775281,99.980093 c 0.254662,-0.06655 0.67138,-0.06655 0.926042,0 0.254661,0.06655 0.0463,0.120997 -0.463021,0.120997 -0.509323,0 -0.717682,-0.0545 -0.463021,-0.120997 z m 77.787499,0 c 0.25466,-0.06655 0.67138,-0.06655 0.92604,0 0.25466,0.06655 0.0463,0.120997 -0.46302,0.120997 -0.50932,0 -0.71768,-0.0545 -0.46302,-0.120997 z M 114.13205,89.043537 c -0.65766,-0.435689 -3.04269,-1.069038 -4.76255,-1.264711 l -1.61778,-0.184057 2.72715,-3.325273 c 1.49993,-1.8289 3.37782,-4.060317 4.1731,-4.958704 l 1.44595,-1.63343 0.31697,1.553897 c 0.37258,1.82656 0.86607,2.854662 1.97825,4.121371 l 0.81162,0.92438 -1.7533,2.010326 c -0.96432,1.10568 -1.89619,2.239129 -2.07083,2.518778 -0.35437,0.567422 -0.66211,0.625943 -1.24858,0.237423 z m 7.61354,-8.923248 c -2.07804,-2.370026 -1.89272,-5.997735 0.42839,-8.385984 1.08301,-1.114331 3.19413,-2.365378 4.78793,-2.837321 2.64491,-0.78319 7.11908,-0.749008 9.61374,0.07345 l 0.88006,0.290144 -2.33527,1.30868 c -2.99707,1.679556 -6.39786,4.278019 -9.785,7.476496 -1.47799,1.395658 -2.79899,2.537559 -2.93556,2.537559 -0.13657,0 -0.431,-0.208359 -0.65429,-0.463021 z"
         id="path342" /><path
         style="fill:#b1b1b1;stroke-width:0.264583"
         d="m 124.38466,132.26642 c 0.1819,-0.0734 0.47955,-0.0734 0.66145,0 0.1819,0.0734 0.0331,0.13345 -0.33073,0.13345 -0.3638,0 -0.51263,-0.06 -0.33072,-0.13345 z m -80.265231,-3.26436 c 0,-1.81901 0.04227,-2.56315 0.09394,-1.65364 0.05167,0.9095 0.05167,2.39778 0,3.30729 -0.05166,0.9095 -0.09394,0.16536 -0.09394,-1.65365 z m 0.528215,0.13229 c 5.3e-4,-1.74625 0.04334,-2.42619 0.09516,-1.51098 0.05181,0.91521 0.05139,2.34396 -9.53e-4,3.175 -0.05233,0.83104 -0.09473,0.0822 -0.09421,-1.66402 z m 6.350951,-0.13229 c 0,-1.81901 0.04227,-2.56315 0.09394,-1.65364 0.05166,0.9095 0.05166,2.39778 0,3.30729 -0.05167,0.9095 -0.09394,0.16536 -0.09394,-1.65365 z m 20.372917,0 c 0,-1.81901 0.04227,-2.56315 0.09394,-1.65364 0.05166,0.9095 0.05166,2.39778 0,3.30729 -0.05167,0.9095 -0.09394,0.16536 -0.09394,-1.65365 z m 17.991666,0 c 0,-1.81901 0.04227,-2.56315 0.09394,-1.65364 0.05166,0.9095 0.05166,2.39778 0,3.30729 -0.05166,0.9095 -0.09394,0.16536 -0.09394,-1.65365 z m 0.528214,0.13229 c 5.3e-4,-1.74625 0.04334,-2.42619 0.09516,-1.51098 0.05181,0.91521 0.05139,2.34396 -0.0011,3.175 -0.05234,0.83104 -0.09473,0.0822 -0.09421,-1.66402 z m 8.732203,-0.13229 c 0,-1.81901 0.04227,-2.56315 0.09394,-1.65364 0.05167,0.9095 0.05167,2.39778 0,3.30729 -0.05166,0.9095 -0.09394,0.16536 -0.09394,-1.65365 z m 0.529166,0 c 0,-1.81901 0.04227,-2.56315 0.09394,-1.65364 0.05166,0.9095 0.05166,2.39778 0,3.30729 -0.05166,0.9095 -0.09394,0.16536 -0.09394,-1.65365 z m 53.181249,0 c 0,-1.81901 0.0423,-2.56315 0.0939,-1.65364 0.0517,0.9095 0.0517,2.39778 0,3.30729 -0.0517,0.9095 -0.0939,0.16536 -0.0939,-1.65365 z m 17.83918,2.97656 c -0.045,-0.10914 -0.0162,-1.56765 0.0639,-3.24114 l 0.14566,-3.04271 0.0528,3.24115 c 0.0475,2.91874 -0.0149,3.64317 -0.26233,3.0427 z m 0.68165,-2.97656 c 0,-1.81901 0.0423,-2.56315 0.0939,-1.65364 0.0517,0.9095 0.0517,2.39778 0,3.30729 -0.0517,0.9095 -0.0939,0.16536 -0.0939,-1.65365 z m -65.51506,0.72823 c 0.12337,-3.77994 0.23504,-4.14803 0.28113,-0.92667 0.0245,1.70987 -0.0448,3.10914 -0.15396,3.10948 -0.10914,2.7e-4 -0.16637,-0.98192 -0.12717,-2.18281 z m 24.46883,-0.38145 c 0.25466,-0.0665 0.67138,-0.0665 0.92605,0 0.25466,0.0666 0.0463,0.12101 -0.46303,0.12101 -0.50932,0 -0.71768,-0.0545 -0.46302,-0.12101 z m -57.149995,-0.2717 c 0.400182,-0.0606 1.055026,-0.0606 1.455208,0 0.400182,0.0606 0.07276,0.11022 -0.727604,0.11022 -0.800365,0 -1.127787,-0.0496 -0.727604,-0.11022 z m 12.83703,-0.002 c 0.475549,-0.0589 1.189924,-0.0577 1.5875,0.003 0.397576,0.0604 0.0085,0.10855 -0.864635,0.10707 -0.873125,-0.002 -1.198414,-0.0509 -0.722865,-0.10977 z m 52.713485,0.0426 c 0.92814,-0.20487 2.59127,-0.24136 2.47568,-0.0543 -0.0691,0.11182 -0.74371,0.18949 -1.4991,0.17261 -0.7554,-0.0169 -1.19486,-0.0701 -0.97658,-0.11829 z m 10.25735,-0.0428 c 0.47555,-0.0589 1.18992,-0.0577 1.5875,0.003 0.39757,0.0604 0.008,0.10855 -0.86464,0.10707 -0.87312,-0.002 -1.19841,-0.0509 -0.72286,-0.10977 z m 13.29057,0.0428 c 0.92813,-0.20487 2.59127,-0.24136 2.47567,-0.0543 -0.0691,0.11182 -0.7437,0.18949 -1.4991,0.17261 -0.75539,-0.0169 -1.19485,-0.0701 -0.97657,-0.11829 z m -3.48919,-12.73175 c 0.19099,-0.0764 0.4192,-0.067 0.50712,0.0209 0.0879,0.0879 -0.0684,0.15045 -0.34727,0.13897 -0.30823,-0.0127 -0.37092,-0.0754 -0.15985,-0.15985 z M 90.319552,112.2011 c 0.341775,-0.3638 0.680939,-0.66146 0.7537,-0.66146 0.07276,0 -0.147341,0.29766 -0.489117,0.66146 -0.341775,0.3638 -0.68094,0.66146 -0.7537,0.66146 -0.07276,0 0.147341,-0.29766 0.489117,-0.66146 z m -21.186693,-0.59531 -0.641432,-0.72761 0.727604,0.64144 c 0.680056,0.59951 0.84894,0.81377 0.641432,0.81377 -0.04739,0 -0.374814,-0.32742 -0.727604,-0.7276 z m 28.667088,-1.12448 c 0,-0.65485 0.0516,-0.92274 0.114662,-0.59531 0.06307,0.32742 0.06307,0.8632 0,1.19062 -0.06306,0.32742 -0.114662,0.0595 -0.114662,-0.59531 z m 17.756983,-2.11667 c 0,-1.81901 0.0423,-2.56315 0.0939,-1.65364 0.0517,0.9095 0.0517,2.39778 0,3.30729 -0.0517,0.9095 -0.0939,0.16536 -0.0939,-1.65365 z m 4.48064,-1.5875 c 0,-0.94588 0.048,-1.33284 0.10671,-0.85989 0.0587,0.47294 0.0587,1.24684 0,1.71979 -0.0587,0.47294 -0.10671,0.086 -0.10671,-0.8599 z m -67.073751,-1.25638 c 2.373877,-0.0439 6.183877,-0.0438 8.466665,2e-4 2.282791,0.044 0.340527,0.0799 -4.31614,0.0798 -4.656666,-1.1e-4 -6.524403,-0.0361 -4.150525,-0.08 z m 62.532921,-4.29987 c 0,-0.3638 0.0601,-0.51263 0.13346,-0.33073 0.0734,0.1819 0.0734,0.47956 0,0.66146 -0.0734,0.1819 -0.13346,0.0331 -0.13346,-0.33073 z m -40.584428,-0.45633 c 0.475548,-0.0589 1.189923,-0.0577 1.5875,0.003 0.397576,0.0604 0.0085,0.10855 -0.864635,0.10706 -0.873125,-0.002 -1.198414,-0.0509 -0.722865,-0.10976 z m 77.787498,0 c 0.47555,-0.0589 1.18992,-0.0577 1.5875,0.003 0.39758,0.0604 0.008,0.10855 -0.86463,0.10706 -0.87313,-0.002 -1.19842,-0.0509 -0.72287,-0.10976 z M 76.759656,99.971078 c 0.472943,-0.05869 1.246849,-0.05869 1.719792,0 0.472943,0.05869 0.08599,0.106712 -0.859896,0.106712 -0.945885,0 -1.332839,-0.048 -0.859896,-0.106712 z m 77.781594,5.29e-4 c 0.4697,-0.05845 1.30314,-0.05941 1.85209,-0.0021 0.54894,0.05728 0.16465,0.105103 -0.854,0.106273 -1.01864,0.001 -1.46778,-0.0457 -0.99809,-0.104138 z m -7.31539,-1.021715 c 0.0127,-0.308226 0.0754,-0.370919 0.15985,-0.159853 0.0764,0.190995 0.067,0.419198 -0.0209,0.507119 -0.0879,0.08792 -0.15045,-0.06835 -0.13896,-0.347266 z M 97.826858,93.151019 c 5.29e-4,-1.600729 0.04417,-2.22146 0.09684,-1.379402 0.05267,0.842057 0.05218,2.151745 -0.0011,2.910416 -0.05326,0.758672 -0.09635,0.06972 -0.09575,-1.531014 z m 43.664432,-21.365105 -0.50403,-0.595312 0.59531,0.504028 c 0.32742,0.277215 0.59531,0.545106 0.59531,0.595312 0,0.211734 -0.21293,0.05542 -0.68659,-0.504028 z m -22.72903,-0.463021 c 0.26339,-0.291041 0.53842,-0.529166 0.61118,-0.529166 0.0728,0 -0.0832,0.238125 -0.3466,0.529166 -0.26339,0.291042 -0.53842,0.529167 -0.61118,0.529167 -0.0728,0 0.0832,-0.238125 0.3466,-0.529167 z m 11.45976,-3.091157 c 0.191,-0.07643 0.41921,-0.06703 0.50712,0.02089 0.0879,0.08792 -0.0684,0.150453 -0.34726,0.138964 -0.30823,-0.01269 -0.37092,-0.07539 -0.15986,-0.159852 z m 2.38125,0 c 0.191,-0.07643 0.41921,-0.06703 0.50712,0.02089 0.0879,0.08792 -0.0684,0.150453 -0.34726,0.138964 -0.30823,-0.01269 -0.37092,-0.07539 -0.15986,-0.159852 z m -2.79466,-1.059977 c 0.25466,-0.06655 0.67138,-0.06655 0.92605,0 0.25466,0.06655 0.0463,0.121 -0.46303,0.121 -0.50932,0 -0.71768,-0.05445 -0.46302,-0.121 z m 2.24896,0.0072 c 0.1819,-0.0734 0.47956,-0.0734 0.66146,0 0.1819,0.0734 0.0331,0.133452 -0.33073,0.133452 -0.3638,0 -0.51263,-0.06005 -0.33073,-0.133452 z"
         id="path340" /><path
         style="fill:#a2a2a2;stroke-width:0.264583"
         d="m 61.006603,129.34801 -0.0558,-2.96135 -1.124479,-0.10128 -1.124479,-0.10129 1.132782,-0.0462 c 0.728776,-0.0297 1.180497,0.0781 1.26656,0.30239 0.07358,0.19174 0.09495,1.59073 0.0475,3.10885 l -0.08628,2.76024 z m 51.090767,1.37384 c 0.002,-0.87312 0.0509,-1.19841 0.10977,-0.72286 0.0589,0.47555 0.0577,1.18992 -0.003,1.5875 -0.0604,0.39757 -0.10855,0.008 -0.10707,-0.86464 z m 35.44785,-0.26458 c 0.002,-0.7276 0.0534,-0.99386 0.11419,-0.59167 0.0608,0.40218 0.0592,0.99749 -0.004,1.32291 -0.0628,0.32542 -0.11256,-0.004 -0.11057,-0.73124 z m -81.374797,-1.38158 c 0.469696,-0.0585 1.303134,-0.0594 1.852083,-0.002 0.548947,0.0573 0.16465,0.1051 -0.853995,0.10627 -1.018646,0.001 -1.467787,-0.0457 -0.998088,-0.10413 z m 81.405467,-1.72531 0.026,-1.12644 1.52268,-0.0217 1.52268,-0.0217 -1.44194,0.10067 -1.44195,0.10066 -0.10669,1.04753 -0.10668,1.04753 0.0259,-1.12645 z M 37.595422,126.16527 c 0.469697,-0.0585 1.303135,-0.0594 1.852084,-0.002 0.548948,0.0573 0.164651,0.1051 -0.853995,0.10628 -1.018646,0.001 -1.467786,-0.0457 -0.998089,-0.10414 z m 14.430729,0.008 c 0.25743,-0.0671 0.614618,-0.0627 0.79375,0.01 0.179131,0.0725 -0.03149,0.12736 -0.468057,0.12197 -0.436562,-0.005 -0.583125,-0.0647 -0.325693,-0.13177 z m 10.184507,-0.004 c 0.329118,-0.0633 0.805368,-0.0609 1.058334,0.005 0.252965,0.0662 -0.01632,0.118 -0.598398,0.11506 -0.582083,-0.003 -0.789054,-0.0571 -0.459936,-0.1204 z m 10.584987,-0.005 c 0.475549,-0.0589 1.189924,-0.0577 1.5875,0.003 0.397576,0.0604 0.0085,0.10855 -0.864635,0.10707 -0.873125,-0.002 -1.198414,-0.0509 -0.722865,-0.10977 z m 6.603944,7.9e-4 c 0.469697,-0.0584 1.303134,-0.0594 1.852084,-0.002 0.548946,0.0573 0.16465,0.1051 -0.853996,0.10627 -1.018646,0.001 -1.467787,-0.0457 -0.998088,-0.10414 z m 6.096056,-7.9e-4 c 0.475549,-0.0589 1.189924,-0.0577 1.5875,0.003 0.397576,0.0604 0.0085,0.10855 -0.864635,0.10707 -0.873125,-0.002 -1.198414,-0.0509 -0.722865,-0.10977 z m 44.312965,0.009 c 0.25466,-0.0666 0.67138,-0.0666 0.92605,0 0.25466,0.0665 0.0463,0.121 -0.46303,0.121 -0.50932,0 -0.71768,-0.0545 -0.46302,-0.121 z m 8.6037,-0.009 c 0.47555,-0.0589 1.18992,-0.0577 1.5875,0.003 0.39758,0.0604 0.008,0.10855 -0.86463,0.10707 -0.87313,-0.002 -1.19842,-0.0509 -0.72287,-0.10977 z m 23.54792,0 c 0.47555,-0.0589 1.18992,-0.0577 1.5875,0.003 0.39757,0.0604 0.008,0.10855 -0.86464,0.10707 -0.87312,-0.002 -1.19841,-0.0509 -0.72286,-0.10977 z m 10.57859,0.005 c 0.32742,-0.0631 0.8632,-0.0631 1.19063,0 0.32742,0.0631 0.0595,0.11466 -0.59532,0.11466 -0.65484,0 -0.92273,-0.0516 -0.59531,-0.11466 z m 2.3151,0.0527 c 0.60478,-0.21081 2.20194,-0.26855 2.0825,-0.0753 -0.0711,0.11511 -0.62834,0.19989 -1.23821,0.1884 -0.60988,-0.0115 -0.98981,-0.0624 -0.84429,-0.11311 z m -94.919264,-9.83078 c 0.181901,-0.0734 0.479557,-0.0734 0.661458,0 0.181901,0.0734 0.03307,0.13345 -0.330729,0.13345 -0.363802,0 -0.51263,-0.0601 -0.330729,-0.13345 z m 9.918467,0.0243 c 0.179266,-0.17927 11.627617,-0.15316 11.807697,0.0269 0.0682,0.0682 -2.594585,0.12402 -5.91731,0.12402 -3.322725,0 -5.9734,-0.0679 -5.890387,-0.15094 z m -15.95198,-4.81 -0.911799,-0.99219 0.992187,0.9118 c 0.923507,0.84868 1.11384,1.07257 0.911799,1.07257 -0.04421,0 -0.490699,-0.44648 -0.992187,-0.99218 z m 19.349714,0.57326 c 0.0127,-0.30822 0.07539,-0.37092 0.159851,-0.15985 0.07643,0.19099 0.06703,0.4192 -0.02088,0.50712 -0.08792,0.0879 -0.150452,-0.0683 -0.138964,-0.34727 z m 4.588203,-7.91545 c -2.35e-4,-2.91042 0.03842,-4.13714 0.0859,-2.72605 0.04748,1.41108 0.04767,3.79233 5.3e-4,5.29166 -0.04725,1.49933 -0.0861,0.34481 -0.08633,-2.56561 z m -41.253883,0.47905 c 4.544047,-0.18958 9.068404,-0.19767 8.955575,-0.016 -0.0678,0.10914 -2.527253,0.17478 -5.465461,0.14587 -2.938208,-0.0289 -4.508759,-0.0873 -3.490114,-0.12983 z m 58.921373,-2.33113 c 0.005,-0.43657 0.0647,-0.58313 0.13177,-0.3257 0.0671,0.25743 0.0627,0.61462 -0.01,0.79375 -0.0725,0.17913 -0.12737,-0.0315 -0.12197,-0.46805 z m -43.108881,-1.64507 c 0.402183,-0.0608 0.997495,-0.0592 1.322917,0.004 0.325422,0.0628 -0.0036,0.11256 -0.731242,0.11057 -0.727604,-0.002 -0.993857,-0.0534 -0.591675,-0.11419 z m 77.787501,0 c 0.40218,-0.0608 0.99749,-0.0592 1.32291,0.004 0.32543,0.0628 -0.004,0.11256 -0.73124,0.11057 -0.7276,-0.002 -0.99385,-0.0534 -0.59167,-0.11419 z M 89.988823,100.5162 c 0.181901,-0.0734 0.479557,-0.0734 0.661458,0 0.181901,0.0734 0.03307,0.13345 -0.330729,0.13345 -0.363802,0 -0.51263,-0.0601 -0.330729,-0.13345 z m 77.787497,0 c 0.1819,-0.0734 0.47956,-0.0734 0.66146,0 0.1819,0.0734 0.0331,0.13345 -0.33073,0.13345 -0.3638,0 -0.51263,-0.0601 -0.33073,-0.13345 z M 79.802364,99.97297 c 0.400183,-0.06062 1.055026,-0.06062 1.455209,0 0.400182,0.06062 0.07276,0.11022 -0.727604,0.11022 -0.800365,0 -1.127787,-0.0496 -0.727605,-0.11022 z m 78.052086,0 c 0.40018,-0.06062 1.05502,-0.06062 1.4552,0 0.40019,0.06062 0.0728,0.11022 -0.7276,0.11022 -0.80036,0 -1.12779,-0.0496 -0.7276,-0.11022 z M 107.98049,87.80492 c 0.32742,-0.06307 0.8632,-0.06307 1.19062,0 0.32743,0.06306 0.0595,0.114662 -0.59531,0.114662 -0.65484,0 -0.92273,-0.0516 -0.59531,-0.114662 z m 10.75663,-4.112755 -0.50403,-0.595313 0.59532,0.504028 c 0.55944,0.473663 0.71576,0.686597 0.50402,0.686597 -0.0502,0 -0.31809,-0.26789 -0.59531,-0.595312 z m 12.54324,-16.518762 c 0.19099,-0.07643 0.4192,-0.06703 0.50712,0.02089 0.0879,0.08792 -0.0684,0.150453 -0.34727,0.138965 -0.30822,-0.0127 -0.37092,-0.07539 -0.15985,-0.159853 z"
         id="path338" /><path
         style="fill:#909090;stroke-width:0.264583"
         d="m 41.738179,129.00206 c 0,-1.81901 0.04227,-2.56315 0.09394,-1.65364 0.05167,0.9095 0.05167,2.39778 0,3.30729 -0.05166,0.9095 -0.09394,0.16536 -0.09394,-1.65365 z m 6.879167,0 c 0,-1.81901 0.04227,-2.56315 0.09394,-1.65364 0.05166,0.9095 0.05166,2.39778 0,3.30729 -0.05167,0.9095 -0.09394,0.16536 -0.09394,-1.65365 z m 16.648776,1.71979 c 0.0016,-0.87312 0.05088,-1.19841 0.109765,-0.72286 0.05889,0.47555 0.05767,1.18992 -0.0027,1.5875 -0.06037,0.39757 -0.10855,0.008 -0.107066,-0.86464 z m 3.704167,0 c 0.0016,-0.87312 0.05088,-1.19841 0.109765,-0.72286 0.05888,0.47555 0.05767,1.18992 -0.0027,1.5875 -0.06037,0.39757 -0.108551,0.008 -0.107066,-0.86464 z m 24.727833,-0.72698 c 0.129188,-3.95726 0.232455,-4.34869 0.279371,-1.05895 0.02543,1.78263 -0.04307,3.24142 -0.152212,3.24176 -0.109141,2.7e-4 -0.166362,-0.98192 -0.127159,-2.18281 z m 7.780158,-0.92666 c -0.0254,-1.78263 0.0431,-3.24143 0.15221,-3.24177 0.10914,-2.6e-4 0.16636,0.98192 0.12716,2.18281 -0.12919,3.95727 -0.23246,4.3487 -0.27937,1.05896 z m 27.81701,1.65364 c 0.002,-0.87312 0.0509,-1.19841 0.10976,-0.72286 0.0589,0.47555 0.0577,1.18992 -0.003,1.5875 -0.0604,0.39757 -0.10855,0.008 -0.10706,-0.86464 z m 7.95747,-1.71979 c 0,-1.81901 0.0423,-2.56315 0.0939,-1.65364 0.0517,0.9095 0.0517,2.39778 0,3.30729 -0.0517,0.9095 -0.0939,0.16536 -0.0939,-1.65365 z m 23.54792,0 c 0,-1.81901 0.0423,-2.56315 0.0939,-1.65364 0.0517,0.9095 0.0517,2.39778 0,3.30729 -0.0517,0.9095 -0.0939,0.16536 -0.0939,-1.65365 z m 5.50051,0.0661 c -0.0254,-1.78263 0.0431,-3.24143 0.15221,-3.24177 0.10914,-2.6e-4 0.16637,0.98192 0.12716,2.18281 -0.12919,3.95727 -0.23245,4.3487 -0.27937,1.05896 z m 7.99133,0.19844 c 0,-1.67349 0.043,-2.3581 0.0955,-1.52136 0.0525,0.83675 0.0525,2.20597 0,3.04271 -0.0525,0.83674 -0.0955,0.15214 -0.0955,-1.52135 z m 3.88825,2.27251 c -0.23871,-0.28763 -0.23096,-0.41883 0.0337,-0.57159 0.18897,-0.10904 0.25532,-0.10083 0.14744,0.0183 -0.10788,0.11908 -0.0635,0.37629 0.0985,0.57158 0.16208,0.1953 0.23516,0.35508 0.1624,0.35508 -0.0728,0 -0.27172,-0.168 -0.44212,-0.37332 z m -93.606378,-1.08189 c 0.0021,-0.7276 0.05337,-0.99386 0.114186,-0.59167 0.06082,0.40218 0.05919,0.99749 -0.0036,1.32291 -0.0628,0.32542 -0.112559,-0.004 -0.110575,-0.73124 z m 37.852188,-2.51354 c 0,-1.23693 0.0456,-1.74294 0.10128,-1.12448 0.0557,0.61846 0.0557,1.63049 0,2.24896 -0.0557,0.61846 -0.10128,0.11245 -0.10128,-1.12448 z m 4.49792,0 c 0,-1.23693 0.0456,-1.74294 0.10128,-1.12448 0.0557,0.61846 0.0557,1.63049 0,2.24896 -0.0557,0.61846 -0.10128,0.11245 -0.10128,-1.12448 z m -15.35009,0.93768 c 0,-0.21188 0.10116,-0.32272 0.2248,-0.2463 0.12364,0.0764 0.15631,0.24977 0.0726,0.38524 -0.21394,0.34617 -0.29738,0.30719 -0.29738,-0.13894 z m -73.973086,-0.0707 c 0.472942,-0.0587 1.246849,-0.0587 1.719791,0 0.472943,0.0587 0.08599,0.10672 -0.859895,0.10672 -0.945886,0 -1.332839,-0.048 -0.859896,-0.10672 z m 91.691266,-1.13151 c 0,-0.80037 0.0496,-1.12779 0.11022,-0.72761 0.0606,0.40018 0.0606,1.05503 0,1.45521 -0.0606,0.40018 -0.11022,0.0728 -0.11022,-0.7276 z m -64.026468,-0.39688 c 0.0016,-0.87312 0.05088,-1.19841 0.109765,-0.72286 0.05889,0.47554 0.05767,1.18992 -0.0027,1.5875 -0.06037,0.39757 -0.10855,0.008 -0.107066,-0.86464 z m 3.704167,0 c 0.0016,-0.87312 0.05088,-1.19841 0.109765,-0.72286 0.05888,0.47554 0.05767,1.18992 -0.0027,1.5875 -0.06037,0.39757 -0.108551,0.008 -0.107066,-0.86464 z m 15.604103,0.26458 c 0.0021,-0.7276 0.05337,-0.99385 0.114186,-0.59167 0.06082,0.40218 0.05919,0.99749 -0.0036,1.32292 -0.0628,0.32542 -0.112559,-0.004 -0.110575,-0.73125 z m 31.291418,-0.63886 c -0.0852,-0.13784 -0.0421,-0.32031 0.0957,-0.4055 0.13784,-0.0852 0.32031,-0.0421 0.4055,0.0957 0.0852,0.13784 0.0421,0.32032 -0.0957,0.40551 -0.13784,0.0852 -0.32032,0.0421 -0.40551,-0.0957 z m 3.91068,-0.14325 c 0,-0.21188 0.10117,-0.32271 0.22481,-0.2463 0.12364,0.0764 0.1563,0.24977 0.0726,0.38524 -0.21395,0.34617 -0.29739,0.3072 -0.29739,-0.13894 z M 80.992989,116.39142 c 0.181901,-0.0734 0.479558,-0.0734 0.661459,0 0.181901,0.0734 0.03307,0.13345 -0.330729,0.13345 -0.363802,0 -0.512631,-0.0601 -0.33073,-0.13345 z m 1.190625,-1.06549 c 0.254662,-0.0666 0.671381,-0.0666 0.926042,0 0.254662,0.0666 0.0463,0.121 -0.463021,0.121 -0.509323,0 -0.717682,-0.0544 -0.463021,-0.121 z m 77.407156,0.002 c 0.191,-0.0764 0.4192,-0.067 0.50712,0.0209 0.0879,0.0879 -0.0684,0.15045 -0.34726,0.13896 -0.30823,-0.0127 -0.37092,-0.0754 -0.15986,-0.15985 z m 1.32292,0 c 0.191,-0.0764 0.4192,-0.067 0.50712,0.0209 0.0879,0.0879 -0.0683,0.15045 -0.34727,0.13896 -0.30822,-0.0127 -0.37092,-0.0754 -0.15985,-0.15985 z m -69.93268,-2.72962 c 0.26339,-0.29104 0.538422,-0.52916 0.611182,-0.52916 0.07276,0 -0.08321,0.23812 -0.346599,0.52916 -0.26339,0.29105 -0.538421,0.52917 -0.611182,0.52917 -0.07276,0 0.08321,-0.23812 0.346599,-0.52917 z m 77.25833,-0.26458 c 0.26339,-0.29104 0.53842,-0.52917 0.61118,-0.52917 0.0728,0 -0.0832,0.23813 -0.34659,0.52917 -0.2634,0.29104 -0.53843,0.52917 -0.61119,0.52917 -0.0728,0 0.0832,-0.23813 0.3466,-0.52917 z m -16.6812,-0.85989 -1.04588,-1.12448 1.12448,1.04588 c 0.61846,0.57524 1.12448,1.08125 1.12448,1.12448 0,0.20018 -0.23042,-1.3e-4 -1.20308,-1.04588 z m 17.34266,1.02458 c 0,-0.0549 0.20836,-0.2633 0.46302,-0.46302 0.41965,-0.32911 0.429,-0.31975 0.0999,0.0999 -0.34565,0.44073 -0.56292,0.58089 -0.56292,0.36313 z m -39.22448,-6.9545 c 0.1819,-0.0734 0.47956,-0.0734 0.66146,0 0.1819,0.0734 0.0331,0.13345 -0.33073,0.13345 -0.3638,0 -0.51263,-0.0601 -0.33073,-0.13345 z m -59.659901,-4.77713 c 0.402183,-0.0608 0.997495,-0.0592 1.322917,0.004 0.325422,0.0628 -0.0036,0.11256 -0.731242,0.11057 -0.727604,-0.002 -0.993857,-0.0534 -0.591675,-0.11419 z m 77.916151,0.003 c 0.32742,-0.0631 0.8632,-0.0631 1.19063,0 0.32742,0.0631 0.0595,0.11466 -0.59532,0.11466 -0.65484,0 -0.92273,-0.0516 -0.59531,-0.11466 z M 88.008086,100.5018 c 0.402182,-0.0608 0.997495,-0.0592 1.322916,0.004 0.325422,0.0628 -0.0036,0.11256 -0.731242,0.11057 -0.727604,-0.002 -0.993857,-0.0534 -0.591674,-0.11419 z m 3.03907,0.0146 c 0.181901,-0.0734 0.479557,-0.0734 0.661458,0 0.181901,0.0734 0.03307,0.13345 -0.330729,0.13345 -0.363802,0 -0.51263,-0.06 -0.330729,-0.13345 z m 74.748424,-0.0146 c 0.40219,-0.0608 0.9975,-0.0592 1.32292,0.004 0.32542,0.0628 -0.004,0.11256 -0.73124,0.11057 -0.72761,-0.002 -0.99386,-0.0534 -0.59168,-0.11419 z m 3.03907,0.0146 c 0.18191,-0.0734 0.47956,-0.0734 0.66146,0 0.1819,0.0734 0.0331,0.13345 -0.33073,0.13345 -0.3638,0 -0.51263,-0.06 -0.33073,-0.13345 z M 82.585228,99.97074 c 0.475549,-0.05889 1.189924,-0.05767 1.5875,0.0027 0.397576,0.06037 0.0085,0.10855 -0.864634,0.10706 -0.873125,-0.002 -1.198415,-0.0509 -0.722866,-0.109758 z m 78.052082,0 c 0.47555,-0.05889 1.18992,-0.05767 1.5875,0.0027 0.39758,0.06037 0.008,0.10855 -0.86463,0.10706 -0.87313,-0.002 -1.19842,-0.0509 -0.72287,-0.109758 z m 7.43599,-7.415033 c -0.32911,-0.419645 -0.31975,-0.429004 0.0999,-0.0999 0.44073,0.345643 0.58088,0.562917 0.36312,0.562917 -0.0549,0 -0.2633,-0.20836 -0.46302,-0.463021 z m -78.302941,-0.529167 -0.641432,-0.727604 0.727604,0.641432 c 0.680056,0.599517 0.848939,0.813776 0.641432,0.813776 -0.04739,0 -0.374814,-0.327422 -0.727604,-0.727604 z m 52.373771,0.264583 c -0.3291,-0.419645 -0.31975,-0.429003 0.0999,-0.0999 0.25466,0.199721 0.46302,0.40808 0.46302,0.463021 0,0.217763 -0.21727,0.07761 -0.56292,-0.363125 z m -40.71208,-0.727604 c 0.49366,-0.509323 0.95709,-0.926042 1.02985,-0.926042 0.0728,0 -0.27161,0.416719 -0.76527,0.926042 -0.49365,0.509323 -0.95708,0.926042 -1.02984,0.926042 -0.0728,0 0.27161,-0.416719 0.76526,-0.926042 z M 72.592469,91.298936 c 0.341775,-0.363802 0.680939,-0.661459 0.7537,-0.661459 0.07276,0 -0.147341,0.297657 -0.489117,0.661459 -0.341775,0.363802 -0.680939,0.661458 -0.7537,0.661458 -0.07276,0 0.147341,-0.297656 0.489117,-0.661458 z M 92.137885,88.85154 c -0.329107,-0.419645 -0.319749,-0.429004 0.0999,-0.0999 0.44073,0.345643 0.580887,0.562917 0.363125,0.562917 -0.05494,0 -0.263301,-0.20836 -0.463021,-0.463021 z m 16.123725,0.0177 c 0.19099,-0.07643 0.4192,-0.06703 0.50712,0.02088 0.0879,0.08792 -0.0684,0.150453 -0.34727,0.138965 -0.30822,-0.0127 -0.37092,-0.07539 -0.15985,-0.159851 z m 13.24502,-8.748951 c -0.3291,-0.419644 -0.31974,-0.429002 0.0999,-0.09989 0.25466,0.199719 0.46302,0.408078 0.46302,0.463021 0,0.217761 -0.21727,0.0776 -0.56292,-0.363127 z m -5.20633,-2.315104 c 0.005,-0.436562 0.0647,-0.583125 0.13177,-0.325693 0.0671,0.25743 0.0627,0.614618 -0.01,0.79375 -0.0725,0.179131 -0.12735,-0.03149 -0.12196,-0.468057 z m 5.63696,-6.217708 c 0.26339,-0.291042 0.53842,-0.529167 0.61118,-0.529167 0.0728,0 -0.0832,0.238125 -0.3466,0.529167 -0.26339,0.291041 -0.53842,0.529166 -0.61118,0.529166 -0.0728,0 0.0832,-0.238125 0.3466,-0.529166 z m 11.98893,-4.149491 c 0.191,-0.07643 0.4192,-0.06703 0.50712,0.02089 0.0879,0.08792 -0.0684,0.150453 -0.34727,0.138964 -0.30822,-0.01269 -0.37091,-0.07539 -0.15985,-0.159852 z"
         id="path336" /><path
         style="fill:#7e7e7e;stroke-width:0.264583"
         d="m 36.344553,129.00206 v -3.175 l 2.050521,0.0518 2.05052,0.0518 -1.785937,0.0926 -1.785937,0.0926 v 1.4305 1.43049 l 1.653645,0.0939 1.653646,0.0939 -1.653646,0.051 -1.653645,0.051 v 1.4552 c 0,0.80037 -0.119063,1.45521 -0.264584,1.45521 -0.16169,0 -0.264583,-1.23472 -0.264583,-3.175 z m 5.658209,0 c 0,-1.81901 0.04227,-2.56315 0.09394,-1.65364 0.05167,0.9095 0.05167,2.39778 0,3.30729 -0.05166,0.9095 -0.09394,0.16536 -0.09394,-1.65365 z m 2.38125,0 c 0,-1.81901 0.04227,-2.56315 0.09394,-1.65364 0.05167,0.9095 0.05167,2.39778 0,3.30729 -0.05166,0.9095 -0.09394,0.16536 -0.09394,-1.65365 z m 2.028751,0.028 c -0.883092,-1.76166 -1.513012,-3.20302 -1.399822,-3.20302 0.261725,0 3.309872,6.1016 3.135339,6.27614 -0.07144,0.0714 -0.852425,-1.31146 -1.735517,-3.07312 z m 2.469166,-0.028 c 0,-1.81901 0.04227,-2.56315 0.09394,-1.65364 0.05166,0.9095 0.05166,2.39778 0,3.30729 -0.05167,0.9095 -0.09394,0.16536 -0.09394,-1.65365 z m 2.27929,0 v -3.175 l 0.859896,0.002 c 2.43974,0.004 3.903931,1.19633 3.897715,3.17352 -0.0061,1.9445 -1.412954,3.17378 -3.633132,3.17459 l -1.124479,3e-4 z m 3.576459,2.11236 c 1.40215,-1.31725 0.966438,-3.90558 -0.780314,-4.63542 -0.509886,-0.21305 -1.288077,-0.38735 -1.729313,-0.38735 h -0.802248 v 2.94408 2.94408 l 1.33155,-0.12795 c 0.89926,-0.0864 1.542177,-0.32582 1.980325,-0.73744 z m 6.534601,-1.89942 -0.05689,-3.09436 -1.256771,-0.0991 c -0.691224,-0.0545 -0.125677,-0.0998 1.256771,-0.10056 1.382448,-8e-4 2.011246,0.0439 1.39733,0.0994 l -1.116211,0.10087 -0.08367,3.09405 -0.08366,3.09404 z m 3.74178,-0.21294 c 0.003,-1.81901 0.04851,-2.62268 0.101018,-1.78594 l 0.09547,1.52136 h 1.957967 1.957966 l 0.09547,-1.52136 c 0.05251,-0.83674 0.09797,-0.0331 0.101018,1.78594 0.0038,2.23166 -0.04452,2.79099 -0.14841,1.71979 l -0.153958,-1.5875 h -1.852083 -1.852084 l -0.153958,1.5875 c -0.103889,1.0712 -0.152154,0.51187 -0.14841,-1.71979 z m 6.520076,0 v -3.175 l 1.785938,0.051 1.785937,0.051 -1.653645,0.0939 -1.653646,0.0939 v 1.29709 1.29709 l 1.521354,0.0955 1.521354,0.0955 -1.521354,0.05 -1.521354,0.05 v 1.44258 1.44259 l 1.653646,0.0939 1.653645,0.0939 -1.785937,0.051 -1.785938,0.051 z m 6.879167,3.04895 c 0,-0.0693 0.833437,-1.339 1.852083,-2.82149 1.018646,-1.48248 1.852084,-2.78954 1.852084,-2.90456 0,-0.11503 -0.803672,-0.25079 -1.785938,-0.3017 l -1.785937,-0.0926 2.05052,-0.0518 c 1.127787,-0.0285 2.050307,0.0375 2.050045,0.14662 -2.65e-4,0.10914 -0.83394,1.44859 -1.852615,2.97656 l -1.852139,2.77813 1.918761,0.15077 1.918761,0.15077 -2.182813,0.0477 c -1.200546,0.0262 -2.182812,-0.009 -2.182812,-0.0784 z m 5.820833,-3.04895 v -3.175 l 1.785938,0.0445 1.785937,0.0445 -1.5875,0.15396 -1.5875,0.15396 -0.08064,1.25677 -0.08064,1.25677 1.668143,0.0445 1.668142,0.0445 -1.5875,0.15396 -1.5875,0.15395 v 1.32292 1.32292 l 1.5875,0.15396 1.5875,0.15395 -1.785937,0.0445 -1.785938,0.0445 z m 5.393627,0 c 0,-1.81901 0.04227,-2.56315 0.09394,-1.65364 0.05166,0.9095 0.05166,2.39778 0,3.30729 -0.05166,0.9095 -0.09394,0.16536 -0.09394,-1.65365 z m 2.02875,0.028 c -0.883091,-1.76166 -1.513011,-3.20302 -1.399823,-3.20302 0.261726,0 3.309874,6.1016 3.135339,6.27614 -0.07144,0.0714 -0.852424,-1.31146 -1.735516,-3.07312 z m 2.469166,-0.028 c 0,-1.81901 0.04227,-2.56315 0.09394,-1.65364 0.05166,0.9095 0.05166,2.39778 0,3.30729 -0.05166,0.9095 -0.09394,0.16536 -0.09394,-1.65365 z m 4.7625,0 c 0,-1.81901 0.04227,-2.56315 0.09394,-1.65364 0.05166,0.9095 0.05166,2.39778 0,3.30729 -0.05166,0.9095 -0.09394,0.16536 -0.09394,-1.65365 z m 2.381252,0 c 0,-1.81901 0.0423,-2.56315 0.0939,-1.65364 0.0517,0.9095 0.0517,2.39778 0,3.30729 -0.0517,0.9095 -0.0939,0.16536 -0.0939,-1.65365 z m 2.19413,0.10188 c -0.84134,-1.69021 -1.49379,-3.10798 -1.44988,-3.15058 0.0439,-0.0426 0.81672,1.3403 1.71735,3.07312 0.90065,1.73282 1.55309,3.15058 1.44989,3.15058 -0.1032,0 -0.87601,-1.3829 -1.71736,-3.07312 z m 2.30378,-0.10188 c 0,-1.81901 0.0423,-2.56315 0.0939,-1.65364 0.0517,0.9095 0.0517,2.39778 0,3.30729 -0.0517,0.9095 -0.0939,0.16536 -0.0939,-1.65365 z m 6.02381,1.79862 c -0.0356,-1.33122 -0.1828,-1.71246 -1.25143,-3.24115 -0.6661,-0.95286 -1.11258,-1.73143 -0.99219,-1.73015 0.12039,0.001 0.67849,0.71565 1.24021,1.5875 0.56172,0.87185 1.0633,1.58518 1.11462,1.58518 0.0513,0 0.57843,-0.71437 1.17136,-1.5875 0.59293,-0.87312 1.14684,-1.5875 1.23091,-1.5875 0.17699,0 -0.46872,1.05001 -1.46436,2.38125 -0.49224,0.65815 -0.73833,1.38529 -0.85068,2.51354 l -0.1581,1.5875 z m 4.67611,0.92338 c -0.91154,-0.5655 -1.27688,-1.39329 -1.27688,-2.8932 0,-1.01719 0.13998,-1.3446 0.89959,-2.10421 0.69888,-0.69889 1.11799,-0.89959 1.87854,-0.89959 0.76055,0 1.17966,0.2007 1.87854,0.89959 0.83486,0.83486 1.05908,1.51909 0.91905,2.80458 -0.23832,2.18771 -2.47117,3.32668 -4.29884,2.19283 z m 3.10002,-0.41562 c 1.32557,-1.1402 1.08582,-4.15266 -0.39349,-4.94437 -1.69297,-0.90605 -3.71882,0.53101 -3.71882,2.63799 0,0.97414 0.60991,2.24788 1.25676,2.62464 0.8045,0.46858 2.10995,0.32308 2.85555,-0.31826 z m 3.60672,0.25626 c -0.51898,-0.55244 -0.5706,-0.86965 -0.52745,-3.24115 l 0.0478,-2.62878 0.1506,2.67288 c 0.17359,3.08073 0.41847,3.54483 1.8704,3.54483 1.45194,0 1.69681,-0.4641 1.8704,-3.54483 l 0.15061,-2.67288 0.0478,2.66586 c 0.0444,2.47644 0.004,2.70673 -0.56453,3.24115 -0.83916,0.78834 -2.28679,0.77072 -3.04569,-0.0371 z m 5.82474,-2.49649 -0.05,-3.24115 1.25677,0.004 c 1.34653,0.004 2.36614,0.39857 2.79111,1.07963 0.39793,0.63771 -0.0106,1.80702 -0.74891,2.14341 l -0.65519,0.29852 0.79704,1.41227 c 0.43837,0.77675 0.70672,1.41186 0.59634,1.41135 -0.11039,-5.3e-4 -0.55372,-0.65536 -0.98518,-1.45521 -0.73526,-1.36307 -0.84644,-1.45427 -1.77273,-1.45427 h -0.98826 l -0.0955,1.52135 c -0.0525,0.83674 -0.11798,0.0628 -0.1455,-1.71979 z m 3.14237,-0.34004 c 0.32793,-0.1755 0.51177,-0.5535 0.51177,-1.05223 0,-1.02243 -0.93404,-1.64733 -2.29488,-1.53533 l -1.01241,0.0833 -0.08,1.38906 -0.08,1.38906 h 1.22184 c 0.67202,0 1.45215,-0.12325 1.73362,-0.27389 z m 5.27427,0.27389 v -3.175 l 1.65365,0.05 1.65365,0.05 -1.52136,0.0955 -1.52135,0.0955 v 1.29651 1.29651 l 1.52135,0.0955 1.52136,0.0955 -1.52136,0.05 -1.52135,0.05 v 1.44258 1.44259 l 1.65364,0.0939 1.65365,0.0939 -1.78594,0.051 -1.78594,0.051 z m 5.02709,0 c 0,-1.94027 0.10289,-3.175 0.26458,-3.175 0.16098,0 0.26458,1.18623 0.26458,3.02951 v 3.0295 l 1.52136,0.0955 1.52135,0.0955 -1.78594,0.05 -1.78593,0.05 z m 4.7625,0 v -3.175 l 1.78593,0.0445 1.78594,0.0445 -1.5875,0.15396 -1.5875,0.15396 -0.0801,1.24378 -0.0801,1.24378 1.66761,0.0943 1.66761,0.0943 -1.65364,0.051 -1.65365,0.051 v 1.44258 1.44259 l 1.65365,0.0939 1.65364,0.0939 -1.78594,0.051 -1.78593,0.051 z m 5.39362,0 c 0,-1.81901 0.0423,-2.56315 0.0939,-1.65364 0.0517,0.9095 0.0517,2.39778 0,3.30729 -0.0517,0.9095 -0.0939,0.16536 -0.0939,-1.65365 z m 2.41879,2.88214 c -0.75697,-2.02862 -1.96109,-5.91123 -1.86353,-6.0088 0.14612,-0.14612 0.13516,-0.17401 1.32419,3.37118 0.50877,1.51694 0.8692,2.8139 0.80096,2.88215 -0.0682,0.0682 -0.18597,-0.0418 -0.26162,-0.24453 z m 1.7606,-2.89773 c 0.58703,-1.75483 1.12498,-3.13294 1.19545,-3.06247 0.17571,0.17571 -1.84122,6.25306 -2.07524,6.25306 -0.10314,0 0.29277,-1.43577 0.87979,-3.19059 z m 1.53949,0.0156 c 0,-1.94027 0.10289,-3.175 0.26458,-3.175 0.16169,0 0.26458,1.23473 0.26458,3.175 0,1.94028 -0.10289,3.175 -0.26458,3.175 -0.16169,0 -0.26458,-1.23472 -0.26458,-3.175 z m 2.64583,0 v -3.175 l 1.65365,0.05 1.65364,0.05 -1.52135,0.0955 -1.52136,0.0955 v 1.29651 1.29651 l 1.52136,0.0955 1.52135,0.0955 -1.52135,0.05 -1.52136,0.05 v 1.44258 1.44259 l 1.65365,0.0939 1.65365,0.0939 -1.78594,0.051 -1.78594,0.051 z m 5.12904,0 c 0,-1.81901 0.0423,-2.56315 0.0939,-1.65364 0.0517,0.9095 0.0517,2.39778 0,3.30729 -0.0517,0.9095 -0.0939,0.16536 -0.0939,-1.65365 z m 2.19414,0.10188 c -0.84135,-1.69021 -1.48958,-3.11325 -1.44052,-3.16231 0.0491,-0.0491 0.83803,1.33384 1.75328,3.07312 0.91524,1.73927 1.56348,3.16231 1.44052,3.16231 -0.12296,0 -0.91194,-1.3829 -1.75328,-3.07312 z m 2.30378,-0.10188 c 0,-1.81901 0.0423,-2.56315 0.0939,-1.65364 0.0517,0.9095 0.0517,2.39778 0,3.30729 -0.0517,0.9095 -0.0939,0.16536 -0.0939,-1.65365 z m 3.86218,0.26459 -0.12768,-3.04271 -1.19063,-0.1587 c -0.79553,-0.10604 -0.35654,-0.15655 1.32292,-0.15221 1.38245,0.004 2.01125,0.0519 1.39733,0.10736 l -1.11621,0.10087 -0.079,3.09405 -0.079,3.09404 z m 3.86459,2.09636 c -0.68258,-0.8112 -0.92321,-1.48108 -0.4204,-1.17032 0.14552,0.0899 0.26459,0.32833 0.26459,0.52978 0,0.56242 1.07757,1.19001 2.04324,1.19001 0.8048,0 1.92551,-0.74055 1.92551,-1.27235 0,-0.56374 -0.81345,-1.1427 -2.38125,-1.69481 -1.58345,-0.55762 -1.72622,-0.67176 -1.80081,-1.43966 -0.0977,-1.00534 0.68698,-1.6786 1.95629,-1.6786 0.9463,0 2.22577,0.8814 2.22577,1.53329 0,0.31991 -0.11961,0.26177 -0.44769,-0.21764 -0.24623,-0.35981 -0.57365,-0.74166 -0.7276,-0.84858 -0.54692,-0.37979 -1.91728,-0.20294 -2.37877,0.307 -0.79393,0.87728 -0.42448,1.42384 1.38108,2.04317 1.99503,0.68432 2.43756,1.01934 2.43756,1.84537 0,1.01397 -0.88815,1.68739 -2.22544,1.68739 -0.97844,0 -1.27783,-0.13159 -1.85208,-0.81405 z M 77.48726,115.90949 c -5.30951,-1.43582 -8.774501,-4.00708 -10.675003,-7.92158 -2.924453,-6.02357 -0.975979,-13.952547 4.287208,-17.446053 8.070315,-5.35677 18.720284,-2.212242 21.770567,6.428013 l 0.61336,1.737399 -2.31e-4,-3.836458 c -2.64e-4,-5.093124 -0.44346,-6.152436 -2.883574,-6.892865 -1.040696,-0.31579 4.442417,-0.295804 5.58062,0.02035 0.531225,0.14755 1.063988,0.474311 1.183916,0.726128 0.11993,0.25182 0.280603,2.065197 0.357055,4.029728 l 0.138999,3.571876 0.740849,-1.455209 c 2.496644,-4.904015 6.031944,-7.12425 10.845394,-6.811113 6.23014,0.405299 9.91657,4.229817 10.42437,10.81487 0.15564,2.018244 0.20388,2.143714 1.11457,2.898834 2.30738,1.91319 5.22034,2.84625 9.55086,3.05927 4.95578,0.24378 8.41702,-0.87465 11.12284,-3.59413 1.64518,-1.653472 2.17037,-2.942041 2.14271,-5.257253 -0.0465,-3.892646 -3.23029,-5.809629 -13.02209,-7.84069 -8.95585,-1.857663 -11.66627,-3.232282 -13.46303,-6.827918 -0.67464,-1.350085 -0.80335,-1.917201 -0.80335,-3.539836 0,-5.003172 3.04583,-8.222137 9.26042,-9.786803 2.66416,-0.670764 8.2187,-0.675917 11.35939,-0.01054 2.69573,0.571111 5.60605,1.962013 7.41335,3.542994 l 1.33559,1.168342 v 2.778186 2.778186 l -1.09146,-2.128769 c -2.66581,-5.199319 -6.29459,-7.57465 -12.05713,-7.892355 -4.20216,-0.231675 -7.0372,0.510777 -9.74055,2.550897 -1.83091,1.381724 -2.8006,3.214364 -2.81063,5.311894 -0.0217,4.525355 2.91796,6.312429 13.92581,8.46593 7.0349,1.376257 9.991,2.818792 12.02826,5.869618 l 1.01708,1.52309 1.01796,-0.812319 c 2.58248,-2.060797 6.00681,-3.225985 9.4069,-3.20086 7.11973,0.05261 12.65775,4.744468 13.81358,11.702968 l 0.15381,0.926038 -11.97192,0.0862 c -7.05388,0.0508 -12.07769,0.18917 -12.2294,0.33686 -0.4595,0.44732 0.5631,4.45157 1.7501,6.85298 2.56072,5.18061 7.93444,8.24445 13.06036,7.44642 3.75043,-0.58389 6.8613,-2.80649 8.46685,-6.04926 0.89899,-1.81571 0.88291,-1.79198 1.08065,-1.59425 0.0856,0.0856 -0.20493,0.90915 -0.64568,1.83004 -3.17817,6.64029 -12.17764,8.7777 -20.14751,4.78511 -3.78731,-1.8973 -6.74107,-5.78124 -7.43919,-9.78189 l -0.28688,-1.64403 -1.55909,0.78702 c -5.16332,2.60644 -13.87845,2.66744 -20.13346,0.14093 l -1.53763,-0.62108 v 4.47567 c 0,4.93468 0.24912,6.07393 1.44756,6.61998 0.58728,0.26758 0.79914,0.22356 1.53511,-0.31895 l 0.85379,-0.62937 -0.42476,0.64367 c -1.84086,2.78957 -5.51743,3.16077 -7.00215,0.70697 -0.46924,-0.77551 -0.52322,-1.58312 -0.66652,-9.97198 -0.087,-5.093012 -0.27609,-9.482328 -0.42775,-9.929402 -0.54702,-1.612652 -1.38731,-2.961514 -2.43397,-3.907108 -1.58337,-1.430478 -2.74548,-1.855023 -5.09663,-1.861918 -1.75655,-0.0052 -2.26073,0.108199 -3.75639,0.844508 -2.06207,1.015156 -3.50806,2.557878 -4.7794,5.099143 -1.387702,2.773852 -1.530839,3.933216 -1.427268,11.560267 0.08623,6.34968 0.129413,6.86261 0.661064,7.85181 0.312843,0.58208 0.906677,1.26352 1.319625,1.51431 0.727829,0.44202 0.600929,0.45568 -4.143973,0.44625 -2.804723,-0.006 -4.668837,-0.10221 -4.365625,-0.22631 1.38861,-0.56835 2.2224,-2.45141 2.232319,-5.04155 l 0.0066,-1.71979 -0.755174,1.20209 c -1.591553,2.53344 -4.519443,4.5561 -7.823173,5.40444 -1.918226,0.49257 -5.620319,0.49873 -7.41889,0.0124 z m 7.011459,-0.68165 c 3.499855,-0.56263 6.529876,-2.70761 8.168999,-5.78292 0.808622,-1.51714 0.826834,-1.62998 0.826834,-5.12334 v -3.57204 l -0.988296,-0.11538 c -0.543565,-0.0635 -5.960909,-0.0604 -12.038541,0.007 l -11.050246,0.12214 v 0.84801 c 0,1.26161 0.931939,4.66958 1.681353,6.14848 1.991336,3.92971 5.694405,6.78659 9.69573,7.48016 1.698905,0.29447 1.800659,0.29415 3.704167,-0.0119 z m 5.185116,-15.399782 c 0.265398,-0.265401 -0.707036,-4.047199 -1.43837,-5.593819 -1.092044,-2.309437 -2.653337,-3.9454 -4.748983,-4.976101 -1.552757,-0.763693 -2.026428,-0.869619 -3.888676,-0.869619 -1.838121,0 -2.359295,0.113091 -3.913167,0.849122 -2.079175,0.984856 -4.068997,2.882932 -4.919818,4.692973 -0.748392,1.592138 -1.357352,3.955931 -1.357352,5.268823 v 1.042443 l 10.069377,-0.1431 c 5.538158,-0.0787 10.126803,-0.200539 10.196989,-0.270722 z m 74.296535,0.160332 3.6299,-0.174085 -0.1667,-1.082686 c -0.66292,-4.305559 -3.02717,-7.995137 -6.12438,-9.557534 -1.34938,-0.680696 -1.8339,-0.780486 -3.80104,-0.782854 -2.00658,-0.0024 -2.44443,0.09078 -3.98141,0.847434 -2.04967,1.009047 -4.00226,2.848462 -4.89604,4.612235 -0.71378,1.408592 -1.42576,4.119457 -1.43182,5.451682 l -0.004,0.859898 h 6.57275 c 3.61501,0 8.2062,-0.0783 10.20265,-0.17409 z m -114.739077,5.13503 c 0.238461,-0.30156 23.811704,-32.766417 25.947913,-35.735238 l 0.916167,-1.273253 -10.686139,0.08689 c -10.523609,0.08557 -10.709958,0.09642 -12.252159,0.713662 -0.86131,0.344723 -2.094604,1.114003 -2.740652,1.70951 l -1.174634,1.08274 0.451394,-1.052315 c 0.248267,-0.578773 0.64404,-1.558331 0.879494,-2.176795 l 0.4281,-1.124479 H 66.29954 c 8.408818,0 15.288762,0.05745 15.288762,0.127661 0,0.07021 -6.078879,8.493885 -13.508622,18.719272 l -13.508622,18.591615 5.43883,0.0715 c 3.325749,0.0437 5.438831,0.17222 5.438831,0.33073 0,0.16368 -3.034898,0.25921 -8.23448,0.25921 -6.55068,0 -8.181001,-0.0676 -7.972946,-0.33072 z"
         id="path334" /></g></g></svg>
