<?xml version="1.0" encoding="UTF-8" standalone="no"?>
<!-- Created with Inkscape (http://www.inkscape.org/) -->

<svg
   width="190.71683mm"
   height="201.00792mm"
   viewBox="0 0 190.71683 201.00792"
   version="1.1"
   id="svg5"
   xml:space="preserve"
   inkscape:export-filename="LogoEZ40.svg"
   inkscape:export-xdpi="96"
   inkscape:export-ydpi="96"
   xmlns:inkscape="http://www.inkscape.org/namespaces/inkscape"
   xmlns:sodipodi="http://sodipodi.sourceforge.net/DTD/sodipodi-0.dtd"
   xmlns="http://www.w3.org/2000/svg"
   xmlns:svg="http://www.w3.org/2000/svg"><sodipodi:namedview
     id="namedview7"
     pagecolor="#ffffff"
     bordercolor="#000000"
     borderopacity="0.25"
     inkscape:showpageshadow="2"
     inkscape:pageopacity="0.0"
     inkscape:pagecheckerboard="false"
     inkscape:deskcolor="#d1d1d1"
     inkscape:document-units="mm"
     showgrid="false"
     inkscape:zoom="0.56882515"
     inkscape:cx="676.83365"
     inkscape:cy="500.1537"
     inkscape:window-width="1387"
     inkscape:window-height="1027"
     inkscape:window-x="196"
     inkscape:window-y="25"
     inkscape:window-maximized="0"
     inkscape:current-layer="layer1" /><defs
     id="defs2"><linearGradient
       id="linearGradient2092"
       inkscape:swatch="solid"><stop
         style="stop-color:#ffc86a;stop-opacity:1;"
         offset="0"
         id="stop2090" /></linearGradient><rect
       x="275.96829"
       y="379.14563"
       width="451.24545"
       height="134.25485"
       id="rect13896-8" /><filter
       style="color-interpolation-filters:sRGB"
       inkscape:label="Duochrome"
       id="filter18896-0"
       x="0"
       y="0"
       width="1"
       height="1"><feColorMatrix
         type="luminanceToAlpha"
         result="colormatrix1"
         id="feColorMatrix18876-4" /><feFlood
         flood-opacity="1"
         flood-color="rgb(81,81,245)"
         result="flood1"
         id="feFlood18878-0" /><feComposite
         in2="colormatrix1"
         operator="out"
         result="composite1"
         id="feComposite18880-5" /><feFlood
         flood-opacity="1"
         flood-color="rgb(255,255,0)"
         result="flood2"
         id="feFlood18882-7" /><feComposite
         in2="colormatrix1"
         result="composite2"
         operator="in"
         id="feComposite18884-0" /><feComposite
         in="composite2"
         in2="composite1"
         k2="1"
         k3="1"
         operator="arithmetic"
         result="composite3"
         id="feComposite18886-0"
         k1="0"
         k4="0" /><feColorMatrix
         in="composite3"
         type="matrix"
         values="2 -1 0 0 0 0 2 -1 0 0 -1 0 2 0 0 0 0 0 1 0 "
         result="colormatrix2"
         id="feColorMatrix18888-5" /><feComposite
         in="colormatrix2"
         in2="composite3"
         operator="arithmetic"
         k2="0"
         result="composite4"
         id="feComposite18890-6"
         k1="0"
         k3="0"
         k4="0" /><feBlend
         in="composite4"
         in2="composite3"
         mode="normal"
         result="blend"
         id="feBlend18892-7" /><feComposite
         in2="SourceGraphic"
         operator="in"
         id="feComposite18894-8"
         result="fbSourceGraphic" /><feColorMatrix
         result="fbSourceGraphicAlpha"
         in="fbSourceGraphic"
         values="0 0 0 -1 0 0 0 0 -1 0 0 0 0 -1 0 0 0 0 1 0"
         id="feColorMatrix18898-0" /><feColorMatrix
         id="feColorMatrix18900-6"
         type="luminanceToAlpha"
         result="colormatrix1"
         in="fbSourceGraphic" /><feFlood
         id="feFlood18902-5"
         flood-opacity="1"
         flood-color="rgb(81,81,245)"
         result="flood1" /><feComposite
         in2="colormatrix1"
         id="feComposite18904-7"
         operator="out"
         result="composite1" /><feFlood
         id="feFlood18906-3"
         flood-opacity="1"
         flood-color="rgb(255,255,0)"
         result="flood2" /><feComposite
         in2="colormatrix1"
         id="feComposite18908-4"
         result="composite2"
         operator="in" /><feComposite
         in2="composite1"
         id="feComposite18910-3"
         in="composite2"
         k2="1"
         k3="1"
         operator="arithmetic"
         result="composite3"
         k1="0"
         k4="0" /><feColorMatrix
         id="feColorMatrix18912-0"
         in="composite3"
         type="matrix"
         values="2 -1 0 0 0 0 2 -1 0 0 -1 0 2 0 0 0 0 0 1 0 "
         result="colormatrix2" /><feComposite
         in2="composite3"
         id="feComposite18914-4"
         in="colormatrix2"
         operator="arithmetic"
         k2="0"
         result="composite4"
         k1="0"
         k3="0"
         k4="0" /><feBlend
         in2="composite3"
         id="feBlend18916-8"
         in="composite4"
         mode="normal"
         result="blend" /><feComposite
         in2="fbSourceGraphic"
         id="feComposite18918-7"
         operator="in" /></filter></defs><g
     inkscape:label="Ebene 1"
     inkscape:groupmode="layer"
     id="layer1"
     transform="translate(-28.06958,-148.4304)"><g
       inkscape:label="Ebene 1"
       id="layer1-0"
       transform="matrix(1.1,0,0,1.1,2.7754772,129.59338)"><g
         aria-label="8zense.com"
         transform="scale(1.1196594,0.89312872)"
         id="text14682-6"
         style="font-size:23.688px;font-family:'Arial Black';-inkscape-font-specification:'Arial Black, ';text-align:center;text-anchor:middle;fill:#deddda;fill-opacity:0.901961;fill-rule:evenodd;stroke-width:1.17269;stroke-miterlimit:0;stroke-dasharray:28.1449, 1.17269"><g
           id="g3063"><path
             style="display:inline;fill:#ac4928;stroke-width:0.264583"
             d="m 132.38314,99.223316 c 0.4697,-0.05845 1.30313,-0.05941 1.85208,-0.0021 0.54895,0.05728 0.16465,0.105098 -0.85399,0.106272 -1.01865,0.0011 -1.46779,-0.04569 -0.99809,-0.104137 z M 64.528452,98.966337 c 0.257431,-0.06708 0.614619,-0.06267 0.79375,0.0098 0.179132,0.07248 -0.03149,0.127363 -0.468056,0.121971 -0.436563,-0.0054 -0.583125,-0.06469 -0.325694,-0.131773 z m 5.022048,0.0011 c 0.254661,-0.06655 0.67138,-0.06655 0.926041,0 0.254662,0.06655 0.0463,0.121002 -0.46302,0.121002 -0.509323,0 -0.717683,-0.05445 -0.463021,-0.121002 z m 60.33003,-0.0011 c 0.25743,-0.06708 0.61462,-0.06267 0.79375,0.0098 0.17913,0.07248 -0.0315,0.127363 -0.46805,0.121971 -0.43657,-0.0054 -0.58313,-0.06469 -0.3257,-0.131773 z m 6.47726,0.0081 c 0.1819,-0.0734 0.47956,-0.0734 0.66146,0 0.1819,0.0734 0.0331,0.133453 -0.33073,0.133453 -0.3638,0 -0.51263,-0.06005 -0.33073,-0.133453 z M 61.943729,98.620524 c -0.333544,-0.14333 -0.382449,-0.227391 -0.132291,-0.227391 0.218281,0 0.635,0.102325 0.926041,0.227391 0.333544,0.14333 0.38245,0.227391 0.132292,0.227391 -0.218281,0 -0.635,-0.102325 -0.926042,-0.227391 z m 10.054167,0 c 0.291041,-0.125066 0.767291,-0.22389 1.058333,-0.219612 0.425393,0.0062 0.39945,0.04932 -0.132292,0.219612 -0.904655,0.289722 -1.600259,0.289722 -0.926041,0 z m 55.562494,0 c -0.33354,-0.14333 -0.38245,-0.227391 -0.13229,-0.227391 0.21828,0 0.635,0.102325 0.92604,0.227391 0.33355,0.14333 0.38245,0.227391 0.1323,0.227391 -0.21829,0 -0.635,-0.102325 -0.92605,-0.227391 z m 10.71563,0 c 0.21828,-0.141065 0.57547,-0.249936 0.79375,-0.241935 0.26169,0.0096 0.21662,0.092 -0.13229,0.241935 -0.72737,0.312558 -1.14511,0.312558 -0.66146,0 z m -78.581249,-0.79375 c -0.218281,-0.141065 -0.277813,-0.256479 -0.132292,-0.256479 0.145521,0 0.443177,0.115414 0.661459,0.256479 0.218281,0.141065 0.277812,0.256479 0.132291,0.256479 -0.145521,0 -0.443177,-0.115414 -0.661458,-0.256479 z m 15.345833,0 c 0.218281,-0.141065 0.515937,-0.256479 0.661458,-0.256479 0.145521,0 0.08599,0.115414 -0.132292,0.256479 -0.218281,0.141065 -0.515937,0.256479 -0.661458,0.256479 -0.145521,0 -0.08599,-0.115414 0.132292,-0.256479 z m -17.328335,-0.79072 c -0.09269,-0.149982 0.01351,-0.194337 0.248968,-0.103984 0.458369,0.175892 0.542234,0.365538 0.161649,0.365538 -0.136933,0 -0.32171,-0.1177 -0.410617,-0.261554 z m 19.445001,-0.003 c 0.218282,-0.141065 0.515938,-0.256479 0.661459,-0.256479 0.145521,0 0.08599,0.115414 -0.132292,0.256479 -0.218281,0.141065 -0.515937,0.256479 -0.661458,0.256479 -0.145521,0 -0.08599,-0.115414 0.132291,-0.256479 z m 46.0375,0 c -0.21828,-0.141065 -0.27781,-0.256479 -0.13229,-0.256479 0.14552,0 0.44317,0.115414 0.66146,0.256479 0.21828,0.141065 0.27781,0.256479 0.13229,0.256479 -0.14552,0 -0.44318,-0.115414 -0.66146,-0.256479 z m 19.31458,0.1606 c 0,-0.05719 0.18478,-0.17489 0.41062,-0.261554 0.23546,-0.09035 0.34166,-0.046 0.24897,0.103984 -0.15538,0.251409 -0.65959,0.371858 -0.65959,0.15757 z M 56.784354,96.503858 c -0.238466,-0.15411 -0.2711,-0.258099 -0.08176,-0.260533 0.173313,-0.0021 0.388698,0.115012 0.478635,0.260533 0.203016,0.328488 0.111423,0.328488 -0.396875,0 z m 22.225,-0.264584 c 0.218281,-0.141065 0.515937,-0.256479 0.661458,-0.256479 0.145521,0 0.08599,0.115414 -0.132292,0.256479 -0.218281,0.141065 -0.515937,0.256479 -0.661458,0.256479 -0.145521,0 -0.08599,-0.115414 0.132292,-0.256479 z M 63.068208,95.787966 c 0.327422,-0.06307 0.863203,-0.06307 1.190625,0 0.327422,0.06306 0.05953,0.114663 -0.595312,0.114663 -0.654844,0 -0.922734,-0.0516 -0.595313,-0.114663 z m 3.439584,0 c 0.327421,-0.06307 0.863203,-0.06307 1.190625,0 0.327421,0.06306 0.05953,0.114663 -0.595313,0.114663 -0.654844,0 -0.922734,-0.0516 -0.595312,-0.114663 z m 13.559895,0.07305 c 0,-0.07276 0.238125,-0.259734 0.529167,-0.415494 0.291041,-0.15576 0.529166,-0.223671 0.529166,-0.15091 0,0.07276 -0.238125,0.259733 -0.529166,0.415494 -0.291042,0.15576 -0.529167,0.22367 -0.529167,0.15091 z m -19.628775,-0.33165 c 0.190996,-0.07643 0.419199,-0.06703 0.507118,0.02088 0.08792,0.08792 -0.06835,0.150452 -0.347266,0.138964 -0.308224,-0.0127 -0.370919,-0.07539 -0.159852,-0.159851 z m 9.260416,0 c 0.190996,-0.07643 0.419199,-0.06703 0.507118,0.02088 0.08792,0.08792 -0.06835,0.150452 -0.347266,0.138964 -0.308224,-0.0127 -0.370919,-0.07539 -0.159852,-0.159851 z M 58.636438,95.16885 c -0.28984,-0.196138 -0.182805,-0.220684 0.396875,-0.09102 0.972854,0.217612 1.18404,0.369048 0.507118,0.36364 -0.278915,-0.0022 -0.685712,-0.124907 -0.903993,-0.27262 z m 12.121223,0.09593 c 0.190996,-0.07643 0.419199,-0.06703 0.507118,0.02087 0.08792,0.08792 -0.06835,0.150453 -0.347265,0.138965 -0.308225,-0.0127 -0.37092,-0.07539 -0.159853,-0.159851 z M 146.06339,95.2098 c 0.18877,-0.305432 1.20846,-0.921457 1.20846,-0.730062 0,0.06114 -0.31232,0.315806 -0.69403,0.56592 -0.38172,0.25011 -0.61322,0.323977 -0.51443,0.164142 z M 81.584631,94.883525 c 0.179477,-0.180821 0.392969,-0.262114 0.474432,-0.180652 0.08146,0.08146 -0.06538,0.229407 -0.326319,0.328766 -0.377084,0.143584 -0.407474,0.113194 -0.148113,-0.148114 z m 37.376809,0.03283 c -0.23847,-0.15411 -0.2711,-0.258099 -0.0818,-0.260533 0.17332,-0.0021 0.3887,0.115012 0.47864,0.260533 0.20302,0.328488 0.11142,0.328488 -0.39687,0 z m -66.030188,-1.12448 -0.777106,-0.859896 0.859896,0.777106 c 0.472943,0.427407 0.859896,0.814361 0.859896,0.859895 0,0.204407 -0.218315,0.02445 -0.942686,-0.777105 z m 64.496478,0.217205 c -1.22897,-0.868961 -1.40193,-1.117322 -0.36418,-0.522936 0.48413,0.277291 1.00472,0.652997 1.15688,0.834898 0.39101,0.467474 0.2075,0.395253 -0.7927,-0.311962 z m 13.25118,0.446878 c 0.84206,-0.05267 2.15174,-0.05218 2.91041,0.0011 0.75868,0.05326 0.0697,0.09635 -1.53101,0.09575 -1.60073,-5.29e-4 -2.22146,-0.04417 -1.3794,-0.09684 z M 148.0656,93.72573 c 0.34178,-0.363803 0.68094,-0.661459 0.7537,-0.661459 0.0728,0 -0.14734,0.297656 -0.48912,0.661459 -0.34177,0.363802 -0.68093,0.661458 -0.7537,0.661458 -0.0728,0 0.14735,-0.297656 0.48912,-0.661458 z m -92.868746,0.132291 c -0.238466,-0.154109 -0.2711,-0.258098 -0.08176,-0.260532 0.173313,-0.0021 0.388699,0.115011 0.478635,0.260532 0.203017,0.328488 0.111423,0.328488 -0.396875,0 z m 20.30236,-0.03283 c 0.179477,-0.180822 0.39297,-0.262115 0.474432,-0.180652 0.08146,0.08146 -0.06538,0.229407 -0.326318,0.328766 -0.377084,0.143584 -0.407474,0.113194 -0.148114,-0.148114 z m 50.870556,0.03283 c -0.21828,-0.141065 -0.27781,-0.256479 -0.13229,-0.256479 0.14552,0 0.44317,0.115414 0.66146,0.256479 0.21828,0.141065 0.27781,0.256479 0.13229,0.256479 -0.14552,0 -0.44318,-0.115414 -0.66146,-0.256479 z m 10.84792,0 c 0.21828,-0.141065 0.51593,-0.256479 0.66145,-0.256479 0.14552,0 0.086,0.115414 -0.13229,0.256479 -0.21828,0.141065 -0.51594,0.256479 -0.66146,0.256479 -0.14552,0 -0.086,-0.115414 0.1323,-0.256479 z m -53.445836,-0.0999 c 0,-0.05494 0.208359,-0.2633 0.46302,-0.463021 0.419645,-0.329107 0.429004,-0.319749 0.0999,0.0999 -0.345643,0.44073 -0.562916,0.580888 -0.562916,0.363125 z M 53.472336,92.885892 c -1.81351,-1.217858 -3.288166,-2.504548 -4.16124,-3.630832 -0.598605,-0.77221 -0.386096,-0.620731 0.736181,0.524764 0.867736,0.885687 2.262312,2.063403 3.099057,2.617147 1.331001,0.880833 1.713647,1.19647 1.450481,1.19647 -0.03898,0 -0.544996,-0.318397 -1.124479,-0.707549 z m 79.713534,0.52042 c 0.32912,-0.06329 0.80537,-0.06088 1.05834,0.0053 0.25296,0.06622 -0.0163,0.118004 -0.5984,0.115068 -0.58208,-0.0029 -0.78905,-0.05712 -0.45994,-0.120407 z m -9.06319,-0.339008 c -0.0927,-0.149982 0.0135,-0.194337 0.24897,-0.103984 0.45837,0.175892 0.54224,0.365538 0.16165,0.365538 -0.13693,0 -0.32171,-0.1177 -0.41062,-0.261554 z m 14.94709,0.15757 c 0,-0.05719 0.18478,-0.17489 0.41062,-0.261554 0.23545,-0.09035 0.34166,-0.046 0.24896,0.103984 -0.15538,0.251409 -0.65958,0.371858 -0.65958,0.15757 z m -87.993246,-1.022295 -0.774461,-0.856173 0.79375,0.660495 c 0.436562,0.363276 0.843359,0.690264 0.903993,0.726644 0.06063,0.03638 0.05195,0.124436 -0.01929,0.195678 -0.07124,0.07124 -0.478039,-0.255746 -0.903992,-0.726644 z m 16.688038,0.348676 c 1.309688,-0.08164 2.143125,-0.223925 1.852084,-0.316185 -0.382376,-0.121214 -0.272283,-0.176668 0.396875,-0.199914 1.48335,-0.05152 3.687707,-0.771284 5.886979,-1.922195 0.254661,-0.133268 0.46302,-0.182388 0.46302,-0.109154 0,0.07323 -0.327421,0.31078 -0.727604,0.527883 -0.476318,0.258406 -0.576331,0.398389 -0.289591,0.405324 0.428286,0.01037 4.868396,-2.179392 6.97032,-3.437589 0.629994,-0.377108 0.925407,-0.466944 0.729901,-0.221964 -0.180639,0.226348 -0.2438,0.496178 -0.140356,0.59962 0.103441,0.103444 -0.01667,0.109516 -0.26688,0.01349 -0.313904,-0.120457 -0.454956,-0.04276 -0.454956,0.2506 0,0.233852 -0.0893,0.411083 -0.198438,0.393851 -0.597895,-0.09441 -1.134507,0.06564 -0.992187,0.295915 0.08994,0.145521 -0.08866,0.264583 -0.396875,0.264583 -0.308219,0 -0.491898,0.110837 -0.408176,0.246301 0.08373,0.135466 0.01283,0.332457 -0.157556,0.437756 -0.193469,0.11957 -0.238898,0.07677 -0.120992,-0.114009 0.103833,-0.168006 0.09246,-0.301678 -0.02527,-0.297051 -0.315288,0.01241 -1.294638,0.791488 -1.140095,0.906968 0.07276,0.05437 0.02392,0.198072 -0.108567,0.319342 -0.1422,0.130175 -0.154209,0.07096 -0.02932,-0.144569 0.145548,-0.251169 0.09687,-0.323392 -0.156016,-0.23151 -0.202158,0.07345 -0.341863,0.255278 -0.31046,0.404064 0.03205,0.15186 -0.18919,0.206113 -0.504394,0.123687 -0.365352,-0.09554 -0.499321,-0.04624 -0.383513,0.141145 0.09789,0.158387 0.03858,0.374134 -0.1318,0.479433 -0.193468,0.11957 -0.238897,0.07677 -0.120991,-0.114009 0.25858,-0.418391 -0.162385,-0.383035 -1.068969,0.08978 -0.416817,0.217384 -0.942396,0.395978 -1.167953,0.396875 -0.225558,7.93e-4 -0.523214,0.101481 -0.661459,0.223522 -0.478114,0.422074 -3.761698,0.836245 -6.234984,0.786443 l -2.483034,-0.05 z m 54.901038,-0.01615 c -0.21828,-0.141065 -0.27781,-0.256479 -0.13229,-0.256479 0.14552,0 0.44318,0.115414 0.66146,0.256479 0.21828,0.141066 0.27781,0.25648 0.13229,0.25648 -0.14552,0 -0.44318,-0.115414 -0.66146,-0.25648 z m 17.72709,0.150911 c 0,-0.07276 0.23812,-0.259734 0.52916,-0.415494 0.29104,-0.15576 0.52917,-0.223671 0.52917,-0.15091 0,0.07276 -0.23813,0.259733 -0.52917,0.415493 -0.29104,0.155761 -0.52916,0.223671 -0.52916,0.150911 z m -77.258336,-0.41651 c 0,-0.163256 -0.208359,-0.26153 -0.463021,-0.218387 -0.254661,0.04314 -0.487375,-0.03867 -0.517141,-0.181808 -0.06149,-0.295688 0.996781,-0.192839 1.333945,0.12964 0.12182,0.116515 0.09205,0.291841 -0.06615,0.389615 -0.1582,0.09777 -0.287637,0.0442 -0.287637,-0.11906 z m 23.151041,-0.374441 c 0.436563,-0.375264 1.329531,-1.04912 1.984375,-1.497462 0.914532,-0.626139 1.006562,-0.65695 0.396875,-0.132874 -0.436562,0.375264 -1.329531,1.049121 -1.984375,1.497462 -0.914532,0.62614 -1.006562,0.65695 -0.396875,0.132874 z m 28.408955,0.17702 c -0.3291,-0.419645 -0.31975,-0.429004 0.0999,-0.0999 0.25466,0.19972 0.46302,0.40808 0.46302,0.46302 0,0.217763 -0.21727,0.07761 -0.56292,-0.363124 z m 35.7525,-0.727605 c 0.49366,-0.509322 0.95709,-0.926041 1.02985,-0.926041 0.0728,0 -0.27161,0.416719 -0.76527,0.926041 -0.49365,0.509323 -0.95708,0.926042 -1.02984,0.926042 -0.0728,0 0.27161,-0.416719 0.76526,-0.926042 z m -29.51662,0.249987 c -0.49318,-0.395126 -0.48994,-0.400011 0.0817,-0.122981 0.32742,0.158668 0.59531,0.343828 0.59531,0.411469 0,0.202465 -0.13722,0.143997 -0.67704,-0.288488 z m 12.12825,0.216667 c 0.69562,-0.05468 1.76718,-0.05402 2.38125,0.0016 0.61407,0.05549 0.0449,0.100229 -1.26475,0.09942 -1.30969,-7.94e-4 -1.81211,-0.04621 -1.1165,-0.100888 z m 8.65712,0.09082 c 0,-0.05719 0.18478,-0.17489 0.41062,-0.261554 0.23546,-0.09035 0.34166,-0.046 0.24897,0.103984 -0.15538,0.25141 -0.65959,0.371859 -0.65959,0.15757 z m -80.609718,-0.5827 c 0,-0.416605 0.332197,-0.49712 0.556129,-0.134789 0.08051,0.13027 -0.01168,0.297513 -0.204871,0.371647 -0.193192,0.07414 -0.351258,-0.03245 -0.351258,-0.236858 z m 75.869268,0.324908 c 0.31183,-0.274918 2.09462,-0.427593 2.09462,-0.179379 0,0.152114 -0.4961,0.276571 -1.10243,0.276571 -0.60634,0 -1.05282,-0.04373 -0.99219,-0.09719 z m -24.25349,-1.112549 -1.03627,-0.945157 1.12448,0.857146 c 1.0275,0.783223 1.27819,1.033169 1.03627,1.033169 -0.0485,0 -0.55453,-0.42532 -1.12448,-0.945158 z m 17.03808,0.764419 c 0.191,-0.07643 0.4192,-0.06703 0.50712,0.02087 0.0879,0.08792 -0.0684,0.150453 -0.34726,0.138965 -0.30823,-0.0127 -0.37092,-0.07539 -0.15986,-0.159851 z m 13.34263,-0.22801 c 0.10788,-0.16577 0.14329,-0.354251 0.0787,-0.418849 -0.0646,-0.0646 0.44245,-0.452787 1.12677,-0.862642 l 1.24423,-0.745194 -0.77446,0.818084 c -0.42595,0.449942 -0.82769,0.764855 -0.89274,0.699799 -0.0651,-0.06505 -0.31186,0.09063 -0.54846,0.345959 -0.23659,0.255333 -0.34191,0.328612 -0.23403,0.162843 z m -23.4776,-0.117388 c -0.0927,-0.149982 0.0135,-0.194336 0.24896,-0.103984 0.45837,0.175892 0.54224,0.365538 0.16165,0.365538 -0.13693,0 -0.32171,-0.1177 -0.41061,-0.261554 z m 20.0999,0.0076 c 0.0935,-0.151352 0.31188,-0.275283 0.48519,-0.275397 0.17332,-1.14e-4 1.08902,-0.382394 2.03491,-0.849513 2.15394,-1.063707 2.37889,-1.142318 1.71979,-0.601001 -1.20956,0.993407 -4.65363,2.39537 -4.23989,1.725911 z M 59.518382,90.562372 c 0,-0.211881 0.101161,-0.322715 0.224802,-0.246301 0.123641,0.07641 0.156302,0.249769 0.07258,0.385236 -0.213949,0.346175 -0.297382,0.307197 -0.297382,-0.138935 z m -10.17611,-0.342369 c -0.329107,-0.419645 -0.319749,-0.429003 0.09989,-0.0999 0.254662,0.199721 0.463021,0.40808 0.463021,0.463021 0,0.217763 -0.217272,0.0776 -0.562916,-0.363125 z m 69.320828,0 c -0.32911,-0.419645 -0.31975,-0.429003 0.0999,-0.0999 0.25466,0.199721 0.46302,0.40808 0.46302,0.463021 0,0.217763 -0.21727,0.0776 -0.56292,-0.363125 z M 76.628104,89.775601 c 0,-0.07276 0.238125,-0.259733 0.529166,-0.415494 0.291042,-0.15576 0.529167,-0.22367 0.529167,-0.15091 0,0.07276 -0.238125,0.259734 -0.529167,0.415494 -0.291041,0.15576 -0.529166,0.223671 -0.529166,0.15091 z m 6.614583,0 c 0,-0.07276 0.238125,-0.259733 0.529167,-0.415494 0.291041,-0.15576 0.529166,-0.22367 0.529166,-0.15091 0,0.07276 -0.238125,0.259734 -0.529166,0.415494 -0.291042,0.15576 -0.529167,0.223671 -0.529167,0.15091 z m 6.746875,-0.680077 c 0.26339,-0.291042 0.538421,-0.529167 0.611182,-0.529167 0.07276,0 -0.08321,0.238125 -0.346599,0.529167 -0.26339,0.291042 -0.538422,0.529167 -0.611182,0.529167 -0.07276,0 0.08321,-0.238125 0.346599,-0.529167 z m 18.917708,-1.878184 -2.51354,-2.401179 2.57969,2.31362 c 2.30491,2.067187 2.7441,2.50258 2.51354,2.491825 -0.0364,-0.0016 -1.19724,-1.083617 -2.57969,-2.404266 z m 8.04465,1.812038 -0.50403,-0.595312 0.59532,0.504028 c 0.55944,0.473663 0.71576,0.686597 0.50403,0.686597 -0.0502,0 -0.3181,-0.267891 -0.59532,-0.595313 z M 56.499746,88.677334 c -0.352788,-0.375525 -0.641433,-0.762479 -0.641433,-0.859896 0,-0.09742 -0.09815,-0.144406 -0.218104,-0.10442 -0.119957,0.03998 -0.137162,-0.05827 -0.03823,-0.218337 0.118186,-0.191227 0.39678,-0.08726 0.812373,0.303168 0.347876,0.326813 0.574473,0.652235 0.503549,0.723159 -0.07092,0.07092 0.0037,0.288737 0.165732,0.484026 0.51927,0.625684 0.08035,0.379338 -0.583884,-0.3277 z m 21.451274,0.304517 c 0,-0.07276 0.238125,-0.259733 0.529167,-0.415494 0.291042,-0.15576 0.529167,-0.22367 0.529167,-0.15091 0,0.07276 -0.238125,0.259734 -0.529167,0.415494 -0.291042,0.15576 -0.529167,0.223671 -0.529167,0.15091 z m 6.614584,0.01378 c 0,-0.05494 0.208359,-0.2633 0.46302,-0.463021 0.419645,-0.329107 0.429004,-0.319749 0.0999,0.0999 -0.345643,0.440722 -0.562916,0.58088 -0.562916,0.363117 z m 7.276041,-1.357783 c 1.326078,-1.219399 3.042708,-2.594079 3.042708,-2.436604 0,0.06541 -0.922734,0.859377 -2.050521,1.764363 -1.127786,0.904989 -1.57427,1.207498 -0.992187,0.672241 z m 23.911045,0.465492 c -0.32911,-0.419645 -0.31975,-0.429004 0.0999,-0.0999 0.25466,0.199721 0.46302,0.408081 0.46302,0.463021 0,0.217763 -0.21727,0.0776 -0.56291,-0.363124 z m 30.1642,-0.79375 c 0.67247,-0.691224 1.27477,-1.224511 1.33846,-1.185077 0.14701,0.09102 -2.14979,2.441847 -2.38573,2.441847 -0.0965,0 0.3748,-0.565546 1.04727,-1.25677 z m -66.642953,0.892283 c 0,-0.05494 0.208359,-0.2633 0.463021,-0.463021 0.419645,-0.329107 0.429003,-0.319749 0.0999,0.0999 -0.345644,0.44073 -0.562917,0.580888 -0.562917,0.363125 z m 7.14375,-0.529167 c 0,-0.05494 0.208359,-0.2633 0.463021,-0.46302 0.419645,-0.329108 0.429003,-0.319749 0.0999,0.0999 -0.345644,0.440729 -0.562917,0.580887 -0.562917,0.363124 z m 27.896893,-0.759999 -0.7771,-0.859896 0.85989,0.777105 c 0.80155,0.724371 0.98151,0.942686 0.77711,0.942686 -0.0455,0 -0.43249,-0.386953 -0.8599,-0.859895 z m 7.78811,0.132291 c -0.32911,-0.419645 -0.31975,-0.429003 0.0999,-0.0999 0.25466,0.199721 0.46302,0.40808 0.46302,0.463021 0,0.217763 -0.21727,0.0776 -0.56291,-0.363125 z m 31.51916,-0.330729 c 0.15576,-0.291042 0.34273,-0.529167 0.4155,-0.529167 0.0728,0 0.005,0.238125 -0.15092,0.529167 -0.15576,0.291042 -0.34273,0.529167 -0.41549,0.529167 -0.0728,0 -0.005,-0.238125 0.15091,-0.529167 z m -72.49583,0.164687 c 0,-0.05494 0.20836,-0.2633 0.463021,-0.46302 0.419645,-0.329108 0.429003,-0.319749 0.0999,0.0999 -0.345644,0.440729 -0.562917,0.580887 -0.562917,0.363124 z m 6.35,0 c 0,-0.05494 0.208359,-0.2633 0.463021,-0.46302 0.419645,-0.329108 0.429003,-0.319749 0.0999,0.0999 -0.345644,0.440729 -0.562917,0.580887 -0.562917,0.363124 z m -3.036154,-0.704458 c 0.08633,-0.139689 0.318613,-0.253979 0.516178,-0.253979 0.197567,0 0.405355,-0.138425 0.461751,-0.307612 0.05639,-0.169186 0.311086,-0.33822 0.56598,-0.375629 0.360104,-0.05285 0.397727,0.01116 0.168733,0.287083 -0.350335,0.422127 -1.946113,1.027904 -1.712642,0.650137 z M 54.300734,85.872111 c 0.07641,-0.12364 0.24977,-0.156303 0.385236,-0.07258 0.346176,0.213947 0.307197,0.297381 -0.138935,0.297381 -0.21188,0 -0.322716,-0.101161 -0.246301,-0.224803 z m 27.88362,0.2131 c 0,-0.05494 0.208359,-0.2633 0.46302,-0.46302 0.419645,-0.329108 0.429004,-0.319749 0.0999,0.0999 -0.345644,0.440729 -0.562917,0.580887 -0.562917,0.363124 z m 6.349999,0 c 0,-0.05494 0.20836,-0.2633 0.463021,-0.46302 0.419645,-0.329108 0.429004,-0.319749 0.0999,0.0999 -0.345643,0.440729 -0.562917,0.580887 -0.562917,0.363124 z m 23.580037,-0.969287 c -0.63718,-0.576117 -1.0483,-1.047483 -0.9136,-1.047483 0.13471,0 0.70997,0.47625 1.27835,1.058333 1.31714,1.348867 1.13303,1.34339 -0.36475,-0.01085 z m 42.03663,0.555632 c 0,-0.136932 0.1177,-0.321712 0.26155,-0.410617 0.14998,-0.09269 0.19434,0.01352 0.10399,0.248968 -0.1759,0.458369 -0.36554,0.542234 -0.36554,0.161649 z M 119.72144,85.19292 c -0.32911,-0.419645 -0.31975,-0.429003 0.0999,-0.0999 0.44073,0.345644 0.58089,0.562917 0.36313,0.562917 -0.0549,0 -0.2633,-0.20836 -0.46302,-0.463021 z m 28.07958,-0.06615 c 0.15576,-0.291042 0.34273,-0.529167 0.41549,-0.529167 0.0728,0 0.005,0.238125 -0.15091,0.529167 -0.15576,0.291042 -0.34273,0.529167 -0.41549,0.529167 -0.0728,0 -0.005,-0.238125 0.15091,-0.529167 z M 53.970201,84.996001 c -0.08344,-0.217445 -0.250071,-0.334565 -0.370288,-0.260265 -0.120218,0.0743 -0.286903,0.02453 -0.370412,-0.110585 -0.08351,-0.135121 0.04071,-0.217414 0.276037,-0.182875 0.394417,0.05789 1.117563,0.949081 0.770118,0.949081 -0.08456,0 -0.222013,-0.177911 -0.305455,-0.395356 z m 29.272486,0.314397 c 0,-0.06434 1.101328,-1.051359 2.447396,-2.193362 1.346067,-1.142005 3.924366,-3.538246 5.729549,-5.324983 1.805186,-1.786736 3.360486,-3.248612 3.456228,-3.248612 0.285866,0 1.595993,1.460325 1.595993,1.778963 0,0.162139 -1.731192,1.846053 -3.847097,3.742028 -4.434898,3.973934 -5.942486,5.207151 -5.942486,4.860999 0,-0.329692 0.892765,-1.121574 1.264457,-1.121574 0.163211,0 0.391962,-0.148828 0.508333,-0.330729 0.116372,-0.181901 0.761672,-0.772517 1.434,-1.312479 0.67233,-0.539961 2.147784,-1.849649 3.27879,-2.910416 1.131004,-1.060768 2.277557,-2.084248 2.547895,-2.274398 0.663676,-0.466823 0.619488,-0.797912 -0.208954,-1.565688 l -0.700479,-0.649182 -3.466709,3.416091 c -4.545451,4.479087 -8.096916,7.607909 -8.096916,7.133342 z m 6.879166,-0.580499 c 0.341776,-0.363802 0.68094,-0.661458 0.7537,-0.661458 0.07276,0 -0.147341,0.297656 -0.489116,0.661458 -0.341776,0.363802 -0.68094,0.661458 -0.7537,0.661458 -0.07276,0 0.147341,-0.297656 0.489116,-0.661458 z m 5.027084,0.314084 c 0,-0.04553 0.386953,-0.432488 0.859895,-0.859896 l 0.859896,-0.777105 -0.777105,0.859896 c -0.724371,0.801545 -0.942686,0.981512 -0.942686,0.777105 z m 10.425903,-1.041688 -0.50403,-0.595313 0.59531,0.504029 c 0.55945,0.473662 0.71577,0.686596 0.50403,0.686596 -0.0502,0 -0.3181,-0.26789 -0.59531,-0.595312 z M 53.080188,83.788242 c 0,-0.154109 0.119062,-0.206613 0.264583,-0.116676 0.145521,0.08994 0.264584,0.216027 0.264584,0.280199 0,0.06417 -0.119063,0.116676 -0.264584,0.116676 -0.145521,0 -0.264583,-0.12609 -0.264583,-0.280199 z m 38.099999,0.21953 c 0,-0.06047 0.803672,-0.810355 1.785937,-1.666415 0.982266,-0.856059 1.547813,-1.280665 1.256771,-0.94357 -0.582999,0.675251 -3.042708,2.78515 -3.042708,2.609985 z m 24.600403,-2.519019 -2.24311,-2.315104 2.3151,2.243116 c 1.27331,1.233715 2.31511,2.275512 2.31511,2.315105 0,0.192513 -0.30376,-0.09292 -2.3871,-2.243117 z m -17.853529,0.992188 c 0.568389,-0.582084 1.092968,-1.058334 1.165728,-1.058334 0.07276,0 -0.332756,0.47625 -0.901144,1.058334 -0.568389,0.582083 -1.092967,1.058333 -1.165728,1.058333 -0.07276,0 0.332756,-0.47625 0.901144,-1.058333 z m 6.631589,0.606724 c -0.14358,-0.377084 -0.11319,-0.407474 0.14812,-0.148114 0.18082,0.179477 0.26211,0.39297 0.18065,0.474432 -0.0815,0.08146 -0.22941,-0.06538 -0.32877,-0.326318 z m 7.25,-1.069745 -1.44617,-1.521354 1.52135,1.44617 c 1.41339,1.343538 1.64256,1.596538 1.44617,1.596538 -0.0413,0 -0.72596,-0.684609 -1.52135,-1.521354 z m 37.46459,0.650047 c 0.0994,-0.260938 0.2473,-0.407781 0.32876,-0.326319 0.0815,0.08146 1.7e-4,0.294955 -0.18065,0.474433 -0.26131,0.25936 -0.2917,0.22897 -0.14811,-0.148114 z M 52.324336,82.509963 c -0.22073,-0.139862 -0.256881,-0.290558 -0.09387,-0.391306 0.145808,-0.09011 0.333377,0.01408 0.416819,0.231511 0.17532,0.45688 0.158807,0.46505 -0.322949,0.159795 z M 103.6156,82.216357 c -0.23846,-0.154109 -0.2711,-0.258098 -0.0818,-0.260532 0.17331,-0.0021 0.3887,0.115012 0.47864,0.260532 0.20301,0.328489 0.11142,0.328489 -0.39688,0 z m 3.18309,-2.240833 c -1.22606,-1.232458 -2.17593,-2.274255 -2.11083,-2.315104 0.0651,-0.04085 1.13886,0.967526 2.38612,2.240833 1.24727,1.273308 2.19714,2.315104 2.11083,2.315104 -0.0863,0 -1.16007,-1.008374 -2.38612,-2.240833 z m -55.075186,1.528845 c -0.01857,-0.117729 -0.07722,-0.452178 -0.130342,-0.74322 -0.241652,-1.324089 -0.350478,-2.34556 -0.211413,-1.984375 0.583426,1.515293 0.837967,2.65584 0.622445,2.789039 -0.135808,0.08393 -0.262118,0.05628 -0.28069,-0.06144 z m 50.441636,-0.870654 c -0.56578,-0.579414 -0.9769,-1.092975 -0.91359,-1.141248 0.0633,-0.04827 0.57705,0.425791 1.14166,1.053478 1.28916,1.433163 1.14125,1.490086 -0.22807,0.08777 z m -2.900446,-1.575591 -1.043617,-1.207392 1.162939,1.115402 c 0.639614,0.613468 1.109244,1.156795 1.043614,1.207391 -0.0656,0.0506 -0.588946,-0.451334 -1.162936,-1.115401 z m 10.014316,0.446254 -0.50403,-0.595312 0.59531,0.504028 c 0.55945,0.473663 0.71576,0.686597 0.50403,0.686597 -0.0502,0 -0.3181,-0.267891 -0.59531,-0.595313 z m -9.512314,-1.5875 -1.045885,-1.124479 1.12448,1.045885 c 1.045759,0.972661 1.246059,1.203073 1.045889,1.203073 -0.0432,0 -0.54925,-0.506015 -1.124484,-1.124479 z m -2.765676,0.76 c 0,-0.05494 0.208359,-0.2633 0.463021,-0.463021 0.419645,-0.329107 0.429003,-0.319749 0.0999,0.0999 -0.345644,0.44073 -0.562917,0.580888 -0.562917,0.363125 z m 10.69898,-0.76 -0.77711,-0.859896 0.8599,0.777105 c 0.80154,0.724371 0.98151,0.942687 0.77711,0.942687 -0.0455,0 -0.43249,-0.386953 -0.8599,-0.859896 z m 43.29691,-0.61736 c 0.0127,-0.308226 0.0754,-0.370919 0.15985,-0.159853 0.0764,0.190994 0.067,0.419198 -0.0209,0.507119 -0.0879,0.08792 -0.15045,-0.06835 -0.13896,-0.347266 z m -47.11672,-0.390443 c 0,-0.154109 0.11906,-0.206613 0.26458,-0.116676 0.14552,0.08994 0.26458,0.216027 0.26458,0.280199 0,0.06417 -0.11906,0.116676 -0.26458,0.116676 -0.14552,0 -0.26458,-0.12609 -0.26458,-0.280199 z m -6.099663,-1.241155 -0.911799,-0.992188 0.992188,0.9118 c 0.545703,0.501488 0.992187,0.947972 0.992187,0.992187 0,0.202041 -0.223896,0.01172 -1.072576,-0.911799 z m 12.565303,0.132292 -0.7771,-0.859896 0.85989,0.777105 c 0.80155,0.724371 0.98152,0.942686 0.77711,0.942686 -0.0455,0 -0.43249,-0.386953 -0.8599,-0.859895 z m -59.626004,0.176389 c 0.0127,-0.308226 0.07539,-0.370919 0.159852,-0.159853 0.07643,0.190995 0.06703,0.419198 -0.02089,0.507119 -0.08792,0.08792 -0.150452,-0.06835 -0.138964,-0.347266 z m 100.616154,-2.22691 c 0,-1.382448 0.0446,-1.947995 0.0991,-1.256771 0.0545,0.691224 0.0545,1.822318 0,2.513542 -0.0545,0.691223 -0.0991,0.125677 -0.0991,-1.256771 z m -52.08982,-1.653646 -3.435765,-3.505729 3.505729,3.435765 c 3.256526,3.191539 3.625646,3.575693 3.435766,3.575693 -0.0385,0 -1.61606,-1.577578 -3.50573,-3.505729 z m -4.212592,0.917366 C 94.100814,71.895536 94.082486,71.84813 94.8579,72.559066 c 0.734605,0.67352 1.539865,1.739556 1.292532,1.711116 -0.0415,-0.0048 -0.544089,-0.57032 -1.116864,-1.256771 z m 9.579332,-3.158398 -3.10093,-3.10093 -0.95905,0.918118 c -0.52749,0.504962 -1.058652,1.15624 -1.180376,1.447281 -0.153623,0.367316 -0.226444,0.404397 -0.238086,0.121235 -0.0092,-0.224364 0.521214,-0.935926 1.178752,-1.581251 l 1.19552,-1.173318 3.2349,3.234896 c 1.77919,1.779194 3.17534,3.234897 3.10255,3.234897 -0.0728,0 -1.52777,-1.395418 -3.23328,-3.100928 z m 2.02027,1.182698 -0.50403,-0.595312 0.59532,0.504029 c 0.55944,0.473662 0.71576,0.686596 0.50403,0.686596 -0.0502,0 -0.3181,-0.267891 -0.59532,-0.595313 z m 3.8616,-1.918229 c 1.3767,-1.382448 2.56262,-2.513541 2.63538,-2.513541 0.0728,0 -0.9941,1.131093 -2.3708,2.513541 -1.3767,1.382448 -2.56262,2.513542 -2.63538,2.513542 -0.0728,0 0.9941,-1.131094 2.3708,-2.513542 z m 40.50214,1.036286 c 0.0127,-0.308226 0.0754,-0.370919 0.15985,-0.159853 0.0764,0.190994 0.067,0.419198 -0.0209,0.507119 -0.0879,0.08792 -0.15045,-0.06835 -0.13896,-0.347266 z m -61.93339,-2.947228 -1.984375,-2.029346 1.851856,1.705559 c 2.611514,2.405208 2.574467,2.367754 2.334231,2.360078 -0.119536,-0.0038 -1.110306,-0.920149 -2.201712,-2.036291 z m 14.93231,0.654171 -0.7771,-0.859895 0.81209,0.731308 c 0.44666,0.40222 0.91223,0.640345 1.03461,0.529167 0.12238,-0.111178 0.13687,-0.05331 0.0322,0.128587 -0.25137,0.436798 -0.21153,0.455933 -1.10179,-0.529167 z m 4.38227,0.198438 c 0.34178,-0.363802 0.68094,-0.661458 0.7537,-0.661458 0.0728,0 -0.14734,0.297656 -0.48911,0.661458 -0.34178,0.363802 -0.68094,0.661458 -0.7537,0.661458 -0.0728,0 0.14734,-0.297656 0.48911,-0.661458 z m -13.604792,-0.339042 -0.507921,-0.719291 0.706358,0.641432 c 0.742262,0.674039 0.833747,0.819113 0.507921,0.805463 -0.109141,-0.0046 -0.427001,-0.331997 -0.706358,-0.727604 z m 10.694382,0.222366 c 0,-0.136932 0.1177,-0.321712 0.26155,-0.410617 0.14998,-0.0927 0.19434,0.01352 0.10398,0.248967 -0.17589,0.45837 -0.36553,0.542235 -0.36553,0.16165 z m 1.32291,-1.206241 c 0.34178,-0.363802 0.68094,-0.661458 0.7537,-0.661458 0.0728,0 -0.14734,0.297656 -0.48911,0.661458 -0.34178,0.363802 -0.68094,0.661459 -0.7537,0.661459 -0.0728,0 0.14734,-0.297657 0.48911,-0.661459 z m -14.429734,-1.256771 -1.312971,-1.389062 1.449615,1.322917 c 0.797287,0.727604 1.501741,1.352682 1.565452,1.389062 0.06371,0.03638 0.0021,0.06615 -0.136646,0.06615 -0.138864,0 -0.843318,-0.625078 -1.56545,-1.389063 z m 10.283624,0.970153 c -0.0975,-0.2541 0.0841,-0.644448 0.46151,-0.992187 0.59354,-0.546825 0.60105,-0.547574 0.16267,-0.01622 -0.2573,0.311875 -0.38608,0.74857 -0.2926,0.992187 0.0918,0.239327 0.091,0.43514 -0.002,0.43514 -0.0929,0 -0.24124,-0.188508 -0.32965,-0.41891 z m 12.08361,-1.300882 c 0.49366,-0.509323 0.95709,-0.926041 1.02985,-0.926041 0.0728,0 -0.27161,0.416718 -0.76526,0.926041 -0.49366,0.509323 -0.95709,0.926042 -1.02985,0.926042 -0.0728,0 0.27161,-0.416719 0.76526,-0.926042 z M 50.82772,65.007384 c -0.119492,-0.376487 -0.31891,-0.493424 -0.657949,-0.385818 -0.338049,0.107293 -0.538285,-0.0088 -0.656243,-0.380445 -0.09336,-0.294166 -0.311327,-0.5075 -0.48436,-0.474078 -0.212255,0.041 -0.340159,-0.524732 -0.393154,-1.738966 -0.07397,-1.694878 -0.02495,-1.87276 0.841452,-3.053032 1.366781,-1.861928 3.501356,-3.773677 5.587097,-5.003867 2.145705,-1.265558 4.691829,-2.268714 5.358501,-2.111215 0.322971,0.0763 0.223072,0.167646 -0.331418,0.303039 -1.622853,0.396259 -3.631307,1.402663 -5.908416,2.960612 -0.205768,0.140782 0.533377,1.163577 0.840885,1.163577 0.185795,0 0.601889,0.357187 0.924653,0.79375 0.359607,0.486394 0.460836,0.79375 0.261424,0.79375 -0.228083,0 -0.241998,0.08342 -0.04652,0.278899 0.195476,0.195475 0.771215,-0.0096 1.924811,-0.685744 2.375029,-1.391967 2.222497,-0.988568 -0.224199,0.592934 -2.156838,1.394145 -3.500008,2.848896 -5.385767,5.833181 -0.574714,0.909506 -1.142674,1.653646 -1.262134,1.653646 -0.11946,0 -0.294358,-0.243102 -0.388661,-0.540223 z m 35.722258,0.01106 c -0.08994,-0.145521 -0.03743,-0.264584 0.116676,-0.264584 0.15411,0 0.280199,0.119063 0.280199,0.264584 0,0.14552 -0.0525,0.264583 -0.116675,0.264583 -0.06417,0 -0.190262,-0.119063 -0.2802,-0.264583 z m 22.621872,-0.396875 c 0.34178,-0.363802 0.68094,-0.661459 0.7537,-0.661459 0.0728,0 -0.14734,0.297657 -0.48911,0.661459 -0.34178,0.363802 -0.68094,0.661458 -0.7537,0.661458 -0.0728,0 0.14734,-0.297656 0.48911,-0.661458 z m -2.67437,-2.16974 c 1.38827,-1.338879 2.57044,-2.388015 2.62704,-2.331416 0.0883,0.08825 -0.29992,0.462357 -2.19956,2.119906 -0.16677,0.14552 -0.89911,0.800364 -1.62742,1.455208 -0.72831,0.654844 -0.18834,0.09518 1.19994,-1.243698 z m -22.064168,0.54787 -1.5875,-1.476737 1.653646,1.377045 c 1.437949,1.197427 1.850064,1.608333 1.5875,1.582851 -0.03638,-0.0035 -0.780521,-0.670954 -1.653646,-1.483159 z m 4.7625,-0.264583 -1.5875,-1.476738 1.653646,1.377046 c 1.437949,1.197427 1.850064,1.608333 1.5875,1.582851 -0.03638,-0.0035 -0.780521,-0.670954 -1.653646,-1.483159 z m 27.516668,0.695828 c 0.26339,-0.291042 0.53842,-0.529167 0.61118,-0.529167 0.0728,0 -0.0832,0.238125 -0.3466,0.529167 -0.26339,0.291041 -0.53842,0.529166 -0.61118,0.529166 -0.0728,0 0.0832,-0.238125 0.3466,-0.529166 z m -5.82084,-0.264584 c 0.26339,-0.291041 0.53843,-0.529166 0.61119,-0.529166 0.0728,0 -0.0832,0.238125 -0.3466,0.529166 -0.26339,0.291042 -0.53842,0.529167 -0.61118,0.529167 -0.0728,0 0.0832,-0.238125 0.34659,-0.529167 z m 7.14375,-0.79375 c 0.26339,-0.291041 0.53843,-0.529166 0.61119,-0.529166 0.0728,0 -0.0832,0.238125 -0.3466,0.529166 -0.26339,0.291042 -0.53842,0.529167 -0.61118,0.529167 -0.0728,0 0.0832,-0.238125 0.34659,-0.529167 z m -5.95312,-0.0999 c 0,-0.05494 0.20836,-0.2633 0.46302,-0.463021 0.41965,-0.329107 0.429,-0.319749 0.0999,0.0999 -0.34565,0.44073 -0.56292,0.580888 -0.56292,0.363125 z m 6.87917,-0.529166 c 0,-0.05494 0.20836,-0.263301 0.46302,-0.463021 0.41964,-0.329108 0.429,-0.319749 0.0999,0.0999 -0.34564,0.440729 -0.56291,0.580887 -0.56291,0.363125 z m 28.01208,-0.363125 c -0.32911,-0.419645 -0.31975,-0.429004 0.0999,-0.0999 0.44073,0.345643 0.58089,0.562917 0.36313,0.562917 -0.0549,0 -0.2633,-0.20836 -0.46302,-0.463021 z M 81.787479,60.869374 c -0.436563,-0.364127 -1.685386,-1.255014 -2.775162,-1.979742 -1.089774,-0.724731 -2.042274,-1.387258 -2.116667,-1.472284 -0.361463,-0.413137 2.213944,1.175956 3.592719,2.216798 0.860031,0.64924 1.741295,1.283938 1.958364,1.410438 0.217069,0.1265 0.336132,0.28779 0.264583,0.358421 -0.07155,0.07063 -0.487275,-0.169503 -0.923837,-0.533631 z m 31.353121,0.609587 c 0,-0.05494 0.20836,-0.2633 0.46302,-0.463021 0.41965,-0.329107 0.42901,-0.319749 0.0999,0.0999 -0.34564,0.44073 -0.56292,0.580888 -0.56292,0.363125 z M 86.913103,60.851253 c -0.329107,-0.419645 -0.319749,-0.429003 0.0999,-0.0999 0.44073,0.345644 0.580888,0.562917 0.363125,0.562917 -0.05494,0 -0.2633,-0.208359 -0.463021,-0.463021 z m 58.638957,-0.967526 c -0.43656,-0.458726 -1.21047,-1.167611 -1.71979,-1.5753 -0.50932,-0.407691 -0.68792,-0.622027 -0.39688,-0.476305 0.6914,0.346173 3.5191,2.935472 3.175,2.90731 -0.14552,-0.01191 -0.62177,-0.396978 -1.05833,-0.855705 z m -59.928123,0.06821 c -0.363802,-0.303041 -0.8924,-0.71306 -1.174663,-0.911154 -0.28226,-0.198096 -0.455999,-0.417378 -0.386082,-0.487294 0.06992,-0.06992 0.658045,0.338987 1.306954,0.908675 1.220181,1.071218 1.423982,1.464516 0.253791,0.489773 z m 35.189583,0.451037 c 0,-0.180406 2.40301,-1.800968 2.51076,-1.693224 0.0508,0.05078 -0.49338,0.479888 -1.20922,0.953579 -0.71585,0.473692 -1.30154,0.806532 -1.30154,0.739645 z m 32.03511,-1.253556 c -0.46879,-0.754107 -0.69091,-1.237138 -0.49362,-1.073398 0.37578,0.311867 1.64568,2.444501 1.45561,2.444501 -0.0603,0 -0.49322,-0.616998 -0.96199,-1.371103 z m -58.14296,0.932426 c 0.09575,-0.09575 0.0263,-0.363643 -0.154343,-0.595312 -0.290126,-0.372092 -0.274769,-0.379148 0.131676,-0.06051 0.413919,0.324498 0.419613,0.829916 0.0093,0.829916 -0.08843,0 -0.08243,-0.07834 0.01331,-0.174094 z m 20.28702,0.0742 c 0,-0.05494 0.20836,-0.2633 0.46302,-0.46302 0.41964,-0.329108 0.429,-0.319749 0.0999,0.0999 -0.34564,0.440729 -0.56291,0.580887 -0.56291,0.363124 z m -4.91408,-0.890492 c 0.42595,-0.470897 0.83275,-0.797885 0.90399,-0.726644 0.0712,0.07124 0.0799,0.159298 0.0193,0.195678 -0.0606,0.03638 -0.46744,0.363369 -0.904,0.726644 l -0.79375,0.660495 z m 34.69569,-1.225653 c -0.50582,-0.49122 -0.98423,-0.848408 -1.06314,-0.79375 -0.0789,0.05465 -0.085,0.02103 -0.0135,-0.07472 0.0715,-0.09575 -0.0178,-0.363644 -0.19844,-0.595313 -0.18063,-0.231672 0.20735,0.04637 0.8622,0.617866 1.14188,0.99655 1.77086,1.73904 1.47316,1.73904 -0.0773,0 -0.55448,-0.401907 -1.0603,-0.893125 z m -27.40036,0.528645 c 0,-0.05494 0.20836,-0.2633 0.46302,-0.46302 0.41964,-0.329108 0.429,-0.319749 0.0999,0.0999 -0.34564,0.440729 -0.56291,0.580887 -0.56291,0.363124 z M 81.985916,57.333551 c -0.909505,-0.582556 -1.653646,-1.129532 -1.653646,-1.215499 0,-0.150315 0.261393,0.0034 2.447396,1.439668 0.849548,0.558157 1.184608,0.862298 0.926042,0.840581 -0.03638,-0.003 -0.810287,-0.482193 -1.719792,-1.06475 z m 29.302604,0.97041 c 0,-0.05494 0.20836,-0.2633 0.46302,-0.463021 0.41965,-0.329107 0.429,-0.319749 0.0999,0.0999 -0.34565,0.44073 -0.56292,0.580888 -0.56292,0.363125 z m 7.33778,-0.726686 c 0.17947,-0.180821 0.39297,-0.262115 0.47443,-0.180652 0.0815,0.08146 -0.0654,0.229407 -0.32632,0.328766 -0.37708,0.143584 -0.40747,0.113194 -0.14811,-0.148114 z m -5.75028,-0.628626 c 0.34177,-0.363802 0.68094,-0.661458 0.7537,-0.661458 0.0728,0 -0.14734,0.297656 -0.48912,0.661458 -0.34177,0.363802 -0.68094,0.661458 -0.7537,0.661458 -0.0728,0 0.14734,-0.297656 0.48912,-0.661458 z m -37.041666,0 c -0.363802,-0.207968 -0.535387,-0.382344 -0.381299,-0.387498 0.154088,-0.0052 0.511275,0.16543 0.79375,0.379084 0.653251,0.494094 0.4446,0.498351 -0.412451,0.0084 z m 43.656246,0.283202 c 0,-0.07276 0.23813,-0.259734 0.52917,-0.415494 0.29104,-0.15576 0.52917,-0.223671 0.52917,-0.15091 0,0.07276 -0.23813,0.259733 -0.52917,0.415494 -0.29104,0.15576 -0.52917,0.22367 -0.52917,0.15091 z m 31.33648,-0.746223 -0.7771,-0.859896 0.85989,0.777105 c 0.80155,0.724371 0.98151,0.942687 0.77711,0.942687 -0.0455,0 -0.43249,-0.386953 -0.8599,-0.859896 z m -23.53127,0.06615 c 0.43656,-0.289124 0.96775,-0.526465 1.18042,-0.527423 0.21267,-9.59e-4 -0.0804,0.236381 -0.65125,0.527423 -1.32209,0.674037 -1.54693,0.674037 -0.52917,0 z m 14.00734,0.117694 c -0.49319,-0.395125 -0.48994,-0.40001 0.0817,-0.12298 0.32742,0.158667 0.59532,0.343828 0.59532,0.411469 0,0.202464 -0.13722,0.143997 -0.67704,-0.288489 z M 60.605237,56.169495 c 0.282474,-0.226309 0.699193,-0.402072 0.926041,-0.390583 0.356287,0.01805 0.358409,0.04093 0.01558,0.168044 -0.218281,0.08094 -0.635,0.256698 -0.926041,0.390582 -0.5207,0.239533 -0.520949,0.236845 -0.01558,-0.168043 z M 73.056229,55.88532 c -0.873125,-0.346038 -1.39441,-0.635304 -1.15841,-0.642812 0.235999,-0.0075 1.069437,0.277147 1.852083,0.632566 1.817403,0.825327 1.379271,0.831801 -0.693673,0.01025 z m 40.878121,0.301976 c 0,-0.05494 0.20836,-0.263302 0.46302,-0.463021 0.41965,-0.329108 0.42901,-0.319749 0.0999,0.0999 -0.34564,0.440729 -0.56292,0.580887 -0.56292,0.363126 z m 15.34584,-0.429272 c 0.51815,-0.334856 0.86841,-0.334856 0.66145,0 -0.0899,0.145521 -0.36485,0.26276 -0.61092,0.260532 -0.38557,-0.0035 -0.39256,-0.0395 -0.0505,-0.260532 z m 9.92374,0.003 c -0.0927,-0.149981 0.0135,-0.194338 0.24897,-0.103984 0.45837,0.175894 0.54224,0.365538 0.16165,0.365538 -0.13693,0 -0.32171,-0.117699 -0.41062,-0.261553 z M 62.221542,55.514029 c 0.138245,-0.134197 0.727604,-0.31433 1.309687,-0.400296 l 1.058333,-0.156302 -1.190624,0.39628 c -1.405357,0.46775 -1.50858,0.481805 -1.177396,0.160318 z m 60.638088,-0.05342 c 0.17948,-0.180821 0.39297,-0.262115 0.47443,-0.180653 0.0815,0.08146 -0.0654,0.229406 -0.32632,0.328765 -0.37708,0.143586 -0.40747,0.113195 -0.14811,-0.148112 z m 8.00806,0.04482 c 0,-0.301027 1.67604,-0.653867 2.16861,-0.456534 0.18971,0.076 -0.042,0.147585 -0.51497,0.159073 -0.47294,0.01149 -0.85989,0.139951 -0.85989,0.285472 0,0.14552 -0.1786,0.264583 -0.39688,0.264583 -0.21828,0 -0.39687,-0.113668 -0.39687,-0.252594 z m 10.70004,-0.158877 c -0.49318,-0.395127 -0.48994,-0.400012 0.0817,-0.122983 0.32742,0.158669 0.59531,0.343831 0.59531,0.411471 0,0.202465 -0.13722,0.143997 -0.67704,-0.288488 z M 77.554145,54.688519 c -1.486677,-0.874599 -1.432351,-1.061375 0.07669,-0.263646 1.290886,0.682408 1.837373,1.062638 1.510813,1.051185 -0.14552,-0.0051 -0.859895,-0.359496 -1.5875,-0.787539 z m 37.438545,0.705027 c 0,-0.05494 0.20836,-0.263302 0.46302,-0.463021 0.41964,-0.329108 0.429,-0.319749 0.0999,0.09989 -0.34564,0.440729 -0.56291,0.580887 -0.56291,0.363126 z m 22.70455,-0.08085 c 0.191,-0.07643 0.4192,-0.06703 0.50712,0.02089 0.0879,0.08792 -0.0684,0.150453 -0.34726,0.138964 -0.30823,-0.01269 -0.37092,-0.07539 -0.15986,-0.159852 z m 11.40667,-0.546864 -0.64143,-0.727604 0.7276,0.641433 c 0.68006,0.599516 0.84894,0.813776 0.64143,0.813776 -0.0474,0 -0.37481,-0.327422 -0.7276,-0.727605 z M 48.775738,54.678482 c 0.09356,-0.357771 0.213493,-0.477705 0.279546,-0.279546 0.06363,0.190881 -0.01011,0.472852 -0.16386,0.626602 -0.196339,0.196339 -0.230773,0.09304 -0.115686,-0.347056 z m 21.700803,0.375147 c 0.181902,-0.0734 0.479558,-0.0734 0.661459,0 0.181901,0.0734 0.03307,0.133452 -0.330729,0.133452 -0.363802,0 -0.512631,-0.06005 -0.33073,-0.133452 z m 65.881249,0 c 0.1819,-0.0734 0.47956,-0.0734 0.66146,0 0.1819,0.0734 0.0331,0.133452 -0.33073,0.133452 -0.3638,0 -0.51263,-0.06005 -0.33073,-0.133452 z M 66.252078,54.768904 c 0.768862,-0.05362 1.959487,-0.05305 2.645833,0.0012 0.686346,0.05431 0.05728,0.09818 -1.397932,0.09749 -1.455208,-6.89e-4 -2.016764,-0.04512 -1.247901,-0.09874 z m 73.876022,-0.06921 c -0.23846,-0.15411 -0.2711,-0.258098 -0.0818,-0.260532 0.17331,-0.0022 0.3887,0.115011 0.47864,0.260532 0.20301,0.328486 0.11142,0.328486 -0.39688,0 z m -52.225283,-0.313 c 0.07641,-0.123641 0.249769,-0.156302 0.385236,-0.07258 0.346175,0.213948 0.307197,0.297381 -0.138936,0.297381 -0.211881,0 -0.322714,-0.101161 -0.2463,-0.224801 z m 28.148203,0.199323 c 0,-0.07276 0.23812,-0.259732 0.52917,-0.415493 0.29104,-0.155761 0.52916,-0.22367 0.52916,-0.15091 0,0.07276 -0.23812,0.259732 -0.52916,0.415493 -0.29105,0.155761 -0.52917,0.22367 -0.52917,0.15091 z M 86.825862,53.924223 c -0.08373,-0.135466 -0.05106,-0.308822 0.07258,-0.385237 0.123642,-0.07641 0.224803,0.03442 0.224803,0.246302 0,0.446131 -0.08343,0.485111 -0.297381,0.138935 z m 40.205368,-0.01828 c 0.29104,-0.125065 0.70776,-0.227391 0.92604,-0.227391 0.25016,0 0.20125,0.08406 -0.13229,0.227391 -0.29104,0.125064 -0.70776,0.22739 -0.92604,0.22739 -0.25016,0 -0.20126,-0.08406 0.13229,-0.22739 z m 10.98021,0 c -0.21829,-0.141065 -0.27782,-0.256481 -0.1323,-0.256481 0.14552,0 0.44318,0.115416 0.66146,0.256481 0.21828,0.141064 0.27781,0.25648 0.13229,0.25648 -0.14552,0 -0.44317,-0.115416 -0.66145,-0.25648 z m 9.75583,-0.198438 c -0.32911,-0.419644 -0.31975,-0.429002 0.0999,-0.0999 0.44073,0.345644 0.58089,0.562916 0.36313,0.562916 -0.0549,0 -0.2633,-0.20836 -0.46302,-0.463021 z m -98.231703,-0.02205 c -0.07495,-0.121267 0.03185,-0.220486 0.237329,-0.220486 0.205479,0 0.312277,0.09922 0.23733,0.220486 -0.07495,0.121268 -0.181746,0.220487 -0.23733,0.220487 -0.05558,0 -0.162382,-0.09922 -0.237329,-0.220487 z m 25.505037,-0.176388 c -0.363802,-0.207969 -0.542396,-0.378124 -0.396875,-0.378124 0.145521,0 0.562239,0.170155 0.926041,0.378124 0.363803,0.207968 0.542396,0.378123 0.396875,0.378123 -0.14552,0 -0.562239,-0.170155 -0.926041,-0.378123 z m 10.93611,-0.517528 c 0,-0.211881 0.101161,-0.322716 0.224803,-0.246302 0.12364,0.07642 0.156303,0.249771 0.07258,0.385237 -0.213948,0.346176 -0.297381,0.307196 -0.297381,-0.138935 z M 118.16769,53.2631 c 0,-0.07276 0.23812,-0.259732 0.52916,-0.415493 0.29104,-0.155761 0.52917,-0.22367 0.52917,-0.15091 0,0.07276 -0.23813,0.259733 -0.52917,0.415494 -0.29104,0.15576 -0.52916,0.22367 -0.52916,0.150909 z m 12.5052,-0.07619 c 0.40218,-0.06082 0.99749,-0.05919 1.32291,0.0036 0.32542,0.0628 -0.004,0.112561 -0.73124,0.110574 -0.7276,-0.002 -0.99386,-0.05337 -0.59167,-0.114185 z m 4.0974,0.0031 c 0.32742,-0.06306 0.8632,-0.06306 1.19062,0 0.32743,0.06306 0.0595,0.114662 -0.59531,0.114662 -0.65484,0 -0.92273,-0.0516 -0.59531,-0.114662 z m 11.93864,-0.276296 c -0.3291,-0.419644 -0.31974,-0.429002 0.0999,-0.09989 0.44073,0.345644 0.58089,0.562916 0.36313,0.562916 -0.055,0 -0.2633,-0.20836 -0.46303,-0.463021 z m -73.121661,-0.06312 c -0.09269,-0.149982 0.01351,-0.194339 0.248968,-0.103984 0.458369,0.175892 0.542234,0.365537 0.161648,0.365537 -0.136932,0 -0.32171,-0.117699 -0.410616,-0.261553 z M 119.4906,52.46935 c 0,-0.07276 0.23813,-0.259732 0.52917,-0.415493 0.29104,-0.155761 0.52917,-0.22367 0.52917,-0.15091 0,0.07276 -0.23813,0.259733 -0.52917,0.415494 -0.29104,0.15576 -0.52917,0.22367 -0.52917,0.150909 z M 50.861151,52.005444 c 0.07641,-0.123641 0.24977,-0.156302 0.385236,-0.07258 0.346176,0.213948 0.307196,0.297381 -0.138935,0.297381 -0.21188,0 -0.322716,-0.101161 -0.246301,-0.224801 z m 19.94612,0.04841 c -0.352778,-0.227982 -0.352778,-0.254864 0,-0.241935 0.218281,0.008 0.635,0.11687 0.926041,0.241935 l 0.529167,0.227391 -0.529167,0.01454 c -0.291041,0.008 -0.70776,-0.100871 -0.926041,-0.241935 z m -9.591146,-0.439812 c 0.181901,-0.0734 0.479557,-0.0734 0.661458,0 0.181901,0.0734 0.03307,0.133452 -0.330729,0.133452 -0.363802,0 -0.51263,-0.06005 -0.330729,-0.133452 z m 7.954036,-0.0055 c 0.190996,-0.07643 0.4192,-0.06703 0.507118,0.02089 0.08792,0.08792 -0.06835,0.150453 -0.347265,0.138964 -0.308225,-0.01269 -0.37092,-0.07539 -0.159853,-0.159852 z m 51.907939,-0.08384 c 0.21828,-0.141065 0.51594,-0.256481 0.66146,-0.256481 0.14552,0 0.086,0.115416 -0.13229,0.256481 -0.21828,0.141064 -0.51594,0.25648 -0.66146,0.25648 -0.14552,0 -0.086,-0.115416 0.13229,-0.25648 z m 21.96042,-0.529167 c -0.80037,-0.422832 -1.33615,-0.768785 -1.19063,-0.768785 0.14552,0 0.91943,0.345953 1.7198,0.768785 0.80036,0.422832 1.33614,0.768785 1.19062,0.768785 -0.14552,0 -0.91943,-0.345953 -1.71979,-0.768785 z m -79.176562,0.33327 c 0.909506,-0.05167 2.397787,-0.05167 3.307292,0 0.909505,0.05166 0.165364,0.09394 -1.653646,0.09394 -1.81901,0 -2.563151,-0.04227 -1.653646,-0.09394 z M 122.6656,50.89154 c 0,-0.05719 0.18478,-0.17489 0.41062,-0.261553 0.23546,-0.09035 0.34166,-0.046 0.24897,0.103984 -0.15538,0.251408 -0.65959,0.371858 -0.65959,0.157569 z m 2.24896,-0.95435 c 0.72736,-0.312558 1.14511,-0.312558 0.66146,0 -0.21828,0.141065 -0.57547,0.249936 -0.79375,0.241936 -0.26169,-0.0096 -0.21663,-0.092 0.13229,-0.241936 z m 13.75833,-0.529166 c -0.33354,-0.143329 -0.38245,-0.227391 -0.13229,-0.227391 0.21828,0 0.635,0.102326 0.92604,0.227391 0.33355,0.143329 0.38245,0.22739 0.1323,0.22739 -0.21829,0 -0.635,-0.102325 -0.92605,-0.22739 z m -11.2944,-0.180741 c 0.191,-0.07643 0.4192,-0.06703 0.50712,0.02089 0.0879,0.08792 -0.0683,0.150453 -0.34726,0.138965 -0.30823,-0.0127 -0.37092,-0.07539 -0.15986,-0.159853 z M 55.461438,48.878857 c 0,-0.145521 0.126089,-0.264583 0.280198,-0.264583 0.154109,0 0.206614,0.119062 0.116677,0.264583 -0.08994,0.145521 -0.216026,0.264583 -0.280198,0.264583 -0.06417,0 -0.116677,-0.119062 -0.116677,-0.264583 z m 81.971222,0.08384 c 0.19099,-0.07643 0.4192,-0.06703 0.50712,0.02089 0.0879,0.08792 -0.0684,0.150453 -0.34727,0.138964 -0.30822,-0.01269 -0.37092,-0.07539 -0.15985,-0.159852 z m -6.8957,-0.270568 c 0.32742,-0.06306 0.8632,-0.06306 1.19062,0 0.32742,0.06306 0.0595,0.114662 -0.59531,0.114662 -0.65484,0 -0.92274,-0.0516 -0.59531,-0.114662 z m 4.10468,-0.0031 c 0.40218,-0.06082 0.99749,-0.05919 1.32291,0.0036 0.32542,0.0628 -0.004,0.11256 -0.73124,0.110574 -0.7276,-0.002 -0.99386,-0.05337 -0.59167,-0.114185 z M 63.511354,45.936282 c -0.173594,-0.280881 1.214823,-0.450716 1.968214,-0.240758 0.594564,0.165696 0.508642,0.210488 -0.582235,0.303527 -0.703851,0.06003 -1.327542,0.03178 -1.385979,-0.06277 z m 6.502167,0.03798 c -0.861591,-0.145501 -0.87874,-0.166369 -0.246401,-0.299826 0.71415,-0.150724 1.844163,0.111561 1.419464,0.329468 -0.135862,0.06971 -0.66374,0.05637 -1.173063,-0.02964 z"
             id="path340"
             transform="matrix(0.05681063,1.3937678,-1.2699992,0.0021673,149.36989,-23.275676)" /><path
             style="display:inline;fill:#5e261a;stroke-width:0.275886"
             d="m 129.40548,104.03768 c -5.23548,-1.0547 -11.28423,-4.302362 -16.63594,-8.932073 -2.98716,-2.584157 -3.769,-3.359628 -7.84225,-7.778297 l -3.84213,-4.167961 -2.248495,2.453975 c -1.81042,1.975874 -9.286933,8.720518 -12.425317,11.209021 -2.915897,2.312084 -7.730887,5.065485 -10.891876,6.228395 -4.694062,1.72692 -10.680962,1.84581 -14.97756,0.29742 -1.33661,-0.48168 -2.906666,-1.20097 -3.489013,-1.59843 -0.582348,-0.39746 -1.143066,-0.72232 -1.246043,-0.72192 -0.756283,0.003 -7.244777,-6.561694 -7.221945,-7.306706 0.0048,-0.15862 0.249202,0.03429 0.54298,0.42869 4.813587,6.462286 11.354812,10.024146 18.358776,9.996806 5.556649,-0.0217 11.280667,-2.2722 17.626984,-6.930377 C 90.13345,93.5317 100.43593,84.108535 100.43604,83.20159 c 2e-5,-0.193283 -0.528876,-0.913823 -1.175335,-1.6012 l -1.175381,-1.249779 -1.180507,1.127161 c -0.649279,0.619938 -2.458279,2.361939 -4.020005,3.871113 -3.593002,3.472105 -7.855405,6.92529 -11.365273,9.20758 -1.504678,0.978415 -2.829318,1.779302 -2.943643,1.779748 -0.369916,0.0014 0.260002,-0.485432 1.882536,-1.455049 2.594085,-1.550213 8.100829,-5.759714 10.567848,-8.078342 1.347863,-1.26679 5.801591,-5.617597 6.314123,-6.168214 0.2701,-0.29017 0.666657,-0.455016 0.881235,-0.366322 0.429629,0.177581 0.290931,-0.205037 -0.382292,-1.054603 -0.373495,-0.471326 -0.524064,-0.375428 -2.275054,1.448969 -3.322316,3.461601 -7.37077,7.230179 -9.681222,9.011946 -5.036176,3.883782 -10.575635,7.272569 -11.836751,7.241181 -0.257039,-0.0064 0.06847,-0.245095 0.723352,-0.530434 3.069131,-1.337259 8.194825,-4.527386 10.231656,-6.367972 0.46101,-0.416592 1.406069,-1.212734 2.100133,-1.769209 2.8886,-2.315967 9.630875,-8.897582 9.630938,-9.401445 4.4e-5,-0.351042 -1.706591,-2.136303 -2.040968,-2.134998 -0.0939,3.67e-4 -1.846163,1.793182 -3.893918,3.984035 -11.894414,12.725608 -18.701831,16.634538 -26.080331,14.975752 -4.212577,-0.947045 -8.238843,-4.030783 -11.024366,-8.443622 -1.871149,-2.96428 -2.89163,-8.350943 -2.63419,-13.904695 0.163314,-3.523152 0.221483,-3.817327 1.195463,-6.045744 1.950435,-4.462501 4.389211,-7.300145 7.971738,-9.27554 2.951918,-1.627679 4.430418,-1.970603 7.910495,-1.834767 2.669448,0.104196 3.352559,0.24044 5.276255,1.052332 5.317629,2.244295 9.082775,5.329866 18.653989,15.287111 2.599038,2.703865 6.294321,6.787041 8.211735,9.073728 8.13891,9.706347 14.47756,15.457857 20.66093,18.747129 5.16021,2.745 7.15159,3.34193 11.65622,3.49404 3.20207,0.10812 4.02969,0.0391 5.95322,-0.49639 6.66647,-1.85592 12.35502,-6.703787 15.36078,-13.090702 0.32159,-0.683339 0.63499,-1.081976 0.69644,-0.885861 0.15597,0.497728 -2.11907,4.503206 -3.66361,6.450193 -5.09343,6.4206 -13.87917,9.78161 -21.5368,8.23896 z M 72.819319,94.750807 c 2.056884,-0.733002 5.690265,-2.999214 8.338951,-5.201173 2.361294,-1.963037 7.570444,-7.081128 10.541749,-10.357477 1.379771,-1.521421 2.659856,-2.766812 2.844632,-2.767533 0.67571,-0.0026 0.282052,-0.552309 -2.38523,-3.33054 -8.057729,-8.392901 -12.117005,-11.890781 -16.600889,-14.304988 -3.303294,-1.778555 -4.957591,-2.234749 -8.059974,-2.222639 -4.54772,0.01775 -7.730186,1.466845 -10.993778,5.005874 -3.946339,4.279398 -5.648587,9.761008 -4.998922,16.097621 0.331003,3.22849 0.825392,5.067095 2.168815,8.065689 2.484307,5.545112 6.878335,8.916983 12.892963,9.893742 1.315264,0.213593 4.405622,-0.220706 6.251683,-0.878576 z m -12.860045,4.799462 c -1.233187,-0.297585 -3.078582,-0.970893 -4.100878,-1.496236 -2.107571,-1.083048 -5.462461,-3.859174 -6.568008,-5.434934 -1.026561,-1.463182 -0.6025,-1.326738 0.642814,0.206828 1.230188,1.514939 4.072822,3.827083 5.968945,4.855025 2.739897,1.485373 5.158676,2.012356 9.209766,2.006545 4.555336,-0.0065 7.299352,-0.635061 11.355111,-2.600923 0.857458,-0.415617 1.613105,-0.69706 1.679216,-0.625426 0.118256,0.128131 -0.627997,0.511631 -3.244494,1.667359 -4.326616,1.911103 -10.486063,2.497163 -14.942472,1.421762 z m 67.859456,-1.566531 c -3.32434,-0.853351 -6.658,-2.483912 -9.52447,-4.65861 -3.47005,-2.632601 -5.74731,-4.907257 -15.21173,-15.194272 C 88.622591,62.41415 82.588975,57.161819 75.171858,53.834304 71.164613,52.036546 69.597837,51.682491 65.647074,51.68192 c -5.053116,-7.28e-4 -8.417536,1.078702 -12.171388,3.905043 -1.083861,0.816057 -3.37449,3.341162 -4.172568,4.599685 -0.245386,0.386956 -0.514416,0.629604 -0.597843,0.53921 -0.25273,-0.273835 2.686055,-3.854636 4.036021,-4.917747 2.977556,-2.344852 5.253077,-3.451374 8.540132,-4.15282 5.361619,-1.144153 11.5078,0.0854 17.169406,3.434767 6.542426,3.870455 11.785953,8.589813 22.383086,20.145553 12.42368,13.547535 13.47976,14.630649 16.71409,17.141808 4.46779,3.468848 9.04115,5.423411 13.24424,5.660328 1.4205,0.08007 3.23759,0.01806 4.03799,-0.1378 1.06096,-0.206604 1.24019,-0.298978 0.66149,-0.340943 -0.5372,-0.03896 -0.20347,-0.187345 1.03251,-0.459099 1.00443,-0.220844 1.92718,-0.334095 2.05056,-0.251666 0.12337,0.08243 0.22434,0.02283 0.22436,-0.132468 4e-5,-0.3122 1.80985,-1.051319 2.0191,-0.824595 0.24903,0.269821 -2.68461,1.585826 -4.58505,2.056813 -2.31878,0.574669 -6.25,0.591371 -8.41448,0.03578 z M 65.017024,97.515816 c -1.262907,-0.416286 -0.910971,-0.572738 0.499239,-0.221937 1.205979,0.299999 6.572991,0.151803 7.533519,-0.208022 0.522538,-0.195746 0.522647,-0.193703 0.0087,0.162413 -0.667703,0.462663 -6.827766,0.667612 -8.041464,0.267546 z m 65.183036,-0.08414 c -0.14551,-0.05221 -0.60604,-0.175943 -1.02338,-0.274964 -1.48828,-0.353112 -0.5312,-0.356979 1.288,-0.0052 1.17429,0.227071 1.51316,0.361233 0.926,0.366615 -0.50933,0.0046 -1.04511,-0.03424 -1.19062,-0.08644 z M 61.069993,95.984272 c -1.050858,-0.543485 -1.910644,-1.056727 -1.910633,-1.140537 1e-5,-0.08382 0.744117,0.220244 1.653571,0.675678 0.909453,0.455434 1.951193,0.959203 2.314977,1.119489 0.363784,0.160286 0.479471,0.300902 0.257081,0.312477 -0.222388,0.01152 -1.264137,-0.423623 -2.314996,-0.967107 z m 64.367737,-0.09749 c -1.7749,-0.932348 -1.82862,-1.179078 -0.0732,-0.336125 0.62232,0.298839 1.42914,0.675285 1.79292,0.836543 0.36378,0.161261 0.48283,0.302255 0.26455,0.313322 -0.21829,0.01107 -1.11122,-0.355115 -1.98428,-0.81374 z M 131.6946,95.27462 C 127.31925,94.547831 121.8722,90.694486 115.55213,83.85513 110.62309,78.521093 102.793,69.580488 101.5143,67.826369 c -1.26808,-1.739573 -7.40498,-7.890982 -9.562777,-9.585393 -0.853057,-0.669861 -1.554469,-1.323596 -1.558695,-1.452741 -0.01645,-0.50257 4.679786,3.755393 8.591584,7.789793 3.310208,3.41395 2.763098,3.324417 5.106988,0.835742 4.6166,-4.901767 9.73721,-9.420628 13.94765,-12.308601 1.63252,-1.11976 5.50509,-3.114941 7.61723,-3.924462 2.39446,-0.917732 2.50914,-0.932776 7.19576,-0.944046 4.68835,-0.01123 4.80168,0.0031 7.27597,0.923279 4.80583,1.787256 8.23672,4.05303 11.02016,7.277757 1.6147,1.870692 3.53171,4.963822 3.52894,5.693989 -8.3e-4,0.216633 -0.46627,-0.446658 -1.03432,-1.473981 -3.38346,-6.118945 -10.3324,-10.962326 -17.272,-12.038499 -7.35151,-1.140051 -15.0016,1.718533 -23.16392,8.655582 -3.77468,3.208041 -10.91676,10.13374 -10.91682,10.58606 -3e-5,0.278004 2.19218,2.771575 2.43579,2.770624 0.12064,-4.71e-4 1.9808,-1.65824 4.13367,-3.683932 2.15288,-2.025692 5.00941,-4.528787 6.34783,-5.562432 2.73539,-2.112493 6.37844,-4.45795 6.58187,-4.237526 0.0737,0.07989 -0.50292,0.49783 -1.28142,0.928769 -2.06967,1.145645 -5.31497,3.544916 -8.03075,5.937185 -2.88246,2.5391 -7.10727,6.615107 -7.24305,6.98794 -0.0889,0.244116 0.42421,0.7617 0.76463,0.771306 0.0754,0.002 0.84943,-0.714247 1.71999,-1.591945 2.16358,-2.181297 9.19938,-8.392641 9.96109,-8.79383 l 0.61858,-0.325808 -0.60839,0.517883 c -2.70102,2.299217 -7.23574,6.287045 -7.99156,7.027757 -2.39313,2.345315 -3.44004,3.528315 -3.44008,3.887288 -5e-5,0.375179 1.20131,1.57872 1.57439,1.577263 0.0992,-3.87e-4 1.76541,-1.657083 3.70275,-3.681545 5.44343,-5.68824 10.6236,-9.970391 14.23662,-11.768594 0.8374,-0.416778 1.74606,-0.894428 2.01922,-1.061443 1.21044,-0.740055 6.24572,-1.835279 7.35791,-1.600419 0.48231,0.101853 1.50832,0.297706 2.28002,0.435237 1.71013,0.30478 5.31244,2.192463 6.93085,3.631902 3.15965,2.810249 5.22216,6.313365 6.24692,10.610216 0.58661,2.459732 0.65716,3.232094 0.53474,5.854632 -0.23982,5.137748 -1.22162,8.213073 -3.78835,11.866354 -1.96271,2.793587 -5.19525,5.275864 -8.20037,6.297106 -1.92889,0.655498 -5.47121,0.949865 -7.45835,0.619784 z m 5.44772,-0.447828 c 4.76718,-0.930755 8.77908,-4.19176 11.52578,-9.368544 1.17749,-2.219255 1.77471,-4.480223 2.00306,-7.583325 0.38064,-5.172437 -0.41338,-9.063834 -2.58336,-12.660688 -2.98362,-4.945496 -6.94481,-7.834182 -11.69097,-8.525594 -6.86567,-1.000177 -14.4552,3.343663 -24.97103,14.292078 l -3.43209,3.573271 0.49611,0.821461 c 0.27287,0.451803 3.00734,3.547126 6.07664,6.878497 4.00549,4.347526 6.29539,6.589528 8.11343,7.943715 3.57747,2.664709 6.46747,4.193021 8.77,4.637785 2.55338,0.493217 3.12638,0.492347 5.69243,-0.0087 z m -14.08571,-0.102556 c -0.0899,-0.157867 -0.0445,-0.287497 0.10109,-0.288065 0.14552,-5.68e-4 0.33816,0.128132 0.42807,0.285999 0.0899,0.157868 0.0445,0.287498 -0.1011,0.288066 -0.14552,5.68e-4 -0.33815,-0.128132 -0.42806,-0.286 z M 57.677816,93.87653 c -1.500864,-1.179994 -3.801992,-3.974559 -4.867632,-5.911412 -1.352536,-2.458299 -1.924764,-3.027637 -3.038626,-3.023289 -0.523248,0.002 -1.004274,-0.160176 -1.075869,-0.362822 -0.07122,-0.201583 -0.09689,-3.081783 -0.05704,-6.400443 l 0.07244,-6.033929 0.458675,1.545477 c 0.252271,0.850013 0.585363,1.71098 0.740203,1.913258 0.154841,0.202278 0.465961,1.770199 0.691378,3.484265 0.499714,3.799815 1.317472,6.58134 2.646885,9.003116 1.011417,1.842488 3.512841,4.837016 4.985178,5.967901 0.436522,0.335291 0.722244,0.613998 0.634936,0.61935 -0.08731,0.0053 -0.623047,-0.355309 -1.190532,-0.801472 z m 63.588234,-0.162517 c -1.13161,-0.831709 -1.36008,-1.317967 -0.25978,-0.552928 1.44748,1.006441 1.7666,1.276592 1.5092,1.277597 -0.14412,5.62e-4 -0.70635,-0.325538 -1.24942,-0.724669 z M 118.5555,91.75787 c -0.7256,-0.530802 -1.5555,-1.271909 -1.84422,-1.646906 -0.4684,-0.608361 -0.43989,-0.600797 0.26458,0.0702 0.43423,0.41361 1.2955,1.107072 1.91391,1.541026 0.9783,0.686498 1.30826,0.999507 1.05468,1.000497 -0.0383,1.49e-4 -0.66335,-0.43402 -1.38895,-0.964825 z m -3.66416,-3.203317 c -0.56217,-0.559211 -0.97109,-1.072427 -0.90871,-1.140478 0.0624,-0.06804 0.57625,0.389895 1.14196,1.017659 1.27543,1.41534 1.13855,1.487415 -0.23325,0.122819 z m -8.70633,-9.253838 c -4.03425,-4.389723 -7.334975,-8.133833 -7.334952,-8.320237 2.4e-5,-0.186408 0.477356,-0.903705 1.060737,-1.593998 l 1.060695,-1.255077 -1.014854,-1.111955 c -1.116181,-1.222975 -3.835921,-3.983623 -5.477862,-5.560253 -1.280332,-1.229402 -7.498892,-6.530963 -8.05497,-6.867168 -0.219792,-0.132887 -0.341078,-0.304701 -0.26952,-0.38181 0.124759,-0.134432 6.074096,4.761709 8.133134,6.693348 2.755344,2.584859 6.944292,6.970652 6.944252,7.270574 -2e-5,0.187288 -0.47636,0.848004 -1.05852,1.468262 -0.582165,0.620257 -1.058496,1.247627 -1.058514,1.394155 -1.8e-5,0.146527 1.107644,1.442811 2.461454,2.880631 3.43947,3.652868 12.20368,13.363833 12.06146,13.364388 -0.0647,2.53e-4 -3.41829,-3.591133 -7.45254,-7.98086 z m 13.36387,-19.248257 c 0.25124,-0.286927 0.52934,-0.443076 0.61802,-0.346995 0.0887,0.09608 -0.11687,0.330842 -0.45679,0.521687 -0.59082,0.331723 -0.59791,0.324035 -0.16123,-0.174692 z m 0.99858,-0.668669 c 4e-5,-0.258262 0.79514,-0.706145 0.95195,-0.536234 0.0453,0.04909 -0.15036,0.248176 -0.4348,0.442411 -0.28446,0.194235 -0.51716,0.236456 -0.51715,0.09383 z m 1.32302,-0.756292 c 2e-5,-0.192149 3.73667,-2.234252 3.85454,-2.106536 0.0527,0.05712 -0.79299,0.585475 -1.87936,1.174127 -1.08636,0.588648 -1.97519,1.008233 -1.97518,0.932409 z m 0.41034,-1.846095 c 0.37311,-0.388903 4.92126,-2.093734 5.25553,-1.96999 0.15826,0.05858 -0.42666,0.335858 -1.29982,0.616162 -0.87317,0.280303 -2.0871,0.758189 -2.69762,1.061968 -1.20569,0.59992 -1.65327,0.703753 -1.25809,0.29186 z m -35.05925,-2.52764 c -1.521686,-1.245984 -2.831244,-2.350117 -2.910127,-2.453627 -0.371088,-0.48694 3.745304,2.649531 5.787113,4.409471 0.06062,0.05226 0.06061,0.143292 -2.5e-5,0.202298 -0.06065,0.059 -1.355275,-0.912158 -2.876961,-2.158142 z m 39.28549,1.937348 c 0.14222,-0.151877 0.61577,-0.369631 1.05235,-0.483899 1.02392,-0.267992 0.79391,-0.02188 -0.39088,0.418254 -0.50603,0.187982 -0.80369,0.217522 -0.66147,0.06564 z M 49.335011,55.402478 c 1.163362,-1.648452 4.257345,-4.708289 5.574692,-5.513167 1.636196,-0.999688 1.294338,-0.575232 -0.654721,0.812913 -0.954263,0.679639 -2.643589,2.28722 -3.754058,3.572405 -1.110468,1.285184 -1.63513,1.792717 -1.165913,1.127849 z m 89.204709,-0.0034 c -1.45342,-0.410242 -2.0617,-0.689605 -1.7197,-0.789796 0.29105,-0.08527 -0.54239,-0.107135 -1.85208,-0.0486 -1.84045,0.08226 -2.14091,0.0478 -1.32291,-0.151716 0.78733,-0.192031 0.41466,-0.22561 -1.4552,-0.131119 -1.38247,0.06986 -2.93031,0.197952 -3.43964,0.284646 l -0.92606,0.157627 0.79379,-0.335709 c 0.46726,-0.197611 2.37198,-0.343805 4.63028,-0.35539 3.3811,-0.01733 4.0092,0.05667 5.29161,0.623574 0.80033,0.35379 1.6635,0.711345 1.91815,0.794567 0.25465,0.08322 0.46299,0.265666 0.46297,0.405432 -2e-5,0.139765 -0.0298,0.237725 -0.0661,0.217686 -0.0364,-0.02004 -1.07815,-0.32208 -2.31504,-0.671203 z m -9.65733,-0.108386 c 0.29106,-0.137114 0.82686,-0.246654 1.19067,-0.243424 l 0.66145,0.0059 -0.66148,0.232905 c -0.36383,0.128096 -0.89963,0.237636 -1.19067,0.243424 l -0.52917,0.01055 z m -80.301476,-0.08284 c 8e-6,-0.05973 0.208397,-0.28709 0.463087,-0.50523 0.419691,-0.359464 0.429048,-0.349326 0.09988,0.108216 -0.345706,0.480537 -0.562998,0.633773 -0.562969,0.397009 z m 82.484356,-0.403865 c 0.18192,-0.08051 0.47958,-0.08168 0.66147,-0.0026 0.18189,0.07909 0.0331,0.144968 -0.33075,0.146388 -0.3638,0.0014 -0.51263,-0.06329 -0.33072,-0.143806 z M 50.182927,53.123935 c 1.862427,-2.122168 7.013635,-5.905805 8.026824,-5.89582 0.161749,0.0015 -0.580857,0.524812 -1.650235,1.162707 -2.597531,1.549454 -3.928204,2.572819 -5.611543,4.315609 -1.624533,1.681907 -2.104624,1.943904 -0.765046,0.417504 z M 84.03559,52.709072 C 83.089788,51.991122 81.571863,50.951687 80.662421,50.399219 79.038359,49.41263 78.557336,48.993056 79.47192,49.3608 c 1.383984,0.556485 7.013574,4.685039 6.349454,4.656479 -0.03638,-0.0016 -0.839983,-0.590258 -1.785784,-1.308207 z M 82.448333,50.68892 c -1.694377,-1.191066 -6.402083,-3.66227 -7.50525,-3.93971 -0.417342,-0.104955 -0.687868,-0.268227 -0.601169,-0.362818 0.377411,-0.411759 7.465748,3.203986 9.032428,4.607422 1.119835,1.003152 0.771728,0.888535 -0.926009,-0.304894 z m -26.1937,-1.560247 c 2.5e-5,-0.205922 3.279188,-1.805121 4.101313,-2.000152 0.75044,-0.178025 0.757662,-0.171467 0.132278,0.12011 -0.363825,0.169628 -1.407947,0.688069 -2.320271,1.152092 -1.669893,0.849334 -1.913347,0.94196 -1.91332,0.72795 z m 20.902284,-0.684044 c -0.6548,-0.378692 -1.116382,-0.69467 -1.025739,-0.702173 0.255629,-0.02116 2.613193,1.137946 2.613175,1.284779 -3.1e-5,0.249898 -0.40483,0.101336 -1.587436,-0.582606 z m -2.381148,-0.917251 c -0.363797,-0.06954 -0.780494,-0.253623 -0.925996,-0.409072 -0.300316,-0.320846 1.063537,-0.03873 1.719756,0.355745 0.417585,0.25102 0.286519,0.259825 -0.79376,0.05333 z m -15.610415,-0.71635 c 0.363834,-0.239742 0.840111,-0.437242 1.058395,-0.43889 0.352779,-0.0027 0.352776,0.0243 -3.1e-5,0.242679 -0.2183,0.135121 -0.694577,0.332621 -1.058394,0.438889 l -0.661486,0.193215 z m 2.77816,-0.1587 c 0.29106,-0.129303 1.184057,-0.313754 1.984438,-0.409892 l 1.455238,-0.174795 -1.58756,0.414023 c -1.761032,0.459263 -2.695604,0.54538 -1.852116,0.170664 z m 9.422379,-0.07826 c -1.618697,-0.339357 -1.712632,-0.585942 -0.140944,-0.369985 1.259613,0.173076 2.628136,0.684302 1.698811,0.634609 -0.21828,-0.01167 -0.91932,-0.130753 -1.557867,-0.264624 z M 61.181037,46.074466 c 0.308224,-0.140738 1.14169,-0.332128 1.852147,-0.42531 1.601132,-0.210002 0.528005,0.226598 -1.221898,0.497128 -0.795979,0.123055 -1.004892,0.09925 -0.630249,-0.07182 z m 10.964479,-0.08141 c -1.712931,-0.358536 -1.942268,-0.567868 -0.412235,-0.376275 0.727597,0.09111 1.501485,0.278174 1.71975,0.415695 0.469102,0.295564 0.263246,0.289358 -1.307515,-0.03942 z M 66.90822,45.833007 c 0.402194,-0.06769 0.997509,-0.06825 1.322924,-0.0012 0.325414,0.06701 -0.0036,0.122395 -0.731262,0.123076 -0.727608,6.66e-4 -0.993856,-0.05415 -0.591662,-0.12184 z m -0.524752,-0.578669 c 0.695626,-0.06217 1.767195,-0.06563 2.381264,-0.0077 0.614069,0.05794 0.04492,0.1088 -1.264775,0.113032 -1.309695,0.0042 -1.812115,-0.04317 -1.116489,-0.105336 z"
             id="path336"
             transform="matrix(0.05681063,1.3937678,-1.2699992,0.0021673,149.36989,-23.275676)" /><path
             style="fill:#d25826;fill-opacity:1;fill-rule:evenodd;stroke:none;stroke-width:1.794;stroke-miterlimit:0"
             d="m 180.2392,130.24585 2.63123,3.61794 1.64452,7.56478 0.65781,4.27575 0.3289,1.31561 -0.65781,7.23588 -3.28903,7.89369 z"
             id="path593"
             sodipodi:nodetypes="cccccccc"
             transform="matrix(0.0440975,1.0818692,-1.1459445,0.0019556,225.55944,-4.6938121)" /><path
             style="fill:none;fill-opacity:1;fill-rule:evenodd;stroke:#b97644;stroke-width:0.489;stroke-miterlimit:0;stroke-dasharray:1.956, 0.489;stroke-dashoffset:0;stroke-opacity:0.752941"
             d="m 45.388704,126.95681 -2.631228,2.63123 -1.973424,3.61794 -1.644518,4.60465 -0.657807,5.92027 0.657807,6.57807 0.986711,5.59136 1.644517,4.27575 3.289039,4.93355 v -0.3289 0"
             id="path9027"
             transform="matrix(0.0440975,1.0818692,-1.1459445,0.0019556,225.55944,-4.6938121)" /><path
             style="fill:none;fill-opacity:1;fill-rule:evenodd;stroke:#362214;stroke-width:0.276866;stroke-miterlimit:0;stroke-dasharray:none;stroke-opacity:0.752941"
             d="m 180.5681,131.89036 c 0,0.41878 -6.89002,7.15247 5.26247,16.44519 4.31479,3.29942 -4.60466,13.48505 -4.60466,13.48505 v -0.98671"
             id="path11439"
             sodipodi:nodetypes="cscc"
             transform="matrix(0.0440975,1.0818692,-1.1459445,0.0019556,225.55944,-4.6938121)" /><path
             style="fill:#d25826;fill-opacity:1;fill-rule:evenodd;stroke:#362214;stroke-width:0.489;stroke-miterlimit:0;stroke-dasharray:1.956, 0.489;stroke-dashoffset:0;stroke-opacity:0.752941"
             d="m 45.059801,132.54817 -2.302325,6.24917 v 9.86711 l 2.631228,7.23588 6.578073,6.24917 3.289036,2.30232"
             id="path11441"
             transform="matrix(0.0440975,1.0818692,-1.1459445,0.0019556,225.55944,-4.6938121)" /><path
             d="m 370.04921,411.40454 h 41.04165 v 9.91666 l -22.33333,22.74999 h 23.70833 v 11.58333 h -44.08332 v -10.99999 l 21.16666,-21.66666 h -19.49999 z"
             id="path2677"
             style="font-size:85.3333px;font-family:'Arial Black';-inkscape-font-specification:'Arial Black, ';text-align:center;white-space:pre;shape-inside:url(#rect13896-8);opacity:0.9;fill:#e5a50a;fill-rule:evenodd;stroke-width:1.84819;stroke-miterlimit:0;stroke-dasharray:44.3565, 1.84819;stroke-opacity:0.752941;filter:url(#filter18896-0)"
             transform="matrix(-0.0020705,-0.60237554,1.5062164,-0.00259374,-513.81426,419.58413)" /><path
             d="m 467.71583,437.73786 h -33.99998 q 0.45833,4.08334 2.20833,6.08333 2.45833,2.875 6.41667,2.875 2.49999,0 4.74999,-1.25 1.375,-0.79166 2.95834,-2.79166 l 16.70832,1.54166 q -3.83333,6.66667 -9.24999,9.58333 -5.41667,2.875 -15.54166,2.875 -8.79167,0 -13.83333,-2.45833 -5.04167,-2.5 -8.375,-7.875 -3.29166,-5.41666 -3.29166,-12.70832 0,-10.375 6.62499,-16.79166 6.66667,-6.41667 18.375,-6.41667 9.49999,0 14.99999,2.875 5.5,2.875 8.375,8.33333 2.87499,5.45833 2.87499,14.20833 z m -17.24999,-8.12499 q -0.5,-4.91667 -2.66666,-7.04167 -2.125,-2.125 -5.625,-2.125 -4.04167,0 -6.45833,3.20834 -1.54167,2 -1.95833,5.95833 z"
             id="path2679"
             style="font-size:85.3333px;font-family:'Arial Black';-inkscape-font-specification:'Arial Black, ';text-align:center;white-space:pre;shape-inside:url(#rect13896-8);opacity:0.9;fill:#e5a50a;fill-rule:evenodd;stroke-width:1.84819;stroke-miterlimit:0;stroke-dasharray:44.3565, 1.84819;stroke-opacity:0.752941;filter:url(#filter18896-0)"
             transform="matrix(-0.0020705,-0.60237554,1.5062164,-0.00259374,-513.81426,419.58413)" /><path
             d="m 475.5075,411.40454 h 15.79166 v 7.20833 q 3.54167,-4.41666 7.16666,-6.29166 3.625,-1.91667 8.83333,-1.91667 7.04167,0 11,4.20833 4,4.16667 4,12.91666 v 28.12499 H 505.25749 V 431.3212 q 0,-4.16667 -1.54167,-5.875 -1.54166,-1.75 -4.33333,-1.75 -3.08333,0 -5,2.33333 -1.91666,2.33334 -1.91666,8.375 v 21.24999 H 475.5075 Z"
             id="path2681"
             style="font-size:85.3333px;font-family:'Arial Black';-inkscape-font-specification:'Arial Black, ';text-align:center;white-space:pre;shape-inside:url(#rect13896-8);opacity:0.9;fill:#e5a50a;fill-rule:evenodd;stroke-width:1.84819;stroke-miterlimit:0;stroke-dasharray:44.3565, 1.84819;stroke-opacity:0.752941;filter:url(#filter18896-0)"
             transform="matrix(-0.0020705,-0.60237554,1.5062164,-0.00259374,-513.81426,419.58413)" /><path
             d="m 529.42414,443.40453 16.83333,-1.58333 q 1.04167,2.99999 2.91666,4.29166 1.875,1.29167 5,1.29167 3.41667,0 5.29167,-1.45834 1.45833,-1.08333 1.45833,-2.70833 0,-1.83333 -1.91667,-2.83333 -1.375,-0.70833 -7.29166,-1.75 -8.83333,-1.54167 -12.29166,-2.83333 -3.41667,-1.33334 -5.79167,-4.45833 -2.33333,-3.125 -2.33333,-7.125 0,-4.375 2.54167,-7.54166 2.54166,-3.16667 6.99999,-4.70834 4.45834,-1.58333 11.95833,-1.58333 7.91667,0 11.66666,1.20833 3.79167,1.20834 6.29167,3.75 2.54166,2.54167 4.20833,6.875 l -16.08333,1.58333 q -0.625,-2.125 -2.08333,-3.125 -2,-1.33333 -4.83333,-1.33333 -2.875,0 -4.20833,1.04167 -1.29167,1 -1.29167,2.45833 0,1.625 1.66667,2.45833 1.66666,0.83333 7.25,1.5 8.45833,0.95833 12.58332,2.66667 4.125,1.70833 6.29167,4.87499 2.20833,3.16667 2.20833,6.95834 0,3.83333 -2.33333,7.45833 -2.29167,3.62499 -7.29167,5.79166 -4.95833,2.125 -13.54166,2.125 -12.12499,0 -17.29166,-3.45833 -5.12499,-3.45833 -6.58333,-9.83333 z"
             id="path2683"
             style="font-size:85.3333px;font-family:'Arial Black';-inkscape-font-specification:'Arial Black, ';text-align:center;white-space:pre;shape-inside:url(#rect13896-8);opacity:0.9;fill:#e5a50a;fill-rule:evenodd;stroke-width:1.84819;stroke-miterlimit:0;stroke-dasharray:44.3565, 1.84819;stroke-opacity:0.752941;filter:url(#filter18896-0)"
             transform="matrix(-0.0020705,-0.60237554,1.5062164,-0.00259374,-513.81426,419.58413)" /><path
             d="m 633.67411,437.73786 h -33.99999 q 0.45833,4.08334 2.20833,6.08333 2.45833,2.875 6.41667,2.875 2.5,0 4.74999,-1.25 1.375,-0.79166 2.95834,-2.79166 l 16.70832,1.54166 q -3.83333,6.66667 -9.24999,9.58333 -5.41667,2.875 -15.54166,2.875 -8.79167,0 -13.83333,-2.45833 -5.04167,-2.5 -8.375,-7.875 -3.29166,-5.41666 -3.29166,-12.70832 0,-10.375 6.62499,-16.79166 6.66667,-6.41667 18.375,-6.41667 9.49999,0 14.99999,2.875 5.5,2.875 8.375,8.33333 2.875,5.45833 2.875,14.20833 z m -17.25,-8.12499 q -0.5,-4.91667 -2.66666,-7.04167 -2.125,-2.125 -5.625,-2.125 -4.04167,0 -6.45833,3.20834 -1.54167,2 -1.95833,5.95833 z"
             id="path2685"
             style="font-size:85.3333px;font-family:'Arial Black';-inkscape-font-specification:'Arial Black, ';text-align:center;white-space:pre;shape-inside:url(#rect13896-8);opacity:0.9;fill:#e5a50a;fill-rule:evenodd;stroke-width:1.84819;stroke-miterlimit:0;stroke-dasharray:44.3565, 1.84819;stroke-opacity:0.752941;filter:url(#filter18896-0)"
             transform="matrix(-0.0020705,-0.60237554,1.5062164,-0.00259374,-513.81426,419.58413)" /><path
             d="m 36.885773,120.0986 h 7.533532 v 2.11881 h -4.473034 v 1.72195 h 3.820576 v 1.991 h -3.820576 v 4.0291 h -3.060498 z"
             id="path2688"
             style="font-size:13.7756px;font-family:'Arial Black';-inkscape-font-specification:'Arial Black, ';text-align:center;text-anchor:middle;fill:#d0d043;fill-opacity:0.901961;fill-rule:evenodd;stroke-width:0.681975;stroke-miterlimit:0;stroke-dasharray:16.3675, 0.681975"
             transform="scale(0.5815436,1.7195617)" /><path
             d="m 46.181613,120.0986 h 3.053771 v 9.86086 h -3.053771 z"
             id="path2690"
             style="font-size:13.7756px;font-family:'Arial Black';-inkscape-font-specification:'Arial Black, ';text-align:center;text-anchor:middle;fill:#d0d043;fill-opacity:0.901961;fill-rule:evenodd;stroke-width:0.681975;stroke-miterlimit:0;stroke-dasharray:16.3675, 0.681975"
             transform="scale(0.5815436,1.7195617)" /><path
             d="m 51.441633,120.0986 h 2.845254 l 3.712954,5.45509 V 120.0986 H 60.872 v 9.86086 h -2.872159 l -3.692775,-5.41473 v 5.41473 h -2.865433 z"
             id="path2692"
             style="font-size:13.7756px;font-family:'Arial Black';-inkscape-font-specification:'Arial Black, ';text-align:center;text-anchor:middle;fill:#d0d043;fill-opacity:0.901961;fill-rule:evenodd;stroke-width:0.681975;stroke-miterlimit:0;stroke-dasharray:16.3675, 0.681975"
             transform="scale(0.5815436,1.7195617)" /><path
             d="m 62.936994,120.0986 h 4.526845 q 1.338547,0 2.159164,0.36323 0.827343,0.36322 1.365453,1.04258 0.538109,0.67937 0.780258,1.5807 0.242149,0.90133 0.242149,1.91029 0,1.58069 -0.363223,2.45512 -0.356498,0.8677 -0.995503,1.45962 -0.639005,0.5852 -1.372179,0.78026 -1.002228,0.26906 -1.816119,0.26906 h -4.526845 z m 3.047044,2.23316 v 5.38782 h 0.746627 q 0.955144,0 1.358726,-0.20852 0.403582,-0.21524 0.632279,-0.7399 0.228696,-0.53138 0.228696,-1.71522 0,-1.56725 -0.511204,-2.14572 -0.511204,-0.57846 -1.695044,-0.57846 z"
             id="path2694"
             style="font-size:13.7756px;font-family:'Arial Black';-inkscape-font-specification:'Arial Black, ';text-align:center;text-anchor:middle;fill:#d0d043;fill-opacity:0.901961;fill-rule:evenodd;stroke-width:0.681975;stroke-miterlimit:0;stroke-dasharray:16.3675, 0.681975"
             transform="scale(0.5815436,1.7195617)" /><path
             d="m 77.513031,120.0986 h 9.262208 v 2.43495 h -3.107581 v 7.42591 h -3.047045 v -7.42591 h -3.107582 z"
             id="path2696"
             style="font-size:13.7756px;font-family:'Arial Black';-inkscape-font-specification:'Arial Black, ';text-align:center;text-anchor:middle;fill:#d0d043;fill-opacity:0.901961;fill-rule:evenodd;stroke-width:0.681975;stroke-miterlimit:0;stroke-dasharray:16.3675, 0.681975"
             transform="scale(0.5815436,1.7195617)" /><path
             d="m 88.167599,120.0986 h 3.047045 v 3.45063 h 3.329552 v -3.45063 h 3.060497 v 9.86086 h -3.060497 v -3.98874 h -3.329552 v 3.98874 h -3.047045 z"
             id="path2698"
             style="font-size:13.7756px;font-family:'Arial Black';-inkscape-font-specification:'Arial Black, ';text-align:center;text-anchor:middle;fill:#d0d043;fill-opacity:0.901961;fill-rule:evenodd;stroke-width:0.681975;stroke-miterlimit:0;stroke-dasharray:16.3675, 0.681975"
             transform="scale(0.5815436,1.7195617)" /><path
             d="m 99.622602,120.0986 h 8.165808 v 2.10536 h -5.11204 v 1.56724 h 4.74209 v 2.01118 h -4.74209 v 1.94392 h 5.26002 v 2.23316 h -8.313788 z"
             id="path2700"
             style="font-size:13.7756px;font-family:'Arial Black';-inkscape-font-specification:'Arial Black, ';text-align:center;text-anchor:middle;fill:#d0d043;fill-opacity:0.901961;fill-rule:evenodd;stroke-width:0.681975;stroke-miterlimit:0;stroke-dasharray:16.3675, 0.681975"
             transform="scale(0.5815436,1.7195617)" /><path
             d="m 113.92286,120.0986 h 8.6232 v 1.97083 l -5.52907,5.77122 h 5.73086 v 2.11881 h -9.35637 v -2.04482 l 5.46853,-5.71068 h -4.93715 z"
             id="path2702"
             style="font-size:13.7756px;font-family:'Arial Black';-inkscape-font-specification:'Arial Black, ';text-align:center;text-anchor:middle;fill:#d0d043;fill-opacity:0.901961;fill-rule:evenodd;stroke-width:0.681975;stroke-miterlimit:0;stroke-dasharray:16.3675, 0.681975"
             transform="scale(0.5815436,1.7195617)" /><path
             d="m 124.11331,120.0986 h 8.16581 v 2.10536 h -5.11204 v 1.56724 h 4.74209 v 2.01118 h -4.74209 v 1.94392 h 5.26002 v 2.23316 h -8.31379 z"
             id="path2704"
             style="font-size:13.7756px;font-family:'Arial Black';-inkscape-font-specification:'Arial Black, ';text-align:center;text-anchor:middle;fill:#d0d043;fill-opacity:0.901961;fill-rule:evenodd;stroke-width:0.681975;stroke-miterlimit:0;stroke-dasharray:16.3675, 0.681975"
             transform="scale(0.5815436,1.7195617)" /><path
             d="m 134.08851,120.0986 h 2.84525 l 3.71295,5.45509 v -5.45509 h 2.87216 v 9.86086 h -2.87216 l -3.69277,-5.41473 v 5.41473 h -2.86543 z"
             id="path2706"
             style="font-size:13.7756px;font-family:'Arial Black';-inkscape-font-specification:'Arial Black, ';text-align:center;text-anchor:middle;fill:#d0d043;fill-opacity:0.901961;fill-rule:evenodd;stroke-width:0.681975;stroke-miterlimit:0;stroke-dasharray:16.3675, 0.681975"
             transform="scale(0.5815436,1.7195617)" /><path
             d="m 150.2587,120.0986 h 3.05377 v 9.86086 h -3.05377 z"
             id="path2708"
             inkscape:export-filename="LogoEZ700.svg"
             inkscape:export-xdpi="96"
             inkscape:export-ydpi="96"
             style="font-size:13.7756px;font-family:'Arial Black';-inkscape-font-specification:'Arial Black, ';text-align:center;text-anchor:middle;fill:#d0d043;fill-opacity:0.901961;fill-rule:evenodd;stroke-width:0.681975;stroke-miterlimit:0;stroke-dasharray:16.3675, 0.681975"
             transform="scale(0.5815436,1.7195617)" /><path
             d="m 155.51871,120.0986 h 2.84526 l 3.71295,5.45509 v -5.45509 h 2.87216 v 9.86086 h -2.87216 l -3.69277,-5.41473 v 5.41473 h -2.86544 z"
             id="path2710"
             style="font-size:13.7756px;font-family:'Arial Black';-inkscape-font-specification:'Arial Black, ';text-align:center;text-anchor:middle;fill:#d0d043;fill-opacity:0.901961;fill-rule:evenodd;stroke-width:0.681975;stroke-miterlimit:0;stroke-dasharray:16.3675, 0.681975"
             transform="scale(0.5815436,1.7195617)" /><path
             d="m 170.57233,120.0986 h 3.38336 l 1.99101,3.32955 1.991,-3.32955 h 3.36319 l -3.83403,5.73087 v 4.12999 h -3.05378 v -4.12999 z"
             id="path2712"
             style="font-size:13.7756px;font-family:'Arial Black';-inkscape-font-specification:'Arial Black, ';text-align:center;text-anchor:middle;fill:#d0d043;fill-opacity:0.901961;fill-rule:evenodd;stroke-width:0.681975;stroke-miterlimit:0;stroke-dasharray:16.3675, 0.681975"
             transform="scale(0.5815436,1.7195617)" /><path
             d="m 181.07218,125.03576 q 0,-2.41477 1.34528,-3.76004 1.34527,-1.34528 3.74659,-1.34528 2.46185,0 3.79367,1.3251 1.33182,1.31837 1.33182,3.6995 0,1.72868 -0.5852,2.83853 -0.57846,1.10312 -1.68159,1.72195 -1.0964,0.6121 -2.73763,0.6121 -1.66814,0 -2.76454,-0.53139 -1.08967,-0.53138 -1.76903,-1.68159 -0.67937,-1.15021 -0.67937,-2.87888 z m 3.04705,0.0135 q 0,1.49325 0.55156,2.14571 0.55829,0.65246 1.51343,0.65246 0.98205,0 1.52016,-0.63901 0.53811,-0.639 0.53811,-2.29369 0,-1.39236 -0.56501,-2.03136 -0.55829,-0.64573 -1.52016,-0.64573 -0.92151,0 -1.4798,0.65246 -0.55829,0.65245 -0.55829,2.15916 z"
             id="path2714"
             style="font-size:13.7756px;font-family:'Arial Black';-inkscape-font-specification:'Arial Black, ';text-align:center;text-anchor:middle;fill:#d0d043;fill-opacity:0.901961;fill-rule:evenodd;stroke-width:0.681975;stroke-miterlimit:0;stroke-dasharray:16.3675, 0.681975"
             transform="scale(0.5815436,1.7195617)" /><path
             d="m 199.34773,120.0986 h 3.04032 v 5.87885 q 0,0.87443 -0.27578,1.65468 -0.26906,0.77354 -0.85425,1.35873 -0.57847,0.57847 -1.21747,0.81389 -0.88788,0.32959 -2.13226,0.32959 -0.71972,0 -1.57397,-0.10089 -0.84752,-0.1009 -1.41926,-0.39686 -0.57175,-0.30268 -1.04932,-0.85425 -0.47084,-0.55156 -0.64573,-1.13675 -0.28251,-0.94169 -0.28251,-1.66814 v -5.87885 h 3.04032 v 6.0201 q 0,0.80717 0.44394,1.26456 0.45067,0.45067 1.24438,0.45067 0.78698,0 1.23093,-0.44394 0.45066,-0.45067 0.45066,-1.27129 z"
             id="path2716"
             style="font-size:13.7756px;font-family:'Arial Black';-inkscape-font-specification:'Arial Black, ';text-align:center;text-anchor:middle;fill:#d0d043;fill-opacity:0.901961;fill-rule:evenodd;stroke-width:0.681975;stroke-miterlimit:0;stroke-dasharray:16.3675, 0.681975"
             transform="scale(0.5815436,1.7195617)" /><path
             d="m 204.44631,129.95946 v -9.86086 h 5.07841 q 1.41253,0 2.15916,0.24215 0.74663,0.24215 1.20402,0.90134 0.45739,0.65245 0.45739,1.59414 0,0.82062 -0.34977,1.41927 -0.34977,0.59192 -0.96187,0.96187 -0.39013,0.23542 -1.06949,0.39013 0.54484,0.18161 0.79371,0.36322 0.16816,0.12108 0.4843,0.51793 0.32286,0.39686 0.43049,0.6121 l 1.47307,2.85871 h -3.4439 l -1.62778,-3.01342 q -0.30941,-0.58519 -0.55156,-0.76007 -0.32959,-0.2287 -0.74663,-0.2287 h -0.26905 v 4.00219 z m 3.0605,-5.86539 h 1.28473 q 0.20852,0 0.80717,-0.13453 0.30268,-0.0605 0.49102,-0.30942 0.19507,-0.24887 0.19507,-0.57174 0,-0.47757 -0.30269,-0.73317 -0.30269,-0.2556 -1.13676,-0.2556 h -1.33854 z"
             id="path2718"
             style="font-size:13.7756px;font-family:'Arial Black';-inkscape-font-specification:'Arial Black, ';text-align:center;text-anchor:middle;fill:#d0d043;fill-opacity:0.901961;fill-rule:evenodd;stroke-width:0.681975;stroke-miterlimit:0;stroke-dasharray:16.3675, 0.681975"
             transform="scale(0.5815436,1.7195617)" /><path
             d="m 219.70844,120.0986 h 8.16581 v 2.10536 h -5.11204 v 1.56724 h 4.74209 v 2.01118 h -4.74209 v 1.94392 h 5.26002 v 2.23316 h -8.31379 z"
             id="path2720"
             style="font-size:13.7756px;font-family:'Arial Black';-inkscape-font-specification:'Arial Black, ';text-align:center;text-anchor:middle;fill:#d0d043;fill-opacity:0.901961;fill-rule:evenodd;stroke-width:0.681975;stroke-miterlimit:0;stroke-dasharray:16.3675, 0.681975"
             transform="scale(0.5815436,1.7195617)" /><path
             d="m 229.66346,120.0986 h 3.04704 v 7.43264 h 4.75554 v 2.42822 h -7.80258 z"
             id="path2722"
             style="font-size:13.7756px;font-family:'Arial Black';-inkscape-font-specification:'Arial Black, ';text-align:center;text-anchor:middle;fill:#d0d043;fill-opacity:0.901961;fill-rule:evenodd;stroke-width:0.681975;stroke-miterlimit:0;stroke-dasharray:16.3675, 0.681975"
             transform="scale(0.5815436,1.7195617)" /><path
             d="m 238.84495,120.0986 h 8.16581 v 2.10536 h -5.11204 v 1.56724 h 4.74209 v 2.01118 h -4.74209 v 1.94392 h 5.26002 v 2.23316 h -8.31379 z"
             id="path2724"
             style="font-size:13.7756px;font-family:'Arial Black';-inkscape-font-specification:'Arial Black, ';text-align:center;text-anchor:middle;fill:#d0d043;fill-opacity:0.901961;fill-rule:evenodd;stroke-width:0.681975;stroke-miterlimit:0;stroke-dasharray:16.3675, 0.681975"
             transform="scale(0.5815436,1.7195617)" /><path
             d="m 248.76635,120.0986 h 4.00891 l 1.54707,5.99992 1.54033,-5.99992 h 3.99547 v 9.86086 h -2.48876 v -7.52008 l -1.93047,7.52008 h -2.25333 l -1.92374,-7.52008 v 7.52008 h -2.49548 z"
             id="path2726"
             style="font-size:13.7756px;font-family:'Arial Black';-inkscape-font-specification:'Arial Black, ';text-align:center;text-anchor:middle;fill:#d0d043;fill-opacity:0.901961;fill-rule:evenodd;stroke-width:0.681975;stroke-miterlimit:0;stroke-dasharray:16.3675, 0.681975"
             transform="scale(0.5815436,1.7195617)" /><path
             d="m 261.79533,120.0986 h 8.16581 v 2.10536 h -5.11204 v 1.56724 h 4.74209 v 2.01118 h -4.74209 v 1.94392 h 5.26002 v 2.23316 h -8.31379 z"
             id="path2728"
             style="font-size:13.7756px;font-family:'Arial Black';-inkscape-font-specification:'Arial Black, ';text-align:center;text-anchor:middle;fill:#d0d043;fill-opacity:0.901961;fill-rule:evenodd;stroke-width:0.681975;stroke-miterlimit:0;stroke-dasharray:16.3675, 0.681975"
             transform="scale(0.5815436,1.7195617)" /><path
             d="m 271.77052,120.0986 h 2.84525 l 3.71296,5.45509 v -5.45509 h 2.87216 v 9.86086 h -2.87216 l -3.69278,-5.41473 v 5.41473 h -2.86543 z"
             id="path2730"
             style="font-size:13.7756px;font-family:'Arial Black';-inkscape-font-specification:'Arial Black, ';text-align:center;text-anchor:middle;fill:#d0d043;fill-opacity:0.901961;fill-rule:evenodd;stroke-width:0.681975;stroke-miterlimit:0;stroke-dasharray:16.3675, 0.681975"
             transform="scale(0.5815436,1.7195617)" /><path
             d="m 282.53272,120.0986 h 9.2622 v 2.43495 h -3.10758 v 7.42591 h -3.04704 v -7.42591 h -3.10758 z"
             id="path2732"
             style="font-size:13.7756px;font-family:'Arial Black';-inkscape-font-specification:'Arial Black, ';text-align:center;text-anchor:middle;fill:#d0d043;fill-opacity:0.901961;fill-rule:evenodd;stroke-width:0.681975;stroke-miterlimit:0;stroke-dasharray:16.3675, 0.681975"
             transform="scale(0.5815436,1.7195617)" /><path
             d="m 292.64245,126.69717 2.89907,-0.18161 q 0.0942,0.70627 0.3834,1.07622 0.47084,0.59864 1.34527,0.59864 0.65246,0 1.00223,-0.30268 0.3565,-0.30942 0.3565,-0.713 0,-0.3834 -0.33632,-0.68609 -0.33632,-0.30268 -1.56052,-0.57174 -2.00445,-0.45067 -2.8587,-1.19729 -0.86098,-0.74663 -0.86098,-1.90356 0,-0.76008 0.43722,-1.43272 0.44394,-0.67936 1.32509,-1.06277 0.88788,-0.39013 2.42822,-0.39013 1.89011,0 2.87888,0.70627 0.99551,0.69954 1.18384,2.23316 l -2.87215,0.16816 q -0.11435,-0.66592 -0.4843,-0.9686 -0.36323,-0.30269 -1.00896,-0.30269 -0.53138,0 -0.80044,0.2287 -0.26905,0.22197 -0.26905,0.54483 0,0.23543 0.22197,0.42377 0.21524,0.19506 1.02241,0.36322 1.99773,0.43049 2.8587,0.87443 0.86771,0.43721 1.25783,1.08967 0.39686,0.65246 0.39686,1.45962 0,0.94842 -0.52466,1.74886 -0.52465,0.80043 -1.46634,1.21747 -0.9417,0.41031 -2.37441,0.41031 -2.51566,0 -3.48426,-0.9686 -0.9686,-0.9686 -1.0964,-2.46185 z"
             id="path2734"
             style="font-size:13.7756px;font-family:'Arial Black';-inkscape-font-specification:'Arial Black, ';text-align:center;text-anchor:middle;fill:#d0d043;fill-opacity:0.901961;fill-rule:evenodd;stroke-width:0.681975;stroke-miterlimit:0;stroke-dasharray:16.3675, 0.681975"
             transform="scale(0.5815436,1.7195617)" /><path
             d="m 36.253644,19.451283 h 11.39291 v 2.752804 l -6.199594,6.315258 h 6.581285 v 3.215461 H 35.790988 v -3.053531 l 5.875734,-6.014531 h -5.413078 z"
             id="path2658" /><path
             d="m 63.365301,26.761251 h -9.438187 q 0.12723,1.133508 0.613019,1.688696 0.682418,0.798082 1.781227,0.798082 0.693984,0 1.31857,-0.346992 0.381692,-0.219762 0.821215,-0.77495 l 4.638129,0.427957 q -1.064109,1.850625 -2.567742,2.660274 -1.503633,0.798082 -4.31427,0.798082 -2.440511,0 -3.840047,-0.682418 -1.399535,-0.693985 -2.324847,-2.186051 -0.913746,-1.503633 -0.913746,-3.527754 0,-2.880035 1.839058,-4.661261 1.850625,-1.781227 5.100785,-1.781227 2.637141,0 4.163907,0.798082 1.526765,0.798082 2.324847,2.313281 0.798082,1.515199 0.798082,3.944145 z m -4.788492,-2.255449 q -0.138797,-1.364836 -0.74025,-1.954722 -0.589887,-0.589887 -1.561465,-0.589887 -1.121941,0 -1.792793,0.890613 -0.427957,0.555188 -0.543621,1.653996 z"
             id="path2660" /><path
             d="m 65.528216,19.451283 h 4.383668 v 2.000988 q 0.983144,-1.226039 1.989422,-1.746527 1.006277,-0.532055 2.452078,-0.532055 1.954722,0 3.053531,1.168207 1.110375,1.156641 1.110375,3.585586 v 7.807324 h -4.73066 v -6.754781 q 0,-1.156641 -0.427957,-1.630863 -0.427957,-0.485789 -1.202906,-0.485789 -0.855914,0 -1.387969,0.647718 -0.532055,0.647719 -0.532055,2.324848 v 5.898867 h -4.707527 z"
             id="path2662" /><path
             d="m 80.495148,28.334283 4.672828,-0.439524 q 0.28916,0.832781 0.809648,1.19134 0.520489,0.358559 1.387969,0.358559 0.948445,0 1.468934,-0.404825 0.404824,-0.300726 0.404824,-0.751816 0,-0.508922 -0.532055,-0.786516 -0.381691,-0.196628 -2.024121,-0.485789 -2.452078,-0.427957 -3.41209,-0.786515 -0.948445,-0.370125 -1.60773,-1.237606 -0.647719,-0.86748 -0.647719,-1.977855 0,-1.214473 0.705551,-2.09352 0.705551,-0.879047 1.943156,-1.307004 1.237606,-0.439523 3.319559,-0.439523 2.197617,0 3.238593,0.335426 1.052543,0.335426 1.746528,1.040976 0.70555,0.705551 1.168207,1.908457 l -4.464633,0.439524 q -0.173496,-0.589887 -0.57832,-0.867481 -0.555188,-0.370125 -1.341703,-0.370125 -0.798083,0 -1.168208,0.28916 -0.358558,0.277594 -0.358558,0.682418 0,0.45109 0.462656,0.682418 0.462656,0.231329 2.012555,0.416391 2.34798,0.266027 3.493054,0.74025 1.145075,0.474223 1.746528,1.35327 0.613019,0.879046 0.613019,1.931589 0,1.06411 -0.647718,2.070387 -0.636153,1.006277 -2.024122,1.607731 -1.376402,0.589886 -3.759081,0.589886 -3.365825,0 -4.800059,-0.960011 -1.422668,-0.960012 -1.827492,-2.729672 z"
             id="path2664" /><path
             d="m 109.4343,26.761251 h -9.438192 q 0.127232,1.133508 0.613022,1.688696 0.68242,0.798082 1.78122,0.798082 0.69399,0 1.31857,-0.346992 0.3817,-0.219762 0.82122,-0.77495 l 4.63813,0.427957 q -1.06411,1.850625 -2.56774,2.660274 -1.50364,0.798082 -4.31427,0.798082 -2.440515,0 -3.84005,-0.682418 -1.399535,-0.693985 -2.324848,-2.186051 -0.913746,-1.503633 -0.913746,-3.527754 0,-2.880035 1.839059,-4.661261 1.850625,-1.781227 5.100785,-1.781227 2.63714,0 4.16391,0.798082 1.52676,0.798082 2.32484,2.313281 0.79809,1.515199 0.79809,3.944145 z m -4.7885,-2.255449 q -0.13879,-1.364836 -0.74025,-1.954722 -0.58988,-0.589887 -1.56146,-0.589887 -1.12194,0 -1.79279,0.890613 -0.42796,0.555188 -0.54363,1.653996 z"
             id="path2666" /><path
             d="m 111.60878,27.015712 h 5.03139 v 4.719094 h -5.03139 z"
             id="path2668" /><path
             d="m 128.6461,26.934748 4.4762,0.508921 q -0.37013,1.399536 -1.21447,2.428946 -0.84435,1.017843 -2.16292,1.584597 -1.30701,0.566754 -3.33113,0.566754 -1.95472,0 -3.26172,-0.358558 -1.29544,-0.370125 -2.23232,-1.179774 -0.93688,-0.821215 -1.46893,-1.920023 -0.53206,-1.098809 -0.53206,-2.914735 0,-1.89689 0.64772,-3.157628 0.47422,-0.925313 1.29544,-1.653997 0.82121,-0.740249 1.68869,-1.098808 1.37641,-0.566754 3.52776,-0.566754 3.00726,0 4.58029,1.075676 1.5846,1.075676 2.22075,3.146062 l -4.42993,0.589887 q -0.20819,-0.786516 -0.76338,-1.179773 -0.54362,-0.404825 -1.46894,-0.404825 -1.1682,0 -1.89689,0.844348 -0.71711,0.832781 -0.71711,2.533043 0,1.515199 0.71711,2.301715 0.71712,0.786515 1.8275,0.786515 0.92531,0 1.54989,-0.474222 0.63616,-0.474223 0.94845,-1.457367 z"
             id="path2670" /><path
             d="m 134.70689,25.627744 q 0,-2.810637 1.89689,-4.626563 1.89689,-1.827492 5.12392,-1.827492 3.68968,0 5.57501,2.139785 1.5152,1.723395 1.5152,4.244871 0,2.83377 -1.88533,4.649695 -1.87375,1.80436 -5.19331,1.80436 -2.961,0 -4.7885,-1.503633 -2.24388,-1.862191 -2.24388,-4.881023 z m 4.7191,-0.01157 q 0,1.64243 0.65928,2.428946 0.67085,0.786515 1.67713,0.786515 1.01784,0 1.66556,-0.774949 0.65929,-0.774949 0.65929,-2.486777 0,-1.596164 -0.65929,-2.371114 -0.65928,-0.786515 -1.63086,-0.786515 -1.02941,0 -1.70026,0.798082 -0.67085,0.786515 -0.67085,2.405812 z"
             id="path2672" /><path
             d="m 151.11962,19.451283 h 4.39524 v 1.792793 q 0.94844,-1.121942 1.90846,-1.596164 0.97157,-0.474223 2.33641,-0.474223 1.46893,0 2.32485,0.520488 0.85591,0.520489 1.39953,1.549899 1.11038,-1.202907 2.02412,-1.630864 0.91375,-0.439523 2.25545,-0.439523 1.97786,0 3.08823,1.179773 1.11038,1.168207 1.11038,3.666551 v 7.714793 h -4.7191 V 24.73713 q 0,-0.832781 -0.32385,-1.237605 -0.47423,-0.636152 -1.17978,-0.636152 -0.83278,0 -1.3417,0.601453 -0.50892,0.601453 -0.50892,1.93159 v 6.33839 h -4.7191 v -6.766348 q 0,-0.809648 -0.0925,-1.098808 -0.15036,-0.462656 -0.52049,-0.74025 -0.37012,-0.28916 -0.86748,-0.28916 -0.80965,0 -1.33013,0.613019 -0.52049,0.61302 -0.52049,2.012555 v 6.268992 h -4.7191 z"
             id="path2674" /></g></g></g></g></svg>
