<?xml version="1.0" encoding="UTF-8" standalone="no"?>
<!-- Created with Inkscape (http://www.inkscape.org/) -->

<svg
   width="168.82912mm"
   height="168.82906mm"
   viewBox="0 0 168.82912 168.82906"
   version="1.1"
   id="svg1"
   xml:space="preserve"
   xmlns:inkscape="http://www.inkscape.org/namespaces/inkscape"
   xmlns:sodipodi="http://sodipodi.sourceforge.net/DTD/sodipodi-0.dtd"
   xmlns="http://www.w3.org/2000/svg"
   xmlns:svg="http://www.w3.org/2000/svg"><sodipodi:namedview
     id="namedview1"
     pagecolor="#ffffff"
     bordercolor="#ffccff"
     borderopacity="0.25"
     inkscape:showpageshadow="2"
     inkscape:pageopacity="0.0"
     inkscape:pagecheckerboard="0"
     inkscape:deskcolor="#d1d1d1"
     inkscape:document-units="mm" /><defs
     id="defs1" /><g
     inkscape:label="Ebene 1"
     inkscape:groupmode="layer"
     id="layer1"
     transform="translate(-39.996514,-91.614545)"><g
       id="g1"
       transform="translate(19.494209,27.521236)"><path
         style="fill:#c8c8c8"
         d="m 141.21043,224.57546 c 0,-0.0685 0.25977,-0.32828 0.57727,-0.57728 0.52319,-0.41031 0.53486,-0.39864 0.12454,0.12455 -0.43093,0.54948 -0.70181,0.72422 -0.70181,0.45273 z m 2.30909,-2.30909 c 0,-0.0685 0.25977,-0.32828 0.57727,-0.57728 0.52319,-0.41031 0.53486,-0.39864 0.12454,0.12455 -0.43093,0.54948 -0.70181,0.72422 -0.70181,0.45273 z m -87.250654,-1.64931 c -0.907142,-0.42779 -1.969598,-1.13144 -2.361011,-1.56366 -2.908342,-3.21159 -2.986366,-8.13544 -0.178172,-11.24378 1.803722,-1.9965 3.438679,-2.7171 6.167755,-2.71839 2.563599,-0.001 3.88041,0.51577 5.718404,2.24505 5.332306,5.01692 1.678187,14.0735 -5.673605,14.0618 -1.434997,-0.002 -2.504008,-0.22958 -3.673371,-0.78102 z m 44.367534,-8.57667 c 0,-0.0685 0.25977,-0.32827 0.57727,-0.57727 0.52319,-0.41032 0.53486,-0.39865 0.12455,0.12454 -0.43094,0.54948 -0.70182,0.72423 -0.70182,0.45273 z m 35.91377,-0.45273 c -0.41032,-0.52319 -0.39865,-0.53486 0.12454,-0.12454 0.54948,0.43093 0.72422,0.70182 0.45273,0.70182 -0.0685,0 -0.32827,-0.25978 -0.57727,-0.57728 z m 10.32013,-10.96818 c 0,-0.45357 0.0749,-0.63912 0.16638,-0.41234 0.0915,0.22679 0.0915,0.59789 0,0.82468 -0.0915,0.22678 -0.16638,0.0412 -0.16638,-0.41234 z m -0.026,-2.83138 c 0.0158,-0.38428 0.094,-0.46245 0.1993,-0.1993 0.0953,0.23812 0.0836,0.52264 -0.0261,0.63225 -0.10961,0.10961 -0.18757,-0.0852 -0.17325,-0.43295 z M 32.793983,195.99422 c -1.452506,-0.29472 -3.526478,-1.46358 -4.469011,-2.51868 -1.570349,-1.75789 -2.320598,-5.07688 -1.742542,-7.70876 1.333034,-6.06926 9.557477,-8.17931 13.898207,-3.5657 5.590479,5.94192 0.310844,15.41584 -7.686654,13.79314 z m 15.748978,-8.76197 c 0.01583,-0.38428 0.09399,-0.46244 0.199296,-0.19929 0.09529,0.23812 0.08357,0.52263 -0.02604,0.63225 -0.109613,0.10961 -0.187578,-0.0852 -0.173254,-0.43296 z m 60.010319,-0.59186 c 0,-0.0685 0.25978,-0.32827 0.57728,-0.57727 0.52319,-0.41032 0.53486,-0.39865 0.12454,0.12454 -0.43093,0.54948 -0.70182,0.72423 -0.70182,0.45273 z m 20.08,-0.45273 c -0.41031,-0.52319 -0.39864,-0.53486 0.12455,-0.12454 0.54948,0.43093 0.72422,0.70182 0.45273,0.70182 -0.0685,0 -0.32828,-0.25978 -0.57728,-0.57728 z M 139.519,180.25 c -0.41032,-0.52319 -0.39865,-0.53486 0.12454,-0.12454 0.54948,0.43093 0.72423,0.70181 0.45273,0.70181 -0.0685,0 -0.32827,-0.25977 -0.57727,-0.57727 z m -40.861821,-0.53688 c 0,-0.0685 0.259772,-0.32827 0.577272,-0.57727 0.523193,-0.41032 0.53486,-0.39865 0.124545,0.12454 -0.430933,0.54948 -0.701817,0.72422 -0.701817,0.45273 z m 38.882601,-1.44234 c -0.41032,-0.52319 -0.39865,-0.53486 0.12454,-0.12454 0.54948,0.43093 0.72423,0.70181 0.45273,0.70181 -0.0685,0 -0.32827,-0.25977 -0.57727,-0.57727 z m 37.23493,-1.62042 c 0.22679,-0.0915 0.59789,-0.0915 0.82468,0 0.22678,0.0915 0.0412,0.16639 -0.41234,0.16639 -0.45357,0 -0.63912,-0.0749 -0.41234,-0.16639 z M 62.460209,171.03244 c 0.320953,-0.0836 0.766278,-0.0781 0.989611,0.0122 0.223333,0.0904 -0.03927,0.15878 -0.583551,0.15206 -0.544286,-0.007 -0.727012,-0.0806 -0.40606,-0.16429 z m 110.745481,-0.40948 c -1.47097,-0.44745 -2.77872,-1.26037 -3.83691,-2.38508 -2.20231,-2.34076 -2.84213,-4.95136 -1.95847,-7.99103 1.65674,-5.69899 8.36839,-7.71746 13.25871,-3.98744 2.58137,1.96891 3.6058,6.78849 2.10285,9.89317 -1.66797,3.44556 -6.11042,5.52157 -9.56618,4.47038 z m -77.229549,-0.9288 c -0.410316,-0.5232 -0.398648,-0.53486 0.124544,-0.12455 0.549481,0.43093 0.724223,0.70182 0.452729,0.70182 -0.0685,0 -0.328272,-0.25977 -0.577273,-0.57727 z m -3.298701,-3.62858 c -0.410316,-0.52319 -0.398649,-0.53486 0.124544,-0.12454 0.54948,0.43093 0.724223,0.70182 0.452728,0.70182 -0.0685,0 -0.328272,-0.25978 -0.577272,-0.57728 z m 68.37728,-3.38116 c 0,-0.45358 0.0749,-0.63913 0.16638,-0.41234 0.0915,0.22678 0.0915,0.59789 0,0.82467 -0.0915,0.22679 -0.16638,0.0412 -0.16638,-0.41233 z m -71.675982,-0.24741 c -0.410316,-0.52319 -0.398648,-0.53486 0.124544,-0.12454 0.3175,0.249 0.577273,0.50877 0.577273,0.57727 0,0.2715 -0.270884,0.0968 -0.701817,-0.45273 z m 6.995392,-24.02554 c 0.01583,-0.38428 0.09399,-0.46244 0.199297,-0.19929 0.09529,0.23812 0.08357,0.52263 -0.02604,0.63225 -0.109613,0.10961 -0.187577,-0.0852 -0.173254,-0.43296 z M 28.750753,138.0816 c 0.01583,-0.38428 0.09399,-0.46244 0.199296,-0.19929 0.09529,0.23812 0.08357,0.52263 -0.02604,0.63225 -0.109613,0.10961 -0.187578,-0.0852 -0.173254,-0.43296 z m 0,-1.64935 c 0.01583,-0.38428 0.09399,-0.46244 0.199296,-0.1993 0.09529,0.23813 0.08357,0.52264 -0.02604,0.63226 -0.109613,0.10961 -0.187578,-0.0852 -0.173254,-0.43296 z m 67.649419,-0.46732 c 0,-0.45357 0.07487,-0.63912 0.166382,-0.41233 0.09151,0.22678 0.09151,0.59789 0,0.82467 -0.09151,0.22679 -0.166382,0.0412 -0.166382,-0.41234 z m 56.293858,-4.51365 c 0.23813,-0.0953 0.52264,-0.0836 0.63225,0.026 0.10961,0.10961 -0.0852,0.18757 -0.43295,0.17325 -0.38428,-0.0158 -0.46245,-0.094 -0.1993,-0.1993 z m -80.292869,-7.11427 -0.628398,-0.74221 0.742208,0.6284 c 0.697492,0.59054 0.892378,0.85602 0.628398,0.85602 -0.0626,0 -0.396589,-0.33399 -0.742208,-0.74221 z m 106.909269,-2.55649 c 0.32838,-0.36286 0.67127,-0.65974 0.76199,-0.65974 0.0907,0 -0.10374,0.29688 -0.43212,0.65974 -0.32838,0.36286 -0.67128,0.65974 -0.762,0.65974 -0.0907,0 0.10375,-0.29688 0.43213,-0.65974 z M 41.259775,119.01701 c 0,-0.0685 0.259773,-0.32827 0.577273,-0.57727 0.523192,-0.41031 0.53486,-0.39865 0.124544,0.12455 -0.430932,0.54948 -0.701817,0.72422 -0.701817,0.45272 z m 42.181301,-0.45272 c -0.410316,-0.5232 -0.398648,-0.53486 0.124544,-0.12455 0.3175,0.249 0.577273,0.50877 0.577273,0.57727 0,0.2715 -0.270885,0.0968 -0.701817,-0.45272 z m -39.377405,-2.39156 c 0.328382,-0.36286 0.671278,-0.65974 0.761992,-0.65974 0.09071,0 -0.10374,0.29688 -0.432121,0.65974 -0.328382,0.36285 -0.671278,0.65974 -0.761992,0.65974 -0.09071,0 0.10374,-0.29689 0.432121,-0.65974 z m 36.914114,-0.0825 -0.628399,-0.74221 0.742208,0.6284 c 0.697492,0.59054 0.892378,0.85602 0.628399,0.85602 -0.0626,0 -0.396589,-0.334 -0.742208,-0.74221 z m 5.937662,-2.30909 -0.628398,-0.74221 0.742207,0.6284 c 0.697493,0.59054 0.892379,0.85602 0.628399,0.85602 -0.0626,0 -0.396589,-0.334 -0.742208,-0.74221 z m -48.624503,-0.0421 c 0,-0.0685 0.259773,-0.32827 0.577273,-0.57727 0.523192,-0.41032 0.53486,-0.39865 0.124544,0.12454 -0.430932,0.54948 -0.701817,0.72423 -0.701817,0.45273 z m 22.039448,-10.32677 c 0.238125,-0.0953 0.522638,-0.0836 0.632251,0.0261 0.109614,0.10961 -0.08522,0.18757 -0.432954,0.17325 -0.38428,-0.0158 -0.462445,-0.094 -0.199297,-0.1993 z m 4.618182,0 c 0.238125,-0.0953 0.522638,-0.0836 0.632251,0.0261 0.109613,0.10961 -0.08522,0.18757 -0.432954,0.17325 -0.38428,-0.0158 -0.462445,-0.094 -0.199297,-0.1993 z M 183.48589,98.68961 c 0,-0.453572 0.0749,-0.639124 0.16638,-0.412338 0.0915,0.226786 0.0915,0.59789 0,0.824675 -0.0915,0.226786 -0.16638,0.04123 -0.16638,-0.412337 z m 0,-1.649351 c 0,-0.453571 0.0749,-0.639123 0.16638,-0.412338 0.0915,0.226786 0.0915,0.59789 0,0.824676 -0.0915,0.226785 -0.16638,0.04123 -0.16638,-0.412338 z m -13.85455,-1.979221 c 0,-0.453571 0.0749,-0.639123 0.16638,-0.412337 0.0915,0.226785 0.0915,0.597889 0,0.824675 -0.0915,0.226786 -0.16638,0.04123 -0.16638,-0.412338 z M 31.75378,85.87675 c -4.686304,-1.671118 -6.745943,-6.899149 -4.514672,-11.459703 1.419098,-2.90053 4.080002,-4.486007 7.501399,-4.469643 3.660948,0.01751 6.666514,2.302423 7.698605,5.852691 1.892923,6.511426 -4.301586,12.353073 -10.685332,10.076655 z m 68.220744,0.299454 c -2.086451,-0.63467 -4.325331,-2.428067 -5.22544,-4.185703 -2.372496,-4.63276 0.329518,-10.758864 5.219034,-11.832782 5.495552,-1.207026 10.302452,2.446205 10.326722,7.848274 0.005,1.209816 -0.22033,2.585198 -0.55242,3.365435 -1.53777,3.612936 -6.17967,5.896264 -9.767896,4.804776 z m 76.489926,-6.866465 c -0.41031,-0.523192 -0.39864,-0.53486 0.12455,-0.124544 0.54948,0.430932 0.72422,0.701817 0.45273,0.701817 -0.0685,0 -0.32828,-0.259773 -0.57728,-0.577273 z M 48.542961,78.704977 c 0.01583,-0.38428 0.09399,-0.462444 0.199296,-0.199296 0.09529,0.238125 0.08357,0.522638 -0.02604,0.632251 -0.109613,0.109613 -0.187578,-0.08522 -0.173254,-0.432955 z m 86.070059,0.397751 c 0,-0.0685 0.25978,-0.328273 0.57728,-0.577273 0.52319,-0.410316 0.53486,-0.398648 0.12454,0.124544 -0.43093,0.549481 -0.70182,0.724223 -0.70182,0.452729 z m 1.64935,-1.649351 c 0,-0.0685 0.25978,-0.328272 0.57728,-0.577273 0.52319,-0.410316 0.53486,-0.398648 0.12454,0.124544 -0.43093,0.549481 -0.70182,0.724223 -0.70182,0.452729 z m 37.56312,-0.782599 c -0.41031,-0.523192 -0.39865,-0.53486 0.12455,-0.124544 0.54948,0.430932 0.72422,0.701817 0.45273,0.701817 -0.0685,0 -0.32828,-0.259773 -0.57728,-0.577273 z m -19.50273,-6.898337 c 0.22679,-0.09151 0.59789,-0.09151 0.82468,0 0.22678,0.09151 0.0412,0.166382 -0.41234,0.166382 -0.45357,0 -0.63912,-0.07487 -0.41234,-0.166382 z m 1.64935,0 c 0.22679,-0.09151 0.59789,-0.09151 0.82468,0 0.22679,0.09151 0.0412,0.166382 -0.41234,0.166382 -0.45357,0 -0.63912,-0.07487 -0.41234,-0.166382 z"
         id="path7" /><path
         style="fill:#b2b2b2"
         d="m 116.09126,226.99499 c -3.23803,-0.29672 -6.72589,-1.35724 -9.84707,-2.9941 -3.95106,-2.07209 -3.85109,-1.94602 -3.19466,-4.02846 1.40204,-4.44778 5.50535,-8.02594 10.4518,-9.11415 2.01046,-0.44229 8.79605,-0.42802 10.95195,0.023 4.00119,0.83713 7.99845,3.89376 9.64579,7.37597 1.58821,3.35719 1.55849,3.50287 -1.0228,5.01332 -5.2792,3.08915 -10.77247,4.29369 -16.98501,3.72439 z m -0.20089,-22.90992 c -5.61448,-2.4401 -6.93447,-9.53719 -2.56339,-13.78233 3.0628,-2.97455 8.37493,-2.87349 11.46657,0.21815 4.14421,4.1442 2.63634,11.27839 -2.87006,13.57911 -1.44496,0.60375 -4.62772,0.59587 -6.03312,-0.0149 z"
         id="path6" /><path
         style="fill:#ffd90c;fill-opacity:1"
         d="m 57.588347,164.82751 c -3.73291,-0.70538 -7.154643,-2.07317 -10.157364,-4.06028 -1.472056,-0.97416 -1.464557,-1.30409 0.103305,-4.54479 1.824489,-3.77114 5.828202,-6.70238 10.113182,-7.40415 2.581247,-0.42275 7.781773,-0.40113 10.188735,0.0423 4.41393,0.81326 8.235462,3.72248 10.023814,7.63085 1.606367,3.51065 1.65123,3.2871 -0.978528,4.87602 -5.677302,3.43028 -12.743801,4.69757 -19.293144,3.46 z m 3.0537,-22.28036 c -1.364099,-0.33519 -3.404425,-1.53254 -4.278114,-2.51057 -1.094695,-1.22544 -1.975326,-3.76316 -1.975326,-5.69232 0,-7.33149 8.903999,-11.00022 14.096153,-5.80807 3.255087,3.25509 3.267153,8.55339 0.02686,11.79369 -1.882966,1.88296 -5.3056,2.8473 -7.869571,2.21727 z"
         id="path5" /><path
         style="fill:#a2a2a2"
         d="m 115.4187,232.72142 c 0.23813,-0.0953 0.52264,-0.0836 0.63226,0.026 0.10961,0.10961 -0.0852,0.18758 -0.43296,0.17325 -0.38428,-0.0158 -0.46244,-0.094 -0.1993,-0.19929 z m 6.59741,0 c 0.23812,-0.0953 0.52264,-0.0836 0.63225,0.026 0.10961,0.10961 -0.0852,0.18758 -0.43296,0.17325 -0.38428,-0.0158 -0.46244,-0.094 -0.19929,-0.19929 z m -63.994809,-5.6078 c 0.238125,-0.0953 0.522638,-0.0836 0.632252,0.026 0.109613,0.10961 -0.08522,0.18757 -0.432955,0.17325 -0.38428,-0.0158 -0.462445,-0.094 -0.199297,-0.1993 z m 3.298702,0 c 0.238125,-0.0953 0.522638,-0.0836 0.632251,0.026 0.109613,0.10961 -0.08522,0.18757 -0.432955,0.17325 -0.38428,-0.0158 -0.462444,-0.094 -0.199296,-0.1993 z m 7.978734,-3.52777 c 0,-0.0685 0.259772,-0.32828 0.577272,-0.57728 0.523193,-0.41031 0.53486,-0.39864 0.124545,0.12455 -0.430933,0.54948 -0.701817,0.72422 -0.701817,0.45273 z m 73.396103,-0.5352 c 0.32838,-0.36286 0.67128,-0.65974 0.76199,-0.65974 0.0907,0 -0.10374,0.29688 -0.43212,0.65974 -0.32838,0.36286 -0.67128,0.65974 -0.76199,0.65974 -0.0907,0 0.10374,-0.29688 0.43212,-0.65974 z m -83.203462,-1.54808 c 0.320953,-0.0836 0.766278,-0.0781 0.989611,0.0122 0.223332,0.0904 -0.03927,0.15878 -0.583551,0.15206 -0.544286,-0.007 -0.727013,-0.0807 -0.40606,-0.16429 z m -7.979586,-6.8911 c 0.01583,-0.38428 0.09399,-0.46244 0.199296,-0.19929 0.09529,0.23812 0.08357,0.52263 -0.02604,0.63225 -0.109613,0.10961 -0.187578,-0.0852 -0.173254,-0.43296 z m 16.493507,-0.32987 c 0.01583,-0.38428 0.09399,-0.46244 0.199296,-0.19929 0.09529,0.23812 0.08357,0.52263 -0.02604,0.63225 -0.109613,0.10961 -0.187578,-0.0852 -0.173254,-0.43296 z m -16.493507,-2.30909 c 0.01583,-0.38428 0.09399,-0.46244 0.199296,-0.19929 0.09529,0.23812 0.08357,0.52263 -0.02604,0.63225 -0.109613,0.10961 -0.187578,-0.0852 -0.173254,-0.43296 z m 50.609028,-1.45692 c 0.32838,-0.36286 0.67127,-0.65974 0.76199,-0.65974 0.0907,0 -0.10374,0.29688 -0.43212,0.65974 -0.32839,0.36285 -0.67128,0.65974 -0.762,0.65974 -0.0907,0 0.10374,-0.29689 0.43213,-0.65974 z m 33.28554,-0.0825 -0.6284,-0.74221 0.74221,0.6284 c 0.40821,0.34562 0.7422,0.67961 0.7422,0.74221 0,0.26398 -0.26547,0.0691 -0.85601,-0.6284 z m -81.446585,-3.21624 c 0.328382,-0.36285 0.671278,-0.65974 0.761992,-0.65974 0.09072,0 -0.10374,0.29689 -0.432121,0.65974 -0.328382,0.36286 -0.671278,0.65974 -0.761992,0.65974 -0.09071,0 0.10374,-0.29688 0.432121,-0.65974 z m 11.668314,0.0825 c -0.410316,-0.52319 -0.398649,-0.53486 0.124544,-0.12454 0.54948,0.43093 0.724223,0.70181 0.452728,0.70181 -0.0685,0 -0.328272,-0.25977 -0.577272,-0.57727 z m 81.216171,-5.55281 c 0.0158,-0.38428 0.094,-0.46245 0.1993,-0.1993 0.0953,0.23813 0.0836,0.52264 -0.0261,0.63225 -0.10961,0.10962 -0.18757,-0.0852 -0.17325,-0.43295 z m -110.264517,-0.0329 c 0.238125,-0.0953 0.522638,-0.0836 0.632251,0.026 0.109613,0.10961 -0.08522,0.18757 -0.432955,0.17325 -0.38428,-0.0158 -0.462444,-0.094 -0.199296,-0.1993 z m 48.617068,-0.59933 c 0.0067,-0.54429 0.08065,-0.72702 0.164289,-0.40606 0.08364,0.32095 0.07814,0.76627 -0.01222,0.98961 -0.09036,0.22333 -0.158789,-0.0393 -0.152066,-0.58355 z M 90.83014,199.3 c 0,-0.81643 0.06433,-1.15042 0.142956,-0.74221 0.07863,0.40822 0.07863,1.0762 0,1.48442 -0.07863,0.40821 -0.142956,0.0742 -0.142956,-0.74221 z m 14.12061,-0.52229 c 0.0158,-0.38428 0.094,-0.46245 0.1993,-0.1993 0.0953,0.23812 0.0836,0.52264 -0.026,0.63225 -0.10962,0.10961 -0.18758,-0.0852 -0.17326,-0.43295 z m 27.70909,0 c 0.0158,-0.38428 0.094,-0.46245 0.1993,-0.1993 0.0953,0.23812 0.0836,0.52264 -0.026,0.63225 -0.10961,0.10961 -0.18758,-0.0852 -0.17326,-0.43295 z m -47.463029,-1.62187 c 0.0067,-0.54428 0.08065,-0.72701 0.164289,-0.40605 0.08364,0.32095 0.07814,0.76627 -0.01222,0.98961 -0.09036,0.22333 -0.158789,-0.0393 -0.152066,-0.58356 z m 61.673489,-0.4948 c 0,-0.45357 0.0749,-0.63912 0.16638,-0.41234 0.0915,0.22679 0.0915,0.59789 0,0.82468 -0.0915,0.22678 -0.16638,0.0412 -0.16638,-0.41234 z m 5.6078,-0.65974 c 0,-0.45357 0.0749,-0.63912 0.16638,-0.41234 0.0915,0.22679 0.0915,0.59789 0,0.82468 -0.0915,0.22678 -0.16638,0.0412 -0.16638,-0.41234 z m -119.197059,0.10453 c 0.238125,-0.0953 0.522638,-0.0836 0.632251,0.026 0.109614,0.10962 -0.08522,0.18758 -0.432954,0.17326 -0.38428,-0.0158 -0.462445,-0.094 -0.199297,-0.1993 z m 6.659254,-1.87843 c 0,-0.0685 0.259772,-0.32827 0.577272,-0.57727 0.523193,-0.41031 0.53486,-0.39865 0.124545,0.12455 -0.430933,0.54948 -0.701817,0.72422 -0.701817,0.45272 z m 65.010455,-0.39775 c 0.0158,-0.38428 0.094,-0.46244 0.1993,-0.19929 0.0953,0.23812 0.0836,0.52264 -0.026,0.63225 -0.10962,0.10961 -0.18758,-0.0852 -0.17326,-0.43296 z m -78.838959,-5.27792 c 0.01583,-0.38428 0.09399,-0.46244 0.199297,-0.19929 0.09529,0.23812 0.08357,0.52263 -0.02604,0.63225 -0.109613,0.10961 -0.187578,-0.0852 -0.173255,-0.43296 z m 0,-1.31948 c 0.01583,-0.38428 0.09399,-0.46244 0.199297,-0.19929 0.09529,0.23812 0.08357,0.52263 -0.02604,0.63225 -0.109613,0.10961 -0.187578,-0.0852 -0.173255,-0.43296 z m 14.116297,-5.3329 c -0.410316,-0.52319 -0.398648,-0.53486 0.124544,-0.12454 0.3175,0.249 0.577273,0.50877 0.577273,0.57727 0,0.27149 -0.270884,0.0967 -0.701817,-0.45273 z m 77.829582,0.35193 c 0.23812,-0.0953 0.52263,-0.0836 0.63225,0.026 0.10961,0.10961 -0.0852,0.18757 -0.43296,0.17325 -0.38428,-0.0158 -0.46244,-0.094 -0.19929,-0.1993 z m 1.31948,0 c 0.23812,-0.0953 0.52263,-0.0836 0.63225,0.026 0.10961,0.10961 -0.0852,0.18757 -0.43296,0.17325 -0.38428,-0.0158 -0.46244,-0.094 -0.19929,-0.1993 z m -21.709582,-1.54855 c 0,-0.0685 0.259773,-0.32827 0.577273,-0.57727 0.523192,-0.41032 0.53486,-0.39865 0.124544,0.12454 -0.430932,0.54948 -0.701817,0.72422 -0.701817,0.45273 z m -64.716397,-1.09041 c 0.238125,-0.0953 0.522638,-0.0836 0.632251,0.026 0.109613,0.10961 -0.08522,0.18757 -0.432954,0.17325 -0.38428,-0.0158 -0.462445,-0.094 -0.199297,-0.1993 z m 2.638961,0 c 0.238125,-0.0953 0.522638,-0.0836 0.632251,0.026 0.109614,0.10961 -0.08522,0.18757 -0.432954,0.17325 -0.38428,-0.0158 -0.462445,-0.094 -0.199297,-0.1993 z m 8.943378,-1.34154 -0.799709,-0.90714 0.907143,0.79971 c 0.847862,0.74744 1.058418,1.01457 0.799709,1.01457 -0.05909,0 -0.467303,-0.40821 -0.907143,-0.90714 z m 55.113279,0.45273 c 0,-0.0685 0.259773,-0.32827 0.577271,-0.57727 0.52319,-0.41032 0.53486,-0.39865 0.12455,0.12454 -0.430936,0.54948 -0.701821,0.72422 -0.701821,0.45273 z m -6.309609,-3.42156 c -0.410316,-0.52319 -0.398648,-0.53486 0.124544,-0.12455 0.3175,0.249 0.577273,0.50878 0.577273,0.57728 0,0.27149 -0.270885,0.0967 -0.701817,-0.45273 z m -3.298702,-3.62857 c -0.410315,-0.5232 -0.398648,-0.53486 0.124545,-0.12455 0.3175,0.249 0.577272,0.50878 0.577272,0.57728 0,0.27149 -0.270884,0.0967 -0.701817,-0.45273 z m 28.004482,-0.65141 c 0.59289,-0.0734 1.48354,-0.0719 1.97922,0.003 0.49568,0.0753 0.0106,0.13533 -1.07799,0.13348 -1.08857,-0.002 -1.49413,-0.0634 -0.90123,-0.13685 z m -23.056429,-2.31742 c -0.410316,-0.5232 -0.398649,-0.53486 0.124544,-0.12455 0.3175,0.249 0.577272,0.50877 0.577272,0.57727 0,0.2715 -0.270884,0.0968 -0.701816,-0.45272 z m 74.237889,-0.32987 -0.79971,-0.90715 0.90715,0.79971 c 0.84786,0.74745 1.05841,1.01458 0.7997,1.01458 -0.0591,0 -0.4673,-0.40822 -0.90714,-0.90714 z m -82.484643,-0.32987 c -0.410316,-0.5232 -0.398648,-0.53486 0.124544,-0.12455 0.549481,0.43093 0.724223,0.70182 0.452729,0.70182 -0.0685,0 -0.328272,-0.25977 -0.577273,-0.57727 z m 4.948052,-2.96884 c -0.410316,-0.52319 -0.398648,-0.53486 0.124544,-0.12454 0.3175,0.249 0.577273,0.50877 0.577273,0.57727 0,0.2715 -0.270884,0.0968 -0.701817,-0.45273 z m 24.370001,0.35881 c 0.22678,-0.0915 0.59789,-0.0915 0.82467,0 0.22679,0.0915 0.0412,0.16638 -0.41233,0.16638 -0.45358,0 -0.63913,-0.0749 -0.41234,-0.16638 z m 4.28831,0 c 0.22679,-0.0915 0.59789,-0.0915 0.82468,0 0.22678,0.0915 0.0412,0.16638 -0.41234,0.16638 -0.45357,0 -0.63913,-0.0749 -0.41234,-0.16638 z m -37.008503,-0.94657 c -0.352176,-0.26637 -0.481683,-0.48431 -0.287793,-0.48431 0.19389,0 0.53732,0.22266 0.763179,0.4948 0.513675,0.61894 0.352082,0.61538 -0.475386,-0.0105 z m 100.122213,-1.33648 c 0.0158,-0.38428 0.094,-0.46244 0.19929,-0.19929 0.0953,0.23812 0.0836,0.52263 -0.026,0.63225 -0.10961,0.10961 -0.18758,-0.0852 -0.17325,-0.43296 z m 0,-1.31948 c 0.0158,-0.38428 0.094,-0.46244 0.19929,-0.1993 0.0953,0.23813 0.0836,0.52264 -0.026,0.63226 -0.10961,0.10961 -0.18758,-0.0852 -0.17325,-0.43296 z M 88.389128,161.4474 c -0.410316,-0.52319 -0.398648,-0.53486 0.124544,-0.12454 0.3175,0.249 0.577273,0.50877 0.577273,0.57727 0,0.2715 -0.270885,0.0968 -0.701817,-0.45273 z m 86.076332,-7.23508 c 0.23812,-0.0953 0.52264,-0.0836 0.63225,0.026 0.10961,0.10961 -0.0852,0.18757 -0.43295,0.17325 -0.38428,-0.0158 -0.46245,-0.094 -0.1993,-0.1993 z m 1.31948,0 c 0.23812,-0.0953 0.52264,-0.0836 0.63225,0.026 0.10961,0.10961 -0.0852,0.18757 -0.43295,0.17325 -0.38428,-0.0158 -0.46245,-0.094 -0.1993,-0.1993 z m 9.25614,-1.67141 c -0.41032,-0.52319 -0.39865,-0.53486 0.12454,-0.12455 0.3175,0.24901 0.57727,0.50878 0.57727,0.57728 0,0.27149 -0.27088,0.0968 -0.70181,-0.45273 z m -105.871206,-3.95844 -0.799709,-0.90715 0.907143,0.79971 c 0.847862,0.74745 1.058418,1.01458 0.799709,1.01458 -0.05909,0 -0.467303,-0.40821 -0.907143,-0.90714 z m 17.230298,-11.29805 c 0,-0.45358 0.07487,-0.63913 0.166382,-0.41234 0.09151,0.22678 0.09151,0.59789 0,0.82467 -0.09151,0.22679 -0.166382,0.0412 -0.166382,-0.41233 z m -47.857211,-1.51191 c 0.01583,-0.38428 0.09399,-0.46244 0.199296,-0.1993 0.09529,0.23813 0.08357,0.52264 -0.02604,0.63226 -0.109613,0.10961 -0.187578,-0.0852 -0.173254,-0.43296 z m 28.077226,-1.29199 c 0.0067,-0.54429 0.08065,-0.72701 0.16429,-0.40606 0.08364,0.32095 0.07814,0.76628 -0.01222,0.98961 -0.09036,0.22333 -0.158789,-0.0393 -0.152067,-0.58355 z m 77.063453,-3.02924 c 0.23813,-0.0953 0.52264,-0.0836 0.63225,0.026 0.10961,0.10961 -0.0852,0.18757 -0.43295,0.17325 -0.38428,-0.0158 -0.46245,-0.094 -0.1993,-0.1993 z m 3.77917,-0.003 c 0.32095,-0.0836 0.76628,-0.0781 0.98961,0.0122 0.22333,0.0904 -0.0393,0.15879 -0.58355,0.15207 -0.54429,-0.007 -0.72701,-0.0807 -0.40606,-0.16429 z m 15.70294,-21.1305 c -0.41031,-0.52319 -0.39865,-0.53486 0.12455,-0.12454 0.3175,0.249 0.57727,0.50877 0.57727,0.57727 0,0.27149 -0.27089,0.0968 -0.70182,-0.45273 z m -35.25403,-0.18568 c 0,-0.0568 0.48244,-0.53921 1.07208,-1.07208 l 1.07208,-0.96886 -0.96886,1.07208 c -0.90311,0.99932 -1.1753,1.2237 -1.1753,0.96886 z m 33.27481,-1.79354 c -0.41031,-0.52319 -0.39865,-0.53486 0.12455,-0.12454 0.3175,0.249 0.57727,0.50877 0.57727,0.57727 0,0.27149 -0.27089,0.0968 -0.70182,-0.45273 z M 61.965034,103.39859 c 0.592892,-0.0734 1.483541,-0.0719 1.979221,0.003 0.495679,0.0753 0.01059,0.13534 -1.077986,0.13349 -1.088571,-0.002 -1.494127,-0.0634 -0.901235,-0.13686 z m 127.102606,-2.26244 c 0.0158,-0.38428 0.094,-0.46245 0.19929,-0.1993 0.0953,0.23812 0.0836,0.52264 -0.026,0.63225 -0.10961,0.10961 -0.18758,-0.0852 -0.17325,-0.43295 z m -67.26747,-0.79719 c 0,-0.453571 0.0749,-0.639123 0.16638,-0.412337 0.0915,0.226787 0.0915,0.597887 0,0.824677 -0.0915,0.22678 -0.16638,0.0412 -0.16638,-0.41234 z m 61.68572,-0.32987 c 0,-0.453571 0.0749,-0.639123 0.16638,-0.412337 0.0915,0.226785 0.0915,0.597887 0,0.824677 -0.0915,0.22678 -0.16638,0.0412 -0.16638,-0.41234 z m -56.02443,-1.979221 c 0,-1.179285 0.0599,-1.66172 0.13305,-1.072078 0.0732,0.589643 0.0732,1.554513 0,2.144156 -0.0732,0.589643 -0.13305,0.107208 -0.13305,-1.072078 z m 14.10488,-0.852164 c 0.0158,-0.38428 0.094,-0.462445 0.1993,-0.199297 0.0953,0.238125 0.0836,0.522638 -0.026,0.632251 -0.10961,0.109614 -0.18757,-0.08522 -0.17325,-0.432954 z m 41.93177,-1.621862 c 0.007,-0.544285 0.0806,-0.727012 0.16429,-0.406059 0.0836,0.320953 0.0781,0.766277 -0.0122,0.98961 -0.0904,0.223333 -0.15879,-0.03927 -0.15207,-0.583551 z m -61.72398,-0.357359 c 0.0158,-0.38428 0.094,-0.462445 0.1993,-0.199296 0.0953,0.238125 0.0836,0.522638 -0.026,0.632251 -0.10961,0.109613 -0.18757,-0.08522 -0.17325,-0.432955 z m 67.29351,-0.65974 c 0.0158,-0.38428 0.094,-0.462445 0.19929,-0.199297 0.0953,0.238125 0.0836,0.522638 -0.026,0.632251 -0.10961,0.109613 -0.18758,-0.08522 -0.17325,-0.432954 z m -47.5013,-1.649351 c 0.0158,-0.38428 0.094,-0.462445 0.1993,-0.199296 0.0953,0.238125 0.0836,0.522638 -0.026,0.632251 -0.10961,0.109613 -0.18757,-0.08522 -0.17325,-0.432955 z m 23.68253,-7.971861 c -0.41032,-0.523193 -0.39865,-0.53486 0.12454,-0.124545 0.3175,0.249001 0.57728,0.508774 0.57728,0.577273 0,0.271494 -0.27089,0.09675 -0.70182,-0.452728 z M 40.270165,84.010389 c 0.426108,-0.453572 0.848963,-0.824676 0.939677,-0.824676 0.09071,0 -0.183699,0.371104 -0.609807,0.824676 -0.426108,0.453571 -0.848963,0.824675 -0.939677,0.824675 -0.09072,0 0.183699,-0.371104 0.609807,-0.824675 z m 55.705976,-0.08247 c -0.410316,-0.523192 -0.398648,-0.53486 0.124544,-0.124544 0.549481,0.430932 0.724223,0.701817 0.452729,0.701817 -0.0685,0 -0.328272,-0.259773 -0.577273,-0.577273 z m 11.587529,0.452729 c 0,-0.0685 0.25978,-0.328272 0.57728,-0.577273 0.52319,-0.410316 0.53486,-0.398648 0.12454,0.124544 -0.43093,0.549481 -0.70182,0.724223 -0.70182,0.452729 z m 46.44984,-3.399496 c 0.23813,-0.09529 0.52264,-0.08357 0.63225,0.02604 0.10961,0.109613 -0.0852,0.187577 -0.43295,0.173254 -0.38428,-0.01583 -0.46245,-0.09399 -0.1993,-0.199296 z m 2.63896,0 c 0.23813,-0.09529 0.52264,-0.08357 0.63225,0.02604 0.10962,0.109613 -0.0852,0.187577 -0.43295,0.173254 -0.38428,-0.01583 -0.46245,-0.09399 -0.1993,-0.199296 z m -23.02906,-0.888816 c 0,-0.0685 0.25978,-0.328272 0.57728,-0.577273 0.52319,-0.410316 0.53486,-0.398648 0.12454,0.124544 -0.43093,0.549481 -0.70182,0.724223 -0.70182,0.452729 z m -39.888241,-0.72762 c 0.01583,-0.38428 0.09399,-0.462445 0.199297,-0.199297 0.09529,0.238125 0.08357,0.522638 -0.02604,0.632251 -0.109613,0.109613 -0.187577,-0.08522 -0.173254,-0.432954 z M 26.111791,78.704977 c 0.01583,-0.38428 0.09399,-0.462444 0.199297,-0.199296 0.09529,0.238125 0.08357,0.522638 -0.02604,0.632251 -0.109613,0.109613 -0.187578,-0.08522 -0.173255,-0.432955 z m 0,-1.31948 c 0.01583,-0.38428 0.09399,-0.462445 0.199297,-0.199297 0.09529,0.238125 0.08357,0.522638 -0.02604,0.632251 -0.109613,0.109613 -0.187578,-0.08522 -0.173255,-0.432954 z m 84.116889,-0.32987 c 0.0158,-0.38428 0.094,-0.462445 0.19929,-0.199297 0.0953,0.238125 0.0836,0.522638 -0.026,0.632251 -0.10961,0.109613 -0.18758,-0.08522 -0.17325,-0.432954 z m -16.493511,-0.32987 c 0.01583,-0.38428 0.09399,-0.462445 0.199297,-0.199297 0.09529,0.238125 0.08357,0.522638 -0.02604,0.632251 -0.109613,0.109613 -0.187577,-0.08522 -0.173254,-0.432954 z m 85.543911,-2.858875 -0.62839,-0.742208 0.7422,0.628399 c 0.40822,0.345619 0.74221,0.679612 0.74221,0.742208 0,0.263979 -0.26548,0.06909 -0.85602,-0.628399 z M 33.610912,69.765569 c 0.238125,-0.09529 0.522637,-0.08357 0.632251,0.02604 0.109613,0.109614 -0.08522,0.187578 -0.432955,0.173255 -0.38428,-0.01583 -0.462445,-0.09399 -0.199296,-0.199297 z m 1.31948,0 c 0.238125,-0.09529 0.522638,-0.08357 0.632251,0.02604 0.109613,0.109614 -0.08522,0.187578 -0.432954,0.173255 -0.38428,-0.01583 -0.462445,-0.09399 -0.199297,-0.199297 z m 66.303898,0 c 0.23812,-0.09529 0.52264,-0.08357 0.63225,0.02604 0.10961,0.109614 -0.0852,0.187578 -0.43295,0.173255 -0.38428,-0.01583 -0.46245,-0.09399 -0.1993,-0.199297 z m 1.31948,0 c 0.23812,-0.09529 0.52264,-0.08357 0.63225,0.02604 0.10961,0.109614 -0.0852,0.187578 -0.43295,0.173255 -0.38428,-0.01583 -0.46245,-0.09399 -0.1993,-0.199297 z m 50.44951,0.0069 c 0.22679,-0.09151 0.59789,-0.09151 0.82468,0 0.22678,0.09151 0.0412,0.166382 -0.41234,0.166382 -0.45357,0 -0.63912,-0.07487 -0.41234,-0.166382 z m 4.45953,-0.01013 c 0.32095,-0.08364 0.76628,-0.07814 0.98961,0.01222 0.22333,0.09036 -0.0393,0.158789 -0.58355,0.152066 -0.54429,-0.0067 -0.72701,-0.08065 -0.40606,-0.164289 z M 24.106528,68.546883 c 0,-0.0685 0.259773,-0.328272 0.577273,-0.577273 0.523192,-0.410315 0.53486,-0.398648 0.124544,0.124545 -0.430932,0.54948 -0.701817,0.724223 -0.701817,0.452728 z M 152.03429,64.157777 c 0.23812,-0.09529 0.52264,-0.08357 0.63225,0.02604 0.10961,0.109613 -0.0852,0.187578 -0.43295,0.173254 -0.38428,-0.01583 -0.46245,-0.09399 -0.1993,-0.199296 z m 6.5974,0 c 0.23813,-0.09529 0.52264,-0.08357 0.63225,0.02604 0.10962,0.109613 -0.0852,0.187578 -0.43295,0.173254 -0.38428,-0.01583 -0.46245,-0.09399 -0.1993,-0.199296 z"
         id="path4" /><path
         style="fill:#ffffff"
         d="m 116.8825,227.11157 c 0.3175,-0.083 0.83705,-0.083 1.15455,0 0.3175,0.083 0.0577,0.15086 -0.57727,0.15086 -0.635,0 -0.89478,-0.0679 -0.57728,-0.15086 z m 3.30498,-0.001 c 0.32096,-0.0836 0.76628,-0.0781 0.98961,0.0122 0.22334,0.0904 -0.0393,0.15879 -0.58355,0.15206 -0.54428,-0.007 -0.72701,-0.0807 -0.40606,-0.16428 z m -6.41813,-16.49025 c 0.23813,-0.0953 0.52264,-0.0836 0.63226,0.026 0.10961,0.10961 -0.0852,0.18758 -0.43296,0.17325 -0.38428,-0.0158 -0.46244,-0.094 -0.1993,-0.19929 z m 9.89611,0 c 0.23812,-0.0953 0.52264,-0.0836 0.63225,0.026 0.10961,0.10961 -0.0852,0.18758 -0.43296,0.17325 -0.38428,-0.0158 -0.46244,-0.094 -0.19929,-0.19929 z m 3.38659,-13.16189 c 0.0158,-0.38428 0.094,-0.46245 0.1993,-0.1993 0.0953,0.23812 0.0836,0.52264 -0.026,0.63225 -0.10962,0.10961 -0.18758,-0.0852 -0.17326,-0.43295 z m -16.4935,-2.3091 c 0.0158,-0.38428 0.094,-0.46244 0.19929,-0.19929 0.0953,0.23812 0.0836,0.52264 -0.026,0.63225 -0.10961,0.10961 -0.18758,-0.0852 -0.17325,-0.43296 z m 16.4935,0 c 0.0158,-0.38428 0.094,-0.46244 0.1993,-0.19929 0.0953,0.23812 0.0836,0.52264 -0.026,0.63225 -0.10962,0.10961 -0.18758,-0.0852 -0.17326,-0.43296 z m 25.5389,-69.43559 c -3.33896,-0.3227 -7.17501,-1.55235 -10.55585,-3.38367 -2.59492,-1.4056 -2.63777,-1.44946 -2.56763,-2.62774 0.18366,-3.08554 3.73707,-7.40813 7.59029,-9.23332 l 2.23448,-1.05842 h 6.26754 6.26753 l 2.21783,1.05063 c 2.99432,1.41847 5.26132,3.60828 6.68822,6.46049 1.64944,3.29703 1.59012,3.5825 -1.07163,5.15729 -1.22465,0.72455 -3.57031,1.76552 -5.2126,2.31326 -2.66862,0.89007 -3.83253,1.10294 -8.06468,1.47503 -0.635,0.0558 -2.34208,-0.0133 -3.7935,-0.15355 z m 0.13517,-22.85804 c -4.02525,-1.43884 -6.33407,-6.014542 -5.12809,-10.162999 1.04625,-3.598964 4.26326,-5.940572 8.13598,-5.922049 8.68356,0.04153 11.34878,11.799106 3.55502,15.682898 -1.93329,0.9634 -4.54505,1.12344 -6.56291,0.40215 z"
         id="path3" /><path
         style="fill:#626262"
         d="m 116.55891,232.71816 c 0.32095,-0.0836 0.76628,-0.0781 0.98961,0.0122 0.22333,0.0904 -0.0393,0.15879 -0.58355,0.15207 -0.54428,-0.007 -0.72701,-0.0807 -0.40606,-0.16429 z m 3.95844,0 c 0.32096,-0.0836 0.76628,-0.0781 0.98961,0.0122 0.22334,0.0904 -0.0393,0.15879 -0.58355,0.15207 -0.54428,-0.007 -0.72701,-0.0807 -0.40606,-0.16429 z m -61.506438,-5.60454 c 0.238125,-0.0953 0.522638,-0.0836 0.632251,0.026 0.109613,0.10961 -0.08522,0.18757 -0.432955,0.17325 -0.384279,-0.0158 -0.462444,-0.094 -0.199296,-0.1993 z m 1.31948,0 c 0.238125,-0.0953 0.522638,-0.0836 0.632251,0.026 0.109614,0.10961 -0.08522,0.18757 -0.432954,0.17325 -0.38428,-0.0158 -0.462445,-0.094 -0.199297,-0.1993 z m 55.418188,0 c 0.23812,-0.0953 0.52263,-0.0836 0.63225,0.026 0.10961,0.10961 -0.0852,0.18757 -0.43296,0.17325 -0.38428,-0.0158 -0.46244,-0.094 -0.19929,-0.1993 z m 5.93766,0 c 0.23812,-0.0953 0.52264,-0.0836 0.63225,0.026 0.10961,0.10961 -0.0852,0.18757 -0.43296,0.17325 -0.38428,-0.0158 -0.46244,-0.094 -0.19929,-0.1993 z m -25.204559,-2.82596 -0.628398,-0.7422 0.742207,0.62839 c 0.697493,0.59054 0.892378,0.85602 0.628399,0.85602 -0.0626,0 -0.396589,-0.33399 -0.742208,-0.74221 z m -2.638961,-2.63896 -0.628399,-0.74221 0.742208,0.6284 c 0.697492,0.59054 0.892378,0.85602 0.628399,0.85602 -0.0626,0 -0.396589,-0.33399 -0.742208,-0.74221 z m 41.28632,0.31565 c 0.12387,-0.32533 0.30832,-0.50841 0.40989,-0.40684 0.10156,0.10156 2.1e-4,0.36773 -0.22523,0.5915 -0.32579,0.32336 -0.36368,0.28547 -0.18466,-0.18466 z m -76.777868,-0.45852 c 0.238125,-0.0953 0.522638,-0.0836 0.632251,0.026 0.109613,0.10962 -0.08522,0.18758 -0.432955,0.17326 -0.38428,-0.0158 -0.462445,-0.094 -0.199296,-0.1993 z m 2.638961,0 c 0.238125,-0.0953 0.522638,-0.0836 0.632251,0.026 0.109613,0.10962 -0.08522,0.18758 -0.432955,0.17326 -0.38428,-0.0158 -0.462445,-0.094 -0.199296,-0.1993 z m -7.237369,-2.33115 c -0.410316,-0.5232 -0.398648,-0.53486 0.124544,-0.12455 0.3175,0.249 0.577273,0.50878 0.577273,0.57727 0,0.2715 -0.270885,0.0968 -0.701817,-0.45272 z m 11.587531,0.45272 c 0,-0.0685 0.259773,-0.32827 0.577273,-0.57727 0.523192,-0.41031 0.53486,-0.39865 0.124544,0.12455 -0.430932,0.54948 -0.701817,0.72422 -0.701817,0.45272 z M 45.904,214.94134 c 0.01583,-0.38428 0.09399,-0.46244 0.199296,-0.19929 0.09529,0.23812 0.08357,0.52263 -0.02604,0.63225 -0.109613,0.10961 -0.187578,-0.0852 -0.173254,-0.43296 z m 27.709091,-0.32987 c 0.01583,-0.38428 0.09399,-0.46244 0.199296,-0.19929 0.09529,0.23812 0.08357,0.52263 -0.02604,0.63225 -0.109613,0.10961 -0.187577,-0.0852 -0.173254,-0.43296 z M 45.904,211.64264 c 0.01583,-0.38428 0.09399,-0.46244 0.199296,-0.19929 0.09529,0.23812 0.08357,0.52263 -0.02604,0.63225 -0.109613,0.10961 -0.187578,-0.0852 -0.173254,-0.43296 z m 71.48437,-1.37063 c 0.95858,-0.0668 2.44299,-0.0661 3.2987,0.002 0.8557,0.0677 0.0714,0.1224 -1.74288,0.12154 -1.81428,-8.6e-4 -2.51441,-0.0563 -1.55582,-0.1231 z m -57.717718,-5.58956 c 0.238125,-0.0953 0.522638,-0.0836 0.632251,0.026 0.109613,0.10961 -0.08522,0.18757 -0.432954,0.17325 -0.38428,-0.0158 -0.462445,-0.094 -0.199297,-0.1993 z m 58.036528,0.007 c 0.22678,-0.0915 0.59789,-0.0915 0.82467,0 0.22679,0.0915 0.0412,0.16638 -0.41233,0.16638 -0.45357,0 -0.63913,-0.0749 -0.41234,-0.16638 z m 1.64935,0 c 0.22679,-0.0915 0.59789,-0.0915 0.82467,0 0.22679,0.0915 0.0412,0.16638 -0.41233,0.16638 -0.45357,0 -0.63913,-0.0749 -0.41234,-0.16638 z m -49.75289,-1.34842 -0.799709,-0.90714 0.907143,0.79971 c 0.847862,0.74744 1.058418,1.01457 0.799709,1.01457 -0.05909,0 -0.467303,-0.40821 -0.907143,-0.90714 z m 21.200963,-1.89675 c 0.0067,-0.54429 0.08065,-0.72702 0.164289,-0.40606 0.08364,0.32095 0.07814,0.76627 -0.01222,0.98961 -0.09036,0.22333 -0.158788,-0.0393 -0.152066,-0.58355 z m 61.685717,0 c 0.007,-0.54429 0.0806,-0.72702 0.16429,-0.40606 0.0836,0.32095 0.0781,0.76627 -0.0122,0.98961 -0.0904,0.22333 -0.15878,-0.0393 -0.15206,-0.58355 z m -119.539149,0.26946 c 0.238125,-0.0953 0.522638,-0.0836 0.632251,0.026 0.109613,0.10961 -0.08522,0.18757 -0.432954,0.17325 -0.38428,-0.0158 -0.462445,-0.094 -0.199297,-0.1993 z m 2.638961,0 c 0.238125,-0.0953 0.522638,-0.0836 0.632251,0.026 0.109614,0.10961 -0.08522,0.18757 -0.432954,0.17325 -0.38428,-0.0158 -0.462445,-0.094 -0.199297,-0.1993 z m 49.625559,-2.57855 c 0.0037,-0.72572 0.07121,-0.98376 0.150116,-0.57343 0.0789,0.41033 0.07591,1.00409 -0.0067,1.31948 -0.08256,0.31538 -0.14712,-0.0203 -0.143459,-0.74605 z m -27.85413,0.26946 c 0.238125,-0.0953 0.522638,-0.0836 0.632251,0.026 0.109613,0.10962 -0.08522,0.18758 -0.432954,0.17326 -0.38428,-0.0158 -0.462445,-0.094 -0.199297,-0.1993 z m -12.968019,-1.75388 c 0.328381,-0.36286 0.671277,-0.65974 0.761991,-0.65974 0.09072,0 -0.10374,0.29688 -0.432121,0.65974 -0.328382,0.36286 -0.671278,0.65974 -0.761992,0.65974 -0.09071,0 0.10374,-0.29688 0.432122,-0.65974 z m 60.557208,0.13745 c 0.0158,-0.38428 0.094,-0.46245 0.1993,-0.1993 0.0953,0.23812 0.0836,0.52264 -0.026,0.63225 -0.10962,0.10961 -0.18758,-0.0852 -0.17326,-0.43295 z m 27.70909,0 c 0.0158,-0.38428 0.094,-0.46245 0.1993,-0.1993 0.0953,0.23812 0.0836,0.52264 -0.026,0.63225 -0.10961,0.10961 -0.18758,-0.0852 -0.17326,-0.43295 z m -41.843014,-0.79719 c 0,-0.635 0.06789,-0.89477 0.150857,-0.57727 0.08297,0.3175 0.08297,0.83704 0,1.15454 -0.08297,0.3175 -0.150857,0.0577 -0.150857,-0.57727 z m 61.661274,0.32987 c 0,-0.45357 0.0749,-0.63912 0.16638,-0.41234 0.0915,0.22679 0.0915,0.59789 0,0.82468 -0.0915,0.22678 -0.16638,0.0412 -0.16638,-0.41234 z m -47.52735,-2.50152 c 0.0158,-0.38428 0.094,-0.46244 0.1993,-0.19929 0.0953,0.23812 0.0836,0.52264 -0.026,0.63225 -0.10962,0.10961 -0.18758,-0.0852 -0.17326,-0.43296 z m 27.70909,0 c 0.0158,-0.38428 0.094,-0.46244 0.1993,-0.19929 0.0953,0.23812 0.0836,0.52264 -0.026,0.63225 -0.10961,0.10961 -0.18758,-0.0852 -0.17326,-0.43296 z m -104.131407,-0.87965 -0.628398,-0.74221 0.742208,0.6284 c 0.697492,0.59054 0.892378,0.85602 0.628398,0.85602 -0.0626,0 -0.396589,-0.33399 -0.742208,-0.74221 z m 19.684657,-4.0684 c 0.01583,-0.38428 0.09399,-0.46244 0.199297,-0.19929 0.09529,0.23812 0.08357,0.52263 -0.02604,0.63225 -0.109613,0.10961 -0.187578,-0.0852 -0.173255,-0.43296 z M 20.503999,188.8816 c 0.01583,-0.38428 0.09399,-0.46244 0.199297,-0.19929 0.09529,0.23812 0.08357,0.52263 -0.02604,0.63225 -0.109613,0.10961 -0.187577,-0.0852 -0.173254,-0.43296 z m 97.866771,-1.03049 c 0.41032,-0.0789 1.00409,-0.0759 1.31948,0.007 0.31538,0.0826 -0.0203,0.14712 -0.74606,0.14346 -0.72571,-0.004 -0.98375,-0.0712 -0.57342,-0.15012 z m -97.866771,-0.94873 c 0.01583,-0.38428 0.09399,-0.46244 0.199297,-0.1993 0.09529,0.23813 0.08357,0.52264 -0.02604,0.63226 -0.109613,0.10961 -0.187577,-0.0852 -0.173254,-0.43296 z m 7.890841,-4.92056 c 0.426108,-0.45357 0.848963,-0.82468 0.939677,-0.82468 0.09071,0 -0.183699,0.37111 -0.609807,0.82468 -0.426108,0.45357 -0.848963,0.82467 -0.939677,0.82467 -0.09071,0 0.183699,-0.3711 0.609807,-0.82467 z m 110.46442,-2.72143 c -0.41032,-0.52319 -0.39865,-0.53486 0.12454,-0.12454 0.54948,0.43093 0.72423,0.70181 0.45273,0.70181 -0.0685,0 -0.32827,-0.25977 -0.57727,-0.57727 z m 4.94805,-2.63896 c -0.41032,-0.52319 -0.39865,-0.53486 0.12454,-0.12455 0.54949,0.43094 0.72423,0.70182 0.45273,0.70182 -0.0685,0 -0.32827,-0.25977 -0.57727,-0.57727 z m 29.33867,-0.30781 c 0.23812,-0.0953 0.52264,-0.0836 0.63225,0.026 0.10961,0.10962 -0.0852,0.18758 -0.43296,0.17326 -0.38427,-0.0158 -0.46244,-0.094 -0.19929,-0.1993 z m 3.95844,0 c 0.23813,-0.0953 0.52264,-0.0836 0.63225,0.026 0.10961,0.10962 -0.0852,0.18758 -0.43295,0.17326 -0.38428,-0.0158 -0.46245,-0.094 -0.1993,-0.1993 z m -35.7604,-2.16622 -0.6284,-0.7422 0.74221,0.62839 c 0.69749,0.59054 0.89238,0.85602 0.6284,0.85602 -0.0626,0 -0.39659,-0.33399 -0.74221,-0.74221 z M 32.621301,174.00453 c 0.238125,-0.0953 0.522638,-0.0836 0.632251,0.026 0.109613,0.10962 -0.08522,0.18758 -0.432954,0.17326 -0.38428,-0.0158 -0.462445,-0.094 -0.199297,-0.1993 z m 3.298701,0 c 0.238125,-0.0953 0.522638,-0.0836 0.632252,0.026 0.109613,0.10962 -0.08522,0.18758 -0.432955,0.17326 -0.38428,-0.0158 -0.462445,-0.094 -0.199297,-0.1993 z m 55.283757,-1.17661 -0.628399,-0.74221 0.742208,0.6284 c 0.697492,0.59054 0.892378,0.85602 0.628399,0.85602 -0.0626,0 -0.396589,-0.33399 -0.742208,-0.74221 z m 93.549521,-0.0421 c 0,-0.0685 0.25978,-0.32828 0.57728,-0.57728 0.52319,-0.41031 0.53486,-0.39865 0.12454,0.12455 -0.43093,0.54948 -0.70182,0.72422 -0.70182,0.45273 z m -87.611859,-1.60728 -0.628398,-0.74221 0.742208,0.6284 c 0.697492,0.59054 0.892378,0.85602 0.628398,0.85602 -0.0626,0 -0.396589,-0.33399 -0.742208,-0.74221 z m 18.916409,-0.136 c 0.22678,-0.0915 0.59789,-0.0915 0.82467,0 0.22679,0.0915 0.0412,0.16638 -0.41233,0.16638 -0.45358,0 -0.63913,-0.0749 -0.41234,-0.16638 z m 4.94805,0 c 0.22679,-0.0915 0.59789,-0.0915 0.82468,0 0.22678,0.0915 0.0412,0.16638 -0.41234,0.16638 -0.45357,0 -0.63913,-0.0749 -0.41234,-0.16638 z M 58.990295,170.7127 c 0.226786,-0.0915 0.59789,-0.0915 0.824675,0 0.226786,0.0915 0.04123,0.16638 -0.412337,0.16638 -0.453572,0 -0.639124,-0.0749 -0.412338,-0.16638 z m 28.914763,-1.51335 -0.628399,-0.74221 0.742208,0.6284 c 0.697492,0.59054 0.892378,0.85602 0.628398,0.85602 -0.0626,0 -0.396588,-0.33399 -0.742207,-0.74221 z m 92.230042,0.28779 c 0,-0.0685 0.25977,-0.32827 0.57727,-0.57727 0.5232,-0.41031 0.53486,-0.39865 0.12455,0.12455 -0.43093,0.54948 -0.70182,0.72422 -0.70182,0.45272 z M 93.84272,167.55 l -0.628399,-0.74221 0.742208,0.6284 c 0.697492,0.59054 0.892378,0.85602 0.628399,0.85602 -0.0626,0 -0.396589,-0.334 -0.742208,-0.74221 z m -9.236364,-1.97922 -0.628398,-0.74221 0.742207,0.6284 c 0.697493,0.59054 0.892379,0.85602 0.628399,0.85602 -0.0626,0 -0.396589,-0.334 -0.742208,-0.74221 z m 33.270294,-0.15424 c 0.50142,-0.0758 1.24363,-0.0738 1.64935,0.005 0.40572,0.0783 -0.005,0.14034 -0.91168,0.13786 -0.90714,-0.002 -1.23909,-0.0665 -0.73767,-0.14236 z m -58.865738,-0.3185 c 0.238125,-0.0953 0.522638,-0.0836 0.632251,0.026 0.109613,0.10961 -0.08522,0.18758 -0.432955,0.17325 -0.384279,-0.0158 -0.462444,-0.094 -0.199296,-0.19929 z m 6.906656,0.007 c 0.226786,-0.0915 0.597889,-0.0915 0.824675,0 0.226786,0.0915 0.04123,0.16638 -0.412338,0.16638 -0.453571,0 -0.639123,-0.0749 -0.412337,-0.16638 z m 24.626451,-1.18348 -0.628399,-0.74221 0.742208,0.6284 c 0.697492,0.59054 0.892378,0.85602 0.628398,0.85602 -0.0626,0 -0.396588,-0.334 -0.742207,-0.74221 z m 92.915831,0.21991 c 0.0158,-0.38428 0.094,-0.46244 0.19929,-0.19929 0.0953,0.23812 0.0836,0.52263 -0.026,0.63225 -0.10961,0.10961 -0.18758,-0.0852 -0.17325,-0.43296 z m 5.60779,-0.65974 c 0.0158,-0.38428 0.094,-0.46244 0.19929,-0.19929 0.0953,0.23812 0.0836,0.52263 -0.026,0.63225 -0.10961,0.10961 -0.18758,-0.0852 -0.17325,-0.43296 z m -150.128224,-2.36407 -1.803017,-1.89675 1.896753,1.80302 c 1.043214,0.99166 1.896753,1.8452 1.896753,1.89675 0,0.24485 -0.315429,-0.0409 -1.990489,-1.80302 z m 150.128224,0.38485 c 0.0158,-0.38428 0.094,-0.46244 0.19929,-0.1993 0.0953,0.23813 0.0836,0.52264 -0.026,0.63226 -0.10961,0.10961 -0.18758,-0.0852 -0.17325,-0.43296 z m -27.70909,-0.98961 c 0.0158,-0.38428 0.094,-0.46244 0.19929,-0.1993 0.0953,0.23813 0.0836,0.52264 -0.026,0.63226 -0.10961,0.10961 -0.18758,-0.0852 -0.17325,-0.43296 z m 6.90123,-2.90095 c 0,-0.0685 0.25977,-0.32827 0.57727,-0.57727 0.52319,-0.41032 0.53486,-0.39865 0.12454,0.12454 -0.43093,0.54948 -0.70181,0.72422 -0.70181,0.45273 z m 12.82286,-1.11247 c -0.41032,-0.52319 -0.39865,-0.53486 0.12454,-0.12454 0.3175,0.249 0.57727,0.50877 0.57727,0.57727 0,0.27149 -0.27088,0.0968 -0.70181,-0.45273 z M 40.887828,155.17987 c -0.410315,-0.52319 -0.398648,-0.53486 0.124545,-0.12454 0.54948,0.43093 0.724223,0.70181 0.452728,0.70181 -0.0685,0 -0.328272,-0.25977 -0.577273,-0.57727 z m 42.726841,0.16494 c -0.130509,-0.22679 -0.115817,-0.3023 0.03265,-0.1678 0.148466,0.1345 0.506259,0.0603 0.795095,-0.16494 0.46465,-0.36229 0.472995,-0.34296 0.07243,0.1678 -0.539593,0.68803 -0.593462,0.6979 -0.900171,0.16494 z m 89.861181,-1.13249 c 0.23812,-0.0953 0.52264,-0.0836 0.63225,0.026 0.10961,0.10961 -0.0852,0.18757 -0.43295,0.17325 -0.38428,-0.0158 -0.46245,-0.094 -0.1993,-0.1993 z M 49.836399,152.62338 c 0.615466,-0.635 1.19325,-1.15455 1.283964,-1.15455 0.09072,0 -0.338628,0.51955 -0.954094,1.15455 -0.615466,0.635 -1.19325,1.15454 -1.283965,1.15454 -0.09071,0 0.338629,-0.51954 0.954095,-1.15454 z m 115.124681,0.37026 c 0,-0.0685 0.25977,-0.32827 0.57727,-0.57728 0.52319,-0.41031 0.53486,-0.39864 0.12454,0.12455 -0.43093,0.54948 -0.70181,0.72422 -0.70181,0.45273 z M 44.888347,149.71626 c 0,-0.0568 0.482435,-0.5392 1.072078,-1.07208 l 1.072078,-0.96886 -0.968859,1.07208 c -0.903112,0.99933 -1.175297,1.22371 -1.175297,0.96886 z m 12.782467,-1.10486 c 0.226786,-0.0915 0.59789,-0.0915 0.824676,0 0.226786,0.0915 0.04123,0.16639 -0.412338,0.16639 -0.453571,0 -0.639123,-0.0749 -0.412338,-0.16639 z m 9.236364,0 c 0.226786,-0.0915 0.59789,-0.0915 0.824676,0 0.226785,0.0915 0.04123,0.16639 -0.412338,0.16639 -0.453572,0 -0.639124,-0.0749 -0.412338,-0.16639 z m 107.228412,-0.007 c 0.23812,-0.0953 0.52264,-0.0836 0.63225,0.026 0.10961,0.10962 -0.0852,0.18758 -0.43295,0.17326 -0.38428,-0.0158 -0.46245,-0.094 -0.1993,-0.1993 z m 1.97922,0 c 0.23812,-0.0953 0.52264,-0.0836 0.63225,0.026 0.10961,0.10962 -0.0852,0.18758 -0.43295,0.17326 -0.38428,-0.0158 -0.46245,-0.094 -0.1993,-0.1993 z M 72.597438,144.23116 c 0,-0.17073 0.146741,-0.4011 0.326092,-0.51194 0.18699,-0.11557 0.242292,0.0168 0.129642,0.3104 -0.219294,0.57147 -0.455734,0.67603 -0.455734,0.20154 z m -11.607305,-1.56429 c 0.238125,-0.0953 0.522638,-0.0836 0.632251,0.026 0.109613,0.10961 -0.08522,0.18758 -0.432955,0.17326 -0.38428,-0.0158 -0.462445,-0.094 -0.199296,-0.1993 z m 2.618344,0.007 c 0.226786,-0.0915 0.597889,-0.0915 0.824675,0 0.226786,0.0915 0.04123,0.16638 -0.412337,0.16638 -0.453572,0 -0.639124,-0.0749 -0.412338,-0.16638 z M 34.688415,141.3803 c 0.01583,-0.38428 0.09399,-0.46244 0.199296,-0.19929 0.09529,0.23812 0.08357,0.52263 -0.02604,0.63225 -0.109613,0.10961 -0.187577,-0.0852 -0.173254,-0.43296 z m 55.748053,0 c 0.01583,-0.38428 0.09399,-0.46244 0.199296,-0.19929 0.09529,0.23812 0.08357,0.52263 -0.02604,0.63225 -0.109613,0.10961 -0.187578,-0.0852 -0.173254,-0.43296 z m -61.31758,-0.63225 c 0.0067,-0.54428 0.08065,-0.72701 0.164289,-0.40606 0.08364,0.32096 0.07814,0.76628 -0.01222,0.98961 -0.09036,0.22334 -0.158789,-0.0393 -0.152066,-0.58355 z m 38.200628,0.70013 c 0,-0.0685 0.259773,-0.32827 0.577273,-0.57727 0.523192,-0.41032 0.53486,-0.39865 0.124544,0.12454 -0.430933,0.54948 -0.701817,0.72423 -0.701817,0.45273 z m -32.897169,-4.16376 c 0,-0.81643 0.06433,-1.15043 0.142956,-0.74221 0.07863,0.40821 0.07863,1.0762 0,1.48441 -0.07863,0.40822 -0.142956,0.0742 -0.142956,-0.7422 z m 56.407793,0 c 0,-0.81643 0.06433,-1.15043 0.142956,-0.74221 0.07863,0.40821 0.07863,1.0762 0,1.48441 -0.07863,0.40822 -0.142956,0.0742 -0.142956,-0.7422 z m -36.653345,-1.97923 c 0,-0.45357 0.07487,-0.63912 0.166382,-0.41233 0.09151,0.22678 0.09151,0.59789 0,0.82467 -0.09151,0.22679 -0.166382,0.0412 -0.166382,-0.41234 z m -5.583346,-0.98961 c 0,-0.635 0.06789,-0.89477 0.150857,-0.57727 0.08297,0.3175 0.08297,0.83705 0,1.15455 -0.08297,0.3175 -0.150857,0.0577 -0.150857,-0.57728 z m 22.406723,0 c 0,-0.45357 0.07487,-0.63912 0.166382,-0.41233 0.09151,0.22678 0.09151,0.59789 0,0.82467 -0.09151,0.22679 -0.166382,0.0412 -0.166382,-0.41234 z m -41.881284,-0.4948 c 0.0067,-0.54429 0.08065,-0.72701 0.164289,-0.40606 0.08364,0.32095 0.07814,0.76628 -0.01222,0.98961 -0.09036,0.22333 -0.158789,-0.0393 -0.152066,-0.58355 z m 25.057907,-0.49481 c 0,-0.45357 0.07487,-0.63912 0.166382,-0.41233 0.09151,0.22678 0.09151,0.59789 0,0.82467 -0.09151,0.22679 -0.166382,0.0412 -0.166382,-0.41234 z M 154.9825,131.44382 c 0.40822,-0.0786 1.07621,-0.0786 1.48442,0 0.40821,0.0786 0.0742,0.14296 -0.74221,0.14296 -0.81643,0 -1.15042,-0.0643 -0.74221,-0.14296 z m -98.878569,-2.5307 c 0,-0.0685 0.259773,-0.32827 0.577273,-0.57727 0.523192,-0.41032 0.53486,-0.39865 0.124544,0.12454 -0.430932,0.54948 -0.701817,0.72422 -0.701817,0.45273 z M 153.337,125.83553 c 0.41033,-0.0789 1.0041,-0.0759 1.31948,0.007 0.31538,0.0826 -0.0203,0.14712 -0.74605,0.14346 -0.72572,-0.004 -0.98376,-0.0712 -0.57343,-0.15011 z m 3.2987,0 c 0.41033,-0.0789 1.0041,-0.0759 1.31948,0.007 0.31539,0.0826 -0.0203,0.14712 -0.74605,0.14346 -0.72572,-0.004 -0.98376,-0.0712 -0.57343,-0.15011 z M 177.66108,123.1 c 0.32838,-0.36286 0.67127,-0.65974 0.76199,-0.65974 0.0907,0 -0.10374,0.29688 -0.43212,0.65974 -0.32839,0.36286 -0.67128,0.65974 -0.762,0.65974 -0.0907,0 0.10374,-0.29688 0.43213,-0.65974 z m -46.01689,-1.48442 c -0.80126,-0.81642 -1.38262,-1.48441 -1.29191,-1.48441 0.0907,0 0.82052,0.66799 1.62178,1.48441 0.80127,0.81643 1.38263,1.48442 1.29191,1.48442 -0.0907,0 -0.82051,-0.66799 -1.62178,-1.48442 z m -71.313798,-1.05001 c 0.238125,-0.0953 0.522638,-0.0836 0.632251,0.026 0.109614,0.10962 -0.08522,0.18758 -0.432954,0.17326 -0.38428,-0.0158 -0.462445,-0.094 -0.199297,-0.1993 z m 4.288312,0 c 0.238125,-0.0953 0.522638,-0.0836 0.632251,0.026 0.109613,0.10962 -0.08522,0.18758 -0.432954,0.17326 -0.38428,-0.0158 -0.462445,-0.094 -0.199297,-0.1993 z m 107.295686,-0.29696 c 0.0158,-0.38428 0.094,-0.46244 0.1993,-0.19929 0.0953,0.23812 0.0836,0.52264 -0.026,0.63225 -0.10962,0.10961 -0.18758,-0.0852 -0.17326,-0.43296 z m 9.04539,-0.46731 c 0.32838,-0.36286 0.67127,-0.65974 0.76199,-0.65974 0.0907,0 -0.10374,0.29688 -0.43212,0.65974 -0.32838,0.36286 -0.67128,0.65974 -0.76199,0.65974 -0.0907,0 0.10374,-0.29688 0.43212,-0.65974 z M 42.744191,117.16234 c 0.328381,-0.36286 0.671277,-0.65974 0.761992,-0.65974 0.09071,0 -0.103741,0.29688 -0.432122,0.65974 -0.328381,0.36285 -0.671278,0.65974 -0.761992,0.65974 -0.09071,0 0.103741,-0.29689 0.432122,-0.65974 z m 39.553074,-0.0825 -0.628398,-0.74221 0.742208,0.6284 c 0.697492,0.59054 0.892378,0.85602 0.628398,0.85602 -0.0626,0 -0.396589,-0.334 -0.742208,-0.74221 z m -44.830996,-2.22662 c 0.328381,-0.36286 0.671277,-0.65974 0.761992,-0.65974 0.09071,0 -0.103741,0.29688 -0.432122,0.65974 -0.328381,0.36285 -0.671278,0.65974 -0.761992,0.65974 -0.09071,0 0.10374,-0.29689 0.432122,-0.65974 z m 130.607821,-1.73182 -0.96886,-1.07208 1.07208,0.96886 c 0.58964,0.53287 1.07208,1.01531 1.07208,1.07208 0,0.25484 -0.27219,0.0305 -1.1753,-0.96886 z m -83.296424,-1.15455 -0.799708,-0.90714 0.907143,0.79971 c 0.847861,0.74745 1.058417,1.01458 0.799708,1.01458 -0.05909,0 -0.467303,-0.40822 -0.907143,-0.90715 z m -44.837371,0.45273 c 0,-0.0685 0.259772,-0.32827 0.577272,-0.57727 0.523193,-0.41032 0.53486,-0.39865 0.124545,0.12454 -0.430933,0.54948 -0.701817,0.72423 -0.701817,0.45273 z m 132.235845,-3.09169 c -0.41031,-0.52319 -0.39865,-0.53486 0.12455,-0.12454 0.3175,0.249 0.57727,0.50877 0.57727,0.57727 0,0.27149 -0.27089,0.0968 -0.70182,-0.45273 z M 61.629256,109.00683 c 0.589643,-0.0732 1.554513,-0.0732 2.144156,0 0.589643,0.0732 0.107208,0.13304 -1.072078,0.13304 -1.179286,0 -1.661721,-0.0599 -1.072078,-0.13304 z m 92.210744,-0.006 c 1.04984,-0.0657 2.6827,-0.0651 3.62857,0.001 0.94588,0.0664 0.0869,0.12012 -1.90879,0.11938 -1.99572,-7.4e-4 -2.76962,-0.0551 -1.71978,-0.12074 z M 66.597925,103.7417 c 0.238125,-0.0953 0.522638,-0.0836 0.632251,0.0261 0.109613,0.10961 -0.08522,0.18757 -0.432954,0.17325 -0.38428,-0.0158 -0.462445,-0.094 -0.199297,-0.1993 z m 88.714445,-0.32299 c 0.22679,-0.0915 0.59789,-0.0915 0.82468,0 0.22679,0.0915 0.0412,0.16638 -0.41234,0.16638 -0.45357,0 -0.63912,-0.0749 -0.41234,-0.16638 z m -27.93045,-2.94279 c 0.0158,-0.38428 0.094,-0.46245 0.1993,-0.1993 0.0953,0.23812 0.0836,0.52264 -0.026,0.63225 -0.10962,0.10961 -0.18758,-0.0852 -0.17326,-0.43295 z m 61.73621,-0.79719 c 0,-0.635 0.0679,-0.894773 0.15085,-0.577273 0.083,0.3175 0.083,0.837046 0,1.154543 -0.083,0.3175 -0.15085,0.0577 -0.15085,-0.57727 z m -67.26446,-1.979221 c 0,-1.179285 0.0599,-1.661721 0.13304,-1.072078 0.0732,0.589643 0.0732,1.554513 0,2.144156 -0.0732,0.589643 -0.13304,0.107208 -0.13304,-1.072078 z m 47.42176,-0.852164 c 0.0158,-0.38428 0.094,-0.462445 0.1993,-0.199297 0.0953,0.238125 0.0836,0.522638 -0.026,0.632251 -0.10961,0.109613 -0.18757,-0.08522 -0.17325,-0.432954 z m -22.1013,-0.32987 c 0.0158,-0.38428 0.094,-0.462445 0.1993,-0.199297 0.0953,0.238125 0.0836,0.522638 -0.0261,0.632251 -0.10961,0.109613 -0.18757,-0.08522 -0.17325,-0.432954 z m 41.944,-0.467316 c 0,-0.635 0.0679,-0.894773 0.15085,-0.577273 0.083,0.3175 0.083,0.837045 0,1.154545 -0.083,0.3175 -0.15085,0.05773 -0.15085,-0.577272 z m -47.55179,0.137445 c 0.0158,-0.384279 0.094,-0.462444 0.1993,-0.199296 0.0953,0.238125 0.0836,0.522638 -0.026,0.632251 -0.10961,0.109613 -0.18757,-0.08522 -0.17325,-0.432955 z m -14.15837,-0.797186 c 0,-0.453571 0.0749,-0.639123 0.16638,-0.412337 0.0915,0.226785 0.0915,0.597889 0,0.824675 -0.0915,0.226786 -0.16638,0.04123 -0.16638,-0.412338 z m 14.15837,-1.511904 c 0.0158,-0.38428 0.094,-0.462445 0.1993,-0.199297 0.0953,0.238125 0.0836,0.522638 -0.026,0.632251 -0.10961,0.109613 -0.18757,-0.08522 -0.17325,-0.432954 z m 27.70909,-0.659741 c 0.0158,-0.38428 0.094,-0.462444 0.1993,-0.199296 0.0953,0.238125 0.0836,0.522638 -0.026,0.632251 -0.10961,0.109613 -0.18757,-0.08522 -0.17325,-0.432955 z M 32.291431,91.866868 c 0.238125,-0.09529 0.522638,-0.08357 0.632251,0.02604 0.109613,0.109614 -0.08522,0.187578 -0.432954,0.173255 -0.38428,-0.01583 -0.462445,-0.09399 -0.199297,-0.199297 z m 67.623378,0 c 0.238121,-0.09529 0.522641,-0.08357 0.632251,0.02604 0.10961,0.109614 -0.0852,0.187578 -0.43295,0.173255 -0.384285,-0.01583 -0.46245,-0.09399 -0.199301,-0.199297 z M 43.568866,88.690286 c 0,-0.05677 0.482435,-0.539205 1.072078,-1.072078 l 1.072078,-0.968858 -0.968859,1.072078 c -0.903112,0.999327 -1.175297,1.223703 -1.175297,0.968858 z m 68.118184,-0.556521 c 0.32838,-0.362857 0.67128,-0.65974 0.76199,-0.65974 0.0907,0 -0.10374,0.296883 -0.43212,0.65974 -0.32838,0.362858 -0.67128,0.659741 -0.76199,0.659741 -0.0907,0 0.10374,-0.296883 0.43212,-0.659741 z M 24.394322,87.886363 c -0.410316,-0.523193 -0.398648,-0.53486 0.124544,-0.124544 0.3175,0.249 0.577273,0.508773 0.577273,0.577272 0,0.271495 -0.270885,0.09675 -0.701817,-0.452728 z M 154.32276,86.595818 c 0.22679,-0.09151 0.59789,-0.09151 0.82468,0 0.22678,0.09151 0.0412,0.166382 -0.41234,0.166382 -0.45357,0 -0.63912,-0.07487 -0.41234,-0.166382 z m 1.64935,0 c 0.22679,-0.09151 0.59789,-0.09151 0.82468,0 0.22679,0.09151 0.0412,0.166382 -0.41234,0.166382 -0.45357,0 -0.63912,-0.07487 -0.41234,-0.166382 z M 29.012504,84.587661 c -0.410316,-0.523192 -0.398649,-0.53486 0.124544,-0.124544 0.3175,0.249001 0.577273,0.508774 0.577273,0.577273 0,0.271494 -0.270885,0.09675 -0.701817,-0.452729 z M 155.15372,80.977896 c 0.32095,-0.08364 0.76627,-0.07814 0.98961,0.01222 0.22333,0.09036 -0.0393,0.158788 -0.58355,0.152066 -0.54429,-0.0067 -0.72702,-0.08065 -0.40606,-0.164289 z M 26.111791,79.694588 c 0.01583,-0.38428 0.09399,-0.462445 0.199297,-0.199297 0.09529,0.238125 0.08357,0.522638 -0.02604,0.632251 -0.109613,0.109613 -0.187578,-0.08522 -0.173255,-0.432954 z m 62.015586,0 c 0.01583,-0.38428 0.09399,-0.462445 0.199296,-0.199297 0.09529,0.238125 0.08357,0.522638 -0.02604,0.632251 -0.109613,0.109613 -0.187578,-0.08522 -0.173254,-0.432954 z m 27.709093,-0.32987 c 0.0158,-0.38428 0.094,-0.462445 0.19929,-0.199297 0.0953,0.238125 0.0836,0.522638 -0.026,0.632251 -0.10961,0.109613 -0.18758,-0.08522 -0.17325,-0.432954 z M 20.503999,79.034847 c 0.01583,-0.384279 0.09399,-0.462444 0.199297,-0.199296 0.09529,0.238125 0.08357,0.522638 -0.02604,0.632251 -0.109613,0.109613 -0.187577,-0.08522 -0.173254,-0.432955 z m 154.827231,-1.209523 -0.96886,-1.072078 1.07208,0.968858 c 0.58965,0.532873 1.07208,1.015308 1.07208,1.072078 0,0.254845 -0.27218,0.03047 -1.1753,-0.968858 z M 20.503999,77.055627 c 0.01583,-0.38428 0.09399,-0.462445 0.199297,-0.199297 0.09529,0.238125 0.08357,0.522638 -0.02604,0.632251 -0.109613,0.109613 -0.187577,-0.08522 -0.173254,-0.432954 z m 95.332471,-0.32987 c 0.0158,-0.38428 0.094,-0.462445 0.19929,-0.199297 0.0953,0.238125 0.0836,0.522638 -0.026,0.632251 -0.10961,0.109613 -0.18758,-0.08522 -0.17325,-0.432954 z M 88.127377,76.395886 c 0.01583,-0.384279 0.09399,-0.462444 0.199296,-0.199296 0.09529,0.238125 0.08357,0.522638 -0.02604,0.632251 -0.109613,0.109613 -0.187578,-0.08522 -0.173254,-0.432955 z M 48.21309,76.066016 c 0.01583,-0.38428 0.09399,-0.462444 0.199297,-0.199296 0.09529,0.238125 0.08357,0.522638 -0.02604,0.632251 -0.109613,0.109613 -0.187578,-0.08522 -0.173255,-0.432955 z m 83.4311,-1.951731 c 0.98546,-0.997858 1.86597,-1.814286 1.95669,-1.814286 0.0907,0 -0.64136,0.816428 -1.62682,1.814286 -0.98546,0.997857 -1.86597,1.814285 -1.95668,1.814285 -0.0907,0 0.64135,-0.816428 1.62681,-1.814285 z M 40.887828,72.712337 c -0.410315,-0.523193 -0.398648,-0.53486 0.124545,-0.124545 0.3175,0.249001 0.577272,0.508774 0.577272,0.577273 0,0.271494 -0.270884,0.09675 -0.701817,-0.452728 z m 55.13039,-0.577273 c 0.426108,-0.453572 0.848963,-0.824675 0.939677,-0.824675 0.09071,0 -0.183699,0.371103 -0.609807,0.824675 -0.426109,0.453571 -0.848963,0.824675 -0.939678,0.824675 -0.09071,0 0.183699,-0.371104 0.609808,-0.824675 z m 12.008922,0.08247 -0.6284,-0.742207 0.74221,0.628398 c 0.40821,0.345619 0.7422,0.679613 0.7422,0.742208 0,0.26398 -0.26547,0.06909 -0.85601,-0.628399 z m -79.96217,0.287794 c 0,-0.0685 0.259773,-0.328272 0.577273,-0.577273 0.523192,-0.410316 0.53486,-0.398648 0.124544,0.124544 -0.430933,0.549481 -0.701817,0.724223 -0.701817,0.452729 z m 7.855032,-2.739756 c 0.238125,-0.09529 0.522638,-0.08357 0.632252,0.02604 0.109613,0.109614 -0.08522,0.187578 -0.432955,0.173255 -0.38428,-0.01583 -0.462445,-0.09399 -0.199297,-0.199297 z m 8.266528,-1.671414 c -0.410316,-0.523193 -0.398648,-0.53486 0.124544,-0.124545 0.549481,0.430933 0.724223,0.701817 0.452729,0.701817 -0.0685,0 -0.328273,-0.259772 -0.577273,-0.577272 z M 33.281041,64.157777 c 0.238125,-0.09529 0.522638,-0.08357 0.632251,0.02604 0.109614,0.109613 -0.08522,0.187578 -0.432954,0.173254 -0.38428,-0.01583 -0.462445,-0.09399 -0.199297,-0.199296 z m 1.979221,0 c 0.238125,-0.09529 0.522638,-0.08357 0.632251,0.02604 0.109613,0.109613 -0.08522,0.187578 -0.432954,0.173254 -0.38428,-0.01583 -0.462445,-0.09399 -0.199297,-0.199296 z m 65.644158,0 c 0.23812,-0.09529 0.52264,-0.08357 0.63225,0.02604 0.10961,0.109613 -0.0852,0.187578 -0.43295,0.173254 -0.38428,-0.01583 -0.46245,-0.09399 -0.1993,-0.199296 z m 1.97922,0 c 0.23812,-0.09529 0.52264,-0.08357 0.63225,0.02604 0.10961,0.109613 -0.0852,0.187578 -0.43295,0.173254 -0.38428,-0.01583 -0.46245,-0.09399 -0.1993,-0.199296 z m 50.29086,-0.0033 c 0.32095,-0.08364 0.76627,-0.07814 0.98961,0.01222 0.22333,0.09036 -0.0393,0.158789 -0.58355,0.152066 -0.54429,-0.0067 -0.72702,-0.08065 -0.40606,-0.164289 z m 3.62229,0.0012 c 0.3175,-0.08297 0.83705,-0.08297 1.15455,0 0.3175,0.08297 0.0577,0.150857 -0.57728,0.150857 -0.635,0 -0.89477,-0.06789 -0.57727,-0.150857 z"
         id="path2" /><path
         style="fill:#ffffff"
         d="m 115.31973,232.58925 c -11.23314,-1.21457 -21.377964,-8.34571 -26.474803,-18.61003 -0.54054,-1.08857 -1.166511,-2.54605 -1.391046,-3.23884 -0.224536,-0.6928 -0.578928,-1.19631 -0.787539,-1.11892 -0.208612,0.0774 -3.153055,0.78763 -6.543209,1.57832 l -6.163915,1.4376 -0.213591,1.66053 c -0.349549,2.71751 -1.040071,4.68454 -2.323022,6.61739 -3.773556,5.6851 -11.220397,7.77263 -17.345974,4.86249 -4.1956,-1.99325 -6.842422,-5.33886 -7.751859,-9.79843 -1.846009,-9.05221 5.581808,-17.34637 14.840658,-16.57159 4.062631,0.33995 8.587714,3.17859 10.634476,6.67113 l 0.796273,1.35873 6.504499,-1.54891 6.504499,-1.54892 -0.09492,-4.08678 c -0.05221,-2.24773 0.06922,-5.10296 0.269839,-6.34496 0.88403,-5.47286 3.531596,-11.41187 6.996069,-15.69355 l 1.647935,-2.03666 -1.264867,-1.38633 c -0.695677,-0.76248 -3.182177,-3.50162 -5.525556,-6.08697 -2.343378,-2.58536 -4.305492,-4.70065 -4.360253,-4.70065 -0.05476,0 -1.172416,0.69402 -2.483677,1.54227 -8.376985,5.41904 -19.439286,6.79603 -28.644253,3.56551 -1.360715,-0.47755 -2.696689,-0.93196 -2.968832,-1.0098 -0.350723,-0.10033 -1.244165,1.21842 -3.068251,4.52884 l -2.573446,4.67038 1.136555,1.18581 c 2.875953,3.00061 4.227207,7.22811 3.601807,11.26854 -1.583805,10.23225 -12.847701,15.34711 -21.357797,9.69843 -1.01079,-0.67092 -2.349173,-1.84393 -2.974185,-2.60667 -6.700839,-8.17749 -2.487307,-20.32751 7.798649,-22.48796 2.238941,-0.47026 3.128348,-0.45962 6.09496,0.0729 1.022841,0.18361 1.042084,0.16004 3.546104,-4.34377 1.384725,-2.49061 2.517682,-4.63566 2.517682,-4.76677 0,-0.13112 -0.57329,-0.63569 -1.273978,-1.12127 -2.072263,-1.43608 -6.437466,-6.11837 -8.091808,-8.67959 -6.042763,-9.35532 -7.0824,-21.02309 -2.791609,-31.33003 2.24785,-5.39958 7.284198,-11.54786 11.948962,-14.58708 2.122496,-1.38286 2.161003,-1.43331 1.746346,-2.28807 -0.233204,-0.48072 -1.973499,-4.17938 -3.867324,-8.21925 L 38.126013,91.751102 36.138688,91.95211 C 30.840563,92.487988 25.671541,89.98987 22.79139,85.501544 19.636171,80.584562 20.112616,73.817438 23.943142,69.142785 c 4.199888,-5.125409 12.366542,-6.38029 17.999302,-2.765758 5.853514,3.75619 8.129678,11.2639 5.268583,17.377919 -0.534141,1.141434 -1.720054,2.867173 -2.635362,3.834976 l -1.664195,1.759641 3.874038,8.156487 c 3.378974,7.11417 3.958444,8.13695 4.534544,8.00364 0.363279,-0.0841 1.848039,-0.4752 3.299468,-0.86918 7.222762,-1.96056 16.138644,-0.93004 23.420779,2.70703 5.068375,2.5314 10.402672,7.47666 13.166449,12.20619 0.50355,0.8617 1.062884,1.65779 1.242963,1.76908 0.18008,0.1113 7.269772,-2.73482 15.754869,-6.32471 l 15.42745,-6.52706 -0.64,-2.33423 c -0.94704,-3.45403 -1.1646,-10.723237 -0.42886,-14.328782 0.30956,-1.517002 0.43835,-2.873426 0.28621,-3.014277 -0.15214,-0.14085 -2.17889,-0.955382 -4.50388,-1.810072 l -4.22727,-1.55398 -1.82201,2.013385 c -9.36562,10.34935 -26.534985,1.635858 -23.744011,-12.050143 1.79294,-8.791975 11.126984,-13.582877 19.233061,-9.87179 5.06105,2.317024 8.03165,6.886201 8.15199,12.538817 l 0.0489,2.296353 4.11799,1.553971 c 2.26489,0.854683 4.34065,1.56516 4.61279,1.578837 0.27837,0.01399 0.91243,-0.774371 1.44956,-1.802338 2.21857,-4.245876 6.91705,-9.231208 11.59334,-12.301147 8.32676,-5.466437 19.44857,-6.622742 29.49735,-3.066761 7.60327,2.69058 14.62573,8.955726 18.2989,16.325493 7.43557,14.918584 2.9941,32.958634 -10.48199,42.574964 -2.74526,1.95898 -7.58775,4.23975 -10.93768,5.15157 -3.75064,1.02089 -10.86141,1.26034 -14.62438,0.49247 -1.51198,-0.30853 -2.78327,-0.51155 -2.82509,-0.45114 -0.0418,0.0604 -3.09139,8.49677 -6.77683,18.74748 -3.68543,10.25071 -6.76855,18.81438 -6.85137,19.03038 -0.0847,0.22095 0.61901,0.78166 1.609,1.28201 2.7625,1.39618 5.68017,3.61504 8.49541,6.4607 l 2.59219,2.6202 8.20093,-5.3305 c 4.5105,-2.93177 8.23821,-5.36433 8.28378,-5.40569 0.0456,-0.0414 -0.16651,-1.08569 -0.47129,-2.32074 -1.34379,-5.44541 1.19385,-11.49949 6.1544,-14.68267 4.91698,-3.15522 11.6841,-2.67877 16.35876,1.15175 5.12541,4.19989 6.38029,12.36654 2.76575,17.9993 -2.99231,4.66312 -8.59491,7.22022 -13.80768,6.30201 -2.46171,-0.43363 -5.65086,-1.81952 -6.66081,-2.89456 -0.40892,-0.43528 -0.9616,-0.79141 -1.22818,-0.79141 -0.35085,0 -15.46,9.54351 -16.52251,10.43625 -0.0737,0.0619 0.12931,0.74497 0.45102,1.518 2.20306,5.29366 2.66766,7.01355 3.14931,11.65843 0.71035,6.85048 -0.92255,14.08295 -4.55748,20.18605 -3.87446,6.50526 -10.80408,12.18615 -17.71155,14.5199 -4.5487,1.53682 -10.25121,2.18627 -14.84005,1.6901 z m 8.7909,-5.71686 c 3.3098,-0.63796 6.40645,-1.8143 9.16729,-3.48243 2.66132,-1.60799 2.66355,-1.61986 0.97113,-5.17477 -1.1556,-2.42733 -4.24399,-5.45016 -6.73219,-6.5893 -4.16523,-1.90691 -13.02457,-1.88655 -17.23182,0.0396 -2.46188,1.12709 -5.48801,4.11591 -6.65918,6.57708 -1.64561,3.4582 -1.64105,3.48371 0.89756,5.0289 5.87271,3.57455 12.96225,4.8779 19.58721,3.60093 z m -61.315181,-5.66293 c 1.842841,-0.62791 4.020572,-2.65417 4.874922,-4.53584 1.867096,-4.1122 -0.349961,-9.56573 -4.615176,-11.35244 -1.514,-0.63422 -4.801514,-0.63422 -6.315514,0 -3.132642,1.31227 -5.250487,4.5428 -5.243464,7.9983 0.005,2.46065 0.79303,4.28311 2.617706,6.05389 2.285714,2.21822 5.540078,2.90649 8.681526,1.83609 z m 36.187736,-5.99416 c 1.466665,-2.83613 4.765225,-6.19324 7.670585,-7.80671 2.31079,-1.28328 2.46993,-1.67284 1.13575,-2.78012 -0.77728,-0.64508 -2.22025,-4.20548 -2.56038,-6.31749 -1.31077,-8.13915 5.3545,-15.83436 13.71505,-15.83436 8.36055,0 15.02582,7.69521 13.71505,15.83436 -0.34013,2.11201 -1.7831,5.67241 -2.56037,6.31749 -1.33419,1.10728 -1.17504,1.49684 1.13575,2.78012 2.90522,1.6134 6.2039,4.97057 7.67058,7.8066 0.63287,1.22376 1.29912,2.18126 1.48055,2.12779 0.6291,-0.18542 3.68986,-5.077 4.701,-7.51295 2.72484,-6.56444 2.76145,-14.5563 0.0967,-21.10443 -6.0906,-14.96634 -23.37974,-21.94312 -37.72193,-15.22214 -6.61251,3.09872 -11.065583,7.52684 -14.051584,13.97283 -4.163037,8.98691 -3.376623,18.92575 2.155357,27.2398 0.997879,1.49972 1.916232,2.72622 2.040783,2.72555 0.124552,-6.7e-4 0.744264,-1.00252 1.377139,-2.22634 z m 22.528195,-10.78159 c 3.27597,-1.16874 5.4612,-3.85452 5.75282,-7.0706 0.2696,-2.97315 -0.35721,-4.78908 -2.36294,-6.84572 -1.64427,-1.68601 -3.96608,-2.76284 -5.95707,-2.76284 -1.99098,0 -4.31279,1.07683 -5.95707,2.76284 -2.00573,2.05664 -2.63254,3.87257 -2.36294,6.84572 0.37366,4.12073 4.13197,7.51573 8.32001,7.51573 0.72572,0 1.88095,-0.20031 2.56719,-0.44513 z m -83.385371,-8.88872 c 2.01329,-0.95178 3.209303,-2.18228 4.117569,-4.2363 2.510479,-5.67737 -1.515128,-11.77119 -7.79094,-11.79365 -5.776711,-0.0207 -9.810641,5.71388 -7.876204,11.19666 1.665764,4.72128 7.034273,6.9679 11.549575,4.83329 z m 66.888711,-26.92836 c 4.10723,-1.90617 7.58337,-2.69938 12.60999,-2.87742 3.56387,-0.12624 5.24578,-0.0355 7.36724,0.39739 1.51197,0.30853 2.79501,0.51155 2.85119,0.45114 0.1411,-0.1517 13.69716,-37.7634 13.69716,-38.00317 0,-0.10628 -0.63088,-0.51271 -1.40195,-0.90316 -4.39739,-2.22677 -9.91322,-7.22107 -12.70428,-11.50307 -0.76666,-1.17619 -1.44158,-2.2815 -1.49983,-2.45624 -0.0762,-0.22867 -30.42635,12.28771 -31.169812,12.85442 -0.05458,0.0416 0.233004,1.31748 0.639086,2.83528 1.059483,3.95999 1.074512,11.4008 0.03141,15.55012 -1.262666,5.02271 -3.503566,9.562 -6.592804,13.35475 -0.792958,0.97354 -1.395357,1.8902 -1.338665,2.03703 0.05669,0.14683 2.531429,2.94448 5.499415,6.21698 l 5.396339,5.95002 2.280681,-1.47536 c 1.25437,-0.81146 3.20505,-1.90437 4.33483,-2.42871 z m 73.88577,1.57063 c 3.05939,-1.28452 5.02839,-4.5514 4.798,-7.96062 -0.31334,-4.63668 -3.41699,-7.74032 -8.05367,-8.05366 -4.80274,-0.32457 -8.7705,3.52012 -8.7705,8.49845 0,2.19177 0.58273,3.73979 2.027,5.38472 2.66985,3.04079 6.09428,3.77063 9.99917,2.13111 z m -107.622533,-6.12 c 1.723572,-0.56877 4.172858,-1.67815 5.442858,-2.46529 2.177882,-1.34984 2.303934,-1.49391 2.218337,-2.53529 -0.253991,-3.09012 -4.457177,-7.98726 -8.207132,-9.56214 -1.70059,-0.71421 -2.529544,-0.82488 -7.025529,-0.93802 -3.28891,-0.0828 -5.78237,0.0171 -7.02795,0.28142 -2.0193,0.42852 -5.039098,2.0473 -6.608279,3.5424 -1.33014,1.26734 -2.905169,3.84221 -3.545724,5.79656 l -0.555095,1.69362 1.356205,0.92487 c 1.982375,1.3519 4.039858,2.3533 6.49185,3.15965 3.521186,1.15798 4.848083,1.32591 9.708511,1.22871 4.147729,-0.0829 4.937419,-0.19771 7.751948,-1.12649 z M 46.17008,148.81501 c 1.434055,-1.42098 3.325271,-2.90712 4.407743,-3.46363 1.042783,-0.53612 1.896322,-1.0747 1.896753,-1.19685 4.31e-4,-0.12215 -0.372586,-0.66582 -0.828926,-1.20815 -0.45634,-0.54233 -1.235659,-1.85258 -1.731818,-2.91167 -0.811521,-1.73225 -0.902109,-2.28999 -0.902109,-5.55419 0,-3.39999 0.06668,-3.76933 1.058426,-5.86306 2.69936,-5.69872 8.871153,-8.95805 14.881396,-7.85886 9.328947,1.70613 14.304508,11.65017 10.021061,20.02787 -0.381856,0.74685 -1.096857,1.83633 -1.588891,2.42108 -0.730422,0.86806 -0.808992,1.11738 -0.428105,1.35848 0.256577,0.16241 0.616926,0.29757 0.800777,0.30035 0.526024,0.008 3.824131,2.27721 5.223183,3.59381 1.486863,1.39924 3.566615,4.34555 4.290651,6.07842 0.280026,0.67019 0.583432,1.21853 0.674238,1.21853 0.394014,0 3.248337,-4.39104 4.307565,-6.62668 1.878489,-3.9648 2.548435,-7.07895 2.548435,-11.84604 0,-3.11864 -0.166415,-4.75263 -0.682955,-6.70579 -3.413127,-12.90582 -14.350119,-21.47123 -27.41617,-21.47123 -13.066051,0 -24.003043,8.56541 -27.41617,21.47123 -0.961095,3.63412 -0.955555,9.79418 0.01211,13.46812 0.868272,3.29657 2.553799,6.88681 4.539778,9.66991 l 1.528109,2.14146 1.146572,-2.27711 c 0.787576,-1.56414 1.933019,-3.05639 3.658345,-4.766 z m 19.99489,-6.70898 c 3.077235,-1.45476 4.856438,-4.20986 4.881354,-7.55878 0.01935,-2.60118 -0.842592,-4.5919 -2.720778,-6.28385 -1.838609,-1.65629 -3.274531,-2.22721 -5.630021,-2.23847 -3.29535,-0.0158 -6.272436,1.84664 -7.767008,4.85888 -0.905589,1.82518 -0.861933,5.43696 0.08733,7.22528 2.203152,4.15052 7.106182,5.90824 11.14912,3.99694 z m 96.15714,-16.87528 c 2.06568,-0.51946 8.09399,-3.25644 9.35249,-4.24624 0.58554,-0.46052 0.58759,-0.55072 0.0494,-2.17095 -0.85211,-2.56546 -3.04531,-5.5884 -5.07941,-7.00108 -2.8036,-1.94709 -4.89733,-2.57927 -9.25262,-2.79372 -6.86745,-0.33815 -10.70044,0.72845 -14.07001,3.91526 -2.05947,1.94776 -3.27168,3.8141 -3.95757,6.09314 -0.53894,1.79076 -0.59996,1.71577 2.91686,3.58466 4.81099,2.55663 8.93211,3.50994 14.2681,3.30052 1.99571,-0.0783 4.59344,-0.38504 5.77272,-0.68159 z m -26.72794,-11.28587 c 1.45421,-2.82374 5.04582,-6.45831 7.84288,-7.93671 1.13393,-0.59934 2.06169,-1.16394 2.06169,-1.25465 0,-0.0907 -0.43856,-0.71289 -0.97457,-1.3826 -6.02162,-7.523682 -1.91857,-19.228995 7.64991,-21.823929 2.64305,-0.716784 6.63996,-0.325158 9.27732,0.909015 5.52027,2.583244 8.86534,8.818468 7.8434,14.620113 -0.37397,2.123091 -1.8247,5.655091 -2.58035,6.282221 -1.32924,1.10318 -1.17778,1.51613 0.96708,2.63674 2.81957,1.47311 6.72017,5.42519 8.00558,8.11123 0.54139,1.13132 1.1328,2.01086 1.31423,1.95453 0.69611,-0.21613 3.82216,-5.3647 4.80553,-7.91465 1.55523,-4.03285 2.06823,-7.29099 1.85254,-11.765671 -0.21894,-4.541922 -0.77734,-6.758695 -2.71466,-10.776869 -2.78285,-5.771868 -7.3589,-10.344499 -13.14284,-13.133008 -3.95058,-1.904621 -6.20445,-2.480087 -10.59278,-2.704589 -5.93597,-0.303678 -10.67051,0.779712 -15.51129,3.549394 -12.90295,7.382505 -18.01943,23.720067 -11.49797,36.714513 1.17164,2.33457 3.68274,6.14378 4.04861,6.14155 0.10978,-6.7e-4 0.71534,-1.00265 1.34569,-2.22663 z m 23.42924,-11.1863 c 2.73424,-1.12585 4.64815,-3.916337 4.87667,-7.110182 0.26454,-3.697332 -1.30777,-6.488146 -4.64783,-8.249812 -1.9134,-1.009192 -5.45354,-1.021831 -7.32104,-0.02614 -6.06122,3.231645 -6.38775,11.399402 -0.59897,14.982344 2.0757,1.28474 5.15863,1.44659 7.69117,0.40379 z M 37.842177,85.977483 c 1.54419,-0.624106 3.61563,-2.641002 4.420921,-4.304511 1.467601,-3.03166 0.570436,-7.55274 -1.935361,-9.752859 -1.910898,-1.677791 -3.791167,-2.351482 -6.12314,-2.19389 -4.636678,0.313342 -7.740321,3.416985 -8.053662,8.053663 -0.411768,6.09314 5.91757,10.531108 11.691242,8.197597 z m 68.309463,-0.440622 c 6.39775,-3.290344 5.61882,-12.965698 -1.23861,-15.385138 -5.482777,-1.934438 -11.217335,2.099492 -11.196659,7.876204 0.02347,6.556838 6.583879,10.518288 12.435269,7.508934 z"
         id="path1" /></g></g></svg>
