<?xml version="1.0" encoding="UTF-8" standalone="no"?>
<!-- Created with Inkscape (http://www.inkscape.org/) -->

<svg
   width="122.51994mm"
   height="114.13799mm"
   viewBox="0 0 122.51994 114.13799"
   version="1.1"
   id="svg5"
   xml:space="preserve"
   xmlns="http://www.w3.org/2000/svg"
   xmlns:svg="http://www.w3.org/2000/svg"><defs
     id="defs2" /><path
     style="opacity:0.9;fill:#ffaa63;fill-opacity:0.967532;fill-rule:evenodd;stroke:#ffffff;stroke-width:0.499999;stroke-miterlimit:0;stroke-dasharray:none;stroke-opacity:0.901961"
     d="m 16.835711,18.077989 8.880398,-4.27575 4.933554,-2.63123 10.52492,-3.2890296 22.965684,-2.65691 18.85287,-3.66583 8.11721,-1.30922996 h 7.59352 L 105.25,2.0829294 l 5.7606,2.88029 5.7606,5.4987596 2.8803,5.23691 1.83291,6.28428 0.78554,13.61597 v 14.92518 l -1.04738,13.61596 -3.66584,13.87781 -7.59351,12.30673 -9.16459,11.521201 -5.236913,3.66583 -10.73566,4.71322 -8.6409,1.83292 -8.11721,1.04738 -4.97506,0.78553 -3.40399,-0.52369 -4.18952,-1.04738 -4.97507,-0.78553 -7.069814,-4.18953 -8.90275,-6.80798 -7.331668,-6.546141 -6.284291,-6.80798 -4.975061,-5.49875 -8.3790523,-7.85536 -5.760598,-8.90274 -1.571075,-6.28429 v -3.66584 l 0.785537,-9.68828 4.189527,-10.9975 5.2369083,-7.59352 3.403989,-3.92768 z"
     id="path6369" /></svg>
