<?xml version="1.0" encoding="UTF-8" standalone="no"?>
<svg
   viewBox="0 0 64 80"
   x="0px"
   y="0px"
   version="1.1"
   id="svg18355"
   sodipodi:docname="tools.svg"
   inkscape:version="1.2.2 (b0a8486, 2022-12-01)"
   xmlns:inkscape="http://www.inkscape.org/namespaces/inkscape"
   xmlns:sodipodi="http://sodipodi.sourceforge.net/DTD/sodipodi-0.dtd"
   xmlns="http://www.w3.org/2000/svg"
   xmlns:svg="http://www.w3.org/2000/svg"
   xmlns:rdf="http://www.w3.org/1999/02/22-rdf-syntax-ns#"
   xmlns:cc="http://creativecommons.org/ns#"
   xmlns:dc="http://purl.org/dc/elements/1.1/">
  <defs
     id="defs18359" />
  <sodipodi:namedview
     id="namedview18357"
     pagecolor="#ffffff"
     bordercolor="#000000"
     borderopacity="0.25"
     inkscape:showpageshadow="2"
     inkscape:pageopacity="0.0"
     inkscape:pagecheckerboard="0"
     inkscape:deskcolor="#d1d1d1"
     showgrid="false"
     inkscape:zoom="11.2875"
     inkscape:cx="24.451827"
     inkscape:cy="41.860465"
     inkscape:window-width="1387"
     inkscape:window-height="1027"
     inkscape:window-x="196"
     inkscape:window-y="25"
     inkscape:window-maximized="0"
     inkscape:current-layer="svg18355" />
  <title
     id="title18339">architecture-math-drawing-stationary</title>
  <g
     id="g18349"
     style="fill:#e5a50a"
     transform="matrix(0.18789547,0,0,0.16007855,13.229968,23.636591)">
    <path
       d="M 3.707,2.293 A 1,1 0 0 0 2,3 v 58 a 1,1 0 0 0 1,1 h 58 a 1,1 0 0 0 0.707,-1.707 z M 4,60 V 5.414 L 9.586,11 7.293,13.293 a 1,1 0 1 0 1.414,1.414 L 11,12.414 12.586,14 11.293,15.293 a 1,1 0 1 0 1.414,1.414 L 14,15.414 15.586,17 13.293,19.293 a 1,1 0 1 0 1.414,1.414 L 17,18.414 18.586,20 17.293,21.293 a 1,1 0 1 0 1.414,1.414 L 20,21.414 21.586,23 19.293,25.293 a 1,1 0 1 0 1.414,1.414 L 23,24.414 24.586,26 23.293,27.293 a 1,1 0 1 0 1.414,1.414 L 26,27.414 27.586,29 25.293,31.293 a 1,1 0 1 0 1.414,1.414 L 29,30.414 30.586,32 29.293,33.293 a 1,1 0 1 0 1.414,1.414 L 32,33.414 33.586,35 31.293,37.293 a 1,1 0 1 0 1.414,1.414 L 35,36.414 36.586,38 35.293,39.293 a 1,1 0 1 0 1.414,1.414 L 38,39.414 39.586,41 37.293,43.293 a 1,1 0 1 0 1.414,1.414 L 41,42.414 42.586,44 41.293,45.293 a 1,1 0 1 0 1.414,1.414 L 44,45.414 45.586,47 43.293,49.293 a 1,1 0 1 0 1.414,1.414 L 47,48.414 48.586,50 47.293,51.293 a 1,1 0 1 0 1.414,1.414 L 50,51.414 51.586,53 49.293,55.293 a 1,1 0 1 0 1.414,1.414 L 53,54.414 58.586,60 Z"
       id="path18341"
       style="fill:#e5a50a" />
    <path
       d="M 11.707,24.293 A 1,1 0 0 0 10,25 v 28 a 1,1 0 0 0 1,1 h 28 a 1,1 0 0 0 0.707,-1.707 z M 12,52 V 27.414 L 36.586,52 Z"
       id="path18343"
       style="fill:#e5a50a" />
    <path
       d="m 59.949,41.684 a 1,1 0 0 0 -0.242,-0.391 l -2,-2 -34,-34 -2.171,-2.172 v 0 a 3.828,3.828 0 1 0 -5.413,5.414 l 2.171,2.172 34,34 2,2 a 1.011,1.011 0 0 0 0.391,0.241 l 6,2 A 0.987,0.987 0 0 0 61,49 1,1 0 0 0 61.949,47.684 Z M 17,5.828 A 1.829,1.829 0 0 1 20.122,4.535 L 21.586,6 19,8.586 17.535,7.121 A 1.842,1.842 0 0 1 17,5.828 Z m 6,1.586 31.649,31.649 c -0.008,0 -0.013,0.009 -0.021,0.012 a 0.714,0.714 0 0 0 -0.071,0.04 0.982,0.982 0 0 0 -0.438,0.435 c -0.016,0.032 -0.034,0.062 -0.048,0.1 A 0.993,0.993 0 0 0 54,40 v 1 h -1 a 0.993,0.993 0 0 0 -0.354,0.071 c -0.034,0.013 -0.063,0.032 -0.1,0.048 a 0.969,0.969 0 0 0 -0.2,0.138 0.879,0.879 0 0 0 -0.083,0.078 0.988,0.988 0 0 0 -0.147,0.219 0.794,0.794 0 0 0 -0.042,0.075 c 0,0.007 -0.009,0.013 -0.012,0.02 L 20.414,10 Z M 55.54,45.126 54,43.586 V 43 h 1 a 1,1 0 0 0 1,-1 v -1 h 0.586 l 1.54,1.54 1.293,3.879 z"
       id="path18345"
       style="fill:#e5a50a" />
    <path
       d="m 58.707,13.293 -11,-11 a 1,1 0 0 0 -1.414,0 l -9,9 a 1,1 0 0 0 0,1.414 l 11,11 1.171,1.172 a 5.007,5.007 0 0 0 7.072,0 l 3.342,-3.344 a 5,5 0 0 0 0,-7.07 z M 47,4.414 56.586,14 49,21.586 39.414,12 Z m 11.464,15.707 -3.342,3.344 a 3.005,3.005 0 0 1 -4.244,0 L 50.414,23 58,15.414 l 0.464,0.465 a 3,3 0 0 1 0,4.242 z"
       id="path18347"
       style="fill:#e5a50a" />
  </g>
  <metadata
     id="metadata18499">
    <rdf:RDF>
      <cc:Work
         rdf:about="">
        <dc:title>architecture-math-drawing-stationary</dc:title>
      </cc:Work>
    </rdf:RDF>
  </metadata>
</svg>
