<?xml version="1.0" encoding="UTF-8" standalone="no"?>
<!-- Created with Inkscape (http://www.inkscape.org/) -->

<svg
   width="48"
   height="48"
   viewBox="0 0 12.7 12.7"
   version="1.1"
   id="svg5"
   xml:space="preserve"
   xmlns="http://www.w3.org/2000/svg"
   xmlns:svg="http://www.w3.org/2000/svg"><defs
     id="defs2" /><g
     id="layer1"><g
       id="g1518"
       transform="matrix(0.22599828,0,0,0.25965276,-10.236607,-29.504038)"><ellipse
         style="opacity:0.9;fill:none;fill-rule:evenodd;stroke:#3d3846;stroke-width:0.616716;stroke-miterlimit:0;stroke-opacity:0.901961"
         id="path558"
         cx="54.269104"
         cy="120.21429"
         rx="4.6462932"
         ry="4.4818416" /><ellipse
         style="opacity:0.9;fill:none;fill-rule:evenodd;stroke:#3d3846;stroke-width:0.616716;stroke-miterlimit:0;stroke-opacity:0.901961"
         id="ellipse560"
         cx="92.421928"
         cy="120.87209"
         rx="4.6462932"
         ry="4.4818416" /><path
         style="opacity:0.9;fill:none;fill-rule:evenodd;stroke:#3d3846;stroke-width:0.7;stroke-miterlimit:0;stroke-opacity:0.901961"
         d="m 50.32226,131.89036 -0.328906,10.19602 -1.644518,0.98671 -1.315614,-3.28904 0.328903,-10.52491 2.631229,-1.97343 9.538207,-0.3289 2.302325,4.27575 v 11.18272 l -1.644517,0.32891 -1.644518,-1.64452 0.328903,-9.20931 v 0 l -0.328903,0.32891"
         id="path564" /><path
         style="opacity:0.9;fill:none;fill-rule:evenodd;stroke:#3d3846;stroke-width:0.7;stroke-miterlimit:0;stroke-opacity:0.901961"
         d="m 50.32226,142.41528 0.328903,17.43189 2.960132,0.98672 0.986711,-3.28904 V 143.7309"
         id="path629" /><path
         style="opacity:0.9;fill:none;fill-rule:evenodd;stroke:#3d3846;stroke-width:0.7;stroke-miterlimit:0;stroke-opacity:0.901961"
         d="m 54.926909,159.51827 2.302325,0.98671 0.986713,-1.31561 0.657807,-0.98671 0.328904,-15.78738 v 0"
         id="path631" /><path
         style="opacity:0.9;fill:none;fill-rule:evenodd;stroke:#3d3846;stroke-width:0.7;stroke-miterlimit:0;stroke-opacity:0.901961"
         d="m 88.803987,143.40199 0.657807,15.78738 2.960132,1.31561 h 0.98671 L 92.750829,144.3887 v 0 0"
         id="path1378" /><path
         style="opacity:0.9;fill:none;fill-rule:evenodd;stroke:#3d3846;stroke-width:0.7;stroke-miterlimit:0;stroke-opacity:0.901961"
         d="m 94.066443,160.50498 3.61794,-0.98671 -0.657805,-17.10299"
         id="path1380" /><path
         style="opacity:0.9;fill:none;fill-rule:evenodd;stroke:#3d3846;stroke-width:0.7;stroke-miterlimit:0;stroke-opacity:0.901961"
         d="m 88.803987,144.3887 0.328903,14.47176 3.946843,1.64452 v -0.98671 l 0.98671,0.65781 -0.98671,-0.32891"
         id="path1431" /><path
         style="opacity:0.9;fill:#e5a50a;fill-rule:evenodd;stroke:#3d3846;stroke-width:0.7;stroke-miterlimit:0;stroke-opacity:0.901961"
         d="m 74.003322,148.66445 -0.328904,2.63123 c 0,0 3.617939,4.60465 4.275746,6.24917 0.657808,1.64452 -0.657807,2.63123 -0.657807,2.63123 l -1.973421,0.65781 -4.933556,-7.23589 0.328904,-4.27574 0.328904,-3.94685 h -5.591361 l 0.657807,3.61794 1.315615,4.27575 -3.289038,-0.3289 -3.289036,-6.90698 1.644518,-3.28903 5.920266,-1.64452 v -8.5515 l 0.328904,-4.27575 1.644517,-5.92026 7.235881,-3.94685 h 0.657807 l 1.644518,1.97343 v 1.64451 l -7.564782,2.63123 -0.328906,7.23588 3.617942,-4.27574 h 7.235881 l 2.302325,1.64452 -2.302325,0.98671 -6.24917,0.3289 -1.315614,3.28904 -0.328904,5.92026 -0.328903,0.32891"
         id="path1433" /><path
         style="opacity:0.9;fill:#e5a50a;fill-rule:evenodd;stroke:#3d3846;stroke-width:0.7;stroke-miterlimit:0;stroke-opacity:0.901961"
         d="M 74.003322,148.00664 Z"
         id="path1498" /><ellipse
         style="opacity:0.9;fill:#e5a50a;fill-rule:evenodd;stroke:#3d3846;stroke-width:0.616716;stroke-miterlimit:0;stroke-opacity:0.901961"
         id="ellipse562"
         cx="77.292358"
         cy="144.88206"
         rx="4.6462932"
         ry="4.4818416" /><path
         style="opacity:0.9;fill:none;fill-rule:evenodd;stroke:#3d3846;stroke-width:0.7;stroke-miterlimit:0;stroke-opacity:0.901961"
         d="m 88.803987,132.21927 -0.328906,10.19602 -1.644518,0.98671 -1.315614,-3.28904 0.328903,-10.52491 2.631229,-1.97343 9.538207,-0.3289 2.302322,4.27575 v 11.18272 l -1.644514,0.32891 -1.644518,-1.64452 0.328903,-9.20931 v 0 l -0.328903,0.32891"
         id="path1504" /></g></g></svg>
