<?xml version="1.0" encoding="UTF-8" standalone="no"?>
<!-- Created with Inkscape (http://www.inkscape.org/) -->

<svg
   width="184.58203mm"
   height="72.751152mm"
   viewBox="0 0 184.58203 72.751152"
   version="1.1"
   id="svg5"
   xml:space="preserve"
   inkscape:version="1.2.2 (b0a8486, 2022-12-01)"
   sodipodi:docname="arrow.svg"
   inkscape:export-filename="arrow.svg"
   inkscape:export-xdpi="96"
   inkscape:export-ydpi="96"
   xmlns:inkscape="http://www.inkscape.org/namespaces/inkscape"
   xmlns:sodipodi="http://sodipodi.sourceforge.net/DTD/sodipodi-0.dtd"
   xmlns="http://www.w3.org/2000/svg"
   xmlns:svg="http://www.w3.org/2000/svg"><sodipodi:namedview
     id="namedview7"
     pagecolor="#ffffff"
     bordercolor="#000000"
     borderopacity="0.25"
     inkscape:showpageshadow="2"
     inkscape:pageopacity="0.0"
     inkscape:pagecheckerboard="0"
     inkscape:deskcolor="#d1d1d1"
     inkscape:document-units="mm"
     showgrid="false"
     inkscape:zoom="0.80444024"
     inkscape:cx="329.42161"
     inkscape:cy="550.07194"
     inkscape:window-width="1387"
     inkscape:window-height="1027"
     inkscape:window-x="196"
     inkscape:window-y="25"
     inkscape:window-maximized="0"
     inkscape:current-layer="layer1" /><defs
     id="defs2" /><g
     inkscape:label="Ebene 1"
     inkscape:groupmode="layer"
     id="layer1"
     transform="translate(-27270.991,-32.36246)"><path
       style="fill:#000000;stroke-width:0.947992"
       d="m 27278.049,104.30447 c -0.444,-0.52257 -0.352,-1.28117 0.203,-1.68577 1.37,-0.99759 28.682,-5.962296 44.779,-8.139637 9.49,-1.283664 9.674,-1.451058 17.865,-16.26927 5.407,-9.77967 7.507,-12.743916 9.029,-12.743916 2.433,0 2.549,1.987591 0.306,5.259394 -1.664,2.427413 -1.664,2.427413 0.842,0.404569 9.515,-7.681252 18.493,-7.008313 17.209,1.28992 -0.532,3.441608 -0.502,3.477533 2.539,3.034454 2.435,-0.354796 3.229,-0.101277 3.802,1.214563 2.381,5.464634 18.443,7.998868 36.151,5.703922 29.724,-3.852005 42.241,-4.665769 44.277,-2.878467 4.903,4.303854 -25.795,9.606632 -48.066,8.30291 -6.82,-0.399204 -11.525,-0.146276 -19.535,1.050139 -5.803,0.866796 -15.749,2.223388 -22.102,3.014635 -6.352,0.791256 -10.929,1.589389 -10.17,1.77363 1.246,0.302568 9.935,-0.199234 55.912,-3.228701 14.583,-0.960908 17.406,-0.612097 16.039,1.981876 -0.463,0.879444 -4.612,1.264909 -18.196,1.690442 -9.677,0.303168 -22.094,0.895707 -27.592,1.316742 -5.497,0.421035 -17.993,1.365201 -27.767,2.098142 -20.243,1.518072 -19.155,1.267619 -21.231,4.886363 -1.059,1.84705 -2.307,2.7332 -3.848,2.7332 -2.279,0 -2.305,-0.5602 -0.21,-4.62334 0.375,-0.727587 -1.032,-0.86379 -5.428,-0.525368 -7.38,0.568118 -38.41,4.150708 -41.629,4.806268 -1.315,0.26791 -2.733,0.0599 -3.179,-0.4667 z m 74.669,-10.1985 c -0.369,-0.268868 -1.327,-0.297609 -2.128,-0.06384 -0.886,0.258293 -0.623,0.450026 0.671,0.488849 1.17,0.03512 1.826,-0.156099 1.457,-0.424976 z m -2.476,-3.591461 c 2.444,-0.410986 10.441,-1.500692 17.771,-2.421579 18.448,-2.317454 18.729,-2.396389 13.361,-3.751441 -2.425,-0.612291 -5.786,-2.074238 -7.469,-3.248771 -3.265,-2.278624 -9.577,-1.33283 -13.379,2.00465 -3.919,3.439914 -13.105,6.126235 -14.664,4.288238 -1.249,-1.471941 0.647,-2.953971 6.822,-5.33241 7.516,-2.894803 10.568,-5.664032 10.751,-9.755004 0.331,-7.387877 -9.137,-0.663367 -21.412,15.207248 -3.994,5.164748 -4.184,5.095284 8.219,3.009069 z m 88.577,-7.783483 c -0.764,-0.224465 -2.013,-0.224465 -2.777,0 -0.763,0.224465 -0.139,0.408118 1.388,0.408118 1.528,0 2.152,-0.183653 1.389,-0.408118 z m -141.74,13.657861 c -0.337,-0.397618 3.101,-5.970488 7.64,-12.384145 8.713,-12.311844 9.531,-14.033073 6.372,-13.409203 -1.069,0.21114 -3.318,0.606726 -4.998,0.87908 -1.68,0.272354 -3.054,1.018782 -3.054,1.658728 0,0.927522 -1.685,1.119621 -8.305,0.94703 -15.182,-0.395801 -12.769,-2.208927 7.199,-5.408692 8.119,-1.300952 14.838,-2.463438 14.933,-2.583303 0.09,-0.119865 2.469,-3.859055 5.278,-8.309311 4.458,-7.063536 6.488,-10.547335 10.987,-18.850519 1.792,-3.30811 1.326,-3.653843 -4.269,-3.169548 -18.586,1.608661 -53.59,16.09174 -53.59,22.17312 0,3.410223 4.804,3.387835 32.679,-0.152302 10.152,-1.289276 12.693,-0.940012 11.375,1.563136 -0.469,0.889432 -2.149,1.268094 -5.628,1.268094 -2.729,0 -8.617,0.566413 -13.086,1.258695 -48.361,7.491962 -33.892,-15.554306 17.285,-27.530917 23.642,-5.532751 25.099,-0.282422 7.336,26.432096 -3.251,4.888172 -3.251,4.888172 0.328,4.339027 9.072,-1.39209 15.959,-2.014406 17.739,-1.602836 2.822,0.65235 2.403,2.762163 -0.555,2.799122 -18.086,0.225989 -22.121,2.309589 -32.093,16.575164 -8.734,12.493707 -11.824,15.569069 -13.573,13.507484 z m 136.101,-4.778435 c 0.286,-1.095749 1.596,-1.529552 5.188,-1.718057 4.135,-0.217011 4.752,-0.04774 4.423,1.213706 -0.285,1.09575 -1.595,1.529553 -5.187,1.718058 -4.135,0.21701 -4.752,0.04774 -4.424,-1.213707 z"
       id="path21249"
       inkscape:export-filename="signature.svg"
       inkscape:export-xdpi="96"
       inkscape:export-ydpi="96" /></g></svg>
