<?xml version="1.0" encoding="UTF-8" standalone="no"?>
<!-- Uploaded to: SVG Repo, www.svgrepo.com, Generator: SVG Repo Mixer Tools -->

<svg
   width="25px"
   height="25px"
   viewBox="0 0 32 32"
   version="1.1"
   id="svg165"
   sodipodi:docname="email.svg"
   inkscape:version="1.2.2 (b0a8486, 2022-12-01)"
   xml:space="preserve"
   xmlns:inkscape="http://www.inkscape.org/namespaces/inkscape"
   xmlns:sodipodi="http://sodipodi.sourceforge.net/DTD/sodipodi-0.dtd"
   xmlns="http://www.w3.org/2000/svg"
   xmlns:svg="http://www.w3.org/2000/svg"><sodipodi:namedview
     id="namedview167"
     pagecolor="#ffffff"
     bordercolor="#000000"
     borderopacity="0.25"
     inkscape:showpageshadow="2"
     inkscape:pageopacity="0.0"
     inkscape:pagecheckerboard="0"
     inkscape:deskcolor="#d1d1d1"
     showgrid="false"
     inkscape:zoom="0.3853732"
     inkscape:cx="146.61113"
     inkscape:cy="927.6722"
     inkscape:window-width="1387"
     inkscape:window-height="1027"
     inkscape:window-x="196"
     inkscape:window-y="25"
     inkscape:window-maximized="0"
     inkscape:current-layer="svg165" /><defs
     id="defs134"><style
       id="style132">.cls-1{fill:#04009a;}.cls-2{fill:#77acf1;}</style></defs><g
     style="fill:#add8d8;fill-opacity:1"
     id="g4579"
     transform="matrix(1.6842105,0,0,1.6842105,0.16368171,10.113108)"><path
       d="m 16.417,6.823 v 7.809 a 0.557,0.557 0 0 1 -0.556,0.555 H 1.139 A 0.557,0.557 0 0 1 0.583,14.632 V 6.823 A 0.557,0.557 0 0 1 1.139,6.268 h 14.722 a 0.557,0.557 0 0 1 0.556,0.555 z M 1.695,7.743 v 6.146 l 4.463,-2.89 z M 13.918,7.379 H 3.082 l 4.463,3.257 a 1.777,1.777 0 0 0 1.91,0 z M 3.45,14.076 H 13.546 L 9.864,11.69 a 2.926,2.926 0 0 1 -2.728,0 z M 15.305,13.892 V 7.742 L 10.842,11 Z"
       id="path4570"
       style="fill:#add8d8;fill-opacity:1" /></g></svg>
