"use client"

<?xml version="1.0" encoding="UTF-8" standalone="no"?>
<!-- Uploaded to: SVG Repo, www.svgrepo.com, Generator: SVG Repo Mixer Tools -->

<svg
   width="800px"
   height="800px"
   viewBox="0 0 32 32"
   version="1.1"
   id="svg165"
   sodipodi:docname="phone.svg"
   inkscape:version="1.2.2 (b0a8486, 2022-12-01)"
   xmlns:inkscape="http://www.inkscape.org/namespaces/inkscape"
   xmlns:sodipodi="http://sodipodi.sourceforge.net/DTD/sodipodi-0.dtd"
   xmlns="http://www.w3.org/2000/svg"
   xmlns:svg="http://www.w3.org/2000/svg">
  <sodipodi:namedview
     id="namedview167"
     pagecolor="#ffffff"
     bordercolor="#000000"
     borderopacity="0.25"
     inkscape:showpageshadow="2"
     inkscape:pageopacity="0.0"
     inkscape:pagecheckerboard="0"
     inkscape:deskcolor="#d1d1d1"
     showgrid="false"
     inkscape:zoom="0.3853732"
     inkscape:cx="361.98677"
     inkscape:cy="704.51189"
     inkscape:window-width="1387"
     inkscape:window-height="1027"
     inkscape:window-x="196"
     inkscape:window-y="25"
     inkscape:window-maximized="0"
     inkscape:current-layer="_25._Telephone" />
  <defs
     id="defs134">
    <style
       id="style132">.cls-1{fill:#04009a;}.cls-2{fill:#77acf1;}</style>
  </defs>
  <g
     data-name="25. Telephone"
     id="_25._Telephone"
     style="fill:#add8d8;fill-opacity:1">
    <path
       class="cls-1"
       d="M5,28H3a3,3,0,0,1-3-3V5A3,3,0,0,1,3,2H5A1,1,0,0,1,5,4H3A1,1,0,0,0,2,5V25a1,1,0,0,0,1,1H5a1,1,0,0,1,0,2Z"
       id="path136"
       style="fill:#add8d8;fill-opacity:1" />
    <path
       class="cls-1"
       d="M29,28H13a1,1,0,0,1,0-2H29a1,1,0,0,0,1-1V5a1,1,0,0,0-1-1H13a1,1,0,0,1,0-2H29a3,3,0,0,1,3,3V25A3,3,0,0,1,29,28Z"
       id="path138"
       style="fill:#add8d8;fill-opacity:1" />
    <path
       class="cls-1"
       d="M11,24H7a3,3,0,0,1-3-3V3A3,3,0,0,1,7,0h4a3,3,0,0,1,3,3V21A3,3,0,0,1,11,24ZM7,2A1,1,0,0,0,6,3V21a1,1,0,0,0,1,1h4a1,1,0,0,0,1-1V3a1,1,0,0,0-1-1Z"
       id="path140"
       style="fill:#add8d8;fill-opacity:1" />
    <path
       class="cls-2"
       d="M27,12H17a1,1,0,0,1-1-1V7a1,1,0,0,1,1-1H27a1,1,0,0,1,1,1v4A1,1,0,0,1,27,12Zm-9-2h8V8H18Z"
       id="path142"
       style="fill:#add8d8;fill-opacity:1" />
    <path
       class="cls-1"
       d="M18.02,16a1,1,0,0,1-.01-2h.01a1,1,0,0,1,0,2Z"
       id="path144"
       style="fill:#add8d8;fill-opacity:1" />
    <path
       class="cls-1"
       d="M22.02,16a1,1,0,0,1-.01-2h.01a1,1,0,0,1,0,2Z"
       id="path146"
       style="fill:#add8d8;fill-opacity:1" />
    <path
       class="cls-1"
       d="M26.02,16a1,1,0,0,1-.01-2h.01a1,1,0,0,1,0,2Z"
       id="path148"
       style="fill:#add8d8;fill-opacity:1" />
    <path
       class="cls-1"
       d="M18.02,20a1,1,0,0,1-.01-2h.01a1,1,0,0,1,0,2Z"
       id="path150"
       style="fill:#add8d8;fill-opacity:1" />
    <path
       class="cls-1"
       d="M22.02,20a1,1,0,0,1-.01-2h.01a1,1,0,0,1,0,2Z"
       id="path152"
       style="fill:#add8d8;fill-opacity:1" />
    <path
       class="cls-1"
       d="M26.02,20a1,1,0,0,1-.01-2h.01a1,1,0,0,1,0,2Z"
       id="path154"
       style="fill:#add8d8;fill-opacity:1" />
    <path
       class="cls-1"
       d="M18.02,24a1,1,0,0,1-.01-2h.01a1,1,0,0,1,0,2Z"
       id="path156"
       style="fill:#add8d8;fill-opacity:1" />
    <path
       class="cls-1"
       d="M22.02,24a1,1,0,0,1-.01-2h.01a1,1,0,0,1,0,2Z"
       id="path158"
       style="fill:#add8d8;fill-opacity:1" />
    <path
       class="cls-1"
       d="M26.02,24a1,1,0,0,1-.01-2h.01a1,1,0,0,1,0,2Z"
       id="path160"
       style="fill:#add8d8;fill-opacity:1" />
    <path
       class="cls-1"
       d="M6.5,32A3.5,3.5,0,0,1,3,28.5V27a1,1,0,0,1,2,0v1.5a1.5,1.5,0,0,0,3,0V23a1,1,0,0,1,2,0v5.5A3.5,3.5,0,0,1,6.5,32Z"
       id="path162"
       style="fill:#add8d8;fill-opacity:1" />
  </g>
</svg>
